<?xml version="1.0" encoding="utf-8" standalone="no"?>
<!DOCTYPE svg PUBLIC "-//W3C//DTD SVG 1.1//EN"
  "http://www.w3.org/Graphics/SVG/1.1/DTD/svg11.dtd">
<!-- Created with matplotlib (https://matplotlib.org/) -->
<svg height="709.625937pt" version="1.1" viewBox="0 0 710.386562 709.625937" width="710.386562pt" xmlns="http://www.w3.org/2000/svg" xmlns:xlink="http://www.w3.org/1999/xlink">
 <defs>
  <style type="text/css">
*{stroke-linecap:butt;stroke-linejoin:round;}
  </style>
 </defs>
 <g id="figure_1">
  <g id="patch_1">
   <path d="M 0 709.625937 
L 710.386562 709.625937 
L 710.386562 0 
L 0 0 
z
" style="fill:#ffffff;"/>
  </g>
  <g id="axes_1">
   <g id="patch_2">
    <path d="M 58.01375 668.198437 
L 703.186562 668.198437 
L 703.186562 20.798437 
L 58.01375 20.798437 
z
" style="fill:#ffffff;"/>
   </g>
   <g id="matplotlib.axis_1">
    <g id="xtick_1">
     <g id="line2d_1">
      <defs>
       <path d="M 0 0 
L 0 3.5 
" id="m62db582b40" style="stroke:#000000;stroke-width:0.8;"/>
      </defs>
      <g>
       <use style="stroke:#000000;stroke-width:0.8;" x="87.339787" xlink:href="#m62db582b40" y="668.198437"/>
      </g>
     </g>
     <g id="text_1">
      <!-- 0 -->
      <defs>
       <path d="M 31.78125 66.40625 
Q 24.171875 66.40625 20.328125 58.90625 
Q 16.5 51.421875 16.5 36.375 
Q 16.5 21.390625 20.328125 13.890625 
Q 24.171875 6.390625 31.78125 6.390625 
Q 39.453125 6.390625 43.28125 13.890625 
Q 47.125 21.390625 47.125 36.375 
Q 47.125 51.421875 43.28125 58.90625 
Q 39.453125 66.40625 31.78125 66.40625 
z
M 31.78125 74.21875 
Q 44.046875 74.21875 50.515625 64.515625 
Q 56.984375 54.828125 56.984375 36.375 
Q 56.984375 17.96875 50.515625 8.265625 
Q 44.046875 -1.421875 31.78125 -1.421875 
Q 19.53125 -1.421875 13.0625 8.265625 
Q 6.59375 17.96875 6.59375 36.375 
Q 6.59375 54.828125 13.0625 64.515625 
Q 19.53125 74.21875 31.78125 74.21875 
z
" id="DejaVuSans-48"/>
      </defs>
      <g transform="translate(83.522287 684.316562)scale(0.12 -0.12)">
       <use xlink:href="#DejaVuSans-48"/>
      </g>
     </g>
    </g>
    <g id="xtick_2">
     <g id="line2d_2">
      <g>
       <use style="stroke:#000000;stroke-width:0.8;" x="195.954739" xlink:href="#m62db582b40" y="668.198437"/>
      </g>
     </g>
     <g id="text_2">
      <!-- 10 -->
      <defs>
       <path d="M 12.40625 8.296875 
L 28.515625 8.296875 
L 28.515625 63.921875 
L 10.984375 60.40625 
L 10.984375 69.390625 
L 28.421875 72.90625 
L 38.28125 72.90625 
L 38.28125 8.296875 
L 54.390625 8.296875 
L 54.390625 0 
L 12.40625 0 
z
" id="DejaVuSans-49"/>
      </defs>
      <g transform="translate(188.319739 684.316562)scale(0.12 -0.12)">
       <use xlink:href="#DejaVuSans-49"/>
       <use x="63.623047" xlink:href="#DejaVuSans-48"/>
      </g>
     </g>
    </g>
    <g id="xtick_3">
     <g id="line2d_3">
      <g>
       <use style="stroke:#000000;stroke-width:0.8;" x="304.56969" xlink:href="#m62db582b40" y="668.198437"/>
      </g>
     </g>
     <g id="text_3">
      <!-- 20 -->
      <defs>
       <path d="M 19.1875 8.296875 
L 53.609375 8.296875 
L 53.609375 0 
L 7.328125 0 
L 7.328125 8.296875 
Q 12.9375 14.109375 22.625 23.890625 
Q 32.328125 33.6875 34.8125 36.53125 
Q 39.546875 41.84375 41.421875 45.53125 
Q 43.3125 49.21875 43.3125 52.78125 
Q 43.3125 58.59375 39.234375 62.25 
Q 35.15625 65.921875 28.609375 65.921875 
Q 23.96875 65.921875 18.8125 64.3125 
Q 13.671875 62.703125 7.8125 59.421875 
L 7.8125 69.390625 
Q 13.765625 71.78125 18.9375 73 
Q 24.125 74.21875 28.421875 74.21875 
Q 39.75 74.21875 46.484375 68.546875 
Q 53.21875 62.890625 53.21875 53.421875 
Q 53.21875 48.921875 51.53125 44.890625 
Q 49.859375 40.875 45.40625 35.40625 
Q 44.1875 33.984375 37.640625 27.21875 
Q 31.109375 20.453125 19.1875 8.296875 
z
" id="DejaVuSans-50"/>
      </defs>
      <g transform="translate(296.93469 684.316562)scale(0.12 -0.12)">
       <use xlink:href="#DejaVuSans-50"/>
       <use x="63.623047" xlink:href="#DejaVuSans-48"/>
      </g>
     </g>
    </g>
    <g id="xtick_4">
     <g id="line2d_4">
      <g>
       <use style="stroke:#000000;stroke-width:0.8;" x="413.184642" xlink:href="#m62db582b40" y="668.198437"/>
      </g>
     </g>
     <g id="text_4">
      <!-- 30 -->
      <defs>
       <path d="M 40.578125 39.3125 
Q 47.65625 37.796875 51.625 33 
Q 55.609375 28.21875 55.609375 21.1875 
Q 55.609375 10.40625 48.1875 4.484375 
Q 40.765625 -1.421875 27.09375 -1.421875 
Q 22.515625 -1.421875 17.65625 -0.515625 
Q 12.796875 0.390625 7.625 2.203125 
L 7.625 11.71875 
Q 11.71875 9.328125 16.59375 8.109375 
Q 21.484375 6.890625 26.8125 6.890625 
Q 36.078125 6.890625 40.9375 10.546875 
Q 45.796875 14.203125 45.796875 21.1875 
Q 45.796875 27.640625 41.28125 31.265625 
Q 36.765625 34.90625 28.71875 34.90625 
L 20.21875 34.90625 
L 20.21875 43.015625 
L 29.109375 43.015625 
Q 36.375 43.015625 40.234375 45.921875 
Q 44.09375 48.828125 44.09375 54.296875 
Q 44.09375 59.90625 40.109375 62.90625 
Q 36.140625 65.921875 28.71875 65.921875 
Q 24.65625 65.921875 20.015625 65.03125 
Q 15.375 64.15625 9.8125 62.3125 
L 9.8125 71.09375 
Q 15.4375 72.65625 20.34375 73.4375 
Q 25.25 74.21875 29.59375 74.21875 
Q 40.828125 74.21875 47.359375 69.109375 
Q 53.90625 64.015625 53.90625 55.328125 
Q 53.90625 49.265625 50.4375 45.09375 
Q 46.96875 40.921875 40.578125 39.3125 
z
" id="DejaVuSans-51"/>
      </defs>
      <g transform="translate(405.549642 684.316562)scale(0.12 -0.12)">
       <use xlink:href="#DejaVuSans-51"/>
       <use x="63.623047" xlink:href="#DejaVuSans-48"/>
      </g>
     </g>
    </g>
    <g id="xtick_5">
     <g id="line2d_5">
      <g>
       <use style="stroke:#000000;stroke-width:0.8;" x="521.799593" xlink:href="#m62db582b40" y="668.198437"/>
      </g>
     </g>
     <g id="text_5">
      <!-- 40 -->
      <defs>
       <path d="M 37.796875 64.3125 
L 12.890625 25.390625 
L 37.796875 25.390625 
z
M 35.203125 72.90625 
L 47.609375 72.90625 
L 47.609375 25.390625 
L 58.015625 25.390625 
L 58.015625 17.1875 
L 47.609375 17.1875 
L 47.609375 0 
L 37.796875 0 
L 37.796875 17.1875 
L 4.890625 17.1875 
L 4.890625 26.703125 
z
" id="DejaVuSans-52"/>
      </defs>
      <g transform="translate(514.164593 684.316562)scale(0.12 -0.12)">
       <use xlink:href="#DejaVuSans-52"/>
       <use x="63.623047" xlink:href="#DejaVuSans-48"/>
      </g>
     </g>
    </g>
    <g id="xtick_6">
     <g id="line2d_6">
      <g>
       <use style="stroke:#000000;stroke-width:0.8;" x="630.414545" xlink:href="#m62db582b40" y="668.198437"/>
      </g>
     </g>
     <g id="text_6">
      <!-- 50 -->
      <defs>
       <path d="M 10.796875 72.90625 
L 49.515625 72.90625 
L 49.515625 64.59375 
L 19.828125 64.59375 
L 19.828125 46.734375 
Q 21.96875 47.46875 24.109375 47.828125 
Q 26.265625 48.1875 28.421875 48.1875 
Q 40.625 48.1875 47.75 41.5 
Q 54.890625 34.8125 54.890625 23.390625 
Q 54.890625 11.625 47.5625 5.09375 
Q 40.234375 -1.421875 26.90625 -1.421875 
Q 22.3125 -1.421875 17.546875 -0.640625 
Q 12.796875 0.140625 7.71875 1.703125 
L 7.71875 11.625 
Q 12.109375 9.234375 16.796875 8.0625 
Q 21.484375 6.890625 26.703125 6.890625 
Q 35.15625 6.890625 40.078125 11.328125 
Q 45.015625 15.765625 45.015625 23.390625 
Q 45.015625 31 40.078125 35.4375 
Q 35.15625 39.890625 26.703125 39.890625 
Q 22.75 39.890625 18.8125 39.015625 
Q 14.890625 38.140625 10.796875 36.28125 
z
" id="DejaVuSans-53"/>
      </defs>
      <g transform="translate(622.779545 684.316562)scale(0.12 -0.12)">
       <use xlink:href="#DejaVuSans-53"/>
       <use x="63.623047" xlink:href="#DejaVuSans-48"/>
      </g>
     </g>
    </g>
    <g id="text_7">
     <!-- step -->
     <defs>
      <path d="M 51.125 52.984375 
L 51.125 39.703125 
Q 45.515625 42.046875 40.28125 43.21875 
Q 35.0625 44.390625 30.421875 44.390625 
Q 25.4375 44.390625 23.015625 43.140625 
Q 20.609375 41.890625 20.609375 39.3125 
Q 20.609375 37.203125 22.4375 36.078125 
Q 24.265625 34.96875 29 34.421875 
L 32.078125 33.984375 
Q 45.515625 32.28125 50.140625 28.375 
Q 54.78125 24.46875 54.78125 16.109375 
Q 54.78125 7.375 48.328125 2.96875 
Q 41.890625 -1.421875 29.109375 -1.421875 
Q 23.6875 -1.421875 17.890625 -0.5625 
Q 12.109375 0.296875 6 2 
L 6 15.28125 
Q 11.234375 12.75 16.71875 11.46875 
Q 22.21875 10.203125 27.875 10.203125 
Q 33.015625 10.203125 35.59375 11.609375 
Q 38.1875 13.03125 38.1875 15.828125 
Q 38.1875 18.171875 36.40625 19.3125 
Q 34.625 20.453125 29.296875 21.09375 
L 26.21875 21.484375 
Q 14.546875 22.953125 9.859375 26.90625 
Q 5.171875 30.859375 5.171875 38.921875 
Q 5.171875 47.609375 11.125 51.796875 
Q 17.09375 56 29.390625 56 
Q 34.234375 56 39.546875 55.265625 
Q 44.875 54.546875 51.125 52.984375 
z
" id="DejaVuSans-Bold-115"/>
      <path d="M 27.484375 70.21875 
L 27.484375 54.6875 
L 45.515625 54.6875 
L 45.515625 42.1875 
L 27.484375 42.1875 
L 27.484375 19 
Q 27.484375 15.1875 29 13.84375 
Q 30.515625 12.5 35.015625 12.5 
L 44 12.5 
L 44 0 
L 29 0 
Q 18.65625 0 14.328125 4.3125 
Q 10.015625 8.640625 10.015625 19 
L 10.015625 42.1875 
L 1.3125 42.1875 
L 1.3125 54.6875 
L 10.015625 54.6875 
L 10.015625 70.21875 
z
" id="DejaVuSans-Bold-116"/>
      <path d="M 62.984375 27.484375 
L 62.984375 22.515625 
L 22.125 22.515625 
Q 22.75 16.359375 26.5625 13.28125 
Q 30.375 10.203125 37.203125 10.203125 
Q 42.71875 10.203125 48.5 11.84375 
Q 54.296875 13.484375 60.40625 16.796875 
L 60.40625 3.328125 
Q 54.203125 0.984375 48 -0.21875 
Q 41.796875 -1.421875 35.59375 -1.421875 
Q 20.75 -1.421875 12.515625 6.125 
Q 4.296875 13.671875 4.296875 27.296875 
Q 4.296875 40.671875 12.375 48.328125 
Q 20.453125 56 34.625 56 
Q 47.515625 56 55.25 48.234375 
Q 62.984375 40.484375 62.984375 27.484375 
z
M 45.015625 33.296875 
Q 45.015625 38.28125 42.109375 41.328125 
Q 39.203125 44.390625 34.515625 44.390625 
Q 29.4375 44.390625 26.265625 41.53125 
Q 23.09375 38.671875 22.3125 33.296875 
z
" id="DejaVuSans-Bold-101"/>
      <path d="M 25.875 7.90625 
L 25.875 -20.796875 
L 8.40625 -20.796875 
L 8.40625 54.6875 
L 25.875 54.6875 
L 25.875 46.6875 
Q 29.5 51.46875 33.890625 53.734375 
Q 38.28125 56 44 56 
Q 54.109375 56 60.59375 47.96875 
Q 67.09375 39.9375 67.09375 27.296875 
Q 67.09375 14.65625 60.59375 6.609375 
Q 54.109375 -1.421875 44 -1.421875 
Q 38.28125 -1.421875 33.890625 0.84375 
Q 29.5 3.125 25.875 7.90625 
z
M 37.5 43.3125 
Q 31.890625 43.3125 28.875 39.1875 
Q 25.875 35.0625 25.875 27.296875 
Q 25.875 19.53125 28.875 15.40625 
Q 31.890625 11.28125 37.5 11.28125 
Q 43.109375 11.28125 46.0625 15.375 
Q 49.03125 19.484375 49.03125 27.296875 
Q 49.03125 35.109375 46.0625 39.203125 
Q 43.109375 43.3125 37.5 43.3125 
z
" id="DejaVuSans-Bold-112"/>
     </defs>
     <g transform="translate(365.797031 699.930312)scale(0.12 -0.12)">
      <use xlink:href="#DejaVuSans-Bold-115"/>
      <use x="59.521484" xlink:href="#DejaVuSans-Bold-116"/>
      <use x="107.324219" xlink:href="#DejaVuSans-Bold-101"/>
      <use x="175.146484" xlink:href="#DejaVuSans-Bold-112"/>
     </g>
    </g>
   </g>
   <g id="matplotlib.axis_2">
    <g id="ytick_1">
     <g id="line2d_7">
      <defs>
       <path d="M 0 0 
L -3.5 0 
" id="mf64b69a616" style="stroke:#000000;stroke-width:0.8;"/>
      </defs>
      <g>
       <use style="stroke:#000000;stroke-width:0.8;" x="58.01375" xlink:href="#mf64b69a616" y="563.957953"/>
      </g>
     </g>
     <g id="text_8">
      <!-- $\mathdefault{10^{-7}}$ -->
      <defs>
       <path d="M 10.59375 35.5 
L 73.1875 35.5 
L 73.1875 27.203125 
L 10.59375 27.203125 
z
" id="DejaVuSans-8722"/>
       <path d="M 8.203125 72.90625 
L 55.078125 72.90625 
L 55.078125 68.703125 
L 28.609375 0 
L 18.3125 0 
L 43.21875 64.59375 
L 8.203125 64.59375 
z
" id="DejaVuSans-55"/>
      </defs>
      <g transform="translate(22.81375 568.517015)scale(0.12 -0.12)">
       <use transform="translate(0 0.684375)" xlink:href="#DejaVuSans-49"/>
       <use transform="translate(63.623047 0.684375)" xlink:href="#DejaVuSans-48"/>
       <use transform="translate(128.203125 38.965625)scale(0.7)" xlink:href="#DejaVuSans-8722"/>
       <use transform="translate(186.855469 38.965625)scale(0.7)" xlink:href="#DejaVuSans-55"/>
      </g>
     </g>
    </g>
    <g id="ytick_2">
     <g id="line2d_8">
      <g>
       <use style="stroke:#000000;stroke-width:0.8;" x="58.01375" xlink:href="#mf64b69a616" y="153.11347"/>
      </g>
     </g>
     <g id="text_9">
      <!-- $\mathdefault{10^{-6}}$ -->
      <defs>
       <path d="M 33.015625 40.375 
Q 26.375 40.375 22.484375 35.828125 
Q 18.609375 31.296875 18.609375 23.390625 
Q 18.609375 15.53125 22.484375 10.953125 
Q 26.375 6.390625 33.015625 6.390625 
Q 39.65625 6.390625 43.53125 10.953125 
Q 47.40625 15.53125 47.40625 23.390625 
Q 47.40625 31.296875 43.53125 35.828125 
Q 39.65625 40.375 33.015625 40.375 
z
M 52.59375 71.296875 
L 52.59375 62.3125 
Q 48.875 64.0625 45.09375 64.984375 
Q 41.3125 65.921875 37.59375 65.921875 
Q 27.828125 65.921875 22.671875 59.328125 
Q 17.53125 52.734375 16.796875 39.40625 
Q 19.671875 43.65625 24.015625 45.921875 
Q 28.375 48.1875 33.59375 48.1875 
Q 44.578125 48.1875 50.953125 41.515625 
Q 57.328125 34.859375 57.328125 23.390625 
Q 57.328125 12.15625 50.6875 5.359375 
Q 44.046875 -1.421875 33.015625 -1.421875 
Q 20.359375 -1.421875 13.671875 8.265625 
Q 6.984375 17.96875 6.984375 36.375 
Q 6.984375 53.65625 15.1875 63.9375 
Q 23.390625 74.21875 37.203125 74.21875 
Q 40.921875 74.21875 44.703125 73.484375 
Q 48.484375 72.75 52.59375 71.296875 
z
" id="DejaVuSans-54"/>
      </defs>
      <g transform="translate(22.81375 157.672533)scale(0.12 -0.12)">
       <use transform="translate(0 0.765625)" xlink:href="#DejaVuSans-49"/>
       <use transform="translate(63.623047 0.765625)" xlink:href="#DejaVuSans-48"/>
       <use transform="translate(128.203125 39.046875)scale(0.7)" xlink:href="#DejaVuSans-8722"/>
       <use transform="translate(186.855469 39.046875)scale(0.7)" xlink:href="#DejaVuSans-54"/>
      </g>
     </g>
    </g>
    <g id="ytick_3">
     <g id="line2d_9">
      <defs>
       <path d="M 0 0 
L -2 0 
" id="mffd485921a" style="stroke:#000000;stroke-width:0.6;"/>
      </defs>
      <g>
       <use style="stroke:#000000;stroke-width:0.6;" x="58.01375" xlink:href="#mffd485921a" y="655.103287"/>
      </g>
     </g>
    </g>
    <g id="ytick_4">
     <g id="line2d_10">
      <g>
       <use style="stroke:#000000;stroke-width:0.6;" x="58.01375" xlink:href="#mffd485921a" y="627.598568"/>
      </g>
     </g>
    </g>
    <g id="ytick_5">
     <g id="line2d_11">
      <g>
       <use style="stroke:#000000;stroke-width:0.6;" x="58.01375" xlink:href="#mffd485921a" y="603.772897"/>
      </g>
     </g>
    </g>
    <g id="ytick_6">
     <g id="line2d_12">
      <g>
       <use style="stroke:#000000;stroke-width:0.6;" x="58.01375" xlink:href="#mffd485921a" y="582.757165"/>
      </g>
     </g>
    </g>
    <g id="ytick_7">
     <g id="line2d_13">
      <g>
       <use style="stroke:#000000;stroke-width:0.6;" x="58.01375" xlink:href="#mffd485921a" y="440.28144"/>
      </g>
     </g>
    </g>
    <g id="ytick_8">
     <g id="line2d_14">
      <g>
       <use style="stroke:#000000;stroke-width:0.6;" x="58.01375" xlink:href="#mffd485921a" y="367.935318"/>
      </g>
     </g>
    </g>
    <g id="ytick_9">
     <g id="line2d_15">
      <g>
       <use style="stroke:#000000;stroke-width:0.6;" x="58.01375" xlink:href="#mffd485921a" y="316.604927"/>
      </g>
     </g>
    </g>
    <g id="ytick_10">
     <g id="line2d_16">
      <g>
       <use style="stroke:#000000;stroke-width:0.6;" x="58.01375" xlink:href="#mffd485921a" y="276.789983"/>
      </g>
     </g>
    </g>
    <g id="ytick_11">
     <g id="line2d_17">
      <g>
       <use style="stroke:#000000;stroke-width:0.6;" x="58.01375" xlink:href="#mffd485921a" y="244.258805"/>
      </g>
     </g>
    </g>
    <g id="ytick_12">
     <g id="line2d_18">
      <g>
       <use style="stroke:#000000;stroke-width:0.6;" x="58.01375" xlink:href="#mffd485921a" y="216.754086"/>
      </g>
     </g>
    </g>
    <g id="ytick_13">
     <g id="line2d_19">
      <g>
       <use style="stroke:#000000;stroke-width:0.6;" x="58.01375" xlink:href="#mffd485921a" y="192.928414"/>
      </g>
     </g>
    </g>
    <g id="ytick_14">
     <g id="line2d_20">
      <g>
       <use style="stroke:#000000;stroke-width:0.6;" x="58.01375" xlink:href="#mffd485921a" y="171.912683"/>
      </g>
     </g>
    </g>
    <g id="ytick_15">
     <g id="line2d_21">
      <g>
       <use style="stroke:#000000;stroke-width:0.6;" x="58.01375" xlink:href="#mffd485921a" y="29.436957"/>
      </g>
     </g>
    </g>
    <g id="text_10">
     <!-- cost -->
     <defs>
      <path d="M 52.59375 52.984375 
L 52.59375 38.71875 
Q 49.03125 41.15625 45.4375 42.328125 
Q 41.84375 43.5 37.984375 43.5 
Q 30.671875 43.5 26.59375 39.234375 
Q 22.515625 34.96875 22.515625 27.296875 
Q 22.515625 19.625 26.59375 15.34375 
Q 30.671875 11.078125 37.984375 11.078125 
Q 42.09375 11.078125 45.78125 12.296875 
Q 49.46875 13.53125 52.59375 15.921875 
L 52.59375 1.609375 
Q 48.484375 0.09375 44.265625 -0.65625 
Q 40.046875 -1.421875 35.796875 -1.421875 
Q 21 -1.421875 12.640625 6.171875 
Q 4.296875 13.765625 4.296875 27.296875 
Q 4.296875 40.828125 12.640625 48.40625 
Q 21 56 35.796875 56 
Q 40.09375 56 44.265625 55.25 
Q 48.4375 54.5 52.59375 52.984375 
z
" id="DejaVuSans-Bold-99"/>
      <path d="M 34.421875 43.5 
Q 28.609375 43.5 25.5625 39.328125 
Q 22.515625 35.15625 22.515625 27.296875 
Q 22.515625 19.4375 25.5625 15.25 
Q 28.609375 11.078125 34.421875 11.078125 
Q 40.140625 11.078125 43.15625 15.25 
Q 46.1875 19.4375 46.1875 27.296875 
Q 46.1875 35.15625 43.15625 39.328125 
Q 40.140625 43.5 34.421875 43.5 
z
M 34.421875 56 
Q 48.53125 56 56.46875 48.375 
Q 64.40625 40.765625 64.40625 27.296875 
Q 64.40625 13.8125 56.46875 6.1875 
Q 48.53125 -1.421875 34.421875 -1.421875 
Q 20.265625 -1.421875 12.28125 6.1875 
Q 4.296875 13.8125 4.296875 27.296875 
Q 4.296875 40.765625 12.28125 48.375 
Q 20.265625 56 34.421875 56 
z
" id="DejaVuSans-Bold-111"/>
     </defs>
     <g transform="translate(16.318125 358.61625)rotate(-90)scale(0.12 -0.12)">
      <use xlink:href="#DejaVuSans-Bold-99"/>
      <use x="59.277344" xlink:href="#DejaVuSans-Bold-111"/>
      <use x="127.978516" xlink:href="#DejaVuSans-Bold-115"/>
      <use x="187.5" xlink:href="#DejaVuSans-Bold-116"/>
     </g>
    </g>
   </g>
   <g id="line2d_22">
    <path clip-path="url(#pcaf277fa92)" d="M 87.339787 204.834603 
L 98.201282 224.854985 
L 109.062777 209.067826 
L 119.924272 215.786242 
L 130.785768 192.692905 
L 141.647263 215.646648 
L 152.508758 204.500156 
L 163.370253 213.228926 
L 174.231748 209.510309 
L 185.093243 243.881063 
L 195.954739 233.115135 
L 206.816234 236.916954 
L 217.677729 240.249165 
L 228.539224 282.317518 
L 239.400719 281.885986 
L 250.262214 265.229092 
L 261.123709 283.782199 
L 271.985205 372.869376 
L 282.8467 375.719624 
L 293.708195 357.570762 
L 304.56969 385.662036 
L 315.431185 547.928183 
L 326.29268 554.145365 
L 337.154176 539.497489 
L 348.015671 561.993759 
L 358.877166 606.291649 
L 369.738661 605.560243 
L 380.600156 598.678305 
L 391.461651 609.939213 
L 402.323147 627.77356 
L 413.184642 627.271152 
L 424.046137 625.322899 
L 434.907632 627.524928 
" style="fill:none;stroke:#1f77b4;stroke-linecap:square;stroke-opacity:0.8;stroke-width:1.5;"/>
   </g>
   <g id="line2d_23">
    <path clip-path="url(#pcaf277fa92)" d="M 87.339787 95.794294 
L 98.201282 105.502715 
L 109.062777 88.391014 
L 119.924272 98.806596 
L 130.785768 509.646476 
L 141.647263 517.891112 
L 152.508758 503.929947 
L 163.370253 516.662974 
L 174.231748 610.109246 
L 185.093243 612.054081 
L 195.954739 608.344714 
L 206.816234 612.305525 
L 217.677729 626.3457 
L 228.539224 625.140409 
L 239.400719 623.433955 
L 250.262214 626.238542 
" style="fill:none;stroke:#ff7f0e;stroke-linecap:square;stroke-opacity:0.8;stroke-width:1.5;"/>
   </g>
   <g id="line2d_24">
    <path clip-path="url(#pcaf277fa92)" d="M 87.339787 632.607231 
L 98.201282 630.041041 
L 109.062777 632.4063 
L 119.924272 632.735417 
L 130.785768 634.950193 
L 141.647263 636.445787 
L 152.508758 632.004565 
L 163.370253 635.002502 
" style="fill:none;stroke:#2ca02c;stroke-linecap:square;stroke-opacity:0.8;stroke-width:1.5;"/>
   </g>
   <g id="line2d_25">
    <path clip-path="url(#pcaf277fa92)" d="M 87.339787 623.551577 
L 98.201282 621.777511 
L 109.062777 621.021591 
L 119.924272 622.370568 
L 130.785768 623.857527 
L 141.647263 624.036146 
L 152.508758 623.982518 
L 163.370253 623.519351 
" style="fill:none;stroke:#d62728;stroke-linecap:square;stroke-opacity:0.8;stroke-width:1.5;"/>
   </g>
   <g id="line2d_26">
    <path clip-path="url(#pcaf277fa92)" d="M 87.339787 535.386056 
L 98.201282 543.169772 
L 109.062777 529.687527 
L 119.924272 539.173831 
L 130.785768 618.491075 
L 141.647263 620.506479 
L 152.508758 617.746793 
L 163.370253 619.362285 
L 174.231748 630.959262 
L 185.093243 632.03676 
L 195.954739 630.170464 
L 206.816234 632.403715 
" style="fill:none;stroke:#9467bd;stroke-linecap:square;stroke-opacity:0.8;stroke-width:1.5;"/>
   </g>
   <g id="line2d_27">
    <path clip-path="url(#pcaf277fa92)" d="M 87.339787 607.692656 
L 98.201282 610.751939 
L 109.062777 608.270735 
L 119.924272 609.262473 
L 130.785768 621.417612 
L 141.647263 621.738488 
L 152.508758 624.781106 
L 163.370253 621.55508 
" style="fill:none;stroke:#8c564b;stroke-linecap:square;stroke-opacity:0.8;stroke-width:1.5;"/>
   </g>
   <g id="line2d_28">
    <path clip-path="url(#pcaf277fa92)" d="M 87.339787 203.667697 
L 98.201282 208.44396 
L 109.062777 196.602519 
L 119.924272 200.846624 
L 130.785768 615.698411 
L 141.647263 616.098227 
L 152.508758 612.761559 
L 163.370253 618.173202 
L 174.231748 631.104111 
L 185.093243 631.619857 
L 195.954739 629.777517 
L 206.816234 631.41232 
" style="fill:none;stroke:#e377c2;stroke-linecap:square;stroke-opacity:0.8;stroke-width:1.5;"/>
   </g>
   <g id="line2d_29">
    <path clip-path="url(#pcaf277fa92)" d="M 87.339787 602.662778 
L 98.201282 604.717165 
L 109.062777 600.491762 
L 119.924272 609.885455 
L 130.785768 628.249204 
L 141.647263 628.404841 
L 152.508758 624.0385 
L 163.370253 629.70854 
L 174.231748 637.191869 
L 185.093243 636.775256 
L 195.954739 633.619461 
L 206.816234 635.803996 
" style="fill:none;stroke:#7f7f7f;stroke-linecap:square;stroke-opacity:0.8;stroke-width:1.5;"/>
   </g>
   <g id="line2d_30">
    <path clip-path="url(#pcaf277fa92)" d="M 87.339787 517.002898 
L 98.201282 528.461017 
L 109.062777 516.928949 
L 119.924272 516.896983 
L 130.785768 595.366174 
L 141.647263 600.535333 
L 152.508758 593.579022 
L 163.370253 595.003411 
L 174.231748 624.811345 
L 185.093243 625.074049 
L 195.954739 621.091109 
L 206.816234 624.73821 
L 217.677729 622.3655 
L 228.539224 621.98177 
L 239.400719 622.247976 
L 250.262214 622.391116 
L 261.123709 622.248404 
L 271.985205 621.449176 
L 282.8467 624.830141 
L 293.708195 623.654773 
L 304.56969 622.53824 
L 315.431185 624.752612 
L 326.29268 623.803323 
L 337.154176 624.838897 
L 348.015671 624.036575 
L 358.877166 621.387809 
L 369.738661 624.758552 
L 380.600156 623.782622 
L 391.461651 624.840239 
L 402.323147 624.051258 
L 413.184642 621.230836 
L 424.046137 624.755698 
L 434.907632 624.838816 
L 445.769127 624.843672 
L 456.630622 624.054591 
L 467.492118 621.476026 
L 478.353613 624.756339 
L 489.215108 624.841416 
L 500.076603 624.83821 
L 510.938098 624.840839 
L 521.799593 624.840168 
L 532.661088 624.841467 
L 543.522584 624.841832 
" style="fill:none;stroke:#bcbd22;stroke-linecap:square;stroke-opacity:0.8;stroke-width:1.5;"/>
   </g>
   <g id="line2d_31">
    <path clip-path="url(#pcaf277fa92)" d="M 87.339787 431.561825 
L 98.201282 431.880235 
L 109.062777 406.204644 
L 119.924272 446.912095 
L 130.785768 566.475404 
L 141.647263 566.364369 
L 152.508758 555.88103 
L 163.370253 579.955105 
L 174.231748 611.901702 
L 185.093243 611.883661 
L 195.954739 609.178696 
L 206.816234 614.891258 
L 217.677729 622.204371 
L 228.539224 622.561363 
L 239.400719 621.914681 
L 250.262214 623.040197 
" style="fill:none;stroke:#17becf;stroke-linecap:square;stroke-opacity:0.8;stroke-width:1.5;"/>
   </g>
   <g id="line2d_32">
    <path clip-path="url(#pcaf277fa92)" d="M 87.339787 610.461703 
L 98.201282 610.27435 
L 109.062777 605.123306 
L 119.924272 614.176124 
L 130.785768 615.147198 
L 141.647263 615.163992 
L 152.508758 612.941547 
L 163.370253 618.243953 
L 174.231748 622.849346 
L 185.093243 622.026899 
L 195.954739 624.015457 
L 206.816234 622.309422 
" style="fill:none;stroke:#1f77b4;stroke-linecap:square;stroke-opacity:0.8;stroke-width:1.5;"/>
   </g>
   <g id="line2d_33">
    <path clip-path="url(#pcaf277fa92)" d="M 87.339787 148.821153 
L 98.201282 155.183432 
L 109.062777 166.82697 
L 119.924272 160.503098 
L 130.785768 180.899513 
L 141.647263 175.018118 
L 152.508758 175.797429 
L 163.370253 174.497941 
L 174.231748 329.329816 
L 185.093243 334.910127 
L 195.954739 324.742664 
L 206.816234 342.038955 
L 217.677729 518.471363 
L 228.539224 518.51298 
L 239.400719 504.113171 
L 250.262214 526.52208 
L 261.123709 607.767563 
L 271.985205 608.978416 
L 282.8467 605.404856 
L 293.708195 611.91585 
L 304.56969 628.073098 
L 315.431185 629.950484 
L 326.29268 628.215654 
L 337.154176 628.470134 
" style="fill:none;stroke:#ff7f0e;stroke-linecap:square;stroke-opacity:0.8;stroke-width:1.5;"/>
   </g>
   <g id="line2d_34">
    <path clip-path="url(#pcaf277fa92)" d="M 87.339787 238.389654 
L 98.201282 255.717564 
L 109.062777 228.634849 
L 119.924272 246.827342 
L 130.785768 465.772288 
L 141.647263 477.68254 
L 152.508758 461.460571 
L 163.370253 470.638162 
L 174.231748 596.129747 
L 185.093243 599.656755 
L 195.954739 594.67551 
L 206.816234 597.018292 
L 217.677729 633.075226 
L 228.539224 634.633504 
L 239.400719 630.8807 
L 250.262214 634.347239 
L 261.123709 634.974902 
L 271.985205 635.764303 
L 282.8467 635.531885 
L 293.708195 635.284111 
L 304.56969 635.035329 
L 315.431185 635.085002 
L 326.29268 632.083893 
L 337.154176 633.471476 
L 348.015671 636.772687 
L 358.877166 634.804045 
L 369.738661 633.158957 
L 380.600156 634.446159 
L 391.461651 637.971618 
L 402.323147 635.084814 
L 413.184642 631.975072 
L 424.046137 636.206534 
L 434.907632 635.481834 
L 445.769127 635.795568 
L 456.630622 636.052517 
L 467.492118 636.25664 
L 478.353613 635.444624 
L 489.215108 637.592726 
L 500.076603 634.900673 
L 510.938098 633.689077 
L 521.799593 636.397969 
L 532.661088 635.090584 
L 543.522584 633.778794 
L 554.384079 634.086968 
" style="fill:none;stroke:#2ca02c;stroke-linecap:square;stroke-opacity:0.8;stroke-width:1.5;"/>
   </g>
   <g id="line2d_35">
    <path clip-path="url(#pcaf277fa92)" d="M 87.339787 627.124253 
L 98.201282 626.316345 
L 109.062777 625.350828 
L 119.924272 627.769816 
" style="fill:none;stroke:#d62728;stroke-linecap:square;stroke-opacity:0.8;stroke-width:1.5;"/>
   </g>
   <g id="line2d_36">
    <path clip-path="url(#pcaf277fa92)" d="M 87.339787 528.44856 
L 98.201282 539.132147 
L 109.062777 523.127882 
L 119.924272 549.375776 
L 130.785768 595.657996 
L 141.647263 601.061786 
L 152.508758 589.295119 
L 163.370253 601.598372 
L 174.231748 628.499164 
L 185.093243 629.455389 
L 195.954739 625.335689 
L 206.816234 629.145579 
L 217.677729 635.16082 
L 228.539224 635.492152 
L 239.400719 633.747622 
L 250.262214 637.126675 
L 261.123709 637.524898 
L 271.985205 638.479239 
L 282.8467 635.331783 
L 293.708195 635.981737 
L 304.56969 636.899532 
L 315.431185 638.086768 
L 326.29268 636.154262 
L 337.154176 633.661797 
L 348.015671 638.321771 
" style="fill:none;stroke:#9467bd;stroke-linecap:square;stroke-opacity:0.8;stroke-width:1.5;"/>
   </g>
   <g id="line2d_37">
    <path clip-path="url(#pcaf277fa92)" d="M 87.339787 627.141947 
L 98.201282 627.212883 
L 109.062777 624.279556 
L 119.924272 625.058852 
L 130.785768 631.261684 
L 141.647263 630.865505 
L 152.508758 629.995301 
L 163.370253 630.738675 
" style="fill:none;stroke:#8c564b;stroke-linecap:square;stroke-opacity:0.8;stroke-width:1.5;"/>
   </g>
   <g id="line2d_38">
    <path clip-path="url(#pcaf277fa92)" d="M 87.339787 294.197464 
L 98.201282 296.354192 
L 109.062777 287.316 
L 119.924272 303.429881 
L 130.785768 540.081689 
L 141.647263 540.175874 
L 152.508758 519.343414 
L 163.370253 556.270141 
L 174.231748 597.290108 
L 185.093243 597.180709 
L 195.954739 591.179189 
L 206.816234 601.730959 
L 217.677729 623.17175 
L 228.539224 622.264176 
L 239.400719 623.829953 
L 250.262214 623.099326 
" style="fill:none;stroke:#e377c2;stroke-linecap:square;stroke-opacity:0.8;stroke-width:1.5;"/>
   </g>
   <g id="line2d_39">
    <path clip-path="url(#pcaf277fa92)" d="M 87.339787 563.408911 
L 98.201282 570.857179 
L 109.062777 565.144045 
L 119.924272 563.549695 
L 130.785768 620.526591 
L 141.647263 620.904233 
L 152.508758 620.710397 
L 163.370253 620.387502 
" style="fill:none;stroke:#7f7f7f;stroke-linecap:square;stroke-opacity:0.8;stroke-width:1.5;"/>
   </g>
   <g id="line2d_40">
    <path clip-path="url(#pcaf277fa92)" d="M 87.339787 329.715453 
L 98.201282 345.394445 
L 109.062777 326.48782 
L 119.924272 333.792448 
L 130.785768 526.478733 
L 141.647263 535.043689 
L 152.508758 524.06276 
L 163.370253 527.937849 
L 174.231748 612.504173 
L 185.093243 615.240493 
L 195.954739 611.050331 
L 206.816234 614.493624 
L 217.677729 635.499686 
L 228.539224 634.605064 
L 239.400719 631.131565 
L 250.262214 636.83755 
" style="fill:none;stroke:#bcbd22;stroke-linecap:square;stroke-opacity:0.8;stroke-width:1.5;"/>
   </g>
   <g id="line2d_41">
    <path clip-path="url(#pcaf277fa92)" d="M 87.339787 266.631989 
L 98.201282 272.2315 
L 109.062777 262.480192 
L 119.924272 250.07739 
L 130.785768 438.053315 
L 141.647263 442.454035 
L 152.508758 414.695343 
L 163.370253 454.834594 
L 174.231748 575.859024 
L 185.093243 576.046993 
L 195.954739 567.239935 
L 206.816234 579.600642 
L 217.677729 630.934194 
L 228.539224 631.624561 
L 239.400719 628.114135 
L 250.262214 631.558556 
L 261.123709 603.701426 
L 271.985205 637.029386 
L 282.8467 637.910109 
L 293.708195 634.444896 
L 304.56969 635.283062 
L 315.431185 637.3327 
L 326.29268 638.295197 
L 337.154176 634.787122 
L 348.015671 636.801668 
" style="fill:none;stroke:#17becf;stroke-linecap:square;stroke-opacity:0.8;stroke-width:1.5;"/>
   </g>
   <g id="line2d_42">
    <path clip-path="url(#pcaf277fa92)" d="M 87.339787 596.334456 
L 98.201282 596.336151 
L 109.062777 602.016288 
L 119.924272 604.343259 
L 130.785768 618.939574 
L 141.647263 619.010166 
L 152.508758 618.352464 
L 163.370253 619.856722 
" style="fill:none;stroke:#1f77b4;stroke-linecap:square;stroke-opacity:0.8;stroke-width:1.5;"/>
   </g>
   <g id="line2d_43">
    <path clip-path="url(#pcaf277fa92)" d="M 87.339787 576.710609 
L 98.201282 581.595348 
L 109.062777 572.401752 
L 119.924272 575.162592 
L 130.785768 402.169509 
L 141.647263 612.602278 
L 152.508758 617.20416 
L 163.370253 610.311296 
L 174.231748 613.790157 
L 185.093243 636.188749 
L 195.954739 635.539064 
L 206.816234 634.745576 
L 217.677729 635.801426 
" style="fill:none;stroke:#ff7f0e;stroke-linecap:square;stroke-opacity:0.8;stroke-width:1.5;"/>
   </g>
   <g id="line2d_44">
    <path clip-path="url(#pcaf277fa92)" d="M 87.339787 212.253066 
L 98.201282 210.904314 
L 109.062777 196.542682 
L 119.924272 199.594565 
L 130.785768 355.148165 
L 141.647263 367.231726 
L 152.508758 351.37035 
L 163.370253 376.987263 
L 174.231748 514.555185 
L 185.093243 512.070628 
L 195.954739 499.464141 
L 206.816234 525.306379 
L 217.677729 603.371582 
L 228.539224 603.923997 
L 239.400719 595.385639 
L 250.262214 604.916151 
L 261.123709 630.41792 
L 271.985205 630.893859 
L 282.8467 626.805724 
L 293.708195 629.634107 
" style="fill:none;stroke:#2ca02c;stroke-linecap:square;stroke-opacity:0.8;stroke-width:1.5;"/>
   </g>
   <g id="line2d_45">
    <path clip-path="url(#pcaf277fa92)" d="M 87.339787 62.427011 
L 98.201282 80.328281 
L 109.062777 50.22571 
L 119.924272 69.738977 
L 130.785768 349.916108 
L 141.647263 364.828648 
L 152.508758 338.53774 
L 163.370253 357.888428 
L 174.231748 545.104201 
L 185.093243 552.813046 
L 195.954739 541.519923 
L 206.816234 549.597072 
L 217.677729 611.30318 
L 228.539224 612.050035 
L 239.400719 608.420214 
L 250.262214 613.479801 
L 261.123709 626.369256 
L 271.985205 626.440461 
L 282.8467 626.111278 
L 293.708195 627.540551 
" style="fill:none;stroke:#d62728;stroke-linecap:square;stroke-opacity:0.8;stroke-width:1.5;"/>
   </g>
   <g id="line2d_46">
    <path clip-path="url(#pcaf277fa92)" d="M 87.339787 627.979363 
L 98.201282 628.403027 
L 109.062777 627.464775 
L 119.924272 627.787397 
" style="fill:none;stroke:#9467bd;stroke-linecap:square;stroke-opacity:0.8;stroke-width:1.5;"/>
   </g>
   <g id="line2d_47">
    <path clip-path="url(#pcaf277fa92)" d="M 87.339787 624.50811 
L 98.201282 622.897264 
L 109.062777 624.336405 
L 119.924272 623.477432 
L 130.785768 633.691358 
L 141.647263 633.234749 
L 152.508758 632.567289 
L 163.370253 633.565049 
" style="fill:none;stroke:#8c564b;stroke-linecap:square;stroke-opacity:0.8;stroke-width:1.5;"/>
   </g>
   <g id="line2d_48">
    <path clip-path="url(#pcaf277fa92)" d="M 87.339787 634.579099 
L 98.201282 637.207257 
L 109.062777 635.057857 
L 119.924272 634.296679 
" style="fill:none;stroke:#e377c2;stroke-linecap:square;stroke-opacity:0.8;stroke-width:1.5;"/>
   </g>
   <g id="line2d_49">
    <path clip-path="url(#pcaf277fa92)" d="M 87.339787 263.122592 
L 98.201282 281.625896 
L 109.062777 257.28647 
L 119.924272 288.075101 
L 130.785768 433.072184 
L 141.647263 431.433856 
L 152.508758 409.37612 
L 163.370253 449.241767 
L 174.231748 574.293392 
L 185.093243 575.695834 
L 195.954739 567.004014 
L 206.816234 582.82985 
L 217.677729 618.456703 
L 228.539224 618.889973 
L 239.400719 616.398889 
L 250.262214 619.042297 
L 261.123709 629.030786 
L 271.985205 627.849537 
L 282.8467 630.564258 
L 293.708195 630.287424 
L 304.56969 629.416976 
L 315.431185 629.695997 
L 326.29268 627.662814 
L 337.154176 630.76893 
" style="fill:none;stroke:#7f7f7f;stroke-linecap:square;stroke-opacity:0.8;stroke-width:1.5;"/>
   </g>
   <g id="line2d_50">
    <path clip-path="url(#pcaf277fa92)" d="M 87.339787 204.863627 
L 98.201282 196.610495 
L 109.062777 191.434176 
L 119.924272 199.966328 
L 130.785768 483.225554 
L 141.647263 485.096329 
L 152.508758 473.548877 
L 163.370253 496.722095 
L 174.231748 591.839225 
L 185.093243 591.879356 
L 195.954739 585.554248 
L 206.816234 595.684015 
L 217.677729 625.328876 
L 228.539224 624.287315 
L 239.400719 624.099874 
L 250.262214 625.661168 
" style="fill:none;stroke:#bcbd22;stroke-linecap:square;stroke-opacity:0.8;stroke-width:1.5;"/>
   </g>
   <g id="line2d_51">
    <path clip-path="url(#pcaf277fa92)" d="M 87.339787 378.402574 
L 98.201282 393.714374 
L 109.062777 371.530759 
L 119.924272 385.029001 
L 130.785768 553.815869 
L 141.647263 562.083655 
L 152.508758 553.842901 
L 163.370253 555.299286 
L 174.231748 621.917309 
L 185.093243 623.132883 
L 195.954739 619.315617 
L 206.816234 623.412735 
L 217.677729 625.55359 
L 228.539224 625.977237 
L 239.400719 625.135747 
L 250.262214 626.737139 
" style="fill:none;stroke:#17becf;stroke-linecap:square;stroke-opacity:0.8;stroke-width:1.5;"/>
   </g>
   <g id="line2d_52">
    <path clip-path="url(#pcaf277fa92)" d="M 87.339787 198.693126 
L 98.201282 178.59594 
L 109.062777 195.996809 
L 119.924272 195.946029 
L 130.785768 535.087172 
L 141.647263 526.002679 
L 152.508758 523.034605 
L 163.370253 541.570729 
L 174.231748 611.968004 
L 185.093243 611.681151 
L 195.954739 609.069153 
L 206.816234 614.925355 
L 217.677729 629.308775 
L 228.539224 627.650857 
L 239.400719 627.549782 
L 250.262214 628.89952 
" style="fill:none;stroke:#1f77b4;stroke-linecap:square;stroke-opacity:0.8;stroke-width:1.5;"/>
   </g>
   <g id="line2d_53">
    <path clip-path="url(#pcaf277fa92)" d="M 87.339787 306.92509 
L 98.201282 320.45537 
L 109.062777 303.972116 
L 119.924272 306.83524 
L 130.785768 525.546858 
L 141.647263 537.122513 
L 152.508758 524.046498 
L 163.370253 526.412926 
L 174.231748 609.158867 
L 185.093243 613.243003 
L 195.954739 608.47714 
L 206.816234 609.128933 
L 217.677729 290.713498 
L 228.539224 632.597836 
L 239.400719 635.918451 
L 250.262214 632.672584 
L 261.123709 633.334586 
L 271.985205 632.906217 
L 282.8467 633.395971 
L 293.708195 632.796155 
L 304.56969 632.287751 
" style="fill:none;stroke:#ff7f0e;stroke-linecap:square;stroke-opacity:0.8;stroke-width:1.5;"/>
   </g>
   <g id="line2d_54">
    <path clip-path="url(#pcaf277fa92)" d="M 87.339787 622.192901 
L 98.201282 624.148444 
L 109.062777 621.296756 
L 119.924272 623.396073 
L 130.785768 635.12337 
L 141.647263 634.76335 
L 152.508758 634.539449 
L 163.370253 638.159736 
L 174.231748 637.955488 
L 185.093243 634.842298 
L 195.954739 632.577526 
L 206.816234 635.616772 
L 217.677729 635.491456 
L 228.539224 634.793542 
L 239.400719 635.005667 
L 250.262214 635.880773 
L 261.123709 635.370775 
L 271.985205 635.645569 
L 282.8467 634.98976 
L 293.708195 636.010046 
L 304.56969 637.806953 
L 315.431185 634.525123 
L 326.29268 636.098586 
L 337.154176 637.078161 
L 348.015671 637.424185 
" style="fill:none;stroke:#2ca02c;stroke-linecap:square;stroke-opacity:0.8;stroke-width:1.5;"/>
   </g>
   <g id="line2d_55">
    <path clip-path="url(#pcaf277fa92)" d="M 87.339787 556.01653 
L 98.201282 564.306029 
L 109.062777 556.730332 
L 119.924272 556.433948 
L 130.785768 621.159729 
L 141.647263 620.591243 
L 152.508758 618.236599 
L 163.370253 621.355792 
L 174.231748 629.610441 
L 185.093243 627.245183 
L 195.954739 627.849857 
L 206.816234 630.746349 
L 217.677729 630.358155 
L 228.539224 630.446742 
L 239.400719 631.656274 
L 250.262214 631.52814 
L 261.123709 630.354801 
L 271.985205 633.195324 
L 282.8467 630.744317 
L 293.708195 631.590315 
L 304.56969 633.071813 
L 315.431185 631.610998 
L 326.29268 631.797738 
L 337.154176 632.838984 
L 348.015671 632.161585 
L 358.877166 631.252834 
L 369.738661 630.345226 
L 380.600156 630.272386 
L 391.461651 630.261805 
L 402.323147 630.25692 
L 413.184642 633.195578 
L 424.046137 630.744245 
L 434.907632 631.592892 
L 445.769127 633.069936 
L 456.630622 633.196105 
L 467.492118 630.745225 
L 478.353613 631.565613 
L 489.215108 633.071712 
L 500.076603 630.257836 
L 510.938098 633.19467 
L 521.799593 633.194818 
L 532.661088 633.194649 
" style="fill:none;stroke:#d62728;stroke-linecap:square;stroke-opacity:0.8;stroke-width:1.5;"/>
   </g>
   <g id="line2d_56">
    <path clip-path="url(#pcaf277fa92)" d="M 87.339787 272.766848 
L 98.201282 253.860711 
L 109.062777 254.156207 
L 119.924272 281.426753 
L 130.785768 469.905715 
L 141.647263 469.897672 
L 152.508758 435.687146 
L 163.370253 486.20012 
L 174.231748 577.887349 
L 185.093243 577.882266 
L 195.954739 567.717539 
L 206.816234 585.275295 
L 217.677729 606.63403 
L 228.539224 608.114913 
L 239.400719 604.974212 
L 250.262214 608.80869 
L 261.123709 611.106639 
L 271.985205 612.931572 
L 282.8467 611.634229 
L 293.708195 610.466277 
L 304.56969 354.145309 
L 315.431185 622.813969 
L 326.29268 622.707295 
L 337.154176 619.444762 
L 348.015671 620.156561 
L 358.877166 624.557291 
L 369.738661 625.637825 
L 380.600156 626.125212 
L 391.461651 623.846289 
L 402.323147 622.652395 
L 413.184642 626.56162 
L 424.046137 623.150672 
L 434.907632 624.403686 
L 445.769127 625.768845 
L 456.630622 626.349948 
L 467.492118 624.743638 
L 478.353613 623.59959 
L 489.215108 623.191486 
L 500.076603 626.621362 
L 510.938098 625.420279 
L 521.799593 624.682183 
L 532.661088 623.969965 
L 543.522584 624.201573 
L 554.384079 623.059385 
L 565.245574 626.797748 
L 576.107069 624.279438 
L 586.968564 624.572948 
L 597.830059 628.164731 
L 608.691555 625.669737 
L 619.55305 623.274603 
L 630.414545 624.770332 
L 641.27604 626.108899 
L 652.137535 623.902445 
L 662.99903 624.70104 
L 673.860526 624.220658 
" style="fill:none;stroke:#9467bd;stroke-linecap:square;stroke-opacity:0.8;stroke-width:1.5;"/>
   </g>
   <g id="line2d_57">
    <path clip-path="url(#pcaf277fa92)" d="M 87.339787 498.558617 
L 98.201282 509.10333 
L 109.062777 497.450493 
L 119.924272 497.570253 
L 130.785768 606.042599 
L 141.647263 609.166578 
L 152.508758 605.992665 
L 163.370253 607.779608 
L 174.231748 626.953396 
L 185.093243 628.037798 
L 195.954739 627.485323 
L 206.816234 627.076822 
" style="fill:none;stroke:#8c564b;stroke-linecap:square;stroke-opacity:0.8;stroke-width:1.5;"/>
   </g>
   <g id="line2d_58">
    <path clip-path="url(#pcaf277fa92)" d="M 87.339787 615.142669 
L 98.201282 615.165611 
L 109.062777 612.63327 
L 119.924272 617.626768 
L 130.785768 621.980241 
L 141.647263 621.99372 
L 152.508758 619.995202 
L 163.370253 621.267559 
L 174.231748 627.413465 
L 185.093243 628.192112 
L 195.954739 626.152154 
L 206.816234 629.726831 
" style="fill:none;stroke:#e377c2;stroke-linecap:square;stroke-opacity:0.8;stroke-width:1.5;"/>
   </g>
   <g id="line2d_59">
    <path clip-path="url(#pcaf277fa92)" d="M 87.339787 186.974628 
L 98.201282 199.012868 
L 109.062777 184.072491 
L 119.924272 191.442795 
L 130.785768 219.94112 
L 141.647263 220.410866 
L 152.508758 220.650376 
L 163.370253 212.652934 
L 174.231748 515.009241 
L 185.093243 516.045344 
L 195.954739 496.129915 
L 206.816234 516.700312 
L 217.677729 598.874208 
L 228.539224 598.724153 
L 239.400719 586.056212 
L 250.262214 602.402892 
L 261.123709 631.185672 
L 271.985205 630.912106 
L 282.8467 629.902016 
L 293.708195 631.668058 
" style="fill:none;stroke:#7f7f7f;stroke-linecap:square;stroke-opacity:0.8;stroke-width:1.5;"/>
   </g>
   <g id="line2d_60">
    <path clip-path="url(#pcaf277fa92)" d="M 87.339787 189.683613 
L 98.201282 180.134128 
L 109.062777 196.520519 
L 119.924272 180.003936 
L 130.785768 195.982673 
L 141.647263 196.185336 
L 152.508758 195.986734 
L 163.370253 194.068912 
L 174.231748 248.828293 
L 185.093243 255.113442 
L 195.954739 241.888727 
L 206.816234 257.676079 
L 217.677729 403.916498 
L 228.539224 418.164176 
L 239.400719 386.727788 
L 250.262214 423.635821 
L 261.123709 501.533387 
L 271.985205 501.097579 
L 282.8467 495.919514 
L 293.708195 522.107263 
L 304.56969 597.539248 
L 315.431185 597.816159 
L 326.29268 590.516784 
L 337.154176 601.860612 
L 348.015671 622.800477 
L 358.877166 621.945574 
L 369.738661 622.008698 
L 380.600156 624.164878 
L 391.461651 626.714287 
L 402.323147 627.002859 
L 413.184642 629.096581 
L 424.046137 626.575803 
L 434.907632 626.609001 
L 445.769127 627.951639 
L 456.630622 628.376646 
L 467.492118 624.786402 
L 478.353613 626.922021 
L 489.215108 627.933968 
L 500.076603 627.108989 
L 510.938098 626.625688 
L 521.799593 625.11635 
L 532.661088 625.559631 
L 543.522584 625.128418 
L 554.384079 628.079998 
L 565.245574 626.272698 
L 576.107069 625.711019 
L 586.968564 627.008975 
L 597.830059 625.065089 
L 608.691555 627.040506 
L 619.55305 625.477893 
L 630.414545 626.26114 
L 641.27604 627.828694 
L 652.137535 627.859576 
L 662.99903 627.816251 
" style="fill:none;stroke:#bcbd22;stroke-linecap:square;stroke-opacity:0.8;stroke-width:1.5;"/>
   </g>
   <g id="line2d_61">
    <path clip-path="url(#pcaf277fa92)" d="M 87.339787 630.570357 
L 98.201282 631.657635 
L 109.062777 627.953851 
L 119.924272 630.430984 
" style="fill:none;stroke:#17becf;stroke-linecap:square;stroke-opacity:0.8;stroke-width:1.5;"/>
   </g>
   <g id="line2d_62">
    <path clip-path="url(#pcaf277fa92)" d="M 87.339787 474.121784 
L 98.201282 468.026556 
L 109.062777 462.014374 
L 119.924272 493.850758 
L 130.785768 577.101623 
L 141.647263 577.051346 
L 152.508758 572.214461 
L 163.370253 581.789467 
L 174.231748 633.146384 
L 185.093243 632.468618 
L 195.954739 629.269844 
L 206.816234 633.770733 
" style="fill:none;stroke:#1f77b4;stroke-linecap:square;stroke-opacity:0.8;stroke-width:1.5;"/>
   </g>
   <g id="line2d_63">
    <path clip-path="url(#pcaf277fa92)" d="M 87.339787 510.066096 
L 98.201282 521.131667 
L 109.062777 509.321193 
L 119.924272 510.470447 
L 130.785768 615.179338 
L 141.647263 619.370489 
L 152.508758 613.867537 
L 163.370253 614.224562 
L 174.231748 635.986144 
L 185.093243 636.456994 
L 195.954739 634.687768 
L 206.816234 636.708851 
" style="fill:none;stroke:#ff7f0e;stroke-linecap:square;stroke-opacity:0.8;stroke-width:1.5;"/>
   </g>
   <g id="line2d_64">
    <path clip-path="url(#pcaf277fa92)" d="M 87.339787 218.812446 
L 98.201282 214.981323 
L 109.062777 211.977191 
L 119.924272 212.170871 
L 130.785768 514.412632 
L 141.647263 518.703435 
L 152.508758 507.564267 
L 163.370253 529.929051 
L 174.231748 598.519501 
L 185.093243 598.250277 
L 195.954739 592.284165 
L 206.816234 604.07755 
L 217.677729 618.427807 
L 228.539224 618.556112 
L 239.400719 615.697343 
L 250.262214 620.47628 
L 261.123709 628.41902 
L 271.985205 629.222503 
L 282.8467 627.707948 
L 293.708195 631.517346 
L 304.56969 635.253598 
L 315.431185 637.045036 
L 326.29268 634.783333 
L 337.154176 637.744062 
L 348.015671 635.422651 
L 358.877166 636.659966 
L 369.738661 633.740131 
L 380.600156 635.197346 
" style="fill:none;stroke:#2ca02c;stroke-linecap:square;stroke-opacity:0.8;stroke-width:1.5;"/>
   </g>
   <g id="line2d_65">
    <path clip-path="url(#pcaf277fa92)" d="M 87.339787 571.424595 
L 98.201282 571.562455 
L 109.062777 557.771005 
L 119.924272 577.791599 
L 130.785768 618.638389 
L 141.647263 619.432613 
L 152.508758 617.707456 
L 163.370253 621.21577 
L 174.231748 629.614335 
L 185.093243 626.857654 
L 195.954739 629.411575 
L 206.816234 629.63071 
L 217.677729 637.975906 
L 228.539224 638.771165 
L 239.400719 634.951686 
L 250.262214 636.922283 
" style="fill:none;stroke:#d62728;stroke-linecap:square;stroke-opacity:0.8;stroke-width:1.5;"/>
   </g>
   <g id="line2d_66">
    <path clip-path="url(#pcaf277fa92)" d="M 87.339787 623.578129 
L 98.201282 624.45219 
L 109.062777 622.634193 
L 119.924272 624.262637 
" style="fill:none;stroke:#9467bd;stroke-linecap:square;stroke-opacity:0.8;stroke-width:1.5;"/>
   </g>
   <g id="line2d_67">
    <path clip-path="url(#pcaf277fa92)" d="M 87.339787 117.472203 
L 98.201282 125.549923 
L 109.062777 114.908195 
L 119.924272 122.637964 
L 130.785768 207.332451 
L 141.647263 208.245126 
L 152.508758 194.961771 
L 163.370253 206.49891 
L 174.231748 563.528485 
L 185.093243 557.535741 
L 195.954739 549.914533 
L 206.816234 570.512809 
L 217.677729 625.720939 
L 228.539224 626.282012 
L 239.400719 622.083342 
L 250.262214 627.374583 
L 261.123709 628.659852 
L 271.985205 628.507747 
L 282.8467 625.343971 
L 293.708195 627.767224 
" style="fill:none;stroke:#8c564b;stroke-linecap:square;stroke-opacity:0.8;stroke-width:1.5;"/>
   </g>
   <g id="line2d_68">
    <path clip-path="url(#pcaf277fa92)" d="M 87.339787 551.058945 
L 98.201282 558.901365 
L 109.062777 549.925638 
L 119.924272 551.96656 
L 130.785768 620.226272 
L 141.647263 624.468912 
L 152.508758 620.599962 
L 163.370253 620.934808 
L 174.231748 633.772169 
L 185.093243 633.559467 
L 195.954739 630.078842 
L 206.816234 632.997928 
" style="fill:none;stroke:#e377c2;stroke-linecap:square;stroke-opacity:0.8;stroke-width:1.5;"/>
   </g>
   <g id="line2d_69">
    <path clip-path="url(#pcaf277fa92)" d="M 87.339787 606.13636 
L 98.201282 606.932863 
L 109.062777 600.399535 
L 119.924272 611.929361 
L 130.785768 619.954104 
L 141.647263 621.196169 
L 152.508758 620.440546 
L 163.370253 620.774616 
" style="fill:none;stroke:#7f7f7f;stroke-linecap:square;stroke-opacity:0.8;stroke-width:1.5;"/>
   </g>
   <g id="line2d_70">
    <path clip-path="url(#pcaf277fa92)" d="M 87.339787 623.538902 
L 98.201282 626.806368 
L 109.062777 622.782612 
L 119.924272 622.614368 
L 130.785768 630.089388 
L 141.647263 631.591916 
L 152.508758 631.817598 
L 163.370253 632.410937 
L 174.231748 632.298717 
L 185.093243 635.029993 
L 195.954739 631.602147 
L 206.816234 634.637384 
" style="fill:none;stroke:#bcbd22;stroke-linecap:square;stroke-opacity:0.8;stroke-width:1.5;"/>
   </g>
   <g id="line2d_71">
    <path clip-path="url(#pcaf277fa92)" d="M 87.339787 285.540759 
L 98.201282 264.315891 
L 109.062777 273.9847 
L 119.924272 291.551979 
L 130.785768 489.152481 
L 141.647263 472.589888 
L 152.508758 473.573453 
L 163.370253 495.074279 
L 174.231748 588.421245 
L 185.093243 593.64302 
L 195.954739 588.697196 
L 206.816234 598.492689 
L 217.677729 630.714685 
L 228.539224 631.519262 
L 239.400719 629.171816 
L 250.262214 630.868651 
" style="fill:none;stroke:#17becf;stroke-linecap:square;stroke-opacity:0.8;stroke-width:1.5;"/>
   </g>
   <g id="line2d_72">
    <defs>
     <path d="M 0 3 
C 0.795609 3 1.55874 2.683901 2.12132 2.12132 
C 2.683901 1.55874 3 0.795609 3 0 
C 3 -0.795609 2.683901 -1.55874 2.12132 -2.12132 
C 1.55874 -2.683901 0.795609 -3 0 -3 
C -0.795609 -3 -1.55874 -2.683901 -2.12132 -2.12132 
C -2.683901 -1.55874 -3 -0.795609 -3 0 
C -3 0.795609 -2.683901 1.55874 -2.12132 2.12132 
C -1.55874 2.683901 -0.795609 3 0 3 
z
" id="m9893694cb8" style="stroke:#000000;stroke-opacity:0.8;"/>
    </defs>
    <g clip-path="url(#pcaf277fa92)">
     <use style="fill-opacity:0.8;stroke:#000000;stroke-opacity:0.8;" x="434.907632" xlink:href="#m9893694cb8" y="627.524928"/>
    </g>
   </g>
   <g id="line2d_73">
    <g clip-path="url(#pcaf277fa92)">
     <use style="fill-opacity:0.8;stroke:#000000;stroke-opacity:0.8;" x="250.262214" xlink:href="#m9893694cb8" y="626.238542"/>
    </g>
   </g>
   <g id="line2d_74">
    <g clip-path="url(#pcaf277fa92)">
     <use style="fill-opacity:0.8;stroke:#000000;stroke-opacity:0.8;" x="163.370253" xlink:href="#m9893694cb8" y="635.002502"/>
    </g>
   </g>
   <g id="line2d_75">
    <g clip-path="url(#pcaf277fa92)">
     <use style="fill-opacity:0.8;stroke:#000000;stroke-opacity:0.8;" x="163.370253" xlink:href="#m9893694cb8" y="623.519351"/>
    </g>
   </g>
   <g id="line2d_76">
    <g clip-path="url(#pcaf277fa92)">
     <use style="fill-opacity:0.8;stroke:#000000;stroke-opacity:0.8;" x="206.816234" xlink:href="#m9893694cb8" y="632.403715"/>
    </g>
   </g>
   <g id="line2d_77">
    <g clip-path="url(#pcaf277fa92)">
     <use style="fill-opacity:0.8;stroke:#000000;stroke-opacity:0.8;" x="163.370253" xlink:href="#m9893694cb8" y="621.55508"/>
    </g>
   </g>
   <g id="line2d_78">
    <g clip-path="url(#pcaf277fa92)">
     <use style="fill-opacity:0.8;stroke:#000000;stroke-opacity:0.8;" x="206.816234" xlink:href="#m9893694cb8" y="631.41232"/>
    </g>
   </g>
   <g id="line2d_79">
    <g clip-path="url(#pcaf277fa92)">
     <use style="fill-opacity:0.8;stroke:#000000;stroke-opacity:0.8;" x="206.816234" xlink:href="#m9893694cb8" y="635.803996"/>
    </g>
   </g>
   <g id="line2d_80">
    <g clip-path="url(#pcaf277fa92)">
     <use style="fill-opacity:0.8;stroke:#000000;stroke-opacity:0.8;" x="543.522584" xlink:href="#m9893694cb8" y="624.841832"/>
    </g>
   </g>
   <g id="line2d_81">
    <g clip-path="url(#pcaf277fa92)">
     <use style="fill-opacity:0.8;stroke:#000000;stroke-opacity:0.8;" x="250.262214" xlink:href="#m9893694cb8" y="623.040197"/>
    </g>
   </g>
   <g id="line2d_82">
    <g clip-path="url(#pcaf277fa92)">
     <use style="fill-opacity:0.8;stroke:#000000;stroke-opacity:0.8;" x="206.816234" xlink:href="#m9893694cb8" y="622.309422"/>
    </g>
   </g>
   <g id="line2d_83">
    <g clip-path="url(#pcaf277fa92)">
     <use style="fill-opacity:0.8;stroke:#000000;stroke-opacity:0.8;" x="337.154176" xlink:href="#m9893694cb8" y="628.470134"/>
    </g>
   </g>
   <g id="line2d_84">
    <g clip-path="url(#pcaf277fa92)">
     <use style="fill-opacity:0.8;stroke:#000000;stroke-opacity:0.8;" x="554.384079" xlink:href="#m9893694cb8" y="634.086968"/>
    </g>
   </g>
   <g id="line2d_85">
    <g clip-path="url(#pcaf277fa92)">
     <use style="fill-opacity:0.8;stroke:#000000;stroke-opacity:0.8;" x="119.924272" xlink:href="#m9893694cb8" y="627.769816"/>
    </g>
   </g>
   <g id="line2d_86">
    <g clip-path="url(#pcaf277fa92)">
     <use style="fill-opacity:0.8;stroke:#000000;stroke-opacity:0.8;" x="348.015671" xlink:href="#m9893694cb8" y="638.321771"/>
    </g>
   </g>
   <g id="line2d_87">
    <g clip-path="url(#pcaf277fa92)">
     <use style="fill-opacity:0.8;stroke:#000000;stroke-opacity:0.8;" x="163.370253" xlink:href="#m9893694cb8" y="630.738675"/>
    </g>
   </g>
   <g id="line2d_88">
    <g clip-path="url(#pcaf277fa92)">
     <use style="fill-opacity:0.8;stroke:#000000;stroke-opacity:0.8;" x="250.262214" xlink:href="#m9893694cb8" y="623.099326"/>
    </g>
   </g>
   <g id="line2d_89">
    <g clip-path="url(#pcaf277fa92)">
     <use style="fill-opacity:0.8;stroke:#000000;stroke-opacity:0.8;" x="163.370253" xlink:href="#m9893694cb8" y="620.387502"/>
    </g>
   </g>
   <g id="line2d_90">
    <g clip-path="url(#pcaf277fa92)">
     <use style="fill-opacity:0.8;stroke:#000000;stroke-opacity:0.8;" x="250.262214" xlink:href="#m9893694cb8" y="636.83755"/>
    </g>
   </g>
   <g id="line2d_91">
    <g clip-path="url(#pcaf277fa92)">
     <use style="fill-opacity:0.8;stroke:#000000;stroke-opacity:0.8;" x="348.015671" xlink:href="#m9893694cb8" y="636.801668"/>
    </g>
   </g>
   <g id="line2d_92">
    <g clip-path="url(#pcaf277fa92)">
     <use style="fill-opacity:0.8;stroke:#000000;stroke-opacity:0.8;" x="163.370253" xlink:href="#m9893694cb8" y="619.856722"/>
    </g>
   </g>
   <g id="line2d_93">
    <g clip-path="url(#pcaf277fa92)">
     <use style="fill-opacity:0.8;stroke:#000000;stroke-opacity:0.8;" x="217.677729" xlink:href="#m9893694cb8" y="635.801426"/>
    </g>
   </g>
   <g id="line2d_94">
    <g clip-path="url(#pcaf277fa92)">
     <use style="fill-opacity:0.8;stroke:#000000;stroke-opacity:0.8;" x="293.708195" xlink:href="#m9893694cb8" y="629.634107"/>
    </g>
   </g>
   <g id="line2d_95">
    <g clip-path="url(#pcaf277fa92)">
     <use style="fill-opacity:0.8;stroke:#000000;stroke-opacity:0.8;" x="293.708195" xlink:href="#m9893694cb8" y="627.540551"/>
    </g>
   </g>
   <g id="line2d_96">
    <g clip-path="url(#pcaf277fa92)">
     <use style="fill-opacity:0.8;stroke:#000000;stroke-opacity:0.8;" x="119.924272" xlink:href="#m9893694cb8" y="627.787397"/>
    </g>
   </g>
   <g id="line2d_97">
    <g clip-path="url(#pcaf277fa92)">
     <use style="fill-opacity:0.8;stroke:#000000;stroke-opacity:0.8;" x="163.370253" xlink:href="#m9893694cb8" y="633.565049"/>
    </g>
   </g>
   <g id="line2d_98">
    <g clip-path="url(#pcaf277fa92)">
     <use style="fill-opacity:0.8;stroke:#000000;stroke-opacity:0.8;" x="119.924272" xlink:href="#m9893694cb8" y="634.296679"/>
    </g>
   </g>
   <g id="line2d_99">
    <g clip-path="url(#pcaf277fa92)">
     <use style="fill-opacity:0.8;stroke:#000000;stroke-opacity:0.8;" x="337.154176" xlink:href="#m9893694cb8" y="630.76893"/>
    </g>
   </g>
   <g id="line2d_100">
    <g clip-path="url(#pcaf277fa92)">
     <use style="fill-opacity:0.8;stroke:#000000;stroke-opacity:0.8;" x="250.262214" xlink:href="#m9893694cb8" y="625.661168"/>
    </g>
   </g>
   <g id="line2d_101">
    <g clip-path="url(#pcaf277fa92)">
     <use style="fill-opacity:0.8;stroke:#000000;stroke-opacity:0.8;" x="250.262214" xlink:href="#m9893694cb8" y="626.737139"/>
    </g>
   </g>
   <g id="line2d_102">
    <g clip-path="url(#pcaf277fa92)">
     <use style="fill-opacity:0.8;stroke:#000000;stroke-opacity:0.8;" x="250.262214" xlink:href="#m9893694cb8" y="628.89952"/>
    </g>
   </g>
   <g id="line2d_103">
    <g clip-path="url(#pcaf277fa92)">
     <use style="fill-opacity:0.8;stroke:#000000;stroke-opacity:0.8;" x="304.56969" xlink:href="#m9893694cb8" y="632.287751"/>
    </g>
   </g>
   <g id="line2d_104">
    <g clip-path="url(#pcaf277fa92)">
     <use style="fill-opacity:0.8;stroke:#000000;stroke-opacity:0.8;" x="348.015671" xlink:href="#m9893694cb8" y="637.424185"/>
    </g>
   </g>
   <g id="line2d_105">
    <g clip-path="url(#pcaf277fa92)">
     <use style="fill-opacity:0.8;stroke:#000000;stroke-opacity:0.8;" x="532.661088" xlink:href="#m9893694cb8" y="633.194649"/>
    </g>
   </g>
   <g id="line2d_106">
    <g clip-path="url(#pcaf277fa92)">
     <use style="fill-opacity:0.8;stroke:#000000;stroke-opacity:0.8;" x="673.860526" xlink:href="#m9893694cb8" y="624.220658"/>
    </g>
   </g>
   <g id="line2d_107">
    <g clip-path="url(#pcaf277fa92)">
     <use style="fill-opacity:0.8;stroke:#000000;stroke-opacity:0.8;" x="206.816234" xlink:href="#m9893694cb8" y="627.076822"/>
    </g>
   </g>
   <g id="line2d_108">
    <g clip-path="url(#pcaf277fa92)">
     <use style="fill-opacity:0.8;stroke:#000000;stroke-opacity:0.8;" x="206.816234" xlink:href="#m9893694cb8" y="629.726831"/>
    </g>
   </g>
   <g id="line2d_109">
    <g clip-path="url(#pcaf277fa92)">
     <use style="fill-opacity:0.8;stroke:#000000;stroke-opacity:0.8;" x="293.708195" xlink:href="#m9893694cb8" y="631.668058"/>
    </g>
   </g>
   <g id="line2d_110">
    <g clip-path="url(#pcaf277fa92)">
     <use style="fill-opacity:0.8;stroke:#000000;stroke-opacity:0.8;" x="662.99903" xlink:href="#m9893694cb8" y="627.816251"/>
    </g>
   </g>
   <g id="line2d_111">
    <g clip-path="url(#pcaf277fa92)">
     <use style="fill-opacity:0.8;stroke:#000000;stroke-opacity:0.8;" x="119.924272" xlink:href="#m9893694cb8" y="630.430984"/>
    </g>
   </g>
   <g id="line2d_112">
    <g clip-path="url(#pcaf277fa92)">
     <use style="fill-opacity:0.8;stroke:#000000;stroke-opacity:0.8;" x="206.816234" xlink:href="#m9893694cb8" y="633.770733"/>
    </g>
   </g>
   <g id="line2d_113">
    <g clip-path="url(#pcaf277fa92)">
     <use style="fill-opacity:0.8;stroke:#000000;stroke-opacity:0.8;" x="206.816234" xlink:href="#m9893694cb8" y="636.708851"/>
    </g>
   </g>
   <g id="line2d_114">
    <g clip-path="url(#pcaf277fa92)">
     <use style="fill-opacity:0.8;stroke:#000000;stroke-opacity:0.8;" x="380.600156" xlink:href="#m9893694cb8" y="635.197346"/>
    </g>
   </g>
   <g id="line2d_115">
    <g clip-path="url(#pcaf277fa92)">
     <use style="fill-opacity:0.8;stroke:#000000;stroke-opacity:0.8;" x="250.262214" xlink:href="#m9893694cb8" y="636.922283"/>
    </g>
   </g>
   <g id="line2d_116">
    <g clip-path="url(#pcaf277fa92)">
     <use style="fill-opacity:0.8;stroke:#000000;stroke-opacity:0.8;" x="119.924272" xlink:href="#m9893694cb8" y="624.262637"/>
    </g>
   </g>
   <g id="line2d_117">
    <g clip-path="url(#pcaf277fa92)">
     <use style="fill-opacity:0.8;stroke:#000000;stroke-opacity:0.8;" x="293.708195" xlink:href="#m9893694cb8" y="627.767224"/>
    </g>
   </g>
   <g id="line2d_118">
    <g clip-path="url(#pcaf277fa92)">
     <use style="fill-opacity:0.8;stroke:#000000;stroke-opacity:0.8;" x="206.816234" xlink:href="#m9893694cb8" y="632.997928"/>
    </g>
   </g>
   <g id="line2d_119">
    <g clip-path="url(#pcaf277fa92)">
     <use style="fill-opacity:0.8;stroke:#000000;stroke-opacity:0.8;" x="163.370253" xlink:href="#m9893694cb8" y="620.774616"/>
    </g>
   </g>
   <g id="line2d_120">
    <g clip-path="url(#pcaf277fa92)">
     <use style="fill-opacity:0.8;stroke:#000000;stroke-opacity:0.8;" x="206.816234" xlink:href="#m9893694cb8" y="634.637384"/>
    </g>
   </g>
   <g id="line2d_121">
    <g clip-path="url(#pcaf277fa92)">
     <use style="fill-opacity:0.8;stroke:#000000;stroke-opacity:0.8;" x="250.262214" xlink:href="#m9893694cb8" y="630.868651"/>
    </g>
   </g>
   <g id="patch_3">
    <path d="M 58.01375 668.198438 
L 58.01375 20.798438 
" style="fill:none;stroke:#000000;stroke-linecap:square;stroke-linejoin:miter;stroke-width:0.8;"/>
   </g>
   <g id="patch_4">
    <path d="M 703.186562 668.198438 
L 703.186562 20.798438 
" style="fill:none;stroke:#000000;stroke-linecap:square;stroke-linejoin:miter;stroke-width:0.8;"/>
   </g>
   <g id="patch_5">
    <path d="M 58.01375 668.198437 
L 703.186562 668.198437 
" style="fill:none;stroke:#000000;stroke-linecap:square;stroke-linejoin:miter;stroke-width:0.8;"/>
   </g>
   <g id="patch_6">
    <path d="M 58.01375 20.798437 
L 703.186562 20.798437 
" style="fill:none;stroke:#000000;stroke-linecap:square;stroke-linejoin:miter;stroke-width:0.8;"/>
   </g>
   <g id="text_11">
    <!-- Traces -->
    <defs>
     <path d="M 0.484375 72.90625 
L 67.671875 72.90625 
L 67.671875 58.6875 
L 43.5 58.6875 
L 43.5 0 
L 24.703125 0 
L 24.703125 58.6875 
L 0.484375 58.6875 
z
" id="DejaVuSans-Bold-84"/>
     <path d="M 49.03125 39.796875 
Q 46.734375 40.875 44.453125 41.375 
Q 42.1875 41.890625 39.890625 41.890625 
Q 33.15625 41.890625 29.515625 37.5625 
Q 25.875 33.25 25.875 25.203125 
L 25.875 0 
L 8.40625 0 
L 8.40625 54.6875 
L 25.875 54.6875 
L 25.875 45.703125 
Q 29.25 51.078125 33.609375 53.53125 
Q 37.984375 56 44.09375 56 
Q 44.96875 56 45.984375 55.921875 
Q 47.015625 55.859375 48.96875 55.609375 
z
" id="DejaVuSans-Bold-114"/>
     <path d="M 32.90625 24.609375 
Q 27.4375 24.609375 24.671875 22.75 
Q 21.921875 20.90625 21.921875 17.28125 
Q 21.921875 13.96875 24.140625 12.078125 
Q 26.375 10.203125 30.328125 10.203125 
Q 35.25 10.203125 38.625 13.734375 
Q 42 17.28125 42 22.609375 
L 42 24.609375 
z
M 59.625 31.203125 
L 59.625 0 
L 42 0 
L 42 8.109375 
Q 38.484375 3.125 34.078125 0.84375 
Q 29.6875 -1.421875 23.390625 -1.421875 
Q 14.890625 -1.421875 9.59375 3.53125 
Q 4.296875 8.5 4.296875 16.40625 
Q 4.296875 26.03125 10.90625 30.515625 
Q 17.53125 35.015625 31.6875 35.015625 
L 42 35.015625 
L 42 36.375 
Q 42 40.53125 38.71875 42.453125 
Q 35.453125 44.390625 28.515625 44.390625 
Q 22.90625 44.390625 18.0625 43.265625 
Q 13.234375 42.140625 9.078125 39.890625 
L 9.078125 53.21875 
Q 14.703125 54.59375 20.359375 55.296875 
Q 26.03125 56 31.6875 56 
Q 46.484375 56 53.046875 50.171875 
Q 59.625 44.34375 59.625 31.203125 
z
" id="DejaVuSans-Bold-97"/>
    </defs>
    <g transform="translate(362.026719 14.798437)scale(0.1 -0.1)">
     <use xlink:href="#DejaVuSans-Bold-84"/>
     <use x="68.041016" xlink:href="#DejaVuSans-Bold-114"/>
     <use x="117.357422" xlink:href="#DejaVuSans-Bold-97"/>
     <use x="184.837891" xlink:href="#DejaVuSans-Bold-99"/>
     <use x="244.115234" xlink:href="#DejaVuSans-Bold-101"/>
     <use x="311.9375" xlink:href="#DejaVuSans-Bold-115"/>
    </g>
   </g>
  </g>
 </g>
 <defs>
  <clipPath id="pcaf277fa92">
   <rect height="647.4" width="645.172812" x="58.01375" y="20.798437"/>
  </clipPath>
 </defs>
</svg>
