<?xml version="1.0" encoding="utf-8" standalone="no"?>
<!DOCTYPE svg PUBLIC "-//W3C//DTD SVG 1.1//EN"
  "http://www.w3.org/Graphics/SVG/1.1/DTD/svg11.dtd">
<!-- Created with matplotlib (https://matplotlib.org/) -->
<svg height="334.314062pt" version="1.1" viewBox="0 0 435.854687 334.314062" width="435.854687pt" xmlns="http://www.w3.org/2000/svg" xmlns:xlink="http://www.w3.org/1999/xlink">
 <metadata>
  <rdf:RDF xmlns:cc="http://creativecommons.org/ns#" xmlns:dc="http://purl.org/dc/elements/1.1/" xmlns:rdf="http://www.w3.org/1999/02/22-rdf-syntax-ns#">
   <cc:Work>
    <dc:type rdf:resource="http://purl.org/dc/dcmitype/StillImage"/>
    <dc:date>2021-04-12T20:57:12.664573</dc:date>
    <dc:format>image/svg+xml</dc:format>
    <dc:creator>
     <cc:Agent>
      <dc:title>Matplotlib v3.3.4, https://matplotlib.org/</dc:title>
     </cc:Agent>
    </dc:creator>
   </cc:Work>
  </rdf:RDF>
 </metadata>
 <defs>
  <style type="text/css">*{stroke-linecap:butt;stroke-linejoin:round;}</style>
 </defs>
 <g id="figure_1">
  <g id="patch_1">
   <path d="M 0 334.314062 
L 435.854687 334.314062 
L 435.854687 0 
L 0 0 
z
" style="fill:#ffffff;"/>
  </g>
  <g id="axes_1">
   <g id="patch_2">
    <path d="M 38.054688 305.596875 
L 428.654688 305.596875 
L 428.654688 28.396875 
L 38.054688 28.396875 
z
" style="fill:#ffffff;"/>
   </g>
   <g id="matplotlib.axis_1">
    <g id="xtick_1">
     <g id="line2d_1">
      <defs>
       <path d="M 0 0 
L 0 3.5 
" id="m7cc526c6f8" style="stroke:#000000;stroke-width:0.8;"/>
      </defs>
      <g>
       <use style="stroke:#000000;stroke-width:0.8;" x="55.809233" xlink:href="#m7cc526c6f8" y="305.596875"/>
      </g>
     </g>
     <g id="text_1">
      <!-- 0.0 -->
      <g transform="translate(43.881889 323.994531)scale(0.15 -0.15)">
       <defs>
        <path d="M 31.78125 66.40625 
Q 24.171875 66.40625 20.328125 58.90625 
Q 16.5 51.421875 16.5 36.375 
Q 16.5 21.390625 20.328125 13.890625 
Q 24.171875 6.390625 31.78125 6.390625 
Q 39.453125 6.390625 43.28125 13.890625 
Q 47.125 21.390625 47.125 36.375 
Q 47.125 51.421875 43.28125 58.90625 
Q 39.453125 66.40625 31.78125 66.40625 
z
M 31.78125 74.21875 
Q 44.046875 74.21875 50.515625 64.515625 
Q 56.984375 54.828125 56.984375 36.375 
Q 56.984375 17.96875 50.515625 8.265625 
Q 44.046875 -1.421875 31.78125 -1.421875 
Q 19.53125 -1.421875 13.0625 8.265625 
Q 6.59375 17.96875 6.59375 36.375 
Q 6.59375 54.828125 13.0625 64.515625 
Q 19.53125 74.21875 31.78125 74.21875 
z
" id="DejaVuSans-48"/>
        <path d="M 10.6875 12.40625 
L 21 12.40625 
L 21 0 
L 10.6875 0 
z
" id="DejaVuSans-46"/>
       </defs>
       <use xlink:href="#DejaVuSans-48"/>
       <use x="63.623047" xlink:href="#DejaVuSans-46"/>
       <use x="95.410156" xlink:href="#DejaVuSans-48"/>
      </g>
     </g>
    </g>
    <g id="xtick_2">
     <g id="line2d_2">
      <g>
       <use style="stroke:#000000;stroke-width:0.8;" x="126.827415" xlink:href="#m7cc526c6f8" y="305.596875"/>
      </g>
     </g>
     <g id="text_2">
      <!-- 0.2 -->
      <g transform="translate(114.900071 323.994531)scale(0.15 -0.15)">
       <defs>
        <path d="M 19.1875 8.296875 
L 53.609375 8.296875 
L 53.609375 0 
L 7.328125 0 
L 7.328125 8.296875 
Q 12.9375 14.109375 22.625 23.890625 
Q 32.328125 33.6875 34.8125 36.53125 
Q 39.546875 41.84375 41.421875 45.53125 
Q 43.3125 49.21875 43.3125 52.78125 
Q 43.3125 58.59375 39.234375 62.25 
Q 35.15625 65.921875 28.609375 65.921875 
Q 23.96875 65.921875 18.8125 64.3125 
Q 13.671875 62.703125 7.8125 59.421875 
L 7.8125 69.390625 
Q 13.765625 71.78125 18.9375 73 
Q 24.125 74.21875 28.421875 74.21875 
Q 39.75 74.21875 46.484375 68.546875 
Q 53.21875 62.890625 53.21875 53.421875 
Q 53.21875 48.921875 51.53125 44.890625 
Q 49.859375 40.875 45.40625 35.40625 
Q 44.1875 33.984375 37.640625 27.21875 
Q 31.109375 20.453125 19.1875 8.296875 
z
" id="DejaVuSans-50"/>
       </defs>
       <use xlink:href="#DejaVuSans-48"/>
       <use x="63.623047" xlink:href="#DejaVuSans-46"/>
       <use x="95.410156" xlink:href="#DejaVuSans-50"/>
      </g>
     </g>
    </g>
    <g id="xtick_3">
     <g id="line2d_3">
      <g>
       <use style="stroke:#000000;stroke-width:0.8;" x="197.845597" xlink:href="#m7cc526c6f8" y="305.596875"/>
      </g>
     </g>
     <g id="text_3">
      <!-- 0.4 -->
      <g transform="translate(185.918253 323.994531)scale(0.15 -0.15)">
       <defs>
        <path d="M 37.796875 64.3125 
L 12.890625 25.390625 
L 37.796875 25.390625 
z
M 35.203125 72.90625 
L 47.609375 72.90625 
L 47.609375 25.390625 
L 58.015625 25.390625 
L 58.015625 17.1875 
L 47.609375 17.1875 
L 47.609375 0 
L 37.796875 0 
L 37.796875 17.1875 
L 4.890625 17.1875 
L 4.890625 26.703125 
z
" id="DejaVuSans-52"/>
       </defs>
       <use xlink:href="#DejaVuSans-48"/>
       <use x="63.623047" xlink:href="#DejaVuSans-46"/>
       <use x="95.410156" xlink:href="#DejaVuSans-52"/>
      </g>
     </g>
    </g>
    <g id="xtick_4">
     <g id="line2d_4">
      <g>
       <use style="stroke:#000000;stroke-width:0.8;" x="268.863778" xlink:href="#m7cc526c6f8" y="305.596875"/>
      </g>
     </g>
     <g id="text_4">
      <!-- 0.6 -->
      <g transform="translate(256.936435 323.994531)scale(0.15 -0.15)">
       <defs>
        <path d="M 33.015625 40.375 
Q 26.375 40.375 22.484375 35.828125 
Q 18.609375 31.296875 18.609375 23.390625 
Q 18.609375 15.53125 22.484375 10.953125 
Q 26.375 6.390625 33.015625 6.390625 
Q 39.65625 6.390625 43.53125 10.953125 
Q 47.40625 15.53125 47.40625 23.390625 
Q 47.40625 31.296875 43.53125 35.828125 
Q 39.65625 40.375 33.015625 40.375 
z
M 52.59375 71.296875 
L 52.59375 62.3125 
Q 48.875 64.0625 45.09375 64.984375 
Q 41.3125 65.921875 37.59375 65.921875 
Q 27.828125 65.921875 22.671875 59.328125 
Q 17.53125 52.734375 16.796875 39.40625 
Q 19.671875 43.65625 24.015625 45.921875 
Q 28.375 48.1875 33.59375 48.1875 
Q 44.578125 48.1875 50.953125 41.515625 
Q 57.328125 34.859375 57.328125 23.390625 
Q 57.328125 12.15625 50.6875 5.359375 
Q 44.046875 -1.421875 33.015625 -1.421875 
Q 20.359375 -1.421875 13.671875 8.265625 
Q 6.984375 17.96875 6.984375 36.375 
Q 6.984375 53.65625 15.1875 63.9375 
Q 23.390625 74.21875 37.203125 74.21875 
Q 40.921875 74.21875 44.703125 73.484375 
Q 48.484375 72.75 52.59375 71.296875 
z
" id="DejaVuSans-54"/>
       </defs>
       <use xlink:href="#DejaVuSans-48"/>
       <use x="63.623047" xlink:href="#DejaVuSans-46"/>
       <use x="95.410156" xlink:href="#DejaVuSans-54"/>
      </g>
     </g>
    </g>
    <g id="xtick_5">
     <g id="line2d_5">
      <g>
       <use style="stroke:#000000;stroke-width:0.8;" x="339.88196" xlink:href="#m7cc526c6f8" y="305.596875"/>
      </g>
     </g>
     <g id="text_5">
      <!-- 0.8 -->
      <g transform="translate(327.954616 323.994531)scale(0.15 -0.15)">
       <defs>
        <path d="M 31.78125 34.625 
Q 24.75 34.625 20.71875 30.859375 
Q 16.703125 27.09375 16.703125 20.515625 
Q 16.703125 13.921875 20.71875 10.15625 
Q 24.75 6.390625 31.78125 6.390625 
Q 38.8125 6.390625 42.859375 10.171875 
Q 46.921875 13.96875 46.921875 20.515625 
Q 46.921875 27.09375 42.890625 30.859375 
Q 38.875 34.625 31.78125 34.625 
z
M 21.921875 38.8125 
Q 15.578125 40.375 12.03125 44.71875 
Q 8.5 49.078125 8.5 55.328125 
Q 8.5 64.0625 14.71875 69.140625 
Q 20.953125 74.21875 31.78125 74.21875 
Q 42.671875 74.21875 48.875 69.140625 
Q 55.078125 64.0625 55.078125 55.328125 
Q 55.078125 49.078125 51.53125 44.71875 
Q 48 40.375 41.703125 38.8125 
Q 48.828125 37.15625 52.796875 32.3125 
Q 56.78125 27.484375 56.78125 20.515625 
Q 56.78125 9.90625 50.3125 4.234375 
Q 43.84375 -1.421875 31.78125 -1.421875 
Q 19.734375 -1.421875 13.25 4.234375 
Q 6.78125 9.90625 6.78125 20.515625 
Q 6.78125 27.484375 10.78125 32.3125 
Q 14.796875 37.15625 21.921875 38.8125 
z
M 18.3125 54.390625 
Q 18.3125 48.734375 21.84375 45.5625 
Q 25.390625 42.390625 31.78125 42.390625 
Q 38.140625 42.390625 41.71875 45.5625 
Q 45.3125 48.734375 45.3125 54.390625 
Q 45.3125 60.0625 41.71875 63.234375 
Q 38.140625 66.40625 31.78125 66.40625 
Q 25.390625 66.40625 21.84375 63.234375 
Q 18.3125 60.0625 18.3125 54.390625 
z
" id="DejaVuSans-56"/>
       </defs>
       <use xlink:href="#DejaVuSans-48"/>
       <use x="63.623047" xlink:href="#DejaVuSans-46"/>
       <use x="95.410156" xlink:href="#DejaVuSans-56"/>
      </g>
     </g>
    </g>
    <g id="xtick_6">
     <g id="line2d_6">
      <g>
       <use style="stroke:#000000;stroke-width:0.8;" x="410.900142" xlink:href="#m7cc526c6f8" y="305.596875"/>
      </g>
     </g>
     <g id="text_6">
      <!-- 1.0 -->
      <g transform="translate(398.972798 323.994531)scale(0.15 -0.15)">
       <defs>
        <path d="M 12.40625 8.296875 
L 28.515625 8.296875 
L 28.515625 63.921875 
L 10.984375 60.40625 
L 10.984375 69.390625 
L 28.421875 72.90625 
L 38.28125 72.90625 
L 38.28125 8.296875 
L 54.390625 8.296875 
L 54.390625 0 
L 12.40625 0 
z
" id="DejaVuSans-49"/>
       </defs>
       <use xlink:href="#DejaVuSans-49"/>
       <use x="63.623047" xlink:href="#DejaVuSans-46"/>
       <use x="95.410156" xlink:href="#DejaVuSans-48"/>
      </g>
     </g>
    </g>
   </g>
   <g id="matplotlib.axis_2">
    <g id="ytick_1">
     <g id="line2d_7">
      <defs>
       <path d="M 0 0 
L -3.5 0 
" id="mccf764de5b" style="stroke:#000000;stroke-width:0.8;"/>
      </defs>
      <g>
       <use style="stroke:#000000;stroke-width:0.8;" x="38.054688" xlink:href="#mccf764de5b" y="292.996875"/>
      </g>
     </g>
     <g id="text_7">
      <!-- 0.0 -->
      <g transform="translate(7.2 298.695703)scale(0.15 -0.15)">
       <use xlink:href="#DejaVuSans-48"/>
       <use x="63.623047" xlink:href="#DejaVuSans-46"/>
       <use x="95.410156" xlink:href="#DejaVuSans-48"/>
      </g>
     </g>
    </g>
    <g id="ytick_2">
     <g id="line2d_8">
      <g>
       <use style="stroke:#000000;stroke-width:0.8;" x="38.054688" xlink:href="#mccf764de5b" y="242.596875"/>
      </g>
     </g>
     <g id="text_8">
      <!-- 0.2 -->
      <g transform="translate(7.2 248.295703)scale(0.15 -0.15)">
       <use xlink:href="#DejaVuSans-48"/>
       <use x="63.623047" xlink:href="#DejaVuSans-46"/>
       <use x="95.410156" xlink:href="#DejaVuSans-50"/>
      </g>
     </g>
    </g>
    <g id="ytick_3">
     <g id="line2d_9">
      <g>
       <use style="stroke:#000000;stroke-width:0.8;" x="38.054688" xlink:href="#mccf764de5b" y="192.196875"/>
      </g>
     </g>
     <g id="text_9">
      <!-- 0.4 -->
      <g transform="translate(7.2 197.895703)scale(0.15 -0.15)">
       <use xlink:href="#DejaVuSans-48"/>
       <use x="63.623047" xlink:href="#DejaVuSans-46"/>
       <use x="95.410156" xlink:href="#DejaVuSans-52"/>
      </g>
     </g>
    </g>
    <g id="ytick_4">
     <g id="line2d_10">
      <g>
       <use style="stroke:#000000;stroke-width:0.8;" x="38.054688" xlink:href="#mccf764de5b" y="141.796875"/>
      </g>
     </g>
     <g id="text_10">
      <!-- 0.6 -->
      <g transform="translate(7.2 147.495703)scale(0.15 -0.15)">
       <use xlink:href="#DejaVuSans-48"/>
       <use x="63.623047" xlink:href="#DejaVuSans-46"/>
       <use x="95.410156" xlink:href="#DejaVuSans-54"/>
      </g>
     </g>
    </g>
    <g id="ytick_5">
     <g id="line2d_11">
      <g>
       <use style="stroke:#000000;stroke-width:0.8;" x="38.054688" xlink:href="#mccf764de5b" y="91.396875"/>
      </g>
     </g>
     <g id="text_11">
      <!-- 0.8 -->
      <g transform="translate(7.2 97.095703)scale(0.15 -0.15)">
       <use xlink:href="#DejaVuSans-48"/>
       <use x="63.623047" xlink:href="#DejaVuSans-46"/>
       <use x="95.410156" xlink:href="#DejaVuSans-56"/>
      </g>
     </g>
    </g>
    <g id="ytick_6">
     <g id="line2d_12">
      <g>
       <use style="stroke:#000000;stroke-width:0.8;" x="38.054688" xlink:href="#mccf764de5b" y="40.996875"/>
      </g>
     </g>
     <g id="text_12">
      <!-- 1.0 -->
      <g transform="translate(7.2 46.695703)scale(0.15 -0.15)">
       <use xlink:href="#DejaVuSans-49"/>
       <use x="63.623047" xlink:href="#DejaVuSans-46"/>
       <use x="95.410156" xlink:href="#DejaVuSans-48"/>
      </g>
     </g>
    </g>
   </g>
   <g id="line2d_13">
    <path clip-path="url(#p9ced91cb00)" d="M 55.809233 292.996875 
L 68.038943 288.455019 
L 88.612977 283.98999 
L 106.474135 280.961662 
L 120.164123 279.050106 
L 130.137885 277.944847 
L 137.172725 277.405301 
L 142.009808 277.253441 
L 145.27047 277.359757 
L 147.449559 277.630774 
L 148.930797 277.999278 
L 150.895043 278.849106 
L 152.703053 279.662695 
L 155.10956 280.307713 
L 158.324548 280.706044 
L 162.14915 280.802165 
L 166.081118 280.546062 
L 167.877682 280.269339 
L 169.44083 279.883576 
L 170.684416 279.380415 
L 171.532168 278.750661 
L 171.922342 277.984218 
L 171.81119 277.070074 
L 171.174932 275.996311 
L 170.010099 274.750167 
L 168.332327 273.318152 
L 163.580354 269.840097 
L 153.764966 262.877307 
L 150.021933 260.040436 
L 146.144051 256.930157 
L 142.18571 253.542188 
L 138.19548 249.877068 
L 134.215586 245.941355 
L 130.281793 241.748865 
L 126.423612 237.321872 
L 122.664719 232.692181 
L 119.023507 227.901955 
L 115.513696 223.004178 
L 108.923608 213.151013 
L 97.547913 195.529757 
L 95.074669 192.081925 
L 92.742755 189.183474 
L 90.547397 186.898428 
L 88.48343 185.273587 
L 86.545461 184.335912 
L 84.727999 184.091274 
L 83.025563 184.524713 
L 81.432762 185.60214 
L 79.944366 187.273247 
L 78.555358 189.475242 
L 77.260977 192.136957 
L 76.056751 195.182919 
L 74.938525 198.537038 
L 73.902486 202.125678 
L 72.063549 209.73763 
L 70.51703 217.550269 
L 69.246763 225.215313 
L 68.244062 232.499191 
L 67.50866 239.263278 
L 67.049934 245.440215 
L 66.888505 251.012111 
L 67.058301 255.992985 
L 67.282266 258.271607 
L 67.60911 260.415753 
L 68.048046 262.431005 
L 68.609693 264.323175 
L 69.306199 266.098163 
L 70.151368 267.761865 
L 71.160784 269.320094 
L 72.351932 270.778513 
L 73.74431 272.142602 
L 75.359521 273.417617 
L 77.221333 274.608569 
L 79.355708 275.720211 
L 81.79076 276.757025 
L 84.556648 277.723215 
L 87.685369 278.622706 
L 91.210421 279.459139 
L 95.166329 280.235872 
L 99.58798 280.955979 
L 104.509757 281.622249 
L 109.964438 282.237186 
L 122.587232 283.321622 
L 137.628627 284.223447 
L 155.122801 284.951893 
L 174.892716 285.510874 
L 196.478629 285.898386 
L 219.086637 286.105661 
L 241.579825 286.116009 
L 262.53468 285.903315 
L 280.380153 285.430126 
L 287.659279 285.080477 
L 293.621514 284.645321 
L 298.137826 284.115681 
L 301.11823 283.481367 
L 302.517448 282.730871 
L 302.337599 281.851271 
L 300.627496 280.828136 
L 297.478555 279.645443 
L 293.017843 278.285507 
L 265.332275 270.660258 
L 256.823083 268.090117 
L 248.006962 265.202628 
L 239.023164 261.970282 
L 229.992655 258.365405 
L 221.017694 254.360863 
L 212.182415 249.930929 
L 203.554069 245.052343 
L 195.184698 239.705546 
L 187.112992 233.876102 
L 179.366194 227.556262 
L 171.961937 220.746638 
L 164.909932 213.457921 
L 158.213495 205.712576 
L 151.870866 197.546406 
L 145.876356 189.009889 
L 140.221295 180.169185 
L 134.894832 171.106685 
L 129.884577 161.921013 
L 125.177128 152.726374 
L 120.758487 143.651148 
L 105.687473 111.457287 
L 102.501101 105.192617 
L 99.520843 99.925153 
L 96.734376 95.769019 
L 94.129951 92.811813 
L 91.696412 91.109044 
L 89.423198 90.680357 
L 87.300339 91.50815 
L 85.318448 93.538886 
L 83.468702 96.687008 
L 81.74283 100.840963 
L 80.133092 105.870562 
L 78.63226 111.634806 
L 77.233596 117.989338 
L 75.930839 124.792931 
L 74.718179 131.912603 
L 72.542096 146.629914 
L 70.667388 161.346744 
L 69.062482 175.504509 
L 67.107002 194.975382 
L 65.642517 211.904762 
L 64.64094 226.250352 
L 64.232774 234.474039 
L 64.046064 241.725473 
L 64.103975 248.098272 
L 64.441942 253.685258 
L 65.11029 258.574501 
L 65.588939 260.783165 
L 66.177474 262.847291 
L 66.887922 264.775844 
L 67.733965 266.577304 
L 68.731083 268.25967 
L 69.896715 269.830472 
L 71.250413 271.296788 
L 72.813984 272.665255 
L 74.611632 273.94209 
L 76.670063 275.133109 
L 79.018572 276.243739 
L 81.689063 277.279041 
L 84.716022 278.243723 
L 88.136385 279.142158 
L 91.989313 279.978397 
L 96.31582 280.756182 
L 101.158243 281.478962 
L 106.55952 282.149896 
L 112.562253 282.77187 
L 126.533498 283.879136 
L 143.355089 284.818535 
L 163.203835 285.603695 
L 186.080674 286.244035 
L 211.736975 286.744554 
L 239.6096 287.105432 
L 268.779913 287.321401 
L 297.97099 287.380858 
L 325.594901 287.264662 
L 349.861585 286.944557 
L 368.961934 286.381188 
L 376.067149 285.992353 
L 381.328702 285.521653 
L 384.638855 284.959881 
L 385.941335 284.2966 
L 385.235936 283.520027 
L 382.579285 282.616929 
L 378.08143 281.572505 
L 371.898564 280.37029 
L 334.447342 273.591291 
L 323.025402 271.289691 
L 311.206899 268.693274 
L 299.174866 265.773174 
L 287.088873 262.499322 
L 275.084163 258.840876 
L 263.272184 254.766795 
L 251.742087 250.246574 
L 240.562839 245.251144 
L 229.785636 239.753961 
L 219.44641 233.732265 
L 209.568257 227.168494 
L 200.163702 220.051839 
L 191.236725 212.37988 
L 182.784547 204.160247 
L 174.799146 195.412249 
L 167.268549 186.168362 
L 160.177892 176.475517 
L 153.510289 166.396095 
L 147.247532 156.00854 
L 141.370646 145.407546 
L 135.860325 134.703747 
L 130.697267 124.02287 
L 125.862432 113.50429 
L 117.103638 93.566534 
L 109.442748 76.18038 
L 105.983048 68.852646 
L 102.750225 62.638059 
L 99.730062 57.667847 
L 96.909128 54.047901 
L 94.274765 51.852107 
L 91.815062 51.116996 
L 89.518831 51.838569 
L 87.375576 53.971905 
L 85.375467 57.433784 
L 83.509302 62.108089 
L 81.768485 67.853312 
L 80.144989 74.511202 
L 78.631334 81.915566 
L 77.220554 89.900344 
L 75.906175 98.30635 
L 73.543042 115.808505 
L 71.499111 133.438171 
L 69.738114 150.487153 
L 67.562688 174.037343 
L 65.879755 194.581171 
L 64.640641 212.0216 
L 63.827294 226.582064 
L 63.52845 234.860966 
L 63.441076 242.128519 
L 63.590831 248.494523 
L 64.015711 254.062014 
L 64.768768 258.925417 
L 65.28987 261.120068 
L 65.921465 263.169915 
L 66.676022 265.084176 
L 67.567694 266.871519 
L 68.612479 268.540089 
L 69.828375 270.097525 
L 71.235538 271.550985 
L 72.85644 272.907164 
L 74.716004 274.172324 
L 76.841722 275.352308 
L 79.263742 276.452567 
L 82.014897 277.478176 
L 85.130678 278.433856 
L 88.649113 279.323989 
L 92.610538 280.152637 
L 97.057241 280.923554 
L 102.03293 281.640199 
L 107.582024 282.305752 
L 120.575849 283.494946 
L 136.367084 284.511269 
L 155.211163 285.37081 
L 177.227552 286.085675 
L 202.328106 286.663906 
L 230.147105 287.109238 
L 259.986517 287.420671 
L 290.79006 287.591809 
L 321.156862 287.609941 
L 349.403148 287.454796 
L 373.682264 287.096927 
L 392.177061 286.495677 
L 398.760621 286.087407 
L 403.369042 285.596677 
L 405.910026 285.01406 
L 406.345873 284.328884 
L 404.69725 283.529109 
L 401.042849 282.601224 
L 395.514729 281.530126 
L 379.578795 278.889336 
L 358.633618 275.450546 
L 346.877406 273.374849 
L 334.570463 271.027424 
L 321.920003 268.380419 
L 309.110306 265.404444 
L 296.300545 262.06888 
L 283.624377 258.342309 
L 271.190858 254.193093 
L 259.086263 249.5901 
L 247.376431 244.503618 
L 236.109361 238.906424 
L 225.317839 232.775047 
L 215.021949 226.09117 
L 205.231379 218.843172 
L 195.947481 211.027745 
L 187.165052 202.651541 
L 178.87386 193.732773 
L 171.05992 184.302687 
L 163.706537 174.406837 
L 156.795166 164.106062 
L 150.306094 153.477123 
L 144.218977 142.612906 
L 138.513268 131.62218 
L 133.168532 120.628845 
L 128.164696 109.770638 
L 119.102236 89.06785 
L 111.178043 70.804041 
L 107.600035 63.001205 
L 104.256957 56.294411 
L 101.134015 50.823116 
L 98.21725 46.703794 
L 95.493508 44.022915 
L 92.950422 42.8309 
L 90.576377 43.137941 
L 88.360482 44.912433 
L 86.292533 48.082434 
L 84.362986 52.540131 
L 82.562917 58.148759 
L 80.883996 64.751101 
L 79.318456 72.178541 
L 77.859061 80.259695 
L 76.49908 88.827879 
L 75.232264 97.726985 
L 72.955385 115.969425 
L 70.987183 134.066254 
L 68.539076 159.60986 
L 66.615779 182.274205 
L 65.15316 201.716402 
L 64.116008 218.051829 
L 63.500915 231.603205 
L 63.340554 239.281727 
L 63.403751 246.009611 
L 63.72349 251.894799 
L 64.346621 257.036538 
L 64.791141 259.357029 
L 65.336963 261.524555 
L 65.995333 263.548842 
L 66.779064 265.439047 
L 67.702685 267.203776 
L 68.7826 268.851106 
L 70.037249 270.388608 
L 71.487264 271.823372 
L 73.155625 273.162027 
L 75.067795 274.410768 
L 77.251835 275.575375 
L 79.738479 276.661238 
L 82.561162 277.673374 
L 85.755977 278.616447 
L 89.361536 279.494787 
L 93.41873 280.312404 
L 97.970337 281.073005 
L 103.060472 281.780004 
L 108.733844 282.436538 
L 122.006067 283.609415 
L 138.11395 284.611474 
L 157.307337 285.458545 
L 179.695179 286.162502 
L 205.173841 286.731182 
L 233.358106 287.168138 
L 263.528388 287.472207 
L 310.056097 287.663144 
L 339.746573 287.59225 
L 366.31199 287.33516 
L 387.887163 286.856982 
L 396.257027 286.52076 
L 402.769299 286.110418 
L 407.285678 285.617653 
L 409.715886 285.033024 
L 410.024681 284.345836 
L 408.23552 283.544031 
L 404.430099 282.614073 
L 398.74354 281.540835 
L 382.480139 278.895447 
L 361.209985 275.45141 
L 349.297033 273.372745 
L 336.838949 271.022058 
L 324.043809 268.371437 
L 311.096448 265.391428 
L 298.156332 262.051333 
L 285.357207 258.319648 
L 272.808068 254.164628 
L 260.595009 249.555025 
L 248.783615 244.460982 
L 237.421578 238.855114 
L 226.541348 232.713757 
L 216.162661 226.01837 
L 206.294852 218.757073 
L 196.938927 210.926258 
L 188.089348 202.532235 
L 179.735562 193.592827 
L 171.863279 184.138845 
L 164.455518 174.21536 
L 157.493463 163.882687 
L 150.957149 153.217025 
L 144.825997 142.310675 
L 139.079238 131.271814 
L 133.696233 120.223762 
L 128.656717 109.303733 
L 119.529968 88.4544 
L 111.549866 70.012846 
L 107.946693 62.11034 
L 104.580139 55.298017 
L 101.435297 49.716989 
L 98.498097 45.485935 
L 95.755286 42.694019 
L 93.194401 41.394722 
L 90.80374 41.601452 
L 88.572329 43.285721 
L 86.489887 46.378353 
L 84.546798 50.77371 
L 82.73407 56.33646 
L 81.04331 62.910012 
L 79.46669 70.325593 
L 77.996917 78.410981 
L 76.627208 86.998124 
L 75.351262 95.929174 
L 73.057727 114.26664 
L 71.074705 132.486988 
L 68.607068 158.240005 
L 66.666492 181.11459 
L 65.187706 200.749972 
L 64.134219 217.254265 
L 63.50107 230.949002 
L 63.326749 238.709742 
L 63.373586 245.510124 
L 63.673632 251.459022 
L 64.272588 256.656616 
L 64.702906 259.002371 
L 65.232849 261.193525 
L 65.873435 263.239907 
L 66.637226 265.150771 
L 67.538476 266.934813 
L 68.59329 268.600199 
L 69.819784 270.154582 
L 71.238242 271.605128 
L 72.871273 272.958542 
L 74.74395 274.221088 
L 76.88393 275.398612 
L 79.321537 276.496565 
L 82.089796 277.520025 
L 85.224404 278.473711 
L 88.76361 279.362006 
L 92.747993 280.188971 
L 97.220095 280.958362 
L 102.223898 281.673638 
L 107.804117 282.337983 
L 120.870512 283.525253 
L 136.750488 284.540348 
L 155.702851 285.39943 
L 177.851202 286.114708 
L 203.112601 286.694377 
L 231.127905 287.142382 
L 261.207179 287.458002 
L 307.810279 287.668378 
L 337.729815 287.612809 
L 364.6853 287.373893 
L 386.808702 286.91777 
L 395.504624 286.594418 
L 402.370096 286.198411 
L 407.258934 285.721651 
L 410.071447 285.154918 
L 410.761942 284.48776 
L 409.343097 283.708384 
L 405.886288 282.803539 
L 400.517569 281.758406 
L 384.771033 279.179515 
L 363.83832 275.818019 
L 352.027183 273.787532 
L 339.629995 271.490083 
L 326.858994 268.898073 
L 313.903756 265.982308 
L 300.928698 262.712287 
L 288.072435 259.056603 
L 275.448533 254.98349 
L 263.14724 250.461522 
L 251.237796 245.460475 
L 239.771038 239.952379 
L 228.782055 233.912726 
L 218.292752 227.321852 
L 208.314214 220.166445 
L 198.848823 212.44115 
L 189.892103 204.15021 
L 181.434293 195.309079 
L 173.461671 185.945922 
L 165.957648 176.102935 
L 158.903653 165.837389 
L 152.279848 155.22234 
L 146.065696 144.346935 
L 140.240399 133.316272 
L 134.783236 122.250777 
L 129.673822 111.285052 
L 124.892297 100.566167 
L 108.672583 63.385048 
L 105.258185 56.336419 
L 102.068539 50.492986 
L 99.089398 45.978598 
L 96.307338 42.888984 
L 93.709732 41.285317 
L 91.284722 41.18939 
L 89.021183 42.58122 
L 86.908691 45.399612 
L 84.937495 49.545802 
L 83.098474 54.889763 
L 81.383113 61.278391 
L 79.783469 68.544537 
L 78.29214 76.515889 
L 76.902238 85.022872 
L 75.607364 93.905033 
L 73.279397 112.22484 
L 71.265933 130.509275 
L 69.531141 148.077083 
L 67.387808 172.210429 
L 65.729048 193.171146 
L 64.506574 210.91712 
L 63.70216 225.707486 
L 63.404595 234.1092 
L 63.314247 241.480748 
L 63.456102 247.935379 
L 63.867242 253.578783 
L 64.599513 258.507473 
L 65.107112 260.731316 
L 65.722834 262.8083 
L 66.458894 264.747802 
L 67.329168 266.558639 
L 68.349348 268.249091 
L 69.537101 269.826919 
L 70.912228 271.299397 
L 72.496825 272.673325 
L 74.315421 273.955062 
L 76.395106 275.150543 
L 78.765622 276.265305 
L 81.459411 277.304503 
L 84.511602 278.272934 
L 87.95991 279.175053 
L 91.844436 280.014988 
L 96.207341 280.796561 
L 101.092354 281.523295 
L 106.544109 282.198432 
L 112.607262 282.824941 
L 126.739637 283.942633 
L 143.799084 284.894963 
L 163.999729 285.696546 
L 187.393153 286.358042 
L 213.796275 286.886022 
L 242.725924 287.282675 
L 288.947718 287.624006 
L 319.795608 287.667986 
L 348.786709 287.544311 
L 374.084385 287.22543 
L 393.843079 286.673038 
L 401.127611 286.29378 
L 406.463675 285.835665 
L 409.740562 285.289728 
L 410.900142 284.645802 
L 409.942015 283.892401 
L 406.924793 283.016606 
L 401.963027 282.003956 
L 386.897431 279.501874 
L 366.437161 276.23572 
L 354.782435 274.26091 
L 342.491989 272.025027 
L 329.782569 269.500854 
L 316.849096 266.659528 
L 303.861704 263.470806 
L 290.964723 259.903438 
L 278.277165 255.92568 
L 265.894271 251.505959 
L 253.889726 246.613696 
L 242.318216 241.220317 
L 231.218095 235.300425 
L 220.613975 228.833147 
L 210.519144 221.803617 
L 200.937739 214.204561 
L 191.866652 206.037939 
L 183.297165 197.316567 
L 175.216325 188.065652 
L 167.608088 178.324158 
L 160.454249 168.145915 
L 153.735189 157.600416 
L 147.430478 146.773209 
L 141.519337 135.765867 
L 135.980996 124.695472 
L 130.794973 113.693588 
L 125.941272 102.904679 
L 109.473757 65.076743 
L 106.006692 57.776372 
L 102.767705 51.650421 
L 99.742361 46.828085 
L 96.917052 43.412008 
L 94.278975 41.471613 
L 91.8161 41.037842 
L 89.517138 42.100149 
L 87.371512 44.606374 
L 85.369321 48.465712 
L 83.501305 53.554481 
L 81.758816 59.723965 
L 80.133784 66.809358 
L 78.618688 74.638751 
L 77.206525 83.041316 
L 75.89079 91.854064 
L 73.524894 110.125849 
L 71.477926 128.456369 
L 69.713354 146.132995 
L 67.530896 170.491575 
L 65.837771 191.69995 
L 64.583527 209.682748 
L 63.747557 224.684387 
L 63.427694 233.210385 
L 63.312869 240.692994 
L 63.426842 247.246158 
L 63.805201 252.97654 
L 64.497965 257.981738 
L 64.982608 260.240255 
L 65.572818 262.349704 
L 66.280456 264.319594 
L 67.119006 266.158867 
L 68.103737 267.875922 
L 69.251851 269.478638 
L 70.582655 270.974394 
L 72.117709 272.370098 
L 73.880979 273.672207 
L 75.898966 274.886751 
L 78.200805 276.019353 
L 80.818324 277.075255 
L 83.78605 278.059332 
L 87.141123 278.976115 
L 90.923129 279.829807 
L 95.1738 280.624296 
L 99.936561 281.363173 
L 105.25591 282.049743 
L 111.17659 282.687034 
L 124.995566 283.82458 
L 141.710214 284.794857 
L 161.548693 285.612931 
L 184.584667 286.289914 
L 210.665236 286.832854 
L 239.344067 287.244458 
L 269.83343 287.522617 
L 316.363648 287.671212 
L 345.657267 287.567808 
L 371.470564 287.272839 
L 391.947539 286.749336 
L 399.655163 286.386888 
L 405.445978 285.947465 
L 409.198357 285.422365 
L 410.84163 284.801702 
L 410.362004 284.0743 
L 407.804777 283.227579 
L 403.272274 282.247436 
L 396.917535 281.118142 
L 357.512575 274.732581 
L 345.34637 272.55846 
L 332.713637 270.102396 
L 319.814606 267.335882 
L 306.825211 264.22896 
L 293.895663 260.750569 
L 281.150635 256.869025 
L 268.690602 252.552648 
L 256.593941 247.770551 
L 244.919428 242.493605 
L 233.708902 236.695576 
L 222.989881 230.354434 
L 212.778031 223.453808 
L 203.079392 215.984551 
L 193.892352 207.946375 
L 185.209338 199.349481 
L 177.018252 190.216126 
L 169.303662 180.582031 
L 162.047783 170.497559 
L 155.231259 160.02858 
L 148.833798 149.256972 
L 142.834663 138.280684 
L 137.213055 127.213335 
L 131.948406 116.183307 
L 127.020593 105.332292 
L 118.098109 84.787699 
L 110.298421 66.884067 
L 106.777198 59.335997 
L 103.487466 52.929941 
L 100.414597 47.800141 
L 97.544798 44.05592 
L 94.865083 41.774805 
L 92.363248 40.996875 
L 90.027839 41.721165 
L 87.848119 43.904857 
L 85.814036 47.465543 
L 83.916186 52.286405 
L 82.145784 58.223671 
L 80.494632 65.115395 
L 78.955084 72.790524 
L 77.520024 81.077328 
L 76.182833 89.810516 
L 73.77794 108.018014 
L 71.696548 126.383648 
L 69.901405 144.162639 
L 67.678857 168.742888 
L 65.950639 190.199758 
L 64.664123 208.422265 
L 63.796316 223.638738 
L 63.454101 232.291404 
L 63.314865 239.887339 
L 63.401155 246.541127 
L 63.747089 252.360385 
L 64.400887 257.443794 
L 64.862923 259.737763 
L 65.428029 261.880411 
L 66.107715 263.881377 
L 66.915081 265.749732 
L 67.864975 267.493997 
L 68.974142 269.122167 
L 70.261395 270.641735 
L 71.747765 272.059713 
L 73.456658 273.382658 
L 75.413983 274.616697 
L 77.648268 275.767545 
L 80.190724 276.840527 
L 83.075264 277.840602 
L 86.338442 278.772378 
L 90.019309 279.64013 
L 94.159138 280.447818 
L 98.801017 281.1991 
L 103.989264 281.897343 
L 109.768651 282.54564 
L 123.275945 283.703429 
L 139.646095 284.691979 
L 159.120514 285.526804 
L 181.794135 286.219471 
L 207.543545 286.777504 
L 235.958841 287.204125 
L 266.292823 287.497807 
L 312.880052 287.672145 
L 342.452948 287.588772 
L 368.759353 287.317352 
L 389.936018 286.822227 
L 398.060117 286.476267 
L 404.301497 286.055167 
L 408.528012 285.55048 
L 410.65671 284.9526 
L 410.660451 284.250656 
L 408.571052 283.432398 
L 404.478212 282.484083 
L 398.524134 281.390362 
L 381.806482 278.696673 
L 360.207888 275.192866 
L 360.207888 275.192866 
" style="fill:none;stroke:#1f77b4;stroke-linecap:square;stroke-width:2;"/>
   </g>
   <g id="line2d_14">
    <path clip-path="url(#p9ced91cb00)" d="M 55.809233 292.996875 
L 84.085157 284.317726 
L 109.533475 269.716799 
L 126.264168 257.041138 
L 136.306247 247.325663 
L 141.594972 240.247509 
L 143.588257 235.255042 
L 143.341417 231.822273 
L 141.606992 229.508255 
L 138.916804 227.961805 
L 135.643806 226.910604 
L 132.047333 226.147273 
L 120.830903 224.233519 
L 117.229683 223.449712 
L 113.768317 222.525675 
L 110.46472 221.453702 
L 107.327335 220.244071 
L 104.358264 218.922882 
L 98.914384 216.115718 
L 91.897132 212.355097 
L 89.836674 211.472552 
L 87.903967 210.870921 
L 86.092499 210.594023 
L 84.396147 210.672906 
L 82.809197 211.124443 
L 81.326352 211.951099 
L 79.94273 213.141776 
L 78.653859 214.67357 
L 77.455674 216.514144 
L 76.344515 218.624411 
L 75.317131 220.961234 
L 74.37069 223.479903 
L 72.711464 228.888294 
L 71.353092 234.529216 
L 70.289755 240.145381 
L 69.524635 245.551046 
L 69.071319 250.625966 
L 68.955596 255.302803 
L 69.217665 259.553284 
L 69.507516 261.517404 
L 69.914776 263.375876 
L 70.44976 265.131082 
L 71.124241 266.785988 
L 71.951544 268.343984 
L 72.946651 269.808735 
L 74.126277 271.184068 
L 75.508937 272.473879 
L 77.114982 273.68206 
L 78.966594 274.812435 
L 81.087724 275.868716 
L 83.50396 276.854464 
L 86.242299 277.773057 
L 89.330806 278.627669 
L 92.798123 279.421248 
L 96.672815 280.156502 
L 100.982519 280.835877 
L 105.752869 281.461554 
L 116.759934 282.559083 
L 129.803308 283.460563 
L 144.852888 284.172157 
L 161.671475 284.694055 
L 179.752489 285.019604 
L 198.283971 285.134165 
L 216.16429 285.013666 
L 232.092534 284.622768 
L 238.904962 284.311266 
L 244.742715 283.912678 
L 249.475305 283.418383 
L 253.001119 282.818586 
L 255.253477 282.102226 
L 256.204467 281.256895 
L 255.866054 280.268756 
L 254.288279 279.122477 
L 251.554818 277.801191 
L 247.776489 276.286473 
L 224.945902 267.873451 
L 218.017693 265.066033 
L 210.862784 261.928087 
L 203.590578 258.435213 
L 196.295558 254.564149 
L 189.057202 250.29373 
L 181.940603 245.606037 
L 174.997571 240.487722 
L 168.268015 234.931499 
L 161.781448 228.937762 
L 155.558493 222.516279 
L 149.612332 215.687873 
L 143.950021 208.486016 
L 138.573681 200.958202 
L 133.48152 193.166981 
L 128.668717 185.190526 
L 124.128162 177.122588 
L 119.851066 169.071727 
L 112.046621 153.518804 
L 105.168276 139.610606 
L 102.048012 133.623964 
L 99.125331 128.458133 
L 96.389266 124.226869 
L 93.829198 121.021745 
L 91.434907 118.906619 
L 89.196621 117.913626 
L 87.105031 118.04126 
L 85.151312 119.254882 
L 83.327122 121.489614 
L 81.624608 124.65528 
L 80.036391 128.642714 
L 78.555567 133.330691 
L 77.175689 138.592718 
L 75.89076 144.303103 
L 74.695222 150.341885 
L 72.552203 162.974085 
L 70.71052 175.75216 
L 69.140497 188.145701 
L 67.245478 205.311289 
L 65.859044 220.322883 
L 64.96475 233.09154 
L 64.652137 240.427276 
L 64.587462 246.903856 
L 64.801949 252.601112 
L 65.341153 257.599415 
L 65.751418 259.860711 
L 66.268013 261.975732 
L 66.902127 263.953225 
L 67.666524 265.801527 
L 68.575693 267.528555 
L 69.645995 269.141803 
L 70.895814 270.648348 
L 72.3457 272.054852 
L 74.018506 273.367575 
L 75.9395 274.592387 
L 78.136451 275.734781 
L 80.639669 276.799888 
L 83.481983 277.792488 
L 86.698642 278.717026 
L 90.327111 279.577623 
L 94.406736 280.378091 
L 98.978261 281.12194 
L 104.08315 281.81239 
L 109.762711 282.452378 
L 123.003321 283.591344 
L 138.978548 284.556892 
L 157.866652 285.362785 
L 179.676585 286.018415 
L 204.173278 286.528564 
L 230.810206 286.892961 
L 258.685422 287.105618 
L 286.537312 287.153881 
L 312.794529 287.017164 
L 335.693428 286.665293 
L 345.326437 286.396125 
L 353.474394 286.056439 
L 359.962775 285.638769 
L 364.653674 285.134579 
L 367.454543 284.534162 
L 368.324714 283.82653 
L 367.278677 282.999307 
L 364.385446 282.038618 
L 359.763926 280.928987 
L 346.009922 278.192415 
L 327.606565 274.630544 
L 317.204515 272.48238 
L 306.280904 270.055025 
L 295.025188 267.320689 
L 283.605986 264.250265 
L 272.1691 260.813706 
L 260.837142 256.980542 
L 249.710355 252.720538 
L 238.868257 248.004536 
L 228.371761 242.805461 
L 218.265527 237.099519 
L 208.580338 230.867558 
L 199.335377 224.096577 
L 190.540319 216.781351 
L 182.197202 208.926103 
L 174.302044 200.546175 
L 166.846234 191.669595 
L 159.817689 182.338478 
L 153.201811 172.610146 
L 146.98227 162.557905 
L 141.141623 152.271387 
L 135.661816 141.856392 
L 130.524566 131.43418 
L 125.711662 121.140144 
L 116.98767 101.536078 
L 109.352674 84.314561 
L 105.903458 77.002676 
L 102.679823 70.759474 
L 99.667753 65.717064 
L 96.853986 61.983058 
L 94.226001 59.633917 
L 91.772004 58.709577 
L 89.480907 59.210182 
L 87.342296 61.095548 
L 85.346411 64.287574 
L 83.484115 68.675414 
L 81.746863 74.122736 
L 80.126679 80.476159 
L 78.616123 87.573893 
L 77.208271 95.2537 
L 75.896686 103.359594 
L 73.538872 120.28578 
L 71.500134 137.382408 
L 69.744474 153.947753 
L 67.577997 176.867266 
L 65.90625 196.887042 
L 64.682204 213.896716 
L 63.890112 228.105179 
L 63.610446 236.186423 
L 63.547743 243.281702 
L 63.729319 249.49762 
L 64.195268 254.93438 
L 64.551586 257.389652 
L 65.001276 259.683913 
L 65.554304 261.827255 
L 66.222077 263.829208 
L 67.017585 265.698756 
L 67.95556 267.444351 
L 69.052622 269.073935 
L 70.327446 270.594954 
L 71.800915 272.014387 
L 73.496268 273.338761 
L 75.439235 274.57418 
L 77.658139 275.726338 
L 80.183963 276.800545 
L 83.050366 277.801744 
L 86.293616 278.734529 
L 89.952435 279.603162 
L 94.067727 280.411592 
L 98.682156 281.16346 
L 103.839556 281.862123 
L 109.58414 282.510655 
L 123.007278 283.668292 
L 139.268279 284.655713 
L 158.599831 285.488215 
L 181.085235 286.177071 
L 206.585903 286.729424 
L 234.672899 287.147994 
L 264.576466 287.430599 
L 295.167052 287.569437 
L 324.978407 287.550084 
L 352.281672 287.35017 
L 375.221917 286.937654 
L 384.492389 286.638495 
L 392.03045 286.268681 
L 397.675443 285.820452 
L 401.309578 285.28496 
L 402.866192 284.652161 
L 402.335293 283.9107 
L 399.765348 283.047807 
L 395.260815 282.049174 
L 388.975536 280.898857 
L 350.229419 274.399307 
L 338.304505 272.188107 
L 325.933807 269.691154 
L 313.312312 266.87982 
L 300.610962 263.724095 
L 287.975407 260.192961 
L 275.526288 256.254895 
L 263.360638 251.878528 
L 251.553968 247.03347 
L 240.162757 241.69131 
L 229.227057 235.826787 
L 218.773054 229.419136 
L 208.815475 222.45357 
L 199.359753 214.92287 
L 190.40394 206.829035 
L 181.940348 198.184911 
L 173.956941 189.015739 
L 166.438482 179.360537 
L 159.367482 169.273224 
L 152.724957 158.823422 
L 146.491037 148.096867 
L 140.645443 137.195369 
L 135.167851 126.236288 
L 130.038176 115.351477 
L 125.236781 104.685654 
L 108.944065 67.409562 
L 105.513361 60.258891 
L 102.308231 54.284223 
L 99.314424 49.612019 
L 96.518502 46.341526 
L 93.907818 44.538248 
L 91.470486 44.228937 
L 89.195353 45.398927 
L 87.071967 47.992373 
L 85.090542 51.915556 
L 83.241926 57.042896 
L 81.517573 63.224928 
L 79.909508 70.297219 
L 78.410298 78.089247 
L 77.013027 86.432365 
L 75.711268 95.166324 
L 73.370878 113.234823 
L 71.346629 131.321612 
L 69.602526 148.735757 
L 67.447688 172.700445 
L 65.78007 193.543925 
L 64.551179 211.206065 
L 63.742749 225.934587 
L 63.443908 234.303689 
L 63.353517 241.647837 
L 63.496724 248.07926 
L 63.910836 253.702881 
L 64.648003 258.61462 
L 65.15889 260.8309 
L 65.778537 262.900863 
L 66.519223 264.833841 
L 67.394897 266.638612 
L 68.421329 268.323418 
L 69.616271 269.895989 
L 70.999619 271.363565 
L 72.593563 272.732922 
L 74.422736 274.01039 
L 76.514333 275.201882 
L 78.898202 276.31291 
L 81.606886 277.34861 
L 84.675608 278.313758 
L 88.142164 279.212789 
L 92.046717 280.049815 
L 96.43146 280.828638 
L 101.340116 281.552768 
L 106.817259 282.225427 
L 112.907425 282.849568 
L 127.097798 283.962792 
L 144.217999 284.9109 
L 164.477313 285.708368 
L 187.920116 286.365701 
L 214.353657 286.889295 
L 243.282942 287.281131 
L 273.866547 287.538262 
L 304.905757 287.652067 
L 334.876126 287.607217 
L 362.009636 287.380305 
L 384.439394 286.938083 
L 393.33269 286.622618 
L 400.42057 286.23526 
L 405.552012 285.76803 
L 408.621405 285.211834 
L 409.576338 284.556361 
L 408.422369 283.789969 
L 405.223852 282.899573 
L 400.100406 281.87053 
L 384.78504 279.329508 
L 364.184276 276.01483 
L 352.4996 274.011635 
L 340.203631 271.744347 
L 327.510453 269.185563 
L 314.611978 266.306264 
L 301.675217 263.076092 
L 288.841441 259.463737 
L 276.226799 255.437474 
L 263.923939 250.965837 
L 252.004274 246.018476 
L 240.520549 240.56718 
L 229.509494 234.587076 
L 218.994402 228.057993 
L 208.987508 220.965962 
L 199.492132 213.304813 
L 190.504551 205.077816 
L 182.015601 196.299303 
L 174.012023 186.996185 
L 166.47758 177.209291 
L 159.393962 166.994449 
L 152.74152 156.423226 
L 146.499847 145.583281 
L 140.648226 134.578268 
L 135.165985 123.527253 
L 130.032757 112.563617 
L 125.228678 101.833388 
L 108.930809 64.461142 
L 105.499682 57.328667 
L 102.294331 51.388763 
L 99.300459 46.767151 
L 96.50459 43.561979 
L 93.894046 41.837314 
L 91.456917 41.61817 
L 89.182032 42.887897 
L 87.05892 45.588519 
L 85.077782 49.624141 
L 83.229459 54.867077 
L 81.505393 61.165909 
L 79.897601 68.354492 
L 78.398645 76.260857 
L 77.001602 84.71521 
L 75.70004 93.556432 
L 73.359929 111.825303 
L 71.33577 130.091861 
L 69.591518 147.665034 
L 67.43588 171.832148 
L 65.766521 192.840318 
L 64.534545 210.635939 
L 63.721089 225.472548 
L 63.417397 233.902033 
L 63.32055 241.29866 
L 63.455238 247.775708 
L 63.858185 253.439007 
L 64.580804 258.385264 
L 65.08287 260.617087 
L 65.692489 262.701552 
L 66.421795 264.648063 
L 67.284571 266.465465 
L 68.296411 268.162064 
L 69.474875 269.745646 
L 70.839649 271.223507 
L 72.412704 272.602474 
L 74.218439 273.888926 
L 76.283808 275.08882 
L 78.638413 276.207712 
L 81.314555 277.250776 
L 84.347219 278.222828 
L 87.773989 279.128338 
L 91.634847 279.971453 
L 95.971851 280.756008 
L 100.828658 281.485544 
L 106.249865 282.163314 
L 112.280143 282.792301 
L 126.340149 283.91454 
L 143.319814 284.870951 
L 163.436304 285.676248 
L 186.745978 286.341184 
L 213.072244 286.872431 
L 241.939772 287.272281 
L 272.52884 287.538152 
L 303.66225 287.661864 
L 333.833961 287.628625 
L 361.287347 287.415688 
L 384.154664 286.990623 
L 393.305735 286.685236 
L 400.671889 286.309147 
L 406.096161 285.854538 
L 409.465716 285.312493 
L 410.719994 284.672896 
L 409.856013 283.924318 
L 406.929821 283.053904 
L 402.05362 282.047256 
L 387.135348 279.559334 
L 366.78349 276.310724 
L 355.167665 274.346153 
L 342.906426 272.121593 
L 330.217287 269.609898 
L 317.296125 266.782271 
L 304.314124 263.608521 
L 291.416682 260.057435 
L 278.723844 256.09728 
L 266.331807 251.696463 
L 254.315117 246.824354 
L 242.729213 241.452279 
L 231.613092 235.554694 
L 220.991906 229.110522 
L 210.879387 222.10463 
L 201.280028 214.529416 
L 192.191006 206.386445 
L 183.603823 197.688076 
L 175.505693 188.459001 
L 167.880693 178.737622 
L 160.710706 168.577172 
L 153.976173 158.046521 
L 147.656697 147.230591 
L 141.731515 136.230343 
L 136.179864 125.162275 
L 130.981252 114.157423 
L 126.115668 103.359794 
L 109.607227 65.434321 
L 106.131442 58.094026 
L 102.88428 51.922727 
L 99.851277 47.050456 
L 97.018795 43.580958 
L 94.374003 41.584981 
L 91.904842 41.094952 
L 89.599999 42.101875 
L 87.448872 44.555094 
L 85.441533 48.365153 
L 83.568702 53.409467 
L 81.821708 59.540114 
L 80.192461 66.592743 
L 78.673419 74.395588 
L 77.257562 82.777685 
L 75.938367 91.575689 
L 73.566186 109.83302 
L 71.513678 128.164925 
L 69.744198 145.853773 
L 67.555331 170.241969 
L 65.856645 191.484908 
L 64.597357 209.501596 
L 63.756503 224.533858 
L 63.433273 233.077983 
L 63.314825 240.576844 
L 63.424745 247.144459 
L 63.798414 252.887619 
L 64.485596 257.90407 
L 64.967019 260.16769 
L 65.553666 262.281919 
L 66.257348 264.256284 
L 67.091496 266.099746 
L 68.071318 267.820721 
L 69.213956 269.427104 
L 70.538646 270.926292 
L 72.066875 272.325205 
L 73.822533 273.630317 
L 75.832037 274.84767 
L 78.12444 275.982901 
L 80.731486 277.041263 
L 83.687616 278.027645 
L 87.029894 278.946588 
L 90.797832 279.802305 
L 95.033102 280.598694 
L 99.779086 281.339356 
L 105.080264 282.027604 
L 110.981386 282.666477 
L 124.757319 283.806928 
L 141.424571 284.779821 
L 161.213204 285.600286 
L 184.199893 286.279497 
L 210.23586 286.824569 
L 238.879808 287.238278 
L 269.349546 287.518596 
L 315.890654 287.670736 
L 345.224683 287.570064 
L 371.107427 287.278288 
L 391.681559 286.758612 
L 399.44657 286.39838 
L 405.299186 285.961417 
L 409.116324 285.439051 
L 410.825632 284.821437 
L 410.411501 284.097438 
L 407.91742 283.254517 
L 403.444028 282.27862 
L 397.142941 281.154068 
L 357.882171 274.793523 
L 345.733707 272.627452 
L 333.112157 270.180266 
L 320.218466 267.423505 
L 307.229353 264.32725 
L 294.295829 260.860466 
L 281.543344 256.991479 
L 269.073095 252.688596 
L 256.964105 247.920893 
L 245.275718 242.659169 
L 234.050256 236.877086 
L 223.315644 230.552465 
L 213.087878 223.66874 
L 203.373266 216.216523 
L 194.170404 208.195235 
L 185.471882 199.614738 
L 177.265721 190.496907 
L 169.536579 180.877039 
L 162.266728 170.805043 
L 155.436852 160.34632 
L 149.026678 149.582266 
L 143.015479 138.610357 
L 137.382452 127.543757 
L 132.107017 116.51043 
L 127.169034 105.651706 
L 118.227977 85.077376 
L 110.411906 67.124187 
L 106.883247 59.54417 
L 103.586546 53.101887 
L 100.507151 47.93222 
L 97.631242 44.145336 
L 94.945809 41.819802 
L 92.438624 40.996875 
L 90.09821 41.676836 
L 87.913809 43.818091 
L 85.875346 47.339343 
L 83.9734 52.124698 
L 82.199167 58.031057 
L 80.54443 64.896878 
L 79.001527 72.551248 
L 77.563326 80.822345 
L 76.223194 89.544596 
L 73.812957 107.742778 
L 71.726855 126.112334 
L 69.927539 143.904267 
L 67.699539 168.513167 
L 65.966587 190.002451 
L 64.675768 208.256358 
L 63.803786 223.501035 
L 63.458685 232.17035 
L 63.316337 239.781188 
L 63.399139 246.448215 
L 63.741029 252.279169 
L 64.390005 257.372872 
L 64.849258 259.671508 
L 65.411282 261.818526 
L 66.087543 263.823584 
L 66.891097 265.695768 
L 67.836737 267.443615 
L 68.941157 269.075136 
L 70.223106 270.597838 
L 71.703554 272.018748 
L 73.405835 273.344437 
L 75.355791 274.581042 
L 77.581874 275.73429 
L 80.11522 276.80952 
L 82.989666 277.8117 
L 86.241699 278.745447 
L 89.910302 279.615048 
L 94.036694 280.424471 
L 98.663922 281.177381 
L 103.836284 281.877157 
L 109.598554 282.526898 
L 123.068108 283.687339 
L 139.39658 284.678275 
L 158.827021 285.515281 
L 181.456989 286.20998 
L 207.166714 286.769957 
L 235.5508 287.198497 
L 265.867057 287.494146 
L 312.463771 287.671714 
L 342.072944 287.59083 
L 368.442152 287.322317 
L 389.707265 286.830678 
L 397.883873 286.486738 
L 404.182014 286.067879 
L 408.46824 285.565685 
L 410.658071 284.970584 
L 410.722701 284.271743 
L 408.692251 283.456952 
L 404.654823 282.512511 
L 398.75124 281.423118 
L 382.115883 278.739645 
L 360.571722 275.248488 
L 348.559366 273.14236 
L 336.025349 270.76134 
L 323.175708 268.077336 
L 310.192857 265.060731 
L 297.233679 261.680707 
L 284.429341 257.905684 
L 271.886379 253.703912 
L 259.688636 249.044211 
L 247.899686 243.896897 
L 236.565475 238.234871 
L 225.716967 232.034889 
L 215.372654 225.278974 
L 205.540856 217.955968 
L 196.221756 210.063145 
L 187.409167 201.607857 
L 179.09203 192.609119 
L 171.255671 183.099066 
L 163.882823 173.124201 
L 156.954467 162.746348 
L 150.450498 152.043245 
L 144.350251 141.108735 
L 138.63291 130.052477 
L 133.277821 118.999179 
L 128.264728 108.08729 
L 119.18646 87.29827 
L 111.249328 68.979156 
L 107.665713 61.160931 
L 104.317513 54.447109 
L 101.189882 48.977182 
L 98.268812 44.867572 
L 95.541111 42.204594 
L 92.994376 41.038399 
L 90.616961 41.37878 
L 88.397946 43.193586 
L 86.327107 46.410201 
L 84.394873 50.920016 
L 82.592305 56.585378 
L 80.911053 63.248135 
L 79.343333 70.73872 
L 77.881893 78.884826 
L 76.51999 87.518906 
L 75.251359 96.484072 
L 72.971124 114.856503 
L 70.999848 133.077171 
L 68.54744 158.78964 
L 66.619901 181.599664 
L 65.152692 201.164542 
L 64.110077 217.601775 
L 63.487946 231.236893 
L 63.321551 238.962623 
L 63.377207 245.731747 
L 63.687418 251.652928 
L 64.298432 256.826061 
L 64.735695 259.16071 
L 65.273319 261.341455 
L 65.92243 263.378087 
L 66.695706 265.27982 
L 67.607532 267.055316 
L 68.674152 268.712703 
L 69.913834 270.259601 
L 71.347026 271.703144 
L 72.996511 273.050005 
L 74.887548 274.306419 
L 77.047985 275.478205 
L 79.508342 276.570787 
L 82.301843 277.589217 
L 85.464379 278.538191 
L 89.034381 279.422068 
L 93.05259 280.24489 
L 97.56168 281.010388 
L 102.605723 281.722006 
L 108.229466 282.382906 
L 121.392513 283.563855 
L 137.380526 284.573271 
L 156.448843 285.42718 
L 178.715205 286.137658 
L 204.088282 286.71276 
L 232.198312 287.156282 
L 262.343277 287.467339 
L 308.963743 287.670297 
L 338.825427 287.609059 
L 365.659854 287.363558 
L 387.599144 286.899572 
L 396.18176 286.571676 
L 402.922326 286.170633 
L 407.677416 285.688275 
L 410.350671 285.115305 
L 410.900142 284.441187 
L 409.342416 283.654036 
L 405.752665 282.740502 
L 400.260345 281.685658 
L 384.304945 279.083826 
L 363.223636 275.693881 
L 351.361294 273.646789 
L 338.927287 271.330985 
L 326.132565 268.718757 
L 313.165179 265.780814 
L 300.187917 262.486577 
L 287.337766 258.804595 
L 274.726742 254.703095 
L 262.443671 250.150693 
L 250.556529 245.117273 
L 239.115053 239.575039 
L 228.153402 233.499747 
L 217.692706 226.872084 
L 207.743419 219.679191 
L 198.307416 211.916273 
L 189.379825 203.588235 
L 180.95058 194.711291 
L 173.005733 185.31446 
L 165.52853 175.440867 
L 158.500287 165.148766 
L 151.901097 154.512229 
L 145.710381 143.621424 
L 139.907326 132.582447 
L 134.47122 121.516661 
L 129.381695 110.55952 
L 124.618922 99.858817 
L 112.103287 70.903242 
L 108.463676 62.85392 
L 105.062995 55.87464 
L 101.886203 50.109151 
L 98.919101 45.679784 
L 96.148314 42.680322 
L 93.56126 41.169633 
L 91.146124 41.166978 
L 88.891822 42.649778 
L 86.787974 45.554374 
L 84.824864 49.779848 
L 82.993408 55.194475 
L 81.285127 61.643989 
L 79.69211 68.960636 
L 78.206985 76.972023 
L 78.206985 76.972023 
" style="fill:none;stroke:#ff7f0e;stroke-linecap:square;stroke-width:2;"/>
   </g>
   <g id="line2d_15">
    <path clip-path="url(#p9ced91cb00)" d="M 55.809233 292.996875 
L 62.209121 272.93009 
L 68.500753 254.869994 
L 72.767942 242.996599 
L 75.461498 235.869962 
L 77.018909 232.116673 
L 77.779178 230.702084 
L 77.993163 230.87726 
L 77.843354 232.108143 
L 76.942211 236.340081 
L 74.598304 246.852464 
L 73.689416 251.864622 
L 73.128132 256.435641 
L 72.992688 260.531798 
L 73.106566 262.406123 
L 73.35356 264.170016 
L 73.743488 265.82833 
L 74.287063 267.386108 
L 74.996062 268.848368 
L 75.883444 270.219967 
L 76.963431 271.505525 
L 78.251543 272.709388 
L 79.764573 273.835611 
L 81.520503 274.887952 
L 83.538342 275.869877 
L 85.837863 276.784559 
L 88.439238 277.634884 
L 91.362528 278.423449 
L 94.627029 279.15256 
L 98.250442 279.824228 
L 102.247851 280.440159 
L 111.404473 281.510037 
L 122.114739 282.369216 
L 134.260373 283.018741 
L 147.533893 283.452802 
L 161.398448 283.657606 
L 175.08174 283.609951 
L 187.626151 283.275513 
L 193.149263 282.98649 
L 198.007572 282.606823 
L 202.091753 282.12816 
L 205.31159 281.541041 
L 207.601138 280.834836 
L 208.922408 279.997682 
L 209.267125 279.01644 
L 208.65637 277.876666 
L 207.138178 276.562619 
L 204.783436 275.057301 
L 201.680625 273.342553 
L 183.85501 263.996913 
L 178.564813 260.938414 
L 173.129079 257.553004 
L 167.625372 253.824843 
L 162.120359 249.741539 
L 156.669903 245.295421 
L 151.319615 240.484951 
L 146.105701 235.316239 
L 141.055969 229.804604 
L 136.190908 223.97609 
L 131.524756 217.868832 
L 127.066518 211.534137 
L 122.820891 205.037145 
L 118.789093 198.456913 
L 114.969582 191.88577 
L 107.951078 179.196512 
L 101.718996 167.892597 
L 98.879322 163.057971 
L 96.213083 158.915049 
L 93.711964 155.556437 
L 91.367655 153.054246 
L 89.17197 151.455799 
L 87.116924 150.780902 
L 85.194799 151.021067 
L 83.398188 152.140778 
L 81.720028 154.080653 
L 80.153623 156.762048 
L 78.692658 160.092529 
L 77.331208 163.971577 
L 76.063744 168.295964 
L 74.885134 172.9644 
L 73.790646 177.881194 
L 71.837114 188.119791 
L 70.173325 198.4338 
L 68.775985 208.411603 
L 67.628558 217.790787 
L 66.721698 226.426934 
L 66.053935 234.260815 
L 65.632682 241.290144 
L 65.475643 247.547832 
L 65.612677 253.08647 
L 66.088196 257.967877 
L 66.47147 260.182258 
L 66.964157 262.256419 
L 67.577332 264.198142 
L 68.323642 266.014965 
L 69.217448 267.714138 
L 70.274966 269.3026 
L 71.514402 270.786954 
L 72.956092 272.173464 
L 74.622614 273.46805 
L 76.538887 274.676287 
L 78.73223 275.803408 
L 81.232369 276.854316 
L 84.071383 277.833584 
L 87.283556 278.745469 
L 90.905119 279.593915 
L 94.973853 280.382565 
L 99.528523 281.114767 
L 104.608123 281.793577 
L 110.250887 282.421768 
L 123.367437 283.535978 
L 139.115777 284.473971 
L 157.616386 285.247789 
L 178.800745 285.864751 
L 202.336349 286.327078 
L 227.563591 286.631295 
L 253.463121 286.767379 
L 278.672756 286.717579 
L 301.571256 286.454897 
L 320.442506 285.941131 
L 327.864841 285.574515 
L 333.721211 285.124499 
L 337.888184 284.582023 
L 340.28754 283.936807 
L 340.891599 283.177237 
L 339.725164 282.290269 
L 336.863672 281.261318 
L 332.427681 280.074165 
L 319.487219 277.151753 
L 302.410762 273.358149 
L 292.823881 271.075359 
L 282.791617 268.500316 
L 272.484601 265.605098 
L 262.053588 262.360791 
L 251.628065 258.737966 
L 241.316236 254.70731 
L 231.206011 250.240414 
L 221.366658 245.310748 
L 211.850837 239.894817 
L 202.696771 233.97349 
L 193.930428 227.533494 
L 185.567572 220.569029 
L 177.615638 213.08346 
L 170.075393 205.091012 
L 162.942375 196.618395 
L 156.208114 187.706263 
L 149.861152 178.410415 
L 143.887881 168.802636 
L 138.273228 158.971098 
L 133.001197 149.020225 
L 128.0553 139.069962 
L 123.418896 129.254367 
L 115.008706 110.620213 
L 107.642686 94.369382 
L 104.313487 87.533053 
L 101.201279 81.750632 
L 98.292738 77.145974 
L 95.575231 73.816949 
L 93.036811 71.829236 
L 90.666204 71.211695 
L 88.452801 71.954044 
L 86.386629 74.007304 
L 84.458334 77.287093 
L 82.659157 81.679383 
L 80.980903 87.047999 
L 79.415924 93.242917 
L 77.95709 100.108445 
L 76.597765 107.490546 
L 75.331789 115.242786 
L 73.057482 131.334663 
L 71.093612 147.493198 
L 69.40608 163.084019 
L 67.333257 184.578671 
L 65.750831 203.302188 
L 64.619322 219.184422 
L 63.932333 232.438405 
L 63.735621 239.97309 
L 63.77148 246.586846 
L 64.072993 252.379902 
L 64.687404 257.446135 
L 65.131338 259.733876 
L 65.679241 261.871474 
L 66.3425 263.868341 
L 67.134088 265.733362 
L 68.068712 267.474908 
L 69.162973 269.100848 
L 70.43552 270.618572 
L 71.907208 272.035006 
L 73.601239 273.356636 
L 75.543296 274.589524 
L 77.761641 275.739333 
L 80.28718 276.81134 
L 83.153465 277.810461 
L 86.396628 278.741263 
L 90.055216 279.607986 
L 94.169902 280.41455 
L 98.783058 281.164577 
L 103.938141 281.861397 
L 109.67889 282.50806 
L 123.087309 283.661779 
L 139.318456 284.644849 
L 158.59542 285.472299 
L 180.988117 286.155079 
L 206.34032 286.699928 
L 234.201241 287.109057 
L 263.776015 287.379637 
L 293.908968 287.503046 
L 323.110858 287.463814 
L 349.639924 287.238243 
L 371.648829 286.792625 
L 380.405746 286.473489 
L 387.409228 286.081018 
L 392.51006 285.607115 
L 395.604134 285.04256 
L 396.639972 284.376901 
L 395.623209 283.598341 
L 392.617145 282.693627 
L 387.739044 281.64794 
L 373.056981 279.065906 
L 353.241986 275.698679 
L 341.990708 273.664458 
L 330.145881 271.362797 
L 317.914957 268.766216 
L 305.483754 265.845686 
L 293.013876 262.57093 
L 280.641953 258.910839 
L 268.480272 254.834038 
L 256.618386 250.3096 
L 245.125309 245.30794 
L 234.052019 239.801876 
L 223.434029 233.767875 
L 213.293872 227.187453 
L 203.643412 220.048708 
L 194.485907 212.347944 
L 185.817816 204.091325 
L 177.630347 195.296495 
L 169.910756 185.994077 
L 162.643422 176.22897 
L 155.810722 166.06137 
L 149.39374 155.567426 
L 143.372821 144.839483 
L 137.728014 133.985847 
L 132.439404 123.130036 
L 127.487371 112.409478 
L 118.517092 91.981181 
L 110.671991 73.987907 
L 107.129297 66.316906 
L 103.819014 59.737861 
L 100.726552 54.388269 
L 97.838131 50.382145 
L 95.140764 47.803082 
L 92.622235 46.698388 
L 90.271068 47.075155 
L 88.076499 48.898987 
L 86.028442 52.095752 
L 84.117462 56.556273 
L 82.334737 62.143375 
L 80.672032 68.700405 
L 79.121668 76.060194 
L 77.676491 84.053517 
L 76.329851 92.516359 
L 73.907932 110.252754 
L 71.811822 128.233784 
L 70.004069 145.70233 
L 67.766224 169.926161 
L 66.02676 191.122312 
L 64.732962 209.150115 
L 63.862074 224.217974 
L 63.520434 232.790533 
L 63.384226 240.31827 
L 63.476439 246.913696 
L 63.831781 252.682804 
L 64.499246 257.722978 
L 64.970012 259.997586 
L 65.545301 262.122224 
L 66.236785 264.106426 
L 67.057745 265.95917 
L 68.023221 267.688889 
L 69.150176 269.303499 
L 70.457651 270.810418 
L 71.966924 272.216591 
L 73.701659 273.528512 
L 75.688038 274.752246 
L 77.954859 275.893454 
L 80.533606 276.957409 
L 83.458451 277.949021 
L 86.766186 278.87285 
L 90.496057 279.733128 
L 94.689476 280.533772 
L 99.38959 281.278398 
L 104.640667 281.970336 
L 110.48729 282.612637 
L 124.140641 283.759212 
L 140.667264 284.737326 
L 160.298542 285.562179 
L 183.114022 286.244994 
L 208.969225 286.792913 
L 237.428105 287.208716 
L 267.713917 287.490348 
L 298.691457 287.630217 
L 328.890504 287.614206 
L 356.578557 287.420366 
L 379.894041 287.017219 
L 389.344524 286.7242 
L 397.054075 286.361635 
L 402.858574 285.921885 
L 406.636177 285.396237 
L 408.315834 284.774791 
L 407.883185 284.046355 
L 405.382765 283.198332 
L 400.915945 282.216601 
L 394.634644 281.085415 
L 355.57526 274.688863 
L 343.501909 272.511061 
L 330.962259 270.050924 
L 318.155584 267.279951 
L 305.257003 264.168197 
L 292.416067 260.684635 
L 279.756926 256.797631 
L 267.379664 252.475577 
L 255.362377 247.687694 
L 243.763663 242.40499 
L 232.625261 236.601416 
L 221.974658 230.25517 
L 211.827541 223.350164 
L 202.190013 215.877592 
L 193.060557 207.837569 
L 184.431717 199.240765 
L 176.29153 190.109964 
L 168.624708 180.481477 
L 161.413616 170.406309 
L 154.63905 159.951017 
L 148.280872 149.198196 
L 142.318495 138.246523 
L 136.731267 127.210336 
L 131.49876 116.218697 
L 126.600987 105.413904 
L 117.732796 84.987009 
L 109.980478 67.235497 
L 106.480617 59.775471 
L 103.210834 53.464099 
L 100.156593 48.433991 
L 97.304189 44.792322 
L 94.640719 42.614043 
L 92.154055 41.936349 
L 89.832817 42.755295 
L 87.666336 45.02521 
L 85.644623 48.661204 
L 83.758337 53.544531 
L 81.998748 59.530173 
L 80.35771 66.455654 
L 78.82763 74.15007 
L 77.401439 82.442421 
L 76.072563 91.168592 
L 73.682805 109.330411 
L 71.614824 127.619179 
L 69.831663 145.302567 
L 67.625025 169.725722 
L 65.911074 191.028366 
L 64.638164 209.111024 
L 63.784431 224.20622 
L 63.452533 232.788557 
L 63.324945 240.322116 
L 63.424841 246.920862 
L 63.787104 252.691724 
L 64.460901 257.732686 
L 64.934667 260.007451 
L 65.512877 262.132134 
L 66.207227 264.116299 
L 67.031023 265.968943 
L 67.999333 267.698518 
L 69.129149 269.312953 
L 70.439545 270.819678 
L 71.951834 272.225646 
L 73.68972 273.53736 
L 75.679427 274.760891 
L 77.949804 275.901904 
L 80.532388 276.965679 
L 83.461416 277.957129 
L 86.773748 278.880818 
L 90.508713 279.740983 
L 94.707818 280.541542 
L 99.414315 281.286118 
L 104.672599 281.978042 
L 110.527399 282.620372 
L 124.200719 283.767152 
L 140.753627 284.745706 
L 160.419863 285.571293 
L 183.282134 286.255216 
L 209.200093 286.804718 
L 237.742861 287.222712 
L 268.139787 287.507316 
L 314.64957 287.666263 
L 344.028175 287.570678 
L 370.014001 287.284716 
L 390.748533 286.771889 
L 398.612708 286.415584 
L 404.574649 285.982951 
L 408.508712 285.46538 
L 410.33954 284.853087 
L 410.048239 284.135006 
L 407.67495 283.298678 
L 403.31715 282.330128 
L 397.123692 281.213767 
L 358.180265 274.896324 
L 346.080201 272.744111 
L 333.495539 270.312209 
L 320.628285 267.572245 
L 307.656383 264.494372 
L 294.732133 261.047606 
L 281.982256 257.200297 
L 269.509149 252.920746 
L 257.39293 248.177973 
L 245.693913 242.942676 
L 234.45526 237.188352 
L 223.705607 230.892592 
L 213.461544 224.038523 
L 203.729863 216.616373 
L 194.509552 208.625099 
L 185.793506 200.074023 
L 177.569988 190.984405 
L 169.823836 181.390867 
L 162.537457 171.342595 
L 155.69163 160.904234 
L 149.26615 150.156417 
L 143.240326 139.195864 
L 137.59338 128.135019 
L 132.304738 117.101186 
L 127.354257 106.235114 
L 118.390267 85.623838 
L 110.553872 67.602769 
L 107.015961 59.977537 
L 103.71058 53.483228 
L 100.623045 48.255635 
L 97.739506 44.406152 
L 95.046926 42.014855 
L 92.533047 41.124722 
L 90.186367 41.73787 
L 87.9961 43.814523 
L 85.952149 47.275052 
L 84.045065 52.004963 
L 82.266024 57.862213 
L 80.606786 64.685924 
L 79.059669 72.305467 
L 77.617522 80.548956 
L 76.273691 89.25048 
L 73.856733 107.425532 
L 71.764703 125.791589 
L 69.960127 143.593758 
L 67.725248 168.232846 
L 65.986306 189.759537 
L 64.690025 208.051 
L 63.812718 223.330014 
L 63.364295 235.959653 
L 63.326829 243.101985 
L 63.529285 249.353459 
L 64.012017 254.817654 
L 64.375245 257.28434 
L 64.830877 259.588777 
L 65.388887 261.741231 
L 66.060685 263.751379 
L 66.859263 265.628329 
L 67.799349 267.380636 
L 68.897561 269.016331 
L 70.17257 270.542938 
L 71.645258 271.967501 
L 73.33887 273.296606 
L 75.27915 274.536409 
L 77.494449 275.692649 
L 80.015802 276.770679 
L 82.876943 277.77548 
L 86.114258 278.711683 
L 89.766636 279.583585 
L 93.875213 280.395167 
L 98.482971 281.150104 
L 103.634162 281.851785 
L 109.373548 282.503318 
L 122.792342 283.667047 
L 139.06417 284.660934 
L 158.43393 285.500623 
L 181.002261 286.197808 
L 206.653758 286.760142 
L 234.988508 287.190988 
L 265.270512 287.488976 
L 311.857711 287.670326 
L 341.49615 287.592318 
L 367.926843 287.327134 
L 389.28533 286.839456 
L 397.519258 286.497801 
L 403.880441 286.081471 
L 408.233988 285.582084 
L 410.493702 284.990108 
L 410.628871 284.29475 
L 408.667657 283.483845 
L 404.696285 282.543743 
L 398.853927 281.459193 
L 382.321642 278.787143 
L 360.850622 275.310115 
L 348.86351 273.212216 
L 336.347738 270.840277 
L 323.509998 268.166256 
L 310.533464 265.160581 
L 297.575823 261.792463 
L 284.769033 258.030337 
L 272.220382 253.842444 
L 260.014395 249.197574 
L 248.215252 244.065975 
L 236.869424 238.420449 
L 226.008317 232.237603 
L 215.650791 225.499273 
L 205.805464 218.194057 
L 196.47276 210.318937 
L 187.646679 201.880923 
L 179.316305 192.898637 
L 171.467069 183.403785 
L 164.081785 173.442402 
L 157.141485 163.075822 
L 150.6261 152.381286 
L 144.514981 141.452137 
L 138.78732 130.397559 
L 133.422462 119.341815 
L 128.400139 108.422963 
L 119.304978 87.605265 
L 111.352908 69.236866 
L 107.762503 61.386453 
L 104.407936 54.635869 
L 101.274339 49.125217 
L 98.34768 44.971747 
L 95.614746 42.26281 
L 93.063111 41.049753 
L 90.681111 41.343652 
L 88.457807 43.113646 
L 86.382953 46.288311 
L 84.446963 50.76005 
L 82.640879 56.39198 
L 80.956337 63.026439 
L 79.385536 70.494072 
L 77.921211 78.622532 
L 76.556604 87.244023 
L 75.285437 96.201252 
L 73.000585 114.569693 
L 71.02522 132.798473 
L 68.567483 158.536789 
L 66.635331 181.379772 
L 65.163953 200.978221 
L 64.117322 217.446395 
L 63.490992 231.108571 
L 63.321492 238.850061 
L 63.37362 245.633195 
L 63.679693 251.566762 
L 64.285725 256.750801 
L 64.720095 259.090395 
L 65.254503 261.275772 
L 65.900029 263.316739 
L 66.669303 265.222531 
L 67.576653 267.001823 
L 68.638265 268.662762 
L 69.872339 270.212982 
L 71.299256 271.659633 
L 72.941722 273.009401 
L 74.824916 274.268535 
L 76.976605 275.442864 
L 79.427224 276.537827 
L 82.209911 277.558486 
L 85.360473 278.509548 
L 88.917262 279.395382 
L 92.920949 280.220039 
L 97.414149 280.98726 
L 102.440895 281.700498 
L 108.045916 282.362922 
L 121.167348 283.546667 
L 137.108776 284.558593 
L 156.127006 285.414786 
L 178.342279 286.127382 
L 203.666865 286.704495 
L 231.735585 287.149988 
L 261.851672 287.463048 
L 308.463864 287.669253 
L 338.350217 287.61049 
L 365.236966 287.367858 
L 387.256305 286.907295 
L 395.888327 286.581373 
L 402.683437 286.182518 
L 407.497001 285.70259 
L 410.231193 285.132327 
L 410.842415 284.461227 
L 409.345529 283.677445 
L 405.81403 282.767675 
L 400.375872 281.717035 
L 384.511969 279.125124 
L 363.495681 275.747465 
L 351.655703 273.707535 
L 339.23774 271.399641 
L 326.453309 268.796116 
L 313.491133 265.867709 
L 300.514717 262.58387 
L 287.661764 258.913161 
L 275.044972 254.823809 
L 262.753791 250.284402 
L 250.856754 245.26477 
L 239.40408 239.737034 
L 228.430338 233.676822 
L 217.956996 227.064659 
L 207.994788 219.887477 
L 198.545809 212.140223 
L 189.60536 203.8275 
L 181.163511 194.965177 
L 173.206412 185.581888 
L 165.71738 175.720339 
L 158.677781 165.438343 
L 152.067739 154.809519 
L 145.866691 143.92358 
L 140.053832 132.886182 
L 134.608445 121.818275 
L 129.510156 110.854945 
L 124.739119 100.143673 
L 108.555468 63.04978 
L 105.148744 56.036982 
L 101.966288 50.234227 
L 98.993882 45.764579 
L 96.218129 42.722741 
L 93.626426 41.168667 
L 91.206939 41.122801 
L 88.948567 42.563765 
L 86.840911 45.429037 
L 84.874236 49.618677 
L 83.039446 55.001722 
L 81.328044 61.424414 
L 79.732105 68.719244 
L 78.244244 76.713818 
L 76.857589 85.238716 
L 75.565758 94.133825 
L 73.243321 112.466561 
L 71.234737 130.750347 
L 69.504277 148.308266 
L 67.366622 172.417193 
L 65.712823 193.349278 
L 64.494898 211.067145 
L 63.694956 225.832106 
L 63.400519 234.218782 
L 63.313577 241.576846 
L 63.459282 248.019488 
L 63.87492 253.652291 
L 64.612583 258.571644 
L 65.123305 260.791253 
L 65.742492 262.86427 
L 66.482406 264.800058 
L 67.356977 266.607419 
L 68.381952 268.294617 
L 69.57506 269.869401 
L 70.95617 271.339029 
L 72.547447 272.710291 
L 74.373497 273.989534 
L 76.461488 275.18268 
L 78.841242 276.295256 
L 81.545283 277.332406 
L 84.608817 278.298918 
L 88.069635 279.199237 
L 91.967905 280.037483 
L 96.345841 280.817468 
L 101.24721 281.542709 
L 106.716658 282.216439 
L 112.798825 282.841618 
L 126.972932 283.956857 
L 144.078126 284.906959 
L 164.326598 285.706484 
L 187.766925 286.366033 
L 214.211967 286.892116 
L 243.173649 287.286852 
L 289.413312 287.625096 
L 320.24569 287.666737 
L 349.19489 287.540361 
L 374.422736 287.218267 
L 394.085368 286.661966 
L 401.313721 286.280427 
L 406.58967 285.819767 
L 409.803967 285.270991 
L 410.900142 284.623889 
L 409.879551 283.866932 
L 406.802531 282.987158 
L 401.785201 281.970054 
L 386.62602 279.457425 
L 366.1 276.178152 
L 354.423141 274.195668 
L 342.117284 271.951288 
L 329.398588 269.417738 
L 316.461265 266.566106 
L 303.474687 263.366106 
L 290.582417 259.786462 
L 277.902733 255.795419 
L 265.530201 251.361412 
L 253.537902 246.453902 
L 241.979998 241.044384 
L 230.894397 235.10757 
L 220.305341 228.622737 
L 210.225815 221.575216 
L 200.659716 213.957979 
L 191.603747 205.773282 
L 183.049043 197.034284 
L 174.982547 187.766582 
L 167.388138 178.009566 
L 160.247556 167.817528 
L 153.541154 157.260437 
L 147.248483 146.424327 
L 141.34876 135.411255 
L 135.821222 124.338761 
L 130.645397 113.338836 
L 125.801306 102.556315 
L 109.366802 64.802669 
L 105.906756 57.533067 
L 102.674346 51.442179 
L 99.65516 46.658551 
L 96.835617 43.283971 
L 94.202935 41.386822 
L 91.745107 40.996875 
L 89.450867 42.102358 
L 87.309658 44.649923 
L 85.311598 48.547699 
L 83.447447 53.671133 
L 81.708574 59.870886 
L 80.086926 66.981786 
L 78.574996 74.831815 
L 77.165799 83.250251 
L 75.852842 92.074385 
L 73.491995 110.357172 
L 71.449482 128.686304 
L 69.688864 146.35308 
L 67.511587 170.68811 
L 65.822987 191.869132 
L 64.572892 209.825165 
L 63.740997 224.802649 
L 63.423984 233.314357 
L 63.312262 240.78416 
L 63.429742 247.325938 
L 63.812198 253.046256 
L 64.509874 258.042592 
L 64.997363 260.29709 
L 65.590731 262.402775 
L 66.301881 264.36914 
L 67.144348 266.205114 
L 68.133451 267.919082 
L 69.28645 269.518908 
L 70.622713 271.011962 
L 72.163865 272.405137 
L 73.933943 273.70488 
L 75.959518 274.917208 
L 78.269802 276.047736 
L 80.8967 277.101696 
L 80.8967 277.101696 
" style="fill:none;stroke:#2ca02c;stroke-linecap:square;stroke-width:2;"/>
   </g>
   <g id="patch_3">
    <path d="M 38.054688 305.596875 
L 38.054688 28.396875 
" style="fill:none;stroke:#000000;stroke-linecap:square;stroke-linejoin:miter;stroke-width:0.8;"/>
   </g>
   <g id="patch_4">
    <path d="M 428.654688 305.596875 
L 428.654688 28.396875 
" style="fill:none;stroke:#000000;stroke-linecap:square;stroke-linejoin:miter;stroke-width:0.8;"/>
   </g>
   <g id="patch_5">
    <path d="M 38.054688 305.596875 
L 428.654688 305.596875 
" style="fill:none;stroke:#000000;stroke-linecap:square;stroke-linejoin:miter;stroke-width:0.8;"/>
   </g>
   <g id="patch_6">
    <path d="M 38.054688 28.396875 
L 428.654688 28.396875 
" style="fill:none;stroke:#000000;stroke-linecap:square;stroke-linejoin:miter;stroke-width:0.8;"/>
   </g>
   <g id="text_13">
    <!-- Timecourse after post-processing -->
    <g transform="translate(43.576562 22.396875)scale(0.2 -0.2)">
     <defs>
      <path d="M 0.484375 72.90625 
L 67.671875 72.90625 
L 67.671875 58.6875 
L 43.5 58.6875 
L 43.5 0 
L 24.703125 0 
L 24.703125 58.6875 
L 0.484375 58.6875 
z
" id="DejaVuSans-Bold-84"/>
      <path d="M 8.40625 54.6875 
L 25.875 54.6875 
L 25.875 0 
L 8.40625 0 
z
M 8.40625 75.984375 
L 25.875 75.984375 
L 25.875 61.71875 
L 8.40625 61.71875 
z
" id="DejaVuSans-Bold-105"/>
      <path d="M 59.078125 45.609375 
Q 62.40625 50.6875 66.96875 53.34375 
Q 71.53125 56 77 56 
Q 86.421875 56 91.359375 50.1875 
Q 96.296875 44.390625 96.296875 33.296875 
L 96.296875 0 
L 78.71875 0 
L 78.71875 28.515625 
Q 78.765625 29.15625 78.78125 29.828125 
Q 78.8125 30.515625 78.8125 31.78125 
Q 78.8125 37.59375 77.09375 40.203125 
Q 75.390625 42.828125 71.578125 42.828125 
Q 66.609375 42.828125 63.890625 38.71875 
Q 61.1875 34.625 61.078125 26.859375 
L 61.078125 0 
L 43.5 0 
L 43.5 28.515625 
Q 43.5 37.59375 41.9375 40.203125 
Q 40.375 42.828125 36.375 42.828125 
Q 31.34375 42.828125 28.609375 38.703125 
Q 25.875 34.578125 25.875 26.90625 
L 25.875 0 
L 8.296875 0 
L 8.296875 54.6875 
L 25.875 54.6875 
L 25.875 46.6875 
Q 29.109375 51.3125 33.28125 53.65625 
Q 37.453125 56 42.484375 56 
Q 48.140625 56 52.484375 53.265625 
Q 56.84375 50.53125 59.078125 45.609375 
z
" id="DejaVuSans-Bold-109"/>
      <path d="M 62.984375 27.484375 
L 62.984375 22.515625 
L 22.125 22.515625 
Q 22.75 16.359375 26.5625 13.28125 
Q 30.375 10.203125 37.203125 10.203125 
Q 42.71875 10.203125 48.5 11.84375 
Q 54.296875 13.484375 60.40625 16.796875 
L 60.40625 3.328125 
Q 54.203125 0.984375 48 -0.21875 
Q 41.796875 -1.421875 35.59375 -1.421875 
Q 20.75 -1.421875 12.515625 6.125 
Q 4.296875 13.671875 4.296875 27.296875 
Q 4.296875 40.671875 12.375 48.328125 
Q 20.453125 56 34.625 56 
Q 47.515625 56 55.25 48.234375 
Q 62.984375 40.484375 62.984375 27.484375 
z
M 45.015625 33.296875 
Q 45.015625 38.28125 42.109375 41.328125 
Q 39.203125 44.390625 34.515625 44.390625 
Q 29.4375 44.390625 26.265625 41.53125 
Q 23.09375 38.671875 22.3125 33.296875 
z
" id="DejaVuSans-Bold-101"/>
      <path d="M 52.59375 52.984375 
L 52.59375 38.71875 
Q 49.03125 41.15625 45.4375 42.328125 
Q 41.84375 43.5 37.984375 43.5 
Q 30.671875 43.5 26.59375 39.234375 
Q 22.515625 34.96875 22.515625 27.296875 
Q 22.515625 19.625 26.59375 15.34375 
Q 30.671875 11.078125 37.984375 11.078125 
Q 42.09375 11.078125 45.78125 12.296875 
Q 49.46875 13.53125 52.59375 15.921875 
L 52.59375 1.609375 
Q 48.484375 0.09375 44.265625 -0.65625 
Q 40.046875 -1.421875 35.796875 -1.421875 
Q 21 -1.421875 12.640625 6.171875 
Q 4.296875 13.765625 4.296875 27.296875 
Q 4.296875 40.828125 12.640625 48.40625 
Q 21 56 35.796875 56 
Q 40.09375 56 44.265625 55.25 
Q 48.4375 54.5 52.59375 52.984375 
z
" id="DejaVuSans-Bold-99"/>
      <path d="M 34.421875 43.5 
Q 28.609375 43.5 25.5625 39.328125 
Q 22.515625 35.15625 22.515625 27.296875 
Q 22.515625 19.4375 25.5625 15.25 
Q 28.609375 11.078125 34.421875 11.078125 
Q 40.140625 11.078125 43.15625 15.25 
Q 46.1875 19.4375 46.1875 27.296875 
Q 46.1875 35.15625 43.15625 39.328125 
Q 40.140625 43.5 34.421875 43.5 
z
M 34.421875 56 
Q 48.53125 56 56.46875 48.375 
Q 64.40625 40.765625 64.40625 27.296875 
Q 64.40625 13.8125 56.46875 6.1875 
Q 48.53125 -1.421875 34.421875 -1.421875 
Q 20.265625 -1.421875 12.28125 6.1875 
Q 4.296875 13.8125 4.296875 27.296875 
Q 4.296875 40.765625 12.28125 48.375 
Q 20.265625 56 34.421875 56 
z
" id="DejaVuSans-Bold-111"/>
      <path d="M 7.8125 21.296875 
L 7.8125 54.6875 
L 25.390625 54.6875 
L 25.390625 49.21875 
Q 25.390625 44.78125 25.34375 38.0625 
Q 25.296875 31.34375 25.296875 29.109375 
Q 25.296875 22.515625 25.640625 19.609375 
Q 25.984375 16.703125 26.8125 15.375 
Q 27.875 13.671875 29.609375 12.734375 
Q 31.34375 11.8125 33.59375 11.8125 
Q 39.0625 11.8125 42.1875 16.015625 
Q 45.3125 20.21875 45.3125 27.6875 
L 45.3125 54.6875 
L 62.796875 54.6875 
L 62.796875 0 
L 45.3125 0 
L 45.3125 7.90625 
Q 41.359375 3.125 36.9375 0.84375 
Q 32.515625 -1.421875 27.203125 -1.421875 
Q 17.71875 -1.421875 12.765625 4.390625 
Q 7.8125 10.203125 7.8125 21.296875 
z
" id="DejaVuSans-Bold-117"/>
      <path d="M 49.03125 39.796875 
Q 46.734375 40.875 44.453125 41.375 
Q 42.1875 41.890625 39.890625 41.890625 
Q 33.15625 41.890625 29.515625 37.5625 
Q 25.875 33.25 25.875 25.203125 
L 25.875 0 
L 8.40625 0 
L 8.40625 54.6875 
L 25.875 54.6875 
L 25.875 45.703125 
Q 29.25 51.078125 33.609375 53.53125 
Q 37.984375 56 44.09375 56 
Q 44.96875 56 45.984375 55.921875 
Q 47.015625 55.859375 48.96875 55.609375 
z
" id="DejaVuSans-Bold-114"/>
      <path d="M 51.125 52.984375 
L 51.125 39.703125 
Q 45.515625 42.046875 40.28125 43.21875 
Q 35.0625 44.390625 30.421875 44.390625 
Q 25.4375 44.390625 23.015625 43.140625 
Q 20.609375 41.890625 20.609375 39.3125 
Q 20.609375 37.203125 22.4375 36.078125 
Q 24.265625 34.96875 29 34.421875 
L 32.078125 33.984375 
Q 45.515625 32.28125 50.140625 28.375 
Q 54.78125 24.46875 54.78125 16.109375 
Q 54.78125 7.375 48.328125 2.96875 
Q 41.890625 -1.421875 29.109375 -1.421875 
Q 23.6875 -1.421875 17.890625 -0.5625 
Q 12.109375 0.296875 6 2 
L 6 15.28125 
Q 11.234375 12.75 16.71875 11.46875 
Q 22.21875 10.203125 27.875 10.203125 
Q 33.015625 10.203125 35.59375 11.609375 
Q 38.1875 13.03125 38.1875 15.828125 
Q 38.1875 18.171875 36.40625 19.3125 
Q 34.625 20.453125 29.296875 21.09375 
L 26.21875 21.484375 
Q 14.546875 22.953125 9.859375 26.90625 
Q 5.171875 30.859375 5.171875 38.921875 
Q 5.171875 47.609375 11.125 51.796875 
Q 17.09375 56 29.390625 56 
Q 34.234375 56 39.546875 55.265625 
Q 44.875 54.546875 51.125 52.984375 
z
" id="DejaVuSans-Bold-115"/>
      <path id="DejaVuSans-Bold-32"/>
      <path d="M 32.90625 24.609375 
Q 27.4375 24.609375 24.671875 22.75 
Q 21.921875 20.90625 21.921875 17.28125 
Q 21.921875 13.96875 24.140625 12.078125 
Q 26.375 10.203125 30.328125 10.203125 
Q 35.25 10.203125 38.625 13.734375 
Q 42 17.28125 42 22.609375 
L 42 24.609375 
z
M 59.625 31.203125 
L 59.625 0 
L 42 0 
L 42 8.109375 
Q 38.484375 3.125 34.078125 0.84375 
Q 29.6875 -1.421875 23.390625 -1.421875 
Q 14.890625 -1.421875 9.59375 3.53125 
Q 4.296875 8.5 4.296875 16.40625 
Q 4.296875 26.03125 10.90625 30.515625 
Q 17.53125 35.015625 31.6875 35.015625 
L 42 35.015625 
L 42 36.375 
Q 42 40.53125 38.71875 42.453125 
Q 35.453125 44.390625 28.515625 44.390625 
Q 22.90625 44.390625 18.0625 43.265625 
Q 13.234375 42.140625 9.078125 39.890625 
L 9.078125 53.21875 
Q 14.703125 54.59375 20.359375 55.296875 
Q 26.03125 56 31.6875 56 
Q 46.484375 56 53.046875 50.171875 
Q 59.625 44.34375 59.625 31.203125 
z
" id="DejaVuSans-Bold-97"/>
      <path d="M 44.390625 75.984375 
L 44.390625 64.5 
L 34.71875 64.5 
Q 31 64.5 29.53125 63.15625 
Q 28.078125 61.8125 28.078125 58.5 
L 28.078125 54.6875 
L 43.015625 54.6875 
L 43.015625 42.1875 
L 28.078125 42.1875 
L 28.078125 0 
L 10.59375 0 
L 10.59375 42.1875 
L 1.90625 42.1875 
L 1.90625 54.6875 
L 10.59375 54.6875 
L 10.59375 58.5 
Q 10.59375 67.4375 15.578125 71.703125 
Q 20.5625 75.984375 31 75.984375 
z
" id="DejaVuSans-Bold-102"/>
      <path d="M 27.484375 70.21875 
L 27.484375 54.6875 
L 45.515625 54.6875 
L 45.515625 42.1875 
L 27.484375 42.1875 
L 27.484375 19 
Q 27.484375 15.1875 29 13.84375 
Q 30.515625 12.5 35.015625 12.5 
L 44 12.5 
L 44 0 
L 29 0 
Q 18.65625 0 14.328125 4.3125 
Q 10.015625 8.640625 10.015625 19 
L 10.015625 42.1875 
L 1.3125 42.1875 
L 1.3125 54.6875 
L 10.015625 54.6875 
L 10.015625 70.21875 
z
" id="DejaVuSans-Bold-116"/>
      <path d="M 25.875 7.90625 
L 25.875 -20.796875 
L 8.40625 -20.796875 
L 8.40625 54.6875 
L 25.875 54.6875 
L 25.875 46.6875 
Q 29.5 51.46875 33.890625 53.734375 
Q 38.28125 56 44 56 
Q 54.109375 56 60.59375 47.96875 
Q 67.09375 39.9375 67.09375 27.296875 
Q 67.09375 14.65625 60.59375 6.609375 
Q 54.109375 -1.421875 44 -1.421875 
Q 38.28125 -1.421875 33.890625 0.84375 
Q 29.5 3.125 25.875 7.90625 
z
M 37.5 43.3125 
Q 31.890625 43.3125 28.875 39.1875 
Q 25.875 35.0625 25.875 27.296875 
Q 25.875 19.53125 28.875 15.40625 
Q 31.890625 11.28125 37.5 11.28125 
Q 43.109375 11.28125 46.0625 15.375 
Q 49.03125 19.484375 49.03125 27.296875 
Q 49.03125 35.109375 46.0625 39.203125 
Q 43.109375 43.3125 37.5 43.3125 
z
" id="DejaVuSans-Bold-112"/>
      <path d="M 5.421875 35.890625 
L 36.078125 35.890625 
L 36.078125 21.6875 
L 5.421875 21.6875 
z
" id="DejaVuSans-Bold-45"/>
      <path d="M 63.375 33.296875 
L 63.375 0 
L 45.796875 0 
L 45.796875 5.421875 
L 45.796875 25.484375 
Q 45.796875 32.5625 45.484375 35.25 
Q 45.171875 37.9375 44.390625 39.203125 
Q 43.359375 40.921875 41.59375 41.875 
Q 39.84375 42.828125 37.59375 42.828125 
Q 32.125 42.828125 29 38.59375 
Q 25.875 34.375 25.875 26.90625 
L 25.875 0 
L 8.40625 0 
L 8.40625 54.6875 
L 25.875 54.6875 
L 25.875 46.6875 
Q 29.828125 51.46875 34.265625 53.734375 
Q 38.71875 56 44.09375 56 
Q 53.5625 56 58.46875 50.1875 
Q 63.375 44.390625 63.375 33.296875 
z
" id="DejaVuSans-Bold-110"/>
      <path d="M 45.609375 9.28125 
Q 42 4.5 37.640625 2.25 
Q 33.296875 0 27.59375 0 
Q 17.578125 0 11.03125 7.875 
Q 4.5 15.765625 4.5 27.984375 
Q 4.5 40.234375 11.03125 48.0625 
Q 17.578125 55.90625 27.59375 55.90625 
Q 33.296875 55.90625 37.640625 53.65625 
Q 42 51.421875 45.609375 46.578125 
L 45.609375 54.6875 
L 63.1875 54.6875 
L 63.1875 5.515625 
Q 63.1875 -7.671875 54.859375 -14.625 
Q 46.53125 -21.578125 30.71875 -21.578125 
Q 25.59375 -21.578125 20.796875 -20.796875 
Q 16.015625 -20.015625 11.1875 -18.40625 
L 11.1875 -4.78125 
Q 15.765625 -7.421875 20.15625 -8.71875 
Q 24.5625 -10.015625 29 -10.015625 
Q 37.59375 -10.015625 41.59375 -6.25 
Q 45.609375 -2.484375 45.609375 5.515625 
z
M 34.078125 43.3125 
Q 28.65625 43.3125 25.625 39.296875 
Q 22.609375 35.296875 22.609375 27.984375 
Q 22.609375 20.453125 25.53125 16.578125 
Q 28.46875 12.703125 34.078125 12.703125 
Q 39.546875 12.703125 42.578125 16.703125 
Q 45.609375 20.703125 45.609375 27.984375 
Q 45.609375 35.296875 42.578125 39.296875 
Q 39.546875 43.3125 34.078125 43.3125 
z
" id="DejaVuSans-Bold-103"/>
     </defs>
     <use xlink:href="#DejaVuSans-Bold-84"/>
     <use x="68.212891" xlink:href="#DejaVuSans-Bold-105"/>
     <use x="102.490234" xlink:href="#DejaVuSans-Bold-109"/>
     <use x="206.689453" xlink:href="#DejaVuSans-Bold-101"/>
     <use x="274.511719" xlink:href="#DejaVuSans-Bold-99"/>
     <use x="333.789062" xlink:href="#DejaVuSans-Bold-111"/>
     <use x="402.490234" xlink:href="#DejaVuSans-Bold-117"/>
     <use x="473.681641" xlink:href="#DejaVuSans-Bold-114"/>
     <use x="522.998047" xlink:href="#DejaVuSans-Bold-115"/>
     <use x="582.519531" xlink:href="#DejaVuSans-Bold-101"/>
     <use x="650.341797" xlink:href="#DejaVuSans-Bold-32"/>
     <use x="685.15625" xlink:href="#DejaVuSans-Bold-97"/>
     <use x="752.636719" xlink:href="#DejaVuSans-Bold-102"/>
     <use x="796.142578" xlink:href="#DejaVuSans-Bold-116"/>
     <use x="843.945312" xlink:href="#DejaVuSans-Bold-101"/>
     <use x="911.767578" xlink:href="#DejaVuSans-Bold-114"/>
     <use x="961.083984" xlink:href="#DejaVuSans-Bold-32"/>
     <use x="995.898438" xlink:href="#DejaVuSans-Bold-112"/>
     <use x="1067.480469" xlink:href="#DejaVuSans-Bold-111"/>
     <use x="1136.181641" xlink:href="#DejaVuSans-Bold-115"/>
     <use x="1195.703125" xlink:href="#DejaVuSans-Bold-116"/>
     <use x="1243.505859" xlink:href="#DejaVuSans-Bold-45"/>
     <use x="1285.009766" xlink:href="#DejaVuSans-Bold-112"/>
     <use x="1356.591797" xlink:href="#DejaVuSans-Bold-114"/>
     <use x="1405.908203" xlink:href="#DejaVuSans-Bold-111"/>
     <use x="1474.609375" xlink:href="#DejaVuSans-Bold-99"/>
     <use x="1533.886719" xlink:href="#DejaVuSans-Bold-101"/>
     <use x="1601.708984" xlink:href="#DejaVuSans-Bold-115"/>
     <use x="1661.230469" xlink:href="#DejaVuSans-Bold-115"/>
     <use x="1720.751953" xlink:href="#DejaVuSans-Bold-105"/>
     <use x="1755.029297" xlink:href="#DejaVuSans-Bold-110"/>
     <use x="1826.220703" xlink:href="#DejaVuSans-Bold-103"/>
    </g>
   </g>
   <g id="legend_1">
    <g id="patch_7">
     <path d="M 361.211094 96.041562 
L 419.554688 96.041562 
Q 422.154688 96.041562 422.154688 93.441563 
L 422.154688 37.496875 
Q 422.154688 34.896875 419.554688 34.896875 
L 361.211094 34.896875 
Q 358.611094 34.896875 358.611094 37.496875 
L 358.611094 93.441563 
Q 358.611094 96.041562 361.211094 96.041562 
z
" style="fill:#ffffff;opacity:0.8;stroke:#cccccc;stroke-linejoin:miter;"/>
    </g>
    <g id="line2d_16">
     <path d="M 363.811094 45.424844 
L 389.811094 45.424844 
" style="fill:none;stroke:#1f77b4;stroke-linecap:square;stroke-width:2;"/>
    </g>
    <g id="line2d_17"/>
    <g id="text_14">
     <!-- PZ -->
     <g transform="translate(400.211094 49.974844)scale(0.13 -0.13)">
      <defs>
       <path d="M 19.671875 64.796875 
L 19.671875 37.40625 
L 32.078125 37.40625 
Q 38.96875 37.40625 42.71875 40.96875 
Q 46.484375 44.53125 46.484375 51.125 
Q 46.484375 57.671875 42.71875 61.234375 
Q 38.96875 64.796875 32.078125 64.796875 
z
M 9.8125 72.90625 
L 32.078125 72.90625 
Q 44.34375 72.90625 50.609375 67.359375 
Q 56.890625 61.8125 56.890625 51.125 
Q 56.890625 40.328125 50.609375 34.8125 
Q 44.34375 29.296875 32.078125 29.296875 
L 19.671875 29.296875 
L 19.671875 0 
L 9.8125 0 
z
" id="DejaVuSans-80"/>
       <path d="M 5.609375 72.90625 
L 62.890625 72.90625 
L 62.890625 65.375 
L 16.796875 8.296875 
L 64.015625 8.296875 
L 64.015625 0 
L 4.5 0 
L 4.5 7.515625 
L 50.59375 64.59375 
L 5.609375 64.59375 
z
" id="DejaVuSans-90"/>
      </defs>
      <use xlink:href="#DejaVuSans-80"/>
      <use x="60.302734" xlink:href="#DejaVuSans-90"/>
     </g>
    </g>
    <g id="line2d_18">
     <path d="M 363.811094 64.506406 
L 389.811094 64.506406 
" style="fill:none;stroke:#ff7f0e;stroke-linecap:square;stroke-width:2;"/>
    </g>
    <g id="line2d_19"/>
    <g id="text_15">
     <!-- PX -->
     <g transform="translate(400.211094 69.056406)scale(0.13 -0.13)">
      <defs>
       <path d="M 6.296875 72.90625 
L 16.890625 72.90625 
L 35.015625 45.796875 
L 53.21875 72.90625 
L 63.8125 72.90625 
L 40.375 37.890625 
L 65.375 0 
L 54.78125 0 
L 34.28125 31 
L 13.625 0 
L 2.984375 0 
L 29 38.921875 
z
" id="DejaVuSans-88"/>
      </defs>
      <use xlink:href="#DejaVuSans-80"/>
      <use x="60.302734" xlink:href="#DejaVuSans-88"/>
     </g>
    </g>
    <g id="line2d_20">
     <path d="M 363.811094 83.587969 
L 389.811094 83.587969 
" style="fill:none;stroke:#2ca02c;stroke-linecap:square;stroke-width:2;"/>
    </g>
    <g id="line2d_21"/>
    <g id="text_16">
     <!-- PY -->
     <g transform="translate(400.211094 88.137969)scale(0.13 -0.13)">
      <defs>
       <path d="M -0.203125 72.90625 
L 10.40625 72.90625 
L 30.609375 42.921875 
L 50.6875 72.90625 
L 61.28125 72.90625 
L 35.5 34.71875 
L 35.5 0 
L 25.59375 0 
L 25.59375 34.71875 
z
" id="DejaVuSans-89"/>
      </defs>
      <use xlink:href="#DejaVuSans-80"/>
      <use x="58.052734" xlink:href="#DejaVuSans-89"/>
     </g>
    </g>
   </g>
  </g>
 </g>
 <defs>
  <clipPath id="p9ced91cb00">
   <rect height="277.2" width="390.6" x="38.054688" y="28.396875"/>
  </clipPath>
 </defs>
</svg>
