<?xml version="1.0" encoding="utf-8" standalone="no"?>
<!DOCTYPE svg PUBLIC "-//W3C//DTD SVG 1.1//EN"
  "http://www.w3.org/Graphics/SVG/1.1/DTD/svg11.dtd">
<!-- Created with matplotlib (https://matplotlib.org/) -->
<svg height="709.625937pt" version="1.1" viewBox="0 0 712.363125 709.625937" width="712.363125pt" xmlns="http://www.w3.org/2000/svg" xmlns:xlink="http://www.w3.org/1999/xlink">
 <defs>
  <style type="text/css">
*{stroke-linecap:butt;stroke-linejoin:round;}
  </style>
 </defs>
 <g id="figure_1">
  <g id="patch_1">
   <path d="M 0 709.625937 
L 712.363125 709.625937 
L 712.363125 0 
L 0 0 
z
" style="fill:#ffffff;"/>
  </g>
  <g id="axes_1">
   <g id="patch_2">
    <path d="M 104.763125 668.198437 
L 705.163125 668.198437 
L 705.163125 20.798437 
L 104.763125 20.798437 
z
" style="fill:#ffffff;"/>
   </g>
   <g id="matplotlib.axis_1">
    <g id="xtick_1">
     <g id="line2d_1">
      <defs>
       <path d="M 0 0 
L 0 3.5 
" id="mf5e6c0119d" style="stroke:#000000;stroke-width:0.8;"/>
      </defs>
      <g>
       <use style="stroke:#000000;stroke-width:0.8;" x="132.054034" xlink:href="#mf5e6c0119d" y="668.198437"/>
      </g>
     </g>
     <g id="text_1">
      <!-- 0 -->
      <defs>
       <path d="M 31.78125 66.40625 
Q 24.171875 66.40625 20.328125 58.90625 
Q 16.5 51.421875 16.5 36.375 
Q 16.5 21.390625 20.328125 13.890625 
Q 24.171875 6.390625 31.78125 6.390625 
Q 39.453125 6.390625 43.28125 13.890625 
Q 47.125 21.390625 47.125 36.375 
Q 47.125 51.421875 43.28125 58.90625 
Q 39.453125 66.40625 31.78125 66.40625 
z
M 31.78125 74.21875 
Q 44.046875 74.21875 50.515625 64.515625 
Q 56.984375 54.828125 56.984375 36.375 
Q 56.984375 17.96875 50.515625 8.265625 
Q 44.046875 -1.421875 31.78125 -1.421875 
Q 19.53125 -1.421875 13.0625 8.265625 
Q 6.59375 17.96875 6.59375 36.375 
Q 6.59375 54.828125 13.0625 64.515625 
Q 19.53125 74.21875 31.78125 74.21875 
z
" id="DejaVuSans-48"/>
      </defs>
      <g transform="translate(128.236534 684.316562)scale(0.12 -0.12)">
       <use xlink:href="#DejaVuSans-48"/>
      </g>
     </g>
    </g>
    <g id="xtick_2">
     <g id="line2d_2">
      <g>
       <use style="stroke:#000000;stroke-width:0.8;" x="242.320333" xlink:href="#mf5e6c0119d" y="668.198437"/>
      </g>
     </g>
     <g id="text_2">
      <!-- 20 -->
      <defs>
       <path d="M 19.1875 8.296875 
L 53.609375 8.296875 
L 53.609375 0 
L 7.328125 0 
L 7.328125 8.296875 
Q 12.9375 14.109375 22.625 23.890625 
Q 32.328125 33.6875 34.8125 36.53125 
Q 39.546875 41.84375 41.421875 45.53125 
Q 43.3125 49.21875 43.3125 52.78125 
Q 43.3125 58.59375 39.234375 62.25 
Q 35.15625 65.921875 28.609375 65.921875 
Q 23.96875 65.921875 18.8125 64.3125 
Q 13.671875 62.703125 7.8125 59.421875 
L 7.8125 69.390625 
Q 13.765625 71.78125 18.9375 73 
Q 24.125 74.21875 28.421875 74.21875 
Q 39.75 74.21875 46.484375 68.546875 
Q 53.21875 62.890625 53.21875 53.421875 
Q 53.21875 48.921875 51.53125 44.890625 
Q 49.859375 40.875 45.40625 35.40625 
Q 44.1875 33.984375 37.640625 27.21875 
Q 31.109375 20.453125 19.1875 8.296875 
z
" id="DejaVuSans-50"/>
      </defs>
      <g transform="translate(234.685333 684.316562)scale(0.12 -0.12)">
       <use xlink:href="#DejaVuSans-50"/>
       <use x="63.623047" xlink:href="#DejaVuSans-48"/>
      </g>
     </g>
    </g>
    <g id="xtick_3">
     <g id="line2d_3">
      <g>
       <use style="stroke:#000000;stroke-width:0.8;" x="352.586633" xlink:href="#mf5e6c0119d" y="668.198437"/>
      </g>
     </g>
     <g id="text_3">
      <!-- 40 -->
      <defs>
       <path d="M 37.796875 64.3125 
L 12.890625 25.390625 
L 37.796875 25.390625 
z
M 35.203125 72.90625 
L 47.609375 72.90625 
L 47.609375 25.390625 
L 58.015625 25.390625 
L 58.015625 17.1875 
L 47.609375 17.1875 
L 47.609375 0 
L 37.796875 0 
L 37.796875 17.1875 
L 4.890625 17.1875 
L 4.890625 26.703125 
z
" id="DejaVuSans-52"/>
      </defs>
      <g transform="translate(344.951633 684.316562)scale(0.12 -0.12)">
       <use xlink:href="#DejaVuSans-52"/>
       <use x="63.623047" xlink:href="#DejaVuSans-48"/>
      </g>
     </g>
    </g>
    <g id="xtick_4">
     <g id="line2d_4">
      <g>
       <use style="stroke:#000000;stroke-width:0.8;" x="462.852932" xlink:href="#mf5e6c0119d" y="668.198437"/>
      </g>
     </g>
     <g id="text_4">
      <!-- 60 -->
      <defs>
       <path d="M 33.015625 40.375 
Q 26.375 40.375 22.484375 35.828125 
Q 18.609375 31.296875 18.609375 23.390625 
Q 18.609375 15.53125 22.484375 10.953125 
Q 26.375 6.390625 33.015625 6.390625 
Q 39.65625 6.390625 43.53125 10.953125 
Q 47.40625 15.53125 47.40625 23.390625 
Q 47.40625 31.296875 43.53125 35.828125 
Q 39.65625 40.375 33.015625 40.375 
z
M 52.59375 71.296875 
L 52.59375 62.3125 
Q 48.875 64.0625 45.09375 64.984375 
Q 41.3125 65.921875 37.59375 65.921875 
Q 27.828125 65.921875 22.671875 59.328125 
Q 17.53125 52.734375 16.796875 39.40625 
Q 19.671875 43.65625 24.015625 45.921875 
Q 28.375 48.1875 33.59375 48.1875 
Q 44.578125 48.1875 50.953125 41.515625 
Q 57.328125 34.859375 57.328125 23.390625 
Q 57.328125 12.15625 50.6875 5.359375 
Q 44.046875 -1.421875 33.015625 -1.421875 
Q 20.359375 -1.421875 13.671875 8.265625 
Q 6.984375 17.96875 6.984375 36.375 
Q 6.984375 53.65625 15.1875 63.9375 
Q 23.390625 74.21875 37.203125 74.21875 
Q 40.921875 74.21875 44.703125 73.484375 
Q 48.484375 72.75 52.59375 71.296875 
z
" id="DejaVuSans-54"/>
      </defs>
      <g transform="translate(455.217932 684.316562)scale(0.12 -0.12)">
       <use xlink:href="#DejaVuSans-54"/>
       <use x="63.623047" xlink:href="#DejaVuSans-48"/>
      </g>
     </g>
    </g>
    <g id="xtick_5">
     <g id="line2d_5">
      <g>
       <use style="stroke:#000000;stroke-width:0.8;" x="573.119232" xlink:href="#mf5e6c0119d" y="668.198437"/>
      </g>
     </g>
     <g id="text_5">
      <!-- 80 -->
      <defs>
       <path d="M 31.78125 34.625 
Q 24.75 34.625 20.71875 30.859375 
Q 16.703125 27.09375 16.703125 20.515625 
Q 16.703125 13.921875 20.71875 10.15625 
Q 24.75 6.390625 31.78125 6.390625 
Q 38.8125 6.390625 42.859375 10.171875 
Q 46.921875 13.96875 46.921875 20.515625 
Q 46.921875 27.09375 42.890625 30.859375 
Q 38.875 34.625 31.78125 34.625 
z
M 21.921875 38.8125 
Q 15.578125 40.375 12.03125 44.71875 
Q 8.5 49.078125 8.5 55.328125 
Q 8.5 64.0625 14.71875 69.140625 
Q 20.953125 74.21875 31.78125 74.21875 
Q 42.671875 74.21875 48.875 69.140625 
Q 55.078125 64.0625 55.078125 55.328125 
Q 55.078125 49.078125 51.53125 44.71875 
Q 48 40.375 41.703125 38.8125 
Q 48.828125 37.15625 52.796875 32.3125 
Q 56.78125 27.484375 56.78125 20.515625 
Q 56.78125 9.90625 50.3125 4.234375 
Q 43.84375 -1.421875 31.78125 -1.421875 
Q 19.734375 -1.421875 13.25 4.234375 
Q 6.78125 9.90625 6.78125 20.515625 
Q 6.78125 27.484375 10.78125 32.3125 
Q 14.796875 37.15625 21.921875 38.8125 
z
M 18.3125 54.390625 
Q 18.3125 48.734375 21.84375 45.5625 
Q 25.390625 42.390625 31.78125 42.390625 
Q 38.140625 42.390625 41.71875 45.5625 
Q 45.3125 48.734375 45.3125 54.390625 
Q 45.3125 60.0625 41.71875 63.234375 
Q 38.140625 66.40625 31.78125 66.40625 
Q 25.390625 66.40625 21.84375 63.234375 
Q 18.3125 60.0625 18.3125 54.390625 
z
" id="DejaVuSans-56"/>
      </defs>
      <g transform="translate(565.484232 684.316562)scale(0.12 -0.12)">
       <use xlink:href="#DejaVuSans-56"/>
       <use x="63.623047" xlink:href="#DejaVuSans-48"/>
      </g>
     </g>
    </g>
    <g id="xtick_6">
     <g id="line2d_6">
      <g>
       <use style="stroke:#000000;stroke-width:0.8;" x="683.385531" xlink:href="#mf5e6c0119d" y="668.198437"/>
      </g>
     </g>
     <g id="text_6">
      <!-- 100 -->
      <defs>
       <path d="M 12.40625 8.296875 
L 28.515625 8.296875 
L 28.515625 63.921875 
L 10.984375 60.40625 
L 10.984375 69.390625 
L 28.421875 72.90625 
L 38.28125 72.90625 
L 38.28125 8.296875 
L 54.390625 8.296875 
L 54.390625 0 
L 12.40625 0 
z
" id="DejaVuSans-49"/>
      </defs>
      <g transform="translate(671.933031 684.316562)scale(0.12 -0.12)">
       <use xlink:href="#DejaVuSans-49"/>
       <use x="63.623047" xlink:href="#DejaVuSans-48"/>
       <use x="127.246094" xlink:href="#DejaVuSans-48"/>
      </g>
     </g>
    </g>
    <g id="text_7">
     <!-- index (Ordered optimizer run) -->
     <defs>
      <path d="M 8.40625 54.6875 
L 25.875 54.6875 
L 25.875 0 
L 8.40625 0 
z
M 8.40625 75.984375 
L 25.875 75.984375 
L 25.875 61.71875 
L 8.40625 61.71875 
z
" id="DejaVuSans-Bold-105"/>
      <path d="M 63.375 33.296875 
L 63.375 0 
L 45.796875 0 
L 45.796875 5.421875 
L 45.796875 25.484375 
Q 45.796875 32.5625 45.484375 35.25 
Q 45.171875 37.9375 44.390625 39.203125 
Q 43.359375 40.921875 41.59375 41.875 
Q 39.84375 42.828125 37.59375 42.828125 
Q 32.125 42.828125 29 38.59375 
Q 25.875 34.375 25.875 26.90625 
L 25.875 0 
L 8.40625 0 
L 8.40625 54.6875 
L 25.875 54.6875 
L 25.875 46.6875 
Q 29.828125 51.46875 34.265625 53.734375 
Q 38.71875 56 44.09375 56 
Q 53.5625 56 58.46875 50.1875 
Q 63.375 44.390625 63.375 33.296875 
z
" id="DejaVuSans-Bold-110"/>
      <path d="M 45.609375 46.6875 
L 45.609375 75.984375 
L 63.1875 75.984375 
L 63.1875 0 
L 45.609375 0 
L 45.609375 7.90625 
Q 42 3.078125 37.640625 0.828125 
Q 33.296875 -1.421875 27.59375 -1.421875 
Q 17.484375 -1.421875 10.984375 6.609375 
Q 4.5 14.65625 4.5 27.296875 
Q 4.5 39.9375 10.984375 47.96875 
Q 17.484375 56 27.59375 56 
Q 33.25 56 37.625 53.734375 
Q 42 51.46875 45.609375 46.6875 
z
M 34.078125 11.28125 
Q 39.703125 11.28125 42.65625 15.375 
Q 45.609375 19.484375 45.609375 27.296875 
Q 45.609375 35.109375 42.65625 39.203125 
Q 39.703125 43.3125 34.078125 43.3125 
Q 28.515625 43.3125 25.5625 39.203125 
Q 22.609375 35.109375 22.609375 27.296875 
Q 22.609375 19.484375 25.5625 15.375 
Q 28.515625 11.28125 34.078125 11.28125 
z
" id="DejaVuSans-Bold-100"/>
      <path d="M 62.984375 27.484375 
L 62.984375 22.515625 
L 22.125 22.515625 
Q 22.75 16.359375 26.5625 13.28125 
Q 30.375 10.203125 37.203125 10.203125 
Q 42.71875 10.203125 48.5 11.84375 
Q 54.296875 13.484375 60.40625 16.796875 
L 60.40625 3.328125 
Q 54.203125 0.984375 48 -0.21875 
Q 41.796875 -1.421875 35.59375 -1.421875 
Q 20.75 -1.421875 12.515625 6.125 
Q 4.296875 13.671875 4.296875 27.296875 
Q 4.296875 40.671875 12.375 48.328125 
Q 20.453125 56 34.625 56 
Q 47.515625 56 55.25 48.234375 
Q 62.984375 40.484375 62.984375 27.484375 
z
M 45.015625 33.296875 
Q 45.015625 38.28125 42.109375 41.328125 
Q 39.203125 44.390625 34.515625 44.390625 
Q 29.4375 44.390625 26.265625 41.53125 
Q 23.09375 38.671875 22.3125 33.296875 
z
" id="DejaVuSans-Bold-101"/>
      <path d="M 22.21875 27.984375 
L 2.484375 54.6875 
L 21 54.6875 
L 32.171875 38.484375 
L 43.5 54.6875 
L 62.015625 54.6875 
L 42.28125 28.078125 
L 62.984375 0 
L 44.484375 0 
L 32.171875 17.28125 
L 20.015625 0 
L 1.515625 0 
z
" id="DejaVuSans-Bold-120"/>
      <path id="DejaVuSans-Bold-32"/>
      <path d="M 37.703125 -13.1875 
L 23.1875 -13.1875 
Q 15.71875 -1.125 12.15625 9.734375 
Q 8.59375 20.609375 8.59375 31.296875 
Q 8.59375 42 12.171875 52.953125 
Q 15.765625 63.921875 23.1875 75.875 
L 37.703125 75.875 
Q 31.453125 64.3125 28.328125 53.25 
Q 25.203125 42.1875 25.203125 31.390625 
Q 25.203125 20.609375 28.296875 9.515625 
Q 31.390625 -1.5625 37.703125 -13.1875 
z
" id="DejaVuSans-Bold-40"/>
      <path d="M 42.484375 60.59375 
Q 33.890625 60.59375 29.15625 54.25 
Q 24.421875 47.90625 24.421875 36.375 
Q 24.421875 24.90625 29.15625 18.546875 
Q 33.890625 12.203125 42.484375 12.203125 
Q 51.125 12.203125 55.859375 18.546875 
Q 60.59375 24.90625 60.59375 36.375 
Q 60.59375 47.90625 55.859375 54.25 
Q 51.125 60.59375 42.484375 60.59375 
z
M 42.484375 74.21875 
Q 60.0625 74.21875 70.015625 64.15625 
Q 79.984375 54.109375 79.984375 36.375 
Q 79.984375 18.703125 70.015625 8.640625 
Q 60.0625 -1.421875 42.484375 -1.421875 
Q 24.953125 -1.421875 14.96875 8.640625 
Q 4.984375 18.703125 4.984375 36.375 
Q 4.984375 54.109375 14.96875 64.15625 
Q 24.953125 74.21875 42.484375 74.21875 
z
" id="DejaVuSans-Bold-79"/>
      <path d="M 49.03125 39.796875 
Q 46.734375 40.875 44.453125 41.375 
Q 42.1875 41.890625 39.890625 41.890625 
Q 33.15625 41.890625 29.515625 37.5625 
Q 25.875 33.25 25.875 25.203125 
L 25.875 0 
L 8.40625 0 
L 8.40625 54.6875 
L 25.875 54.6875 
L 25.875 45.703125 
Q 29.25 51.078125 33.609375 53.53125 
Q 37.984375 56 44.09375 56 
Q 44.96875 56 45.984375 55.921875 
Q 47.015625 55.859375 48.96875 55.609375 
z
" id="DejaVuSans-Bold-114"/>
      <path d="M 34.421875 43.5 
Q 28.609375 43.5 25.5625 39.328125 
Q 22.515625 35.15625 22.515625 27.296875 
Q 22.515625 19.4375 25.5625 15.25 
Q 28.609375 11.078125 34.421875 11.078125 
Q 40.140625 11.078125 43.15625 15.25 
Q 46.1875 19.4375 46.1875 27.296875 
Q 46.1875 35.15625 43.15625 39.328125 
Q 40.140625 43.5 34.421875 43.5 
z
M 34.421875 56 
Q 48.53125 56 56.46875 48.375 
Q 64.40625 40.765625 64.40625 27.296875 
Q 64.40625 13.8125 56.46875 6.1875 
Q 48.53125 -1.421875 34.421875 -1.421875 
Q 20.265625 -1.421875 12.28125 6.1875 
Q 4.296875 13.8125 4.296875 27.296875 
Q 4.296875 40.765625 12.28125 48.375 
Q 20.265625 56 34.421875 56 
z
" id="DejaVuSans-Bold-111"/>
      <path d="M 25.875 7.90625 
L 25.875 -20.796875 
L 8.40625 -20.796875 
L 8.40625 54.6875 
L 25.875 54.6875 
L 25.875 46.6875 
Q 29.5 51.46875 33.890625 53.734375 
Q 38.28125 56 44 56 
Q 54.109375 56 60.59375 47.96875 
Q 67.09375 39.9375 67.09375 27.296875 
Q 67.09375 14.65625 60.59375 6.609375 
Q 54.109375 -1.421875 44 -1.421875 
Q 38.28125 -1.421875 33.890625 0.84375 
Q 29.5 3.125 25.875 7.90625 
z
M 37.5 43.3125 
Q 31.890625 43.3125 28.875 39.1875 
Q 25.875 35.0625 25.875 27.296875 
Q 25.875 19.53125 28.875 15.40625 
Q 31.890625 11.28125 37.5 11.28125 
Q 43.109375 11.28125 46.0625 15.375 
Q 49.03125 19.484375 49.03125 27.296875 
Q 49.03125 35.109375 46.0625 39.203125 
Q 43.109375 43.3125 37.5 43.3125 
z
" id="DejaVuSans-Bold-112"/>
      <path d="M 27.484375 70.21875 
L 27.484375 54.6875 
L 45.515625 54.6875 
L 45.515625 42.1875 
L 27.484375 42.1875 
L 27.484375 19 
Q 27.484375 15.1875 29 13.84375 
Q 30.515625 12.5 35.015625 12.5 
L 44 12.5 
L 44 0 
L 29 0 
Q 18.65625 0 14.328125 4.3125 
Q 10.015625 8.640625 10.015625 19 
L 10.015625 42.1875 
L 1.3125 42.1875 
L 1.3125 54.6875 
L 10.015625 54.6875 
L 10.015625 70.21875 
z
" id="DejaVuSans-Bold-116"/>
      <path d="M 59.078125 45.609375 
Q 62.40625 50.6875 66.96875 53.34375 
Q 71.53125 56 77 56 
Q 86.421875 56 91.359375 50.1875 
Q 96.296875 44.390625 96.296875 33.296875 
L 96.296875 0 
L 78.71875 0 
L 78.71875 28.515625 
Q 78.765625 29.15625 78.78125 29.828125 
Q 78.8125 30.515625 78.8125 31.78125 
Q 78.8125 37.59375 77.09375 40.203125 
Q 75.390625 42.828125 71.578125 42.828125 
Q 66.609375 42.828125 63.890625 38.71875 
Q 61.1875 34.625 61.078125 26.859375 
L 61.078125 0 
L 43.5 0 
L 43.5 28.515625 
Q 43.5 37.59375 41.9375 40.203125 
Q 40.375 42.828125 36.375 42.828125 
Q 31.34375 42.828125 28.609375 38.703125 
Q 25.875 34.578125 25.875 26.90625 
L 25.875 0 
L 8.296875 0 
L 8.296875 54.6875 
L 25.875 54.6875 
L 25.875 46.6875 
Q 29.109375 51.3125 33.28125 53.65625 
Q 37.453125 56 42.484375 56 
Q 48.140625 56 52.484375 53.265625 
Q 56.84375 50.53125 59.078125 45.609375 
z
" id="DejaVuSans-Bold-109"/>
      <path d="M 5.71875 54.6875 
L 53.421875 54.6875 
L 53.421875 42.484375 
L 24.609375 12.5 
L 53.421875 12.5 
L 53.421875 0 
L 4.5 0 
L 4.5 12.203125 
L 33.296875 42.1875 
L 5.71875 42.1875 
z
" id="DejaVuSans-Bold-122"/>
      <path d="M 7.8125 21.296875 
L 7.8125 54.6875 
L 25.390625 54.6875 
L 25.390625 49.21875 
Q 25.390625 44.78125 25.34375 38.0625 
Q 25.296875 31.34375 25.296875 29.109375 
Q 25.296875 22.515625 25.640625 19.609375 
Q 25.984375 16.703125 26.8125 15.375 
Q 27.875 13.671875 29.609375 12.734375 
Q 31.34375 11.8125 33.59375 11.8125 
Q 39.0625 11.8125 42.1875 16.015625 
Q 45.3125 20.21875 45.3125 27.6875 
L 45.3125 54.6875 
L 62.796875 54.6875 
L 62.796875 0 
L 45.3125 0 
L 45.3125 7.90625 
Q 41.359375 3.125 36.9375 0.84375 
Q 32.515625 -1.421875 27.203125 -1.421875 
Q 17.71875 -1.421875 12.765625 4.390625 
Q 7.8125 10.203125 7.8125 21.296875 
z
" id="DejaVuSans-Bold-117"/>
      <path d="M 8.015625 -13.1875 
Q 14.265625 -1.5625 17.390625 9.515625 
Q 20.515625 20.609375 20.515625 31.390625 
Q 20.515625 42.1875 17.390625 53.25 
Q 14.265625 64.3125 8.015625 75.875 
L 22.515625 75.875 
Q 29.9375 63.921875 33.515625 52.953125 
Q 37.109375 42 37.109375 31.296875 
Q 37.109375 20.609375 33.546875 9.734375 
Q 29.984375 -1.125 22.515625 -13.1875 
z
" id="DejaVuSans-Bold-41"/>
     </defs>
     <g transform="translate(303.230312 699.930312)scale(0.12 -0.12)">
      <use xlink:href="#DejaVuSans-Bold-105"/>
      <use x="34.277344" xlink:href="#DejaVuSans-Bold-110"/>
      <use x="105.46875" xlink:href="#DejaVuSans-Bold-100"/>
      <use x="177.050781" xlink:href="#DejaVuSans-Bold-101"/>
      <use x="244.873047" xlink:href="#DejaVuSans-Bold-120"/>
      <use x="309.375" xlink:href="#DejaVuSans-Bold-32"/>
      <use x="344.189453" xlink:href="#DejaVuSans-Bold-40"/>
      <use x="389.892578" xlink:href="#DejaVuSans-Bold-79"/>
      <use x="474.902344" xlink:href="#DejaVuSans-Bold-114"/>
      <use x="524.21875" xlink:href="#DejaVuSans-Bold-100"/>
      <use x="595.800781" xlink:href="#DejaVuSans-Bold-101"/>
      <use x="663.623047" xlink:href="#DejaVuSans-Bold-114"/>
      <use x="712.939453" xlink:href="#DejaVuSans-Bold-101"/>
      <use x="780.761719" xlink:href="#DejaVuSans-Bold-100"/>
      <use x="852.34375" xlink:href="#DejaVuSans-Bold-32"/>
      <use x="887.158203" xlink:href="#DejaVuSans-Bold-111"/>
      <use x="955.859375" xlink:href="#DejaVuSans-Bold-112"/>
      <use x="1027.441406" xlink:href="#DejaVuSans-Bold-116"/>
      <use x="1075.244141" xlink:href="#DejaVuSans-Bold-105"/>
      <use x="1109.521484" xlink:href="#DejaVuSans-Bold-109"/>
      <use x="1213.720703" xlink:href="#DejaVuSans-Bold-105"/>
      <use x="1247.998047" xlink:href="#DejaVuSans-Bold-122"/>
      <use x="1306.201172" xlink:href="#DejaVuSans-Bold-101"/>
      <use x="1374.023438" xlink:href="#DejaVuSans-Bold-114"/>
      <use x="1423.339844" xlink:href="#DejaVuSans-Bold-32"/>
      <use x="1458.154297" xlink:href="#DejaVuSans-Bold-114"/>
      <use x="1507.470703" xlink:href="#DejaVuSans-Bold-117"/>
      <use x="1578.662109" xlink:href="#DejaVuSans-Bold-110"/>
      <use x="1649.853516" xlink:href="#DejaVuSans-Bold-41"/>
     </g>
    </g>
   </g>
   <g id="matplotlib.axis_2">
    <g id="ytick_1">
     <g id="line2d_7">
      <defs>
       <path d="M 0 0 
L -3.5 0 
" id="m58eb2258b7" style="stroke:#000000;stroke-width:0.8;"/>
      </defs>
      <g>
       <use style="stroke:#000000;stroke-width:0.8;" x="104.763125" xlink:href="#m58eb2258b7" y="638.771165"/>
      </g>
     </g>
     <g id="text_8">
      <!-- −0.0000010 -->
      <defs>
       <path d="M 10.59375 35.5 
L 73.1875 35.5 
L 73.1875 27.203125 
L 10.59375 27.203125 
z
" id="DejaVuSans-8722"/>
       <path d="M 10.6875 12.40625 
L 21 12.40625 
L 21 0 
L 10.6875 0 
z
" id="DejaVuSans-46"/>
      </defs>
      <g transform="translate(22.81375 643.330227)scale(0.12 -0.12)">
       <use xlink:href="#DejaVuSans-8722"/>
       <use x="83.789062" xlink:href="#DejaVuSans-48"/>
       <use x="147.412109" xlink:href="#DejaVuSans-46"/>
       <use x="179.199219" xlink:href="#DejaVuSans-48"/>
       <use x="242.822266" xlink:href="#DejaVuSans-48"/>
       <use x="306.445312" xlink:href="#DejaVuSans-48"/>
       <use x="370.068359" xlink:href="#DejaVuSans-48"/>
       <use x="433.691406" xlink:href="#DejaVuSans-48"/>
       <use x="497.314453" xlink:href="#DejaVuSans-49"/>
       <use x="560.9375" xlink:href="#DejaVuSans-48"/>
      </g>
     </g>
    </g>
    <g id="ytick_2">
     <g id="line2d_8">
      <g>
       <use style="stroke:#000000;stroke-width:0.8;" x="104.763125" xlink:href="#m58eb2258b7" y="560.148764"/>
      </g>
     </g>
     <g id="text_9">
      <!-- −0.0000008 -->
      <g transform="translate(22.81375 564.707826)scale(0.12 -0.12)">
       <use xlink:href="#DejaVuSans-8722"/>
       <use x="83.789062" xlink:href="#DejaVuSans-48"/>
       <use x="147.412109" xlink:href="#DejaVuSans-46"/>
       <use x="179.199219" xlink:href="#DejaVuSans-48"/>
       <use x="242.822266" xlink:href="#DejaVuSans-48"/>
       <use x="306.445312" xlink:href="#DejaVuSans-48"/>
       <use x="370.068359" xlink:href="#DejaVuSans-48"/>
       <use x="433.691406" xlink:href="#DejaVuSans-48"/>
       <use x="497.314453" xlink:href="#DejaVuSans-48"/>
       <use x="560.9375" xlink:href="#DejaVuSans-56"/>
      </g>
     </g>
    </g>
    <g id="ytick_3">
     <g id="line2d_9">
      <g>
       <use style="stroke:#000000;stroke-width:0.8;" x="104.763125" xlink:href="#m58eb2258b7" y="481.526363"/>
      </g>
     </g>
     <g id="text_10">
      <!-- −0.0000006 -->
      <g transform="translate(22.81375 486.085425)scale(0.12 -0.12)">
       <use xlink:href="#DejaVuSans-8722"/>
       <use x="83.789062" xlink:href="#DejaVuSans-48"/>
       <use x="147.412109" xlink:href="#DejaVuSans-46"/>
       <use x="179.199219" xlink:href="#DejaVuSans-48"/>
       <use x="242.822266" xlink:href="#DejaVuSans-48"/>
       <use x="306.445312" xlink:href="#DejaVuSans-48"/>
       <use x="370.068359" xlink:href="#DejaVuSans-48"/>
       <use x="433.691406" xlink:href="#DejaVuSans-48"/>
       <use x="497.314453" xlink:href="#DejaVuSans-48"/>
       <use x="560.9375" xlink:href="#DejaVuSans-54"/>
      </g>
     </g>
    </g>
    <g id="ytick_4">
     <g id="line2d_10">
      <g>
       <use style="stroke:#000000;stroke-width:0.8;" x="104.763125" xlink:href="#m58eb2258b7" y="402.903962"/>
      </g>
     </g>
     <g id="text_11">
      <!-- −0.0000004 -->
      <g transform="translate(22.81375 407.463025)scale(0.12 -0.12)">
       <use xlink:href="#DejaVuSans-8722"/>
       <use x="83.789062" xlink:href="#DejaVuSans-48"/>
       <use x="147.412109" xlink:href="#DejaVuSans-46"/>
       <use x="179.199219" xlink:href="#DejaVuSans-48"/>
       <use x="242.822266" xlink:href="#DejaVuSans-48"/>
       <use x="306.445312" xlink:href="#DejaVuSans-48"/>
       <use x="370.068359" xlink:href="#DejaVuSans-48"/>
       <use x="433.691406" xlink:href="#DejaVuSans-48"/>
       <use x="497.314453" xlink:href="#DejaVuSans-48"/>
       <use x="560.9375" xlink:href="#DejaVuSans-52"/>
      </g>
     </g>
    </g>
    <g id="ytick_5">
     <g id="line2d_11">
      <g>
       <use style="stroke:#000000;stroke-width:0.8;" x="104.763125" xlink:href="#m58eb2258b7" y="324.281561"/>
      </g>
     </g>
     <g id="text_12">
      <!-- −0.0000002 -->
      <g transform="translate(22.81375 328.840624)scale(0.12 -0.12)">
       <use xlink:href="#DejaVuSans-8722"/>
       <use x="83.789062" xlink:href="#DejaVuSans-48"/>
       <use x="147.412109" xlink:href="#DejaVuSans-46"/>
       <use x="179.199219" xlink:href="#DejaVuSans-48"/>
       <use x="242.822266" xlink:href="#DejaVuSans-48"/>
       <use x="306.445312" xlink:href="#DejaVuSans-48"/>
       <use x="370.068359" xlink:href="#DejaVuSans-48"/>
       <use x="433.691406" xlink:href="#DejaVuSans-48"/>
       <use x="497.314453" xlink:href="#DejaVuSans-48"/>
       <use x="560.9375" xlink:href="#DejaVuSans-50"/>
      </g>
     </g>
    </g>
    <g id="ytick_6">
     <g id="line2d_12">
      <g>
       <use style="stroke:#000000;stroke-width:0.8;" x="104.763125" xlink:href="#m58eb2258b7" y="245.65916"/>
      </g>
     </g>
     <g id="text_13">
      <!-- 0.0000000 -->
      <g transform="translate(32.869375 250.218223)scale(0.12 -0.12)">
       <use xlink:href="#DejaVuSans-48"/>
       <use x="63.623047" xlink:href="#DejaVuSans-46"/>
       <use x="95.410156" xlink:href="#DejaVuSans-48"/>
       <use x="159.033203" xlink:href="#DejaVuSans-48"/>
       <use x="222.65625" xlink:href="#DejaVuSans-48"/>
       <use x="286.279297" xlink:href="#DejaVuSans-48"/>
       <use x="349.902344" xlink:href="#DejaVuSans-48"/>
       <use x="413.525391" xlink:href="#DejaVuSans-48"/>
       <use x="477.148438" xlink:href="#DejaVuSans-48"/>
      </g>
     </g>
    </g>
    <g id="ytick_7">
     <g id="line2d_13">
      <g>
       <use style="stroke:#000000;stroke-width:0.8;" x="104.763125" xlink:href="#m58eb2258b7" y="167.03676"/>
      </g>
     </g>
     <g id="text_14">
      <!-- 0.0000002 -->
      <g transform="translate(32.869375 171.595822)scale(0.12 -0.12)">
       <use xlink:href="#DejaVuSans-48"/>
       <use x="63.623047" xlink:href="#DejaVuSans-46"/>
       <use x="95.410156" xlink:href="#DejaVuSans-48"/>
       <use x="159.033203" xlink:href="#DejaVuSans-48"/>
       <use x="222.65625" xlink:href="#DejaVuSans-48"/>
       <use x="286.279297" xlink:href="#DejaVuSans-48"/>
       <use x="349.902344" xlink:href="#DejaVuSans-48"/>
       <use x="413.525391" xlink:href="#DejaVuSans-48"/>
       <use x="477.148438" xlink:href="#DejaVuSans-50"/>
      </g>
     </g>
    </g>
    <g id="ytick_8">
     <g id="line2d_14">
      <g>
       <use style="stroke:#000000;stroke-width:0.8;" x="104.763125" xlink:href="#m58eb2258b7" y="88.414359"/>
      </g>
     </g>
     <g id="text_15">
      <!-- 0.0000004 -->
      <g transform="translate(32.869375 92.973421)scale(0.12 -0.12)">
       <use xlink:href="#DejaVuSans-48"/>
       <use x="63.623047" xlink:href="#DejaVuSans-46"/>
       <use x="95.410156" xlink:href="#DejaVuSans-48"/>
       <use x="159.033203" xlink:href="#DejaVuSans-48"/>
       <use x="222.65625" xlink:href="#DejaVuSans-48"/>
       <use x="286.279297" xlink:href="#DejaVuSans-48"/>
       <use x="349.902344" xlink:href="#DejaVuSans-48"/>
       <use x="413.525391" xlink:href="#DejaVuSans-48"/>
       <use x="477.148438" xlink:href="#DejaVuSans-52"/>
      </g>
     </g>
    </g>
    <g id="text_16">
     <!-- Offsetted cost value (relative to best start) -->
     <defs>
      <path d="M 44.390625 75.984375 
L 44.390625 64.5 
L 34.71875 64.5 
Q 31 64.5 29.53125 63.15625 
Q 28.078125 61.8125 28.078125 58.5 
L 28.078125 54.6875 
L 43.015625 54.6875 
L 43.015625 42.1875 
L 28.078125 42.1875 
L 28.078125 0 
L 10.59375 0 
L 10.59375 42.1875 
L 1.90625 42.1875 
L 1.90625 54.6875 
L 10.59375 54.6875 
L 10.59375 58.5 
Q 10.59375 67.4375 15.578125 71.703125 
Q 20.5625 75.984375 31 75.984375 
z
" id="DejaVuSans-Bold-102"/>
      <path d="M 51.125 52.984375 
L 51.125 39.703125 
Q 45.515625 42.046875 40.28125 43.21875 
Q 35.0625 44.390625 30.421875 44.390625 
Q 25.4375 44.390625 23.015625 43.140625 
Q 20.609375 41.890625 20.609375 39.3125 
Q 20.609375 37.203125 22.4375 36.078125 
Q 24.265625 34.96875 29 34.421875 
L 32.078125 33.984375 
Q 45.515625 32.28125 50.140625 28.375 
Q 54.78125 24.46875 54.78125 16.109375 
Q 54.78125 7.375 48.328125 2.96875 
Q 41.890625 -1.421875 29.109375 -1.421875 
Q 23.6875 -1.421875 17.890625 -0.5625 
Q 12.109375 0.296875 6 2 
L 6 15.28125 
Q 11.234375 12.75 16.71875 11.46875 
Q 22.21875 10.203125 27.875 10.203125 
Q 33.015625 10.203125 35.59375 11.609375 
Q 38.1875 13.03125 38.1875 15.828125 
Q 38.1875 18.171875 36.40625 19.3125 
Q 34.625 20.453125 29.296875 21.09375 
L 26.21875 21.484375 
Q 14.546875 22.953125 9.859375 26.90625 
Q 5.171875 30.859375 5.171875 38.921875 
Q 5.171875 47.609375 11.125 51.796875 
Q 17.09375 56 29.390625 56 
Q 34.234375 56 39.546875 55.265625 
Q 44.875 54.546875 51.125 52.984375 
z
" id="DejaVuSans-Bold-115"/>
      <path d="M 52.59375 52.984375 
L 52.59375 38.71875 
Q 49.03125 41.15625 45.4375 42.328125 
Q 41.84375 43.5 37.984375 43.5 
Q 30.671875 43.5 26.59375 39.234375 
Q 22.515625 34.96875 22.515625 27.296875 
Q 22.515625 19.625 26.59375 15.34375 
Q 30.671875 11.078125 37.984375 11.078125 
Q 42.09375 11.078125 45.78125 12.296875 
Q 49.46875 13.53125 52.59375 15.921875 
L 52.59375 1.609375 
Q 48.484375 0.09375 44.265625 -0.65625 
Q 40.046875 -1.421875 35.796875 -1.421875 
Q 21 -1.421875 12.640625 6.171875 
Q 4.296875 13.765625 4.296875 27.296875 
Q 4.296875 40.828125 12.640625 48.40625 
Q 21 56 35.796875 56 
Q 40.09375 56 44.265625 55.25 
Q 48.4375 54.5 52.59375 52.984375 
z
" id="DejaVuSans-Bold-99"/>
      <path d="M 1.515625 54.6875 
L 19 54.6875 
L 32.625 16.890625 
L 46.1875 54.6875 
L 63.71875 54.6875 
L 42.1875 0 
L 23 0 
z
" id="DejaVuSans-Bold-118"/>
      <path d="M 32.90625 24.609375 
Q 27.4375 24.609375 24.671875 22.75 
Q 21.921875 20.90625 21.921875 17.28125 
Q 21.921875 13.96875 24.140625 12.078125 
Q 26.375 10.203125 30.328125 10.203125 
Q 35.25 10.203125 38.625 13.734375 
Q 42 17.28125 42 22.609375 
L 42 24.609375 
z
M 59.625 31.203125 
L 59.625 0 
L 42 0 
L 42 8.109375 
Q 38.484375 3.125 34.078125 0.84375 
Q 29.6875 -1.421875 23.390625 -1.421875 
Q 14.890625 -1.421875 9.59375 3.53125 
Q 4.296875 8.5 4.296875 16.40625 
Q 4.296875 26.03125 10.90625 30.515625 
Q 17.53125 35.015625 31.6875 35.015625 
L 42 35.015625 
L 42 36.375 
Q 42 40.53125 38.71875 42.453125 
Q 35.453125 44.390625 28.515625 44.390625 
Q 22.90625 44.390625 18.0625 43.265625 
Q 13.234375 42.140625 9.078125 39.890625 
L 9.078125 53.21875 
Q 14.703125 54.59375 20.359375 55.296875 
Q 26.03125 56 31.6875 56 
Q 46.484375 56 53.046875 50.171875 
Q 59.625 44.34375 59.625 31.203125 
z
" id="DejaVuSans-Bold-97"/>
      <path d="M 8.40625 75.984375 
L 25.875 75.984375 
L 25.875 0 
L 8.40625 0 
z
" id="DejaVuSans-Bold-108"/>
      <path d="M 37.5 11.28125 
Q 43.109375 11.28125 46.0625 15.375 
Q 49.03125 19.484375 49.03125 27.296875 
Q 49.03125 35.109375 46.0625 39.203125 
Q 43.109375 43.3125 37.5 43.3125 
Q 31.890625 43.3125 28.875 39.1875 
Q 25.875 35.0625 25.875 27.296875 
Q 25.875 19.53125 28.875 15.40625 
Q 31.890625 11.28125 37.5 11.28125 
z
M 25.875 46.6875 
Q 29.5 51.46875 33.890625 53.734375 
Q 38.28125 56 44 56 
Q 54.109375 56 60.59375 47.96875 
Q 67.09375 39.9375 67.09375 27.296875 
Q 67.09375 14.65625 60.59375 6.609375 
Q 54.109375 -1.421875 44 -1.421875 
Q 38.28125 -1.421875 33.890625 0.84375 
Q 29.5 3.125 25.875 7.90625 
L 25.875 0 
L 8.40625 0 
L 8.40625 75.984375 
L 25.875 75.984375 
z
" id="DejaVuSans-Bold-98"/>
     </defs>
     <g transform="translate(16.318125 491.200312)rotate(-90)scale(0.12 -0.12)">
      <use xlink:href="#DejaVuSans-Bold-79"/>
      <use x="85.009766" xlink:href="#DejaVuSans-Bold-102"/>
      <use x="128.515625" xlink:href="#DejaVuSans-Bold-102"/>
      <use x="172.021484" xlink:href="#DejaVuSans-Bold-115"/>
      <use x="231.542969" xlink:href="#DejaVuSans-Bold-101"/>
      <use x="299.365234" xlink:href="#DejaVuSans-Bold-116"/>
      <use x="347.167969" xlink:href="#DejaVuSans-Bold-116"/>
      <use x="394.970703" xlink:href="#DejaVuSans-Bold-101"/>
      <use x="462.792969" xlink:href="#DejaVuSans-Bold-100"/>
      <use x="534.375" xlink:href="#DejaVuSans-Bold-32"/>
      <use x="569.189453" xlink:href="#DejaVuSans-Bold-99"/>
      <use x="628.466797" xlink:href="#DejaVuSans-Bold-111"/>
      <use x="697.167969" xlink:href="#DejaVuSans-Bold-115"/>
      <use x="756.689453" xlink:href="#DejaVuSans-Bold-116"/>
      <use x="804.492188" xlink:href="#DejaVuSans-Bold-32"/>
      <use x="839.306641" xlink:href="#DejaVuSans-Bold-118"/>
      <use x="904.492188" xlink:href="#DejaVuSans-Bold-97"/>
      <use x="971.972656" xlink:href="#DejaVuSans-Bold-108"/>
      <use x="1006.25" xlink:href="#DejaVuSans-Bold-117"/>
      <use x="1077.441406" xlink:href="#DejaVuSans-Bold-101"/>
      <use x="1145.263672" xlink:href="#DejaVuSans-Bold-32"/>
      <use x="1180.078125" xlink:href="#DejaVuSans-Bold-40"/>
      <use x="1225.78125" xlink:href="#DejaVuSans-Bold-114"/>
      <use x="1275.097656" xlink:href="#DejaVuSans-Bold-101"/>
      <use x="1342.919922" xlink:href="#DejaVuSans-Bold-108"/>
      <use x="1377.197266" xlink:href="#DejaVuSans-Bold-97"/>
      <use x="1444.677734" xlink:href="#DejaVuSans-Bold-116"/>
      <use x="1492.480469" xlink:href="#DejaVuSans-Bold-105"/>
      <use x="1526.757812" xlink:href="#DejaVuSans-Bold-118"/>
      <use x="1591.943359" xlink:href="#DejaVuSans-Bold-101"/>
      <use x="1659.765625" xlink:href="#DejaVuSans-Bold-32"/>
      <use x="1694.580078" xlink:href="#DejaVuSans-Bold-116"/>
      <use x="1742.382812" xlink:href="#DejaVuSans-Bold-111"/>
      <use x="1811.083984" xlink:href="#DejaVuSans-Bold-32"/>
      <use x="1845.898438" xlink:href="#DejaVuSans-Bold-98"/>
      <use x="1917.480469" xlink:href="#DejaVuSans-Bold-101"/>
      <use x="1985.302734" xlink:href="#DejaVuSans-Bold-115"/>
      <use x="2044.824219" xlink:href="#DejaVuSans-Bold-116"/>
      <use x="2092.626953" xlink:href="#DejaVuSans-Bold-32"/>
      <use x="2127.441406" xlink:href="#DejaVuSans-Bold-115"/>
      <use x="2186.962891" xlink:href="#DejaVuSans-Bold-116"/>
      <use x="2234.765625" xlink:href="#DejaVuSans-Bold-97"/>
      <use x="2302.246094" xlink:href="#DejaVuSans-Bold-114"/>
      <use x="2351.5625" xlink:href="#DejaVuSans-Bold-116"/>
      <use x="2399.365234" xlink:href="#DejaVuSans-Bold-41"/>
     </g>
    </g>
    <g id="text_17">
     <!-- +1.000001 -->
     <defs>
      <path d="M 46 62.703125 
L 46 35.5 
L 73.1875 35.5 
L 73.1875 27.203125 
L 46 27.203125 
L 46 0 
L 37.796875 0 
L 37.796875 27.203125 
L 10.59375 27.203125 
L 10.59375 35.5 
L 37.796875 35.5 
L 37.796875 62.703125 
z
" id="DejaVuSans-43"/>
     </defs>
     <g transform="translate(104.763125 17.798437)scale(0.12 -0.12)">
      <use xlink:href="#DejaVuSans-43"/>
      <use x="83.789062" xlink:href="#DejaVuSans-49"/>
      <use x="147.412109" xlink:href="#DejaVuSans-46"/>
      <use x="179.199219" xlink:href="#DejaVuSans-48"/>
      <use x="242.822266" xlink:href="#DejaVuSans-48"/>
      <use x="306.445312" xlink:href="#DejaVuSans-48"/>
      <use x="370.068359" xlink:href="#DejaVuSans-48"/>
      <use x="433.691406" xlink:href="#DejaVuSans-48"/>
      <use x="497.314453" xlink:href="#DejaVuSans-49"/>
     </g>
    </g>
   </g>
   <g id="line2d_15">
    <path clip-path="url(#p58dda8d27d)" d="M 132.054034 638.771165 
L 137.567349 630.867786 
L 143.080664 627.142831 
L 148.593979 626.709821 
L 154.107294 626.657728 
L 159.620609 625.63136 
L 165.133924 621.852313 
L 170.647239 619.460959 
L 176.160554 617.645493 
L 181.673869 616.81585 
L 187.187184 615.775958 
L 192.700499 613.542019 
L 198.213814 612.588404 
L 203.727129 606.814179 
L 209.240444 605.445397 
L 214.753759 605.129447 
L 220.267074 604.583452 
L 225.780389 601.733061 
L 231.293704 600.504293 
L 236.807018 597.765458 
L 242.320333 596.874372 
L 247.833648 596.806497 
L 253.346963 595.499141 
L 258.860278 594.668627 
L 264.373593 592.756395 
L 269.886908 591.008748 
L 275.400223 586.38536 
L 280.913538 581.380692 
L 286.426853 578.816753 
L 291.940168 567.029644 
L 297.453483 562.618406 
L 302.966798 560.217327 
L 308.480113 556.970162 
L 313.993428 555.922247 
L 319.506743 544.990306 
L 325.020058 452.505385 
L 330.533373 450.988327 
L 336.046688 449.864603 
L 341.560003 416.205303 
L 347.073318 386.192517 
L 352.586633 361.381676 
L 358.099948 360.870485 
L 363.613263 358.758366 
L 369.126578 348.385073 
L 374.639893 343.251075 
L 380.153208 339.53981 
L 385.666523 337.348577 
L 391.179838 336.222256 
L 396.693153 334.458538 
L 402.206468 326.034518 
L 407.719782 312.298683 
L 413.233097 310.340529 
L 418.746412 305.313971 
L 424.259727 300.565783 
L 429.773042 299.943437 
L 435.286357 299.16494 
L 440.799672 298.059973 
L 446.312987 294.922745 
L 451.826302 293.611767 
L 457.339617 293.368411 
L 462.852932 292.865363 
L 468.366247 290.110726 
L 473.879562 289.649181 
L 479.392877 285.867032 
L 484.906192 282.619469 
L 490.419507 281.957716 
L 495.932822 279.588518 
L 501.446137 279.140165 
L 506.959452 273.405211 
L 512.472767 273.116399 
L 517.986082 272.27351 
L 523.499397 272.03651 
L 529.012712 270.949867 
L 534.526027 268.404034 
L 540.039342 267.789384 
L 545.552657 266.07006 
L 551.065972 264.685625 
L 556.579287 264.277911 
L 562.092602 264.086592 
L 567.605917 264.079162 
L 573.119232 262.772268 
L 578.632546 262.645361 
L 584.145861 260.031084 
L 589.659176 252.496174 
L 595.172491 252.405551 
L 600.685806 252.194667 
L 606.199121 250.979877 
L 611.712436 249.899696 
L 617.225751 245.660717 
L 622.739066 243.945746 
L 628.252381 243.443177 
L 633.765696 241.063583 
L 639.279011 239.536694 
L 644.792326 239.279187 
L 650.305641 232.159705 
L 655.818956 231.880557 
L 661.332271 229.122206 
L 666.845586 219.458472 
L 672.358901 205.816829 
L 677.872216 50.22571 
" style="fill:none;stroke:#000000;stroke-linecap:square;stroke-width:1.5;"/>
    <defs>
     <path d="M 0 3 
C 0.795609 3 1.55874 2.683901 2.12132 2.12132 
C 2.683901 1.55874 3 0.795609 3 0 
C 3 -0.795609 2.683901 -1.55874 2.12132 -2.12132 
C 1.55874 -2.683901 0.795609 -3 0 -3 
C -0.795609 -3 -1.55874 -2.683901 -2.12132 -2.12132 
C -2.683901 -1.55874 -3 -0.795609 -3 0 
C -3 0.795609 -2.683901 1.55874 -2.12132 2.12132 
C -1.55874 2.683901 -0.795609 3 0 3 
z
" id="mc8029aeb5b" style="stroke:#000000;"/>
    </defs>
    <g clip-path="url(#p58dda8d27d)">
     <use style="stroke:#000000;" x="132.054034" xlink:href="#mc8029aeb5b" y="638.771165"/>
     <use style="stroke:#000000;" x="137.567349" xlink:href="#mc8029aeb5b" y="630.867786"/>
     <use style="stroke:#000000;" x="143.080664" xlink:href="#mc8029aeb5b" y="627.142831"/>
     <use style="stroke:#000000;" x="148.593979" xlink:href="#mc8029aeb5b" y="626.709821"/>
     <use style="stroke:#000000;" x="154.107294" xlink:href="#mc8029aeb5b" y="626.657728"/>
     <use style="stroke:#000000;" x="159.620609" xlink:href="#mc8029aeb5b" y="625.63136"/>
     <use style="stroke:#000000;" x="165.133924" xlink:href="#mc8029aeb5b" y="621.852313"/>
     <use style="stroke:#000000;" x="170.647239" xlink:href="#mc8029aeb5b" y="619.460959"/>
     <use style="stroke:#000000;" x="176.160554" xlink:href="#mc8029aeb5b" y="617.645493"/>
     <use style="stroke:#000000;" x="181.673869" xlink:href="#mc8029aeb5b" y="616.81585"/>
     <use style="stroke:#000000;" x="187.187184" xlink:href="#mc8029aeb5b" y="615.775958"/>
     <use style="stroke:#000000;" x="192.700499" xlink:href="#mc8029aeb5b" y="613.542019"/>
     <use style="stroke:#000000;" x="198.213814" xlink:href="#mc8029aeb5b" y="612.588404"/>
     <use style="stroke:#000000;" x="203.727129" xlink:href="#mc8029aeb5b" y="606.814179"/>
     <use style="stroke:#000000;" x="209.240444" xlink:href="#mc8029aeb5b" y="605.445397"/>
     <use style="stroke:#000000;" x="214.753759" xlink:href="#mc8029aeb5b" y="605.129447"/>
     <use style="stroke:#000000;" x="220.267074" xlink:href="#mc8029aeb5b" y="604.583452"/>
     <use style="stroke:#000000;" x="225.780389" xlink:href="#mc8029aeb5b" y="601.733061"/>
     <use style="stroke:#000000;" x="231.293704" xlink:href="#mc8029aeb5b" y="600.504293"/>
     <use style="stroke:#000000;" x="236.807018" xlink:href="#mc8029aeb5b" y="597.765458"/>
     <use style="stroke:#000000;" x="242.320333" xlink:href="#mc8029aeb5b" y="596.874372"/>
     <use style="stroke:#000000;" x="247.833648" xlink:href="#mc8029aeb5b" y="596.806497"/>
     <use style="stroke:#000000;" x="253.346963" xlink:href="#mc8029aeb5b" y="595.499141"/>
     <use style="stroke:#000000;" x="258.860278" xlink:href="#mc8029aeb5b" y="594.668627"/>
     <use style="stroke:#000000;" x="264.373593" xlink:href="#mc8029aeb5b" y="592.756395"/>
     <use style="stroke:#000000;" x="269.886908" xlink:href="#mc8029aeb5b" y="591.008748"/>
     <use style="stroke:#000000;" x="275.400223" xlink:href="#mc8029aeb5b" y="586.38536"/>
     <use style="stroke:#000000;" x="280.913538" xlink:href="#mc8029aeb5b" y="581.380692"/>
     <use style="stroke:#000000;" x="286.426853" xlink:href="#mc8029aeb5b" y="578.816753"/>
     <use style="stroke:#000000;" x="291.940168" xlink:href="#mc8029aeb5b" y="567.029644"/>
     <use style="stroke:#000000;" x="297.453483" xlink:href="#mc8029aeb5b" y="562.618406"/>
     <use style="stroke:#000000;" x="302.966798" xlink:href="#mc8029aeb5b" y="560.217327"/>
     <use style="stroke:#000000;" x="308.480113" xlink:href="#mc8029aeb5b" y="556.970162"/>
     <use style="stroke:#000000;" x="313.993428" xlink:href="#mc8029aeb5b" y="555.922247"/>
     <use style="stroke:#000000;" x="319.506743" xlink:href="#mc8029aeb5b" y="544.990306"/>
     <use style="stroke:#000000;" x="325.020058" xlink:href="#mc8029aeb5b" y="452.505385"/>
     <use style="stroke:#000000;" x="330.533373" xlink:href="#mc8029aeb5b" y="450.988327"/>
     <use style="stroke:#000000;" x="336.046688" xlink:href="#mc8029aeb5b" y="449.864603"/>
     <use style="stroke:#000000;" x="341.560003" xlink:href="#mc8029aeb5b" y="416.205303"/>
     <use style="stroke:#000000;" x="347.073318" xlink:href="#mc8029aeb5b" y="386.192517"/>
     <use style="stroke:#000000;" x="352.586633" xlink:href="#mc8029aeb5b" y="361.381676"/>
     <use style="stroke:#000000;" x="358.099948" xlink:href="#mc8029aeb5b" y="360.870485"/>
     <use style="stroke:#000000;" x="363.613263" xlink:href="#mc8029aeb5b" y="358.758366"/>
     <use style="stroke:#000000;" x="369.126578" xlink:href="#mc8029aeb5b" y="348.385073"/>
     <use style="stroke:#000000;" x="374.639893" xlink:href="#mc8029aeb5b" y="343.251075"/>
     <use style="stroke:#000000;" x="380.153208" xlink:href="#mc8029aeb5b" y="339.53981"/>
     <use style="stroke:#000000;" x="385.666523" xlink:href="#mc8029aeb5b" y="337.348577"/>
     <use style="stroke:#000000;" x="391.179838" xlink:href="#mc8029aeb5b" y="336.222256"/>
     <use style="stroke:#000000;" x="396.693153" xlink:href="#mc8029aeb5b" y="334.458538"/>
     <use style="stroke:#000000;" x="402.206468" xlink:href="#mc8029aeb5b" y="326.034518"/>
     <use style="stroke:#000000;" x="407.719782" xlink:href="#mc8029aeb5b" y="312.298683"/>
     <use style="stroke:#000000;" x="413.233097" xlink:href="#mc8029aeb5b" y="310.340529"/>
     <use style="stroke:#000000;" x="418.746412" xlink:href="#mc8029aeb5b" y="305.313971"/>
     <use style="stroke:#000000;" x="424.259727" xlink:href="#mc8029aeb5b" y="300.565783"/>
     <use style="stroke:#000000;" x="429.773042" xlink:href="#mc8029aeb5b" y="299.943437"/>
     <use style="stroke:#000000;" x="435.286357" xlink:href="#mc8029aeb5b" y="299.16494"/>
     <use style="stroke:#000000;" x="440.799672" xlink:href="#mc8029aeb5b" y="298.059973"/>
     <use style="stroke:#000000;" x="446.312987" xlink:href="#mc8029aeb5b" y="294.922745"/>
     <use style="stroke:#000000;" x="451.826302" xlink:href="#mc8029aeb5b" y="293.611767"/>
     <use style="stroke:#000000;" x="457.339617" xlink:href="#mc8029aeb5b" y="293.368411"/>
     <use style="stroke:#000000;" x="462.852932" xlink:href="#mc8029aeb5b" y="292.865363"/>
     <use style="stroke:#000000;" x="468.366247" xlink:href="#mc8029aeb5b" y="290.110726"/>
     <use style="stroke:#000000;" x="473.879562" xlink:href="#mc8029aeb5b" y="289.649181"/>
     <use style="stroke:#000000;" x="479.392877" xlink:href="#mc8029aeb5b" y="285.867032"/>
     <use style="stroke:#000000;" x="484.906192" xlink:href="#mc8029aeb5b" y="282.619469"/>
     <use style="stroke:#000000;" x="490.419507" xlink:href="#mc8029aeb5b" y="281.957716"/>
     <use style="stroke:#000000;" x="495.932822" xlink:href="#mc8029aeb5b" y="279.588518"/>
     <use style="stroke:#000000;" x="501.446137" xlink:href="#mc8029aeb5b" y="279.140165"/>
     <use style="stroke:#000000;" x="506.959452" xlink:href="#mc8029aeb5b" y="273.405211"/>
     <use style="stroke:#000000;" x="512.472767" xlink:href="#mc8029aeb5b" y="273.116399"/>
     <use style="stroke:#000000;" x="517.986082" xlink:href="#mc8029aeb5b" y="272.27351"/>
     <use style="stroke:#000000;" x="523.499397" xlink:href="#mc8029aeb5b" y="272.03651"/>
     <use style="stroke:#000000;" x="529.012712" xlink:href="#mc8029aeb5b" y="270.949867"/>
     <use style="stroke:#000000;" x="534.526027" xlink:href="#mc8029aeb5b" y="268.404034"/>
     <use style="stroke:#000000;" x="540.039342" xlink:href="#mc8029aeb5b" y="267.789384"/>
     <use style="stroke:#000000;" x="545.552657" xlink:href="#mc8029aeb5b" y="266.07006"/>
     <use style="stroke:#000000;" x="551.065972" xlink:href="#mc8029aeb5b" y="264.685625"/>
     <use style="stroke:#000000;" x="556.579287" xlink:href="#mc8029aeb5b" y="264.277911"/>
     <use style="stroke:#000000;" x="562.092602" xlink:href="#mc8029aeb5b" y="264.086592"/>
     <use style="stroke:#000000;" x="567.605917" xlink:href="#mc8029aeb5b" y="264.079162"/>
     <use style="stroke:#000000;" x="573.119232" xlink:href="#mc8029aeb5b" y="262.772268"/>
     <use style="stroke:#000000;" x="578.632546" xlink:href="#mc8029aeb5b" y="262.645361"/>
     <use style="stroke:#000000;" x="584.145861" xlink:href="#mc8029aeb5b" y="260.031084"/>
     <use style="stroke:#000000;" x="589.659176" xlink:href="#mc8029aeb5b" y="252.496174"/>
     <use style="stroke:#000000;" x="595.172491" xlink:href="#mc8029aeb5b" y="252.405551"/>
     <use style="stroke:#000000;" x="600.685806" xlink:href="#mc8029aeb5b" y="252.194667"/>
     <use style="stroke:#000000;" x="606.199121" xlink:href="#mc8029aeb5b" y="250.979877"/>
     <use style="stroke:#000000;" x="611.712436" xlink:href="#mc8029aeb5b" y="249.899696"/>
     <use style="stroke:#000000;" x="617.225751" xlink:href="#mc8029aeb5b" y="245.660717"/>
     <use style="stroke:#000000;" x="622.739066" xlink:href="#mc8029aeb5b" y="243.945746"/>
     <use style="stroke:#000000;" x="628.252381" xlink:href="#mc8029aeb5b" y="243.443177"/>
     <use style="stroke:#000000;" x="633.765696" xlink:href="#mc8029aeb5b" y="241.063583"/>
     <use style="stroke:#000000;" x="639.279011" xlink:href="#mc8029aeb5b" y="239.536694"/>
     <use style="stroke:#000000;" x="644.792326" xlink:href="#mc8029aeb5b" y="239.279187"/>
     <use style="stroke:#000000;" x="650.305641" xlink:href="#mc8029aeb5b" y="232.159705"/>
     <use style="stroke:#000000;" x="655.818956" xlink:href="#mc8029aeb5b" y="231.880557"/>
     <use style="stroke:#000000;" x="661.332271" xlink:href="#mc8029aeb5b" y="229.122206"/>
     <use style="stroke:#000000;" x="666.845586" xlink:href="#mc8029aeb5b" y="219.458472"/>
     <use style="stroke:#000000;" x="672.358901" xlink:href="#mc8029aeb5b" y="205.816829"/>
     <use style="stroke:#000000;" x="677.872216" xlink:href="#mc8029aeb5b" y="50.22571"/>
    </g>
   </g>
   <g id="patch_3">
    <path d="M 104.763125 668.198437 
L 104.763125 20.798437 
" style="fill:none;stroke:#000000;stroke-linecap:square;stroke-linejoin:miter;stroke-width:0.8;"/>
   </g>
   <g id="patch_4">
    <path d="M 705.163125 668.198437 
L 705.163125 20.798437 
" style="fill:none;stroke:#000000;stroke-linecap:square;stroke-linejoin:miter;stroke-width:0.8;"/>
   </g>
   <g id="patch_5">
    <path d="M 104.763125 668.198437 
L 705.163125 668.198437 
" style="fill:none;stroke:#000000;stroke-linecap:square;stroke-linejoin:miter;stroke-width:0.8;"/>
   </g>
   <g id="patch_6">
    <path d="M 104.763125 20.798437 
L 705.163125 20.798437 
" style="fill:none;stroke:#000000;stroke-linecap:square;stroke-linejoin:miter;stroke-width:0.8;"/>
   </g>
   <g id="text_18">
    <!-- Waterfall plot -->
    <defs>
     <path d="M 2.984375 72.90625 
L 21 72.90625 
L 33.59375 19.921875 
L 46.09375 72.90625 
L 64.203125 72.90625 
L 76.703125 19.921875 
L 89.3125 72.90625 
L 107.171875 72.90625 
L 89.984375 0 
L 68.3125 0 
L 55.078125 55.421875 
L 42 0 
L 20.3125 0 
z
" id="DejaVuSans-Bold-87"/>
    </defs>
    <g transform="translate(365.993594 14.798437)scale(0.1 -0.1)">
     <use xlink:href="#DejaVuSans-Bold-87"/>
     <use x="110.255859" xlink:href="#DejaVuSans-Bold-97"/>
     <use x="177.736328" xlink:href="#DejaVuSans-Bold-116"/>
     <use x="225.539062" xlink:href="#DejaVuSans-Bold-101"/>
     <use x="293.361328" xlink:href="#DejaVuSans-Bold-114"/>
     <use x="342.677734" xlink:href="#DejaVuSans-Bold-102"/>
     <use x="386.183594" xlink:href="#DejaVuSans-Bold-97"/>
     <use x="453.664062" xlink:href="#DejaVuSans-Bold-108"/>
     <use x="487.941406" xlink:href="#DejaVuSans-Bold-108"/>
     <use x="522.21875" xlink:href="#DejaVuSans-Bold-32"/>
     <use x="557.033203" xlink:href="#DejaVuSans-Bold-112"/>
     <use x="628.615234" xlink:href="#DejaVuSans-Bold-108"/>
     <use x="662.892578" xlink:href="#DejaVuSans-Bold-111"/>
     <use x="731.59375" xlink:href="#DejaVuSans-Bold-116"/>
    </g>
   </g>
  </g>
 </g>
 <defs>
  <clipPath id="p58dda8d27d">
   <rect height="647.4" width="600.4" x="104.763125" y="20.798437"/>
  </clipPath>
 </defs>
</svg>
