<?xml version="1.0" encoding="utf-8" standalone="no"?>
<!DOCTYPE svg PUBLIC "-//W3C//DTD SVG 1.1//EN"
  "http://www.w3.org/Graphics/SVG/1.1/DTD/svg11.dtd">
<!-- Created with matplotlib (https://matplotlib.org/) -->
<svg height="334.314062pt" version="1.1" viewBox="0 0 441.964205 334.314062" width="441.964205pt" xmlns="http://www.w3.org/2000/svg" xmlns:xlink="http://www.w3.org/1999/xlink">
 <metadata>
  <rdf:RDF xmlns:cc="http://creativecommons.org/ns#" xmlns:dc="http://purl.org/dc/elements/1.1/" xmlns:rdf="http://www.w3.org/1999/02/22-rdf-syntax-ns#">
   <cc:Work>
    <dc:type rdf:resource="http://purl.org/dc/dcmitype/StillImage"/>
    <dc:date>2021-04-12T20:57:15.768160</dc:date>
    <dc:format>image/svg+xml</dc:format>
    <dc:creator>
     <cc:Agent>
      <dc:title>Matplotlib v3.3.4, https://matplotlib.org/</dc:title>
     </cc:Agent>
    </dc:creator>
   </cc:Work>
  </rdf:RDF>
 </metadata>
 <defs>
  <style type="text/css">*{stroke-linecap:butt;stroke-linejoin:round;}</style>
 </defs>
 <g id="figure_1">
  <g id="patch_1">
   <path d="M 0 334.314062 
L 441.964205 334.314062 
L 441.964205 0 
L 0 0 
z
" style="fill:#ffffff;"/>
  </g>
  <g id="axes_1">
   <g id="patch_2">
    <path d="M 42.83125 305.596875 
L 433.43125 305.596875 
L 433.43125 28.396875 
L 42.83125 28.396875 
z
" style="fill:#ffffff;"/>
   </g>
   <g id="matplotlib.axis_1">
    <g id="xtick_1">
     <g id="line2d_1">
      <defs>
       <path d="M 0 0 
L 0 3.5 
" id="md62e48a6fa" style="stroke:#000000;stroke-width:0.8;"/>
      </defs>
      <g>
       <use style="stroke:#000000;stroke-width:0.8;" x="60.585795" xlink:href="#md62e48a6fa" y="305.596875"/>
      </g>
     </g>
     <g id="text_1">
      <!-- 0 -->
      <g transform="translate(55.81392 323.994531)scale(0.15 -0.15)">
       <defs>
        <path d="M 31.78125 66.40625 
Q 24.171875 66.40625 20.328125 58.90625 
Q 16.5 51.421875 16.5 36.375 
Q 16.5 21.390625 20.328125 13.890625 
Q 24.171875 6.390625 31.78125 6.390625 
Q 39.453125 6.390625 43.28125 13.890625 
Q 47.125 21.390625 47.125 36.375 
Q 47.125 51.421875 43.28125 58.90625 
Q 39.453125 66.40625 31.78125 66.40625 
z
M 31.78125 74.21875 
Q 44.046875 74.21875 50.515625 64.515625 
Q 56.984375 54.828125 56.984375 36.375 
Q 56.984375 17.96875 50.515625 8.265625 
Q 44.046875 -1.421875 31.78125 -1.421875 
Q 19.53125 -1.421875 13.0625 8.265625 
Q 6.59375 17.96875 6.59375 36.375 
Q 6.59375 54.828125 13.0625 64.515625 
Q 19.53125 74.21875 31.78125 74.21875 
z
" id="DejaVuSans-48"/>
       </defs>
       <use xlink:href="#DejaVuSans-48"/>
      </g>
     </g>
    </g>
    <g id="xtick_2">
     <g id="line2d_2">
      <g>
       <use style="stroke:#000000;stroke-width:0.8;" x="131.603977" xlink:href="#md62e48a6fa" y="305.596875"/>
      </g>
     </g>
     <g id="text_2">
      <!-- 200 -->
      <g transform="translate(117.288352 323.994531)scale(0.15 -0.15)">
       <defs>
        <path d="M 19.1875 8.296875 
L 53.609375 8.296875 
L 53.609375 0 
L 7.328125 0 
L 7.328125 8.296875 
Q 12.9375 14.109375 22.625 23.890625 
Q 32.328125 33.6875 34.8125 36.53125 
Q 39.546875 41.84375 41.421875 45.53125 
Q 43.3125 49.21875 43.3125 52.78125 
Q 43.3125 58.59375 39.234375 62.25 
Q 35.15625 65.921875 28.609375 65.921875 
Q 23.96875 65.921875 18.8125 64.3125 
Q 13.671875 62.703125 7.8125 59.421875 
L 7.8125 69.390625 
Q 13.765625 71.78125 18.9375 73 
Q 24.125 74.21875 28.421875 74.21875 
Q 39.75 74.21875 46.484375 68.546875 
Q 53.21875 62.890625 53.21875 53.421875 
Q 53.21875 48.921875 51.53125 44.890625 
Q 49.859375 40.875 45.40625 35.40625 
Q 44.1875 33.984375 37.640625 27.21875 
Q 31.109375 20.453125 19.1875 8.296875 
z
" id="DejaVuSans-50"/>
       </defs>
       <use xlink:href="#DejaVuSans-50"/>
       <use x="63.623047" xlink:href="#DejaVuSans-48"/>
       <use x="127.246094" xlink:href="#DejaVuSans-48"/>
      </g>
     </g>
    </g>
    <g id="xtick_3">
     <g id="line2d_3">
      <g>
       <use style="stroke:#000000;stroke-width:0.8;" x="202.622159" xlink:href="#md62e48a6fa" y="305.596875"/>
      </g>
     </g>
     <g id="text_3">
      <!-- 400 -->
      <g transform="translate(188.306534 323.994531)scale(0.15 -0.15)">
       <defs>
        <path d="M 37.796875 64.3125 
L 12.890625 25.390625 
L 37.796875 25.390625 
z
M 35.203125 72.90625 
L 47.609375 72.90625 
L 47.609375 25.390625 
L 58.015625 25.390625 
L 58.015625 17.1875 
L 47.609375 17.1875 
L 47.609375 0 
L 37.796875 0 
L 37.796875 17.1875 
L 4.890625 17.1875 
L 4.890625 26.703125 
z
" id="DejaVuSans-52"/>
       </defs>
       <use xlink:href="#DejaVuSans-52"/>
       <use x="63.623047" xlink:href="#DejaVuSans-48"/>
       <use x="127.246094" xlink:href="#DejaVuSans-48"/>
      </g>
     </g>
    </g>
    <g id="xtick_4">
     <g id="line2d_4">
      <g>
       <use style="stroke:#000000;stroke-width:0.8;" x="273.640341" xlink:href="#md62e48a6fa" y="305.596875"/>
      </g>
     </g>
     <g id="text_4">
      <!-- 600 -->
      <g transform="translate(259.324716 323.994531)scale(0.15 -0.15)">
       <defs>
        <path d="M 33.015625 40.375 
Q 26.375 40.375 22.484375 35.828125 
Q 18.609375 31.296875 18.609375 23.390625 
Q 18.609375 15.53125 22.484375 10.953125 
Q 26.375 6.390625 33.015625 6.390625 
Q 39.65625 6.390625 43.53125 10.953125 
Q 47.40625 15.53125 47.40625 23.390625 
Q 47.40625 31.296875 43.53125 35.828125 
Q 39.65625 40.375 33.015625 40.375 
z
M 52.59375 71.296875 
L 52.59375 62.3125 
Q 48.875 64.0625 45.09375 64.984375 
Q 41.3125 65.921875 37.59375 65.921875 
Q 27.828125 65.921875 22.671875 59.328125 
Q 17.53125 52.734375 16.796875 39.40625 
Q 19.671875 43.65625 24.015625 45.921875 
Q 28.375 48.1875 33.59375 48.1875 
Q 44.578125 48.1875 50.953125 41.515625 
Q 57.328125 34.859375 57.328125 23.390625 
Q 57.328125 12.15625 50.6875 5.359375 
Q 44.046875 -1.421875 33.015625 -1.421875 
Q 20.359375 -1.421875 13.671875 8.265625 
Q 6.984375 17.96875 6.984375 36.375 
Q 6.984375 53.65625 15.1875 63.9375 
Q 23.390625 74.21875 37.203125 74.21875 
Q 40.921875 74.21875 44.703125 73.484375 
Q 48.484375 72.75 52.59375 71.296875 
z
" id="DejaVuSans-54"/>
       </defs>
       <use xlink:href="#DejaVuSans-54"/>
       <use x="63.623047" xlink:href="#DejaVuSans-48"/>
       <use x="127.246094" xlink:href="#DejaVuSans-48"/>
      </g>
     </g>
    </g>
    <g id="xtick_5">
     <g id="line2d_5">
      <g>
       <use style="stroke:#000000;stroke-width:0.8;" x="344.658523" xlink:href="#md62e48a6fa" y="305.596875"/>
      </g>
     </g>
     <g id="text_5">
      <!-- 800 -->
      <g transform="translate(330.342898 323.994531)scale(0.15 -0.15)">
       <defs>
        <path d="M 31.78125 34.625 
Q 24.75 34.625 20.71875 30.859375 
Q 16.703125 27.09375 16.703125 20.515625 
Q 16.703125 13.921875 20.71875 10.15625 
Q 24.75 6.390625 31.78125 6.390625 
Q 38.8125 6.390625 42.859375 10.171875 
Q 46.921875 13.96875 46.921875 20.515625 
Q 46.921875 27.09375 42.890625 30.859375 
Q 38.875 34.625 31.78125 34.625 
z
M 21.921875 38.8125 
Q 15.578125 40.375 12.03125 44.71875 
Q 8.5 49.078125 8.5 55.328125 
Q 8.5 64.0625 14.71875 69.140625 
Q 20.953125 74.21875 31.78125 74.21875 
Q 42.671875 74.21875 48.875 69.140625 
Q 55.078125 64.0625 55.078125 55.328125 
Q 55.078125 49.078125 51.53125 44.71875 
Q 48 40.375 41.703125 38.8125 
Q 48.828125 37.15625 52.796875 32.3125 
Q 56.78125 27.484375 56.78125 20.515625 
Q 56.78125 9.90625 50.3125 4.234375 
Q 43.84375 -1.421875 31.78125 -1.421875 
Q 19.734375 -1.421875 13.25 4.234375 
Q 6.78125 9.90625 6.78125 20.515625 
Q 6.78125 27.484375 10.78125 32.3125 
Q 14.796875 37.15625 21.921875 38.8125 
z
M 18.3125 54.390625 
Q 18.3125 48.734375 21.84375 45.5625 
Q 25.390625 42.390625 31.78125 42.390625 
Q 38.140625 42.390625 41.71875 45.5625 
Q 45.3125 48.734375 45.3125 54.390625 
Q 45.3125 60.0625 41.71875 63.234375 
Q 38.140625 66.40625 31.78125 66.40625 
Q 25.390625 66.40625 21.84375 63.234375 
Q 18.3125 60.0625 18.3125 54.390625 
z
" id="DejaVuSans-56"/>
       </defs>
       <use xlink:href="#DejaVuSans-56"/>
       <use x="63.623047" xlink:href="#DejaVuSans-48"/>
       <use x="127.246094" xlink:href="#DejaVuSans-48"/>
      </g>
     </g>
    </g>
    <g id="xtick_6">
     <g id="line2d_6">
      <g>
       <use style="stroke:#000000;stroke-width:0.8;" x="415.676705" xlink:href="#md62e48a6fa" y="305.596875"/>
      </g>
     </g>
     <g id="text_6">
      <!-- 1000 -->
      <g transform="translate(396.589205 323.994531)scale(0.15 -0.15)">
       <defs>
        <path d="M 12.40625 8.296875 
L 28.515625 8.296875 
L 28.515625 63.921875 
L 10.984375 60.40625 
L 10.984375 69.390625 
L 28.421875 72.90625 
L 38.28125 72.90625 
L 38.28125 8.296875 
L 54.390625 8.296875 
L 54.390625 0 
L 12.40625 0 
z
" id="DejaVuSans-49"/>
       </defs>
       <use xlink:href="#DejaVuSans-49"/>
       <use x="63.623047" xlink:href="#DejaVuSans-48"/>
       <use x="127.246094" xlink:href="#DejaVuSans-48"/>
       <use x="190.869141" xlink:href="#DejaVuSans-48"/>
      </g>
     </g>
    </g>
   </g>
   <g id="matplotlib.axis_2">
    <g id="ytick_1">
     <g id="line2d_7">
      <defs>
       <path d="M 0 0 
L -3.5 0 
" id="mc7c9c5d28e" style="stroke:#000000;stroke-width:0.8;"/>
      </defs>
      <g>
       <use style="stroke:#000000;stroke-width:0.8;" x="42.83125" xlink:href="#mc7c9c5d28e" y="292.996875"/>
      </g>
     </g>
     <g id="text_7">
      <!-- 0 -->
      <g transform="translate(26.2875 298.695703)scale(0.15 -0.15)">
       <use xlink:href="#DejaVuSans-48"/>
      </g>
     </g>
    </g>
    <g id="ytick_2">
     <g id="line2d_8">
      <g>
       <use style="stroke:#000000;stroke-width:0.8;" x="42.83125" xlink:href="#mc7c9c5d28e" y="252.337913"/>
      </g>
     </g>
     <g id="text_8">
      <!-- 50 -->
      <g transform="translate(16.74375 258.036742)scale(0.15 -0.15)">
       <defs>
        <path d="M 10.796875 72.90625 
L 49.515625 72.90625 
L 49.515625 64.59375 
L 19.828125 64.59375 
L 19.828125 46.734375 
Q 21.96875 47.46875 24.109375 47.828125 
Q 26.265625 48.1875 28.421875 48.1875 
Q 40.625 48.1875 47.75 41.5 
Q 54.890625 34.8125 54.890625 23.390625 
Q 54.890625 11.625 47.5625 5.09375 
Q 40.234375 -1.421875 26.90625 -1.421875 
Q 22.3125 -1.421875 17.546875 -0.640625 
Q 12.796875 0.140625 7.71875 1.703125 
L 7.71875 11.625 
Q 12.109375 9.234375 16.796875 8.0625 
Q 21.484375 6.890625 26.703125 6.890625 
Q 35.15625 6.890625 40.078125 11.328125 
Q 45.015625 15.765625 45.015625 23.390625 
Q 45.015625 31 40.078125 35.4375 
Q 35.15625 39.890625 26.703125 39.890625 
Q 22.75 39.890625 18.8125 39.015625 
Q 14.890625 38.140625 10.796875 36.28125 
z
" id="DejaVuSans-53"/>
       </defs>
       <use xlink:href="#DejaVuSans-53"/>
       <use x="63.623047" xlink:href="#DejaVuSans-48"/>
      </g>
     </g>
    </g>
    <g id="ytick_3">
     <g id="line2d_9">
      <g>
       <use style="stroke:#000000;stroke-width:0.8;" x="42.83125" xlink:href="#mc7c9c5d28e" y="211.678952"/>
      </g>
     </g>
     <g id="text_9">
      <!-- 100 -->
      <g transform="translate(7.2 217.37778)scale(0.15 -0.15)">
       <use xlink:href="#DejaVuSans-49"/>
       <use x="63.623047" xlink:href="#DejaVuSans-48"/>
       <use x="127.246094" xlink:href="#DejaVuSans-48"/>
      </g>
     </g>
    </g>
    <g id="ytick_4">
     <g id="line2d_10">
      <g>
       <use style="stroke:#000000;stroke-width:0.8;" x="42.83125" xlink:href="#mc7c9c5d28e" y="171.01999"/>
      </g>
     </g>
     <g id="text_10">
      <!-- 150 -->
      <g transform="translate(7.2 176.718819)scale(0.15 -0.15)">
       <use xlink:href="#DejaVuSans-49"/>
       <use x="63.623047" xlink:href="#DejaVuSans-53"/>
       <use x="127.246094" xlink:href="#DejaVuSans-48"/>
      </g>
     </g>
    </g>
    <g id="ytick_5">
     <g id="line2d_11">
      <g>
       <use style="stroke:#000000;stroke-width:0.8;" x="42.83125" xlink:href="#mc7c9c5d28e" y="130.361029"/>
      </g>
     </g>
     <g id="text_11">
      <!-- 200 -->
      <g transform="translate(7.2 136.059857)scale(0.15 -0.15)">
       <use xlink:href="#DejaVuSans-50"/>
       <use x="63.623047" xlink:href="#DejaVuSans-48"/>
       <use x="127.246094" xlink:href="#DejaVuSans-48"/>
      </g>
     </g>
    </g>
    <g id="ytick_6">
     <g id="line2d_12">
      <g>
       <use style="stroke:#000000;stroke-width:0.8;" x="42.83125" xlink:href="#mc7c9c5d28e" y="89.702067"/>
      </g>
     </g>
     <g id="text_12">
      <!-- 250 -->
      <g transform="translate(7.2 95.400896)scale(0.15 -0.15)">
       <use xlink:href="#DejaVuSans-50"/>
       <use x="63.623047" xlink:href="#DejaVuSans-53"/>
       <use x="127.246094" xlink:href="#DejaVuSans-48"/>
      </g>
     </g>
    </g>
    <g id="ytick_7">
     <g id="line2d_13">
      <g>
       <use style="stroke:#000000;stroke-width:0.8;" x="42.83125" xlink:href="#mc7c9c5d28e" y="49.043106"/>
      </g>
     </g>
     <g id="text_13">
      <!-- 300 -->
      <g transform="translate(7.2 54.741934)scale(0.15 -0.15)">
       <defs>
        <path d="M 40.578125 39.3125 
Q 47.65625 37.796875 51.625 33 
Q 55.609375 28.21875 55.609375 21.1875 
Q 55.609375 10.40625 48.1875 4.484375 
Q 40.765625 -1.421875 27.09375 -1.421875 
Q 22.515625 -1.421875 17.65625 -0.515625 
Q 12.796875 0.390625 7.625 2.203125 
L 7.625 11.71875 
Q 11.71875 9.328125 16.59375 8.109375 
Q 21.484375 6.890625 26.8125 6.890625 
Q 36.078125 6.890625 40.9375 10.546875 
Q 45.796875 14.203125 45.796875 21.1875 
Q 45.796875 27.640625 41.28125 31.265625 
Q 36.765625 34.90625 28.71875 34.90625 
L 20.21875 34.90625 
L 20.21875 43.015625 
L 29.109375 43.015625 
Q 36.375 43.015625 40.234375 45.921875 
Q 44.09375 48.828125 44.09375 54.296875 
Q 44.09375 59.90625 40.109375 62.90625 
Q 36.140625 65.921875 28.71875 65.921875 
Q 24.65625 65.921875 20.015625 65.03125 
Q 15.375 64.15625 9.8125 62.3125 
L 9.8125 71.09375 
Q 15.4375 72.65625 20.34375 73.4375 
Q 25.25 74.21875 29.59375 74.21875 
Q 40.828125 74.21875 47.359375 69.109375 
Q 53.90625 64.015625 53.90625 55.328125 
Q 53.90625 49.265625 50.4375 45.09375 
Q 46.96875 40.921875 40.578125 39.3125 
z
" id="DejaVuSans-51"/>
       </defs>
       <use xlink:href="#DejaVuSans-51"/>
       <use x="63.623047" xlink:href="#DejaVuSans-48"/>
       <use x="127.246094" xlink:href="#DejaVuSans-48"/>
      </g>
     </g>
    </g>
   </g>
   <g id="line2d_14">
    <path clip-path="url(#p76319c2997)" d="M 60.585795 292.996875 
L 60.941242 291.074524 
L 61.296688 286.253233 
L 62.007581 271.958949 
L 64.495705 216.655559 
L 65.562044 197.728681 
L 66.628383 182.068588 
L 67.694723 169.266626 
L 68.761062 158.915673 
L 69.827401 150.697239 
L 70.89374 144.425177 
L 71.604632 141.31092 
L 72.315525 139.100386 
L 72.670972 138.361165 
L 73.026418 137.885435 
L 73.381864 137.690078 
L 73.737311 137.792818 
L 74.092757 138.2111 
L 74.448203 138.960754 
L 75.159096 141.500737 
L 75.869989 145.453966 
L 76.580881 150.759519 
L 77.647221 160.861083 
L 79.069006 176.898543 
L 81.912577 209.737872 
L 83.334362 223.850148 
L 84.756148 235.766743 
L 86.177933 245.495445 
L 87.244272 251.449485 
L 88.310611 256.342499 
L 89.37695 260.247555 
L 90.443289 263.220364 
L 91.154182 264.701912 
L 91.865075 265.788734 
L 92.575967 266.480459 
L 93.28686 266.772631 
L 93.997753 266.65752 
L 94.708646 266.125333 
L 95.419538 265.165906 
L 96.130431 263.770847 
L 96.841324 261.936093 
L 97.907663 258.368857 
L 98.974002 253.876225 
L 100.395787 246.667279 
L 102.528465 234.324393 
L 104.661144 222.363051 
L 105.727483 217.387392 
L 106.793822 213.504492 
L 107.504714 211.647786 
L 108.215607 210.439084 
L 108.571053 210.087812 
L 108.9265 209.907598 
L 109.281946 209.898171 
L 109.637393 210.057604 
L 109.992839 210.38232 
L 110.703732 211.505403 
L 111.414624 213.208717 
L 112.480963 216.677093 
L 113.902749 222.511978 
L 118.878998 244.386494 
L 120.300783 249.203182 
L 121.367122 252.143203 
L 122.433461 254.464758 
L 123.4998 256.142262 
L 124.210693 256.892978 
L 124.921586 257.343967 
L 125.632479 257.491416 
L 126.343371 257.332785 
L 127.054264 256.867403 
L 127.765157 256.097267 
L 128.476049 255.027987 
L 129.542388 252.887081 
L 130.608727 250.156637 
L 132.030513 245.765663 
L 134.518637 236.994804 
L 136.295869 231.00573 
L 137.362208 227.97644 
L 138.428547 225.594299 
L 139.13944 224.436636 
L 139.850333 223.657939 
L 140.561225 223.274209 
L 141.272118 223.288328 
L 141.983011 223.689981 
L 142.693904 224.45641 
L 143.404796 225.553958 
L 144.471135 227.72668 
L 145.892921 231.34307 
L 151.224616 245.931937 
L 152.646402 248.796027 
L 153.712741 250.452555 
L 154.77908 251.645943 
L 155.489972 252.171433 
L 156.200865 252.474921 
L 156.911758 252.553689 
L 157.62265 252.40728 
L 158.333543 252.037769 
L 159.044436 251.450108 
L 160.110775 250.178546 
L 161.177114 248.478978 
L 162.598899 245.661182 
L 164.731578 240.705284 
L 167.219702 234.973725 
L 168.641488 232.32594 
L 169.707827 230.84869 
L 170.418719 230.152692 
L 171.129612 229.706255 
L 171.840505 229.516845 
L 172.551397 229.584201 
L 173.26229 229.900495 
L 173.973183 230.450876 
L 175.039522 231.668036 
L 176.105861 233.272917 
L 177.527646 235.831948 
L 182.148449 244.575082 
L 183.570234 246.639101 
L 184.636574 247.839383 
L 185.702913 248.702584 
L 186.769252 249.205831 
L 187.480144 249.335017 
L 188.191037 249.297917 
L 188.90193 249.096055 
L 189.968269 248.493669 
L 191.034608 247.554354 
L 192.100947 246.316272 
L 193.522732 244.29328 
L 196.010857 240.206899 
L 198.143535 236.853214 
L 199.56532 235.060355 
L 200.63166 234.071885 
L 201.697999 233.444999 
L 202.408891 233.242063 
L 203.119784 233.214039 
L 203.830677 233.358036 
L 204.897016 233.879119 
L 205.963355 234.727473 
L 207.38514 236.265186 
L 209.162372 238.604112 
L 212.716836 243.394008 
L 214.138621 244.941453 
L 215.20496 245.860471 
L 216.271299 246.537891 
L 217.337638 246.952984 
L 218.403977 247.094585 
L 219.470316 246.961243 
L 220.536655 246.56147 
L 221.602994 245.914001 
L 223.02478 244.717046 
L 224.802012 242.824965 
L 229.067368 237.975569 
L 230.489153 236.762836 
L 231.555492 236.111821 
L 232.621831 235.717169 
L 233.688171 235.593904 
L 234.75451 235.741203 
L 235.820849 236.142999 
L 236.887188 236.769795 
L 238.308973 237.884938 
L 240.441651 239.919588 
L 243.640669 242.978274 
L 245.062454 244.066428 
L 246.484239 244.874605 
L 247.550578 245.265988 
L 248.616917 245.459041 
L 249.683257 245.449417 
L 250.749596 245.240705 
L 251.815935 244.844445 
L 253.23772 244.058858 
L 255.014952 242.759979 
L 260.346647 238.517611 
L 261.768433 237.768067 
L 262.834772 237.404931 
L 263.901111 237.229925 
L 264.96745 237.247436 
L 266.033789 237.451309 
L 267.455574 237.9843 
L 268.87736 238.759498 
L 271.010038 240.20346 
L 274.564501 242.641481 
L 276.341733 243.559322 
L 277.763519 244.048415 
L 279.185304 244.285317 
L 280.607089 244.258727 
L 282.028875 243.97683 
L 283.45066 243.466843 
L 285.227892 242.57829 
L 291.625926 239.016384 
L 293.047712 238.572013 
L 294.469497 238.358625 
L 295.891283 238.387989 
L 297.313068 238.649123 
L 299.0903 239.251777 
L 301.222978 240.24972 
L 305.843781 242.50097 
L 307.621012 243.087024 
L 309.042798 243.363549 
L 310.464583 243.450193 
L 311.886369 243.345177 
L 313.663601 242.965394 
L 315.796279 242.22176 
L 322.549759 239.54822 
L 324.326991 239.213953 
L 326.104223 239.145798 
L 327.881455 239.342334 
L 329.658687 239.765751 
L 332.146811 240.609645 
L 336.412167 242.115171 
L 338.544845 242.613028 
L 340.322077 242.808895 
L 342.099309 242.786074 
L 343.876541 242.554581 
L 346.009219 242.052788 
L 353.829039 239.892858 
L 355.60627 239.71943 
L 357.383502 239.739966 
L 359.51618 240.00409 
L 362.004305 240.558271 
L 368.046893 242.047465 
L 370.179571 242.315645 
L 372.312249 242.359885 
L 374.444927 242.181534 
L 376.933052 241.748564 
L 384.397425 240.253987 
L 386.530103 240.114318 
L 388.662782 240.174857 
L 391.150906 240.468769 
L 395.416262 241.266397 
L 398.970726 241.840139 
L 401.45885 242.026877 
L 403.946975 241.989283 
L 406.790546 241.699654 
L 415.676705 240.460573 
L 415.676705 240.460573 
" style="fill:none;stroke:#1f77b4;stroke-linecap:square;stroke-width:2;"/>
   </g>
   <g id="line2d_15">
    <path clip-path="url(#p76319c2997)" d="M 60.585795 292.996875 
L 61.652135 289.841887 
L 62.363027 288.783827 
L 63.07392 288.372699 
L 63.784813 288.285224 
L 66.628383 288.356639 
L 67.694723 288.020012 
L 68.405615 287.587449 
L 69.116508 286.9461 
L 69.827401 286.053958 
L 70.538293 284.862974 
L 71.249186 283.319389 
L 71.960079 281.365304 
L 72.670972 278.94169 
L 73.737311 274.30665 
L 74.80365 268.351446 
L 75.869989 261.034605 
L 77.291774 249.358481 
L 79.424452 229.251441 
L 81.55713 209.344247 
L 82.978916 198.110092 
L 84.045255 191.481797 
L 84.756148 188.129236 
L 85.46704 185.744585 
L 86.177933 184.406998 
L 86.533379 184.148143 
L 86.888826 184.167168 
L 87.244272 184.463975 
L 87.599718 185.035291 
L 88.310611 186.971699 
L 89.021504 189.884343 
L 90.087843 195.772407 
L 91.509628 205.530464 
L 95.419538 233.751888 
L 96.841324 242.213008 
L 98.263109 249.237863 
L 99.329448 253.537934 
L 100.395787 257.013465 
L 101.462126 259.673734 
L 102.173019 260.996748 
L 102.883912 261.958576 
L 103.594804 262.556417 
L 104.305697 262.785852 
L 105.01659 262.641465 
L 105.727483 262.117836 
L 106.438375 261.210885 
L 107.149268 259.919532 
L 107.860161 258.247588 
L 108.9265 255.051727 
L 109.992839 251.099934 
L 111.414624 244.885117 
L 116.035427 223.458134 
L 117.101766 219.879672 
L 117.812659 218.062027 
L 118.523551 216.75843 
L 119.234444 216.001412 
L 119.58989 215.83286 
L 119.945337 215.804422 
L 120.300783 215.914601 
L 121.011676 216.538527 
L 121.722569 217.668305 
L 122.433461 219.250852 
L 123.4998 222.326952 
L 124.921586 227.341643 
L 129.542388 244.529747 
L 130.964174 248.678592 
L 132.030513 251.20582 
L 133.096852 253.183325 
L 134.163191 254.580737 
L 134.874084 255.179035 
L 135.584976 255.505109 
L 136.295869 255.555933 
L 137.006762 255.330382 
L 137.717655 254.829725 
L 138.428547 254.058264 
L 139.13944 253.024064 
L 140.205779 251.00901 
L 141.272118 248.497088 
L 142.693904 244.542397 
L 147.314706 230.910069 
L 148.381045 228.599757 
L 149.091938 227.404909 
L 149.802831 226.522107 
L 150.513723 225.971285 
L 151.224616 225.7618 
L 151.935509 225.892053 
L 152.646402 226.349722 
L 153.357294 227.112631 
L 154.423633 228.760476 
L 155.489972 230.895657 
L 157.267204 235.137161 
L 160.821668 243.865088 
L 162.243453 246.732206 
L 163.309792 248.485243 
L 164.376131 249.845846 
L 165.44247 250.781327 
L 166.153363 251.157837 
L 166.864256 251.332119 
L 167.575148 251.302822 
L 168.286041 251.070994 
L 168.996934 250.640324 
L 170.063273 249.636782 
L 171.129612 248.237414 
L 172.551397 245.851566 
L 174.328629 242.29437 
L 177.527646 235.732457 
L 178.949432 233.407397 
L 180.015771 232.112394 
L 180.726664 231.502701 
L 181.437556 231.111682 
L 182.148449 230.945686 
L 182.859342 231.004492 
L 183.570234 231.281456 
L 184.281127 231.763963 
L 185.347466 232.832815 
L 186.413805 234.245473 
L 187.835591 236.505237 
L 192.456393 244.281655 
L 193.878179 246.124089 
L 194.944518 247.1933 
L 196.010857 247.957985 
L 197.077196 248.39691 
L 198.143535 248.499446 
L 199.209874 248.265817 
L 200.276213 247.707649 
L 201.342552 246.848644 
L 202.408891 245.725081 
L 203.830677 243.901619 
L 206.674248 239.726063 
L 208.451479 237.282648 
L 209.873265 235.70848 
L 210.939604 234.847162 
L 212.005943 234.307515 
L 212.716836 234.138234 
L 213.427728 234.123558 
L 214.494067 234.384322 
L 215.560406 234.960353 
L 216.626745 235.809373 
L 218.048531 237.269829 
L 220.181209 239.854972 
L 223.02478 243.243082 
L 224.446565 244.620352 
L 225.868351 245.658264 
L 226.93469 246.175759 
L 228.001029 246.451336 
L 229.067368 246.478332 
L 230.133707 246.259268 
L 231.200046 245.806012 
L 232.266385 245.139846 
L 233.688171 243.974415 
L 235.820849 241.835457 
L 239.019866 238.573651 
L 240.441651 237.432647 
L 241.50799 236.796502 
L 242.574329 236.382672 
L 243.640669 236.20797 
L 244.707008 236.27541 
L 245.773347 236.574435 
L 246.839686 237.08219 
L 248.261471 238.025691 
L 250.038703 239.493294 
L 253.948613 242.859301 
L 255.370398 243.825288 
L 256.792184 244.536546 
L 258.213969 244.948397 
L 259.280308 245.046539 
L 260.346647 244.962356 
L 261.768433 244.578631 
L 263.190218 243.918098 
L 264.96745 242.790882 
L 271.010038 238.56598 
L 272.431823 237.976633 
L 273.853609 237.672789 
L 274.919948 237.644547 
L 276.341733 237.867314 
L 277.763519 238.35756 
L 279.54075 239.262609 
L 282.384321 241.051604 
L 284.872446 242.541262 
L 286.649678 243.353143 
L 288.071463 243.779495 
L 289.493248 243.977437 
L 290.915034 243.937865 
L 292.336819 243.669497 
L 294.114051 243.053391 
L 296.246729 242.018441 
L 300.867532 239.619191 
L 302.644764 238.993544 
L 304.066549 238.709899 
L 305.488334 238.641213 
L 306.91012 238.786501 
L 308.687352 239.236426 
L 310.82003 240.067385 
L 316.507171 242.519859 
L 318.284403 242.989883 
L 320.061635 243.20753 
L 321.838867 243.155019 
L 323.616098 242.847348 
L 325.748777 242.207623 
L 333.21315 239.619107 
L 334.990382 239.378094 
L 336.767614 239.378271 
L 338.544845 239.609857 
L 340.677524 240.13392 
L 344.587433 241.413454 
L 347.431004 242.215384 
L 349.563682 242.570542 
L 351.340914 242.657692 
L 353.118146 242.549193 
L 355.250824 242.190311 
L 358.094395 241.452897 
L 362.359751 240.3181 
L 364.492429 239.968496 
L 366.625107 239.855287 
L 368.757786 239.98922 
L 371.24591 240.405776 
L 379.776623 242.149261 
L 381.909301 242.248442 
L 384.041979 242.143285 
L 386.530103 241.800421 
L 395.771709 240.256978 
L 398.259833 240.242755 
L 400.747958 240.458134 
L 404.302421 241.022544 
L 408.923224 241.743238 
L 411.766795 241.94165 
L 414.254919 241.899935 
L 415.676705 241.791184 
L 415.676705 241.791184 
" style="fill:none;stroke:#ff7f0e;stroke-linecap:square;stroke-width:2;"/>
   </g>
   <g id="line2d_16">
    <path clip-path="url(#p76319c2997)" d="M 60.585795 292.996875 
L 60.941242 199.142165 
L 61.296688 135.519758 
L 61.652135 93.237656 
L 62.007581 66.232621 
L 62.363027 50.361991 
L 62.718474 42.681174 
L 63.07392 40.996875 
L 63.429366 43.635508 
L 63.784813 49.317127 
L 64.495705 66.16849 
L 68.050169 162.416081 
L 69.116508 184.323973 
L 70.182847 202.618535 
L 71.249186 217.764644 
L 72.315525 230.239279 
L 73.381864 240.473415 
L 74.448203 248.834201 
L 75.514542 255.622476 
L 76.580881 261.075946 
L 77.647221 265.374368 
L 78.71356 268.645023 
L 79.424452 270.295617 
L 80.135345 271.538286 
L 80.846238 272.37741 
L 81.55713 272.809688 
L 82.268023 272.824904 
L 82.978916 272.407063 
L 83.689809 271.536077 
L 84.400701 270.190123 
L 85.111594 268.348731 
L 85.822487 265.99654 
L 86.888826 261.500835 
L 87.955165 255.885819 
L 89.37695 246.903425 
L 91.509628 231.544643 
L 93.642307 216.651148 
L 94.708646 210.423405 
L 95.774985 205.520815 
L 96.485877 203.145646 
L 97.19677 201.56882 
L 97.552216 201.094739 
L 97.907663 200.834535 
L 98.263109 200.788892 
L 98.618555 200.956303 
L 98.974002 201.333025 
L 99.684895 202.688356 
L 100.395787 204.78224 
L 101.10668 207.513777 
L 102.173019 212.540692 
L 103.950251 222.329685 
L 106.793822 237.979549 
L 108.215607 244.648738 
L 109.637393 250.200391 
L 110.703732 253.567574 
L 111.770071 256.227408 
L 112.83641 258.165801 
L 113.547302 259.050901 
L 114.258195 259.605557 
L 114.969088 259.825595 
L 115.679981 259.707184 
L 116.390873 259.247575 
L 117.101766 258.446114 
L 117.812659 257.30548 
L 118.878998 254.97637 
L 119.945337 251.954231 
L 121.367122 247.011874 
L 123.4998 238.387859 
L 125.632479 229.825858 
L 127.054264 225.09936 
L 128.120603 222.440437 
L 128.831496 221.183415 
L 129.542388 220.377291 
L 130.253281 220.038178 
L 130.608727 220.044381 
L 131.31962 220.40066 
L 132.030513 221.19391 
L 132.741406 222.386155 
L 133.807745 224.812206 
L 135.22953 228.923574 
L 140.916672 246.683786 
L 141.983011 249.138326 
L 143.04935 251.124167 
L 144.115689 252.602609 
L 144.826582 253.292439 
L 145.537474 253.738697 
L 146.248367 253.937523 
L 146.95926 253.887059 
L 147.670153 253.58774 
L 148.381045 253.042724 
L 149.091938 252.258386 
L 150.158277 250.656503 
L 151.224616 248.592746 
L 152.646402 245.259804 
L 155.134526 238.586463 
L 156.911758 234.007793 
L 158.333543 230.992571 
L 159.399882 229.312954 
L 160.110775 228.524637 
L 160.821668 228.022967 
L 161.53256 227.816485 
L 162.243453 227.904568 
L 162.954346 228.277624 
L 163.665239 228.917761 
L 164.731578 230.32224 
L 165.797917 232.162573 
L 167.219702 235.079176 
L 171.485058 244.270837 
L 172.906844 246.711624 
L 173.973183 248.171625 
L 175.039522 249.268401 
L 176.105861 249.973974 
L 176.816754 250.218288 
L 177.527646 250.278844 
L 178.238539 250.155737 
L 178.949432 249.851516 
L 180.015771 249.067718 
L 181.08211 247.918446 
L 182.148449 246.44901 
L 183.570234 244.10022 
L 188.546483 235.257872 
L 189.612822 233.88405 
L 190.679162 232.882293 
L 191.390054 232.4466 
L 192.100947 232.206823 
L 192.81184 232.165435 
L 193.522732 232.319328 
L 194.233625 232.660072 
L 195.299964 233.491382 
L 196.366303 234.650965 
L 197.788089 236.575379 
L 203.47523 244.901036 
L 204.897016 246.335523 
L 205.963355 247.104178 
L 207.029694 247.583234 
L 208.096033 247.760014 
L 209.162372 247.632098 
L 210.228711 247.207669 
L 211.29505 246.505954 
L 212.361389 245.557524 
L 213.783175 243.983022 
L 215.915853 241.227054 
L 218.403977 238.053805 
L 219.825763 236.578407 
L 220.892102 235.740502 
L 221.958441 235.179472 
L 223.02478 234.919527 
L 224.091119 234.966837 
L 225.157458 235.309622 
L 226.223797 235.919764 
L 227.645583 237.075833 
L 229.422814 238.893855 
L 233.688171 243.436577 
L 235.109956 244.590938 
L 236.531741 245.420903 
L 237.59808 245.799856 
L 238.66442 245.956976 
L 239.730759 245.889648 
L 240.797098 245.603853 
L 241.863437 245.114215 
L 243.285222 244.185445 
L 245.062454 242.693208 
L 250.038703 238.256714 
L 251.460488 237.398916 
L 252.526827 236.976428 
L 253.593166 236.764128 
L 254.659506 236.767886 
L 255.725845 236.981536 
L 256.792184 237.387733 
L 258.213969 238.181283 
L 259.991201 239.458595 
L 264.612003 242.980341 
L 266.033789 243.783985 
L 267.455574 244.343915 
L 268.87736 244.625505 
L 270.299145 244.614971 
L 271.720931 244.319777 
L 273.142716 243.768315 
L 274.919948 242.793379 
L 277.763519 240.893132 
L 280.251643 239.331688 
L 281.673429 238.651997 
L 283.095214 238.201325 
L 284.516999 238.01357 
L 285.938785 238.097093 
L 287.36057 238.434775 
L 288.782356 238.987073 
L 290.915034 240.091139 
L 295.535836 242.609388 
L 297.313068 243.274898 
L 298.734854 243.595662 
L 300.156639 243.706322 
L 301.578424 243.603783 
L 303.00021 243.301121 
L 304.777442 242.685917 
L 307.265566 241.54039 
L 310.82003 239.883055 
L 312.597261 239.287605 
L 314.374493 238.956669 
L 315.796279 238.90759 
L 317.218064 239.049291 
L 318.995296 239.464279 
L 321.127974 240.218104 
L 326.815116 242.410768 
L 328.592347 242.822308 
L 330.369579 243.00511 
L 332.146811 242.944692 
L 333.924043 242.656312 
L 336.056721 242.071384 
L 343.165648 239.828171 
L 344.94288 239.581574 
L 346.720112 239.549685 
L 348.497343 239.728262 
L 350.630021 240.172737 
L 354.184485 241.205949 
L 357.383502 242.055215 
L 359.51618 242.402124 
L 361.648859 242.505687 
L 363.781537 242.357594 
L 366.269661 241.917549 
L 374.800374 240.082281 
L 376.933052 239.990809 
L 379.06573 240.120262 
L 381.553854 240.50175 
L 390.084567 242.057334 
L 392.572691 242.1333 
L 395.060816 241.963991 
L 398.259833 241.47659 
L 404.302421 240.481691 
L 406.790546 240.321565 
L 409.27867 240.379274 
L 412.122241 240.675834 
L 415.676705 241.221259 
L 415.676705 241.221259 
" style="fill:none;stroke:#2ca02c;stroke-linecap:square;stroke-width:2;"/>
   </g>
   <g id="patch_3">
    <path d="M 42.83125 305.596875 
L 42.83125 28.396875 
" style="fill:none;stroke:#000000;stroke-linecap:square;stroke-linejoin:miter;stroke-width:0.8;"/>
   </g>
   <g id="patch_4">
    <path d="M 433.43125 305.596875 
L 433.43125 28.396875 
" style="fill:none;stroke:#000000;stroke-linecap:square;stroke-linejoin:miter;stroke-width:0.8;"/>
   </g>
   <g id="patch_5">
    <path d="M 42.83125 305.596875 
L 433.43125 305.596875 
" style="fill:none;stroke:#000000;stroke-linecap:square;stroke-linejoin:miter;stroke-width:0.8;"/>
   </g>
   <g id="patch_6">
    <path d="M 42.83125 28.396875 
L 433.43125 28.396875 
" style="fill:none;stroke:#000000;stroke-linecap:square;stroke-linejoin:miter;stroke-width:0.8;"/>
   </g>
   <g id="text_14">
    <!-- Timecourse after pre-processing -->
    <g transform="translate(54.240625 22.396875)scale(0.2 -0.2)">
     <defs>
      <path d="M 0.484375 72.90625 
L 67.671875 72.90625 
L 67.671875 58.6875 
L 43.5 58.6875 
L 43.5 0 
L 24.703125 0 
L 24.703125 58.6875 
L 0.484375 58.6875 
z
" id="DejaVuSans-Bold-84"/>
      <path d="M 8.40625 54.6875 
L 25.875 54.6875 
L 25.875 0 
L 8.40625 0 
z
M 8.40625 75.984375 
L 25.875 75.984375 
L 25.875 61.71875 
L 8.40625 61.71875 
z
" id="DejaVuSans-Bold-105"/>
      <path d="M 59.078125 45.609375 
Q 62.40625 50.6875 66.96875 53.34375 
Q 71.53125 56 77 56 
Q 86.421875 56 91.359375 50.1875 
Q 96.296875 44.390625 96.296875 33.296875 
L 96.296875 0 
L 78.71875 0 
L 78.71875 28.515625 
Q 78.765625 29.15625 78.78125 29.828125 
Q 78.8125 30.515625 78.8125 31.78125 
Q 78.8125 37.59375 77.09375 40.203125 
Q 75.390625 42.828125 71.578125 42.828125 
Q 66.609375 42.828125 63.890625 38.71875 
Q 61.1875 34.625 61.078125 26.859375 
L 61.078125 0 
L 43.5 0 
L 43.5 28.515625 
Q 43.5 37.59375 41.9375 40.203125 
Q 40.375 42.828125 36.375 42.828125 
Q 31.34375 42.828125 28.609375 38.703125 
Q 25.875 34.578125 25.875 26.90625 
L 25.875 0 
L 8.296875 0 
L 8.296875 54.6875 
L 25.875 54.6875 
L 25.875 46.6875 
Q 29.109375 51.3125 33.28125 53.65625 
Q 37.453125 56 42.484375 56 
Q 48.140625 56 52.484375 53.265625 
Q 56.84375 50.53125 59.078125 45.609375 
z
" id="DejaVuSans-Bold-109"/>
      <path d="M 62.984375 27.484375 
L 62.984375 22.515625 
L 22.125 22.515625 
Q 22.75 16.359375 26.5625 13.28125 
Q 30.375 10.203125 37.203125 10.203125 
Q 42.71875 10.203125 48.5 11.84375 
Q 54.296875 13.484375 60.40625 16.796875 
L 60.40625 3.328125 
Q 54.203125 0.984375 48 -0.21875 
Q 41.796875 -1.421875 35.59375 -1.421875 
Q 20.75 -1.421875 12.515625 6.125 
Q 4.296875 13.671875 4.296875 27.296875 
Q 4.296875 40.671875 12.375 48.328125 
Q 20.453125 56 34.625 56 
Q 47.515625 56 55.25 48.234375 
Q 62.984375 40.484375 62.984375 27.484375 
z
M 45.015625 33.296875 
Q 45.015625 38.28125 42.109375 41.328125 
Q 39.203125 44.390625 34.515625 44.390625 
Q 29.4375 44.390625 26.265625 41.53125 
Q 23.09375 38.671875 22.3125 33.296875 
z
" id="DejaVuSans-Bold-101"/>
      <path d="M 52.59375 52.984375 
L 52.59375 38.71875 
Q 49.03125 41.15625 45.4375 42.328125 
Q 41.84375 43.5 37.984375 43.5 
Q 30.671875 43.5 26.59375 39.234375 
Q 22.515625 34.96875 22.515625 27.296875 
Q 22.515625 19.625 26.59375 15.34375 
Q 30.671875 11.078125 37.984375 11.078125 
Q 42.09375 11.078125 45.78125 12.296875 
Q 49.46875 13.53125 52.59375 15.921875 
L 52.59375 1.609375 
Q 48.484375 0.09375 44.265625 -0.65625 
Q 40.046875 -1.421875 35.796875 -1.421875 
Q 21 -1.421875 12.640625 6.171875 
Q 4.296875 13.765625 4.296875 27.296875 
Q 4.296875 40.828125 12.640625 48.40625 
Q 21 56 35.796875 56 
Q 40.09375 56 44.265625 55.25 
Q 48.4375 54.5 52.59375 52.984375 
z
" id="DejaVuSans-Bold-99"/>
      <path d="M 34.421875 43.5 
Q 28.609375 43.5 25.5625 39.328125 
Q 22.515625 35.15625 22.515625 27.296875 
Q 22.515625 19.4375 25.5625 15.25 
Q 28.609375 11.078125 34.421875 11.078125 
Q 40.140625 11.078125 43.15625 15.25 
Q 46.1875 19.4375 46.1875 27.296875 
Q 46.1875 35.15625 43.15625 39.328125 
Q 40.140625 43.5 34.421875 43.5 
z
M 34.421875 56 
Q 48.53125 56 56.46875 48.375 
Q 64.40625 40.765625 64.40625 27.296875 
Q 64.40625 13.8125 56.46875 6.1875 
Q 48.53125 -1.421875 34.421875 -1.421875 
Q 20.265625 -1.421875 12.28125 6.1875 
Q 4.296875 13.8125 4.296875 27.296875 
Q 4.296875 40.765625 12.28125 48.375 
Q 20.265625 56 34.421875 56 
z
" id="DejaVuSans-Bold-111"/>
      <path d="M 7.8125 21.296875 
L 7.8125 54.6875 
L 25.390625 54.6875 
L 25.390625 49.21875 
Q 25.390625 44.78125 25.34375 38.0625 
Q 25.296875 31.34375 25.296875 29.109375 
Q 25.296875 22.515625 25.640625 19.609375 
Q 25.984375 16.703125 26.8125 15.375 
Q 27.875 13.671875 29.609375 12.734375 
Q 31.34375 11.8125 33.59375 11.8125 
Q 39.0625 11.8125 42.1875 16.015625 
Q 45.3125 20.21875 45.3125 27.6875 
L 45.3125 54.6875 
L 62.796875 54.6875 
L 62.796875 0 
L 45.3125 0 
L 45.3125 7.90625 
Q 41.359375 3.125 36.9375 0.84375 
Q 32.515625 -1.421875 27.203125 -1.421875 
Q 17.71875 -1.421875 12.765625 4.390625 
Q 7.8125 10.203125 7.8125 21.296875 
z
" id="DejaVuSans-Bold-117"/>
      <path d="M 49.03125 39.796875 
Q 46.734375 40.875 44.453125 41.375 
Q 42.1875 41.890625 39.890625 41.890625 
Q 33.15625 41.890625 29.515625 37.5625 
Q 25.875 33.25 25.875 25.203125 
L 25.875 0 
L 8.40625 0 
L 8.40625 54.6875 
L 25.875 54.6875 
L 25.875 45.703125 
Q 29.25 51.078125 33.609375 53.53125 
Q 37.984375 56 44.09375 56 
Q 44.96875 56 45.984375 55.921875 
Q 47.015625 55.859375 48.96875 55.609375 
z
" id="DejaVuSans-Bold-114"/>
      <path d="M 51.125 52.984375 
L 51.125 39.703125 
Q 45.515625 42.046875 40.28125 43.21875 
Q 35.0625 44.390625 30.421875 44.390625 
Q 25.4375 44.390625 23.015625 43.140625 
Q 20.609375 41.890625 20.609375 39.3125 
Q 20.609375 37.203125 22.4375 36.078125 
Q 24.265625 34.96875 29 34.421875 
L 32.078125 33.984375 
Q 45.515625 32.28125 50.140625 28.375 
Q 54.78125 24.46875 54.78125 16.109375 
Q 54.78125 7.375 48.328125 2.96875 
Q 41.890625 -1.421875 29.109375 -1.421875 
Q 23.6875 -1.421875 17.890625 -0.5625 
Q 12.109375 0.296875 6 2 
L 6 15.28125 
Q 11.234375 12.75 16.71875 11.46875 
Q 22.21875 10.203125 27.875 10.203125 
Q 33.015625 10.203125 35.59375 11.609375 
Q 38.1875 13.03125 38.1875 15.828125 
Q 38.1875 18.171875 36.40625 19.3125 
Q 34.625 20.453125 29.296875 21.09375 
L 26.21875 21.484375 
Q 14.546875 22.953125 9.859375 26.90625 
Q 5.171875 30.859375 5.171875 38.921875 
Q 5.171875 47.609375 11.125 51.796875 
Q 17.09375 56 29.390625 56 
Q 34.234375 56 39.546875 55.265625 
Q 44.875 54.546875 51.125 52.984375 
z
" id="DejaVuSans-Bold-115"/>
      <path id="DejaVuSans-Bold-32"/>
      <path d="M 32.90625 24.609375 
Q 27.4375 24.609375 24.671875 22.75 
Q 21.921875 20.90625 21.921875 17.28125 
Q 21.921875 13.96875 24.140625 12.078125 
Q 26.375 10.203125 30.328125 10.203125 
Q 35.25 10.203125 38.625 13.734375 
Q 42 17.28125 42 22.609375 
L 42 24.609375 
z
M 59.625 31.203125 
L 59.625 0 
L 42 0 
L 42 8.109375 
Q 38.484375 3.125 34.078125 0.84375 
Q 29.6875 -1.421875 23.390625 -1.421875 
Q 14.890625 -1.421875 9.59375 3.53125 
Q 4.296875 8.5 4.296875 16.40625 
Q 4.296875 26.03125 10.90625 30.515625 
Q 17.53125 35.015625 31.6875 35.015625 
L 42 35.015625 
L 42 36.375 
Q 42 40.53125 38.71875 42.453125 
Q 35.453125 44.390625 28.515625 44.390625 
Q 22.90625 44.390625 18.0625 43.265625 
Q 13.234375 42.140625 9.078125 39.890625 
L 9.078125 53.21875 
Q 14.703125 54.59375 20.359375 55.296875 
Q 26.03125 56 31.6875 56 
Q 46.484375 56 53.046875 50.171875 
Q 59.625 44.34375 59.625 31.203125 
z
" id="DejaVuSans-Bold-97"/>
      <path d="M 44.390625 75.984375 
L 44.390625 64.5 
L 34.71875 64.5 
Q 31 64.5 29.53125 63.15625 
Q 28.078125 61.8125 28.078125 58.5 
L 28.078125 54.6875 
L 43.015625 54.6875 
L 43.015625 42.1875 
L 28.078125 42.1875 
L 28.078125 0 
L 10.59375 0 
L 10.59375 42.1875 
L 1.90625 42.1875 
L 1.90625 54.6875 
L 10.59375 54.6875 
L 10.59375 58.5 
Q 10.59375 67.4375 15.578125 71.703125 
Q 20.5625 75.984375 31 75.984375 
z
" id="DejaVuSans-Bold-102"/>
      <path d="M 27.484375 70.21875 
L 27.484375 54.6875 
L 45.515625 54.6875 
L 45.515625 42.1875 
L 27.484375 42.1875 
L 27.484375 19 
Q 27.484375 15.1875 29 13.84375 
Q 30.515625 12.5 35.015625 12.5 
L 44 12.5 
L 44 0 
L 29 0 
Q 18.65625 0 14.328125 4.3125 
Q 10.015625 8.640625 10.015625 19 
L 10.015625 42.1875 
L 1.3125 42.1875 
L 1.3125 54.6875 
L 10.015625 54.6875 
L 10.015625 70.21875 
z
" id="DejaVuSans-Bold-116"/>
      <path d="M 25.875 7.90625 
L 25.875 -20.796875 
L 8.40625 -20.796875 
L 8.40625 54.6875 
L 25.875 54.6875 
L 25.875 46.6875 
Q 29.5 51.46875 33.890625 53.734375 
Q 38.28125 56 44 56 
Q 54.109375 56 60.59375 47.96875 
Q 67.09375 39.9375 67.09375 27.296875 
Q 67.09375 14.65625 60.59375 6.609375 
Q 54.109375 -1.421875 44 -1.421875 
Q 38.28125 -1.421875 33.890625 0.84375 
Q 29.5 3.125 25.875 7.90625 
z
M 37.5 43.3125 
Q 31.890625 43.3125 28.875 39.1875 
Q 25.875 35.0625 25.875 27.296875 
Q 25.875 19.53125 28.875 15.40625 
Q 31.890625 11.28125 37.5 11.28125 
Q 43.109375 11.28125 46.0625 15.375 
Q 49.03125 19.484375 49.03125 27.296875 
Q 49.03125 35.109375 46.0625 39.203125 
Q 43.109375 43.3125 37.5 43.3125 
z
" id="DejaVuSans-Bold-112"/>
      <path d="M 5.421875 35.890625 
L 36.078125 35.890625 
L 36.078125 21.6875 
L 5.421875 21.6875 
z
" id="DejaVuSans-Bold-45"/>
      <path d="M 63.375 33.296875 
L 63.375 0 
L 45.796875 0 
L 45.796875 5.421875 
L 45.796875 25.484375 
Q 45.796875 32.5625 45.484375 35.25 
Q 45.171875 37.9375 44.390625 39.203125 
Q 43.359375 40.921875 41.59375 41.875 
Q 39.84375 42.828125 37.59375 42.828125 
Q 32.125 42.828125 29 38.59375 
Q 25.875 34.375 25.875 26.90625 
L 25.875 0 
L 8.40625 0 
L 8.40625 54.6875 
L 25.875 54.6875 
L 25.875 46.6875 
Q 29.828125 51.46875 34.265625 53.734375 
Q 38.71875 56 44.09375 56 
Q 53.5625 56 58.46875 50.1875 
Q 63.375 44.390625 63.375 33.296875 
z
" id="DejaVuSans-Bold-110"/>
      <path d="M 45.609375 9.28125 
Q 42 4.5 37.640625 2.25 
Q 33.296875 0 27.59375 0 
Q 17.578125 0 11.03125 7.875 
Q 4.5 15.765625 4.5 27.984375 
Q 4.5 40.234375 11.03125 48.0625 
Q 17.578125 55.90625 27.59375 55.90625 
Q 33.296875 55.90625 37.640625 53.65625 
Q 42 51.421875 45.609375 46.578125 
L 45.609375 54.6875 
L 63.1875 54.6875 
L 63.1875 5.515625 
Q 63.1875 -7.671875 54.859375 -14.625 
Q 46.53125 -21.578125 30.71875 -21.578125 
Q 25.59375 -21.578125 20.796875 -20.796875 
Q 16.015625 -20.015625 11.1875 -18.40625 
L 11.1875 -4.78125 
Q 15.765625 -7.421875 20.15625 -8.71875 
Q 24.5625 -10.015625 29 -10.015625 
Q 37.59375 -10.015625 41.59375 -6.25 
Q 45.609375 -2.484375 45.609375 5.515625 
z
M 34.078125 43.3125 
Q 28.65625 43.3125 25.625 39.296875 
Q 22.609375 35.296875 22.609375 27.984375 
Q 22.609375 20.453125 25.53125 16.578125 
Q 28.46875 12.703125 34.078125 12.703125 
Q 39.546875 12.703125 42.578125 16.703125 
Q 45.609375 20.703125 45.609375 27.984375 
Q 45.609375 35.296875 42.578125 39.296875 
Q 39.546875 43.3125 34.078125 43.3125 
z
" id="DejaVuSans-Bold-103"/>
     </defs>
     <use xlink:href="#DejaVuSans-Bold-84"/>
     <use x="68.212891" xlink:href="#DejaVuSans-Bold-105"/>
     <use x="102.490234" xlink:href="#DejaVuSans-Bold-109"/>
     <use x="206.689453" xlink:href="#DejaVuSans-Bold-101"/>
     <use x="274.511719" xlink:href="#DejaVuSans-Bold-99"/>
     <use x="333.789062" xlink:href="#DejaVuSans-Bold-111"/>
     <use x="402.490234" xlink:href="#DejaVuSans-Bold-117"/>
     <use x="473.681641" xlink:href="#DejaVuSans-Bold-114"/>
     <use x="522.998047" xlink:href="#DejaVuSans-Bold-115"/>
     <use x="582.519531" xlink:href="#DejaVuSans-Bold-101"/>
     <use x="650.341797" xlink:href="#DejaVuSans-Bold-32"/>
     <use x="685.15625" xlink:href="#DejaVuSans-Bold-97"/>
     <use x="752.636719" xlink:href="#DejaVuSans-Bold-102"/>
     <use x="796.142578" xlink:href="#DejaVuSans-Bold-116"/>
     <use x="843.945312" xlink:href="#DejaVuSans-Bold-101"/>
     <use x="911.767578" xlink:href="#DejaVuSans-Bold-114"/>
     <use x="961.083984" xlink:href="#DejaVuSans-Bold-32"/>
     <use x="995.898438" xlink:href="#DejaVuSans-Bold-112"/>
     <use x="1067.480469" xlink:href="#DejaVuSans-Bold-114"/>
     <use x="1116.796875" xlink:href="#DejaVuSans-Bold-101"/>
     <use x="1184.619141" xlink:href="#DejaVuSans-Bold-45"/>
     <use x="1226.123047" xlink:href="#DejaVuSans-Bold-112"/>
     <use x="1297.705078" xlink:href="#DejaVuSans-Bold-114"/>
     <use x="1347.021484" xlink:href="#DejaVuSans-Bold-111"/>
     <use x="1415.722656" xlink:href="#DejaVuSans-Bold-99"/>
     <use x="1475" xlink:href="#DejaVuSans-Bold-101"/>
     <use x="1542.822266" xlink:href="#DejaVuSans-Bold-115"/>
     <use x="1602.34375" xlink:href="#DejaVuSans-Bold-115"/>
     <use x="1661.865234" xlink:href="#DejaVuSans-Bold-105"/>
     <use x="1696.142578" xlink:href="#DejaVuSans-Bold-110"/>
     <use x="1767.333984" xlink:href="#DejaVuSans-Bold-103"/>
    </g>
   </g>
   <g id="legend_1">
    <g id="patch_7">
     <path d="M 365.987656 96.041562 
L 424.33125 96.041562 
Q 426.93125 96.041562 426.93125 93.441563 
L 426.93125 37.496875 
Q 426.93125 34.896875 424.33125 34.896875 
L 365.987656 34.896875 
Q 363.387656 34.896875 363.387656 37.496875 
L 363.387656 93.441563 
Q 363.387656 96.041562 365.987656 96.041562 
z
" style="fill:#ffffff;opacity:0.8;stroke:#cccccc;stroke-linejoin:miter;"/>
    </g>
    <g id="line2d_17">
     <path d="M 368.587656 45.424844 
L 394.587656 45.424844 
" style="fill:none;stroke:#1f77b4;stroke-linecap:square;stroke-width:2;"/>
    </g>
    <g id="line2d_18"/>
    <g id="text_15">
     <!-- PX -->
     <g transform="translate(404.987656 49.974844)scale(0.13 -0.13)">
      <defs>
       <path d="M 19.671875 64.796875 
L 19.671875 37.40625 
L 32.078125 37.40625 
Q 38.96875 37.40625 42.71875 40.96875 
Q 46.484375 44.53125 46.484375 51.125 
Q 46.484375 57.671875 42.71875 61.234375 
Q 38.96875 64.796875 32.078125 64.796875 
z
M 9.8125 72.90625 
L 32.078125 72.90625 
Q 44.34375 72.90625 50.609375 67.359375 
Q 56.890625 61.8125 56.890625 51.125 
Q 56.890625 40.328125 50.609375 34.8125 
Q 44.34375 29.296875 32.078125 29.296875 
L 19.671875 29.296875 
L 19.671875 0 
L 9.8125 0 
z
" id="DejaVuSans-80"/>
       <path d="M 6.296875 72.90625 
L 16.890625 72.90625 
L 35.015625 45.796875 
L 53.21875 72.90625 
L 63.8125 72.90625 
L 40.375 37.890625 
L 65.375 0 
L 54.78125 0 
L 34.28125 31 
L 13.625 0 
L 2.984375 0 
L 29 38.921875 
z
" id="DejaVuSans-88"/>
      </defs>
      <use xlink:href="#DejaVuSans-80"/>
      <use x="60.302734" xlink:href="#DejaVuSans-88"/>
     </g>
    </g>
    <g id="line2d_19">
     <path d="M 368.587656 64.506406 
L 394.587656 64.506406 
" style="fill:none;stroke:#ff7f0e;stroke-linecap:square;stroke-width:2;"/>
    </g>
    <g id="line2d_20"/>
    <g id="text_16">
     <!-- PZ -->
     <g transform="translate(404.987656 69.056406)scale(0.13 -0.13)">
      <defs>
       <path d="M 5.609375 72.90625 
L 62.890625 72.90625 
L 62.890625 65.375 
L 16.796875 8.296875 
L 64.015625 8.296875 
L 64.015625 0 
L 4.5 0 
L 4.5 7.515625 
L 50.59375 64.59375 
L 5.609375 64.59375 
z
" id="DejaVuSans-90"/>
      </defs>
      <use xlink:href="#DejaVuSans-80"/>
      <use x="60.302734" xlink:href="#DejaVuSans-90"/>
     </g>
    </g>
    <g id="line2d_21">
     <path d="M 368.587656 83.587969 
L 394.587656 83.587969 
" style="fill:none;stroke:#2ca02c;stroke-linecap:square;stroke-width:2;"/>
    </g>
    <g id="line2d_22"/>
    <g id="text_17">
     <!-- PY -->
     <g transform="translate(404.987656 88.137969)scale(0.13 -0.13)">
      <defs>
       <path d="M -0.203125 72.90625 
L 10.40625 72.90625 
L 30.609375 42.921875 
L 50.6875 72.90625 
L 61.28125 72.90625 
L 35.5 34.71875 
L 35.5 0 
L 25.59375 0 
L 25.59375 34.71875 
z
" id="DejaVuSans-89"/>
      </defs>
      <use xlink:href="#DejaVuSans-80"/>
      <use x="58.052734" xlink:href="#DejaVuSans-89"/>
     </g>
    </g>
   </g>
  </g>
 </g>
 <defs>
  <clipPath id="p76319c2997">
   <rect height="277.2" width="390.6" x="42.83125" y="28.396875"/>
  </clipPath>
 </defs>
</svg>
