<?xml version="1.0" encoding="utf-8" standalone="no"?>
<!DOCTYPE svg PUBLIC "-//W3C//DTD SVG 1.1//EN"
  "http://www.w3.org/Graphics/SVG/1.1/DTD/svg11.dtd">
<!-- Created with matplotlib (https://matplotlib.org/) -->
<svg height="709.625937pt" version="1.1" viewBox="0 0 710.386562 709.625937" width="710.386562pt" xmlns="http://www.w3.org/2000/svg" xmlns:xlink="http://www.w3.org/1999/xlink">
 <defs>
  <style type="text/css">
*{stroke-linecap:butt;stroke-linejoin:round;}
  </style>
 </defs>
 <g id="figure_1">
  <g id="patch_1">
   <path d="M 0 709.625937 
L 710.386562 709.625937 
L 710.386562 0 
L 0 0 
z
" style="fill:#ffffff;"/>
  </g>
  <g id="axes_1">
   <g id="patch_2">
    <path d="M 58.01375 668.198437 
L 703.186562 668.198437 
L 703.186562 20.798437 
L 58.01375 20.798437 
z
" style="fill:#ffffff;"/>
   </g>
   <g id="matplotlib.axis_1">
    <g id="xtick_1">
     <g id="line2d_1">
      <defs>
       <path d="M 0 0 
L 0 3.5 
" id="m71762b1f11" style="stroke:#000000;stroke-width:0.8;"/>
      </defs>
      <g>
       <use style="stroke:#000000;stroke-width:0.8;" x="87.339787" xlink:href="#m71762b1f11" y="668.198437"/>
      </g>
     </g>
     <g id="text_1">
      <!-- 0 -->
      <defs>
       <path d="M 31.78125 66.40625 
Q 24.171875 66.40625 20.328125 58.90625 
Q 16.5 51.421875 16.5 36.375 
Q 16.5 21.390625 20.328125 13.890625 
Q 24.171875 6.390625 31.78125 6.390625 
Q 39.453125 6.390625 43.28125 13.890625 
Q 47.125 21.390625 47.125 36.375 
Q 47.125 51.421875 43.28125 58.90625 
Q 39.453125 66.40625 31.78125 66.40625 
z
M 31.78125 74.21875 
Q 44.046875 74.21875 50.515625 64.515625 
Q 56.984375 54.828125 56.984375 36.375 
Q 56.984375 17.96875 50.515625 8.265625 
Q 44.046875 -1.421875 31.78125 -1.421875 
Q 19.53125 -1.421875 13.0625 8.265625 
Q 6.59375 17.96875 6.59375 36.375 
Q 6.59375 54.828125 13.0625 64.515625 
Q 19.53125 74.21875 31.78125 74.21875 
z
" id="DejaVuSans-48"/>
      </defs>
      <g transform="translate(83.522287 684.316562)scale(0.12 -0.12)">
       <use xlink:href="#DejaVuSans-48"/>
      </g>
     </g>
    </g>
    <g id="xtick_2">
     <g id="line2d_2">
      <g>
       <use style="stroke:#000000;stroke-width:0.8;" x="192.075633" xlink:href="#m71762b1f11" y="668.198437"/>
      </g>
     </g>
     <g id="text_2">
      <!-- 10 -->
      <defs>
       <path d="M 12.40625 8.296875 
L 28.515625 8.296875 
L 28.515625 63.921875 
L 10.984375 60.40625 
L 10.984375 69.390625 
L 28.421875 72.90625 
L 38.28125 72.90625 
L 38.28125 8.296875 
L 54.390625 8.296875 
L 54.390625 0 
L 12.40625 0 
z
" id="DejaVuSans-49"/>
      </defs>
      <g transform="translate(184.440633 684.316562)scale(0.12 -0.12)">
       <use xlink:href="#DejaVuSans-49"/>
       <use x="63.623047" xlink:href="#DejaVuSans-48"/>
      </g>
     </g>
    </g>
    <g id="xtick_3">
     <g id="line2d_3">
      <g>
       <use style="stroke:#000000;stroke-width:0.8;" x="296.811479" xlink:href="#m71762b1f11" y="668.198437"/>
      </g>
     </g>
     <g id="text_3">
      <!-- 20 -->
      <defs>
       <path d="M 19.1875 8.296875 
L 53.609375 8.296875 
L 53.609375 0 
L 7.328125 0 
L 7.328125 8.296875 
Q 12.9375 14.109375 22.625 23.890625 
Q 32.328125 33.6875 34.8125 36.53125 
Q 39.546875 41.84375 41.421875 45.53125 
Q 43.3125 49.21875 43.3125 52.78125 
Q 43.3125 58.59375 39.234375 62.25 
Q 35.15625 65.921875 28.609375 65.921875 
Q 23.96875 65.921875 18.8125 64.3125 
Q 13.671875 62.703125 7.8125 59.421875 
L 7.8125 69.390625 
Q 13.765625 71.78125 18.9375 73 
Q 24.125 74.21875 28.421875 74.21875 
Q 39.75 74.21875 46.484375 68.546875 
Q 53.21875 62.890625 53.21875 53.421875 
Q 53.21875 48.921875 51.53125 44.890625 
Q 49.859375 40.875 45.40625 35.40625 
Q 44.1875 33.984375 37.640625 27.21875 
Q 31.109375 20.453125 19.1875 8.296875 
z
" id="DejaVuSans-50"/>
      </defs>
      <g transform="translate(289.176479 684.316562)scale(0.12 -0.12)">
       <use xlink:href="#DejaVuSans-50"/>
       <use x="63.623047" xlink:href="#DejaVuSans-48"/>
      </g>
     </g>
    </g>
    <g id="xtick_4">
     <g id="line2d_4">
      <g>
       <use style="stroke:#000000;stroke-width:0.8;" x="401.547325" xlink:href="#m71762b1f11" y="668.198437"/>
      </g>
     </g>
     <g id="text_4">
      <!-- 30 -->
      <defs>
       <path d="M 40.578125 39.3125 
Q 47.65625 37.796875 51.625 33 
Q 55.609375 28.21875 55.609375 21.1875 
Q 55.609375 10.40625 48.1875 4.484375 
Q 40.765625 -1.421875 27.09375 -1.421875 
Q 22.515625 -1.421875 17.65625 -0.515625 
Q 12.796875 0.390625 7.625 2.203125 
L 7.625 11.71875 
Q 11.71875 9.328125 16.59375 8.109375 
Q 21.484375 6.890625 26.8125 6.890625 
Q 36.078125 6.890625 40.9375 10.546875 
Q 45.796875 14.203125 45.796875 21.1875 
Q 45.796875 27.640625 41.28125 31.265625 
Q 36.765625 34.90625 28.71875 34.90625 
L 20.21875 34.90625 
L 20.21875 43.015625 
L 29.109375 43.015625 
Q 36.375 43.015625 40.234375 45.921875 
Q 44.09375 48.828125 44.09375 54.296875 
Q 44.09375 59.90625 40.109375 62.90625 
Q 36.140625 65.921875 28.71875 65.921875 
Q 24.65625 65.921875 20.015625 65.03125 
Q 15.375 64.15625 9.8125 62.3125 
L 9.8125 71.09375 
Q 15.4375 72.65625 20.34375 73.4375 
Q 25.25 74.21875 29.59375 74.21875 
Q 40.828125 74.21875 47.359375 69.109375 
Q 53.90625 64.015625 53.90625 55.328125 
Q 53.90625 49.265625 50.4375 45.09375 
Q 46.96875 40.921875 40.578125 39.3125 
z
" id="DejaVuSans-51"/>
      </defs>
      <g transform="translate(393.912325 684.316562)scale(0.12 -0.12)">
       <use xlink:href="#DejaVuSans-51"/>
       <use x="63.623047" xlink:href="#DejaVuSans-48"/>
      </g>
     </g>
    </g>
    <g id="xtick_5">
     <g id="line2d_5">
      <g>
       <use style="stroke:#000000;stroke-width:0.8;" x="506.283172" xlink:href="#m71762b1f11" y="668.198437"/>
      </g>
     </g>
     <g id="text_5">
      <!-- 40 -->
      <defs>
       <path d="M 37.796875 64.3125 
L 12.890625 25.390625 
L 37.796875 25.390625 
z
M 35.203125 72.90625 
L 47.609375 72.90625 
L 47.609375 25.390625 
L 58.015625 25.390625 
L 58.015625 17.1875 
L 47.609375 17.1875 
L 47.609375 0 
L 37.796875 0 
L 37.796875 17.1875 
L 4.890625 17.1875 
L 4.890625 26.703125 
z
" id="DejaVuSans-52"/>
      </defs>
      <g transform="translate(498.648172 684.316562)scale(0.12 -0.12)">
       <use xlink:href="#DejaVuSans-52"/>
       <use x="63.623047" xlink:href="#DejaVuSans-48"/>
      </g>
     </g>
    </g>
    <g id="xtick_6">
     <g id="line2d_6">
      <g>
       <use style="stroke:#000000;stroke-width:0.8;" x="611.019018" xlink:href="#m71762b1f11" y="668.198437"/>
      </g>
     </g>
     <g id="text_6">
      <!-- 50 -->
      <defs>
       <path d="M 10.796875 72.90625 
L 49.515625 72.90625 
L 49.515625 64.59375 
L 19.828125 64.59375 
L 19.828125 46.734375 
Q 21.96875 47.46875 24.109375 47.828125 
Q 26.265625 48.1875 28.421875 48.1875 
Q 40.625 48.1875 47.75 41.5 
Q 54.890625 34.8125 54.890625 23.390625 
Q 54.890625 11.625 47.5625 5.09375 
Q 40.234375 -1.421875 26.90625 -1.421875 
Q 22.3125 -1.421875 17.546875 -0.640625 
Q 12.796875 0.140625 7.71875 1.703125 
L 7.71875 11.625 
Q 12.109375 9.234375 16.796875 8.0625 
Q 21.484375 6.890625 26.703125 6.890625 
Q 35.15625 6.890625 40.078125 11.328125 
Q 45.015625 15.765625 45.015625 23.390625 
Q 45.015625 31 40.078125 35.4375 
Q 35.15625 39.890625 26.703125 39.890625 
Q 22.75 39.890625 18.8125 39.015625 
Q 14.890625 38.140625 10.796875 36.28125 
z
" id="DejaVuSans-53"/>
      </defs>
      <g transform="translate(603.384018 684.316562)scale(0.12 -0.12)">
       <use xlink:href="#DejaVuSans-53"/>
       <use x="63.623047" xlink:href="#DejaVuSans-48"/>
      </g>
     </g>
    </g>
    <g id="text_7">
     <!-- step -->
     <defs>
      <path d="M 51.125 52.984375 
L 51.125 39.703125 
Q 45.515625 42.046875 40.28125 43.21875 
Q 35.0625 44.390625 30.421875 44.390625 
Q 25.4375 44.390625 23.015625 43.140625 
Q 20.609375 41.890625 20.609375 39.3125 
Q 20.609375 37.203125 22.4375 36.078125 
Q 24.265625 34.96875 29 34.421875 
L 32.078125 33.984375 
Q 45.515625 32.28125 50.140625 28.375 
Q 54.78125 24.46875 54.78125 16.109375 
Q 54.78125 7.375 48.328125 2.96875 
Q 41.890625 -1.421875 29.109375 -1.421875 
Q 23.6875 -1.421875 17.890625 -0.5625 
Q 12.109375 0.296875 6 2 
L 6 15.28125 
Q 11.234375 12.75 16.71875 11.46875 
Q 22.21875 10.203125 27.875 10.203125 
Q 33.015625 10.203125 35.59375 11.609375 
Q 38.1875 13.03125 38.1875 15.828125 
Q 38.1875 18.171875 36.40625 19.3125 
Q 34.625 20.453125 29.296875 21.09375 
L 26.21875 21.484375 
Q 14.546875 22.953125 9.859375 26.90625 
Q 5.171875 30.859375 5.171875 38.921875 
Q 5.171875 47.609375 11.125 51.796875 
Q 17.09375 56 29.390625 56 
Q 34.234375 56 39.546875 55.265625 
Q 44.875 54.546875 51.125 52.984375 
z
" id="DejaVuSans-Bold-115"/>
      <path d="M 27.484375 70.21875 
L 27.484375 54.6875 
L 45.515625 54.6875 
L 45.515625 42.1875 
L 27.484375 42.1875 
L 27.484375 19 
Q 27.484375 15.1875 29 13.84375 
Q 30.515625 12.5 35.015625 12.5 
L 44 12.5 
L 44 0 
L 29 0 
Q 18.65625 0 14.328125 4.3125 
Q 10.015625 8.640625 10.015625 19 
L 10.015625 42.1875 
L 1.3125 42.1875 
L 1.3125 54.6875 
L 10.015625 54.6875 
L 10.015625 70.21875 
z
" id="DejaVuSans-Bold-116"/>
      <path d="M 62.984375 27.484375 
L 62.984375 22.515625 
L 22.125 22.515625 
Q 22.75 16.359375 26.5625 13.28125 
Q 30.375 10.203125 37.203125 10.203125 
Q 42.71875 10.203125 48.5 11.84375 
Q 54.296875 13.484375 60.40625 16.796875 
L 60.40625 3.328125 
Q 54.203125 0.984375 48 -0.21875 
Q 41.796875 -1.421875 35.59375 -1.421875 
Q 20.75 -1.421875 12.515625 6.125 
Q 4.296875 13.671875 4.296875 27.296875 
Q 4.296875 40.671875 12.375 48.328125 
Q 20.453125 56 34.625 56 
Q 47.515625 56 55.25 48.234375 
Q 62.984375 40.484375 62.984375 27.484375 
z
M 45.015625 33.296875 
Q 45.015625 38.28125 42.109375 41.328125 
Q 39.203125 44.390625 34.515625 44.390625 
Q 29.4375 44.390625 26.265625 41.53125 
Q 23.09375 38.671875 22.3125 33.296875 
z
" id="DejaVuSans-Bold-101"/>
      <path d="M 25.875 7.90625 
L 25.875 -20.796875 
L 8.40625 -20.796875 
L 8.40625 54.6875 
L 25.875 54.6875 
L 25.875 46.6875 
Q 29.5 51.46875 33.890625 53.734375 
Q 38.28125 56 44 56 
Q 54.109375 56 60.59375 47.96875 
Q 67.09375 39.9375 67.09375 27.296875 
Q 67.09375 14.65625 60.59375 6.609375 
Q 54.109375 -1.421875 44 -1.421875 
Q 38.28125 -1.421875 33.890625 0.84375 
Q 29.5 3.125 25.875 7.90625 
z
M 37.5 43.3125 
Q 31.890625 43.3125 28.875 39.1875 
Q 25.875 35.0625 25.875 27.296875 
Q 25.875 19.53125 28.875 15.40625 
Q 31.890625 11.28125 37.5 11.28125 
Q 43.109375 11.28125 46.0625 15.375 
Q 49.03125 19.484375 49.03125 27.296875 
Q 49.03125 35.109375 46.0625 39.203125 
Q 43.109375 43.3125 37.5 43.3125 
z
" id="DejaVuSans-Bold-112"/>
     </defs>
     <g transform="translate(365.797031 699.930312)scale(0.12 -0.12)">
      <use xlink:href="#DejaVuSans-Bold-115"/>
      <use x="59.521484" xlink:href="#DejaVuSans-Bold-116"/>
      <use x="107.324219" xlink:href="#DejaVuSans-Bold-101"/>
      <use x="175.146484" xlink:href="#DejaVuSans-Bold-112"/>
     </g>
    </g>
   </g>
   <g id="matplotlib.axis_2">
    <g id="ytick_1">
     <g id="line2d_7">
      <defs>
       <path d="M 0 0 
L -3.5 0 
" id="m1ba85a0120" style="stroke:#000000;stroke-width:0.8;"/>
      </defs>
      <g>
       <use style="stroke:#000000;stroke-width:0.8;" x="58.01375" xlink:href="#m1ba85a0120" y="563.030088"/>
      </g>
     </g>
     <g id="text_8">
      <!-- $\mathdefault{10^{-7}}$ -->
      <defs>
       <path d="M 10.59375 35.5 
L 73.1875 35.5 
L 73.1875 27.203125 
L 10.59375 27.203125 
z
" id="DejaVuSans-8722"/>
       <path d="M 8.203125 72.90625 
L 55.078125 72.90625 
L 55.078125 68.703125 
L 28.609375 0 
L 18.3125 0 
L 43.21875 64.59375 
L 8.203125 64.59375 
z
" id="DejaVuSans-55"/>
      </defs>
      <g transform="translate(22.81375 567.58915)scale(0.12 -0.12)">
       <use transform="translate(0 0.684375)" xlink:href="#DejaVuSans-49"/>
       <use transform="translate(63.623047 0.684375)" xlink:href="#DejaVuSans-48"/>
       <use transform="translate(128.203125 38.965625)scale(0.7)" xlink:href="#DejaVuSans-8722"/>
       <use transform="translate(186.855469 38.965625)scale(0.7)" xlink:href="#DejaVuSans-55"/>
      </g>
     </g>
    </g>
    <g id="ytick_2">
     <g id="line2d_8">
      <g>
       <use style="stroke:#000000;stroke-width:0.8;" x="58.01375" xlink:href="#m1ba85a0120" y="152.82278"/>
      </g>
     </g>
     <g id="text_9">
      <!-- $\mathdefault{10^{-6}}$ -->
      <defs>
       <path d="M 33.015625 40.375 
Q 26.375 40.375 22.484375 35.828125 
Q 18.609375 31.296875 18.609375 23.390625 
Q 18.609375 15.53125 22.484375 10.953125 
Q 26.375 6.390625 33.015625 6.390625 
Q 39.65625 6.390625 43.53125 10.953125 
Q 47.40625 15.53125 47.40625 23.390625 
Q 47.40625 31.296875 43.53125 35.828125 
Q 39.65625 40.375 33.015625 40.375 
z
M 52.59375 71.296875 
L 52.59375 62.3125 
Q 48.875 64.0625 45.09375 64.984375 
Q 41.3125 65.921875 37.59375 65.921875 
Q 27.828125 65.921875 22.671875 59.328125 
Q 17.53125 52.734375 16.796875 39.40625 
Q 19.671875 43.65625 24.015625 45.921875 
Q 28.375 48.1875 33.59375 48.1875 
Q 44.578125 48.1875 50.953125 41.515625 
Q 57.328125 34.859375 57.328125 23.390625 
Q 57.328125 12.15625 50.6875 5.359375 
Q 44.046875 -1.421875 33.015625 -1.421875 
Q 20.359375 -1.421875 13.671875 8.265625 
Q 6.984375 17.96875 6.984375 36.375 
Q 6.984375 53.65625 15.1875 63.9375 
Q 23.390625 74.21875 37.203125 74.21875 
Q 40.921875 74.21875 44.703125 73.484375 
Q 48.484375 72.75 52.59375 71.296875 
z
" id="DejaVuSans-54"/>
      </defs>
      <g transform="translate(22.81375 157.381843)scale(0.12 -0.12)">
       <use transform="translate(0 0.765625)" xlink:href="#DejaVuSans-49"/>
       <use transform="translate(63.623047 0.765625)" xlink:href="#DejaVuSans-48"/>
       <use transform="translate(128.203125 39.046875)scale(0.7)" xlink:href="#DejaVuSans-8722"/>
       <use transform="translate(186.855469 39.046875)scale(0.7)" xlink:href="#DejaVuSans-54"/>
      </g>
     </g>
    </g>
    <g id="ytick_3">
     <g id="line2d_9">
      <defs>
       <path d="M 0 0 
L -2 0 
" id="m632431729d" style="stroke:#000000;stroke-width:0.6;"/>
      </defs>
      <g>
       <use style="stroke:#000000;stroke-width:0.6;" x="58.01375" xlink:href="#m632431729d" y="654.034066"/>
      </g>
     </g>
    </g>
    <g id="ytick_4">
     <g id="line2d_10">
      <g>
       <use style="stroke:#000000;stroke-width:0.6;" x="58.01375" xlink:href="#m632431729d" y="626.572004"/>
      </g>
     </g>
    </g>
    <g id="ytick_5">
     <g id="line2d_11">
      <g>
       <use style="stroke:#000000;stroke-width:0.6;" x="58.01375" xlink:href="#m632431729d" y="602.783283"/>
      </g>
     </g>
    </g>
    <g id="ytick_6">
     <g id="line2d_12">
      <g>
       <use style="stroke:#000000;stroke-width:0.6;" x="58.01375" xlink:href="#m632431729d" y="581.800145"/>
      </g>
     </g>
    </g>
    <g id="ytick_7">
     <g id="line2d_13">
      <g>
       <use style="stroke:#000000;stroke-width:0.6;" x="58.01375" xlink:href="#m632431729d" y="439.545384"/>
      </g>
     </g>
    </g>
    <g id="ytick_8">
     <g id="line2d_14">
      <g>
       <use style="stroke:#000000;stroke-width:0.6;" x="58.01375" xlink:href="#m632431729d" y="367.311463"/>
      </g>
     </g>
    </g>
    <g id="ytick_9">
     <g id="line2d_15">
      <g>
       <use style="stroke:#000000;stroke-width:0.6;" x="58.01375" xlink:href="#m632431729d" y="316.06068"/>
      </g>
     </g>
    </g>
    <g id="ytick_10">
     <g id="line2d_16">
      <g>
       <use style="stroke:#000000;stroke-width:0.6;" x="58.01375" xlink:href="#m632431729d" y="276.307484"/>
      </g>
     </g>
    </g>
    <g id="ytick_11">
     <g id="line2d_17">
      <g>
       <use style="stroke:#000000;stroke-width:0.6;" x="58.01375" xlink:href="#m632431729d" y="243.826759"/>
      </g>
     </g>
    </g>
    <g id="ytick_12">
     <g id="line2d_18">
      <g>
       <use style="stroke:#000000;stroke-width:0.6;" x="58.01375" xlink:href="#m632431729d" y="216.364696"/>
      </g>
     </g>
    </g>
    <g id="ytick_13">
     <g id="line2d_19">
      <g>
       <use style="stroke:#000000;stroke-width:0.6;" x="58.01375" xlink:href="#m632431729d" y="192.575976"/>
      </g>
     </g>
    </g>
    <g id="ytick_14">
     <g id="line2d_20">
      <g>
       <use style="stroke:#000000;stroke-width:0.6;" x="58.01375" xlink:href="#m632431729d" y="171.592837"/>
      </g>
     </g>
    </g>
    <g id="ytick_15">
     <g id="line2d_21">
      <g>
       <use style="stroke:#000000;stroke-width:0.6;" x="58.01375" xlink:href="#m632431729d" y="29.338076"/>
      </g>
     </g>
    </g>
    <g id="text_10">
     <!-- cost -->
     <defs>
      <path d="M 52.59375 52.984375 
L 52.59375 38.71875 
Q 49.03125 41.15625 45.4375 42.328125 
Q 41.84375 43.5 37.984375 43.5 
Q 30.671875 43.5 26.59375 39.234375 
Q 22.515625 34.96875 22.515625 27.296875 
Q 22.515625 19.625 26.59375 15.34375 
Q 30.671875 11.078125 37.984375 11.078125 
Q 42.09375 11.078125 45.78125 12.296875 
Q 49.46875 13.53125 52.59375 15.921875 
L 52.59375 1.609375 
Q 48.484375 0.09375 44.265625 -0.65625 
Q 40.046875 -1.421875 35.796875 -1.421875 
Q 21 -1.421875 12.640625 6.171875 
Q 4.296875 13.765625 4.296875 27.296875 
Q 4.296875 40.828125 12.640625 48.40625 
Q 21 56 35.796875 56 
Q 40.09375 56 44.265625 55.25 
Q 48.4375 54.5 52.59375 52.984375 
z
" id="DejaVuSans-Bold-99"/>
      <path d="M 34.421875 43.5 
Q 28.609375 43.5 25.5625 39.328125 
Q 22.515625 35.15625 22.515625 27.296875 
Q 22.515625 19.4375 25.5625 15.25 
Q 28.609375 11.078125 34.421875 11.078125 
Q 40.140625 11.078125 43.15625 15.25 
Q 46.1875 19.4375 46.1875 27.296875 
Q 46.1875 35.15625 43.15625 39.328125 
Q 40.140625 43.5 34.421875 43.5 
z
M 34.421875 56 
Q 48.53125 56 56.46875 48.375 
Q 64.40625 40.765625 64.40625 27.296875 
Q 64.40625 13.8125 56.46875 6.1875 
Q 48.53125 -1.421875 34.421875 -1.421875 
Q 20.265625 -1.421875 12.28125 6.1875 
Q 4.296875 13.8125 4.296875 27.296875 
Q 4.296875 40.765625 12.28125 48.375 
Q 20.265625 56 34.421875 56 
z
" id="DejaVuSans-Bold-111"/>
     </defs>
     <g transform="translate(16.318125 358.61625)rotate(-90)scale(0.12 -0.12)">
      <use xlink:href="#DejaVuSans-Bold-99"/>
      <use x="59.277344" xlink:href="#DejaVuSans-Bold-111"/>
      <use x="127.978516" xlink:href="#DejaVuSans-Bold-115"/>
      <use x="187.5" xlink:href="#DejaVuSans-Bold-116"/>
     </g>
    </g>
   </g>
   <g id="line2d_22">
    <path clip-path="url(#p8846cb36a8)" d="M 87.339787 207.306786 
L 97.813372 215.205316 
L 108.286956 217.747519 
L 118.760541 217.128814 
L 129.234125 193.734412 
L 139.70771 205.783647 
L 150.181295 216.376312 
L 160.654879 213.096216 
L 171.128464 208.674012 
L 181.602048 211.953281 
L 192.075633 239.395186 
L 202.549218 241.84162 
L 213.022802 223.413663 
L 223.496387 224.393226 
L 233.969972 314.546717 
L 244.443556 315.797357 
L 254.917141 303.549664 
L 265.390725 321.916809 
L 275.86431 407.819286 
L 286.337895 412.550422 
L 296.811479 398.899282 
L 307.285064 431.804405 
L 317.758649 539.275354 
L 328.232233 540.529398 
L 338.705818 527.657434 
L 349.179402 539.059135 
L 359.652987 596.883957 
L 370.126572 597.567743 
L 380.600156 589.965943 
L 391.073741 601.72825 
L 401.547325 620.278553 
L 412.02091 620.863412 
L 422.494495 617.578748 
L 432.968079 622.154353 
L 443.441664 633.482331 
L 453.915249 635.820663 
L 464.388833 631.081128 
L 474.862418 634.474752 
" style="fill:none;stroke:#1f77b4;stroke-linecap:square;stroke-opacity:0.8;stroke-width:1.5;"/>
   </g>
   <g id="line2d_23">
    <path clip-path="url(#p8846cb36a8)" d="M 87.339787 95.959082 
L 97.813372 107.240763 
L 108.286956 91.367385 
L 118.760541 95.434837 
L 129.234125 227.113596 
L 139.70771 230.482342 
L 150.181295 226.786726 
L 160.654879 231.17256 
L 171.128464 262.635664 
L 181.602048 269.985868 
L 192.075633 249.25371 
L 202.549218 260.291421 
L 213.022802 514.696162 
L 223.496387 518.892029 
L 233.969972 503.963979 
L 244.443556 530.412534 
L 254.917141 601.090925 
L 265.390725 601.017973 
L 275.86431 587.726368 
L 286.337895 606.189007 
L 296.811479 630.129635 
L 307.285064 630.196097 
L 317.758649 626.171284 
L 328.232233 630.737984 
L 338.705818 630.044415 
L 349.179402 631.867413 
L 359.652987 631.787996 
L 370.126572 628.17785 
L 380.600156 632.680207 
L 391.073741 634.381149 
L 401.547325 633.406016 
L 412.02091 631.402159 
L 422.494495 633.775006 
" style="fill:none;stroke:#ff7f0e;stroke-linecap:square;stroke-opacity:0.8;stroke-width:1.5;"/>
   </g>
   <g id="line2d_24">
    <path clip-path="url(#p8846cb36a8)" d="M 87.339787 631.777837 
L 97.813372 629.097348 
L 108.286956 631.036227 
L 118.760541 630.270479 
L 129.234125 635.568815 
L 139.70771 634.362644 
L 150.181295 635.238937 
L 160.654879 636.830022 
" style="fill:none;stroke:#2ca02c;stroke-linecap:square;stroke-opacity:0.8;stroke-width:1.5;"/>
   </g>
   <g id="line2d_25">
    <path clip-path="url(#p8846cb36a8)" d="M 87.339787 622.050242 
L 97.813372 621.155284 
L 108.286956 620.771757 
L 118.760541 622.419743 
" style="fill:none;stroke:#d62728;stroke-linecap:square;stroke-opacity:0.8;stroke-width:1.5;"/>
   </g>
   <g id="line2d_26">
    <path clip-path="url(#p8846cb36a8)" d="M 87.339787 535.418877 
L 97.813372 543.571923 
L 108.286956 527.512551 
L 118.760541 539.460013 
L 129.234125 605.534322 
L 139.70771 608.037831 
L 150.181295 603.284705 
L 160.654879 608.921829 
L 171.128464 631.099739 
L 181.602048 630.008564 
L 192.075633 630.128125 
L 202.549218 631.494412 
" style="fill:none;stroke:#9467bd;stroke-linecap:square;stroke-opacity:0.8;stroke-width:1.5;"/>
   </g>
   <g id="line2d_27">
    <path clip-path="url(#p8846cb36a8)" d="M 87.339787 607.851035 
L 97.813372 608.585064 
L 108.286956 606.033296 
L 118.760541 607.102502 
L 129.234125 540.439308 
L 139.70771 615.863474 
L 150.181295 617.60517 
L 160.654879 617.363104 
L 171.128464 617.993578 
L 181.602048 622.421601 
L 192.075633 621.631267 
L 202.549218 621.138365 
L 213.022802 622.433623 
" style="fill:none;stroke:#8c564b;stroke-linecap:square;stroke-opacity:0.8;stroke-width:1.5;"/>
   </g>
   <g id="line2d_28">
    <path clip-path="url(#p8846cb36a8)" d="M 87.339787 207.631085 
L 97.813372 204.83489 
L 108.286956 205.20086 
L 118.760541 201.087744 
L 129.234125 531.789869 
L 139.70771 526.954651 
L 150.181295 512.306758 
L 160.654879 533.028143 
L 171.128464 601.526459 
L 181.602048 604.030041 
L 192.075633 596.169066 
L 202.549218 604.630099 
L 213.022802 618.989882 
L 223.496387 619.429227 
L 233.969972 616.370508 
L 244.443556 620.680101 
L 254.917141 631.284997 
L 265.390725 631.974663 
L 275.86431 629.590617 
L 286.337895 632.675752 
L 296.811479 637.135812 
L 307.285064 636.605169 
L 317.758649 634.476703 
L 328.232233 637.108625 
" style="fill:none;stroke:#e377c2;stroke-linecap:square;stroke-opacity:0.8;stroke-width:1.5;"/>
   </g>
   <g id="line2d_29">
    <path clip-path="url(#p8846cb36a8)" d="M 87.339787 605.529183 
L 97.813372 604.558085 
L 108.286956 599.808275 
L 118.760541 609.294972 
L 129.234125 630.850065 
L 139.70771 633.244756 
L 150.181295 628.87148 
L 160.654879 632.008113 
L 171.128464 635.236546 
L 181.602048 637.0277 
L 192.075633 633.863048 
L 202.549218 638.771165 
L 213.022802 635.618283 
L 223.496387 638.003447 
L 233.969972 634.298128 
L 244.443556 637.316619 
" style="fill:none;stroke:#7f7f7f;stroke-linecap:square;stroke-opacity:0.8;stroke-width:1.5;"/>
   </g>
   <g id="line2d_30">
    <path clip-path="url(#p8846cb36a8)" d="M 87.339787 515.975314 
L 97.813372 527.630064 
L 108.286956 516.036649 
L 118.760541 516.177163 
L 129.234125 589.314143 
L 139.70771 595.618002 
L 150.181295 591.85746 
L 160.654879 589.266961 
L 171.128464 621.930126 
L 181.602048 622.679249 
L 192.075633 620.388101 
L 202.549218 623.021356 
L 213.022802 626.52805 
L 223.496387 624.575675 
L 233.969972 623.148034 
L 244.443556 625.130834 
L 254.917141 625.525019 
L 265.390725 626.866761 
L 275.86431 626.376607 
L 286.337895 623.846457 
L 296.811479 625.66272 
L 307.285064 624.094941 
L 317.758649 625.72345 
L 328.232233 627.098279 
L 338.705818 626.270699 
L 349.179402 625.675517 
L 359.652987 625.957149 
L 370.126572 625.570654 
L 380.600156 625.117648 
L 391.073741 624.881393 
L 401.547325 623.923841 
L 412.02091 627.15461 
L 422.494495 626.284591 
L 432.968079 625.473091 
L 443.441664 624.3443 
L 453.915249 627.231916 
L 464.388833 625.364682 
L 474.862418 626.536016 
L 485.336002 627.014132 
L 495.809587 623.995401 
L 506.283172 623.867256 
L 516.756756 623.835553 
L 527.230341 627.234034 
L 537.703926 625.365151 
L 548.17751 626.533227 
L 558.651095 627.018677 
L 569.124679 623.834073 
L 579.598264 627.235803 
L 590.071849 625.365345 
L 600.545433 626.536574 
L 611.019018 627.017398 
L 621.492602 623.829902 
L 631.966187 627.235603 
L 642.439772 627.236107 
L 652.913356 625.365192 
L 663.386941 626.533171 
L 673.860526 627.015967 
" style="fill:none;stroke:#bcbd22;stroke-linecap:square;stroke-opacity:0.8;stroke-width:1.5;"/>
   </g>
   <g id="line2d_31">
    <path clip-path="url(#p8846cb36a8)" d="M 87.339787 424.993542 
L 97.813372 429.157455 
L 108.286956 407.536329 
L 118.760541 445.101114 
L 129.234125 559.19724 
L 139.70771 559.260284 
L 150.181295 542.246912 
L 160.654879 569.65728 
L 171.128464 610.411457 
L 181.602048 610.474921 
L 192.075633 607.396599 
L 202.549218 613.708983 
L 213.022802 622.505858 
L 223.496387 622.54457 
L 233.969972 621.377955 
L 244.443556 622.931312 
" style="fill:none;stroke:#17becf;stroke-linecap:square;stroke-opacity:0.8;stroke-width:1.5;"/>
   </g>
   <g id="line2d_32">
    <path clip-path="url(#p8846cb36a8)" d="M 87.339787 609.282261 
L 97.813372 609.402485 
L 108.286956 604.765068 
L 118.760541 613.182406 
L 129.234125 617.05655 
L 139.70771 617.215846 
L 150.181295 616.237346 
L 160.654879 620.429315 
L 171.128464 628.692513 
L 181.602048 626.383091 
L 192.075633 630.06061 
L 202.549218 628.220886 
L 213.022802 627.338324 
L 223.496387 625.83162 
L 233.969972 625.812521 
L 244.443556 626.183331 
L 254.917141 629.914387 
L 265.390725 629.376365 
L 275.86431 627.064645 
L 286.337895 626.333277 
L 296.811479 626.223572 
L 307.285064 626.425894 
L 317.758649 627.211212 
L 328.232233 627.048272 
L 338.705818 627.55704 
L 349.179402 627.749572 
L 359.652987 627.083819 
L 370.126572 627.095299 
L 380.600156 629.706804 
L 391.073741 629.989162 
L 401.547325 629.380421 
L 412.02091 625.199589 
L 422.494495 626.118437 
" style="fill:none;stroke:#1f77b4;stroke-linecap:square;stroke-opacity:0.8;stroke-width:1.5;"/>
   </g>
   <g id="line2d_33">
    <path clip-path="url(#p8846cb36a8)" d="M 87.339787 163.994049 
L 97.813372 166.909556 
L 108.286956 166.741691 
L 118.760541 157.691228 
L 129.234125 276.845709 
L 139.70771 268.018691 
L 150.181295 264.583045 
L 160.654879 280.207552 
L 171.128464 469.375797 
L 181.602048 478.771223 
L 192.075633 446.583753 
L 202.549218 483.772117 
L 213.022802 547.532074 
L 223.496387 545.53769 
L 233.969972 536.188832 
L 244.443556 557.699425 
L 254.917141 613.129248 
L 265.390725 613.333053 
L 275.86431 610.991992 
L 286.337895 615.468968 
L 296.811479 622.050379 
L 307.285064 621.306764 
L 317.758649 621.264017 
L 328.232233 621.372316 
" style="fill:none;stroke:#ff7f0e;stroke-linecap:square;stroke-opacity:0.8;stroke-width:1.5;"/>
   </g>
   <g id="line2d_34">
    <path clip-path="url(#p8846cb36a8)" d="M 87.339787 237.644644 
L 97.813372 255.165106 
L 108.286956 227.229599 
L 118.760541 247.333903 
L 129.234125 458.5483 
L 139.70771 468.814032 
L 150.181295 451.381692 
L 160.654879 464.731937 
L 171.128464 592.720159 
L 181.602048 595.830384 
L 192.075633 590.043863 
L 202.549218 591.760522 
L 213.022802 528.447157 
L 223.496387 612.727943 
L 233.969972 615.516266 
L 244.443556 612.339507 
L 254.917141 614.010537 
L 265.390725 629.572667 
L 275.86431 629.542039 
L 286.337895 628.205544 
L 296.811479 628.234221 
L 307.285064 633.240344 
L 317.758649 633.441909 
L 328.232233 632.142323 
L 338.705818 634.117682 
" style="fill:none;stroke:#2ca02c;stroke-linecap:square;stroke-opacity:0.8;stroke-width:1.5;"/>
   </g>
   <g id="line2d_35">
    <path clip-path="url(#p8846cb36a8)" d="M 87.339787 625.100947 
L 97.813372 625.455363 
L 108.286956 626.85238 
L 118.760541 626.508199 
L 129.234125 626.435722 
L 139.70771 626.828206 
L 150.181295 626.017992 
L 160.654879 626.932307 
" style="fill:none;stroke:#d62728;stroke-linecap:square;stroke-opacity:0.8;stroke-width:1.5;"/>
   </g>
   <g id="line2d_36">
    <path clip-path="url(#p8846cb36a8)" d="M 87.339787 533.600145 
L 97.813372 530.193567 
L 108.286956 523.558002 
L 118.760541 542.196782 
L 129.234125 616.199884 
L 139.70771 616.234817 
L 150.181295 611.398748 
L 160.654879 618.208333 
L 171.128464 634.599455 
L 181.602048 633.387039 
L 192.075633 631.951409 
L 202.549218 633.212134 
L 213.022802 636.741342 
L 223.496387 636.220416 
L 233.969972 634.015942 
L 244.443556 635.099996 
L 254.917141 635.126967 
L 265.390725 634.114289 
L 275.86431 635.730805 
L 286.337895 634.696234 
L 296.811479 634.631337 
L 307.285064 637.479556 
L 317.758649 637.453918 
L 328.232233 634.512966 
L 338.705818 634.818791 
L 349.179402 636.680982 
L 359.652987 635.081534 
L 370.126572 635.344645 
L 380.600156 634.616229 
L 391.073741 634.184649 
L 401.547325 634.026579 
L 412.02091 635.032609 
L 422.494495 634.061252 
L 432.968079 634.457085 
" style="fill:none;stroke:#9467bd;stroke-linecap:square;stroke-opacity:0.8;stroke-width:1.5;"/>
   </g>
   <g id="line2d_37">
    <path clip-path="url(#p8846cb36a8)" d="M 87.339787 627.520724 
L 97.813372 625.232188 
L 108.286956 624.359128 
L 118.760541 624.053685 
L 129.234125 628.2695 
L 139.70771 629.394009 
L 150.181295 626.624706 
L 160.654879 628.829166 
" style="fill:none;stroke:#8c564b;stroke-linecap:square;stroke-opacity:0.8;stroke-width:1.5;"/>
   </g>
   <g id="line2d_38">
    <path clip-path="url(#p8846cb36a8)" d="M 87.339787 300.906154 
L 97.813372 286.31151 
L 108.286956 271.727639 
L 118.760541 313.83016 
L 129.234125 463.390311 
L 139.70771 461.638697 
L 150.181295 447.75201 
L 160.654879 486.519435 
L 171.128464 570.905356 
L 181.602048 563.675451 
L 192.075633 557.038531 
L 202.549218 579.33263 
L 213.022802 615.439998 
L 223.496387 615.563115 
L 233.969972 613.92409 
L 244.443556 617.628017 
L 254.917141 622.157801 
L 265.390725 624.231756 
L 275.86431 625.2222 
L 286.337895 623.197881 
L 296.811479 622.241053 
L 307.285064 621.754064 
L 317.758649 621.717597 
L 328.232233 622.751387 
" style="fill:none;stroke:#e377c2;stroke-linecap:square;stroke-opacity:0.8;stroke-width:1.5;"/>
   </g>
   <g id="line2d_39">
    <path clip-path="url(#p8846cb36a8)" d="M 87.339787 563.211662 
L 97.813372 570.909387 
L 108.286956 563.144152 
L 118.760541 563.521312 
L 129.234125 632.464009 
L 139.70771 635.099776 
L 150.181295 631.868716 
L 160.654879 632.012192 
L 171.128464 636.185354 
L 181.602048 634.958459 
L 192.075633 633.465057 
L 202.549218 636.692146 
" style="fill:none;stroke:#7f7f7f;stroke-linecap:square;stroke-opacity:0.8;stroke-width:1.5;"/>
   </g>
   <g id="line2d_40">
    <path clip-path="url(#p8846cb36a8)" d="M 87.339787 329.151384 
L 97.813372 344.817944 
L 108.286956 325.91862 
L 118.760541 333.2261 
L 129.234125 529.158319 
L 139.70771 537.714246 
L 150.181295 526.755796 
L 160.654879 530.69046 
L 171.128464 611.953066 
L 181.602048 614.641642 
L 192.075633 610.784729 
L 202.549218 614.043376 
L 213.022802 632.912973 
L 223.496387 637.306362 
L 233.969972 633.533364 
L 244.443556 634.122676 
L 254.917141 632.773077 
L 265.390725 635.280133 
L 275.86431 634.721388 
L 286.337895 631.997335 
L 296.811479 633.250305 
L 307.285064 632.71914 
L 317.758649 632.721398 
L 328.232233 635.797831 
L 338.705818 634.367462 
L 349.179402 634.647708 
L 359.652987 634.689803 
L 370.126572 634.385167 
L 380.600156 633.004504 
L 391.073741 634.700734 
L 401.547325 635.377742 
L 412.02091 635.790894 
L 422.494495 635.798731 
L 432.968079 634.367752 
L 443.441664 634.646102 
L 453.915249 634.688974 
L 464.388833 635.792039 
L 474.862418 635.797172 
L 485.336002 635.799193 
L 495.809587 634.405199 
L 506.283172 634.647111 
L 516.756756 634.71186 
L 527.230341 635.794658 
L 537.703926 635.798046 
L 548.17751 635.798366 
L 558.651095 635.794888 
L 569.124679 635.798038 
" style="fill:none;stroke:#bcbd22;stroke-linecap:square;stroke-opacity:0.8;stroke-width:1.5;"/>
   </g>
   <g id="line2d_41">
    <path clip-path="url(#p8846cb36a8)" d="M 87.339787 252.947275 
L 97.813372 270.539375 
L 108.286956 259.849656 
L 118.760541 255.051804 
L 129.234125 237.142552 
L 139.70771 232.487713 
L 150.181295 245.073963 
L 160.654879 270.265008 
L 171.128464 262.046131 
L 181.602048 241.996151 
L 192.075633 248.631028 
L 202.549218 255.190629 
L 213.022802 262.06433 
L 223.496387 269.40902 
L 233.969972 261.139848 
L 244.443556 264.480025 
L 254.917141 259.907536 
L 265.390725 259.402165 
L 275.86431 266.529141 
L 286.337895 257.707904 
L 296.811479 263.427577 
L 307.285064 260.512846 
L 317.758649 254.9751 
" style="fill:none;stroke:#17becf;stroke-linecap:square;stroke-opacity:0.8;stroke-width:1.5;"/>
   </g>
   <g id="line2d_42">
    <path clip-path="url(#p8846cb36a8)" d="M 87.339787 590.02193 
L 97.813372 595.485241 
L 108.286956 601.820412 
L 118.760541 602.011394 
L 129.234125 613.427655 
L 139.70771 614.322241 
L 150.181295 611.295456 
L 160.654879 615.532596 
L 171.128464 623.442649 
L 181.602048 623.45038 
L 192.075633 621.337946 
L 202.549218 623.52337 
L 213.022802 626.296644 
L 223.496387 624.556583 
L 233.969972 623.162898 
L 244.443556 623.899081 
L 254.917141 624.23644 
L 265.390725 623.655818 
L 275.86431 625.616167 
L 286.337895 622.815727 
L 296.811479 624.46415 
L 307.285064 623.160722 
L 317.758649 625.887257 
L 328.232233 626.059892 
L 338.705818 623.99576 
L 349.179402 624.47269 
L 359.652987 624.323178 
L 370.126572 625.095658 
" style="fill:none;stroke:#1f77b4;stroke-linecap:square;stroke-opacity:0.8;stroke-width:1.5;"/>
   </g>
   <g id="line2d_43">
    <path clip-path="url(#p8846cb36a8)" d="M 87.339787 575.415793 
L 97.813372 581.522838 
L 108.286956 571.708779 
L 118.760541 575.573254 
L 129.234125 275.662427 
L 139.70771 625.803607 
L 150.181295 628.9777 
L 160.654879 623.209428 
L 171.128464 626.900964 
L 181.602048 636.938077 
L 192.075633 635.393384 
L 202.549218 632.509468 
L 213.022802 635.956695 
L 223.496387 632.916406 
L 233.969972 634.658655 
L 244.443556 636.983644 
L 254.917141 636.264167 
L 265.390725 634.899768 
L 275.86431 636.024916 
" style="fill:none;stroke:#ff7f0e;stroke-linecap:square;stroke-opacity:0.8;stroke-width:1.5;"/>
   </g>
   <g id="line2d_44">
    <path clip-path="url(#p8846cb36a8)" d="M 87.339787 211.075432 
L 97.813372 204.437588 
L 108.286956 205.105558 
L 118.760541 205.669547 
L 129.234125 518.524793 
L 139.70771 522.992157 
L 150.181295 509.340531 
L 160.654879 525.280551 
L 171.128464 610.408384 
L 181.602048 609.708714 
L 192.075633 607.261552 
L 202.549218 613.221478 
L 213.022802 628.798698 
L 223.496387 627.984333 
L 233.969972 626.202042 
L 244.443556 626.751008 
L 254.917141 632.213481 
L 265.390725 632.246985 
L 275.86431 630.257259 
L 286.337895 634.015737 
L 296.811479 635.13403 
L 307.285064 635.056233 
L 317.758649 635.515013 
L 328.232233 637.289487 
" style="fill:none;stroke:#2ca02c;stroke-linecap:square;stroke-opacity:0.8;stroke-width:1.5;"/>
   </g>
   <g id="line2d_45">
    <path clip-path="url(#p8846cb36a8)" d="M 87.339787 61.701334 
L 97.813372 80.638424 
L 108.286956 50.22571 
L 118.760541 69.5167 
L 129.234125 336.378431 
L 139.70771 351.021973 
L 150.181295 324.324654 
L 160.654879 345.592336 
L 171.128464 535.883308 
L 181.602048 542.6638 
L 192.075633 529.424238 
L 202.549218 542.325908 
L 213.022802 615.06379 
L 223.496387 616.603659 
L 233.969972 614.992779 
L 244.443556 616.526883 
L 254.917141 623.326273 
L 265.390725 625.981953 
L 275.86431 622.597806 
L 286.337895 625.596419 
" style="fill:none;stroke:#d62728;stroke-linecap:square;stroke-opacity:0.8;stroke-width:1.5;"/>
   </g>
   <g id="line2d_46">
    <path clip-path="url(#p8846cb36a8)" d="M 87.339787 627.435156 
L 97.813372 626.030977 
L 108.286956 629.263627 
L 118.760541 627.498906 
L 129.234125 627.013506 
L 139.70771 627.534435 
L 150.181295 625.066301 
L 160.654879 625.417995 
L 171.128464 627.569356 
L 181.602048 624.957121 
L 192.075633 625.086567 
L 202.549218 626.077546 
L 213.022802 624.864476 
L 223.496387 627.519207 
L 233.969972 627.533494 
L 244.443556 627.534209 
L 254.917141 627.53666 
L 265.390725 625.100543 
L 275.86431 625.821194 
L 286.337895 627.569938 
L 296.811479 627.534343 
L 307.285064 627.533878 
L 317.758649 627.535468 
L 328.232233 627.535196 
L 338.705818 627.533637 
" style="fill:none;stroke:#9467bd;stroke-linecap:square;stroke-opacity:0.8;stroke-width:1.5;"/>
   </g>
   <g id="line2d_47">
    <path clip-path="url(#p8846cb36a8)" d="M 87.339787 626.700492 
L 97.813372 623.221128 
L 108.286956 623.229998 
L 118.760541 622.296484 
L 129.234125 623.882773 
L 139.70771 624.150026 
L 150.181295 623.776867 
L 160.654879 622.718417 
L 171.128464 623.22701 
L 181.602048 622.46272 
L 192.075633 622.27056 
L 202.549218 623.782549 
L 213.022802 621.802482 
L 223.496387 623.225947 
L 233.969972 623.39472 
L 244.443556 622.426342 
L 254.917141 622.403824 
" style="fill:none;stroke:#8c564b;stroke-linecap:square;stroke-opacity:0.8;stroke-width:1.5;"/>
   </g>
   <g id="line2d_48">
    <path clip-path="url(#p8846cb36a8)" d="M 87.339787 634.900532 
L 97.813372 635.565753 
L 108.286956 632.966748 
L 118.760541 636.33547 
L 129.234125 636.532101 
L 139.70771 635.282799 
L 150.181295 633.204473 
L 160.654879 636.571545 
" style="fill:none;stroke:#e377c2;stroke-linecap:square;stroke-opacity:0.8;stroke-width:1.5;"/>
   </g>
   <g id="line2d_49">
    <path clip-path="url(#p8846cb36a8)" d="M 87.339787 268.649651 
L 97.813372 281.945048 
L 108.286956 261.101742 
L 118.760541 280.810216 
L 129.234125 455.310342 
L 139.70771 462.756522 
L 150.181295 433.59356 
L 160.654879 478.986232 
L 171.128464 560.110678 
L 181.602048 557.041923 
L 192.075633 546.663685 
L 202.549218 575.173905 
L 213.022802 610.053164 
L 223.496387 610.183 
L 233.969972 606.106649 
L 244.443556 613.16327 
L 254.917141 618.558353 
L 265.390725 618.569468 
L 275.86431 617.501142 
L 286.337895 621.179095 
L 296.811479 626.810225 
L 307.285064 629.274875 
L 317.758649 626.80459 
L 328.232233 630.255245 
" style="fill:none;stroke:#7f7f7f;stroke-linecap:square;stroke-opacity:0.8;stroke-width:1.5;"/>
   </g>
   <g id="line2d_50">
    <path clip-path="url(#p8846cb36a8)" d="M 87.339787 192.831208 
L 97.813372 207.695641 
L 108.286956 192.574441 
L 118.760541 184.941071 
L 129.234125 546.979259 
L 139.70771 542.533469 
L 150.181295 528.908251 
L 160.654879 554.06601 
L 171.128464 616.165191 
L 181.602048 616.248613 
L 192.075633 612.576656 
L 202.549218 618.253806 
L 213.022802 629.887573 
L 223.496387 630.117347 
L 233.969972 631.034776 
L 244.443556 631.184363 
L 254.917141 631.504644 
L 265.390725 632.547287 
L 275.86431 631.36944 
L 286.337895 631.690251 
" style="fill:none;stroke:#bcbd22;stroke-linecap:square;stroke-opacity:0.8;stroke-width:1.5;"/>
   </g>
   <g id="line2d_51">
    <path clip-path="url(#p8846cb36a8)" d="M 87.339787 377.633533 
L 97.813372 393.335827 
L 108.286956 371.186715 
L 118.760541 384.534566 
L 129.234125 547.320638 
L 139.70771 554.971315 
L 150.181295 543.45584 
L 160.654879 553.125333 
L 171.128464 613.42076 
L 181.602048 614.19324 
L 192.075633 611.570656 
L 202.549218 614.793739 
L 213.022802 624.755777 
L 223.496387 625.916301 
L 233.969972 623.822806 
L 244.443556 625.178957 
" style="fill:none;stroke:#17becf;stroke-linecap:square;stroke-opacity:0.8;stroke-width:1.5;"/>
   </g>
   <g id="line2d_52">
    <path clip-path="url(#p8846cb36a8)" d="M 87.339787 194.541875 
L 97.813372 193.230239 
L 108.286956 197.67531 
L 118.760541 197.066022 
L 129.234125 157.149475 
L 139.70771 172.817482 
L 150.181295 195.715833 
L 160.654879 185.632666 
L 171.128464 192.122042 
L 181.602048 183.929181 
L 192.075633 193.61702 
L 202.549218 195.233963 
L 213.022802 192.410909 
L 223.496387 198.0979 
L 233.969972 185.739961 
L 244.443556 189.44247 
L 254.917141 184.032701 
L 265.390725 191.005054 
L 275.86431 198.579906 
L 286.337895 185.805195 
L 296.811479 190.520918 
L 307.285064 184.097659 
L 317.758649 198.25866 
L 328.232233 193.657812 
L 338.705818 198.638775 
L 349.179402 185.812509 
L 359.652987 190.640434 
L 370.126572 184.104301 
L 380.600156 198.758204 
L 391.073741 185.828535 
L 401.547325 190.878618 
L 412.02091 184.120154 
L 422.494495 194.598366 
L 432.968079 193.650797 
L 443.441664 198.774837 
L 453.915249 185.832426 
L 464.388833 190.904541 
L 474.862418 184.123176 
L 485.336002 193.620207 
L 495.809587 196.073065 
L 506.283172 195.761283 
L 516.756756 194.659283 
L 527.230341 198.771627 
L 537.703926 198.773897 
" style="fill:none;stroke:#1f77b4;stroke-linecap:square;stroke-opacity:0.8;stroke-width:1.5;"/>
   </g>
   <g id="line2d_53">
    <path clip-path="url(#p8846cb36a8)" d="M 87.339787 306.369369 
L 97.813372 319.917754 
L 108.286956 303.286504 
L 118.760541 306.422447 
L 129.234125 519.578426 
L 139.70771 528.906589 
L 150.181295 516.851941 
L 160.654879 519.604667 
L 171.128464 611.835913 
L 181.602048 616.941673 
L 192.075633 613.617492 
L 202.549218 611.481954 
L 213.022802 628.850584 
L 223.496387 632.530305 
L 233.969972 627.863315 
L 244.443556 629.043569 
L 254.917141 635.939285 
L 265.390725 634.814136 
L 275.86431 633.682931 
L 286.337895 632.789892 
L 296.811479 635.331556 
L 307.285064 635.879881 
L 317.758649 634.940948 
L 328.232233 635.936174 
L 338.705818 633.301675 
L 349.179402 633.05388 
L 359.652987 632.584201 
L 370.126572 634.750145 
L 380.600156 634.58162 
L 391.073741 636.720545 
L 401.547325 635.064077 
L 412.02091 631.526289 
L 422.494495 634.0927 
L 432.968079 636.071998 
L 443.441664 632.543978 
L 453.915249 634.324379 
L 464.388833 635.049813 
L 474.862418 634.304343 
" style="fill:none;stroke:#ff7f0e;stroke-linecap:square;stroke-opacity:0.8;stroke-width:1.5;"/>
   </g>
   <g id="line2d_54">
    <path clip-path="url(#p8846cb36a8)" d="M 87.339787 622.114049 
L 97.813372 623.493491 
L 108.286956 621.556229 
L 118.760541 621.346076 
L 129.234125 634.071645 
L 139.70771 633.937334 
L 150.181295 633.30439 
L 160.654879 636.984104 
L 171.128464 635.882385 
L 181.602048 637.265868 
L 192.075633 634.565362 
L 202.549218 635.260686 
" style="fill:none;stroke:#2ca02c;stroke-linecap:square;stroke-opacity:0.8;stroke-width:1.5;"/>
   </g>
   <g id="line2d_55">
    <path clip-path="url(#p8846cb36a8)" d="M 87.339787 555.205554 
L 97.813372 562.927334 
L 108.286956 555.296884 
L 118.760541 556.363636 
L 129.234125 619.053916 
L 139.70771 618.697694 
L 150.181295 617.24875 
L 160.654879 620.561157 
L 171.128464 625.98893 
L 181.602048 627.190573 
L 192.075633 624.888514 
L 202.549218 625.535164 
" style="fill:none;stroke:#d62728;stroke-linecap:square;stroke-opacity:0.8;stroke-width:1.5;"/>
   </g>
   <g id="line2d_56">
    <path clip-path="url(#p8846cb36a8)" d="M 87.339787 268.337532 
L 97.813372 265.205264 
L 108.286956 253.477525 
L 118.760541 272.073997 
L 129.234125 513.026573 
L 139.70771 510.09614 
L 150.181295 496.194402 
L 160.654879 519.076442 
L 171.128464 602.149502 
L 181.602048 604.697819 
L 192.075633 600.086764 
L 202.549218 604.457721 
L 213.022802 623.933912 
L 223.496387 624.681428 
L 233.969972 624.614533 
L 244.443556 625.869167 
L 254.917141 627.893129 
L 265.390725 628.746312 
L 275.86431 626.016881 
L 286.337895 627.760964 
" style="fill:none;stroke:#9467bd;stroke-linecap:square;stroke-opacity:0.8;stroke-width:1.5;"/>
   </g>
   <g id="line2d_57">
    <path clip-path="url(#p8846cb36a8)" d="M 87.339787 496.793229 
L 97.813372 507.456809 
L 108.286956 497.355234 
L 118.760541 498.558086 
L 129.234125 604.167662 
L 139.70771 607.720973 
L 150.181295 606.29615 
L 160.654879 604.45976 
L 171.128464 621.844933 
L 181.602048 622.251349 
L 192.075633 625.064742 
L 202.549218 622.819139 
L 213.022802 620.81539 
L 223.496387 622.331121 
L 233.969972 621.422375 
L 244.443556 622.298252 
L 254.917141 622.09445 
" style="fill:none;stroke:#8c564b;stroke-linecap:square;stroke-opacity:0.8;stroke-width:1.5;"/>
   </g>
   <g id="line2d_58">
    <path clip-path="url(#p8846cb36a8)" d="M 87.339787 613.900905 
L 97.813372 613.741154 
L 108.286956 611.750995 
L 118.760541 616.058542 
L 129.234125 623.147534 
L 139.70771 623.434453 
L 150.181295 621.567092 
L 160.654879 623.034809 
" style="fill:none;stroke:#e377c2;stroke-linecap:square;stroke-opacity:0.8;stroke-width:1.5;"/>
   </g>
   <g id="line2d_59">
    <path clip-path="url(#p8846cb36a8)" d="M 87.339787 203.313285 
L 97.813372 197.535898 
L 108.286956 194.586825 
L 118.760541 201.510683 
L 129.234125 578.909446 
L 139.70771 584.247254 
L 150.181295 573.71863 
L 160.654879 582.577986 
L 171.128464 594.478435 
L 181.602048 594.217717 
L 192.075633 586.287371 
L 202.549218 598.449678 
L 213.022802 627.224026 
L 223.496387 626.332881 
L 233.969972 625.567847 
L 244.443556 626.82467 
" style="fill:none;stroke:#7f7f7f;stroke-linecap:square;stroke-opacity:0.8;stroke-width:1.5;"/>
   </g>
   <g id="line2d_60">
    <path clip-path="url(#p8846cb36a8)" d="M 87.339787 181.810354 
L 97.813372 193.124453 
L 108.286956 192.342995 
L 118.760541 182.346614 
L 129.234125 515.971438 
L 139.70771 510.564588 
L 150.181295 496.902208 
L 160.654879 528.026943 
L 171.128464 600.585146 
L 181.602048 602.31768 
L 192.075633 596.653491 
L 202.549218 605.838236 
L 213.022802 619.131481 
L 223.496387 620.454138 
L 233.969972 618.465349 
L 244.443556 619.452248 
L 254.917141 627.536067 
L 265.390725 628.971384 
L 275.86431 629.420192 
L 286.337895 627.590271 
L 296.811479 625.833708 
L 307.285064 627.396234 
L 317.758649 627.979399 
L 328.232233 629.750335 
L 338.705818 627.244533 
L 349.179402 625.899633 
L 359.652987 627.483609 
L 370.126572 626.702274 
L 380.600156 625.781618 
L 391.073741 628.237714 
L 401.547325 628.153335 
L 412.02091 626.125883 
L 422.494495 628.647343 
" style="fill:none;stroke:#bcbd22;stroke-linecap:square;stroke-opacity:0.8;stroke-width:1.5;"/>
   </g>
   <g id="line2d_61">
    <path clip-path="url(#p8846cb36a8)" d="M 87.339787 629.052451 
L 97.813372 630.712891 
L 108.286956 628.704618 
L 118.760541 629.722725 
" style="fill:none;stroke:#17becf;stroke-linecap:square;stroke-opacity:0.8;stroke-width:1.5;"/>
   </g>
   <g id="line2d_62">
    <path clip-path="url(#p8846cb36a8)" d="M 87.339787 477.731965 
L 97.813372 472.612404 
L 108.286956 450.572436 
L 118.760541 488.93773 
L 129.234125 594.743618 
L 139.70771 594.2145 
L 150.181295 586.791985 
L 160.654879 600.089894 
L 171.128464 632.913737 
L 181.602048 633.053273 
L 192.075633 632.009055 
L 202.549218 633.069523 
" style="fill:none;stroke:#1f77b4;stroke-linecap:square;stroke-opacity:0.8;stroke-width:1.5;"/>
   </g>
   <g id="line2d_63">
    <path clip-path="url(#p8846cb36a8)" d="M 87.339787 511.300407 
L 97.813372 520.584446 
L 108.286956 508.807272 
L 118.760541 509.283133 
L 129.234125 608.768014 
L 139.70771 611.91954 
L 150.181295 607.111963 
L 160.654879 610.494842 
L 171.128464 637.330185 
L 181.602048 635.833694 
L 192.075633 634.022457 
L 202.549218 637.140645 
" style="fill:none;stroke:#ff7f0e;stroke-linecap:square;stroke-opacity:0.8;stroke-width:1.5;"/>
   </g>
   <g id="line2d_64">
    <path clip-path="url(#p8846cb36a8)" d="M 87.339787 216.138908 
L 97.813372 212.913703 
L 108.286956 208.128118 
L 118.760541 214.771853 
L 129.234125 466.460821 
L 139.70771 471.681119 
L 150.181295 455.453834 
L 160.654879 471.963027 
L 171.128464 591.95474 
L 181.602048 597.754333 
L 192.075633 590.709691 
L 202.549218 593.118958 
L 213.022802 635.452055 
L 223.496387 634.854594 
L 233.969972 631.24738 
L 244.443556 632.699723 
L 254.917141 637.625073 
L 265.390725 635.451798 
L 275.86431 632.124451 
L 286.337895 634.702738 
L 296.811479 637.096529 
L 307.285064 635.622708 
L 317.758649 634.318422 
L 328.232233 635.054279 
L 338.705818 635.803592 
L 349.179402 634.64061 
L 359.652987 637.209476 
L 370.126572 634.926663 
L 380.600156 635.484639 
L 391.073741 636.184591 
L 401.547325 635.486362 
L 412.02091 635.38012 
L 422.494495 634.332075 
" style="fill:none;stroke:#2ca02c;stroke-linecap:square;stroke-opacity:0.8;stroke-width:1.5;"/>
   </g>
   <g id="line2d_65">
    <path clip-path="url(#p8846cb36a8)" d="M 87.339787 565.200649 
L 97.813372 565.155362 
L 108.286956 556.8377 
L 118.760541 576.207538 
L 129.234125 613.557891 
L 139.70771 613.524382 
L 150.181295 611.278316 
L 160.654879 615.977676 
L 171.128464 607.86367 
L 181.602048 625.366803 
L 192.075633 623.740071 
L 202.549218 623.701354 
L 213.022802 625.459833 
L 223.496387 628.075873 
L 233.969972 628.661101 
L 244.443556 628.760861 
L 254.917141 629.73538 
" style="fill:none;stroke:#d62728;stroke-linecap:square;stroke-opacity:0.8;stroke-width:1.5;"/>
   </g>
   <g id="line2d_66">
    <path clip-path="url(#p8846cb36a8)" d="M 87.339787 621.764179 
L 97.813372 622.562732 
L 108.286956 623.071408 
L 118.760541 622.824355 
" style="fill:none;stroke:#9467bd;stroke-linecap:square;stroke-opacity:0.8;stroke-width:1.5;"/>
   </g>
   <g id="line2d_67">
    <path clip-path="url(#p8846cb36a8)" d="M 87.339787 123.274463 
L 97.813372 129.312867 
L 108.286956 120.815387 
L 118.760541 120.012509 
L 129.234125 558.75961 
L 139.70771 565.46106 
L 150.181295 553.067549 
L 160.654879 562.088809 
L 171.128464 619.492331 
L 181.602048 621.124076 
L 192.075633 618.047431 
L 202.549218 621.680834 
L 213.022802 628.11218 
L 223.496387 629.580044 
L 233.969972 625.903782 
L 244.443556 627.016027 
L 254.917141 633.969112 
L 265.390725 634.066432 
L 275.86431 632.382889 
L 286.337895 633.60773 
" style="fill:none;stroke:#8c564b;stroke-linecap:square;stroke-opacity:0.8;stroke-width:1.5;"/>
   </g>
   <g id="line2d_68">
    <path clip-path="url(#p8846cb36a8)" d="M 87.339787 550.566369 
L 97.813372 558.868757 
L 108.286956 548.305615 
L 118.760541 551.764692 
L 129.234125 624.992047 
L 139.70771 627.435386 
L 150.181295 624.723866 
L 160.654879 625.343373 
L 171.128464 632.966158 
L 181.602048 632.933634 
L 192.075633 631.120577 
L 202.549218 634.68648 
L 213.022802 634.749248 
L 223.496387 634.886693 
L 233.969972 634.724427 
L 244.443556 637.325584 
" style="fill:none;stroke:#e377c2;stroke-linecap:square;stroke-opacity:0.8;stroke-width:1.5;"/>
   </g>
   <g id="line2d_69">
    <path clip-path="url(#p8846cb36a8)" d="M 87.339787 606.375255 
L 97.813372 605.783626 
L 108.286956 600.780135 
L 118.760541 610.803522 
L 129.234125 620.076056 
L 139.70771 619.805579 
L 150.181295 619.044734 
L 160.654879 620.986304 
" style="fill:none;stroke:#7f7f7f;stroke-linecap:square;stroke-opacity:0.8;stroke-width:1.5;"/>
   </g>
   <g id="line2d_70">
    <path clip-path="url(#p8846cb36a8)" d="M 87.339787 623.911508 
L 97.813372 625.591877 
L 108.286956 623.033454 
L 118.760541 624.650868 
L 129.234125 629.181965 
L 139.70771 630.215236 
L 150.181295 627.889839 
L 160.654879 629.080396 
" style="fill:none;stroke:#bcbd22;stroke-linecap:square;stroke-opacity:0.8;stroke-width:1.5;"/>
   </g>
   <g id="line2d_71">
    <path clip-path="url(#p8846cb36a8)" d="M 87.339787 269.459282 
L 97.813372 276.160895 
L 108.286956 271.977425 
L 118.760541 296.328258 
L 129.234125 413.578715 
L 139.70771 413.868833 
L 150.181295 399.226819 
L 160.654879 432.78688 
L 171.128464 548.526117 
L 181.602048 548.654304 
L 192.075633 538.943369 
L 202.549218 562.530181 
L 213.022802 605.040846 
L 223.496387 606.189459 
L 233.969972 602.488603 
L 244.443556 609.66528 
L 254.917141 627.929308 
L 265.390725 628.052223 
L 275.86431 625.467792 
L 286.337895 626.623563 
L 296.811479 633.14402 
L 307.285064 632.990301 
L 317.758649 631.37953 
L 328.232233 632.809496 
" style="fill:none;stroke:#17becf;stroke-linecap:square;stroke-opacity:0.8;stroke-width:1.5;"/>
   </g>
   <g id="line2d_72">
    <defs>
     <path d="M 0 3 
C 0.795609 3 1.55874 2.683901 2.12132 2.12132 
C 2.683901 1.55874 3 0.795609 3 0 
C 3 -0.795609 2.683901 -1.55874 2.12132 -2.12132 
C 1.55874 -2.683901 0.795609 -3 0 -3 
C -0.795609 -3 -1.55874 -2.683901 -2.12132 -2.12132 
C -2.683901 -1.55874 -3 -0.795609 -3 0 
C -3 0.795609 -2.683901 1.55874 -2.12132 2.12132 
C -1.55874 2.683901 -0.795609 3 0 3 
z
" id="m103ab8971d" style="stroke:#000000;stroke-opacity:0.8;"/>
    </defs>
    <g clip-path="url(#p8846cb36a8)">
     <use style="fill-opacity:0.8;stroke:#000000;stroke-opacity:0.8;" x="474.862418" xlink:href="#m103ab8971d" y="634.474752"/>
    </g>
   </g>
   <g id="line2d_73">
    <g clip-path="url(#p8846cb36a8)">
     <use style="fill-opacity:0.8;stroke:#000000;stroke-opacity:0.8;" x="422.494495" xlink:href="#m103ab8971d" y="633.775006"/>
    </g>
   </g>
   <g id="line2d_74">
    <g clip-path="url(#p8846cb36a8)">
     <use style="fill-opacity:0.8;stroke:#000000;stroke-opacity:0.8;" x="160.654879" xlink:href="#m103ab8971d" y="636.830022"/>
    </g>
   </g>
   <g id="line2d_75">
    <g clip-path="url(#p8846cb36a8)">
     <use style="fill-opacity:0.8;stroke:#000000;stroke-opacity:0.8;" x="118.760541" xlink:href="#m103ab8971d" y="622.419743"/>
    </g>
   </g>
   <g id="line2d_76">
    <g clip-path="url(#p8846cb36a8)">
     <use style="fill-opacity:0.8;stroke:#000000;stroke-opacity:0.8;" x="202.549218" xlink:href="#m103ab8971d" y="631.494412"/>
    </g>
   </g>
   <g id="line2d_77">
    <g clip-path="url(#p8846cb36a8)">
     <use style="fill-opacity:0.8;stroke:#000000;stroke-opacity:0.8;" x="213.022802" xlink:href="#m103ab8971d" y="622.433623"/>
    </g>
   </g>
   <g id="line2d_78">
    <g clip-path="url(#p8846cb36a8)">
     <use style="fill-opacity:0.8;stroke:#000000;stroke-opacity:0.8;" x="328.232233" xlink:href="#m103ab8971d" y="637.108625"/>
    </g>
   </g>
   <g id="line2d_79">
    <g clip-path="url(#p8846cb36a8)">
     <use style="fill-opacity:0.8;stroke:#000000;stroke-opacity:0.8;" x="244.443556" xlink:href="#m103ab8971d" y="637.316619"/>
    </g>
   </g>
   <g id="line2d_80">
    <g clip-path="url(#p8846cb36a8)">
     <use style="fill-opacity:0.8;stroke:#000000;stroke-opacity:0.8;" x="673.860526" xlink:href="#m103ab8971d" y="627.015967"/>
    </g>
   </g>
   <g id="line2d_81">
    <g clip-path="url(#p8846cb36a8)">
     <use style="fill-opacity:0.8;stroke:#000000;stroke-opacity:0.8;" x="244.443556" xlink:href="#m103ab8971d" y="622.931312"/>
    </g>
   </g>
   <g id="line2d_82">
    <g clip-path="url(#p8846cb36a8)">
     <use style="fill-opacity:0.8;stroke:#000000;stroke-opacity:0.8;" x="422.494495" xlink:href="#m103ab8971d" y="626.118437"/>
    </g>
   </g>
   <g id="line2d_83">
    <g clip-path="url(#p8846cb36a8)">
     <use style="fill-opacity:0.8;stroke:#000000;stroke-opacity:0.8;" x="328.232233" xlink:href="#m103ab8971d" y="621.372316"/>
    </g>
   </g>
   <g id="line2d_84">
    <g clip-path="url(#p8846cb36a8)">
     <use style="fill-opacity:0.8;stroke:#000000;stroke-opacity:0.8;" x="338.705818" xlink:href="#m103ab8971d" y="634.117682"/>
    </g>
   </g>
   <g id="line2d_85">
    <g clip-path="url(#p8846cb36a8)">
     <use style="fill-opacity:0.8;stroke:#000000;stroke-opacity:0.8;" x="160.654879" xlink:href="#m103ab8971d" y="626.932307"/>
    </g>
   </g>
   <g id="line2d_86">
    <g clip-path="url(#p8846cb36a8)">
     <use style="fill-opacity:0.8;stroke:#000000;stroke-opacity:0.8;" x="432.968079" xlink:href="#m103ab8971d" y="634.457085"/>
    </g>
   </g>
   <g id="line2d_87">
    <g clip-path="url(#p8846cb36a8)">
     <use style="fill-opacity:0.8;stroke:#000000;stroke-opacity:0.8;" x="160.654879" xlink:href="#m103ab8971d" y="628.829166"/>
    </g>
   </g>
   <g id="line2d_88">
    <g clip-path="url(#p8846cb36a8)">
     <use style="fill-opacity:0.8;stroke:#000000;stroke-opacity:0.8;" x="328.232233" xlink:href="#m103ab8971d" y="622.751387"/>
    </g>
   </g>
   <g id="line2d_89">
    <g clip-path="url(#p8846cb36a8)">
     <use style="fill-opacity:0.8;stroke:#000000;stroke-opacity:0.8;" x="202.549218" xlink:href="#m103ab8971d" y="636.692146"/>
    </g>
   </g>
   <g id="line2d_90">
    <g clip-path="url(#p8846cb36a8)">
     <use style="fill-opacity:0.8;stroke:#000000;stroke-opacity:0.8;" x="569.124679" xlink:href="#m103ab8971d" y="635.798038"/>
    </g>
   </g>
   <g id="line2d_91">
    <g clip-path="url(#p8846cb36a8)">
     <use style="fill-opacity:0.8;stroke:#000000;stroke-opacity:0.8;" x="317.758649" xlink:href="#m103ab8971d" y="254.9751"/>
    </g>
   </g>
   <g id="line2d_92">
    <g clip-path="url(#p8846cb36a8)">
     <use style="fill-opacity:0.8;stroke:#000000;stroke-opacity:0.8;" x="370.126572" xlink:href="#m103ab8971d" y="625.095658"/>
    </g>
   </g>
   <g id="line2d_93">
    <g clip-path="url(#p8846cb36a8)">
     <use style="fill-opacity:0.8;stroke:#000000;stroke-opacity:0.8;" x="275.86431" xlink:href="#m103ab8971d" y="636.024916"/>
    </g>
   </g>
   <g id="line2d_94">
    <g clip-path="url(#p8846cb36a8)">
     <use style="fill-opacity:0.8;stroke:#000000;stroke-opacity:0.8;" x="328.232233" xlink:href="#m103ab8971d" y="637.289487"/>
    </g>
   </g>
   <g id="line2d_95">
    <g clip-path="url(#p8846cb36a8)">
     <use style="fill-opacity:0.8;stroke:#000000;stroke-opacity:0.8;" x="286.337895" xlink:href="#m103ab8971d" y="625.596419"/>
    </g>
   </g>
   <g id="line2d_96">
    <g clip-path="url(#p8846cb36a8)">
     <use style="fill-opacity:0.8;stroke:#000000;stroke-opacity:0.8;" x="338.705818" xlink:href="#m103ab8971d" y="627.533637"/>
    </g>
   </g>
   <g id="line2d_97">
    <g clip-path="url(#p8846cb36a8)">
     <use style="fill-opacity:0.8;stroke:#000000;stroke-opacity:0.8;" x="254.917141" xlink:href="#m103ab8971d" y="622.403824"/>
    </g>
   </g>
   <g id="line2d_98">
    <g clip-path="url(#p8846cb36a8)">
     <use style="fill-opacity:0.8;stroke:#000000;stroke-opacity:0.8;" x="160.654879" xlink:href="#m103ab8971d" y="636.571545"/>
    </g>
   </g>
   <g id="line2d_99">
    <g clip-path="url(#p8846cb36a8)">
     <use style="fill-opacity:0.8;stroke:#000000;stroke-opacity:0.8;" x="328.232233" xlink:href="#m103ab8971d" y="630.255245"/>
    </g>
   </g>
   <g id="line2d_100">
    <g clip-path="url(#p8846cb36a8)">
     <use style="fill-opacity:0.8;stroke:#000000;stroke-opacity:0.8;" x="286.337895" xlink:href="#m103ab8971d" y="631.690251"/>
    </g>
   </g>
   <g id="line2d_101">
    <g clip-path="url(#p8846cb36a8)">
     <use style="fill-opacity:0.8;stroke:#000000;stroke-opacity:0.8;" x="244.443556" xlink:href="#m103ab8971d" y="625.178957"/>
    </g>
   </g>
   <g id="line2d_102">
    <g clip-path="url(#p8846cb36a8)">
     <use style="fill-opacity:0.8;stroke:#000000;stroke-opacity:0.8;" x="537.703926" xlink:href="#m103ab8971d" y="198.773897"/>
    </g>
   </g>
   <g id="line2d_103">
    <g clip-path="url(#p8846cb36a8)">
     <use style="fill-opacity:0.8;stroke:#000000;stroke-opacity:0.8;" x="474.862418" xlink:href="#m103ab8971d" y="634.304343"/>
    </g>
   </g>
   <g id="line2d_104">
    <g clip-path="url(#p8846cb36a8)">
     <use style="fill-opacity:0.8;stroke:#000000;stroke-opacity:0.8;" x="202.549218" xlink:href="#m103ab8971d" y="635.260686"/>
    </g>
   </g>
   <g id="line2d_105">
    <g clip-path="url(#p8846cb36a8)">
     <use style="fill-opacity:0.8;stroke:#000000;stroke-opacity:0.8;" x="202.549218" xlink:href="#m103ab8971d" y="625.535164"/>
    </g>
   </g>
   <g id="line2d_106">
    <g clip-path="url(#p8846cb36a8)">
     <use style="fill-opacity:0.8;stroke:#000000;stroke-opacity:0.8;" x="286.337895" xlink:href="#m103ab8971d" y="627.760964"/>
    </g>
   </g>
   <g id="line2d_107">
    <g clip-path="url(#p8846cb36a8)">
     <use style="fill-opacity:0.8;stroke:#000000;stroke-opacity:0.8;" x="254.917141" xlink:href="#m103ab8971d" y="622.09445"/>
    </g>
   </g>
   <g id="line2d_108">
    <g clip-path="url(#p8846cb36a8)">
     <use style="fill-opacity:0.8;stroke:#000000;stroke-opacity:0.8;" x="160.654879" xlink:href="#m103ab8971d" y="623.034809"/>
    </g>
   </g>
   <g id="line2d_109">
    <g clip-path="url(#p8846cb36a8)">
     <use style="fill-opacity:0.8;stroke:#000000;stroke-opacity:0.8;" x="244.443556" xlink:href="#m103ab8971d" y="626.82467"/>
    </g>
   </g>
   <g id="line2d_110">
    <g clip-path="url(#p8846cb36a8)">
     <use style="fill-opacity:0.8;stroke:#000000;stroke-opacity:0.8;" x="422.494495" xlink:href="#m103ab8971d" y="628.647343"/>
    </g>
   </g>
   <g id="line2d_111">
    <g clip-path="url(#p8846cb36a8)">
     <use style="fill-opacity:0.8;stroke:#000000;stroke-opacity:0.8;" x="118.760541" xlink:href="#m103ab8971d" y="629.722725"/>
    </g>
   </g>
   <g id="line2d_112">
    <g clip-path="url(#p8846cb36a8)">
     <use style="fill-opacity:0.8;stroke:#000000;stroke-opacity:0.8;" x="202.549218" xlink:href="#m103ab8971d" y="633.069523"/>
    </g>
   </g>
   <g id="line2d_113">
    <g clip-path="url(#p8846cb36a8)">
     <use style="fill-opacity:0.8;stroke:#000000;stroke-opacity:0.8;" x="202.549218" xlink:href="#m103ab8971d" y="637.140645"/>
    </g>
   </g>
   <g id="line2d_114">
    <g clip-path="url(#p8846cb36a8)">
     <use style="fill-opacity:0.8;stroke:#000000;stroke-opacity:0.8;" x="422.494495" xlink:href="#m103ab8971d" y="634.332075"/>
    </g>
   </g>
   <g id="line2d_115">
    <g clip-path="url(#p8846cb36a8)">
     <use style="fill-opacity:0.8;stroke:#000000;stroke-opacity:0.8;" x="254.917141" xlink:href="#m103ab8971d" y="629.73538"/>
    </g>
   </g>
   <g id="line2d_116">
    <g clip-path="url(#p8846cb36a8)">
     <use style="fill-opacity:0.8;stroke:#000000;stroke-opacity:0.8;" x="118.760541" xlink:href="#m103ab8971d" y="622.824355"/>
    </g>
   </g>
   <g id="line2d_117">
    <g clip-path="url(#p8846cb36a8)">
     <use style="fill-opacity:0.8;stroke:#000000;stroke-opacity:0.8;" x="286.337895" xlink:href="#m103ab8971d" y="633.60773"/>
    </g>
   </g>
   <g id="line2d_118">
    <g clip-path="url(#p8846cb36a8)">
     <use style="fill-opacity:0.8;stroke:#000000;stroke-opacity:0.8;" x="244.443556" xlink:href="#m103ab8971d" y="637.325584"/>
    </g>
   </g>
   <g id="line2d_119">
    <g clip-path="url(#p8846cb36a8)">
     <use style="fill-opacity:0.8;stroke:#000000;stroke-opacity:0.8;" x="160.654879" xlink:href="#m103ab8971d" y="620.986304"/>
    </g>
   </g>
   <g id="line2d_120">
    <g clip-path="url(#p8846cb36a8)">
     <use style="fill-opacity:0.8;stroke:#000000;stroke-opacity:0.8;" x="160.654879" xlink:href="#m103ab8971d" y="629.080396"/>
    </g>
   </g>
   <g id="line2d_121">
    <g clip-path="url(#p8846cb36a8)">
     <use style="fill-opacity:0.8;stroke:#000000;stroke-opacity:0.8;" x="328.232233" xlink:href="#m103ab8971d" y="632.809496"/>
    </g>
   </g>
   <g id="patch_3">
    <path d="M 58.01375 668.198438 
L 58.01375 20.798438 
" style="fill:none;stroke:#000000;stroke-linecap:square;stroke-linejoin:miter;stroke-width:0.8;"/>
   </g>
   <g id="patch_4">
    <path d="M 703.186562 668.198438 
L 703.186562 20.798438 
" style="fill:none;stroke:#000000;stroke-linecap:square;stroke-linejoin:miter;stroke-width:0.8;"/>
   </g>
   <g id="patch_5">
    <path d="M 58.01375 668.198437 
L 703.186563 668.198437 
" style="fill:none;stroke:#000000;stroke-linecap:square;stroke-linejoin:miter;stroke-width:0.8;"/>
   </g>
   <g id="patch_6">
    <path d="M 58.01375 20.798437 
L 703.186563 20.798437 
" style="fill:none;stroke:#000000;stroke-linecap:square;stroke-linejoin:miter;stroke-width:0.8;"/>
   </g>
   <g id="text_11">
    <!-- Traces -->
    <defs>
     <path d="M 0.484375 72.90625 
L 67.671875 72.90625 
L 67.671875 58.6875 
L 43.5 58.6875 
L 43.5 0 
L 24.703125 0 
L 24.703125 58.6875 
L 0.484375 58.6875 
z
" id="DejaVuSans-Bold-84"/>
     <path d="M 49.03125 39.796875 
Q 46.734375 40.875 44.453125 41.375 
Q 42.1875 41.890625 39.890625 41.890625 
Q 33.15625 41.890625 29.515625 37.5625 
Q 25.875 33.25 25.875 25.203125 
L 25.875 0 
L 8.40625 0 
L 8.40625 54.6875 
L 25.875 54.6875 
L 25.875 45.703125 
Q 29.25 51.078125 33.609375 53.53125 
Q 37.984375 56 44.09375 56 
Q 44.96875 56 45.984375 55.921875 
Q 47.015625 55.859375 48.96875 55.609375 
z
" id="DejaVuSans-Bold-114"/>
     <path d="M 32.90625 24.609375 
Q 27.4375 24.609375 24.671875 22.75 
Q 21.921875 20.90625 21.921875 17.28125 
Q 21.921875 13.96875 24.140625 12.078125 
Q 26.375 10.203125 30.328125 10.203125 
Q 35.25 10.203125 38.625 13.734375 
Q 42 17.28125 42 22.609375 
L 42 24.609375 
z
M 59.625 31.203125 
L 59.625 0 
L 42 0 
L 42 8.109375 
Q 38.484375 3.125 34.078125 0.84375 
Q 29.6875 -1.421875 23.390625 -1.421875 
Q 14.890625 -1.421875 9.59375 3.53125 
Q 4.296875 8.5 4.296875 16.40625 
Q 4.296875 26.03125 10.90625 30.515625 
Q 17.53125 35.015625 31.6875 35.015625 
L 42 35.015625 
L 42 36.375 
Q 42 40.53125 38.71875 42.453125 
Q 35.453125 44.390625 28.515625 44.390625 
Q 22.90625 44.390625 18.0625 43.265625 
Q 13.234375 42.140625 9.078125 39.890625 
L 9.078125 53.21875 
Q 14.703125 54.59375 20.359375 55.296875 
Q 26.03125 56 31.6875 56 
Q 46.484375 56 53.046875 50.171875 
Q 59.625 44.34375 59.625 31.203125 
z
" id="DejaVuSans-Bold-97"/>
    </defs>
    <g transform="translate(362.026719 14.798437)scale(0.1 -0.1)">
     <use xlink:href="#DejaVuSans-Bold-84"/>
     <use x="68.041016" xlink:href="#DejaVuSans-Bold-114"/>
     <use x="117.357422" xlink:href="#DejaVuSans-Bold-97"/>
     <use x="184.837891" xlink:href="#DejaVuSans-Bold-99"/>
     <use x="244.115234" xlink:href="#DejaVuSans-Bold-101"/>
     <use x="311.9375" xlink:href="#DejaVuSans-Bold-115"/>
    </g>
   </g>
  </g>
 </g>
 <defs>
  <clipPath id="p8846cb36a8">
   <rect height="647.4" width="645.172812" x="58.01375" y="20.798437"/>
  </clipPath>
 </defs>
</svg>
