<?xml version="1.0" encoding="utf-8" standalone="no"?>
<!DOCTYPE svg PUBLIC "-//W3C//DTD SVG 1.1//EN"
  "http://www.w3.org/Graphics/SVG/1.1/DTD/svg11.dtd">
<!-- Created with matplotlib (https://matplotlib.org/) -->
<svg height="355.734688pt" version="1.1" viewBox="0 0 472.92858 355.734688" width="472.92858pt" xmlns="http://www.w3.org/2000/svg" xmlns:xlink="http://www.w3.org/1999/xlink">
 <metadata>
  <rdf:RDF xmlns:cc="http://creativecommons.org/ns#" xmlns:dc="http://purl.org/dc/elements/1.1/" xmlns:rdf="http://www.w3.org/1999/02/22-rdf-syntax-ns#">
   <cc:Work>
    <dc:type rdf:resource="http://purl.org/dc/dcmitype/StillImage"/>
    <dc:date>2021-03-25T00:56:08.792580</dc:date>
    <dc:format>image/svg+xml</dc:format>
    <dc:creator>
     <cc:Agent>
      <dc:title>Matplotlib v3.3.4, https://matplotlib.org/</dc:title>
     </cc:Agent>
    </dc:creator>
   </cc:Work>
  </rdf:RDF>
 </metadata>
 <defs>
  <style type="text/css">*{stroke-linecap:butt;stroke-linejoin:round;}</style>
 </defs>
 <g id="figure_1">
  <g id="patch_1">
   <path d="M 0 355.734688 
L 472.92858 355.734688 
L 472.92858 0 
L 0 0 
z
" style="fill:#ffffff;"/>
  </g>
  <g id="axes_1">
   <g id="patch_2">
    <path d="M 73.795625 305.596875 
L 464.395625 305.596875 
L 464.395625 28.396875 
L 73.795625 28.396875 
z
" style="fill:#ffffff;"/>
   </g>
   <g id="matplotlib.axis_1">
    <g id="xtick_1">
     <g id="line2d_1">
      <defs>
       <path d="M 0 0 
L 0 3.5 
" id="m74eeae0651" style="stroke:#000000;stroke-width:0.8;"/>
      </defs>
      <g>
       <use style="stroke:#000000;stroke-width:0.8;" x="91.55017" xlink:href="#m74eeae0651" y="305.596875"/>
      </g>
     </g>
     <g id="text_1">
      <!-- 0 -->
      <g transform="translate(86.778295 323.994531)scale(0.15 -0.15)">
       <defs>
        <path d="M 31.78125 66.40625 
Q 24.171875 66.40625 20.328125 58.90625 
Q 16.5 51.421875 16.5 36.375 
Q 16.5 21.390625 20.328125 13.890625 
Q 24.171875 6.390625 31.78125 6.390625 
Q 39.453125 6.390625 43.28125 13.890625 
Q 47.125 21.390625 47.125 36.375 
Q 47.125 51.421875 43.28125 58.90625 
Q 39.453125 66.40625 31.78125 66.40625 
z
M 31.78125 74.21875 
Q 44.046875 74.21875 50.515625 64.515625 
Q 56.984375 54.828125 56.984375 36.375 
Q 56.984375 17.96875 50.515625 8.265625 
Q 44.046875 -1.421875 31.78125 -1.421875 
Q 19.53125 -1.421875 13.0625 8.265625 
Q 6.59375 17.96875 6.59375 36.375 
Q 6.59375 54.828125 13.0625 64.515625 
Q 19.53125 74.21875 31.78125 74.21875 
z
" id="DejaVuSans-48"/>
       </defs>
       <use xlink:href="#DejaVuSans-48"/>
      </g>
     </g>
    </g>
    <g id="xtick_2">
     <g id="line2d_2">
      <g>
       <use style="stroke:#000000;stroke-width:0.8;" x="162.568352" xlink:href="#m74eeae0651" y="305.596875"/>
      </g>
     </g>
     <g id="text_2">
      <!-- 200 -->
      <g transform="translate(148.252727 323.994531)scale(0.15 -0.15)">
       <defs>
        <path d="M 19.1875 8.296875 
L 53.609375 8.296875 
L 53.609375 0 
L 7.328125 0 
L 7.328125 8.296875 
Q 12.9375 14.109375 22.625 23.890625 
Q 32.328125 33.6875 34.8125 36.53125 
Q 39.546875 41.84375 41.421875 45.53125 
Q 43.3125 49.21875 43.3125 52.78125 
Q 43.3125 58.59375 39.234375 62.25 
Q 35.15625 65.921875 28.609375 65.921875 
Q 23.96875 65.921875 18.8125 64.3125 
Q 13.671875 62.703125 7.8125 59.421875 
L 7.8125 69.390625 
Q 13.765625 71.78125 18.9375 73 
Q 24.125 74.21875 28.421875 74.21875 
Q 39.75 74.21875 46.484375 68.546875 
Q 53.21875 62.890625 53.21875 53.421875 
Q 53.21875 48.921875 51.53125 44.890625 
Q 49.859375 40.875 45.40625 35.40625 
Q 44.1875 33.984375 37.640625 27.21875 
Q 31.109375 20.453125 19.1875 8.296875 
z
" id="DejaVuSans-50"/>
       </defs>
       <use xlink:href="#DejaVuSans-50"/>
       <use x="63.623047" xlink:href="#DejaVuSans-48"/>
       <use x="127.246094" xlink:href="#DejaVuSans-48"/>
      </g>
     </g>
    </g>
    <g id="xtick_3">
     <g id="line2d_3">
      <g>
       <use style="stroke:#000000;stroke-width:0.8;" x="233.586534" xlink:href="#m74eeae0651" y="305.596875"/>
      </g>
     </g>
     <g id="text_3">
      <!-- 400 -->
      <g transform="translate(219.270909 323.994531)scale(0.15 -0.15)">
       <defs>
        <path d="M 37.796875 64.3125 
L 12.890625 25.390625 
L 37.796875 25.390625 
z
M 35.203125 72.90625 
L 47.609375 72.90625 
L 47.609375 25.390625 
L 58.015625 25.390625 
L 58.015625 17.1875 
L 47.609375 17.1875 
L 47.609375 0 
L 37.796875 0 
L 37.796875 17.1875 
L 4.890625 17.1875 
L 4.890625 26.703125 
z
" id="DejaVuSans-52"/>
       </defs>
       <use xlink:href="#DejaVuSans-52"/>
       <use x="63.623047" xlink:href="#DejaVuSans-48"/>
       <use x="127.246094" xlink:href="#DejaVuSans-48"/>
      </g>
     </g>
    </g>
    <g id="xtick_4">
     <g id="line2d_4">
      <g>
       <use style="stroke:#000000;stroke-width:0.8;" x="304.604716" xlink:href="#m74eeae0651" y="305.596875"/>
      </g>
     </g>
     <g id="text_4">
      <!-- 600 -->
      <g transform="translate(290.289091 323.994531)scale(0.15 -0.15)">
       <defs>
        <path d="M 33.015625 40.375 
Q 26.375 40.375 22.484375 35.828125 
Q 18.609375 31.296875 18.609375 23.390625 
Q 18.609375 15.53125 22.484375 10.953125 
Q 26.375 6.390625 33.015625 6.390625 
Q 39.65625 6.390625 43.53125 10.953125 
Q 47.40625 15.53125 47.40625 23.390625 
Q 47.40625 31.296875 43.53125 35.828125 
Q 39.65625 40.375 33.015625 40.375 
z
M 52.59375 71.296875 
L 52.59375 62.3125 
Q 48.875 64.0625 45.09375 64.984375 
Q 41.3125 65.921875 37.59375 65.921875 
Q 27.828125 65.921875 22.671875 59.328125 
Q 17.53125 52.734375 16.796875 39.40625 
Q 19.671875 43.65625 24.015625 45.921875 
Q 28.375 48.1875 33.59375 48.1875 
Q 44.578125 48.1875 50.953125 41.515625 
Q 57.328125 34.859375 57.328125 23.390625 
Q 57.328125 12.15625 50.6875 5.359375 
Q 44.046875 -1.421875 33.015625 -1.421875 
Q 20.359375 -1.421875 13.671875 8.265625 
Q 6.984375 17.96875 6.984375 36.375 
Q 6.984375 53.65625 15.1875 63.9375 
Q 23.390625 74.21875 37.203125 74.21875 
Q 40.921875 74.21875 44.703125 73.484375 
Q 48.484375 72.75 52.59375 71.296875 
z
" id="DejaVuSans-54"/>
       </defs>
       <use xlink:href="#DejaVuSans-54"/>
       <use x="63.623047" xlink:href="#DejaVuSans-48"/>
       <use x="127.246094" xlink:href="#DejaVuSans-48"/>
      </g>
     </g>
    </g>
    <g id="xtick_5">
     <g id="line2d_5">
      <g>
       <use style="stroke:#000000;stroke-width:0.8;" x="375.622898" xlink:href="#m74eeae0651" y="305.596875"/>
      </g>
     </g>
     <g id="text_5">
      <!-- 800 -->
      <g transform="translate(361.307273 323.994531)scale(0.15 -0.15)">
       <defs>
        <path d="M 31.78125 34.625 
Q 24.75 34.625 20.71875 30.859375 
Q 16.703125 27.09375 16.703125 20.515625 
Q 16.703125 13.921875 20.71875 10.15625 
Q 24.75 6.390625 31.78125 6.390625 
Q 38.8125 6.390625 42.859375 10.171875 
Q 46.921875 13.96875 46.921875 20.515625 
Q 46.921875 27.09375 42.890625 30.859375 
Q 38.875 34.625 31.78125 34.625 
z
M 21.921875 38.8125 
Q 15.578125 40.375 12.03125 44.71875 
Q 8.5 49.078125 8.5 55.328125 
Q 8.5 64.0625 14.71875 69.140625 
Q 20.953125 74.21875 31.78125 74.21875 
Q 42.671875 74.21875 48.875 69.140625 
Q 55.078125 64.0625 55.078125 55.328125 
Q 55.078125 49.078125 51.53125 44.71875 
Q 48 40.375 41.703125 38.8125 
Q 48.828125 37.15625 52.796875 32.3125 
Q 56.78125 27.484375 56.78125 20.515625 
Q 56.78125 9.90625 50.3125 4.234375 
Q 43.84375 -1.421875 31.78125 -1.421875 
Q 19.734375 -1.421875 13.25 4.234375 
Q 6.78125 9.90625 6.78125 20.515625 
Q 6.78125 27.484375 10.78125 32.3125 
Q 14.796875 37.15625 21.921875 38.8125 
z
M 18.3125 54.390625 
Q 18.3125 48.734375 21.84375 45.5625 
Q 25.390625 42.390625 31.78125 42.390625 
Q 38.140625 42.390625 41.71875 45.5625 
Q 45.3125 48.734375 45.3125 54.390625 
Q 45.3125 60.0625 41.71875 63.234375 
Q 38.140625 66.40625 31.78125 66.40625 
Q 25.390625 66.40625 21.84375 63.234375 
Q 18.3125 60.0625 18.3125 54.390625 
z
" id="DejaVuSans-56"/>
       </defs>
       <use xlink:href="#DejaVuSans-56"/>
       <use x="63.623047" xlink:href="#DejaVuSans-48"/>
       <use x="127.246094" xlink:href="#DejaVuSans-48"/>
      </g>
     </g>
    </g>
    <g id="xtick_6">
     <g id="line2d_6">
      <g>
       <use style="stroke:#000000;stroke-width:0.8;" x="446.64108" xlink:href="#m74eeae0651" y="305.596875"/>
      </g>
     </g>
     <g id="text_6">
      <!-- 1000 -->
      <g transform="translate(427.55358 323.994531)scale(0.15 -0.15)">
       <defs>
        <path d="M 12.40625 8.296875 
L 28.515625 8.296875 
L 28.515625 63.921875 
L 10.984375 60.40625 
L 10.984375 69.390625 
L 28.421875 72.90625 
L 38.28125 72.90625 
L 38.28125 8.296875 
L 54.390625 8.296875 
L 54.390625 0 
L 12.40625 0 
z
" id="DejaVuSans-49"/>
       </defs>
       <use xlink:href="#DejaVuSans-49"/>
       <use x="63.623047" xlink:href="#DejaVuSans-48"/>
       <use x="127.246094" xlink:href="#DejaVuSans-48"/>
       <use x="190.869141" xlink:href="#DejaVuSans-48"/>
      </g>
     </g>
    </g>
    <g id="text_7">
     <!-- None [None] -->
     <g transform="translate(205.282813 344.79125)scale(0.18 -0.18)">
      <defs>
       <path d="M 9.1875 72.90625 
L 30.171875 72.90625 
L 56.6875 22.90625 
L 56.6875 72.90625 
L 74.515625 72.90625 
L 74.515625 0 
L 53.515625 0 
L 27 50 
L 27 0 
L 9.1875 0 
z
" id="DejaVuSans-Bold-78"/>
       <path d="M 34.421875 43.5 
Q 28.609375 43.5 25.5625 39.328125 
Q 22.515625 35.15625 22.515625 27.296875 
Q 22.515625 19.4375 25.5625 15.25 
Q 28.609375 11.078125 34.421875 11.078125 
Q 40.140625 11.078125 43.15625 15.25 
Q 46.1875 19.4375 46.1875 27.296875 
Q 46.1875 35.15625 43.15625 39.328125 
Q 40.140625 43.5 34.421875 43.5 
z
M 34.421875 56 
Q 48.53125 56 56.46875 48.375 
Q 64.40625 40.765625 64.40625 27.296875 
Q 64.40625 13.8125 56.46875 6.1875 
Q 48.53125 -1.421875 34.421875 -1.421875 
Q 20.265625 -1.421875 12.28125 6.1875 
Q 4.296875 13.8125 4.296875 27.296875 
Q 4.296875 40.765625 12.28125 48.375 
Q 20.265625 56 34.421875 56 
z
" id="DejaVuSans-Bold-111"/>
       <path d="M 63.375 33.296875 
L 63.375 0 
L 45.796875 0 
L 45.796875 5.421875 
L 45.796875 25.484375 
Q 45.796875 32.5625 45.484375 35.25 
Q 45.171875 37.9375 44.390625 39.203125 
Q 43.359375 40.921875 41.59375 41.875 
Q 39.84375 42.828125 37.59375 42.828125 
Q 32.125 42.828125 29 38.59375 
Q 25.875 34.375 25.875 26.90625 
L 25.875 0 
L 8.40625 0 
L 8.40625 54.6875 
L 25.875 54.6875 
L 25.875 46.6875 
Q 29.828125 51.46875 34.265625 53.734375 
Q 38.71875 56 44.09375 56 
Q 53.5625 56 58.46875 50.1875 
Q 63.375 44.390625 63.375 33.296875 
z
" id="DejaVuSans-Bold-110"/>
       <path d="M 62.984375 27.484375 
L 62.984375 22.515625 
L 22.125 22.515625 
Q 22.75 16.359375 26.5625 13.28125 
Q 30.375 10.203125 37.203125 10.203125 
Q 42.71875 10.203125 48.5 11.84375 
Q 54.296875 13.484375 60.40625 16.796875 
L 60.40625 3.328125 
Q 54.203125 0.984375 48 -0.21875 
Q 41.796875 -1.421875 35.59375 -1.421875 
Q 20.75 -1.421875 12.515625 6.125 
Q 4.296875 13.671875 4.296875 27.296875 
Q 4.296875 40.671875 12.375 48.328125 
Q 20.453125 56 34.625 56 
Q 47.515625 56 55.25 48.234375 
Q 62.984375 40.484375 62.984375 27.484375 
z
M 45.015625 33.296875 
Q 45.015625 38.28125 42.109375 41.328125 
Q 39.203125 44.390625 34.515625 44.390625 
Q 29.4375 44.390625 26.265625 41.53125 
Q 23.09375 38.671875 22.3125 33.296875 
z
" id="DejaVuSans-Bold-101"/>
       <path id="DejaVuSans-Bold-32"/>
       <path d="M 8.59375 75.984375 
L 38.921875 75.984375 
L 38.921875 64.984375 
L 25.203125 64.984375 
L 25.203125 -2.203125 
L 38.921875 -2.203125 
L 38.921875 -13.1875 
L 8.59375 -13.1875 
z
" id="DejaVuSans-Bold-91"/>
       <path d="M 37.109375 -13.1875 
L 6.78125 -13.1875 
L 6.78125 -2.203125 
L 20.515625 -2.203125 
L 20.515625 64.984375 
L 6.78125 64.984375 
L 6.78125 75.984375 
L 37.109375 75.984375 
z
" id="DejaVuSans-Bold-93"/>
      </defs>
      <use xlink:href="#DejaVuSans-Bold-78"/>
      <use x="83.691406" xlink:href="#DejaVuSans-Bold-111"/>
      <use x="152.392578" xlink:href="#DejaVuSans-Bold-110"/>
      <use x="223.583984" xlink:href="#DejaVuSans-Bold-101"/>
      <use x="291.40625" xlink:href="#DejaVuSans-Bold-32"/>
      <use x="326.220703" xlink:href="#DejaVuSans-Bold-91"/>
      <use x="371.923828" xlink:href="#DejaVuSans-Bold-78"/>
      <use x="455.615234" xlink:href="#DejaVuSans-Bold-111"/>
      <use x="524.316406" xlink:href="#DejaVuSans-Bold-110"/>
      <use x="595.507812" xlink:href="#DejaVuSans-Bold-101"/>
      <use x="663.330078" xlink:href="#DejaVuSans-Bold-93"/>
     </g>
    </g>
   </g>
   <g id="matplotlib.axis_2">
    <g id="ytick_1">
     <g id="line2d_7">
      <defs>
       <path d="M 0 0 
L -3.5 0 
" id="m23641711b8" style="stroke:#000000;stroke-width:0.8;"/>
      </defs>
      <g>
       <use style="stroke:#000000;stroke-width:0.8;" x="73.795625" xlink:href="#m23641711b8" y="292.996875"/>
      </g>
     </g>
     <g id="text_8">
      <!-- 0 -->
      <g transform="translate(57.251875 298.695703)scale(0.15 -0.15)">
       <use xlink:href="#DejaVuSans-48"/>
      </g>
     </g>
    </g>
    <g id="ytick_2">
     <g id="line2d_8">
      <g>
       <use style="stroke:#000000;stroke-width:0.8;" x="73.795625" xlink:href="#m23641711b8" y="239.801449"/>
      </g>
     </g>
     <g id="text_9">
      <!-- 500 -->
      <g transform="translate(38.164375 245.500277)scale(0.15 -0.15)">
       <defs>
        <path d="M 10.796875 72.90625 
L 49.515625 72.90625 
L 49.515625 64.59375 
L 19.828125 64.59375 
L 19.828125 46.734375 
Q 21.96875 47.46875 24.109375 47.828125 
Q 26.265625 48.1875 28.421875 48.1875 
Q 40.625 48.1875 47.75 41.5 
Q 54.890625 34.8125 54.890625 23.390625 
Q 54.890625 11.625 47.5625 5.09375 
Q 40.234375 -1.421875 26.90625 -1.421875 
Q 22.3125 -1.421875 17.546875 -0.640625 
Q 12.796875 0.140625 7.71875 1.703125 
L 7.71875 11.625 
Q 12.109375 9.234375 16.796875 8.0625 
Q 21.484375 6.890625 26.703125 6.890625 
Q 35.15625 6.890625 40.078125 11.328125 
Q 45.015625 15.765625 45.015625 23.390625 
Q 45.015625 31 40.078125 35.4375 
Q 35.15625 39.890625 26.703125 39.890625 
Q 22.75 39.890625 18.8125 39.015625 
Q 14.890625 38.140625 10.796875 36.28125 
z
" id="DejaVuSans-53"/>
       </defs>
       <use xlink:href="#DejaVuSans-53"/>
       <use x="63.623047" xlink:href="#DejaVuSans-48"/>
       <use x="127.246094" xlink:href="#DejaVuSans-48"/>
      </g>
     </g>
    </g>
    <g id="ytick_3">
     <g id="line2d_9">
      <g>
       <use style="stroke:#000000;stroke-width:0.8;" x="73.795625" xlink:href="#m23641711b8" y="186.606023"/>
      </g>
     </g>
     <g id="text_10">
      <!-- 1000 -->
      <g transform="translate(28.620625 192.304851)scale(0.15 -0.15)">
       <use xlink:href="#DejaVuSans-49"/>
       <use x="63.623047" xlink:href="#DejaVuSans-48"/>
       <use x="127.246094" xlink:href="#DejaVuSans-48"/>
       <use x="190.869141" xlink:href="#DejaVuSans-48"/>
      </g>
     </g>
    </g>
    <g id="ytick_4">
     <g id="line2d_10">
      <g>
       <use style="stroke:#000000;stroke-width:0.8;" x="73.795625" xlink:href="#m23641711b8" y="133.410597"/>
      </g>
     </g>
     <g id="text_11">
      <!-- 1500 -->
      <g transform="translate(28.620625 139.109425)scale(0.15 -0.15)">
       <use xlink:href="#DejaVuSans-49"/>
       <use x="63.623047" xlink:href="#DejaVuSans-53"/>
       <use x="127.246094" xlink:href="#DejaVuSans-48"/>
       <use x="190.869141" xlink:href="#DejaVuSans-48"/>
      </g>
     </g>
    </g>
    <g id="ytick_5">
     <g id="line2d_11">
      <g>
       <use style="stroke:#000000;stroke-width:0.8;" x="73.795625" xlink:href="#m23641711b8" y="80.215171"/>
      </g>
     </g>
     <g id="text_12">
      <!-- 2000 -->
      <g transform="translate(28.620625 85.913999)scale(0.15 -0.15)">
       <use xlink:href="#DejaVuSans-50"/>
       <use x="63.623047" xlink:href="#DejaVuSans-48"/>
       <use x="127.246094" xlink:href="#DejaVuSans-48"/>
       <use x="190.869141" xlink:href="#DejaVuSans-48"/>
      </g>
     </g>
    </g>
    <g id="text_13">
     <!-- None [None] -->
     <g transform="translate(20.877188 230.809687)rotate(-90)scale(0.18 -0.18)">
      <use xlink:href="#DejaVuSans-Bold-78"/>
      <use x="83.691406" xlink:href="#DejaVuSans-Bold-111"/>
      <use x="152.392578" xlink:href="#DejaVuSans-Bold-110"/>
      <use x="223.583984" xlink:href="#DejaVuSans-Bold-101"/>
      <use x="291.40625" xlink:href="#DejaVuSans-Bold-32"/>
      <use x="326.220703" xlink:href="#DejaVuSans-Bold-91"/>
      <use x="371.923828" xlink:href="#DejaVuSans-Bold-78"/>
      <use x="455.615234" xlink:href="#DejaVuSans-Bold-111"/>
      <use x="524.316406" xlink:href="#DejaVuSans-Bold-110"/>
      <use x="595.507812" xlink:href="#DejaVuSans-Bold-101"/>
      <use x="663.330078" xlink:href="#DejaVuSans-Bold-93"/>
     </g>
    </g>
   </g>
   <g id="line2d_12">
    <path clip-path="url(#p8d00f0d4f7)" d="M 91.55017 292.996875 
L 91.905617 284.318259 
L 92.61651 257.043344 
L 93.327402 240.250746 
L 94.038295 231.826027 
L 94.393741 229.512151 
L 95.104634 226.914659 
L 95.815527 225.520763 
L 96.526419 224.237738 
L 97.237312 222.529999 
L 97.948205 220.248535 
L 100.080883 212.360045 
L 100.791776 210.87596 
L 101.147222 210.59908 
L 101.502668 210.677957 
L 101.858115 211.129467 
L 102.213561 211.956072 
L 102.924454 214.678375 
L 103.635347 218.628975 
L 104.701686 226.140352 
L 108.256149 253.019125 
L 109.677935 261.519335 
L 110.744274 266.787597 
L 111.810613 271.185406 
L 112.876952 274.813551 
L 113.943291 277.773991 
L 115.00963 280.157289 
L 116.075969 282.036097 
L 117.142308 283.461149 
L 118.208647 284.457586 
L 118.91954 284.882583 
L 119.630433 285.105006 
L 120.341325 285.105703 
L 121.052218 284.855222 
L 121.763111 284.311798 
L 122.474003 283.418971 
L 123.184896 282.102895 
L 123.895789 280.269537 
L 124.606682 277.802123 
L 125.317574 274.559503 
L 126.028467 270.376489 
L 126.73936 265.067746 
L 127.450252 258.437334 
L 128.161145 250.29635 
L 129.227484 234.935061 
L 130.293823 215.692616 
L 131.715609 185.197141 
L 133.49284 146.297495 
L 134.203733 133.633743 
L 134.914626 124.237225 
L 135.270072 121.032297 
L 135.625519 118.917301 
L 135.980965 117.924369 
L 136.336411 118.051996 
L 136.691858 119.265542 
L 137.047304 121.500138 
L 137.758197 128.652799 
L 138.469089 138.602193 
L 139.890875 162.982064 
L 142.023553 199.81928 
L 143.445338 220.327342 
L 144.511677 233.095216 
L 145.578016 243.771067 
L 146.644356 252.603591 
L 147.710695 259.862744 
L 148.777034 265.803196 
L 149.843373 270.649719 
L 150.909712 274.593516 
L 151.976051 277.793421 
L 153.04239 280.378865 
L 154.108729 282.453025 
L 155.175068 284.09538 
L 156.241407 285.363253 
L 157.307746 286.291978 
L 158.374085 286.893336 
L 159.084978 287.105979 
L 159.795871 287.15424 
L 160.506763 287.017531 
L 161.217656 286.665682 
L 161.928549 286.056865 
L 162.639442 285.135062 
L 163.350334 283.827093 
L 164.061227 282.039291 
L 164.77212 279.654056 
L 165.483012 276.526742 
L 166.193905 272.483638 
L 166.904798 267.322265 
L 167.615691 260.815681 
L 168.326583 252.723009 
L 169.392922 237.102948 
L 170.459261 216.786027 
L 171.5256 191.675812 
L 172.947386 152.280021 
L 175.080064 92.557958 
L 175.790957 77.015929 
L 176.501849 65.73101 
L 176.857296 61.997233 
L 177.212742 59.648236 
L 177.568188 58.723952 
L 177.923635 59.224527 
L 178.279081 61.109777 
L 178.634528 64.301607 
L 179.34542 74.136166 
L 180.056313 87.586498 
L 181.478098 120.296378 
L 183.610777 169.537327 
L 185.032562 196.892939 
L 186.098901 213.901569 
L 187.16524 228.109161 
L 188.231579 239.853789 
L 189.297918 249.500289 
L 190.364257 257.391837 
L 191.430596 263.830997 
L 192.496935 269.075403 
L 193.563274 273.339968 
L 194.629614 276.801539 
L 195.695953 279.603984 
L 196.762292 281.862806 
L 197.828631 283.668864 
L 198.89497 285.091015 
L 199.961309 286.17749 
L 201.027648 286.955817 
L 202.093987 287.430941 
L 203.160326 287.58106 
L 203.871219 287.474789 
L 204.582111 287.17328 
L 205.293004 286.638886 
L 206.003897 285.820892 
L 206.71479 284.652673 
L 207.425682 283.048417 
L 208.136575 280.899599 
L 208.847468 278.071508 
L 209.55836 274.400448 
L 210.269253 269.692584 
L 210.980146 263.725891 
L 211.691039 256.257149 
L 212.401931 247.03629 
L 213.46827 229.423037 
L 214.534609 206.834322 
L 215.600949 179.367509 
L 217.37818 126.24652 
L 218.799966 84.652687 
L 219.866305 60.273172 
L 220.577197 49.626953 
L 220.932644 46.356661 
L 221.28809 44.553493 
L 221.643537 44.244201 
L 221.998983 45.414119 
L 222.354429 48.007406 
L 223.065322 57.057374 
L 223.776215 70.310884 
L 224.842554 95.178464 
L 227.686125 165.049797 
L 229.10791 193.550028 
L 230.174249 211.211084 
L 231.240588 225.938702 
L 232.306927 238.100096 
L 233.373266 248.082016 
L 234.439605 256.244368 
L 235.505944 262.90271 
L 236.572283 268.324932 
L 237.638623 272.734165 
L 238.704962 276.313934 
L 239.771301 279.213634 
L 240.83764 281.55347 
L 241.903979 283.428466 
L 242.970318 284.911396 
L 244.036657 286.054478 
L 245.102996 286.88967 
L 246.169335 287.427271 
L 247.235674 287.652395 
L 247.946567 287.607548 
L 248.65746 287.38065 
L 249.368352 286.938455 
L 250.079245 286.235675 
L 250.790138 285.212311 
L 251.50103 283.790534 
L 252.211923 281.871213 
L 252.922816 279.330347 
L 253.633709 276.015871 
L 254.344601 271.745651 
L 255.055494 266.307902 
L 255.766387 259.465795 
L 256.477279 250.968416 
L 257.543618 234.59066 
L 258.609958 213.309702 
L 259.676297 187.002689 
L 261.098082 145.592326 
L 263.23076 81.719044 
L 264.297099 57.343127 
L 265.007992 46.782259 
L 265.363438 43.577284 
L 265.718885 41.852725 
L 266.074331 41.633595 
L 266.429777 42.903243 
L 266.785224 45.603699 
L 267.496116 54.881688 
L 268.207009 68.368276 
L 269.273348 93.56867 
L 272.116919 164.118604 
L 273.538704 192.846464 
L 274.605044 210.640993 
L 275.671383 225.476691 
L 276.737722 237.725622 
L 277.804061 247.778483 
L 278.8704 255.998368 
L 279.936739 262.703411 
L 281.003078 268.163587 
L 282.069417 272.603726 
L 283.135756 276.208742 
L 284.202095 279.129189 
L 285.268434 281.48625 
L 286.334773 283.375813 
L 287.401112 284.87145 
L 288.467451 286.026174 
L 289.53379 286.872807 
L 290.60013 287.422675 
L 291.666469 287.662191 
L 292.377361 287.628954 
L 293.088254 287.416031 
L 293.799147 286.990992 
L 294.510039 286.309558 
L 295.220932 285.312965 
L 295.931825 283.924875 
L 296.642718 282.047928 
L 297.35361 279.560158 
L 298.064503 276.311747 
L 298.775396 272.122873 
L 299.486288 266.783879 
L 300.197181 260.059456 
L 300.908074 251.698997 
L 301.974413 235.558218 
L 303.040752 214.534231 
L 304.107091 188.465415 
L 305.528876 147.239535 
L 307.661555 83.026301 
L 308.727894 58.10844 
L 309.438786 47.065547 
L 309.794233 43.596262 
L 310.149679 41.600408 
L 310.505125 41.110409 
L 310.860572 42.117269 
L 311.216018 44.570338 
L 311.571464 48.380163 
L 312.282357 59.554438 
L 313.348696 82.790584 
L 317.258606 177.693067 
L 318.680392 203.849077 
L 319.746731 219.837583 
L 320.81307 233.08166 
L 321.879409 243.973193 
L 322.945748 252.89008 
L 324.012087 260.169705 
L 325.078426 266.101397 
L 326.144765 270.927646 
L 327.211104 274.848783 
L 328.277443 278.028564 
L 329.343782 280.599455 
L 330.410121 282.667111 
L 331.47646 284.313814 
L 332.542799 285.60074 
L 333.609139 286.568915 
L 334.675478 287.238632 
L 335.741817 287.606949 
L 336.452709 287.671063 
L 337.163602 287.570397 
L 337.874495 287.278639 
L 338.585387 286.758995 
L 339.29628 285.961848 
L 340.007173 284.821939 
L 340.718066 283.255115 
L 341.428958 281.154794 
L 342.139851 278.388442 
L 342.850744 274.794639 
L 343.561636 270.181666 
L 344.272529 264.329009 
L 344.983422 256.993688 
L 345.694315 247.923658 
L 346.760654 230.556296 
L 347.826993 208.200438 
L 348.893332 180.883918 
L 350.670564 127.553908 
L 352.447795 75.702905 
L 353.158688 59.558494 
L 353.869581 47.947257 
L 354.225027 44.160605 
L 354.580473 41.835214 
L 354.93592 41.012337 
L 355.291366 41.692257 
L 355.646813 43.83338 
L 356.002259 47.354417 
L 356.713152 58.045474 
L 357.424044 72.564775 
L 358.84583 107.754146 
L 360.978508 160.643783 
L 362.400293 190.008771 
L 363.466632 208.261558 
L 364.532971 223.5053 
L 365.599311 236.104276 
L 366.66565 246.451071 
L 367.731989 254.914711 
L 368.798328 261.820439 
L 369.864667 267.445183 
L 370.931006 272.020036 
L 371.997345 275.73535 
L 373.063684 278.746322 
L 374.130023 281.178106 
L 375.196362 283.13004 
L 376.262701 284.678786 
L 377.32904 285.880285 
L 378.395379 286.770339 
L 379.461718 287.363572 
L 380.528057 287.650362 
L 381.23895 287.653259 
L 381.949843 287.482319 
L 382.660736 287.107428 
L 383.371628 286.487137 
L 384.082521 285.566141 
L 384.793414 284.272279 
L 385.504306 282.513154 
L 386.215199 280.172552 
L 386.926092 277.107057 
L 387.636985 273.143578 
L 388.347877 268.078865 
L 389.05877 261.682628 
L 389.769663 253.706323 
L 390.480555 243.899909 
L 391.546894 225.283129 
L 392.613234 201.613464 
L 393.679573 173.131556 
L 397.589482 61.175157 
L 398.300375 48.992155 
L 398.655822 44.882797 
L 399.011268 42.219982 
L 399.366714 41.053859 
L 399.722161 41.394219 
L 400.077607 43.208913 
L 400.433053 46.425331 
L 401.143946 56.599884 
L 401.854839 70.752358 
L 403.276624 105.64972 
L 405.409302 158.797875 
L 406.831088 188.488982 
L 407.897427 206.98285 
L 408.963766 222.443638 
L 410.030105 235.229965 
L 411.096444 245.734647 
L 412.162783 254.329501 
L 413.229122 261.343398 
L 414.295461 267.056908 
L 415.3618 271.704451 
L 416.428139 275.47928 
L 417.494478 278.539078 
L 418.560817 281.011124 
L 419.627157 282.996592 
L 420.693496 284.573788 
L 421.759835 285.80019 
L 422.826174 286.713145 
L 423.892513 287.32897 
L 424.958852 287.640052 
L 425.669745 287.661314 
L 426.380637 287.511558 
L 427.09153 287.161821 
L 427.802423 286.57207 
L 428.513315 285.688724 
L 429.224208 284.441712 
L 429.935101 282.741131 
L 430.645994 280.473665 
L 431.356886 277.499156 
L 432.067779 273.647976 
L 432.778672 268.720246 
L 433.489564 262.488449 
L 434.200457 254.705444 
L 434.91135 245.12021 
L 435.977689 226.876141 
L 437.044028 203.59372 
L 438.110367 175.44808 
L 440.243045 110.570714 
L 441.664831 70.916869 
L 442.375723 55.88919 
L 443.086616 45.69496 
L 443.442062 42.695681 
L 443.797509 41.185085 
L 444.152955 41.18243 
L 444.508401 42.665139 
L 444.863848 45.569556 
L 445.57474 55.209067 
L 446.285633 68.974383 
L 446.64108 76.985279 
L 446.64108 76.985279 
" style="fill:none;stroke:#1f77b4;stroke-linecap:square;stroke-width:2;"/>
   </g>
   <g id="line2d_13">
    <path clip-path="url(#p8d00f0d4f7)" d="M 91.55017 292.996875 
L 92.261063 283.98999 
L 92.61651 280.961662 
L 92.971956 279.050106 
L 93.327402 277.944847 
L 93.682849 277.405301 
L 94.038295 277.253441 
L 94.393741 277.359757 
L 95.104634 277.999278 
L 96.881866 280.011962 
L 97.592758 280.541465 
L 98.303651 280.794997 
L 99.014544 280.721348 
L 99.725437 280.269339 
L 100.436329 279.380415 
L 101.147222 277.984218 
L 101.858115 275.996311 
L 102.569007 273.318152 
L 103.2799 269.840097 
L 103.990793 265.448762 
L 105.057132 256.930157 
L 106.123471 245.941355 
L 107.545256 227.901955 
L 109.677935 199.449385 
L 110.388827 192.081925 
L 111.09972 186.898428 
L 111.455166 185.273587 
L 111.810613 184.335912 
L 112.166059 184.091274 
L 112.521505 184.524713 
L 112.876952 185.60214 
L 113.587844 189.475242 
L 114.298737 195.182919 
L 115.365076 205.880012 
L 118.208647 235.951816 
L 119.630433 248.301491 
L 120.696772 255.992985 
L 121.763111 262.431006 
L 122.82945 267.761866 
L 123.895789 272.142602 
L 124.962128 275.720211 
L 126.028467 278.622706 
L 127.094806 280.955979 
L 128.161145 282.803003 
L 129.227484 284.223447 
L 130.293823 285.252545 
L 131.360162 285.898386 
L 132.071055 286.105661 
L 132.781948 286.116009 
L 133.49284 285.903315 
L 134.203733 285.430126 
L 134.914626 284.645321 
L 135.625519 283.481367 
L 136.336411 281.851271 
L 137.047304 279.645443 
L 137.758197 276.728942 
L 138.469089 272.939865 
L 139.179982 268.090117 
L 139.890875 261.970282 
L 140.601768 254.360863 
L 141.668107 239.705546 
L 142.734446 220.746638 
L 143.800785 197.546406 
L 145.578016 152.726374 
L 146.999802 118.585117 
L 147.710695 105.192617 
L 148.421587 95.76902 
L 148.777034 92.811813 
L 149.13248 91.109044 
L 149.487926 90.680357 
L 149.843373 91.50815 
L 150.198819 93.538886 
L 150.554265 96.687008 
L 151.265158 105.870563 
L 152.331497 124.792932 
L 156.241407 200.910312 
L 157.663193 221.746056 
L 158.729532 234.47404 
L 159.795871 245.015824 
L 160.86221 253.685259 
L 161.928549 260.783165 
L 162.994888 266.577304 
L 164.061227 271.296788 
L 165.127566 275.133109 
L 166.193905 278.243723 
L 167.260244 280.756182 
L 168.326583 282.77187 
L 169.392922 284.36887 
L 170.459261 285.603695 
L 171.5256 286.511641 
L 172.591939 287.105432 
L 173.658279 287.371697 
L 174.369171 287.346248 
L 175.080064 287.132271 
L 175.790957 286.696237 
L 176.501849 285.992353 
L 177.212742 284.959881 
L 177.923635 283.520027 
L 178.634528 281.572505 
L 179.34542 278.992056 
L 180.056313 275.625429 
L 180.767206 271.289691 
L 181.478098 265.773174 
L 182.188991 258.840876 
L 182.899884 250.246573 
L 183.966223 233.732265 
L 185.032562 212.379879 
L 186.098901 186.168361 
L 187.876133 134.703747 
L 189.653365 84.471869 
L 190.364257 68.852646 
L 191.07515 57.667847 
L 191.430596 54.047901 
L 191.786043 51.852107 
L 192.141489 51.116996 
L 192.496935 51.838569 
L 192.852382 53.971905 
L 193.207828 57.433784 
L 193.918721 67.853312 
L 194.98506 89.900345 
L 198.89497 181.233583 
L 200.316755 206.543181 
L 201.383094 222.028076 
L 202.449433 234.860966 
L 203.515772 245.417588 
L 204.582111 254.062014 
L 205.648451 261.120068 
L 206.71479 266.871519 
L 207.781129 271.550985 
L 208.847468 275.352308 
L 209.913807 278.433856 
L 210.980146 280.923554 
L 212.046485 282.92312 
L 213.112824 284.511269 
L 214.179163 285.745727 
L 215.245502 286.663906 
L 216.311841 287.281956 
L 217.37818 287.591809 
L 218.089073 287.609941 
L 218.799966 287.454796 
L 219.510858 287.096927 
L 220.221751 286.495677 
L 220.932644 285.596677 
L 221.643537 284.328883 
L 222.354429 282.601224 
L 223.065322 280.299024 
L 223.776215 277.280624 
L 224.487107 273.374849 
L 225.198 268.380419 
L 225.908893 262.06888 
L 226.619786 254.193092 
L 227.330678 244.503617 
L 228.397017 226.091169 
L 229.463356 202.651541 
L 230.529695 174.406836 
L 234.439605 63.001205 
L 235.150498 50.823116 
L 235.505944 46.703794 
L 235.861391 44.022915 
L 236.216837 42.8309 
L 236.572283 43.137941 
L 236.92773 44.912433 
L 237.283176 48.082434 
L 237.994069 58.148759 
L 238.704962 72.178542 
L 240.126747 106.815595 
L 242.259425 159.609861 
L 243.681211 189.113741 
L 244.74755 207.49331 
L 245.813889 222.859586 
L 246.880228 235.568335 
L 247.946567 246.009611 
L 249.012906 254.552766 
L 250.079245 261.524555 
L 251.145584 267.203776 
L 252.211923 271.823372 
L 253.278262 275.575375 
L 254.344601 278.616448 
L 255.41094 281.073005 
L 256.477279 283.045473 
L 257.543618 284.611474 
L 258.609958 285.827827 
L 259.676297 286.731182 
L 260.742636 287.337057 
L 261.808975 287.636846 
L 262.519867 287.64921 
L 263.23076 287.488898 
L 263.941653 287.126342 
L 264.652546 286.52076 
L 265.363438 285.617653 
L 266.074331 284.345836 
L 266.785224 282.614073 
L 267.496116 280.307497 
L 268.207009 277.284212 
L 268.917902 273.372745 
L 269.628795 268.371437 
L 270.339687 262.051333 
L 271.05058 254.164628 
L 271.761473 244.460982 
L 272.827812 226.01837 
L 273.894151 202.532235 
L 274.96049 174.215359 
L 278.8704 62.11034 
L 279.581292 49.716989 
L 279.936739 45.485935 
L 280.292185 42.694019 
L 280.647632 41.394722 
L 281.003078 41.601452 
L 281.358524 43.285721 
L 281.713971 46.378353 
L 282.424863 56.33646 
L 283.135756 70.325593 
L 284.557541 105.060774 
L 286.69022 158.240006 
L 288.112005 188.020944 
L 289.178344 206.586017 
L 290.244683 222.112593 
L 291.311022 234.956513 
L 292.377361 245.510124 
L 293.4437 254.145841 
L 294.510039 261.193525 
L 295.576378 266.934813 
L 296.642718 271.605128 
L 297.709057 275.398612 
L 298.775396 278.473711 
L 299.841735 280.958362 
L 300.908074 282.954305 
L 301.974413 284.540349 
L 303.040752 285.774436 
L 304.107091 286.694377 
L 305.17343 287.316983 
L 306.239769 287.635218 
L 306.950662 287.661807 
L 307.661555 287.518128 
L 308.372447 287.175544 
L 309.08334 286.594418 
L 309.794233 285.721651 
L 310.505125 284.48776 
L 311.216018 282.803539 
L 311.926911 280.556487 
L 312.637804 277.607367 
L 313.348696 273.787532 
L 314.059589 268.898073 
L 314.770482 262.712287 
L 315.481374 254.98349 
L 316.192267 245.460475 
L 317.258606 227.321852 
L 318.324945 204.15021 
L 319.391284 176.102935 
L 321.168516 122.250776 
L 322.590301 80.504788 
L 323.301194 63.385048 
L 324.012087 50.492986 
L 324.367533 45.978598 
L 324.72298 42.888984 
L 325.078426 41.285317 
L 325.433872 41.18939 
L 325.789319 42.581219 
L 326.144765 45.399612 
L 326.855658 54.889763 
L 327.56655 68.544537 
L 328.63289 93.905033 
L 331.47646 164.502547 
L 332.898246 193.171146 
L 333.964585 210.917121 
L 335.030924 225.707486 
L 336.097263 237.916519 
L 337.163602 247.935379 
L 338.229941 256.126813 
L 339.29628 262.8083 
L 340.362619 268.249091 
L 341.428958 272.673325 
L 342.495297 276.265305 
L 343.561636 279.175053 
L 344.627976 281.523295 
L 345.694315 283.405525 
L 346.760654 284.894963 
L 347.826993 286.044295 
L 348.893332 286.886022 
L 349.959671 287.43112 
L 351.02601 287.665595 
L 351.736903 287.6286 
L 352.447795 287.411387 
L 353.158688 286.9813 
L 353.869581 286.29378 
L 354.580473 285.289728 
L 355.291366 283.892401 
L 356.002259 282.003956 
L 356.713152 279.501874 
L 357.424044 276.23572 
L 358.134937 272.025027 
L 358.84583 266.659528 
L 359.556722 259.903438 
L 360.267615 251.505959 
L 361.333954 235.300425 
L 362.400293 214.204561 
L 363.466632 188.065652 
L 364.888418 146.773209 
L 367.021096 82.594307 
L 368.087435 57.776372 
L 368.798328 46.828085 
L 369.153774 43.412008 
L 369.50922 41.471613 
L 369.864667 41.037842 
L 370.220113 42.100149 
L 370.575559 44.606373 
L 370.931006 48.465712 
L 371.641899 59.723966 
L 372.708238 83.041316 
L 376.618148 177.924269 
L 378.039933 204.035775 
L 379.106272 219.993389 
L 380.172611 233.210385 
L 381.23895 244.078891 
L 382.305289 252.97654 
L 383.371628 260.240255 
L 384.437967 266.158867 
L 385.504306 270.974394 
L 386.570645 274.886751 
L 387.636985 278.059332 
L 388.703324 280.624296 
L 389.769663 282.687034 
L 390.836002 284.329593 
L 391.902341 285.612931 
L 392.96868 286.577864 
L 394.035019 287.244458 
L 395.101358 287.609511 
L 395.812251 287.671212 
L 396.523143 287.567808 
L 397.234036 287.272839 
L 397.944929 286.749336 
L 398.655822 285.947465 
L 399.366714 284.801702 
L 400.077607 283.227579 
L 400.7885 281.118142 
L 401.499392 278.340436 
L 402.210285 274.732581 
L 402.921178 270.102396 
L 403.632071 264.228959 
L 404.342963 256.869025 
L 405.053856 247.770551 
L 406.120195 230.354434 
L 407.186534 207.946374 
L 408.252873 180.582031 
L 410.030105 127.213335 
L 411.807337 75.422206 
L 412.518229 59.335997 
L 413.229122 47.800142 
L 413.584568 44.05592 
L 413.940015 41.774805 
L 414.295461 40.996875 
L 414.650908 41.721165 
L 415.006354 43.904857 
L 415.3618 47.465543 
L 416.072693 58.223671 
L 416.783586 72.790525 
L 418.205371 108.018014 
L 420.338049 160.875687 
L 421.759835 190.199758 
L 422.826174 208.422265 
L 423.892513 223.638738 
L 424.958852 236.214173 
L 426.025191 246.541128 
L 427.09153 254.988277 
L 428.157869 261.880411 
L 429.224208 267.493997 
L 430.290547 272.059713 
L 431.356886 275.767545 
L 432.423225 278.772378 
L 433.489564 281.1991 
L 434.555903 283.146814 
L 435.622243 284.691979 
L 436.688582 285.89034 
L 437.754921 286.777504 
L 438.82126 287.367881 
L 439.887599 287.651595 
L 440.598492 287.652161 
L 441.309384 287.478531 
L 442.020277 287.100442 
L 442.73117 286.476267 
L 443.442062 285.55048 
L 444.152955 284.250656 
L 444.863848 282.484083 
L 445.57474 280.134178 
L 446.285633 277.057116 
L 446.64108 275.192866 
L 446.64108 275.192866 
" style="fill:none;stroke:#ff7f0e;stroke-linecap:square;stroke-width:2;"/>
   </g>
   <g id="line2d_14">
    <path clip-path="url(#p8d00f0d4f7)" d="M 91.55017 292.996875 
L 92.261063 254.876515 
L 92.61651 243.005152 
L 92.971956 235.879734 
L 93.327402 232.127087 
L 93.682849 230.71274 
L 94.038295 230.887886 
L 94.393741 232.118558 
L 95.104634 236.349772 
L 98.303651 258.548618 
L 99.36999 264.174947 
L 100.436329 268.852499 
L 101.502668 272.712858 
L 102.569007 275.872807 
L 103.635347 278.425942 
L 104.701686 280.442307 
L 105.768025 281.967636 
L 106.834364 283.020447 
L 107.545256 283.454435 
L 108.256149 283.659203 
L 108.967042 283.611557 
L 109.677935 283.277176 
L 110.388827 282.608601 
L 111.09972 281.543001 
L 111.810613 279.999906 
L 112.521505 277.879252 
L 113.232398 275.060369 
L 113.943291 271.40291 
L 114.654184 266.751185 
L 115.365076 260.943898 
L 116.431415 249.748938 
L 117.497754 235.326106 
L 118.564093 217.881684 
L 121.407664 167.913998 
L 122.118557 158.937985 
L 122.82945 153.078185 
L 123.184896 151.480011 
L 123.540342 150.80523 
L 123.895789 151.045353 
L 124.251235 152.164873 
L 124.606682 154.104416 
L 125.317574 160.115264 
L 126.028467 168.317296 
L 127.450252 188.137732 
L 129.58293 217.803652 
L 131.004716 234.270863 
L 132.071055 244.520767 
L 133.137394 253.093297 
L 134.203733 260.187871 
L 135.270072 266.01958 
L 136.336411 270.790753 
L 137.40275 274.67942 
L 138.469089 277.836178 
L 139.535428 280.384723 
L 140.601768 282.423577 
L 141.668107 284.027676 
L 142.734446 285.249114 
L 143.800785 286.116496 
L 144.867124 286.632384 
L 145.578016 286.768444 
L 146.288909 286.718654 
L 146.999802 286.456016 
L 147.710695 285.942338 
L 148.421587 285.125845 
L 149.13248 283.938356 
L 149.843373 282.292101 
L 150.554265 280.076376 
L 151.265158 277.154463 
L 151.976051 273.361509 
L 152.686944 268.504507 
L 153.397836 262.366031 
L 154.108729 254.713859 
L 154.819622 245.318905 
L 155.885961 227.544692 
L 156.9523 205.106049 
L 158.374085 168.823881 
L 160.86221 102.149385 
L 161.573102 87.5682 
L 162.283995 77.182898 
L 162.639442 73.854442 
L 162.994888 71.867069 
L 163.350334 71.249633 
L 163.705781 71.991855 
L 164.061227 74.044764 
L 164.416673 77.323992 
L 165.127566 87.083228 
L 166.193905 107.522279 
L 170.103815 191.157036 
L 171.5256 214.209902 
L 172.591939 228.304498 
L 173.658279 239.98216 
L 174.724618 249.587347 
L 175.790957 257.452216 
L 176.857296 263.873324 
L 177.923635 269.104936 
L 178.989974 273.359996 
L 180.056313 276.814109 
L 181.122652 279.610276 
L 182.188991 281.863302 
L 183.25533 283.663376 
L 184.321669 285.0786 
L 185.388008 286.15625 
L 186.454347 286.922548 
L 187.520686 287.380598 
L 188.231579 287.503986 
L 188.942472 287.46476 
L 189.653365 287.239228 
L 190.364257 286.793686 
L 191.07515 286.082201 
L 191.786043 285.043921 
L 192.496935 283.599949 
L 193.207828 281.649881 
L 193.918721 279.068289 
L 194.629614 275.701638 
L 195.340506 271.366498 
L 196.051399 265.85033 
L 196.762292 258.916669 
L 197.473184 250.316902 
L 198.539523 233.778006 
L 199.605863 212.36174 
L 200.672202 186.01238 
L 202.093987 144.864827 
L 204.226665 82.63307 
L 204.937558 66.355681 
L 205.648451 54.429086 
L 206.003897 50.423647 
L 206.359343 47.845024 
L 206.71479 46.740519 
L 207.070236 47.117222 
L 207.425682 48.940742 
L 207.781129 52.13696 
L 208.492021 62.182864 
L 209.202914 76.097303 
L 210.6247 110.284015 
L 212.757378 162.187722 
L 214.179163 191.139739 
L 215.245502 209.164458 
L 216.311841 224.22974 
L 217.37818 236.68749 
L 218.444519 246.921579 
L 219.510858 255.294735 
L 220.577197 262.127505 
L 221.643537 267.693218 
L 222.709876 272.220146 
L 223.776215 275.89638 
L 224.842554 278.875266 
L 225.908893 281.280403 
L 226.975232 283.209761 
L 228.041571 284.738739 
L 229.10791 285.922007 
L 230.174249 286.793974 
L 231.240588 287.367601 
L 232.306927 287.631135 
L 233.01782 287.615127 
L 233.728713 287.42132 
L 234.439605 287.018242 
L 235.150498 286.36277 
L 235.861391 285.397537 
L 236.572283 284.047886 
L 237.283176 282.218445 
L 237.994069 279.789552 
L 238.704962 276.613958 
L 239.415854 272.514565 
L 240.126747 267.284349 
L 240.83764 260.690162 
L 241.548532 252.482509 
L 242.259425 242.413644 
L 243.325764 223.362077 
L 244.392103 199.256802 
L 245.813889 159.973775 
L 248.65746 75.730535 
L 249.368352 59.815365 
L 250.079245 48.475825 
L 250.434691 44.83478 
L 250.790138 42.656873 
L 251.145584 41.979295 
L 251.50103 42.7981 
L 251.856477 45.067628 
L 252.211923 48.702999 
L 252.922816 59.57011 
L 253.989155 82.478439 
L 257.899065 177.207856 
L 259.32085 203.446387 
L 260.387189 219.497707 
L 261.453528 232.798857 
L 262.519867 243.73989 
L 263.586206 252.698619 
L 264.652546 260.013094 
L 265.718885 265.973567 
L 266.785224 270.823472 
L 267.851563 274.76401 
L 268.917902 277.959702 
L 269.984241 280.543673 
L 271.05058 282.622147 
L 272.116919 284.277902 
L 273.183258 285.572563 
L 274.249597 286.547585 
L 275.315936 287.223699 
L 276.382275 287.598457 
L 277.093168 287.667175 
L 277.804061 287.571606 
L 278.514953 287.285693 
L 279.225846 286.772954 
L 279.936739 285.984151 
L 280.647632 284.85448 
L 281.358524 283.300336 
L 282.069417 281.215782 
L 282.78031 278.469017 
L 283.491202 274.89942 
L 284.202095 270.316089 
L 284.912988 264.499247 
L 285.623881 257.20642 
L 286.334773 248.185639 
L 287.401112 230.903215 
L 288.467451 208.639531 
L 289.53379 181.409958 
L 291.311022 128.16322 
L 293.088254 76.243039 
L 293.799147 60.017397 
L 294.510039 48.2975 
L 294.865486 44.448675 
L 295.220932 42.057787 
L 295.576378 41.167807 
L 295.931825 41.78085 
L 296.287271 43.857147 
L 296.642718 47.317084 
L 297.35361 57.902435 
L 298.064503 72.343218 
L 299.486288 107.457276 
L 301.618967 160.366678 
L 303.040752 189.777197 
L 304.107091 208.065532 
L 305.17343 223.341932 
L 306.239769 235.96941 
L 307.306108 246.340378 
L 308.372447 254.824185 
L 309.438786 261.746578 
L 310.505125 267.385018 
L 311.571464 271.971098 
L 312.637804 275.695609 
L 313.704143 278.714127 
L 314.770482 281.15213 
L 315.836821 283.109237 
L 316.90316 284.66236 
L 317.969499 285.867673 
L 319.035838 286.761209 
L 320.102177 287.357842 
L 321.168516 287.648246 
L 321.879409 287.653848 
L 322.590301 287.486009 
L 323.301194 287.114779 
L 324.012087 286.498912 
L 324.72298 285.583352 
L 325.433872 284.296239 
L 326.144765 282.545531 
L 326.855658 280.21543 
L 327.56655 277.162985 
L 328.277443 273.2156 
L 328.988336 268.170504 
L 329.699229 261.797801 
L 330.410121 253.849142 
L 331.121014 244.074345 
L 332.187353 225.510819 
L 333.253692 201.896508 
L 334.320031 173.462852 
L 338.229941 61.426072 
L 338.940834 49.166933 
L 339.29628 45.014174 
L 339.651727 42.3057 
L 340.007173 41.092851 
L 340.362619 41.3867 
L 340.718066 43.15639 
L 341.073512 46.330512 
L 341.784405 56.432453 
L 342.495297 70.532133 
L 343.917083 105.383712 
L 346.049761 158.55979 
L 347.471546 188.291927 
L 348.537885 206.816693 
L 349.604225 222.305498 
L 350.670564 235.116107 
L 351.736903 245.641297 
L 352.803242 254.253219 
L 353.869581 261.281198 
L 354.93592 267.00627 
L 356.002259 271.663283 
L 357.068598 275.445867 
L 358.134937 278.512026 
L 359.201276 280.989315 
L 360.267615 282.979146 
L 361.333954 284.560037 
L 362.400293 285.789663 
L 363.466632 286.705572 
L 364.532971 287.324292 
L 365.599311 287.638465 
L 366.310203 287.662052 
L 367.021096 287.514967 
L 367.731989 287.168392 
L 368.442881 286.582471 
L 369.153774 285.703838 
L 369.864667 284.462687 
L 370.575559 282.769424 
L 371.286452 280.5111 
L 371.997345 277.547966 
L 372.708238 273.710835 
L 373.41913 268.800256 
L 374.130023 262.589072 
L 374.840916 254.830338 
L 375.551808 245.272935 
L 376.618148 227.075937 
L 377.684487 203.842753 
L 378.750826 175.7404 
L 380.883504 110.886101 
L 382.305289 71.166304 
L 383.016182 56.077516 
L 383.727075 45.80687 
L 384.082521 42.765553 
L 384.437967 41.211745 
L 384.793414 41.165886 
L 385.14886 42.606604 
L 385.504306 45.471385 
L 386.215199 55.042433 
L 386.926092 68.757608 
L 387.992431 94.167842 
L 390.836002 164.740195 
L 392.257787 193.366324 
L 393.324126 211.08116 
L 394.390465 225.843596 
L 395.456804 238.028572 
L 396.523143 248.027182 
L 397.589482 256.201798 
L 398.655822 262.869425 
L 399.722161 268.298842 
L 400.7885 272.713762 
L 401.854839 276.298113 
L 402.921178 279.201597 
L 403.987517 281.544669 
L 405.053856 283.422582 
L 406.120195 284.908343 
L 407.186534 286.054438 
L 408.252873 286.89316 
L 409.319212 287.435258 
L 410.385551 287.666465 
L 411.096444 287.626973 
L 411.807337 287.406861 
L 412.518229 286.973312 
L 413.229122 286.281575 
L 413.940015 285.272312 
L 414.650908 283.868494 
L 415.3618 281.97194 
L 416.072693 279.459741 
L 416.783586 276.181029 
L 417.494478 271.954888 
L 418.205371 266.570627 
L 418.916264 259.792143 
L 419.627157 251.368534 
L 420.693496 235.117472 
L 421.759835 213.971499 
L 422.826174 187.784582 
L 424.247959 146.4494 
L 426.380637 82.309162 
L 427.446976 57.573345 
L 428.157869 46.70069 
L 428.513315 43.326687 
L 428.868762 41.429862 
L 429.224208 41.039982 
L 429.579654 42.145275 
L 429.935101 44.692405 
L 430.290547 48.589514 
L 431.00144 59.910764 
L 432.067779 83.28613 
L 435.977689 178.131482 
L 437.399474 204.202079 
L 438.465813 220.131819 
L 439.532152 233.324566 
L 440.598492 244.172546 
L 441.664831 253.05309 
L 442.73117 260.302683 
L 443.797509 266.209697 
L 444.863848 271.015723 
L 445.930187 274.920301 
L 446.64108 277.104415 
L 446.64108 277.104415 
" style="fill:none;stroke:#2ca02c;stroke-linecap:square;stroke-width:2;"/>
   </g>
   <g id="patch_3">
    <path d="M 73.795625 305.596875 
L 73.795625 28.396875 
" style="fill:none;stroke:#000000;stroke-linecap:square;stroke-linejoin:miter;stroke-width:0.8;"/>
   </g>
   <g id="patch_4">
    <path d="M 464.395625 305.596875 
L 464.395625 28.396875 
" style="fill:none;stroke:#000000;stroke-linecap:square;stroke-linejoin:miter;stroke-width:0.8;"/>
   </g>
   <g id="patch_5">
    <path d="M 73.795625 305.596875 
L 464.395625 305.596875 
" style="fill:none;stroke:#000000;stroke-linecap:square;stroke-linejoin:miter;stroke-width:0.8;"/>
   </g>
   <g id="patch_6">
    <path d="M 73.795625 28.396875 
L 464.395625 28.396875 
" style="fill:none;stroke:#000000;stroke-linecap:square;stroke-linejoin:miter;stroke-width:0.8;"/>
   </g>
   <g id="text_14">
    <!-- Timecourse of repressilator -->
    <g transform="translate(113.201875 22.396875)scale(0.2 -0.2)">
     <defs>
      <path d="M 0.484375 72.90625 
L 67.671875 72.90625 
L 67.671875 58.6875 
L 43.5 58.6875 
L 43.5 0 
L 24.703125 0 
L 24.703125 58.6875 
L 0.484375 58.6875 
z
" id="DejaVuSans-Bold-84"/>
      <path d="M 8.40625 54.6875 
L 25.875 54.6875 
L 25.875 0 
L 8.40625 0 
z
M 8.40625 75.984375 
L 25.875 75.984375 
L 25.875 61.71875 
L 8.40625 61.71875 
z
" id="DejaVuSans-Bold-105"/>
      <path d="M 59.078125 45.609375 
Q 62.40625 50.6875 66.96875 53.34375 
Q 71.53125 56 77 56 
Q 86.421875 56 91.359375 50.1875 
Q 96.296875 44.390625 96.296875 33.296875 
L 96.296875 0 
L 78.71875 0 
L 78.71875 28.515625 
Q 78.765625 29.15625 78.78125 29.828125 
Q 78.8125 30.515625 78.8125 31.78125 
Q 78.8125 37.59375 77.09375 40.203125 
Q 75.390625 42.828125 71.578125 42.828125 
Q 66.609375 42.828125 63.890625 38.71875 
Q 61.1875 34.625 61.078125 26.859375 
L 61.078125 0 
L 43.5 0 
L 43.5 28.515625 
Q 43.5 37.59375 41.9375 40.203125 
Q 40.375 42.828125 36.375 42.828125 
Q 31.34375 42.828125 28.609375 38.703125 
Q 25.875 34.578125 25.875 26.90625 
L 25.875 0 
L 8.296875 0 
L 8.296875 54.6875 
L 25.875 54.6875 
L 25.875 46.6875 
Q 29.109375 51.3125 33.28125 53.65625 
Q 37.453125 56 42.484375 56 
Q 48.140625 56 52.484375 53.265625 
Q 56.84375 50.53125 59.078125 45.609375 
z
" id="DejaVuSans-Bold-109"/>
      <path d="M 52.59375 52.984375 
L 52.59375 38.71875 
Q 49.03125 41.15625 45.4375 42.328125 
Q 41.84375 43.5 37.984375 43.5 
Q 30.671875 43.5 26.59375 39.234375 
Q 22.515625 34.96875 22.515625 27.296875 
Q 22.515625 19.625 26.59375 15.34375 
Q 30.671875 11.078125 37.984375 11.078125 
Q 42.09375 11.078125 45.78125 12.296875 
Q 49.46875 13.53125 52.59375 15.921875 
L 52.59375 1.609375 
Q 48.484375 0.09375 44.265625 -0.65625 
Q 40.046875 -1.421875 35.796875 -1.421875 
Q 21 -1.421875 12.640625 6.171875 
Q 4.296875 13.765625 4.296875 27.296875 
Q 4.296875 40.828125 12.640625 48.40625 
Q 21 56 35.796875 56 
Q 40.09375 56 44.265625 55.25 
Q 48.4375 54.5 52.59375 52.984375 
z
" id="DejaVuSans-Bold-99"/>
      <path d="M 7.8125 21.296875 
L 7.8125 54.6875 
L 25.390625 54.6875 
L 25.390625 49.21875 
Q 25.390625 44.78125 25.34375 38.0625 
Q 25.296875 31.34375 25.296875 29.109375 
Q 25.296875 22.515625 25.640625 19.609375 
Q 25.984375 16.703125 26.8125 15.375 
Q 27.875 13.671875 29.609375 12.734375 
Q 31.34375 11.8125 33.59375 11.8125 
Q 39.0625 11.8125 42.1875 16.015625 
Q 45.3125 20.21875 45.3125 27.6875 
L 45.3125 54.6875 
L 62.796875 54.6875 
L 62.796875 0 
L 45.3125 0 
L 45.3125 7.90625 
Q 41.359375 3.125 36.9375 0.84375 
Q 32.515625 -1.421875 27.203125 -1.421875 
Q 17.71875 -1.421875 12.765625 4.390625 
Q 7.8125 10.203125 7.8125 21.296875 
z
" id="DejaVuSans-Bold-117"/>
      <path d="M 49.03125 39.796875 
Q 46.734375 40.875 44.453125 41.375 
Q 42.1875 41.890625 39.890625 41.890625 
Q 33.15625 41.890625 29.515625 37.5625 
Q 25.875 33.25 25.875 25.203125 
L 25.875 0 
L 8.40625 0 
L 8.40625 54.6875 
L 25.875 54.6875 
L 25.875 45.703125 
Q 29.25 51.078125 33.609375 53.53125 
Q 37.984375 56 44.09375 56 
Q 44.96875 56 45.984375 55.921875 
Q 47.015625 55.859375 48.96875 55.609375 
z
" id="DejaVuSans-Bold-114"/>
      <path d="M 51.125 52.984375 
L 51.125 39.703125 
Q 45.515625 42.046875 40.28125 43.21875 
Q 35.0625 44.390625 30.421875 44.390625 
Q 25.4375 44.390625 23.015625 43.140625 
Q 20.609375 41.890625 20.609375 39.3125 
Q 20.609375 37.203125 22.4375 36.078125 
Q 24.265625 34.96875 29 34.421875 
L 32.078125 33.984375 
Q 45.515625 32.28125 50.140625 28.375 
Q 54.78125 24.46875 54.78125 16.109375 
Q 54.78125 7.375 48.328125 2.96875 
Q 41.890625 -1.421875 29.109375 -1.421875 
Q 23.6875 -1.421875 17.890625 -0.5625 
Q 12.109375 0.296875 6 2 
L 6 15.28125 
Q 11.234375 12.75 16.71875 11.46875 
Q 22.21875 10.203125 27.875 10.203125 
Q 33.015625 10.203125 35.59375 11.609375 
Q 38.1875 13.03125 38.1875 15.828125 
Q 38.1875 18.171875 36.40625 19.3125 
Q 34.625 20.453125 29.296875 21.09375 
L 26.21875 21.484375 
Q 14.546875 22.953125 9.859375 26.90625 
Q 5.171875 30.859375 5.171875 38.921875 
Q 5.171875 47.609375 11.125 51.796875 
Q 17.09375 56 29.390625 56 
Q 34.234375 56 39.546875 55.265625 
Q 44.875 54.546875 51.125 52.984375 
z
" id="DejaVuSans-Bold-115"/>
      <path d="M 44.390625 75.984375 
L 44.390625 64.5 
L 34.71875 64.5 
Q 31 64.5 29.53125 63.15625 
Q 28.078125 61.8125 28.078125 58.5 
L 28.078125 54.6875 
L 43.015625 54.6875 
L 43.015625 42.1875 
L 28.078125 42.1875 
L 28.078125 0 
L 10.59375 0 
L 10.59375 42.1875 
L 1.90625 42.1875 
L 1.90625 54.6875 
L 10.59375 54.6875 
L 10.59375 58.5 
Q 10.59375 67.4375 15.578125 71.703125 
Q 20.5625 75.984375 31 75.984375 
z
" id="DejaVuSans-Bold-102"/>
      <path d="M 25.875 7.90625 
L 25.875 -20.796875 
L 8.40625 -20.796875 
L 8.40625 54.6875 
L 25.875 54.6875 
L 25.875 46.6875 
Q 29.5 51.46875 33.890625 53.734375 
Q 38.28125 56 44 56 
Q 54.109375 56 60.59375 47.96875 
Q 67.09375 39.9375 67.09375 27.296875 
Q 67.09375 14.65625 60.59375 6.609375 
Q 54.109375 -1.421875 44 -1.421875 
Q 38.28125 -1.421875 33.890625 0.84375 
Q 29.5 3.125 25.875 7.90625 
z
M 37.5 43.3125 
Q 31.890625 43.3125 28.875 39.1875 
Q 25.875 35.0625 25.875 27.296875 
Q 25.875 19.53125 28.875 15.40625 
Q 31.890625 11.28125 37.5 11.28125 
Q 43.109375 11.28125 46.0625 15.375 
Q 49.03125 19.484375 49.03125 27.296875 
Q 49.03125 35.109375 46.0625 39.203125 
Q 43.109375 43.3125 37.5 43.3125 
z
" id="DejaVuSans-Bold-112"/>
      <path d="M 8.40625 75.984375 
L 25.875 75.984375 
L 25.875 0 
L 8.40625 0 
z
" id="DejaVuSans-Bold-108"/>
      <path d="M 32.90625 24.609375 
Q 27.4375 24.609375 24.671875 22.75 
Q 21.921875 20.90625 21.921875 17.28125 
Q 21.921875 13.96875 24.140625 12.078125 
Q 26.375 10.203125 30.328125 10.203125 
Q 35.25 10.203125 38.625 13.734375 
Q 42 17.28125 42 22.609375 
L 42 24.609375 
z
M 59.625 31.203125 
L 59.625 0 
L 42 0 
L 42 8.109375 
Q 38.484375 3.125 34.078125 0.84375 
Q 29.6875 -1.421875 23.390625 -1.421875 
Q 14.890625 -1.421875 9.59375 3.53125 
Q 4.296875 8.5 4.296875 16.40625 
Q 4.296875 26.03125 10.90625 30.515625 
Q 17.53125 35.015625 31.6875 35.015625 
L 42 35.015625 
L 42 36.375 
Q 42 40.53125 38.71875 42.453125 
Q 35.453125 44.390625 28.515625 44.390625 
Q 22.90625 44.390625 18.0625 43.265625 
Q 13.234375 42.140625 9.078125 39.890625 
L 9.078125 53.21875 
Q 14.703125 54.59375 20.359375 55.296875 
Q 26.03125 56 31.6875 56 
Q 46.484375 56 53.046875 50.171875 
Q 59.625 44.34375 59.625 31.203125 
z
" id="DejaVuSans-Bold-97"/>
      <path d="M 27.484375 70.21875 
L 27.484375 54.6875 
L 45.515625 54.6875 
L 45.515625 42.1875 
L 27.484375 42.1875 
L 27.484375 19 
Q 27.484375 15.1875 29 13.84375 
Q 30.515625 12.5 35.015625 12.5 
L 44 12.5 
L 44 0 
L 29 0 
Q 18.65625 0 14.328125 4.3125 
Q 10.015625 8.640625 10.015625 19 
L 10.015625 42.1875 
L 1.3125 42.1875 
L 1.3125 54.6875 
L 10.015625 54.6875 
L 10.015625 70.21875 
z
" id="DejaVuSans-Bold-116"/>
     </defs>
     <use xlink:href="#DejaVuSans-Bold-84"/>
     <use x="68.212891" xlink:href="#DejaVuSans-Bold-105"/>
     <use x="102.490234" xlink:href="#DejaVuSans-Bold-109"/>
     <use x="206.689453" xlink:href="#DejaVuSans-Bold-101"/>
     <use x="274.511719" xlink:href="#DejaVuSans-Bold-99"/>
     <use x="333.789062" xlink:href="#DejaVuSans-Bold-111"/>
     <use x="402.490234" xlink:href="#DejaVuSans-Bold-117"/>
     <use x="473.681641" xlink:href="#DejaVuSans-Bold-114"/>
     <use x="522.998047" xlink:href="#DejaVuSans-Bold-115"/>
     <use x="582.519531" xlink:href="#DejaVuSans-Bold-101"/>
     <use x="650.341797" xlink:href="#DejaVuSans-Bold-32"/>
     <use x="685.15625" xlink:href="#DejaVuSans-Bold-111"/>
     <use x="753.857422" xlink:href="#DejaVuSans-Bold-102"/>
     <use x="797.363281" xlink:href="#DejaVuSans-Bold-32"/>
     <use x="832.177734" xlink:href="#DejaVuSans-Bold-114"/>
     <use x="881.494141" xlink:href="#DejaVuSans-Bold-101"/>
     <use x="949.316406" xlink:href="#DejaVuSans-Bold-112"/>
     <use x="1020.898438" xlink:href="#DejaVuSans-Bold-114"/>
     <use x="1070.214844" xlink:href="#DejaVuSans-Bold-101"/>
     <use x="1138.037109" xlink:href="#DejaVuSans-Bold-115"/>
     <use x="1197.558594" xlink:href="#DejaVuSans-Bold-115"/>
     <use x="1257.080078" xlink:href="#DejaVuSans-Bold-105"/>
     <use x="1291.357422" xlink:href="#DejaVuSans-Bold-108"/>
     <use x="1325.634766" xlink:href="#DejaVuSans-Bold-97"/>
     <use x="1393.115234" xlink:href="#DejaVuSans-Bold-116"/>
     <use x="1440.917969" xlink:href="#DejaVuSans-Bold-111"/>
     <use x="1509.619141" xlink:href="#DejaVuSans-Bold-114"/>
    </g>
   </g>
  </g>
 </g>
 <defs>
  <clipPath id="p8d00f0d4f7">
   <rect height="277.2" width="390.6" x="73.795625" y="28.396875"/>
  </clipPath>
 </defs>
</svg>
