<?xml version="1.0" encoding="utf-8" standalone="no"?>
<!DOCTYPE svg PUBLIC "-//W3C//DTD SVG 1.1//EN"
  "http://www.w3.org/Graphics/SVG/1.1/DTD/svg11.dtd">
<!-- Created with matplotlib (https://matplotlib.org/) -->
<svg height="355.734688pt" version="1.1" viewBox="0 0 471.595625 355.734688" width="471.595625pt" xmlns="http://www.w3.org/2000/svg" xmlns:xlink="http://www.w3.org/1999/xlink">
 <metadata>
  <rdf:RDF xmlns:cc="http://creativecommons.org/ns#" xmlns:dc="http://purl.org/dc/elements/1.1/" xmlns:rdf="http://www.w3.org/1999/02/22-rdf-syntax-ns#">
   <cc:Work>
    <dc:type rdf:resource="http://purl.org/dc/dcmitype/StillImage"/>
    <dc:date>2021-03-25T00:41:54.626734</dc:date>
    <dc:format>image/svg+xml</dc:format>
    <dc:creator>
     <cc:Agent>
      <dc:title>Matplotlib v3.3.4, https://matplotlib.org/</dc:title>
     </cc:Agent>
    </dc:creator>
   </cc:Work>
  </rdf:RDF>
 </metadata>
 <defs>
  <style type="text/css">*{stroke-linecap:butt;stroke-linejoin:round;}</style>
 </defs>
 <g id="figure_1">
  <g id="patch_1">
   <path d="M 0 355.734688 
L 471.595625 355.734688 
L 471.595625 0 
L 0 0 
z
" style="fill:#ffffff;"/>
  </g>
  <g id="axes_1">
   <g id="patch_2">
    <path d="M 73.795625 305.596875 
L 464.395625 305.596875 
L 464.395625 28.396875 
L 73.795625 28.396875 
z
" style="fill:#ffffff;"/>
   </g>
   <g id="matplotlib.axis_1">
    <g id="xtick_1">
     <g id="line2d_1">
      <defs>
       <path d="M 0 0 
L 0 3.5 
" id="me184630b88" style="stroke:#000000;stroke-width:0.8;"/>
      </defs>
      <g>
       <use style="stroke:#000000;stroke-width:0.8;" x="91.55017" xlink:href="#me184630b88" y="305.596875"/>
      </g>
     </g>
     <g id="text_1">
      <!-- 0 -->
      <g transform="translate(86.778295 323.994531)scale(0.15 -0.15)">
       <defs>
        <path d="M 31.78125 66.40625 
Q 24.171875 66.40625 20.328125 58.90625 
Q 16.5 51.421875 16.5 36.375 
Q 16.5 21.390625 20.328125 13.890625 
Q 24.171875 6.390625 31.78125 6.390625 
Q 39.453125 6.390625 43.28125 13.890625 
Q 47.125 21.390625 47.125 36.375 
Q 47.125 51.421875 43.28125 58.90625 
Q 39.453125 66.40625 31.78125 66.40625 
z
M 31.78125 74.21875 
Q 44.046875 74.21875 50.515625 64.515625 
Q 56.984375 54.828125 56.984375 36.375 
Q 56.984375 17.96875 50.515625 8.265625 
Q 44.046875 -1.421875 31.78125 -1.421875 
Q 19.53125 -1.421875 13.0625 8.265625 
Q 6.59375 17.96875 6.59375 36.375 
Q 6.59375 54.828125 13.0625 64.515625 
Q 19.53125 74.21875 31.78125 74.21875 
z
" id="DejaVuSans-48"/>
       </defs>
       <use xlink:href="#DejaVuSans-48"/>
      </g>
     </g>
    </g>
    <g id="xtick_2">
     <g id="line2d_2">
      <g>
       <use style="stroke:#000000;stroke-width:0.8;" x="166.507362" xlink:href="#me184630b88" y="305.596875"/>
      </g>
     </g>
     <g id="text_2">
      <!-- 500 -->
      <g transform="translate(152.191737 323.994531)scale(0.15 -0.15)">
       <defs>
        <path d="M 10.796875 72.90625 
L 49.515625 72.90625 
L 49.515625 64.59375 
L 19.828125 64.59375 
L 19.828125 46.734375 
Q 21.96875 47.46875 24.109375 47.828125 
Q 26.265625 48.1875 28.421875 48.1875 
Q 40.625 48.1875 47.75 41.5 
Q 54.890625 34.8125 54.890625 23.390625 
Q 54.890625 11.625 47.5625 5.09375 
Q 40.234375 -1.421875 26.90625 -1.421875 
Q 22.3125 -1.421875 17.546875 -0.640625 
Q 12.796875 0.140625 7.71875 1.703125 
L 7.71875 11.625 
Q 12.109375 9.234375 16.796875 8.0625 
Q 21.484375 6.890625 26.703125 6.890625 
Q 35.15625 6.890625 40.078125 11.328125 
Q 45.015625 15.765625 45.015625 23.390625 
Q 45.015625 31 40.078125 35.4375 
Q 35.15625 39.890625 26.703125 39.890625 
Q 22.75 39.890625 18.8125 39.015625 
Q 14.890625 38.140625 10.796875 36.28125 
z
" id="DejaVuSans-53"/>
       </defs>
       <use xlink:href="#DejaVuSans-53"/>
       <use x="63.623047" xlink:href="#DejaVuSans-48"/>
       <use x="127.246094" xlink:href="#DejaVuSans-48"/>
      </g>
     </g>
    </g>
    <g id="xtick_3">
     <g id="line2d_3">
      <g>
       <use style="stroke:#000000;stroke-width:0.8;" x="241.464553" xlink:href="#me184630b88" y="305.596875"/>
      </g>
     </g>
     <g id="text_3">
      <!-- 1000 -->
      <g transform="translate(222.377053 323.994531)scale(0.15 -0.15)">
       <defs>
        <path d="M 12.40625 8.296875 
L 28.515625 8.296875 
L 28.515625 63.921875 
L 10.984375 60.40625 
L 10.984375 69.390625 
L 28.421875 72.90625 
L 38.28125 72.90625 
L 38.28125 8.296875 
L 54.390625 8.296875 
L 54.390625 0 
L 12.40625 0 
z
" id="DejaVuSans-49"/>
       </defs>
       <use xlink:href="#DejaVuSans-49"/>
       <use x="63.623047" xlink:href="#DejaVuSans-48"/>
       <use x="127.246094" xlink:href="#DejaVuSans-48"/>
       <use x="190.869141" xlink:href="#DejaVuSans-48"/>
      </g>
     </g>
    </g>
    <g id="xtick_4">
     <g id="line2d_4">
      <g>
       <use style="stroke:#000000;stroke-width:0.8;" x="316.421744" xlink:href="#me184630b88" y="305.596875"/>
      </g>
     </g>
     <g id="text_4">
      <!-- 1500 -->
      <g transform="translate(297.334244 323.994531)scale(0.15 -0.15)">
       <use xlink:href="#DejaVuSans-49"/>
       <use x="63.623047" xlink:href="#DejaVuSans-53"/>
       <use x="127.246094" xlink:href="#DejaVuSans-48"/>
       <use x="190.869141" xlink:href="#DejaVuSans-48"/>
      </g>
     </g>
    </g>
    <g id="xtick_5">
     <g id="line2d_5">
      <g>
       <use style="stroke:#000000;stroke-width:0.8;" x="391.378936" xlink:href="#me184630b88" y="305.596875"/>
      </g>
     </g>
     <g id="text_5">
      <!-- 2000 -->
      <g transform="translate(372.291436 323.994531)scale(0.15 -0.15)">
       <defs>
        <path d="M 19.1875 8.296875 
L 53.609375 8.296875 
L 53.609375 0 
L 7.328125 0 
L 7.328125 8.296875 
Q 12.9375 14.109375 22.625 23.890625 
Q 32.328125 33.6875 34.8125 36.53125 
Q 39.546875 41.84375 41.421875 45.53125 
Q 43.3125 49.21875 43.3125 52.78125 
Q 43.3125 58.59375 39.234375 62.25 
Q 35.15625 65.921875 28.609375 65.921875 
Q 23.96875 65.921875 18.8125 64.3125 
Q 13.671875 62.703125 7.8125 59.421875 
L 7.8125 69.390625 
Q 13.765625 71.78125 18.9375 73 
Q 24.125 74.21875 28.421875 74.21875 
Q 39.75 74.21875 46.484375 68.546875 
Q 53.21875 62.890625 53.21875 53.421875 
Q 53.21875 48.921875 51.53125 44.890625 
Q 49.859375 40.875 45.40625 35.40625 
Q 44.1875 33.984375 37.640625 27.21875 
Q 31.109375 20.453125 19.1875 8.296875 
z
" id="DejaVuSans-50"/>
       </defs>
       <use xlink:href="#DejaVuSans-50"/>
       <use x="63.623047" xlink:href="#DejaVuSans-48"/>
       <use x="127.246094" xlink:href="#DejaVuSans-48"/>
       <use x="190.869141" xlink:href="#DejaVuSans-48"/>
      </g>
     </g>
    </g>
    <g id="text_6">
     <!-- None [None] -->
     <g transform="translate(205.282813 344.79125)scale(0.18 -0.18)">
      <defs>
       <path d="M 9.1875 72.90625 
L 30.171875 72.90625 
L 56.6875 22.90625 
L 56.6875 72.90625 
L 74.515625 72.90625 
L 74.515625 0 
L 53.515625 0 
L 27 50 
L 27 0 
L 9.1875 0 
z
" id="DejaVuSans-Bold-78"/>
       <path d="M 34.421875 43.5 
Q 28.609375 43.5 25.5625 39.328125 
Q 22.515625 35.15625 22.515625 27.296875 
Q 22.515625 19.4375 25.5625 15.25 
Q 28.609375 11.078125 34.421875 11.078125 
Q 40.140625 11.078125 43.15625 15.25 
Q 46.1875 19.4375 46.1875 27.296875 
Q 46.1875 35.15625 43.15625 39.328125 
Q 40.140625 43.5 34.421875 43.5 
z
M 34.421875 56 
Q 48.53125 56 56.46875 48.375 
Q 64.40625 40.765625 64.40625 27.296875 
Q 64.40625 13.8125 56.46875 6.1875 
Q 48.53125 -1.421875 34.421875 -1.421875 
Q 20.265625 -1.421875 12.28125 6.1875 
Q 4.296875 13.8125 4.296875 27.296875 
Q 4.296875 40.765625 12.28125 48.375 
Q 20.265625 56 34.421875 56 
z
" id="DejaVuSans-Bold-111"/>
       <path d="M 63.375 33.296875 
L 63.375 0 
L 45.796875 0 
L 45.796875 5.421875 
L 45.796875 25.484375 
Q 45.796875 32.5625 45.484375 35.25 
Q 45.171875 37.9375 44.390625 39.203125 
Q 43.359375 40.921875 41.59375 41.875 
Q 39.84375 42.828125 37.59375 42.828125 
Q 32.125 42.828125 29 38.59375 
Q 25.875 34.375 25.875 26.90625 
L 25.875 0 
L 8.40625 0 
L 8.40625 54.6875 
L 25.875 54.6875 
L 25.875 46.6875 
Q 29.828125 51.46875 34.265625 53.734375 
Q 38.71875 56 44.09375 56 
Q 53.5625 56 58.46875 50.1875 
Q 63.375 44.390625 63.375 33.296875 
z
" id="DejaVuSans-Bold-110"/>
       <path d="M 62.984375 27.484375 
L 62.984375 22.515625 
L 22.125 22.515625 
Q 22.75 16.359375 26.5625 13.28125 
Q 30.375 10.203125 37.203125 10.203125 
Q 42.71875 10.203125 48.5 11.84375 
Q 54.296875 13.484375 60.40625 16.796875 
L 60.40625 3.328125 
Q 54.203125 0.984375 48 -0.21875 
Q 41.796875 -1.421875 35.59375 -1.421875 
Q 20.75 -1.421875 12.515625 6.125 
Q 4.296875 13.671875 4.296875 27.296875 
Q 4.296875 40.671875 12.375 48.328125 
Q 20.453125 56 34.625 56 
Q 47.515625 56 55.25 48.234375 
Q 62.984375 40.484375 62.984375 27.484375 
z
M 45.015625 33.296875 
Q 45.015625 38.28125 42.109375 41.328125 
Q 39.203125 44.390625 34.515625 44.390625 
Q 29.4375 44.390625 26.265625 41.53125 
Q 23.09375 38.671875 22.3125 33.296875 
z
" id="DejaVuSans-Bold-101"/>
       <path id="DejaVuSans-Bold-32"/>
       <path d="M 8.59375 75.984375 
L 38.921875 75.984375 
L 38.921875 64.984375 
L 25.203125 64.984375 
L 25.203125 -2.203125 
L 38.921875 -2.203125 
L 38.921875 -13.1875 
L 8.59375 -13.1875 
z
" id="DejaVuSans-Bold-91"/>
       <path d="M 37.109375 -13.1875 
L 6.78125 -13.1875 
L 6.78125 -2.203125 
L 20.515625 -2.203125 
L 20.515625 64.984375 
L 6.78125 64.984375 
L 6.78125 75.984375 
L 37.109375 75.984375 
z
" id="DejaVuSans-Bold-93"/>
      </defs>
      <use xlink:href="#DejaVuSans-Bold-78"/>
      <use x="83.691406" xlink:href="#DejaVuSans-Bold-111"/>
      <use x="152.392578" xlink:href="#DejaVuSans-Bold-110"/>
      <use x="223.583984" xlink:href="#DejaVuSans-Bold-101"/>
      <use x="291.40625" xlink:href="#DejaVuSans-Bold-32"/>
      <use x="326.220703" xlink:href="#DejaVuSans-Bold-91"/>
      <use x="371.923828" xlink:href="#DejaVuSans-Bold-78"/>
      <use x="455.615234" xlink:href="#DejaVuSans-Bold-111"/>
      <use x="524.316406" xlink:href="#DejaVuSans-Bold-110"/>
      <use x="595.507812" xlink:href="#DejaVuSans-Bold-101"/>
      <use x="663.330078" xlink:href="#DejaVuSans-Bold-93"/>
     </g>
    </g>
   </g>
   <g id="matplotlib.axis_2">
    <g id="ytick_1">
     <g id="line2d_6">
      <defs>
       <path d="M 0 0 
L -3.5 0 
" id="mb280fc4361" style="stroke:#000000;stroke-width:0.8;"/>
      </defs>
      <g>
       <use style="stroke:#000000;stroke-width:0.8;" x="73.795625" xlink:href="#mb280fc4361" y="292.996875"/>
      </g>
     </g>
     <g id="text_7">
      <!-- 0 -->
      <g transform="translate(57.251875 298.695703)scale(0.15 -0.15)">
       <use xlink:href="#DejaVuSans-48"/>
      </g>
     </g>
    </g>
    <g id="ytick_2">
     <g id="line2d_7">
      <g>
       <use style="stroke:#000000;stroke-width:0.8;" x="73.795625" xlink:href="#mb280fc4361" y="239.801449"/>
      </g>
     </g>
     <g id="text_8">
      <!-- 500 -->
      <g transform="translate(38.164375 245.500277)scale(0.15 -0.15)">
       <use xlink:href="#DejaVuSans-53"/>
       <use x="63.623047" xlink:href="#DejaVuSans-48"/>
       <use x="127.246094" xlink:href="#DejaVuSans-48"/>
      </g>
     </g>
    </g>
    <g id="ytick_3">
     <g id="line2d_8">
      <g>
       <use style="stroke:#000000;stroke-width:0.8;" x="73.795625" xlink:href="#mb280fc4361" y="186.606023"/>
      </g>
     </g>
     <g id="text_9">
      <!-- 1000 -->
      <g transform="translate(28.620625 192.304851)scale(0.15 -0.15)">
       <use xlink:href="#DejaVuSans-49"/>
       <use x="63.623047" xlink:href="#DejaVuSans-48"/>
       <use x="127.246094" xlink:href="#DejaVuSans-48"/>
       <use x="190.869141" xlink:href="#DejaVuSans-48"/>
      </g>
     </g>
    </g>
    <g id="ytick_4">
     <g id="line2d_9">
      <g>
       <use style="stroke:#000000;stroke-width:0.8;" x="73.795625" xlink:href="#mb280fc4361" y="133.410597"/>
      </g>
     </g>
     <g id="text_10">
      <!-- 1500 -->
      <g transform="translate(28.620625 139.109425)scale(0.15 -0.15)">
       <use xlink:href="#DejaVuSans-49"/>
       <use x="63.623047" xlink:href="#DejaVuSans-53"/>
       <use x="127.246094" xlink:href="#DejaVuSans-48"/>
       <use x="190.869141" xlink:href="#DejaVuSans-48"/>
      </g>
     </g>
    </g>
    <g id="ytick_5">
     <g id="line2d_10">
      <g>
       <use style="stroke:#000000;stroke-width:0.8;" x="73.795625" xlink:href="#mb280fc4361" y="80.215171"/>
      </g>
     </g>
     <g id="text_11">
      <!-- 2000 -->
      <g transform="translate(28.620625 85.913999)scale(0.15 -0.15)">
       <use xlink:href="#DejaVuSans-50"/>
       <use x="63.623047" xlink:href="#DejaVuSans-48"/>
       <use x="127.246094" xlink:href="#DejaVuSans-48"/>
       <use x="190.869141" xlink:href="#DejaVuSans-48"/>
      </g>
     </g>
    </g>
    <g id="text_12">
     <!-- None [None] -->
     <g transform="translate(20.877188 230.809687)rotate(-90)scale(0.18 -0.18)">
      <use xlink:href="#DejaVuSans-Bold-78"/>
      <use x="83.691406" xlink:href="#DejaVuSans-Bold-111"/>
      <use x="152.392578" xlink:href="#DejaVuSans-Bold-110"/>
      <use x="223.583984" xlink:href="#DejaVuSans-Bold-101"/>
      <use x="291.40625" xlink:href="#DejaVuSans-Bold-32"/>
      <use x="326.220703" xlink:href="#DejaVuSans-Bold-91"/>
      <use x="371.923828" xlink:href="#DejaVuSans-Bold-78"/>
      <use x="455.615234" xlink:href="#DejaVuSans-Bold-111"/>
      <use x="524.316406" xlink:href="#DejaVuSans-Bold-110"/>
      <use x="595.507812" xlink:href="#DejaVuSans-Bold-101"/>
      <use x="663.330078" xlink:href="#DejaVuSans-Bold-93"/>
     </g>
    </g>
   </g>
   <g id="line2d_11">
    <path clip-path="url(#p938edb01be)" d="M 91.55017 292.996875 
L 103.77913 288.455019 
L 124.351902 283.98999 
L 142.211964 280.961662 
L 155.901112 279.050106 
L 165.874262 277.944847 
L 172.90867 277.405301 
L 177.745456 277.253441 
L 181.005918 277.359757 
L 183.184873 277.630774 
L 184.666021 277.999278 
L 186.630146 278.849106 
L 188.438045 279.662695 
L 190.844404 280.307713 
L 194.059195 280.706044 
L 197.883562 280.802165 
L 201.815289 280.546062 
L 203.611743 280.269339 
L 205.174795 279.883576 
L 206.418304 279.380415 
L 207.266005 278.750661 
L 207.656155 277.984218 
L 207.54501 277.070074 
L 206.908791 275.996311 
L 205.744029 274.750167 
L 204.06636 273.318152 
L 199.314679 269.840097 
L 189.499893 262.877308 
L 185.75709 260.040436 
L 181.879446 256.930157 
L 177.921347 253.542188 
L 173.931363 249.877068 
L 169.951712 245.941355 
L 166.01816 241.748865 
L 162.160216 237.321872 
L 158.401554 232.692181 
L 154.760565 227.901955 
L 151.25097 223.004178 
L 144.661286 213.151013 
L 133.286289 195.529757 
L 130.813197 192.081925 
L 128.481426 189.183474 
L 126.286203 186.898428 
L 124.222363 185.273587 
L 122.284513 184.335912 
L 120.467162 184.091274 
L 118.76483 184.524713 
L 117.172127 185.60214 
L 115.683822 187.273247 
L 114.2949 189.475242 
L 113.000598 192.136957 
L 111.796446 195.182919 
L 110.678289 198.537038 
L 109.642314 202.125679 
L 107.80349 209.73763 
L 106.257065 217.550269 
L 104.986876 225.215313 
L 103.984237 232.499191 
L 103.24888 239.263278 
L 102.790181 245.440215 
L 102.628763 251.012111 
L 102.798548 255.992985 
L 103.022499 258.271607 
L 103.349324 260.415753 
L 103.788233 262.431006 
L 104.349845 264.323175 
L 105.046308 266.098163 
L 105.891425 267.761866 
L 106.900779 269.320094 
L 108.091854 270.778513 
L 109.484147 272.142602 
L 111.099258 273.417617 
L 112.960957 274.608569 
L 115.095201 275.720211 
L 117.530103 276.757025 
L 120.295822 277.723215 
L 123.42435 278.622706 
L 126.949186 279.459139 
L 130.904852 280.235872 
L 135.326231 280.955979 
L 140.247706 281.622249 
L 145.702053 282.237186 
L 158.324072 283.321622 
L 173.364544 284.223447 
L 190.857644 284.951893 
L 210.626347 285.510874 
L 232.210935 285.898386 
L 254.817556 286.105661 
L 277.309363 286.116009 
L 298.262933 285.903315 
L 316.107311 285.430126 
L 323.385989 285.080477 
L 329.347859 284.645321 
L 333.863894 284.115681 
L 336.844116 283.481367 
L 338.243247 282.730871 
L 338.06341 281.851271 
L 336.353412 280.828136 
L 333.204664 279.645443 
L 328.744226 278.285507 
L 301.060356 270.660258 
L 292.551686 268.090117 
L 283.736105 265.202628 
L 274.752859 261.970282 
L 265.722904 258.365405 
L 256.748494 254.360863 
L 247.913757 249.930929 
L 239.28594 245.052343 
L 230.917083 239.705546 
L 222.845872 233.876102 
L 215.09955 227.556262 
L 207.695747 220.746638 
L 200.644175 213.457921 
L 193.948148 205.712576 
L 187.605909 197.546406 
L 181.611767 189.009889 
L 175.957053 180.169185 
L 170.630917 171.106685 
L 165.620969 161.921014 
L 160.913809 152.726374 
L 156.495439 143.651149 
L 141.425349 111.457288 
L 138.239173 105.192617 
L 135.259099 99.925154 
L 132.472802 95.76902 
L 129.868537 92.811813 
L 127.435147 91.109044 
L 125.162073 90.680357 
L 123.039344 91.50815 
L 121.057574 93.538886 
L 119.207942 96.687008 
L 117.482176 100.840963 
L 115.872537 105.870563 
L 114.371797 111.634806 
L 112.973219 117.989339 
L 111.670541 124.792932 
L 110.457956 131.912603 
L 108.282007 146.629914 
L 106.407414 161.346744 
L 104.802606 175.504509 
L 102.847246 194.975382 
L 101.382851 211.904762 
L 100.381335 226.250352 
L 99.973194 234.47404 
L 99.786496 241.725473 
L 99.844403 248.098273 
L 100.18235 253.685259 
L 100.850657 258.574501 
L 101.329276 260.783165 
L 101.917775 262.847291 
L 102.62818 264.775844 
L 103.474171 266.577304 
L 104.471227 268.25967 
L 105.636789 269.830472 
L 106.990403 271.296788 
L 108.553878 272.665255 
L 110.351415 273.94209 
L 112.409721 275.133109 
L 114.758085 276.243739 
L 117.428413 277.279041 
L 120.455186 278.243723 
L 123.875339 279.142158 
L 127.728031 279.978397 
L 132.054272 280.756182 
L 136.896398 281.478962 
L 142.297344 282.149896 
L 148.299708 282.77187 
L 162.270097 283.879136 
L 179.090655 284.818535 
L 198.938184 285.603695 
L 221.813619 286.244035 
L 247.468345 286.744554 
L 275.33926 287.105432 
L 304.507784 287.321401 
L 333.697069 287.380858 
L 361.319285 287.264662 
L 385.58448 286.944557 
L 404.683657 286.381188 
L 411.788435 285.992353 
L 417.049666 285.521653 
L 420.359616 284.959881 
L 421.662016 284.2966 
L 420.95666 283.520027 
L 418.300172 282.616929 
L 413.802593 281.572505 
L 407.620107 280.37029 
L 370.171182 273.591291 
L 358.749942 271.289691 
L 346.932164 268.693274 
L 334.90087 265.773174 
L 322.815619 262.499322 
L 310.811645 258.840876 
L 299.000391 254.766795 
L 287.471002 250.246573 
L 276.29244 245.251143 
L 265.515898 239.753961 
L 255.177306 233.732265 
L 245.299759 227.168494 
L 235.895781 220.051839 
L 226.969352 212.379879 
L 218.517692 204.160247 
L 210.532781 195.412249 
L 203.002646 186.168361 
L 195.912425 176.475517 
L 189.245231 166.396095 
L 182.982858 156.00854 
L 177.106333 145.407545 
L 171.59635 134.703747 
L 166.433609 124.022869 
L 161.599071 113.50429 
L 152.840814 93.566534 
L 145.180395 76.18038 
L 141.720906 68.852646 
L 138.488282 62.638059 
L 135.468304 57.667847 
L 132.647543 54.047901 
L 130.013342 51.852107 
L 127.55379 51.116996 
L 125.2577 51.838569 
L 123.114577 53.971905 
L 121.11459 57.433784 
L 119.24854 62.108089 
L 117.507829 67.853312 
L 115.884434 74.511203 
L 114.370871 81.915567 
L 112.960178 89.900345 
L 111.64588 98.306351 
L 109.282891 115.808506 
L 107.239086 133.438171 
L 105.478196 150.487154 
L 103.302904 174.037343 
L 101.620075 194.581171 
L 100.381037 212.021601 
L 99.56774 226.582064 
L 99.268913 234.860966 
L 99.181545 242.128519 
L 99.331291 248.494524 
L 99.756145 254.062014 
L 100.509156 258.925418 
L 101.030226 261.120068 
L 101.661783 263.169916 
L 102.416292 265.084176 
L 103.30791 266.871519 
L 104.352631 268.540089 
L 105.568452 270.097525 
L 106.975529 271.550985 
L 108.596332 272.907164 
L 110.455781 274.172324 
L 112.581369 275.352308 
L 115.003241 276.452567 
L 117.754227 277.478176 
L 120.869817 278.433856 
L 124.388035 279.323989 
L 128.349218 280.152637 
L 132.795648 280.923554 
L 137.771032 281.640199 
L 143.319785 282.305752 
L 156.312813 283.494946 
L 172.103079 284.511269 
L 190.946002 285.37081 
L 212.96104 286.085675 
L 238.060054 286.663906 
L 265.877346 287.109238 
L 295.714927 287.420671 
L 326.51658 287.591809 
L 356.881519 287.609941 
L 385.126072 287.454796 
L 409.403698 287.096927 
L 427.89736 286.495677 
L 434.480515 286.087407 
L 439.088654 285.596677 
L 441.629481 285.01406 
L 442.065301 284.328883 
L 440.416781 283.529109 
L 436.762604 282.601224 
L 431.234822 281.530126 
L 415.299866 278.889336 
L 394.355974 275.450546 
L 382.600483 273.374849 
L 370.294295 271.027424 
L 357.644611 268.380419 
L 344.8357 265.404444 
L 332.026725 262.06888 
L 319.351335 258.342309 
L 306.918579 254.193092 
L 294.814727 249.5901 
L 283.105613 244.503617 
L 271.839235 238.906424 
L 261.048375 232.775046 
L 250.753116 226.091169 
L 240.963147 218.843171 
L 231.679819 211.027744 
L 222.897929 202.651541 
L 214.607246 193.732772 
L 206.793785 184.302687 
L 199.440853 174.406836 
L 192.529907 164.106062 
L 186.041232 153.477122 
L 179.954489 142.612906 
L 174.24913 131.62218 
L 168.904723 120.628844 
L 163.901194 109.770638 
L 154.83929 89.06785 
L 146.915583 70.804041 
L 143.337794 63.001205 
L 139.994921 56.294411 
L 136.872172 50.823116 
L 133.955585 46.703794 
L 131.23201 44.022915 
L 128.68908 42.8309 
L 126.315181 43.137941 
L 124.099422 44.912433 
L 122.0316 48.082434 
L 120.102171 52.540131 
L 118.302212 58.148759 
L 116.623395 64.751101 
L 115.057951 72.178542 
L 113.598645 80.259695 
L 112.238748 88.82788 
L 110.972009 97.726986 
L 108.69527 115.969426 
L 106.727189 134.066255 
L 104.279233 159.609861 
L 102.356053 182.274205 
L 100.893525 201.716403 
L 99.856436 218.05183 
L 99.241381 231.603205 
L 99.081029 239.281727 
L 99.144222 246.009611 
L 99.463942 251.894799 
L 100.087035 257.036538 
L 100.531528 259.357029 
L 101.077316 261.524555 
L 101.735646 263.548842 
L 102.519328 265.439047 
L 103.442893 267.203776 
L 104.522742 268.851106 
L 105.777314 270.388608 
L 107.22724 271.823372 
L 108.895499 273.162027 
L 110.807551 274.410768 
L 112.991457 275.575375 
L 115.477948 276.661238 
L 118.300458 277.673374 
L 121.495077 278.616448 
L 125.100415 279.494787 
L 129.15736 280.312405 
L 133.708687 281.073005 
L 138.798511 281.780004 
L 144.471534 282.436538 
L 157.742944 283.609415 
L 173.849838 284.611474 
L 193.042047 285.458545 
L 215.428516 286.162502 
L 240.905615 286.731182 
L 269.08815 287.168138 
L 299.256581 287.472207 
L 345.781434 287.663144 
L 375.470089 287.59225 
L 402.033876 287.33516 
L 423.607725 286.856982 
L 431.977074 286.52076 
L 438.488947 286.110418 
L 443.005049 285.617653 
L 445.435109 285.033024 
L 445.743884 284.345836 
L 443.954833 283.544031 
L 440.149645 282.614073 
L 434.463435 281.540835 
L 418.201032 278.895447 
L 396.932183 275.45141 
L 385.019962 273.372745 
L 372.562642 271.022058 
L 359.768287 268.371437 
L 346.821721 265.391428 
L 333.882398 262.051333 
L 321.084059 258.319647 
L 308.535689 254.164628 
L 296.32338 249.555025 
L 284.51271 244.460982 
L 273.151371 238.855114 
L 262.271809 232.713756 
L 251.893758 226.01837 
L 242.026555 218.757073 
L 232.671204 210.926258 
L 223.822168 202.532235 
L 215.468895 193.592827 
L 207.597095 184.138845 
L 200.189788 174.215359 
L 193.228161 163.882687 
L 186.692248 153.217024 
L 180.561472 142.310675 
L 174.815065 131.271813 
L 169.432391 120.223762 
L 164.393185 109.303733 
L 155.266996 88.4544 
L 147.287383 70.012846 
L 143.684431 62.11034 
L 140.318084 55.298017 
L 137.173435 49.716989 
L 134.236415 45.485935 
L 131.493772 42.694019 
L 128.933044 41.394722 
L 126.54253 41.601452 
L 124.311256 43.285721 
L 122.228942 46.378353 
L 120.285972 50.77371 
L 118.473355 56.33646 
L 116.782699 62.910012 
L 115.206176 70.325593 
L 113.736493 78.410982 
L 112.366869 86.998124 
L 111.091001 95.929175 
L 108.797606 114.26664 
L 106.814706 132.486988 
L 104.347221 158.240006 
L 102.406764 181.11459 
L 100.928068 200.749972 
L 99.874646 217.254265 
L 99.241536 230.949003 
L 99.067225 238.709742 
L 99.114059 245.510124 
L 99.414087 251.459023 
L 100.013006 256.656616 
L 100.443298 259.002371 
L 100.973209 261.193525 
L 101.613755 263.239907 
L 102.377499 265.150771 
L 103.278693 266.934813 
L 104.333443 268.600199 
L 105.559861 270.154582 
L 106.978232 271.605128 
L 108.611163 272.958542 
L 110.483726 274.221088 
L 112.623575 275.398612 
L 115.061032 276.496565 
L 117.829121 277.520025 
L 120.963536 278.473711 
L 124.502526 279.362006 
L 128.486664 280.188971 
L 132.958492 280.958362 
L 137.961988 281.673638 
L 143.541865 282.337983 
L 156.607458 283.525253 
L 172.486459 284.540349 
L 191.437659 285.39943 
L 213.584652 286.114708 
L 238.8445 286.694377 
L 266.858086 287.142382 
L 296.935514 287.458002 
L 343.535754 287.668378 
L 373.453455 287.612809 
L 400.407285 287.373893 
L 422.529329 286.91777 
L 431.224718 286.594418 
L 438.089768 286.198411 
L 442.978307 285.721651 
L 445.790647 285.154918 
L 446.4811 284.48776 
L 445.062342 283.708384 
L 441.605746 282.803539 
L 436.237356 281.758406 
L 420.491786 279.179514 
L 399.560356 275.818019 
L 387.749944 273.787532 
L 375.353517 271.490083 
L 362.5833 268.898073 
L 349.628856 265.982308 
L 336.654594 262.712287 
L 323.79912 259.056603 
L 311.175993 254.98349 
L 298.875454 250.461521 
L 286.966742 245.460475 
L 275.500687 239.952379 
L 264.512378 233.912726 
L 254.023719 227.321852 
L 244.045793 220.166445 
L 234.580984 212.44115 
L 225.624813 204.15021 
L 217.167522 195.309078 
L 209.195389 185.945922 
L 201.691826 176.102935 
L 194.638264 165.837389 
L 188.014866 155.22234 
L 181.801096 144.346935 
L 175.976155 133.316272 
L 170.519327 122.250776 
L 165.410227 111.285051 
L 160.628995 100.566167 
L 144.410277 63.385048 
L 140.996089 56.336419 
L 137.806638 50.492986 
L 134.827679 45.978598 
L 132.04579 42.888984 
L 129.448344 41.285317 
L 127.023483 41.18939 
L 124.760082 42.581219 
L 122.647721 45.399612 
L 120.676645 49.545802 
L 118.837737 54.889763 
L 117.122481 61.278391 
L 115.522936 68.544537 
L 114.031698 76.515889 
L 112.641882 85.022872 
L 111.347087 93.905033 
L 109.019263 112.22484 
L 107.005922 130.509276 
L 105.271236 148.077083 
L 103.128035 172.210429 
L 101.469377 193.171146 
L 100.246978 210.917121 
L 99.442613 225.707486 
L 99.145067 234.1092 
L 99.054724 241.480748 
L 99.196571 247.935379 
L 99.607685 253.578783 
L 100.339911 258.507473 
L 100.847479 260.731316 
L 101.463163 262.8083 
L 102.199178 264.747802 
L 103.069399 266.558639 
L 104.089516 268.249091 
L 105.277196 269.826919 
L 106.652239 271.299397 
L 108.236739 272.673325 
L 110.055223 273.955062 
L 112.13478 275.150543 
L 114.505151 276.265305 
L 117.198775 277.304503 
L 120.250779 278.272935 
L 123.698875 279.175053 
L 127.583163 280.014988 
L 131.9458 280.796561 
L 136.830514 281.523295 
L 142.281934 282.198432 
L 148.344715 282.824941 
L 162.476223 283.942633 
L 179.534623 284.894963 
L 199.734028 285.696546 
L 223.126017 286.358042 
L 249.527519 286.886022 
L 278.455393 287.282675 
L 324.674351 287.624006 
L 355.520348 287.667986 
L 384.50967 287.544311 
L 409.805793 287.22543 
L 429.563275 286.673038 
L 436.84736 286.29378 
L 442.183096 285.835665 
L 445.459783 285.289728 
L 446.619292 284.645802 
L 445.661224 283.892401 
L 442.644186 283.016606 
L 437.682725 282.003956 
L 422.618054 279.501874 
L 402.159039 276.23572 
L 390.505027 274.26091 
L 378.215335 272.025027 
L 365.506695 269.500854 
L 352.574016 266.659528 
L 339.58742 263.470806 
L 326.69123 259.903438 
L 314.004451 255.92568 
L 301.622317 251.505959 
L 289.618508 246.613696 
L 278.047709 241.220317 
L 266.948269 235.300425 
L 256.3448 228.833147 
L 246.250588 221.803616 
L 236.669771 214.204561 
L 227.599241 206.037939 
L 219.030279 197.316567 
L 210.949935 188.065652 
L 203.342166 178.324157 
L 196.188765 168.145915 
L 189.470118 157.600416 
L 183.165794 146.773209 
L 177.255015 135.765867 
L 171.717014 124.695472 
L 166.53131 113.693588 
L 161.677906 102.904679 
L 145.211401 65.076743 
L 141.744549 57.776372 
L 138.505761 51.650422 
L 135.480603 46.828085 
L 132.655467 43.412008 
L 130.017552 41.471613 
L 127.554828 41.037842 
L 125.256007 42.100149 
L 123.110513 44.606373 
L 121.108444 48.465712 
L 119.240543 53.554481 
L 117.498161 59.723966 
L 115.873229 66.809358 
L 114.358225 74.638751 
L 112.94615 83.041316 
L 111.630496 91.854064 
L 109.264744 110.12585 
L 107.217902 128.45637 
L 105.453438 146.132996 
L 103.271114 170.491575 
L 101.578093 191.699951 
L 100.323926 209.682749 
L 99.488007 224.684387 
L 99.168164 233.210385 
L 99.053346 240.692994 
L 99.167312 247.246158 
L 99.545648 252.97654 
L 100.238369 257.981739 
L 100.722983 260.240255 
L 101.313157 262.349705 
L 102.020751 264.319594 
L 102.85925 266.158867 
L 103.84392 267.875922 
L 104.991964 269.478638 
L 106.322686 270.974394 
L 107.857646 272.370099 
L 109.620808 273.672208 
L 111.638671 274.886751 
L 113.940368 276.019353 
L 116.557727 277.075255 
L 119.525271 278.059332 
L 122.880138 278.976115 
L 126.661912 279.829807 
L 130.912322 280.624296 
L 135.674791 281.363174 
L 140.993814 282.049743 
L 146.914131 282.687034 
L 160.732258 283.82458 
L 177.445881 284.794857 
L 197.283143 285.612931 
L 220.317704 286.289914 
L 246.396672 286.832854 
L 275.073743 287.244458 
L 305.561236 287.522617 
L 352.088598 287.671212 
L 381.380419 287.567808 
L 407.192133 287.272839 
L 427.667851 286.749336 
L 435.375003 286.386888 
L 441.165462 285.947465 
L 444.917611 285.422365 
L 446.560783 284.801702 
L 446.081186 284.0743 
L 443.524116 283.227579 
L 438.991892 282.247436 
L 432.637543 281.118142 
L 393.235 274.732581 
L 381.069542 272.55846 
L 368.437583 270.102396 
L 355.539344 267.335882 
L 342.550746 264.228959 
L 329.621991 260.750568 
L 316.877745 256.869025 
L 304.418477 252.552648 
L 292.322558 247.770551 
L 280.648761 242.493605 
L 269.438923 236.695576 
L 258.72056 230.354434 
L 248.509336 223.453808 
L 238.811293 215.984551 
L 229.624817 207.946374 
L 220.942335 199.34948 
L 212.751752 190.216126 
L 205.037636 180.582031 
L 197.782201 170.497558 
L 190.966095 160.028579 
L 184.569027 149.256972 
L 178.57026 138.280684 
L 172.948998 127.213335 
L 167.684672 116.183306 
L 162.757161 105.332292 
L 153.835224 84.787699 
L 146.036015 66.884067 
L 142.515008 59.335997 
L 139.225478 52.929941 
L 136.152798 47.800142 
L 133.283174 44.05592 
L 130.603624 41.774805 
L 128.101942 40.996875 
L 125.766677 41.721165 
L 123.587091 43.904857 
L 121.553132 47.465543 
L 119.655399 52.286405 
L 117.885106 58.223671 
L 116.234054 65.115396 
L 114.694601 72.790525 
L 113.259629 81.077328 
L 111.922521 89.810517 
L 109.517775 108.018014 
L 107.436511 126.383648 
L 105.641478 144.16264 
L 103.419066 168.742888 
L 101.690954 190.199758 
L 100.404517 208.422265 
L 99.536763 223.638738 
L 99.19457 232.291404 
L 99.055342 239.887339 
L 99.141627 246.541128 
L 99.48754 252.360385 
L 100.141297 257.443794 
L 100.603305 259.737763 
L 101.168376 261.880411 
L 101.84802 263.881377 
L 102.655337 265.749732 
L 103.605172 267.493997 
L 104.714272 269.122167 
L 106.001446 270.641735 
L 107.487725 272.059713 
L 109.196512 273.382658 
L 111.153718 274.616697 
L 113.387866 275.767545 
L 115.930166 276.840527 
L 118.814528 277.840602 
L 122.077506 278.772378 
L 125.758147 279.64013 
L 129.897722 280.447818 
L 134.539316 281.1991 
L 139.727246 281.897343 
L 145.506278 282.54564 
L 159.012743 283.703429 
L 175.381889 284.691979 
L 194.855113 285.526804 
L 217.527343 286.219471 
L 243.275172 286.777504 
L 271.688725 287.204125 
L 302.020845 287.497807 
L 348.605216 287.672145 
L 378.176297 287.588772 
L 404.481088 287.317352 
L 425.656454 286.822227 
L 433.780054 286.476267 
L 440.021051 286.055167 
L 444.247307 285.55048 
L 446.375875 284.9526 
L 446.379616 284.250656 
L 444.290345 283.432398 
L 440.197756 282.484083 
L 434.244043 281.390362 
L 417.527417 278.696672 
L 395.930147 275.192866 
L 395.930147 275.192866 
" style="fill:none;stroke:#1f77b4;stroke-linecap:square;stroke-width:2;"/>
   </g>
   <g id="line2d_12">
    <path clip-path="url(#p938edb01be)" d="M 91.55017 292.996875 
L 119.821258 284.318259 
L 145.265223 269.718227 
L 161.993053 257.043344 
L 172.033414 247.328465 
L 177.321235 240.250746 
L 179.314179 235.258585 
L 179.067382 231.826027 
L 177.333253 229.512151 
L 174.643525 227.965796 
L 171.371088 226.914659 
L 167.775229 226.151375 
L 156.560718 224.237738 
L 152.960114 223.45398 
L 149.49934 222.529999 
L 146.196308 221.458092 
L 143.05946 220.248535 
L 140.090897 218.927427 
L 134.647948 216.120436 
L 127.631896 212.360045 
L 125.571791 211.477554 
L 123.639415 210.87596 
L 121.828257 210.59908 
L 120.132194 210.677957 
L 118.545515 211.129467 
L 117.062924 211.956072 
L 115.679539 213.146676 
L 114.390889 214.678375 
L 113.192909 216.518837 
L 112.08194 218.628975 
L 111.054732 220.965654 
L 110.108452 223.484169 
L 108.44951 228.892228 
L 107.09137 234.532803 
L 106.028215 240.148624 
L 105.263226 245.553957 
L 104.809988 250.628566 
L 104.694285 255.305115 
L 104.956309 259.555336 
L 105.24611 261.519335 
L 105.6533 263.377694 
L 106.188194 265.132791 
L 106.862558 266.787597 
L 107.68972 268.345497 
L 108.684657 269.810158 
L 109.864081 271.185406 
L 111.246505 272.475139 
L 112.852275 273.683245 
L 114.703571 274.813551 
L 116.824337 275.869767 
L 119.24016 276.855454 
L 121.978031 277.773991 
L 125.066009 278.62855 
L 128.532733 279.422081 
L 132.406763 280.157289 
L 136.71573 280.836624 
L 141.485263 281.462261 
L 152.490446 282.559724 
L 165.531588 283.461149 
L 180.578593 284.172699 
L 197.394304 284.694565 
L 215.472224 285.020093 
L 234.000537 285.134648 
L 251.877797 285.014156 
L 267.803316 284.623282 
L 274.614578 284.311798 
L 280.451334 283.913235 
L 285.183114 283.418971 
L 288.708325 282.81921 
L 290.960298 282.102895 
L 291.911125 281.257615 
L 291.57277 280.269537 
L 289.995264 279.123329 
L 287.262272 277.802123 
L 283.484589 276.287499 
L 260.657907 267.874993 
L 253.730883 265.067746 
L 246.577198 261.929993 
L 239.306236 258.437334 
L 232.012464 254.566507 
L 224.775346 250.29635 
L 217.659964 245.608945 
L 210.71812 240.490944 
L 203.989715 234.935061 
L 197.504258 228.941693 
L 191.282368 222.520603 
L 185.337223 215.692616 
L 179.675881 208.491202 
L 174.30046 200.96385 
L 169.209171 193.173107 
L 164.397191 185.197141 
L 159.857413 177.129698 
L 155.581048 169.079331 
L 147.777939 153.527363 
L 140.90077 139.620018 
L 137.78104 133.633743 
L 134.858859 128.468229 
L 132.123262 124.237225 
L 129.563631 121.032297 
L 127.169751 118.917301 
L 124.931847 117.924369 
L 122.840615 118.051996 
L 120.88723 119.265542 
L 119.063353 121.500138 
L 117.361129 124.66561 
L 115.773184 128.652799 
L 114.292613 133.340488 
L 112.912971 138.602193 
L 111.628262 144.312227 
L 110.432929 150.350638 
L 108.290277 162.982064 
L 106.448909 175.759355 
L 104.879154 188.152135 
L 102.98446 205.31667 
L 101.598263 220.327342 
L 100.704122 233.095216 
L 100.391561 240.430502 
L 100.326898 246.906684 
L 100.541348 252.603591 
L 101.08046 257.601587 
L 101.490654 259.862744 
L 102.007162 261.977636 
L 102.641167 263.955007 
L 103.405433 265.803196 
L 104.314447 267.530117 
L 105.384566 269.143267 
L 106.634171 270.649719 
L 108.083809 272.056137 
L 109.756329 273.368779 
L 111.676994 274.593516 
L 113.873569 275.73584 
L 116.376359 276.800882 
L 119.218187 277.793421 
L 122.434296 278.717902 
L 126.062144 279.578447 
L 130.141072 280.378865 
L 134.711814 281.122669 
L 139.81583 281.813076 
L 145.49442 282.453025 
L 158.732764 283.591921 
L 174.705259 284.55741 
L 193.590132 285.363253 
L 215.396334 286.018844 
L 239.888836 286.528961 
L 266.521208 286.893336 
L 294.391656 287.105979 
L 322.238782 287.15424 
L 348.491507 287.017531 
L 371.386489 286.665682 
L 381.017849 286.39653 
L 389.164413 286.056865 
L 395.651684 285.63922 
L 400.34178 285.135062 
L 403.142171 284.534681 
L 404.012193 283.827093 
L 402.966335 282.99992 
L 400.073599 282.039291 
L 395.45287 280.929727 
L 381.701218 278.193323 
L 363.301009 274.631671 
L 352.900737 272.483638 
L 341.978996 270.056433 
L 330.725205 267.322265 
L 319.307956 264.252028 
L 307.873026 260.815681 
L 296.543007 256.982752 
L 285.418123 252.723009 
L 274.57788 248.007296 
L 264.08318 242.80854 
L 253.978675 237.102948 
L 244.295142 230.87137 
L 235.051762 224.100804 
L 226.258209 216.786027 
L 217.916519 208.931262 
L 210.022712 200.551847 
L 202.568178 191.675812 
L 195.540835 182.345267 
L 188.926089 172.617532 
L 182.707611 162.565908 
L 176.867963 152.280021 
L 171.389093 141.865666 
L 166.252723 131.444093 
L 161.440641 121.150689 
L 152.718142 101.547826 
L 145.084452 84.327365 
L 141.635826 77.015929 
L 138.412743 70.773111 
L 135.401188 65.73101 
L 132.587902 61.997233 
L 129.960366 59.648236 
L 127.50679 58.723952 
L 125.216084 59.224527 
L 123.077839 61.109777 
L 121.082296 64.301607 
L 119.220318 68.689178 
L 117.483364 74.136166 
L 115.863457 80.489199 
L 114.353159 87.586498 
L 112.945548 95.265834 
L 111.634187 103.37123 
L 109.276777 120.296378 
L 107.238388 137.391957 
L 105.483028 153.956285 
L 103.316921 176.874392 
L 101.64546 196.892939 
L 100.421624 213.901569 
L 99.629667 228.109161 
L 99.350049 236.189909 
L 99.287357 243.284752 
L 99.468901 249.500289 
L 99.934771 254.936716 
L 100.291028 257.391837 
L 100.740642 259.685957 
L 101.293575 261.829167 
L 101.961233 263.830997 
L 102.756606 265.700431 
L 103.694419 267.445919 
L 104.791294 269.075403 
L 106.0659 270.596329 
L 107.539117 272.015674 
L 109.23418 273.339968 
L 111.176815 274.575311 
L 113.395339 275.727398 
L 115.920732 276.801539 
L 118.786644 277.802676 
L 122.029339 278.735404 
L 125.687532 279.603984 
L 129.80212 280.412364 
L 134.41576 281.164186 
L 139.572278 281.862806 
L 145.315879 282.511298 
L 158.736721 283.668864 
L 174.99494 284.656225 
L 194.323186 285.488675 
L 216.804743 286.17749 
L 242.30105 286.729809 
L 270.383241 287.148353 
L 300.281693 287.430941 
L 330.867046 287.56977 
L 360.673302 287.550419 
L 387.971895 287.350516 
L 410.908216 286.938026 
L 420.177103 286.638886 
L 427.713874 286.269093 
L 433.357902 285.820892 
L 436.991414 285.285434 
L 438.547763 284.652673 
L 438.016954 283.911258 
L 435.447449 283.048417 
L 430.943687 282.049846 
L 424.659482 280.899599 
L 385.919993 274.400448 
L 373.997118 272.189384 
L 361.628536 269.692584 
L 349.0092 266.881422 
L 336.310023 263.725891 
L 323.676629 260.194973 
L 311.22964 256.257149 
L 299.066071 251.88105 
L 287.261421 247.03629 
L 275.872159 241.694458 
L 264.938329 235.830295 
L 254.486115 229.423037 
L 244.530239 222.457898 
L 235.076134 214.92766 
L 226.121853 206.834322 
L 217.659709 198.190728 
L 209.677668 189.022119 
L 202.160495 179.367509 
L 195.090704 169.280815 
L 188.449316 158.831654 
L 182.216462 148.105757 
L 176.371868 137.204929 
L 170.895213 126.24652 
L 165.766416 115.362376 
L 160.965842 104.697208 
L 144.675913 67.423404 
L 141.245796 60.273172 
L 138.041214 54.29887 
L 135.047919 49.626953 
L 132.252475 46.356661 
L 129.642238 44.553493 
L 127.205323 44.244201 
L 124.93058 45.414119 
L 122.807557 48.007406 
L 120.82647 51.930348 
L 118.978171 57.057374 
L 117.254113 63.239026 
L 115.646323 70.310884 
L 114.147369 78.102434 
L 112.750338 86.44504 
L 111.448801 95.178464 
L 109.108811 113.245854 
L 107.084909 131.331533 
L 105.341104 148.744609 
L 103.186634 172.707827 
L 101.519302 193.550028 
L 100.290622 211.211084 
L 99.482329 225.938702 
L 99.183539 234.307291 
L 99.093164 241.650988 
L 99.236347 248.082016 
L 99.650388 253.705292 
L 100.387428 258.616729 
L 100.898228 260.832874 
L 101.517769 262.90271 
L 102.258328 264.835569 
L 103.133852 266.640229 
L 104.160109 268.324932 
L 105.354847 269.897406 
L 106.737958 271.364893 
L 108.33163 272.734165 
L 110.16049 274.011555 
L 112.251729 275.202974 
L 114.63519 276.313934 
L 117.343411 277.34957 
L 120.411608 278.314659 
L 123.877571 279.213634 
L 127.781456 280.050609 
L 132.165449 280.829385 
L 137.073265 281.55347 
L 142.549472 282.226088 
L 148.638596 282.85019 
L 162.826541 283.963347 
L 179.943814 284.911396 
L 200.199663 285.708815 
L 223.638455 286.366108 
L 250.067475 286.88967 
L 278.991811 287.281482 
L 309.570185 287.538597 
L 340.604085 287.652395 
L 370.569327 287.607548 
L 397.698196 287.38065 
L 420.124116 286.938455 
L 429.015891 286.623009 
L 436.102559 286.235675 
L 441.233123 285.768473 
L 444.301991 285.212311 
L 445.25676 284.556879 
L 444.102989 283.790534 
L 440.905019 282.900193 
L 435.78245 281.871213 
L 420.469703 279.330347 
L 399.872463 276.015871 
L 388.189785 274.0128 
L 375.89592 271.745651 
L 363.204913 269.187024 
L 350.308644 266.307902 
L 337.374096 263.077927 
L 324.542516 259.465795 
L 311.930031 255.439778 
L 299.629276 250.968416 
L 287.71165 246.021359 
L 276.229889 240.570397 
L 265.220718 234.59066 
L 254.707424 228.061977 
L 244.702242 220.970382 
L 235.20849 213.309702 
L 226.222447 205.083211 
L 217.734949 196.305236 
L 209.73274 187.002689 
L 202.199586 177.216395 
L 195.117179 167.00218 
L 188.465876 156.431605 
L 182.225271 145.592326 
L 176.374651 134.587988 
L 170.893348 123.537651 
L 165.760998 112.574688 
L 160.95774 101.845117 
L 144.66266 64.475164 
L 141.232119 57.343127 
L 138.027316 51.403588 
L 135.033956 46.782259 
L 132.238566 43.577284 
L 129.628468 41.852725 
L 127.191757 41.633595 
L 124.91726 42.903243 
L 122.794511 45.603699 
L 120.813713 49.639074 
L 118.965706 54.881688 
L 117.241934 61.180135 
L 115.634418 68.368276 
L 114.135718 76.274156 
L 112.738915 84.727991 
L 111.437575 93.56867 
L 109.097864 111.83642 
L 107.074052 130.101857 
L 105.330098 147.673952 
L 103.174829 171.839583 
L 101.505756 192.846464 
L 100.27399 210.640993 
L 99.460673 225.476691 
L 99.157033 233.905659 
L 99.060203 241.301833 
L 99.194868 247.778483 
L 99.597746 253.441434 
L 100.320241 258.387388 
L 100.822221 260.619074 
L 101.431736 262.703411 
L 102.160917 264.649803 
L 103.023546 266.467093 
L 104.035213 268.163587 
L 105.213475 269.747073 
L 106.578015 271.224843 
L 108.150801 272.603726 
L 109.956228 273.890099 
L 112.021244 275.089919 
L 114.375446 276.208742 
L 117.051129 277.251743 
L 120.083275 278.223734 
L 123.509459 279.129189 
L 127.369657 279.972252 
L 131.705919 280.75676 
L 136.561895 281.48625 
L 141.982175 282.163979 
L 148.011421 282.792927 
L 162.069022 283.915097 
L 179.045783 284.87145 
L 199.158831 285.676697 
L 222.464519 286.341593 
L 248.786281 286.872807 
L 277.648871 287.272632 
L 308.232706 287.538487 
L 339.36079 287.662191 
L 369.52734 287.628954 
L 396.97603 287.416031 
L 419.839435 286.990992 
L 428.988941 286.685623 
L 436.353835 286.309558 
L 441.777179 285.854976 
L 445.146158 285.312965 
L 446.400221 284.673407 
L 445.536388 283.924875 
L 442.610696 283.054514 
L 437.73533 282.047928 
L 422.819609 279.560158 
L 402.471232 276.311747 
L 390.857394 274.347297 
L 378.598252 272.122873 
L 365.911284 269.611332 
L 352.992332 266.783879 
L 340.012552 263.610325 
L 327.117316 260.059456 
L 314.426649 256.099544 
L 302.036732 251.698997 
L 290.022098 246.827187 
L 278.438176 241.455441 
L 267.323956 235.558218 
L 256.704587 229.114442 
L 246.593797 222.10898 
L 236.996081 214.534231 
L 227.908614 206.391759 
L 219.322899 197.693923 
L 211.226154 188.465415 
L 203.60246 178.744633 
L 196.433699 168.584806 
L 189.700318 158.054801 
L 183.381923 147.239535 
L 177.457755 136.239961 
L 171.907053 125.172573 
L 166.70933 114.168396 
L 161.844579 103.37143 
L 145.338961 65.448284 
L 141.863771 58.10844 
L 138.617165 51.937519 
L 135.58468 47.065547 
L 132.752683 43.596262 
L 130.108343 41.600408 
L 127.639605 41.110409 
L 125.335157 42.117269 
L 123.184397 44.570338 
L 121.177402 48.380163 
L 119.304891 53.424168 
L 117.558196 59.554438 
L 115.929227 66.606635 
L 114.410445 74.409001 
L 112.994831 82.790584 
L 111.675861 91.588048 
L 109.304086 109.844259 
L 107.251929 128.17504 
L 105.482751 145.862803 
L 103.294259 170.249502 
L 101.595864 191.491137 
L 100.336791 209.50672 
L 99.496081 224.538059 
L 99.172906 233.08166 
L 99.054478 240.58006 
L 99.16438 247.147272 
L 99.537985 252.89008 
L 100.225049 257.906223 
L 100.70639 260.169705 
L 101.292937 262.283804 
L 101.996498 264.258048 
L 102.830503 266.101397 
L 103.810158 267.822266 
L 104.952601 269.428551 
L 106.277064 270.927646 
L 107.805032 272.326474 
L 109.560389 273.631505 
L 111.56955 274.848783 
L 113.86156 275.983945 
L 116.468161 277.042243 
L 119.423785 278.028564 
L 122.765491 278.94745 
L 126.532785 279.803114 
L 130.76733 280.599455 
L 135.512503 281.340071 
L 140.812773 282.028277 
L 146.712886 282.667111 
L 160.486463 283.807492 
L 177.150863 284.780326 
L 196.936112 285.60074 
L 219.918869 286.279909 
L 245.950382 286.824947 
L 274.589431 287.238632 
L 305.053956 287.518932 
L 351.587103 287.671063 
L 380.916114 287.570397 
L 406.79443 287.278639 
L 427.365043 286.758995 
L 435.128725 286.398785 
L 440.98034 285.961848 
L 444.796826 285.439515 
L 446.505841 284.821939 
L 446.091781 284.097985 
L 443.598126 283.255115 
L 439.1255 282.279278 
L 432.825491 281.154794 
L 393.571436 274.794639 
L 381.425049 272.628701 
L 368.805659 270.181666 
L 355.914173 267.425074 
L 342.927282 264.329009 
L 329.995971 260.862438 
L 317.245667 256.993688 
L 304.777552 252.691069 
L 292.670633 247.923658 
L 280.984245 242.662257 
L 269.760703 236.880529 
L 259.027928 230.556296 
L 248.801911 223.672993 
L 239.088961 216.221234 
L 229.887673 208.200438 
L 221.190639 199.620468 
L 212.985882 190.503196 
L 205.258062 180.883918 
L 197.989454 170.81254 
L 191.160747 160.354459 
L 184.75167 149.591066 
L 178.741499 138.61983 
L 173.109435 127.553908 
L 167.834902 116.521259 
L 162.897765 105.663201 
L 153.958237 85.090133 
L 146.143503 67.138046 
L 142.615447 59.558494 
L 139.319311 53.116607 
L 136.240443 47.947257 
L 133.365026 44.160605 
L 130.680052 41.835214 
L 128.173296 41.012337 
L 125.833282 41.692257 
L 123.649254 43.83338 
L 121.611141 47.354417 
L 119.70952 52.139478 
L 117.93559 58.045474 
L 116.281136 64.910874 
L 114.738497 72.564775 
L 113.300542 80.835364 
L 111.960639 89.557081 
L 109.550815 107.754146 
L 107.46507 126.122574 
L 105.666062 143.913416 
L 103.438442 168.520805 
L 101.705787 190.008771 
L 100.415189 208.261558 
L 99.543356 223.5053 
L 99.198314 232.174082 
L 99.05599 239.784454 
L 99.138778 246.451071 
L 99.48061 252.281667 
L 100.129475 257.375058 
L 100.588649 259.673553 
L 101.150577 261.820439 
L 101.826722 263.825374 
L 102.630139 265.697443 
L 103.575617 267.445183 
L 104.679848 269.076604 
L 105.961578 270.599213 
L 107.441772 272.020036 
L 109.143763 273.345643 
L 111.093385 274.582172 
L 113.319087 275.73535 
L 115.851999 276.810513 
L 118.725954 277.812632 
L 121.977431 278.746322 
L 125.645406 279.615869 
L 129.771093 280.425242 
L 134.397529 281.178106 
L 139.569006 281.877839 
L 145.33029 282.52754 
L 158.79754 283.68791 
L 175.12322 284.678786 
L 194.550336 285.51574 
L 217.176434 286.210397 
L 242.881761 286.770339 
L 271.260992 287.198853 
L 301.572063 287.494484 
L 348.160806 287.672041 
L 377.764914 287.591162 
L 404.129611 287.322665 
L 425.391086 286.831057 
L 433.566295 286.487137 
L 439.863359 286.068304 
L 444.148852 285.566141 
L 446.338309 284.971077 
L 446.402928 284.272279 
L 444.372825 283.457538 
L 440.336088 282.513154 
L 434.433514 281.423828 
L 417.801003 278.74052 
L 396.260527 275.249576 
L 384.250225 273.143578 
L 371.718353 270.762705 
L 358.87091 268.078865 
L 345.890279 265.062445 
L 332.933318 261.682628 
L 320.13117 257.907838 
L 307.590354 253.706323 
L 295.394698 249.046908 
L 283.607764 243.899909 
L 272.275492 238.238231 
L 261.42884 232.038629 
L 251.086296 225.283129 
L 241.25618 217.960572 
L 231.938674 210.068233 
L 223.127592 201.613464 
L 214.811879 192.615278 
L 206.97686 183.105809 
L 199.605273 173.131556 
L 192.678102 162.754339 
L 186.175246 152.051894 
L 180.076043 141.118054 
L 174.35968 130.062474 
L 169.005507 119.009855 
L 163.993271 108.098636 
L 154.916556 87.310892 
L 146.980782 68.992902 
L 143.39778 61.175157 
L 140.050152 54.461747 
L 136.923057 48.992155 
L 134.002487 44.882797 
L 131.275252 42.219982 
L 128.728952 41.053859 
L 126.351944 41.394219 
L 124.133309 43.208913 
L 122.062824 46.425331 
L 120.130921 50.934869 
L 118.328661 56.599884 
L 116.647696 63.262232 
L 115.080244 70.752358 
L 113.619055 78.897964 
L 112.257385 87.531515 
L 110.988971 96.496131 
L 108.709126 114.867434 
L 106.738187 133.086984 
L 104.286199 158.797875 
L 102.35899 181.606499 
L 100.892031 201.170177 
L 99.849594 217.606401 
L 99.22757 231.240682 
L 99.061203 238.965939 
L 99.11685 245.734647 
L 99.427008 251.655465 
L 100.037918 256.828281 
L 100.475106 259.162786 
L 101.012638 261.343398 
L 101.661638 263.379904 
L 102.434782 265.281521 
L 103.346451 267.056908 
L 104.412889 268.714193 
L 105.652359 270.260996 
L 107.085306 271.704451 
L 108.734509 273.051229 
L 110.625222 274.307566 
L 112.78529 275.47928 
L 115.245226 276.571795 
L 118.038249 277.590162 
L 121.200244 278.539078 
L 124.769635 279.422901 
L 128.787157 280.245672 
L 133.295475 281.011124 
L 138.338656 281.722698 
L 143.961437 282.383557 
L 157.122232 283.564434 
L 173.10751 284.573788 
L 192.172566 285.427644 
L 214.435119 286.138079 
L 239.803856 286.713145 
L 267.909077 287.15664 
L 298.048886 287.467679 
L 344.661376 287.670624 
L 374.517952 287.60939 
L 401.347789 287.363903 
L 423.283326 286.899947 
L 431.864473 286.57207 
L 438.603886 286.171052 
L 443.358163 285.688724 
L 446.030961 285.115789 
L 446.580338 284.441712 
L 445.022879 283.654609 
L 441.433742 282.741131 
L 435.942362 281.686352 
L 419.989691 279.08468 
L 398.911987 275.694943 
L 387.051674 273.647976 
L 374.619794 271.332314 
L 361.82726 268.720246 
L 348.862092 265.782483 
L 335.887051 262.488449 
L 323.039097 258.806693 
L 310.430231 254.705444 
L 298.149261 250.153322 
L 286.264153 245.12021 
L 274.824634 239.578317 
L 263.864858 233.503397 
L 253.405952 226.876141 
L 243.458366 219.68369 
L 234.023978 211.921248 
L 225.097913 203.59372 
L 216.67011 194.717321 
L 208.726622 185.321067 
L 201.250698 175.44808 
L 194.223658 165.15661 
L 187.625597 154.520726 
L 181.43594 143.63059 
L 175.633878 132.592289 
L 170.198701 121.527182 
L 165.110048 110.570714 
L 160.348089 99.870667 
L 147.834595 70.916869 
L 144.195607 62.868041 
L 140.795507 55.88919 
L 137.619258 50.124054 
L 134.652665 45.69496 
L 131.882351 42.695681 
L 129.29574 41.185085 
L 126.881016 41.18243 
L 124.627101 42.665139 
L 122.523613 45.569556 
L 120.560838 49.794772 
L 118.729696 55.209067 
L 117.021707 61.658184 
L 115.428962 68.974383 
L 113.944092 76.985279 
L 113.944092 76.985279 
" style="fill:none;stroke:#ff7f0e;stroke-linecap:square;stroke-width:2;"/>
   </g>
   <g id="line2d_13">
    <path clip-path="url(#p938edb01be)" d="M 91.55017 292.996875 
L 97.950059 272.933523 
L 104.24169 254.876515 
L 108.508879 243.005152 
L 111.202435 235.879734 
L 112.759846 232.127087 
L 113.520116 230.71274 
L 113.7341 230.887886 
L 113.584292 232.118558 
L 112.683149 236.349772 
L 110.339242 246.860357 
L 109.430354 251.871658 
L 108.869069 256.441895 
L 108.733626 260.537351 
L 108.847504 262.411356 
L 109.094498 264.174947 
L 109.484425 265.832977 
L 110.028001 267.390489 
L 110.737 268.852499 
L 111.624381 270.223863 
L 112.704369 271.509201 
L 113.99248 272.712858 
L 115.50551 273.838888 
L 117.261441 274.89105 
L 119.279279 275.872807 
L 121.578801 276.787333 
L 124.180175 277.637512 
L 127.103465 278.425942 
L 130.367967 279.154928 
L 133.991379 279.826481 
L 137.988788 280.442307 
L 147.145411 281.512002 
L 157.855676 282.371034 
L 170.001311 283.020447 
L 183.27483 283.454435 
L 197.139385 283.659203 
L 210.822677 283.611557 
L 223.367088 283.277176 
L 228.8902 282.988202 
L 233.748509 282.608601 
L 237.83269 282.130019 
L 241.052527 281.543001 
L 243.342076 280.836917 
L 244.663346 279.999906 
L 245.008062 279.018831 
L 244.397307 277.879252 
L 242.879116 276.56543 
L 240.524374 275.060369 
L 237.421563 273.345915 
L 219.595947 264.001874 
L 214.30575 260.943898 
L 208.870016 257.559067 
L 203.36631 253.831543 
L 197.861296 249.748938 
L 192.41084 245.303581 
L 187.060553 240.493934 
L 181.846639 235.326106 
L 176.796907 229.815414 
L 171.931845 223.987897 
L 167.265693 217.881684 
L 162.807455 211.548072 
L 158.561828 205.052192 
L 154.53003 198.473085 
L 150.710519 191.903067 
L 143.692015 179.215979 
L 137.459934 167.913998 
L 134.620259 163.080198 
L 131.954021 158.937985 
L 129.452901 155.579947 
L 127.108593 153.078185 
L 124.912908 151.480011 
L 122.857862 150.80523 
L 120.935736 151.045353 
L 119.139125 152.164873 
L 117.460965 154.104416 
L 115.894561 156.785352 
L 114.433596 160.115264 
L 113.072146 163.993648 
L 111.804682 168.317296 
L 110.626071 172.984933 
L 109.531584 177.900885 
L 107.578052 188.137732 
L 105.914263 198.449976 
L 104.516922 208.426072 
L 103.369495 217.803652 
L 102.462636 226.438322 
L 101.794872 234.270863 
L 101.37362 241.298989 
L 101.216581 247.555607 
L 101.353614 253.093297 
L 101.829133 257.973869 
L 102.212407 260.187871 
L 102.705095 262.261677 
L 103.31827 264.203068 
L 104.06458 266.01958 
L 104.958386 267.718463 
L 106.015903 269.306653 
L 107.25534 270.790753 
L 108.697029 272.177026 
L 110.363552 273.471391 
L 112.279825 274.67942 
L 114.473168 275.806349 
L 116.973307 276.857077 
L 119.812321 277.836178 
L 123.024494 278.747906 
L 126.646057 279.596208 
L 130.714791 280.384723 
L 135.269461 281.1168 
L 140.349061 281.795493 
L 145.991824 282.423577 
L 159.108375 283.537596 
L 174.856714 284.475429 
L 193.357323 285.249114 
L 214.541683 285.865971 
L 238.077287 286.328219 
L 263.304529 286.632384 
L 289.204059 286.768444 
L 314.413693 286.718654 
L 337.312193 286.456016 
L 356.183443 285.942338 
L 363.605778 285.575784 
L 369.462148 285.125845 
L 373.629121 284.583463 
L 376.028478 283.938356 
L 376.632537 283.178917 
L 375.466101 282.292101 
L 372.604609 281.263325 
L 368.168619 280.076376 
L 355.228156 277.154463 
L 338.151699 273.361509 
L 328.564818 271.079108 
L 318.532554 268.504507 
L 308.225537 265.609784 
L 297.794524 262.366031 
L 287.369002 258.743826 
L 277.057173 254.713859 
L 266.946947 250.247727 
L 257.107595 245.318905 
L 247.591773 239.903901 
L 238.437708 233.983586 
L 229.671365 227.544692 
L 221.308509 220.581419 
L 213.356575 213.09713 
L 205.81633 205.106049 
L 198.683312 196.634881 
L 191.949051 187.724273 
L 185.602089 178.430015 
L 179.628819 168.823881 
L 174.014166 158.994024 
L 168.742134 149.044853 
L 163.796237 139.096292 
L 159.159833 129.282377 
L 150.749644 110.65141 
L 143.383623 94.403359 
L 140.054425 87.5682 
L 136.942216 81.786767 
L 134.033675 77.182898 
L 131.316169 73.854442 
L 128.777748 71.867069 
L 126.407142 71.249633 
L 124.193738 71.991855 
L 122.127566 74.044764 
L 120.199272 77.323992 
L 118.400094 81.71553 
L 116.721841 87.083228 
L 115.156862 93.277086 
L 113.698027 100.141441 
L 112.338703 107.522279 
L 111.072726 115.273193 
L 108.798419 131.362317 
L 106.83455 147.518088 
L 105.147017 163.106242 
L 103.074194 184.597218 
L 101.491768 203.317531 
L 100.360259 219.197049 
L 99.673271 232.448764 
L 99.476558 239.98216 
L 99.512418 246.594785 
L 99.813931 252.38685 
L 100.428342 257.452216 
L 100.872275 259.739566 
L 101.420179 261.876798 
L 102.083438 263.873324 
L 102.875025 265.738026 
L 103.809649 267.479274 
L 104.90391 269.104936 
L 106.176458 270.6224 
L 107.648146 272.038592 
L 109.342177 273.359996 
L 111.284234 274.592673 
L 113.502579 275.742285 
L 116.028117 276.814109 
L 118.894402 277.813059 
L 122.137566 278.743702 
L 125.796153 279.610276 
L 129.91084 280.416703 
L 134.523995 281.166601 
L 139.679078 281.863302 
L 145.419828 282.509855 
L 158.828247 283.663376 
L 175.059394 284.646278 
L 194.336358 285.473586 
L 216.729055 286.15625 
L 242.081258 286.701005 
L 269.942179 287.110064 
L 299.516953 287.380598 
L 329.649906 287.503986 
L 358.851796 287.46476 
L 385.380861 287.239228 
L 407.389766 286.793686 
L 416.146684 286.474605 
L 423.150165 286.082201 
L 428.250997 285.608379 
L 431.345071 285.043921 
L 432.380909 284.378376 
L 431.364146 283.599949 
L 428.358082 282.69539 
L 423.479981 281.649881 
L 408.797918 279.068289 
L 388.982923 275.701638 
L 377.731645 273.667765 
L 365.886818 271.366498 
L 353.655893 268.770361 
L 341.22469 265.85033 
L 328.754813 262.576134 
L 316.382889 258.916669 
L 304.221209 254.840566 
L 292.359323 250.316902 
L 280.866246 245.316097 
L 269.792956 239.810975 
L 259.174965 233.778006 
L 249.034809 227.19871 
L 239.384349 220.061186 
L 230.226844 212.36174 
L 221.558753 204.106533 
L 213.371284 195.313208 
L 205.651693 186.01238 
L 198.384359 176.248944 
L 191.551659 166.083083 
L 185.134677 155.590934 
L 179.113758 144.864827 
L 173.468951 134.013046 
L 168.180341 123.159092 
L 163.228308 112.440368 
L 154.258029 92.015566 
L 146.412928 74.02537 
L 142.870234 66.355681 
L 139.559951 59.777762 
L 136.467489 54.429086 
L 133.579068 50.423647 
L 130.881701 47.845024 
L 128.363172 46.740519 
L 126.012005 47.117222 
L 123.817436 48.940742 
L 121.76938 52.13696 
L 119.858399 56.596718 
L 118.075674 62.182864 
L 116.41297 68.738773 
L 114.862605 76.097303 
L 113.417428 84.089259 
L 112.070788 92.550654 
L 109.648869 110.284015 
L 107.552759 128.261969 
L 105.745007 145.727526 
L 103.507161 169.947214 
L 101.767697 191.139739 
L 100.4739 209.164458 
L 99.603011 224.22974 
L 99.261371 232.800832 
L 99.125163 240.327281 
L 99.217376 246.921579 
L 99.572719 252.6897 
L 100.240183 257.729012 
L 100.710949 260.003231 
L 101.286239 262.127505 
L 101.977723 264.111368 
L 102.798682 265.963795 
L 103.764159 267.693218 
L 104.891113 269.307552 
L 106.198588 270.814214 
L 107.707862 272.220146 
L 109.442597 273.531842 
L 111.428975 274.755367 
L 113.695796 275.89638 
L 116.274543 276.960153 
L 119.199389 277.951595 
L 122.507124 278.875266 
L 126.236995 279.735397 
L 130.430414 280.535904 
L 135.130528 281.280403 
L 140.381604 281.972222 
L 146.228228 282.614413 
L 159.881579 283.760792 
L 176.408202 284.738739 
L 196.03948 285.563451 
L 218.85496 286.246149 
L 244.710163 286.793974 
L 273.169044 287.209706 
L 303.454855 287.49129 
L 334.432395 287.631135 
L 364.631442 287.615127 
L 392.319495 287.42132 
L 415.634979 287.018242 
L 425.085461 286.725273 
L 432.795013 286.36277 
L 438.599511 285.923096 
L 442.377114 285.397537 
L 444.056772 284.776197 
L 443.624122 284.047886 
L 441.123703 283.200008 
L 436.656883 282.218445 
L 430.375582 281.087452 
L 391.316196 274.691995 
L 379.242845 272.514565 
L 366.703196 270.054849 
L 353.89652 267.284349 
L 340.99794 264.173129 
L 328.157003 260.690162 
L 315.497862 256.803823 
L 303.1206 252.482509 
L 291.103314 247.695444 
L 279.5046 242.413644 
L 268.366198 236.611062 
L 257.715595 230.265902 
L 247.568477 223.362077 
L 237.93095 215.890784 
L 228.801494 207.852136 
L 220.172654 199.256802 
L 212.032467 190.127563 
L 204.365645 180.500723 
L 197.154553 170.427278 
L 190.379987 159.973775 
L 184.021809 149.222793 
L 178.059432 138.272994 
L 172.472204 127.238695 
L 167.239697 116.248936 
L 162.341924 105.445991 
L 153.473733 85.022591 
L 145.721415 67.274116 
L 142.221555 59.815365 
L 138.951771 53.505074 
L 135.897531 48.475825 
L 133.045126 44.83478 
L 130.381656 42.656873 
L 127.894992 41.979295 
L 125.573754 42.7981 
L 123.407273 45.067628 
L 121.385561 48.702999 
L 119.499274 53.585492 
L 117.739685 59.57011 
L 116.098647 66.494406 
L 114.568568 74.187506 
L 113.142376 82.478439 
L 111.8135 91.203118 
L 109.423743 109.361829 
L 107.355761 127.647469 
L 105.572601 145.327832 
L 103.365962 169.746809 
L 101.652011 191.045809 
L 100.379101 209.125374 
L 99.525369 224.217987 
L 99.193471 232.798857 
L 99.065883 240.331126 
L 99.165779 246.928744 
L 99.528042 252.698619 
L 100.201838 257.738718 
L 100.675605 260.013094 
L 101.253815 262.137414 
L 101.948165 264.12124 
L 102.77196 265.973567 
L 103.74027 267.702846 
L 104.870087 269.317005 
L 106.180483 270.823472 
L 107.692772 272.229199 
L 109.430658 273.540689 
L 111.420365 274.76401 
L 113.690741 275.904829 
L 116.273326 276.968422 
L 119.202353 277.959702 
L 122.514686 278.883233 
L 126.249651 279.74325 
L 130.448756 280.543673 
L 135.155253 281.288121 
L 140.413537 281.979927 
L 146.268337 282.622147 
L 159.941657 283.76873 
L 176.494565 284.747117 
L 196.160801 285.572563 
L 219.023072 286.256369 
L 244.941031 286.805777 
L 273.4838 287.223699 
L 303.880725 287.508255 
L 350.390508 287.667175 
L 379.769112 287.571606 
L 405.754939 287.285693 
L 426.48947 286.772954 
L 434.353646 286.41671 
L 440.315586 285.984151 
L 444.249649 285.466668 
L 446.080477 284.85448 
L 445.789176 284.136522 
L 443.415888 283.300336 
L 439.058088 282.331953 
L 432.86463 281.215782 
L 393.921202 274.89942 
L 381.821138 272.747575 
L 369.236475 270.316089 
L 356.369221 267.576594 
L 343.397319 264.499247 
L 330.47307 261.053071 
L 317.723192 257.20642 
L 305.250086 252.927601 
L 293.133866 248.185639 
L 281.434849 242.951238 
L 270.196196 237.197899 
L 259.446544 230.903215 
L 249.202481 224.050318 
L 239.4708 216.629438 
L 230.250489 208.639531 
L 221.534443 200.089918 
L 213.310925 191.001855 
L 205.564773 181.409958 
L 198.278394 171.363404 
L 191.432567 160.926829 
L 185.007087 150.180851 
L 178.981263 139.222172 
L 173.334317 128.16322 
L 168.045676 117.131274 
L 163.095194 106.267061 
L 154.131204 85.65931 
L 146.294809 67.641324 
L 142.756899 60.017397 
L 139.451517 53.524199 
L 136.363982 48.2975 
L 133.480443 44.448675 
L 130.787863 42.057787 
L 128.273985 41.167807 
L 125.927304 41.78085 
L 123.737038 43.857147 
L 121.693086 47.317084 
L 119.786003 52.046187 
L 118.006961 57.902435 
L 116.347723 64.724979 
L 114.800607 72.343218 
L 113.358459 80.585297 
L 112.014629 89.285333 
L 109.597671 107.457276 
L 107.50564 125.820191 
L 105.701065 143.619315 
L 103.466185 168.254188 
L 101.727243 189.777197 
L 100.430963 208.065532 
L 99.553655 223.341932 
L 99.105232 235.96941 
L 99.067766 243.110521 
L 99.270223 249.360925 
L 99.752954 254.824185 
L 100.116182 257.290449 
L 100.571815 259.594492 
L 101.129825 261.746578 
L 101.801623 263.756382 
L 102.600201 265.63301 
L 103.540287 267.385018 
L 104.638498 269.020433 
L 105.913507 270.546779 
L 107.386196 271.971098 
L 109.079808 273.299976 
L 111.020088 274.539567 
L 113.235387 275.695609 
L 115.75674 276.773454 
L 118.617881 277.778084 
L 121.855196 278.714127 
L 125.507573 279.58588 
L 129.616151 280.397322 
L 134.223908 281.15213 
L 139.375099 281.853691 
L 145.114485 282.505113 
L 158.53328 283.668643 
L 174.805108 284.66236 
L 194.174868 285.501905 
L 216.743199 286.198971 
L 242.394696 286.761209 
L 270.729446 287.191982 
L 301.01145 287.489919 
L 347.598649 287.671237 
L 377.237087 287.593243 
L 403.66778 287.328104 
L 425.026267 286.84051 
L 433.260196 286.498912 
L 439.621379 286.082654 
L 443.974926 285.583352 
L 446.234639 284.991477 
L 446.369809 284.296239 
L 444.408594 283.485473 
L 440.437223 282.545531 
L 434.594864 281.461167 
L 418.06258 278.789574 
L 396.591559 275.31314 
L 384.604447 273.2156 
L 372.088675 270.844067 
L 359.250935 268.170504 
L 346.274401 265.165343 
L 333.316759 261.797801 
L 320.509969 258.036318 
L 307.961318 253.849142 
L 295.755331 249.205066 
L 283.956189 244.074345 
L 272.610361 238.429784 
L 261.749253 232.247996 
L 251.391727 225.510819 
L 241.546401 218.206852 
L 232.213697 210.333079 
L 223.387615 201.896508 
L 215.057241 192.91576 
L 207.208006 183.422531 
L 199.822722 173.462852 
L 192.882422 163.098045 
L 186.367037 152.405339 
L 180.255918 141.47806 
L 174.528257 130.425373 
L 169.163399 119.37152 
L 164.141077 108.454536 
L 155.045915 87.640399 
L 147.093845 69.275142 
L 143.50344 61.426072 
L 140.148874 54.676643 
L 137.015276 49.166933 
L 134.088617 45.014174 
L 131.355683 42.3057 
L 128.804048 41.092851 
L 126.422048 41.3867 
L 124.198744 43.15639 
L 122.12389 46.330512 
L 120.1879 50.801486 
L 118.381817 56.432453 
L 116.697274 63.065777 
L 115.126473 70.532133 
L 113.662148 78.659202 
L 112.297541 87.279219 
L 111.026374 96.234916 
L 108.741522 114.600215 
L 106.766158 132.825877 
L 104.30842 158.55979 
L 102.376268 181.398865 
L 100.90489 200.993962 
L 99.85826 217.459319 
L 99.23193 231.119158 
L 99.062429 238.859323 
L 99.114558 245.641297 
L 99.42063 251.573849 
L 100.026663 256.757001 
L 100.461032 259.096195 
L 100.99544 261.281198 
L 101.640967 263.321816 
L 102.410241 265.227282 
L 103.317591 267.00627 
L 104.379202 268.666925 
L 105.613277 270.21688 
L 107.040193 271.663283 
L 108.682659 273.01282 
L 110.565854 274.271738 
L 112.717543 275.445867 
L 115.168162 276.540643 
L 117.950849 277.561127 
L 121.10141 278.512026 
L 124.6582 279.397709 
L 128.661887 280.222224 
L 133.155086 280.989315 
L 138.181832 281.70243 
L 143.786854 282.364741 
L 156.908286 283.548283 
L 172.849714 284.560037 
L 191.867944 285.416083 
L 214.083217 286.128557 
L 239.407803 286.705572 
L 267.476523 287.150988 
L 297.59261 287.463995 
L 344.204802 287.670164 
L 374.091155 287.611411 
L 400.977904 287.368821 
L 422.997243 286.908336 
L 431.629264 286.582471 
L 438.424374 286.183683 
L 443.237938 285.703838 
L 445.972131 285.133672 
L 446.583353 284.462687 
L 445.086467 283.679039 
L 441.554968 282.769424 
L 436.11681 281.718964 
L 420.252906 279.127497 
L 399.236618 275.750416 
L 387.39664 273.710835 
L 374.978677 271.403335 
L 362.194246 268.800256 
L 349.23207 265.87235 
L 336.255654 262.589072 
L 323.4027 258.918992 
L 310.785908 254.830338 
L 298.494728 250.291708 
L 286.597691 245.272935 
L 275.145017 239.746144 
L 264.171275 233.686969 
L 253.697933 227.075937 
L 243.735724 219.899983 
L 234.286746 212.154054 
L 225.346297 203.842753 
L 216.904448 194.981946 
L 208.947349 185.600262 
L 201.458317 175.7404 
L 194.418718 165.460163 
L 187.808676 154.833157 
L 181.607628 143.94908 
L 175.794769 132.91357 
L 170.349382 121.847557 
L 165.251093 110.886101 
L 160.480056 100.176662 
L 144.296405 63.089114 
L 140.889681 56.077516 
L 137.707226 50.275754 
L 134.73482 45.80687 
L 131.959066 42.765553 
L 129.367364 41.211745 
L 126.947877 41.165886 
L 124.689505 42.606604 
L 122.581848 45.471385 
L 120.615174 49.660309 
L 118.780384 55.042433 
L 117.068982 61.464026 
L 115.473042 68.757608 
L 113.985181 76.750815 
L 112.598527 85.274255 
L 111.306696 94.167842 
L 108.984259 112.497443 
L 106.975674 130.778101 
L 105.245215 148.333017 
L 103.10756 172.43782 
L 101.45376 193.366324 
L 100.235836 211.08116 
L 99.435893 225.843596 
L 99.141457 234.228836 
L 99.054514 241.585642 
L 99.20022 248.027182 
L 99.615858 253.659022 
L 100.35352 258.577533 
L 100.864243 260.796762 
L 101.48343 262.869425 
L 102.223344 264.804882 
L 103.097914 266.611933 
L 104.122889 268.298842 
L 105.315997 269.873357 
L 106.697107 271.342734 
L 108.288385 272.713762 
L 110.114435 273.992785 
L 112.202425 275.185728 
L 114.58218 276.298113 
L 117.286221 277.335086 
L 120.349755 278.301433 
L 123.810573 279.201597 
L 127.708843 280.0397 
L 132.086779 280.819552 
L 136.988148 281.544669 
L 142.457596 282.218283 
L 148.539763 282.843355 
L 162.71387 283.958403 
L 179.819064 284.908343 
L 200.067536 285.707731 
L 223.507863 286.367167 
L 249.952905 286.89316 
L 278.914587 287.287828 
L 325.15425 287.626015 
L 355.986628 287.667649 
L 384.935827 287.541294 
L 410.163673 287.219255 
L 429.826305 286.66305 
L 437.054659 286.281575 
L 442.330607 285.820995 
L 445.544905 285.272312 
L 446.64108 284.625321 
L 445.620489 283.868494 
L 442.543468 282.98887 
L 437.526139 281.97194 
L 422.366958 279.459741 
L 401.840937 276.181029 
L 390.164078 274.198884 
L 377.858221 271.954888 
L 365.139524 269.421771 
L 352.202201 266.570627 
L 339.215623 263.371175 
L 326.323354 259.792143 
L 313.64367 255.801783 
L 301.271138 251.368534 
L 289.278839 246.461864 
L 277.720935 241.053271 
L 266.635333 235.117472 
L 256.046277 228.633749 
L 245.966752 221.587433 
L 236.400653 213.971499 
L 227.344684 205.788202 
L 218.78998 197.050699 
L 210.723485 187.784582 
L 203.129075 178.029236 
L 195.988493 167.838941 
L 189.282091 157.283655 
L 182.98942 146.4494 
L 177.089698 135.438211 
L 171.562159 124.367611 
L 166.386334 113.369568 
L 161.542243 102.588891 
L 145.10774 64.841704 
L 141.647694 57.573345 
L 138.415283 51.483499 
L 135.396097 46.70069 
L 132.576554 43.326687 
L 129.943872 41.429862 
L 127.486044 41.039982 
L 125.191804 42.145275 
L 123.050595 44.692405 
L 121.052536 48.589514 
L 119.188385 53.712071 
L 117.449512 59.910764 
L 115.827863 67.020448 
L 114.315933 74.869134 
L 112.906737 83.28613 
L 111.59378 92.108755 
L 109.232932 110.388414 
L 107.19042 128.714411 
L 105.429802 146.378165 
L 103.252524 170.709032 
L 101.563924 191.886431 
L 100.313829 209.839393 
L 99.481934 224.814314 
L 99.164922 233.324566 
L 99.053199 240.793091 
L 99.170679 247.333751 
L 99.553135 253.05309 
L 100.250811 258.048571 
L 100.7383 260.302683 
L 101.331668 262.408008 
L 102.042819 264.374037 
L 102.885286 266.209697 
L 103.874388 267.923371 
L 105.027388 269.522924 
L 106.36365 271.015723 
L 107.904802 272.40866 
L 109.67488 273.70818 
L 111.700456 274.920301 
L 114.01074 276.050636 
L 116.637637 277.104415 
L 116.637637 277.104415 
" style="fill:none;stroke:#2ca02c;stroke-linecap:square;stroke-width:2;"/>
   </g>
   <g id="patch_3">
    <path d="M 73.795625 305.596875 
L 73.795625 28.396875 
" style="fill:none;stroke:#000000;stroke-linecap:square;stroke-linejoin:miter;stroke-width:0.8;"/>
   </g>
   <g id="patch_4">
    <path d="M 464.395625 305.596875 
L 464.395625 28.396875 
" style="fill:none;stroke:#000000;stroke-linecap:square;stroke-linejoin:miter;stroke-width:0.8;"/>
   </g>
   <g id="patch_5">
    <path d="M 73.795625 305.596875 
L 464.395625 305.596875 
" style="fill:none;stroke:#000000;stroke-linecap:square;stroke-linejoin:miter;stroke-width:0.8;"/>
   </g>
   <g id="patch_6">
    <path d="M 73.795625 28.396875 
L 464.395625 28.396875 
" style="fill:none;stroke:#000000;stroke-linecap:square;stroke-linejoin:miter;stroke-width:0.8;"/>
   </g>
   <g id="text_13">
    <!-- Timecourse after post-processing -->
    <g transform="translate(79.3175 22.396875)scale(0.2 -0.2)">
     <defs>
      <path d="M 0.484375 72.90625 
L 67.671875 72.90625 
L 67.671875 58.6875 
L 43.5 58.6875 
L 43.5 0 
L 24.703125 0 
L 24.703125 58.6875 
L 0.484375 58.6875 
z
" id="DejaVuSans-Bold-84"/>
      <path d="M 8.40625 54.6875 
L 25.875 54.6875 
L 25.875 0 
L 8.40625 0 
z
M 8.40625 75.984375 
L 25.875 75.984375 
L 25.875 61.71875 
L 8.40625 61.71875 
z
" id="DejaVuSans-Bold-105"/>
      <path d="M 59.078125 45.609375 
Q 62.40625 50.6875 66.96875 53.34375 
Q 71.53125 56 77 56 
Q 86.421875 56 91.359375 50.1875 
Q 96.296875 44.390625 96.296875 33.296875 
L 96.296875 0 
L 78.71875 0 
L 78.71875 28.515625 
Q 78.765625 29.15625 78.78125 29.828125 
Q 78.8125 30.515625 78.8125 31.78125 
Q 78.8125 37.59375 77.09375 40.203125 
Q 75.390625 42.828125 71.578125 42.828125 
Q 66.609375 42.828125 63.890625 38.71875 
Q 61.1875 34.625 61.078125 26.859375 
L 61.078125 0 
L 43.5 0 
L 43.5 28.515625 
Q 43.5 37.59375 41.9375 40.203125 
Q 40.375 42.828125 36.375 42.828125 
Q 31.34375 42.828125 28.609375 38.703125 
Q 25.875 34.578125 25.875 26.90625 
L 25.875 0 
L 8.296875 0 
L 8.296875 54.6875 
L 25.875 54.6875 
L 25.875 46.6875 
Q 29.109375 51.3125 33.28125 53.65625 
Q 37.453125 56 42.484375 56 
Q 48.140625 56 52.484375 53.265625 
Q 56.84375 50.53125 59.078125 45.609375 
z
" id="DejaVuSans-Bold-109"/>
      <path d="M 52.59375 52.984375 
L 52.59375 38.71875 
Q 49.03125 41.15625 45.4375 42.328125 
Q 41.84375 43.5 37.984375 43.5 
Q 30.671875 43.5 26.59375 39.234375 
Q 22.515625 34.96875 22.515625 27.296875 
Q 22.515625 19.625 26.59375 15.34375 
Q 30.671875 11.078125 37.984375 11.078125 
Q 42.09375 11.078125 45.78125 12.296875 
Q 49.46875 13.53125 52.59375 15.921875 
L 52.59375 1.609375 
Q 48.484375 0.09375 44.265625 -0.65625 
Q 40.046875 -1.421875 35.796875 -1.421875 
Q 21 -1.421875 12.640625 6.171875 
Q 4.296875 13.765625 4.296875 27.296875 
Q 4.296875 40.828125 12.640625 48.40625 
Q 21 56 35.796875 56 
Q 40.09375 56 44.265625 55.25 
Q 48.4375 54.5 52.59375 52.984375 
z
" id="DejaVuSans-Bold-99"/>
      <path d="M 7.8125 21.296875 
L 7.8125 54.6875 
L 25.390625 54.6875 
L 25.390625 49.21875 
Q 25.390625 44.78125 25.34375 38.0625 
Q 25.296875 31.34375 25.296875 29.109375 
Q 25.296875 22.515625 25.640625 19.609375 
Q 25.984375 16.703125 26.8125 15.375 
Q 27.875 13.671875 29.609375 12.734375 
Q 31.34375 11.8125 33.59375 11.8125 
Q 39.0625 11.8125 42.1875 16.015625 
Q 45.3125 20.21875 45.3125 27.6875 
L 45.3125 54.6875 
L 62.796875 54.6875 
L 62.796875 0 
L 45.3125 0 
L 45.3125 7.90625 
Q 41.359375 3.125 36.9375 0.84375 
Q 32.515625 -1.421875 27.203125 -1.421875 
Q 17.71875 -1.421875 12.765625 4.390625 
Q 7.8125 10.203125 7.8125 21.296875 
z
" id="DejaVuSans-Bold-117"/>
      <path d="M 49.03125 39.796875 
Q 46.734375 40.875 44.453125 41.375 
Q 42.1875 41.890625 39.890625 41.890625 
Q 33.15625 41.890625 29.515625 37.5625 
Q 25.875 33.25 25.875 25.203125 
L 25.875 0 
L 8.40625 0 
L 8.40625 54.6875 
L 25.875 54.6875 
L 25.875 45.703125 
Q 29.25 51.078125 33.609375 53.53125 
Q 37.984375 56 44.09375 56 
Q 44.96875 56 45.984375 55.921875 
Q 47.015625 55.859375 48.96875 55.609375 
z
" id="DejaVuSans-Bold-114"/>
      <path d="M 51.125 52.984375 
L 51.125 39.703125 
Q 45.515625 42.046875 40.28125 43.21875 
Q 35.0625 44.390625 30.421875 44.390625 
Q 25.4375 44.390625 23.015625 43.140625 
Q 20.609375 41.890625 20.609375 39.3125 
Q 20.609375 37.203125 22.4375 36.078125 
Q 24.265625 34.96875 29 34.421875 
L 32.078125 33.984375 
Q 45.515625 32.28125 50.140625 28.375 
Q 54.78125 24.46875 54.78125 16.109375 
Q 54.78125 7.375 48.328125 2.96875 
Q 41.890625 -1.421875 29.109375 -1.421875 
Q 23.6875 -1.421875 17.890625 -0.5625 
Q 12.109375 0.296875 6 2 
L 6 15.28125 
Q 11.234375 12.75 16.71875 11.46875 
Q 22.21875 10.203125 27.875 10.203125 
Q 33.015625 10.203125 35.59375 11.609375 
Q 38.1875 13.03125 38.1875 15.828125 
Q 38.1875 18.171875 36.40625 19.3125 
Q 34.625 20.453125 29.296875 21.09375 
L 26.21875 21.484375 
Q 14.546875 22.953125 9.859375 26.90625 
Q 5.171875 30.859375 5.171875 38.921875 
Q 5.171875 47.609375 11.125 51.796875 
Q 17.09375 56 29.390625 56 
Q 34.234375 56 39.546875 55.265625 
Q 44.875 54.546875 51.125 52.984375 
z
" id="DejaVuSans-Bold-115"/>
      <path d="M 32.90625 24.609375 
Q 27.4375 24.609375 24.671875 22.75 
Q 21.921875 20.90625 21.921875 17.28125 
Q 21.921875 13.96875 24.140625 12.078125 
Q 26.375 10.203125 30.328125 10.203125 
Q 35.25 10.203125 38.625 13.734375 
Q 42 17.28125 42 22.609375 
L 42 24.609375 
z
M 59.625 31.203125 
L 59.625 0 
L 42 0 
L 42 8.109375 
Q 38.484375 3.125 34.078125 0.84375 
Q 29.6875 -1.421875 23.390625 -1.421875 
Q 14.890625 -1.421875 9.59375 3.53125 
Q 4.296875 8.5 4.296875 16.40625 
Q 4.296875 26.03125 10.90625 30.515625 
Q 17.53125 35.015625 31.6875 35.015625 
L 42 35.015625 
L 42 36.375 
Q 42 40.53125 38.71875 42.453125 
Q 35.453125 44.390625 28.515625 44.390625 
Q 22.90625 44.390625 18.0625 43.265625 
Q 13.234375 42.140625 9.078125 39.890625 
L 9.078125 53.21875 
Q 14.703125 54.59375 20.359375 55.296875 
Q 26.03125 56 31.6875 56 
Q 46.484375 56 53.046875 50.171875 
Q 59.625 44.34375 59.625 31.203125 
z
" id="DejaVuSans-Bold-97"/>
      <path d="M 44.390625 75.984375 
L 44.390625 64.5 
L 34.71875 64.5 
Q 31 64.5 29.53125 63.15625 
Q 28.078125 61.8125 28.078125 58.5 
L 28.078125 54.6875 
L 43.015625 54.6875 
L 43.015625 42.1875 
L 28.078125 42.1875 
L 28.078125 0 
L 10.59375 0 
L 10.59375 42.1875 
L 1.90625 42.1875 
L 1.90625 54.6875 
L 10.59375 54.6875 
L 10.59375 58.5 
Q 10.59375 67.4375 15.578125 71.703125 
Q 20.5625 75.984375 31 75.984375 
z
" id="DejaVuSans-Bold-102"/>
      <path d="M 27.484375 70.21875 
L 27.484375 54.6875 
L 45.515625 54.6875 
L 45.515625 42.1875 
L 27.484375 42.1875 
L 27.484375 19 
Q 27.484375 15.1875 29 13.84375 
Q 30.515625 12.5 35.015625 12.5 
L 44 12.5 
L 44 0 
L 29 0 
Q 18.65625 0 14.328125 4.3125 
Q 10.015625 8.640625 10.015625 19 
L 10.015625 42.1875 
L 1.3125 42.1875 
L 1.3125 54.6875 
L 10.015625 54.6875 
L 10.015625 70.21875 
z
" id="DejaVuSans-Bold-116"/>
      <path d="M 25.875 7.90625 
L 25.875 -20.796875 
L 8.40625 -20.796875 
L 8.40625 54.6875 
L 25.875 54.6875 
L 25.875 46.6875 
Q 29.5 51.46875 33.890625 53.734375 
Q 38.28125 56 44 56 
Q 54.109375 56 60.59375 47.96875 
Q 67.09375 39.9375 67.09375 27.296875 
Q 67.09375 14.65625 60.59375 6.609375 
Q 54.109375 -1.421875 44 -1.421875 
Q 38.28125 -1.421875 33.890625 0.84375 
Q 29.5 3.125 25.875 7.90625 
z
M 37.5 43.3125 
Q 31.890625 43.3125 28.875 39.1875 
Q 25.875 35.0625 25.875 27.296875 
Q 25.875 19.53125 28.875 15.40625 
Q 31.890625 11.28125 37.5 11.28125 
Q 43.109375 11.28125 46.0625 15.375 
Q 49.03125 19.484375 49.03125 27.296875 
Q 49.03125 35.109375 46.0625 39.203125 
Q 43.109375 43.3125 37.5 43.3125 
z
" id="DejaVuSans-Bold-112"/>
      <path d="M 5.421875 35.890625 
L 36.078125 35.890625 
L 36.078125 21.6875 
L 5.421875 21.6875 
z
" id="DejaVuSans-Bold-45"/>
      <path d="M 45.609375 9.28125 
Q 42 4.5 37.640625 2.25 
Q 33.296875 0 27.59375 0 
Q 17.578125 0 11.03125 7.875 
Q 4.5 15.765625 4.5 27.984375 
Q 4.5 40.234375 11.03125 48.0625 
Q 17.578125 55.90625 27.59375 55.90625 
Q 33.296875 55.90625 37.640625 53.65625 
Q 42 51.421875 45.609375 46.578125 
L 45.609375 54.6875 
L 63.1875 54.6875 
L 63.1875 5.515625 
Q 63.1875 -7.671875 54.859375 -14.625 
Q 46.53125 -21.578125 30.71875 -21.578125 
Q 25.59375 -21.578125 20.796875 -20.796875 
Q 16.015625 -20.015625 11.1875 -18.40625 
L 11.1875 -4.78125 
Q 15.765625 -7.421875 20.15625 -8.71875 
Q 24.5625 -10.015625 29 -10.015625 
Q 37.59375 -10.015625 41.59375 -6.25 
Q 45.609375 -2.484375 45.609375 5.515625 
z
M 34.078125 43.3125 
Q 28.65625 43.3125 25.625 39.296875 
Q 22.609375 35.296875 22.609375 27.984375 
Q 22.609375 20.453125 25.53125 16.578125 
Q 28.46875 12.703125 34.078125 12.703125 
Q 39.546875 12.703125 42.578125 16.703125 
Q 45.609375 20.703125 45.609375 27.984375 
Q 45.609375 35.296875 42.578125 39.296875 
Q 39.546875 43.3125 34.078125 43.3125 
z
" id="DejaVuSans-Bold-103"/>
     </defs>
     <use xlink:href="#DejaVuSans-Bold-84"/>
     <use x="68.212891" xlink:href="#DejaVuSans-Bold-105"/>
     <use x="102.490234" xlink:href="#DejaVuSans-Bold-109"/>
     <use x="206.689453" xlink:href="#DejaVuSans-Bold-101"/>
     <use x="274.511719" xlink:href="#DejaVuSans-Bold-99"/>
     <use x="333.789062" xlink:href="#DejaVuSans-Bold-111"/>
     <use x="402.490234" xlink:href="#DejaVuSans-Bold-117"/>
     <use x="473.681641" xlink:href="#DejaVuSans-Bold-114"/>
     <use x="522.998047" xlink:href="#DejaVuSans-Bold-115"/>
     <use x="582.519531" xlink:href="#DejaVuSans-Bold-101"/>
     <use x="650.341797" xlink:href="#DejaVuSans-Bold-32"/>
     <use x="685.15625" xlink:href="#DejaVuSans-Bold-97"/>
     <use x="752.636719" xlink:href="#DejaVuSans-Bold-102"/>
     <use x="796.142578" xlink:href="#DejaVuSans-Bold-116"/>
     <use x="843.945312" xlink:href="#DejaVuSans-Bold-101"/>
     <use x="911.767578" xlink:href="#DejaVuSans-Bold-114"/>
     <use x="961.083984" xlink:href="#DejaVuSans-Bold-32"/>
     <use x="995.898438" xlink:href="#DejaVuSans-Bold-112"/>
     <use x="1067.480469" xlink:href="#DejaVuSans-Bold-111"/>
     <use x="1136.181641" xlink:href="#DejaVuSans-Bold-115"/>
     <use x="1195.703125" xlink:href="#DejaVuSans-Bold-116"/>
     <use x="1243.505859" xlink:href="#DejaVuSans-Bold-45"/>
     <use x="1285.009766" xlink:href="#DejaVuSans-Bold-112"/>
     <use x="1356.591797" xlink:href="#DejaVuSans-Bold-114"/>
     <use x="1405.908203" xlink:href="#DejaVuSans-Bold-111"/>
     <use x="1474.609375" xlink:href="#DejaVuSans-Bold-99"/>
     <use x="1533.886719" xlink:href="#DejaVuSans-Bold-101"/>
     <use x="1601.708984" xlink:href="#DejaVuSans-Bold-115"/>
     <use x="1661.230469" xlink:href="#DejaVuSans-Bold-115"/>
     <use x="1720.751953" xlink:href="#DejaVuSans-Bold-105"/>
     <use x="1755.029297" xlink:href="#DejaVuSans-Bold-110"/>
     <use x="1826.220703" xlink:href="#DejaVuSans-Bold-103"/>
    </g>
   </g>
  </g>
 </g>
 <defs>
  <clipPath id="p938edb01be">
   <rect height="277.2" width="390.6" x="73.795625" y="28.396875"/>
  </clipPath>
 </defs>
</svg>
