<?xml version="1.0" encoding="utf-8" standalone="no"?>
<!DOCTYPE svg PUBLIC "-//W3C//DTD SVG 1.1//EN"
  "http://www.w3.org/Graphics/SVG/1.1/DTD/svg11.dtd">
<!-- Created with matplotlib (https://matplotlib.org/) -->
<svg height="355.734688pt" version="1.1" viewBox="0 0 463.38483 355.734688" width="463.38483pt" xmlns="http://www.w3.org/2000/svg" xmlns:xlink="http://www.w3.org/1999/xlink">
 <metadata>
  <rdf:RDF xmlns:cc="http://creativecommons.org/ns#" xmlns:dc="http://purl.org/dc/elements/1.1/" xmlns:rdf="http://www.w3.org/1999/02/22-rdf-syntax-ns#">
   <cc:Work>
    <dc:type rdf:resource="http://purl.org/dc/dcmitype/StillImage"/>
    <dc:date>2021-03-25T00:41:54.566343</dc:date>
    <dc:format>image/svg+xml</dc:format>
    <dc:creator>
     <cc:Agent>
      <dc:title>Matplotlib v3.3.4, https://matplotlib.org/</dc:title>
     </cc:Agent>
    </dc:creator>
   </cc:Work>
  </rdf:RDF>
 </metadata>
 <defs>
  <style type="text/css">*{stroke-linecap:butt;stroke-linejoin:round;}</style>
 </defs>
 <g id="figure_1">
  <g id="patch_1">
   <path d="M 0 355.734688 
L 463.38483 355.734688 
L 463.38483 0 
L 0 0 
z
" style="fill:#ffffff;"/>
  </g>
  <g id="axes_1">
   <g id="patch_2">
    <path d="M 64.251875 305.596875 
L 454.851875 305.596875 
L 454.851875 28.396875 
L 64.251875 28.396875 
z
" style="fill:#ffffff;"/>
   </g>
   <g id="matplotlib.axis_1">
    <g id="xtick_1">
     <g id="line2d_1">
      <defs>
       <path d="M 0 0 
L 0 3.5 
" id="mfab6fdc6cd" style="stroke:#000000;stroke-width:0.8;"/>
      </defs>
      <g>
       <use style="stroke:#000000;stroke-width:0.8;" x="82.00642" xlink:href="#mfab6fdc6cd" y="305.596875"/>
      </g>
     </g>
     <g id="text_1">
      <!-- 0 -->
      <g transform="translate(77.234545 323.994531)scale(0.15 -0.15)">
       <defs>
        <path d="M 31.78125 66.40625 
Q 24.171875 66.40625 20.328125 58.90625 
Q 16.5 51.421875 16.5 36.375 
Q 16.5 21.390625 20.328125 13.890625 
Q 24.171875 6.390625 31.78125 6.390625 
Q 39.453125 6.390625 43.28125 13.890625 
Q 47.125 21.390625 47.125 36.375 
Q 47.125 51.421875 43.28125 58.90625 
Q 39.453125 66.40625 31.78125 66.40625 
z
M 31.78125 74.21875 
Q 44.046875 74.21875 50.515625 64.515625 
Q 56.984375 54.828125 56.984375 36.375 
Q 56.984375 17.96875 50.515625 8.265625 
Q 44.046875 -1.421875 31.78125 -1.421875 
Q 19.53125 -1.421875 13.0625 8.265625 
Q 6.59375 17.96875 6.59375 36.375 
Q 6.59375 54.828125 13.0625 64.515625 
Q 19.53125 74.21875 31.78125 74.21875 
z
" id="DejaVuSans-48"/>
       </defs>
       <use xlink:href="#DejaVuSans-48"/>
      </g>
     </g>
    </g>
    <g id="xtick_2">
     <g id="line2d_2">
      <g>
       <use style="stroke:#000000;stroke-width:0.8;" x="153.024602" xlink:href="#mfab6fdc6cd" y="305.596875"/>
      </g>
     </g>
     <g id="text_2">
      <!-- 200 -->
      <g transform="translate(138.708977 323.994531)scale(0.15 -0.15)">
       <defs>
        <path d="M 19.1875 8.296875 
L 53.609375 8.296875 
L 53.609375 0 
L 7.328125 0 
L 7.328125 8.296875 
Q 12.9375 14.109375 22.625 23.890625 
Q 32.328125 33.6875 34.8125 36.53125 
Q 39.546875 41.84375 41.421875 45.53125 
Q 43.3125 49.21875 43.3125 52.78125 
Q 43.3125 58.59375 39.234375 62.25 
Q 35.15625 65.921875 28.609375 65.921875 
Q 23.96875 65.921875 18.8125 64.3125 
Q 13.671875 62.703125 7.8125 59.421875 
L 7.8125 69.390625 
Q 13.765625 71.78125 18.9375 73 
Q 24.125 74.21875 28.421875 74.21875 
Q 39.75 74.21875 46.484375 68.546875 
Q 53.21875 62.890625 53.21875 53.421875 
Q 53.21875 48.921875 51.53125 44.890625 
Q 49.859375 40.875 45.40625 35.40625 
Q 44.1875 33.984375 37.640625 27.21875 
Q 31.109375 20.453125 19.1875 8.296875 
z
" id="DejaVuSans-50"/>
       </defs>
       <use xlink:href="#DejaVuSans-50"/>
       <use x="63.623047" xlink:href="#DejaVuSans-48"/>
       <use x="127.246094" xlink:href="#DejaVuSans-48"/>
      </g>
     </g>
    </g>
    <g id="xtick_3">
     <g id="line2d_3">
      <g>
       <use style="stroke:#000000;stroke-width:0.8;" x="224.042784" xlink:href="#mfab6fdc6cd" y="305.596875"/>
      </g>
     </g>
     <g id="text_3">
      <!-- 400 -->
      <g transform="translate(209.727159 323.994531)scale(0.15 -0.15)">
       <defs>
        <path d="M 37.796875 64.3125 
L 12.890625 25.390625 
L 37.796875 25.390625 
z
M 35.203125 72.90625 
L 47.609375 72.90625 
L 47.609375 25.390625 
L 58.015625 25.390625 
L 58.015625 17.1875 
L 47.609375 17.1875 
L 47.609375 0 
L 37.796875 0 
L 37.796875 17.1875 
L 4.890625 17.1875 
L 4.890625 26.703125 
z
" id="DejaVuSans-52"/>
       </defs>
       <use xlink:href="#DejaVuSans-52"/>
       <use x="63.623047" xlink:href="#DejaVuSans-48"/>
       <use x="127.246094" xlink:href="#DejaVuSans-48"/>
      </g>
     </g>
    </g>
    <g id="xtick_4">
     <g id="line2d_4">
      <g>
       <use style="stroke:#000000;stroke-width:0.8;" x="295.060966" xlink:href="#mfab6fdc6cd" y="305.596875"/>
      </g>
     </g>
     <g id="text_4">
      <!-- 600 -->
      <g transform="translate(280.745341 323.994531)scale(0.15 -0.15)">
       <defs>
        <path d="M 33.015625 40.375 
Q 26.375 40.375 22.484375 35.828125 
Q 18.609375 31.296875 18.609375 23.390625 
Q 18.609375 15.53125 22.484375 10.953125 
Q 26.375 6.390625 33.015625 6.390625 
Q 39.65625 6.390625 43.53125 10.953125 
Q 47.40625 15.53125 47.40625 23.390625 
Q 47.40625 31.296875 43.53125 35.828125 
Q 39.65625 40.375 33.015625 40.375 
z
M 52.59375 71.296875 
L 52.59375 62.3125 
Q 48.875 64.0625 45.09375 64.984375 
Q 41.3125 65.921875 37.59375 65.921875 
Q 27.828125 65.921875 22.671875 59.328125 
Q 17.53125 52.734375 16.796875 39.40625 
Q 19.671875 43.65625 24.015625 45.921875 
Q 28.375 48.1875 33.59375 48.1875 
Q 44.578125 48.1875 50.953125 41.515625 
Q 57.328125 34.859375 57.328125 23.390625 
Q 57.328125 12.15625 50.6875 5.359375 
Q 44.046875 -1.421875 33.015625 -1.421875 
Q 20.359375 -1.421875 13.671875 8.265625 
Q 6.984375 17.96875 6.984375 36.375 
Q 6.984375 53.65625 15.1875 63.9375 
Q 23.390625 74.21875 37.203125 74.21875 
Q 40.921875 74.21875 44.703125 73.484375 
Q 48.484375 72.75 52.59375 71.296875 
z
" id="DejaVuSans-54"/>
       </defs>
       <use xlink:href="#DejaVuSans-54"/>
       <use x="63.623047" xlink:href="#DejaVuSans-48"/>
       <use x="127.246094" xlink:href="#DejaVuSans-48"/>
      </g>
     </g>
    </g>
    <g id="xtick_5">
     <g id="line2d_5">
      <g>
       <use style="stroke:#000000;stroke-width:0.8;" x="366.079148" xlink:href="#mfab6fdc6cd" y="305.596875"/>
      </g>
     </g>
     <g id="text_5">
      <!-- 800 -->
      <g transform="translate(351.763523 323.994531)scale(0.15 -0.15)">
       <defs>
        <path d="M 31.78125 34.625 
Q 24.75 34.625 20.71875 30.859375 
Q 16.703125 27.09375 16.703125 20.515625 
Q 16.703125 13.921875 20.71875 10.15625 
Q 24.75 6.390625 31.78125 6.390625 
Q 38.8125 6.390625 42.859375 10.171875 
Q 46.921875 13.96875 46.921875 20.515625 
Q 46.921875 27.09375 42.890625 30.859375 
Q 38.875 34.625 31.78125 34.625 
z
M 21.921875 38.8125 
Q 15.578125 40.375 12.03125 44.71875 
Q 8.5 49.078125 8.5 55.328125 
Q 8.5 64.0625 14.71875 69.140625 
Q 20.953125 74.21875 31.78125 74.21875 
Q 42.671875 74.21875 48.875 69.140625 
Q 55.078125 64.0625 55.078125 55.328125 
Q 55.078125 49.078125 51.53125 44.71875 
Q 48 40.375 41.703125 38.8125 
Q 48.828125 37.15625 52.796875 32.3125 
Q 56.78125 27.484375 56.78125 20.515625 
Q 56.78125 9.90625 50.3125 4.234375 
Q 43.84375 -1.421875 31.78125 -1.421875 
Q 19.734375 -1.421875 13.25 4.234375 
Q 6.78125 9.90625 6.78125 20.515625 
Q 6.78125 27.484375 10.78125 32.3125 
Q 14.796875 37.15625 21.921875 38.8125 
z
M 18.3125 54.390625 
Q 18.3125 48.734375 21.84375 45.5625 
Q 25.390625 42.390625 31.78125 42.390625 
Q 38.140625 42.390625 41.71875 45.5625 
Q 45.3125 48.734375 45.3125 54.390625 
Q 45.3125 60.0625 41.71875 63.234375 
Q 38.140625 66.40625 31.78125 66.40625 
Q 25.390625 66.40625 21.84375 63.234375 
Q 18.3125 60.0625 18.3125 54.390625 
z
" id="DejaVuSans-56"/>
       </defs>
       <use xlink:href="#DejaVuSans-56"/>
       <use x="63.623047" xlink:href="#DejaVuSans-48"/>
       <use x="127.246094" xlink:href="#DejaVuSans-48"/>
      </g>
     </g>
    </g>
    <g id="xtick_6">
     <g id="line2d_6">
      <g>
       <use style="stroke:#000000;stroke-width:0.8;" x="437.09733" xlink:href="#mfab6fdc6cd" y="305.596875"/>
      </g>
     </g>
     <g id="text_6">
      <!-- 1000 -->
      <g transform="translate(418.00983 323.994531)scale(0.15 -0.15)">
       <defs>
        <path d="M 12.40625 8.296875 
L 28.515625 8.296875 
L 28.515625 63.921875 
L 10.984375 60.40625 
L 10.984375 69.390625 
L 28.421875 72.90625 
L 38.28125 72.90625 
L 38.28125 8.296875 
L 54.390625 8.296875 
L 54.390625 0 
L 12.40625 0 
z
" id="DejaVuSans-49"/>
       </defs>
       <use xlink:href="#DejaVuSans-49"/>
       <use x="63.623047" xlink:href="#DejaVuSans-48"/>
       <use x="127.246094" xlink:href="#DejaVuSans-48"/>
       <use x="190.869141" xlink:href="#DejaVuSans-48"/>
      </g>
     </g>
    </g>
    <g id="text_7">
     <!-- None [None] -->
     <g transform="translate(195.739062 344.79125)scale(0.18 -0.18)">
      <defs>
       <path d="M 9.1875 72.90625 
L 30.171875 72.90625 
L 56.6875 22.90625 
L 56.6875 72.90625 
L 74.515625 72.90625 
L 74.515625 0 
L 53.515625 0 
L 27 50 
L 27 0 
L 9.1875 0 
z
" id="DejaVuSans-Bold-78"/>
       <path d="M 34.421875 43.5 
Q 28.609375 43.5 25.5625 39.328125 
Q 22.515625 35.15625 22.515625 27.296875 
Q 22.515625 19.4375 25.5625 15.25 
Q 28.609375 11.078125 34.421875 11.078125 
Q 40.140625 11.078125 43.15625 15.25 
Q 46.1875 19.4375 46.1875 27.296875 
Q 46.1875 35.15625 43.15625 39.328125 
Q 40.140625 43.5 34.421875 43.5 
z
M 34.421875 56 
Q 48.53125 56 56.46875 48.375 
Q 64.40625 40.765625 64.40625 27.296875 
Q 64.40625 13.8125 56.46875 6.1875 
Q 48.53125 -1.421875 34.421875 -1.421875 
Q 20.265625 -1.421875 12.28125 6.1875 
Q 4.296875 13.8125 4.296875 27.296875 
Q 4.296875 40.765625 12.28125 48.375 
Q 20.265625 56 34.421875 56 
z
" id="DejaVuSans-Bold-111"/>
       <path d="M 63.375 33.296875 
L 63.375 0 
L 45.796875 0 
L 45.796875 5.421875 
L 45.796875 25.484375 
Q 45.796875 32.5625 45.484375 35.25 
Q 45.171875 37.9375 44.390625 39.203125 
Q 43.359375 40.921875 41.59375 41.875 
Q 39.84375 42.828125 37.59375 42.828125 
Q 32.125 42.828125 29 38.59375 
Q 25.875 34.375 25.875 26.90625 
L 25.875 0 
L 8.40625 0 
L 8.40625 54.6875 
L 25.875 54.6875 
L 25.875 46.6875 
Q 29.828125 51.46875 34.265625 53.734375 
Q 38.71875 56 44.09375 56 
Q 53.5625 56 58.46875 50.1875 
Q 63.375 44.390625 63.375 33.296875 
z
" id="DejaVuSans-Bold-110"/>
       <path d="M 62.984375 27.484375 
L 62.984375 22.515625 
L 22.125 22.515625 
Q 22.75 16.359375 26.5625 13.28125 
Q 30.375 10.203125 37.203125 10.203125 
Q 42.71875 10.203125 48.5 11.84375 
Q 54.296875 13.484375 60.40625 16.796875 
L 60.40625 3.328125 
Q 54.203125 0.984375 48 -0.21875 
Q 41.796875 -1.421875 35.59375 -1.421875 
Q 20.75 -1.421875 12.515625 6.125 
Q 4.296875 13.671875 4.296875 27.296875 
Q 4.296875 40.671875 12.375 48.328125 
Q 20.453125 56 34.625 56 
Q 47.515625 56 55.25 48.234375 
Q 62.984375 40.484375 62.984375 27.484375 
z
M 45.015625 33.296875 
Q 45.015625 38.28125 42.109375 41.328125 
Q 39.203125 44.390625 34.515625 44.390625 
Q 29.4375 44.390625 26.265625 41.53125 
Q 23.09375 38.671875 22.3125 33.296875 
z
" id="DejaVuSans-Bold-101"/>
       <path id="DejaVuSans-Bold-32"/>
       <path d="M 8.59375 75.984375 
L 38.921875 75.984375 
L 38.921875 64.984375 
L 25.203125 64.984375 
L 25.203125 -2.203125 
L 38.921875 -2.203125 
L 38.921875 -13.1875 
L 8.59375 -13.1875 
z
" id="DejaVuSans-Bold-91"/>
       <path d="M 37.109375 -13.1875 
L 6.78125 -13.1875 
L 6.78125 -2.203125 
L 20.515625 -2.203125 
L 20.515625 64.984375 
L 6.78125 64.984375 
L 6.78125 75.984375 
L 37.109375 75.984375 
z
" id="DejaVuSans-Bold-93"/>
      </defs>
      <use xlink:href="#DejaVuSans-Bold-78"/>
      <use x="83.691406" xlink:href="#DejaVuSans-Bold-111"/>
      <use x="152.392578" xlink:href="#DejaVuSans-Bold-110"/>
      <use x="223.583984" xlink:href="#DejaVuSans-Bold-101"/>
      <use x="291.40625" xlink:href="#DejaVuSans-Bold-32"/>
      <use x="326.220703" xlink:href="#DejaVuSans-Bold-91"/>
      <use x="371.923828" xlink:href="#DejaVuSans-Bold-78"/>
      <use x="455.615234" xlink:href="#DejaVuSans-Bold-111"/>
      <use x="524.316406" xlink:href="#DejaVuSans-Bold-110"/>
      <use x="595.507812" xlink:href="#DejaVuSans-Bold-101"/>
      <use x="663.330078" xlink:href="#DejaVuSans-Bold-93"/>
     </g>
    </g>
   </g>
   <g id="matplotlib.axis_2">
    <g id="ytick_1">
     <g id="line2d_7">
      <defs>
       <path d="M 0 0 
L -3.5 0 
" id="m14e0b4bc73" style="stroke:#000000;stroke-width:0.8;"/>
      </defs>
      <g>
       <use style="stroke:#000000;stroke-width:0.8;" x="64.251875" xlink:href="#m14e0b4bc73" y="292.996875"/>
      </g>
     </g>
     <g id="text_8">
      <!-- 0 -->
      <g transform="translate(47.708125 298.695703)scale(0.15 -0.15)">
       <use xlink:href="#DejaVuSans-48"/>
      </g>
     </g>
    </g>
    <g id="ytick_2">
     <g id="line2d_8">
      <g>
       <use style="stroke:#000000;stroke-width:0.8;" x="64.251875" xlink:href="#m14e0b4bc73" y="252.337913"/>
      </g>
     </g>
     <g id="text_9">
      <!-- 50 -->
      <g transform="translate(38.164375 258.036742)scale(0.15 -0.15)">
       <defs>
        <path d="M 10.796875 72.90625 
L 49.515625 72.90625 
L 49.515625 64.59375 
L 19.828125 64.59375 
L 19.828125 46.734375 
Q 21.96875 47.46875 24.109375 47.828125 
Q 26.265625 48.1875 28.421875 48.1875 
Q 40.625 48.1875 47.75 41.5 
Q 54.890625 34.8125 54.890625 23.390625 
Q 54.890625 11.625 47.5625 5.09375 
Q 40.234375 -1.421875 26.90625 -1.421875 
Q 22.3125 -1.421875 17.546875 -0.640625 
Q 12.796875 0.140625 7.71875 1.703125 
L 7.71875 11.625 
Q 12.109375 9.234375 16.796875 8.0625 
Q 21.484375 6.890625 26.703125 6.890625 
Q 35.15625 6.890625 40.078125 11.328125 
Q 45.015625 15.765625 45.015625 23.390625 
Q 45.015625 31 40.078125 35.4375 
Q 35.15625 39.890625 26.703125 39.890625 
Q 22.75 39.890625 18.8125 39.015625 
Q 14.890625 38.140625 10.796875 36.28125 
z
" id="DejaVuSans-53"/>
       </defs>
       <use xlink:href="#DejaVuSans-53"/>
       <use x="63.623047" xlink:href="#DejaVuSans-48"/>
      </g>
     </g>
    </g>
    <g id="ytick_3">
     <g id="line2d_9">
      <g>
       <use style="stroke:#000000;stroke-width:0.8;" x="64.251875" xlink:href="#m14e0b4bc73" y="211.678952"/>
      </g>
     </g>
     <g id="text_10">
      <!-- 100 -->
      <g transform="translate(28.620625 217.37778)scale(0.15 -0.15)">
       <use xlink:href="#DejaVuSans-49"/>
       <use x="63.623047" xlink:href="#DejaVuSans-48"/>
       <use x="127.246094" xlink:href="#DejaVuSans-48"/>
      </g>
     </g>
    </g>
    <g id="ytick_4">
     <g id="line2d_10">
      <g>
       <use style="stroke:#000000;stroke-width:0.8;" x="64.251875" xlink:href="#m14e0b4bc73" y="171.01999"/>
      </g>
     </g>
     <g id="text_11">
      <!-- 150 -->
      <g transform="translate(28.620625 176.718819)scale(0.15 -0.15)">
       <use xlink:href="#DejaVuSans-49"/>
       <use x="63.623047" xlink:href="#DejaVuSans-53"/>
       <use x="127.246094" xlink:href="#DejaVuSans-48"/>
      </g>
     </g>
    </g>
    <g id="ytick_5">
     <g id="line2d_11">
      <g>
       <use style="stroke:#000000;stroke-width:0.8;" x="64.251875" xlink:href="#m14e0b4bc73" y="130.361029"/>
      </g>
     </g>
     <g id="text_12">
      <!-- 200 -->
      <g transform="translate(28.620625 136.059857)scale(0.15 -0.15)">
       <use xlink:href="#DejaVuSans-50"/>
       <use x="63.623047" xlink:href="#DejaVuSans-48"/>
       <use x="127.246094" xlink:href="#DejaVuSans-48"/>
      </g>
     </g>
    </g>
    <g id="ytick_6">
     <g id="line2d_12">
      <g>
       <use style="stroke:#000000;stroke-width:0.8;" x="64.251875" xlink:href="#m14e0b4bc73" y="89.702067"/>
      </g>
     </g>
     <g id="text_13">
      <!-- 250 -->
      <g transform="translate(28.620625 95.400896)scale(0.15 -0.15)">
       <use xlink:href="#DejaVuSans-50"/>
       <use x="63.623047" xlink:href="#DejaVuSans-53"/>
       <use x="127.246094" xlink:href="#DejaVuSans-48"/>
      </g>
     </g>
    </g>
    <g id="ytick_7">
     <g id="line2d_13">
      <g>
       <use style="stroke:#000000;stroke-width:0.8;" x="64.251875" xlink:href="#m14e0b4bc73" y="49.043106"/>
      </g>
     </g>
     <g id="text_14">
      <!-- 300 -->
      <g transform="translate(28.620625 54.741934)scale(0.15 -0.15)">
       <defs>
        <path d="M 40.578125 39.3125 
Q 47.65625 37.796875 51.625 33 
Q 55.609375 28.21875 55.609375 21.1875 
Q 55.609375 10.40625 48.1875 4.484375 
Q 40.765625 -1.421875 27.09375 -1.421875 
Q 22.515625 -1.421875 17.65625 -0.515625 
Q 12.796875 0.390625 7.625 2.203125 
L 7.625 11.71875 
Q 11.71875 9.328125 16.59375 8.109375 
Q 21.484375 6.890625 26.8125 6.890625 
Q 36.078125 6.890625 40.9375 10.546875 
Q 45.796875 14.203125 45.796875 21.1875 
Q 45.796875 27.640625 41.28125 31.265625 
Q 36.765625 34.90625 28.71875 34.90625 
L 20.21875 34.90625 
L 20.21875 43.015625 
L 29.109375 43.015625 
Q 36.375 43.015625 40.234375 45.921875 
Q 44.09375 48.828125 44.09375 54.296875 
Q 44.09375 59.90625 40.109375 62.90625 
Q 36.140625 65.921875 28.71875 65.921875 
Q 24.65625 65.921875 20.015625 65.03125 
Q 15.375 64.15625 9.8125 62.3125 
L 9.8125 71.09375 
Q 15.4375 72.65625 20.34375 73.4375 
Q 25.25 74.21875 29.59375 74.21875 
Q 40.828125 74.21875 47.359375 69.109375 
Q 53.90625 64.015625 53.90625 55.328125 
Q 53.90625 49.265625 50.4375 45.09375 
Q 46.96875 40.921875 40.578125 39.3125 
z
" id="DejaVuSans-51"/>
       </defs>
       <use xlink:href="#DejaVuSans-51"/>
       <use x="63.623047" xlink:href="#DejaVuSans-48"/>
       <use x="127.246094" xlink:href="#DejaVuSans-48"/>
      </g>
     </g>
    </g>
    <g id="text_15">
     <!-- None [None] -->
     <g transform="translate(20.877187 230.809687)rotate(-90)scale(0.18 -0.18)">
      <use xlink:href="#DejaVuSans-Bold-78"/>
      <use x="83.691406" xlink:href="#DejaVuSans-Bold-111"/>
      <use x="152.392578" xlink:href="#DejaVuSans-Bold-110"/>
      <use x="223.583984" xlink:href="#DejaVuSans-Bold-101"/>
      <use x="291.40625" xlink:href="#DejaVuSans-Bold-32"/>
      <use x="326.220703" xlink:href="#DejaVuSans-Bold-91"/>
      <use x="371.923828" xlink:href="#DejaVuSans-Bold-78"/>
      <use x="455.615234" xlink:href="#DejaVuSans-Bold-111"/>
      <use x="524.316406" xlink:href="#DejaVuSans-Bold-110"/>
      <use x="595.507812" xlink:href="#DejaVuSans-Bold-101"/>
      <use x="663.330078" xlink:href="#DejaVuSans-Bold-93"/>
     </g>
    </g>
   </g>
   <g id="line2d_14">
    <path clip-path="url(#p1036c4a522)" d="M 82.00642 292.996875 
L 82.361867 291.074524 
L 82.717313 286.253233 
L 83.428206 271.958949 
L 85.91633 216.655559 
L 86.982669 197.728681 
L 88.049008 182.068588 
L 89.115348 169.266626 
L 90.181687 158.915673 
L 91.248026 150.697239 
L 92.314365 144.425177 
L 93.025257 141.31092 
L 93.73615 139.100386 
L 94.091597 138.361165 
L 94.447043 137.885435 
L 94.802489 137.690078 
L 95.157936 137.792818 
L 95.513382 138.2111 
L 95.868828 138.960754 
L 96.579721 141.500737 
L 97.290614 145.453966 
L 98.001506 150.759519 
L 99.067846 160.861083 
L 100.489631 176.898543 
L 103.333202 209.737872 
L 104.754987 223.850148 
L 106.176773 235.766743 
L 107.598558 245.495445 
L 108.664897 251.449485 
L 109.731236 256.342499 
L 110.797575 260.247555 
L 111.863914 263.220364 
L 112.574807 264.701912 
L 113.2857 265.788734 
L 113.996592 266.480459 
L 114.707485 266.772631 
L 115.418378 266.65752 
L 116.129271 266.125333 
L 116.840163 265.165906 
L 117.551056 263.770847 
L 118.261949 261.936093 
L 119.328288 258.368858 
L 120.394627 253.876225 
L 121.816412 246.667279 
L 123.94909 234.324393 
L 126.081769 222.363051 
L 127.148108 217.387392 
L 128.214447 213.504492 
L 128.925339 211.647786 
L 129.636232 210.439084 
L 129.991678 210.087812 
L 130.347125 209.907598 
L 130.702571 209.898171 
L 131.058018 210.057604 
L 131.413464 210.38232 
L 132.124357 211.505403 
L 132.835249 213.208716 
L 133.901588 216.677093 
L 135.323374 222.511978 
L 140.299623 244.386494 
L 141.721408 249.203182 
L 142.787747 252.143203 
L 143.854086 254.464758 
L 144.920425 256.142262 
L 145.631318 256.892978 
L 146.342211 257.343967 
L 147.053104 257.491416 
L 147.763996 257.332785 
L 148.474889 256.867403 
L 149.185782 256.097267 
L 149.896674 255.027987 
L 150.963013 252.887081 
L 152.029352 250.156637 
L 153.451138 245.765663 
L 155.939262 236.994804 
L 157.716494 231.00573 
L 158.782833 227.97644 
L 159.849172 225.594299 
L 160.560065 224.436636 
L 161.270958 223.657939 
L 161.98185 223.274209 
L 162.692743 223.288328 
L 163.403636 223.689981 
L 164.114529 224.45641 
L 164.825421 225.553958 
L 165.89176 227.72668 
L 167.313546 231.34307 
L 172.645241 245.931937 
L 174.067027 248.796027 
L 175.133366 250.452555 
L 176.199705 251.645943 
L 176.910597 252.171433 
L 177.62149 252.474921 
L 178.332383 252.553689 
L 179.043275 252.40728 
L 179.754168 252.037769 
L 180.465061 251.450108 
L 181.5314 250.178546 
L 182.597739 248.478978 
L 184.019524 245.661182 
L 186.152203 240.705284 
L 188.640327 234.973725 
L 190.062113 232.32594 
L 191.128452 230.848689 
L 191.839344 230.152692 
L 192.550237 229.706255 
L 193.26113 229.516845 
L 193.972022 229.584201 
L 194.682915 229.900495 
L 195.393808 230.450876 
L 196.460147 231.668036 
L 197.526486 233.272917 
L 198.948271 235.831948 
L 203.569074 244.575082 
L 204.990859 246.639101 
L 206.057199 247.839383 
L 207.123538 248.702584 
L 208.189877 249.205831 
L 208.900769 249.335017 
L 209.611662 249.297917 
L 210.322555 249.096055 
L 211.388894 248.49367 
L 212.455233 247.554354 
L 213.521572 246.316272 
L 214.943357 244.293281 
L 217.431482 240.206899 
L 219.56416 236.853214 
L 220.985945 235.060354 
L 222.052285 234.071885 
L 223.118624 233.444999 
L 223.829516 233.242063 
L 224.540409 233.214039 
L 225.251302 233.358036 
L 226.317641 233.879118 
L 227.38398 234.727473 
L 228.805765 236.265186 
L 230.582997 238.604112 
L 234.137461 243.394008 
L 235.559246 244.941454 
L 236.625585 245.860471 
L 237.691924 246.537891 
L 238.758263 246.952984 
L 239.824602 247.094585 
L 240.890941 246.961243 
L 241.95728 246.56147 
L 243.023619 245.914001 
L 244.445405 244.717046 
L 246.222637 242.824965 
L 250.487993 237.975569 
L 251.909778 236.762835 
L 252.976117 236.111821 
L 254.042456 235.717169 
L 255.108796 235.593904 
L 256.175135 235.741202 
L 257.241474 236.142999 
L 258.307813 236.769795 
L 259.729598 237.884938 
L 261.862276 239.919588 
L 265.061294 242.978274 
L 266.483079 244.066428 
L 267.904864 244.874605 
L 268.971203 245.265988 
L 270.037542 245.459041 
L 271.103882 245.449417 
L 272.170221 245.240705 
L 273.23656 244.844445 
L 274.658345 244.058858 
L 276.435577 242.759979 
L 281.767272 238.517611 
L 283.189058 237.768067 
L 284.255397 237.404931 
L 285.321736 237.229924 
L 286.388075 237.247436 
L 287.454414 237.451309 
L 288.876199 237.9843 
L 290.297985 238.759498 
L 292.430663 240.20346 
L 295.985126 242.641481 
L 297.762358 243.559322 
L 299.184144 244.048415 
L 300.605929 244.285317 
L 302.027714 244.258727 
L 303.4495 243.97683 
L 304.871285 243.466844 
L 306.648517 242.57829 
L 313.046551 239.016384 
L 314.468337 238.572013 
L 315.890122 238.358625 
L 317.311908 238.387988 
L 318.733693 238.649122 
L 320.510925 239.251777 
L 322.643603 240.24972 
L 327.264406 242.50097 
L 329.041637 243.087025 
L 330.463423 243.36355 
L 331.885208 243.450193 
L 333.306994 243.345178 
L 335.084226 242.965394 
L 337.216904 242.22176 
L 343.970384 239.548219 
L 345.747616 239.213952 
L 347.524848 239.145798 
L 349.30208 239.342333 
L 351.079312 239.765751 
L 353.567436 240.609645 
L 357.832792 242.115171 
L 359.96547 242.613029 
L 361.742702 242.808895 
L 363.519934 242.786074 
L 365.297166 242.554582 
L 367.429844 242.052788 
L 375.249664 239.892858 
L 377.026895 239.71943 
L 378.804127 239.739966 
L 380.936805 240.004089 
L 383.42493 240.558271 
L 389.467518 242.047466 
L 391.600196 242.315645 
L 393.732874 242.359886 
L 395.865552 242.181534 
L 398.353677 241.748564 
L 405.81805 240.253987 
L 407.950728 240.114317 
L 410.083407 240.174856 
L 412.571531 240.468769 
L 416.836887 241.266397 
L 420.391351 241.84014 
L 422.879475 242.026877 
L 425.3676 241.989283 
L 428.211171 241.699654 
L 437.09733 240.460573 
L 437.09733 240.460573 
" style="fill:none;stroke:#1f77b4;stroke-linecap:square;stroke-width:2;"/>
   </g>
   <g id="line2d_15">
    <path clip-path="url(#p1036c4a522)" d="M 82.00642 292.996875 
L 83.07276 289.841887 
L 83.783652 288.783827 
L 84.494545 288.372699 
L 85.205438 288.285224 
L 88.049008 288.356639 
L 89.115348 288.020012 
L 89.82624 287.587449 
L 90.537133 286.9461 
L 91.248026 286.053958 
L 91.958918 284.862974 
L 92.669811 283.319389 
L 93.380704 281.365304 
L 94.091597 278.94169 
L 95.157936 274.30665 
L 96.224275 268.351446 
L 97.290614 261.034605 
L 98.712399 249.358481 
L 100.845077 229.251441 
L 102.977755 209.344247 
L 104.399541 198.110092 
L 105.46588 191.481797 
L 106.176773 188.129236 
L 106.887665 185.744585 
L 107.598558 184.406998 
L 107.954004 184.148143 
L 108.309451 184.167168 
L 108.664897 184.463975 
L 109.020343 185.035291 
L 109.731236 186.971699 
L 110.442129 189.884342 
L 111.508468 195.772406 
L 112.930253 205.530464 
L 116.840163 233.751888 
L 118.261949 242.213007 
L 119.683734 249.237863 
L 120.750073 253.537934 
L 121.816412 257.013465 
L 122.882751 259.673734 
L 123.593644 260.996748 
L 124.304537 261.958576 
L 125.015429 262.556417 
L 125.726322 262.785852 
L 126.437215 262.641465 
L 127.148108 262.117836 
L 127.859 261.210885 
L 128.569893 259.919532 
L 129.280786 258.247588 
L 130.347125 255.051727 
L 131.413464 251.099934 
L 132.835249 244.885117 
L 137.456052 223.458134 
L 138.522391 219.879672 
L 139.233284 218.062027 
L 139.944176 216.758431 
L 140.655069 216.001412 
L 141.010515 215.83286 
L 141.365962 215.804422 
L 141.721408 215.914601 
L 142.432301 216.538527 
L 143.143194 217.668305 
L 143.854086 219.250852 
L 144.920425 222.326952 
L 146.342211 227.341643 
L 150.963013 244.529747 
L 152.384799 248.678592 
L 153.451138 251.20582 
L 154.517477 253.183325 
L 155.583816 254.580737 
L 156.294709 255.179035 
L 157.005601 255.505109 
L 157.716494 255.555934 
L 158.427387 255.330382 
L 159.13828 254.829725 
L 159.849172 254.058264 
L 160.560065 253.024064 
L 161.626404 251.00901 
L 162.692743 248.497088 
L 164.114529 244.542397 
L 168.735331 230.910069 
L 169.80167 228.599757 
L 170.512563 227.404909 
L 171.223456 226.522107 
L 171.934348 225.971285 
L 172.645241 225.7618 
L 173.356134 225.892052 
L 174.067027 226.349722 
L 174.777919 227.11263 
L 175.844258 228.760476 
L 176.910597 230.895657 
L 178.687829 235.137161 
L 182.242293 243.865088 
L 183.664078 246.732206 
L 184.730417 248.485243 
L 185.796756 249.845846 
L 186.863095 250.781327 
L 187.573988 251.157837 
L 188.284881 251.33212 
L 188.995773 251.302822 
L 189.706666 251.070994 
L 190.417559 250.640324 
L 191.483898 249.636782 
L 192.550237 248.237414 
L 193.972022 245.851566 
L 195.749254 242.29437 
L 198.948271 235.732457 
L 200.370057 233.407397 
L 201.436396 232.112394 
L 202.147289 231.502701 
L 202.858181 231.111682 
L 203.569074 230.945686 
L 204.279967 231.004492 
L 204.990859 231.281456 
L 205.701752 231.763963 
L 206.768091 232.832815 
L 207.83443 234.245473 
L 209.256216 236.505237 
L 213.877018 244.281655 
L 215.298804 246.12409 
L 216.365143 247.1933 
L 217.431482 247.957985 
L 218.497821 248.39691 
L 219.56416 248.499446 
L 220.630499 248.265817 
L 221.696838 247.707649 
L 222.763177 246.848644 
L 223.829516 245.725081 
L 225.251302 243.901619 
L 228.094873 239.726063 
L 229.872104 237.282648 
L 231.29389 235.70848 
L 232.360229 234.847162 
L 233.426568 234.307515 
L 234.137461 234.138234 
L 234.848353 234.123557 
L 235.914692 234.384322 
L 236.981031 234.960353 
L 238.04737 235.809373 
L 239.469156 237.269829 
L 241.601834 239.854972 
L 244.445405 243.243082 
L 245.86719 244.620352 
L 247.288976 245.658264 
L 248.355315 246.17576 
L 249.421654 246.451336 
L 250.487993 246.478333 
L 251.554332 246.259268 
L 252.620671 245.806012 
L 253.68701 245.139846 
L 255.108796 243.974415 
L 257.241474 241.835457 
L 260.440491 238.573651 
L 261.862276 237.432647 
L 262.928615 236.796502 
L 263.994954 236.382672 
L 265.061294 236.20797 
L 266.127633 236.27541 
L 267.193972 236.574435 
L 268.260311 237.08219 
L 269.682096 238.025691 
L 271.459328 239.493294 
L 275.369238 242.859301 
L 276.791023 243.825288 
L 278.212809 244.536547 
L 279.634594 244.948397 
L 280.700933 245.04654 
L 281.767272 244.962356 
L 283.189058 244.578632 
L 284.610843 243.918098 
L 286.388075 242.790882 
L 292.430663 238.565979 
L 293.852448 237.976632 
L 295.274234 237.672789 
L 296.340573 237.644546 
L 297.762358 237.867314 
L 299.184144 238.35756 
L 300.961375 239.262609 
L 303.804946 241.051605 
L 306.293071 242.541262 
L 308.070303 243.353143 
L 309.492088 243.779495 
L 310.913873 243.977438 
L 312.335659 243.937865 
L 313.757444 243.669497 
L 315.534676 243.053391 
L 317.667354 242.018441 
L 322.288157 239.619191 
L 324.065389 238.993544 
L 325.487174 238.709898 
L 326.908959 238.641212 
L 328.330745 238.786501 
L 330.107977 239.236425 
L 332.240655 240.067385 
L 337.927796 242.519859 
L 339.705028 242.989883 
L 341.48226 243.207531 
L 343.259492 243.15502 
L 345.036723 242.847349 
L 347.169402 242.207624 
L 354.633775 239.619106 
L 356.411007 239.378093 
L 358.188239 239.37827 
L 359.96547 239.609857 
L 362.098149 240.133919 
L 366.008058 241.413454 
L 368.851629 242.215384 
L 370.984307 242.570542 
L 372.761539 242.657692 
L 374.538771 242.549194 
L 376.671449 242.190311 
L 379.51502 241.452897 
L 383.780376 240.3181 
L 385.913054 239.968495 
L 388.045732 239.855287 
L 390.178411 239.98922 
L 392.666535 240.405776 
L 401.197248 242.149262 
L 403.329926 242.248443 
L 405.462604 242.143285 
L 407.950728 241.800422 
L 417.192334 240.256977 
L 419.680458 240.242754 
L 422.168583 240.458134 
L 425.723046 241.022544 
L 430.343849 241.743239 
L 433.18742 241.94165 
L 435.675544 241.899936 
L 437.09733 241.791185 
L 437.09733 241.791185 
" style="fill:none;stroke:#ff7f0e;stroke-linecap:square;stroke-width:2;"/>
   </g>
   <g id="line2d_16">
    <path clip-path="url(#p1036c4a522)" d="M 82.00642 292.996875 
L 82.361867 199.142165 
L 82.717313 135.519758 
L 83.07276 93.237656 
L 83.428206 66.232621 
L 83.783652 50.361991 
L 84.139099 42.681174 
L 84.494545 40.996875 
L 84.849991 43.635508 
L 85.205438 49.317127 
L 85.91633 66.16849 
L 89.470794 162.416081 
L 90.537133 184.323973 
L 91.603472 202.618535 
L 92.669811 217.764644 
L 93.73615 230.239279 
L 94.802489 240.473415 
L 95.868828 248.834201 
L 96.935167 255.622476 
L 98.001506 261.075946 
L 99.067846 265.374368 
L 100.134185 268.645023 
L 100.845077 270.295617 
L 101.55597 271.538286 
L 102.266863 272.37741 
L 102.977755 272.809688 
L 103.688648 272.824904 
L 104.399541 272.407063 
L 105.110434 271.536077 
L 105.821326 270.190123 
L 106.532219 268.348731 
L 107.243112 265.99654 
L 108.309451 261.500835 
L 109.37579 255.885819 
L 110.797575 246.903425 
L 112.930253 231.544643 
L 115.062932 216.651148 
L 116.129271 210.423405 
L 117.19561 205.520815 
L 117.906502 203.145646 
L 118.617395 201.56882 
L 118.972841 201.094739 
L 119.328288 200.834535 
L 119.683734 200.788892 
L 120.03918 200.956303 
L 120.394627 201.333025 
L 121.10552 202.688356 
L 121.816412 204.78224 
L 122.527305 207.513777 
L 123.593644 212.540692 
L 125.370876 222.329685 
L 128.214447 237.979549 
L 129.636232 244.648738 
L 131.058018 250.200391 
L 132.124357 253.567574 
L 133.190696 256.227408 
L 134.257035 258.165801 
L 134.967927 259.050901 
L 135.67882 259.605557 
L 136.389713 259.825595 
L 137.100606 259.707184 
L 137.811498 259.247575 
L 138.522391 258.446114 
L 139.233284 257.30548 
L 140.299623 254.97637 
L 141.365962 251.954232 
L 142.787747 247.011874 
L 144.920425 238.387859 
L 147.053104 229.825858 
L 148.474889 225.09936 
L 149.541228 222.440437 
L 150.252121 221.183415 
L 150.963013 220.377291 
L 151.673906 220.038178 
L 152.029352 220.044381 
L 152.740245 220.40066 
L 153.451138 221.19391 
L 154.162031 222.386155 
L 155.22837 224.812206 
L 156.650155 228.923574 
L 162.337297 246.683786 
L 163.403636 249.138326 
L 164.469975 251.124167 
L 165.536314 252.602609 
L 166.247207 253.292439 
L 166.958099 253.738697 
L 167.668992 253.937523 
L 168.379885 253.887059 
L 169.090778 253.587741 
L 169.80167 253.042724 
L 170.512563 252.258386 
L 171.578902 250.656503 
L 172.645241 248.592746 
L 174.067027 245.259804 
L 176.555151 238.586463 
L 178.332383 234.007793 
L 179.754168 230.992571 
L 180.820507 229.312954 
L 181.5314 228.524637 
L 182.242293 228.022967 
L 182.953185 227.816484 
L 183.664078 227.904568 
L 184.374971 228.277624 
L 185.085864 228.917761 
L 186.152203 230.32224 
L 187.218542 232.162573 
L 188.640327 235.079176 
L 192.905683 244.270837 
L 194.327469 246.711624 
L 195.393808 248.171625 
L 196.460147 249.268401 
L 197.526486 249.973975 
L 198.237379 250.218288 
L 198.948271 250.278844 
L 199.659164 250.155737 
L 200.370057 249.851516 
L 201.436396 249.067718 
L 202.502735 247.918446 
L 203.569074 246.44901 
L 204.990859 244.10022 
L 209.967108 235.257872 
L 211.033447 233.88405 
L 212.099787 232.882293 
L 212.810679 232.4466 
L 213.521572 232.206822 
L 214.232465 232.165435 
L 214.943357 232.319328 
L 215.65425 232.660072 
L 216.720589 233.491382 
L 217.786928 234.650965 
L 219.208714 236.575379 
L 224.895855 244.901036 
L 226.317641 246.335523 
L 227.38398 247.104178 
L 228.450319 247.583234 
L 229.516658 247.760015 
L 230.582997 247.632098 
L 231.649336 247.207669 
L 232.715675 246.505954 
L 233.782014 245.557524 
L 235.2038 243.983022 
L 237.336478 241.227054 
L 239.824602 238.053805 
L 241.246388 236.578407 
L 242.312727 235.740501 
L 243.379066 235.179472 
L 244.445405 234.919526 
L 245.511744 234.966837 
L 246.578083 235.309622 
L 247.644422 235.919764 
L 249.066208 237.075833 
L 250.843439 238.893855 
L 255.108796 243.436577 
L 256.530581 244.590938 
L 257.952366 245.420903 
L 259.018705 245.799856 
L 260.085045 245.956976 
L 261.151384 245.889648 
L 262.217723 245.603853 
L 263.284062 245.114215 
L 264.705847 244.185445 
L 266.483079 242.693208 
L 271.459328 238.256714 
L 272.881113 237.398916 
L 273.947452 236.976427 
L 275.013791 236.764127 
L 276.080131 236.767886 
L 277.14647 236.981536 
L 278.212809 237.387733 
L 279.634594 238.181283 
L 281.411826 239.458595 
L 286.032628 242.980341 
L 287.454414 243.783985 
L 288.876199 244.343915 
L 290.297985 244.625505 
L 291.71977 244.614972 
L 293.141556 244.319778 
L 294.563341 243.768315 
L 296.340573 242.793379 
L 299.184144 240.893132 
L 301.672268 239.331688 
L 303.094054 238.651997 
L 304.515839 238.201325 
L 305.937624 238.013569 
L 307.35941 238.097092 
L 308.781195 238.434774 
L 310.202981 238.987073 
L 312.335659 240.091139 
L 316.956461 242.609388 
L 318.733693 243.274899 
L 320.155479 243.595663 
L 321.577264 243.706323 
L 322.999049 243.603783 
L 324.420835 243.301121 
L 326.198067 242.685917 
L 328.686191 241.54039 
L 332.240655 239.883054 
L 334.017886 239.287604 
L 335.795118 238.956669 
L 337.216904 238.90759 
L 338.638689 239.04929 
L 340.415921 239.464279 
L 342.548599 240.218104 
L 348.235741 242.410769 
L 350.012972 242.822309 
L 351.790204 243.005111 
L 353.567436 242.944693 
L 355.344668 242.656312 
L 357.477346 242.071384 
L 364.586273 239.82817 
L 366.363505 239.581573 
L 368.140737 239.549685 
L 369.917968 239.728262 
L 372.050646 240.172737 
L 375.60511 241.205949 
L 378.804127 242.055216 
L 380.936805 242.402125 
L 383.069484 242.505688 
L 385.202162 242.357594 
L 387.690286 241.91755 
L 396.220999 240.08228 
L 398.353677 239.990809 
L 400.486355 240.120262 
L 402.974479 240.50175 
L 411.505192 242.057334 
L 413.993316 242.1333 
L 416.481441 241.963991 
L 419.680458 241.47659 
L 425.723046 240.481691 
L 428.211171 240.321565 
L 430.699295 240.379273 
L 433.542866 240.675834 
L 437.09733 241.221259 
L 437.09733 241.221259 
" style="fill:none;stroke:#2ca02c;stroke-linecap:square;stroke-width:2;"/>
   </g>
   <g id="patch_3">
    <path d="M 64.251875 305.596875 
L 64.251875 28.396875 
" style="fill:none;stroke:#000000;stroke-linecap:square;stroke-linejoin:miter;stroke-width:0.8;"/>
   </g>
   <g id="patch_4">
    <path d="M 454.851875 305.596875 
L 454.851875 28.396875 
" style="fill:none;stroke:#000000;stroke-linecap:square;stroke-linejoin:miter;stroke-width:0.8;"/>
   </g>
   <g id="patch_5">
    <path d="M 64.251875 305.596875 
L 454.851875 305.596875 
" style="fill:none;stroke:#000000;stroke-linecap:square;stroke-linejoin:miter;stroke-width:0.8;"/>
   </g>
   <g id="patch_6">
    <path d="M 64.251875 28.396875 
L 454.851875 28.396875 
" style="fill:none;stroke:#000000;stroke-linecap:square;stroke-linejoin:miter;stroke-width:0.8;"/>
   </g>
   <g id="text_16">
    <!-- Timecourse after pre-processing -->
    <g transform="translate(75.66125 22.396875)scale(0.2 -0.2)">
     <defs>
      <path d="M 0.484375 72.90625 
L 67.671875 72.90625 
L 67.671875 58.6875 
L 43.5 58.6875 
L 43.5 0 
L 24.703125 0 
L 24.703125 58.6875 
L 0.484375 58.6875 
z
" id="DejaVuSans-Bold-84"/>
      <path d="M 8.40625 54.6875 
L 25.875 54.6875 
L 25.875 0 
L 8.40625 0 
z
M 8.40625 75.984375 
L 25.875 75.984375 
L 25.875 61.71875 
L 8.40625 61.71875 
z
" id="DejaVuSans-Bold-105"/>
      <path d="M 59.078125 45.609375 
Q 62.40625 50.6875 66.96875 53.34375 
Q 71.53125 56 77 56 
Q 86.421875 56 91.359375 50.1875 
Q 96.296875 44.390625 96.296875 33.296875 
L 96.296875 0 
L 78.71875 0 
L 78.71875 28.515625 
Q 78.765625 29.15625 78.78125 29.828125 
Q 78.8125 30.515625 78.8125 31.78125 
Q 78.8125 37.59375 77.09375 40.203125 
Q 75.390625 42.828125 71.578125 42.828125 
Q 66.609375 42.828125 63.890625 38.71875 
Q 61.1875 34.625 61.078125 26.859375 
L 61.078125 0 
L 43.5 0 
L 43.5 28.515625 
Q 43.5 37.59375 41.9375 40.203125 
Q 40.375 42.828125 36.375 42.828125 
Q 31.34375 42.828125 28.609375 38.703125 
Q 25.875 34.578125 25.875 26.90625 
L 25.875 0 
L 8.296875 0 
L 8.296875 54.6875 
L 25.875 54.6875 
L 25.875 46.6875 
Q 29.109375 51.3125 33.28125 53.65625 
Q 37.453125 56 42.484375 56 
Q 48.140625 56 52.484375 53.265625 
Q 56.84375 50.53125 59.078125 45.609375 
z
" id="DejaVuSans-Bold-109"/>
      <path d="M 52.59375 52.984375 
L 52.59375 38.71875 
Q 49.03125 41.15625 45.4375 42.328125 
Q 41.84375 43.5 37.984375 43.5 
Q 30.671875 43.5 26.59375 39.234375 
Q 22.515625 34.96875 22.515625 27.296875 
Q 22.515625 19.625 26.59375 15.34375 
Q 30.671875 11.078125 37.984375 11.078125 
Q 42.09375 11.078125 45.78125 12.296875 
Q 49.46875 13.53125 52.59375 15.921875 
L 52.59375 1.609375 
Q 48.484375 0.09375 44.265625 -0.65625 
Q 40.046875 -1.421875 35.796875 -1.421875 
Q 21 -1.421875 12.640625 6.171875 
Q 4.296875 13.765625 4.296875 27.296875 
Q 4.296875 40.828125 12.640625 48.40625 
Q 21 56 35.796875 56 
Q 40.09375 56 44.265625 55.25 
Q 48.4375 54.5 52.59375 52.984375 
z
" id="DejaVuSans-Bold-99"/>
      <path d="M 7.8125 21.296875 
L 7.8125 54.6875 
L 25.390625 54.6875 
L 25.390625 49.21875 
Q 25.390625 44.78125 25.34375 38.0625 
Q 25.296875 31.34375 25.296875 29.109375 
Q 25.296875 22.515625 25.640625 19.609375 
Q 25.984375 16.703125 26.8125 15.375 
Q 27.875 13.671875 29.609375 12.734375 
Q 31.34375 11.8125 33.59375 11.8125 
Q 39.0625 11.8125 42.1875 16.015625 
Q 45.3125 20.21875 45.3125 27.6875 
L 45.3125 54.6875 
L 62.796875 54.6875 
L 62.796875 0 
L 45.3125 0 
L 45.3125 7.90625 
Q 41.359375 3.125 36.9375 0.84375 
Q 32.515625 -1.421875 27.203125 -1.421875 
Q 17.71875 -1.421875 12.765625 4.390625 
Q 7.8125 10.203125 7.8125 21.296875 
z
" id="DejaVuSans-Bold-117"/>
      <path d="M 49.03125 39.796875 
Q 46.734375 40.875 44.453125 41.375 
Q 42.1875 41.890625 39.890625 41.890625 
Q 33.15625 41.890625 29.515625 37.5625 
Q 25.875 33.25 25.875 25.203125 
L 25.875 0 
L 8.40625 0 
L 8.40625 54.6875 
L 25.875 54.6875 
L 25.875 45.703125 
Q 29.25 51.078125 33.609375 53.53125 
Q 37.984375 56 44.09375 56 
Q 44.96875 56 45.984375 55.921875 
Q 47.015625 55.859375 48.96875 55.609375 
z
" id="DejaVuSans-Bold-114"/>
      <path d="M 51.125 52.984375 
L 51.125 39.703125 
Q 45.515625 42.046875 40.28125 43.21875 
Q 35.0625 44.390625 30.421875 44.390625 
Q 25.4375 44.390625 23.015625 43.140625 
Q 20.609375 41.890625 20.609375 39.3125 
Q 20.609375 37.203125 22.4375 36.078125 
Q 24.265625 34.96875 29 34.421875 
L 32.078125 33.984375 
Q 45.515625 32.28125 50.140625 28.375 
Q 54.78125 24.46875 54.78125 16.109375 
Q 54.78125 7.375 48.328125 2.96875 
Q 41.890625 -1.421875 29.109375 -1.421875 
Q 23.6875 -1.421875 17.890625 -0.5625 
Q 12.109375 0.296875 6 2 
L 6 15.28125 
Q 11.234375 12.75 16.71875 11.46875 
Q 22.21875 10.203125 27.875 10.203125 
Q 33.015625 10.203125 35.59375 11.609375 
Q 38.1875 13.03125 38.1875 15.828125 
Q 38.1875 18.171875 36.40625 19.3125 
Q 34.625 20.453125 29.296875 21.09375 
L 26.21875 21.484375 
Q 14.546875 22.953125 9.859375 26.90625 
Q 5.171875 30.859375 5.171875 38.921875 
Q 5.171875 47.609375 11.125 51.796875 
Q 17.09375 56 29.390625 56 
Q 34.234375 56 39.546875 55.265625 
Q 44.875 54.546875 51.125 52.984375 
z
" id="DejaVuSans-Bold-115"/>
      <path d="M 32.90625 24.609375 
Q 27.4375 24.609375 24.671875 22.75 
Q 21.921875 20.90625 21.921875 17.28125 
Q 21.921875 13.96875 24.140625 12.078125 
Q 26.375 10.203125 30.328125 10.203125 
Q 35.25 10.203125 38.625 13.734375 
Q 42 17.28125 42 22.609375 
L 42 24.609375 
z
M 59.625 31.203125 
L 59.625 0 
L 42 0 
L 42 8.109375 
Q 38.484375 3.125 34.078125 0.84375 
Q 29.6875 -1.421875 23.390625 -1.421875 
Q 14.890625 -1.421875 9.59375 3.53125 
Q 4.296875 8.5 4.296875 16.40625 
Q 4.296875 26.03125 10.90625 30.515625 
Q 17.53125 35.015625 31.6875 35.015625 
L 42 35.015625 
L 42 36.375 
Q 42 40.53125 38.71875 42.453125 
Q 35.453125 44.390625 28.515625 44.390625 
Q 22.90625 44.390625 18.0625 43.265625 
Q 13.234375 42.140625 9.078125 39.890625 
L 9.078125 53.21875 
Q 14.703125 54.59375 20.359375 55.296875 
Q 26.03125 56 31.6875 56 
Q 46.484375 56 53.046875 50.171875 
Q 59.625 44.34375 59.625 31.203125 
z
" id="DejaVuSans-Bold-97"/>
      <path d="M 44.390625 75.984375 
L 44.390625 64.5 
L 34.71875 64.5 
Q 31 64.5 29.53125 63.15625 
Q 28.078125 61.8125 28.078125 58.5 
L 28.078125 54.6875 
L 43.015625 54.6875 
L 43.015625 42.1875 
L 28.078125 42.1875 
L 28.078125 0 
L 10.59375 0 
L 10.59375 42.1875 
L 1.90625 42.1875 
L 1.90625 54.6875 
L 10.59375 54.6875 
L 10.59375 58.5 
Q 10.59375 67.4375 15.578125 71.703125 
Q 20.5625 75.984375 31 75.984375 
z
" id="DejaVuSans-Bold-102"/>
      <path d="M 27.484375 70.21875 
L 27.484375 54.6875 
L 45.515625 54.6875 
L 45.515625 42.1875 
L 27.484375 42.1875 
L 27.484375 19 
Q 27.484375 15.1875 29 13.84375 
Q 30.515625 12.5 35.015625 12.5 
L 44 12.5 
L 44 0 
L 29 0 
Q 18.65625 0 14.328125 4.3125 
Q 10.015625 8.640625 10.015625 19 
L 10.015625 42.1875 
L 1.3125 42.1875 
L 1.3125 54.6875 
L 10.015625 54.6875 
L 10.015625 70.21875 
z
" id="DejaVuSans-Bold-116"/>
      <path d="M 25.875 7.90625 
L 25.875 -20.796875 
L 8.40625 -20.796875 
L 8.40625 54.6875 
L 25.875 54.6875 
L 25.875 46.6875 
Q 29.5 51.46875 33.890625 53.734375 
Q 38.28125 56 44 56 
Q 54.109375 56 60.59375 47.96875 
Q 67.09375 39.9375 67.09375 27.296875 
Q 67.09375 14.65625 60.59375 6.609375 
Q 54.109375 -1.421875 44 -1.421875 
Q 38.28125 -1.421875 33.890625 0.84375 
Q 29.5 3.125 25.875 7.90625 
z
M 37.5 43.3125 
Q 31.890625 43.3125 28.875 39.1875 
Q 25.875 35.0625 25.875 27.296875 
Q 25.875 19.53125 28.875 15.40625 
Q 31.890625 11.28125 37.5 11.28125 
Q 43.109375 11.28125 46.0625 15.375 
Q 49.03125 19.484375 49.03125 27.296875 
Q 49.03125 35.109375 46.0625 39.203125 
Q 43.109375 43.3125 37.5 43.3125 
z
" id="DejaVuSans-Bold-112"/>
      <path d="M 5.421875 35.890625 
L 36.078125 35.890625 
L 36.078125 21.6875 
L 5.421875 21.6875 
z
" id="DejaVuSans-Bold-45"/>
      <path d="M 45.609375 9.28125 
Q 42 4.5 37.640625 2.25 
Q 33.296875 0 27.59375 0 
Q 17.578125 0 11.03125 7.875 
Q 4.5 15.765625 4.5 27.984375 
Q 4.5 40.234375 11.03125 48.0625 
Q 17.578125 55.90625 27.59375 55.90625 
Q 33.296875 55.90625 37.640625 53.65625 
Q 42 51.421875 45.609375 46.578125 
L 45.609375 54.6875 
L 63.1875 54.6875 
L 63.1875 5.515625 
Q 63.1875 -7.671875 54.859375 -14.625 
Q 46.53125 -21.578125 30.71875 -21.578125 
Q 25.59375 -21.578125 20.796875 -20.796875 
Q 16.015625 -20.015625 11.1875 -18.40625 
L 11.1875 -4.78125 
Q 15.765625 -7.421875 20.15625 -8.71875 
Q 24.5625 -10.015625 29 -10.015625 
Q 37.59375 -10.015625 41.59375 -6.25 
Q 45.609375 -2.484375 45.609375 5.515625 
z
M 34.078125 43.3125 
Q 28.65625 43.3125 25.625 39.296875 
Q 22.609375 35.296875 22.609375 27.984375 
Q 22.609375 20.453125 25.53125 16.578125 
Q 28.46875 12.703125 34.078125 12.703125 
Q 39.546875 12.703125 42.578125 16.703125 
Q 45.609375 20.703125 45.609375 27.984375 
Q 45.609375 35.296875 42.578125 39.296875 
Q 39.546875 43.3125 34.078125 43.3125 
z
" id="DejaVuSans-Bold-103"/>
     </defs>
     <use xlink:href="#DejaVuSans-Bold-84"/>
     <use x="68.212891" xlink:href="#DejaVuSans-Bold-105"/>
     <use x="102.490234" xlink:href="#DejaVuSans-Bold-109"/>
     <use x="206.689453" xlink:href="#DejaVuSans-Bold-101"/>
     <use x="274.511719" xlink:href="#DejaVuSans-Bold-99"/>
     <use x="333.789062" xlink:href="#DejaVuSans-Bold-111"/>
     <use x="402.490234" xlink:href="#DejaVuSans-Bold-117"/>
     <use x="473.681641" xlink:href="#DejaVuSans-Bold-114"/>
     <use x="522.998047" xlink:href="#DejaVuSans-Bold-115"/>
     <use x="582.519531" xlink:href="#DejaVuSans-Bold-101"/>
     <use x="650.341797" xlink:href="#DejaVuSans-Bold-32"/>
     <use x="685.15625" xlink:href="#DejaVuSans-Bold-97"/>
     <use x="752.636719" xlink:href="#DejaVuSans-Bold-102"/>
     <use x="796.142578" xlink:href="#DejaVuSans-Bold-116"/>
     <use x="843.945312" xlink:href="#DejaVuSans-Bold-101"/>
     <use x="911.767578" xlink:href="#DejaVuSans-Bold-114"/>
     <use x="961.083984" xlink:href="#DejaVuSans-Bold-32"/>
     <use x="995.898438" xlink:href="#DejaVuSans-Bold-112"/>
     <use x="1067.480469" xlink:href="#DejaVuSans-Bold-114"/>
     <use x="1116.796875" xlink:href="#DejaVuSans-Bold-101"/>
     <use x="1184.619141" xlink:href="#DejaVuSans-Bold-45"/>
     <use x="1226.123047" xlink:href="#DejaVuSans-Bold-112"/>
     <use x="1297.705078" xlink:href="#DejaVuSans-Bold-114"/>
     <use x="1347.021484" xlink:href="#DejaVuSans-Bold-111"/>
     <use x="1415.722656" xlink:href="#DejaVuSans-Bold-99"/>
     <use x="1475" xlink:href="#DejaVuSans-Bold-101"/>
     <use x="1542.822266" xlink:href="#DejaVuSans-Bold-115"/>
     <use x="1602.34375" xlink:href="#DejaVuSans-Bold-115"/>
     <use x="1661.865234" xlink:href="#DejaVuSans-Bold-105"/>
     <use x="1696.142578" xlink:href="#DejaVuSans-Bold-110"/>
     <use x="1767.333984" xlink:href="#DejaVuSans-Bold-103"/>
    </g>
   </g>
  </g>
 </g>
 <defs>
  <clipPath id="p1036c4a522">
   <rect height="277.2" width="390.6" x="64.251875" y="28.396875"/>
  </clipPath>
 </defs>
</svg>
