<?xml version="1.0" encoding="utf-8" standalone="no"?>
<!DOCTYPE svg PUBLIC "-//W3C//DTD SVG 1.1//EN"
  "http://www.w3.org/Graphics/SVG/1.1/DTD/svg11.dtd">
<!-- Created with matplotlib (https://matplotlib.org/) -->
<svg height="355.734688pt" version="1.1" viewBox="0 0 452.508125 355.734688" width="452.508125pt" xmlns="http://www.w3.org/2000/svg" xmlns:xlink="http://www.w3.org/1999/xlink">
 <metadata>
  <rdf:RDF xmlns:cc="http://creativecommons.org/ns#" xmlns:dc="http://purl.org/dc/elements/1.1/" xmlns:rdf="http://www.w3.org/1999/02/22-rdf-syntax-ns#">
   <cc:Work>
    <dc:type rdf:resource="http://purl.org/dc/dcmitype/StillImage"/>
    <dc:date>2021-03-25T13:03:59.919578</dc:date>
    <dc:format>image/svg+xml</dc:format>
    <dc:creator>
     <cc:Agent>
      <dc:title>Matplotlib v3.3.4, https://matplotlib.org/</dc:title>
     </cc:Agent>
    </dc:creator>
   </cc:Work>
  </rdf:RDF>
 </metadata>
 <defs>
  <style type="text/css">*{stroke-linecap:butt;stroke-linejoin:round;}</style>
 </defs>
 <g id="figure_1">
  <g id="patch_1">
   <path d="M 0 355.734688 
L 452.508125 355.734688 
L 452.508125 0 
L 0 0 
z
" style="fill:#ffffff;"/>
  </g>
  <g id="axes_1">
   <g id="patch_2">
    <path d="M 54.708125 305.596875 
L 445.308125 305.596875 
L 445.308125 28.396875 
L 54.708125 28.396875 
z
" style="fill:#ffffff;"/>
   </g>
   <g id="matplotlib.axis_1">
    <g id="xtick_1">
     <g id="line2d_1">
      <defs>
       <path d="M 0 0 
L 0 3.5 
" id="m4b18a48d67" style="stroke:#000000;stroke-width:0.8;"/>
      </defs>
      <g>
       <use style="stroke:#000000;stroke-width:0.8;" x="72.46267" xlink:href="#m4b18a48d67" y="305.596875"/>
      </g>
     </g>
     <g id="text_1">
      <!-- 0 -->
      <g transform="translate(67.690795 323.994531)scale(0.15 -0.15)">
       <defs>
        <path d="M 31.78125 66.40625 
Q 24.171875 66.40625 20.328125 58.90625 
Q 16.5 51.421875 16.5 36.375 
Q 16.5 21.390625 20.328125 13.890625 
Q 24.171875 6.390625 31.78125 6.390625 
Q 39.453125 6.390625 43.28125 13.890625 
Q 47.125 21.390625 47.125 36.375 
Q 47.125 51.421875 43.28125 58.90625 
Q 39.453125 66.40625 31.78125 66.40625 
z
M 31.78125 74.21875 
Q 44.046875 74.21875 50.515625 64.515625 
Q 56.984375 54.828125 56.984375 36.375 
Q 56.984375 17.96875 50.515625 8.265625 
Q 44.046875 -1.421875 31.78125 -1.421875 
Q 19.53125 -1.421875 13.0625 8.265625 
Q 6.59375 17.96875 6.59375 36.375 
Q 6.59375 54.828125 13.0625 64.515625 
Q 19.53125 74.21875 31.78125 74.21875 
z
" id="DejaVuSans-48"/>
       </defs>
       <use xlink:href="#DejaVuSans-48"/>
      </g>
     </g>
    </g>
    <g id="xtick_2">
     <g id="line2d_2">
      <g>
       <use style="stroke:#000000;stroke-width:0.8;" x="143.480852" xlink:href="#m4b18a48d67" y="305.596875"/>
      </g>
     </g>
     <g id="text_2">
      <!-- 2 -->
      <g transform="translate(138.708977 323.994531)scale(0.15 -0.15)">
       <defs>
        <path d="M 19.1875 8.296875 
L 53.609375 8.296875 
L 53.609375 0 
L 7.328125 0 
L 7.328125 8.296875 
Q 12.9375 14.109375 22.625 23.890625 
Q 32.328125 33.6875 34.8125 36.53125 
Q 39.546875 41.84375 41.421875 45.53125 
Q 43.3125 49.21875 43.3125 52.78125 
Q 43.3125 58.59375 39.234375 62.25 
Q 35.15625 65.921875 28.609375 65.921875 
Q 23.96875 65.921875 18.8125 64.3125 
Q 13.671875 62.703125 7.8125 59.421875 
L 7.8125 69.390625 
Q 13.765625 71.78125 18.9375 73 
Q 24.125 74.21875 28.421875 74.21875 
Q 39.75 74.21875 46.484375 68.546875 
Q 53.21875 62.890625 53.21875 53.421875 
Q 53.21875 48.921875 51.53125 44.890625 
Q 49.859375 40.875 45.40625 35.40625 
Q 44.1875 33.984375 37.640625 27.21875 
Q 31.109375 20.453125 19.1875 8.296875 
z
" id="DejaVuSans-50"/>
       </defs>
       <use xlink:href="#DejaVuSans-50"/>
      </g>
     </g>
    </g>
    <g id="xtick_3">
     <g id="line2d_3">
      <g>
       <use style="stroke:#000000;stroke-width:0.8;" x="214.499034" xlink:href="#m4b18a48d67" y="305.596875"/>
      </g>
     </g>
     <g id="text_3">
      <!-- 4 -->
      <g transform="translate(209.727159 323.994531)scale(0.15 -0.15)">
       <defs>
        <path d="M 37.796875 64.3125 
L 12.890625 25.390625 
L 37.796875 25.390625 
z
M 35.203125 72.90625 
L 47.609375 72.90625 
L 47.609375 25.390625 
L 58.015625 25.390625 
L 58.015625 17.1875 
L 47.609375 17.1875 
L 47.609375 0 
L 37.796875 0 
L 37.796875 17.1875 
L 4.890625 17.1875 
L 4.890625 26.703125 
z
" id="DejaVuSans-52"/>
       </defs>
       <use xlink:href="#DejaVuSans-52"/>
      </g>
     </g>
    </g>
    <g id="xtick_4">
     <g id="line2d_4">
      <g>
       <use style="stroke:#000000;stroke-width:0.8;" x="285.517216" xlink:href="#m4b18a48d67" y="305.596875"/>
      </g>
     </g>
     <g id="text_4">
      <!-- 6 -->
      <g transform="translate(280.745341 323.994531)scale(0.15 -0.15)">
       <defs>
        <path d="M 33.015625 40.375 
Q 26.375 40.375 22.484375 35.828125 
Q 18.609375 31.296875 18.609375 23.390625 
Q 18.609375 15.53125 22.484375 10.953125 
Q 26.375 6.390625 33.015625 6.390625 
Q 39.65625 6.390625 43.53125 10.953125 
Q 47.40625 15.53125 47.40625 23.390625 
Q 47.40625 31.296875 43.53125 35.828125 
Q 39.65625 40.375 33.015625 40.375 
z
M 52.59375 71.296875 
L 52.59375 62.3125 
Q 48.875 64.0625 45.09375 64.984375 
Q 41.3125 65.921875 37.59375 65.921875 
Q 27.828125 65.921875 22.671875 59.328125 
Q 17.53125 52.734375 16.796875 39.40625 
Q 19.671875 43.65625 24.015625 45.921875 
Q 28.375 48.1875 33.59375 48.1875 
Q 44.578125 48.1875 50.953125 41.515625 
Q 57.328125 34.859375 57.328125 23.390625 
Q 57.328125 12.15625 50.6875 5.359375 
Q 44.046875 -1.421875 33.015625 -1.421875 
Q 20.359375 -1.421875 13.671875 8.265625 
Q 6.984375 17.96875 6.984375 36.375 
Q 6.984375 53.65625 15.1875 63.9375 
Q 23.390625 74.21875 37.203125 74.21875 
Q 40.921875 74.21875 44.703125 73.484375 
Q 48.484375 72.75 52.59375 71.296875 
z
" id="DejaVuSans-54"/>
       </defs>
       <use xlink:href="#DejaVuSans-54"/>
      </g>
     </g>
    </g>
    <g id="xtick_5">
     <g id="line2d_5">
      <g>
       <use style="stroke:#000000;stroke-width:0.8;" x="356.535398" xlink:href="#m4b18a48d67" y="305.596875"/>
      </g>
     </g>
     <g id="text_5">
      <!-- 8 -->
      <g transform="translate(351.763523 323.994531)scale(0.15 -0.15)">
       <defs>
        <path d="M 31.78125 34.625 
Q 24.75 34.625 20.71875 30.859375 
Q 16.703125 27.09375 16.703125 20.515625 
Q 16.703125 13.921875 20.71875 10.15625 
Q 24.75 6.390625 31.78125 6.390625 
Q 38.8125 6.390625 42.859375 10.171875 
Q 46.921875 13.96875 46.921875 20.515625 
Q 46.921875 27.09375 42.890625 30.859375 
Q 38.875 34.625 31.78125 34.625 
z
M 21.921875 38.8125 
Q 15.578125 40.375 12.03125 44.71875 
Q 8.5 49.078125 8.5 55.328125 
Q 8.5 64.0625 14.71875 69.140625 
Q 20.953125 74.21875 31.78125 74.21875 
Q 42.671875 74.21875 48.875 69.140625 
Q 55.078125 64.0625 55.078125 55.328125 
Q 55.078125 49.078125 51.53125 44.71875 
Q 48 40.375 41.703125 38.8125 
Q 48.828125 37.15625 52.796875 32.3125 
Q 56.78125 27.484375 56.78125 20.515625 
Q 56.78125 9.90625 50.3125 4.234375 
Q 43.84375 -1.421875 31.78125 -1.421875 
Q 19.734375 -1.421875 13.25 4.234375 
Q 6.78125 9.90625 6.78125 20.515625 
Q 6.78125 27.484375 10.78125 32.3125 
Q 14.796875 37.15625 21.921875 38.8125 
z
M 18.3125 54.390625 
Q 18.3125 48.734375 21.84375 45.5625 
Q 25.390625 42.390625 31.78125 42.390625 
Q 38.140625 42.390625 41.71875 45.5625 
Q 45.3125 48.734375 45.3125 54.390625 
Q 45.3125 60.0625 41.71875 63.234375 
Q 38.140625 66.40625 31.78125 66.40625 
Q 25.390625 66.40625 21.84375 63.234375 
Q 18.3125 60.0625 18.3125 54.390625 
z
" id="DejaVuSans-56"/>
       </defs>
       <use xlink:href="#DejaVuSans-56"/>
      </g>
     </g>
    </g>
    <g id="xtick_6">
     <g id="line2d_6">
      <g>
       <use style="stroke:#000000;stroke-width:0.8;" x="427.55358" xlink:href="#m4b18a48d67" y="305.596875"/>
      </g>
     </g>
     <g id="text_6">
      <!-- 10 -->
      <g transform="translate(418.00983 323.994531)scale(0.15 -0.15)">
       <defs>
        <path d="M 12.40625 8.296875 
L 28.515625 8.296875 
L 28.515625 63.921875 
L 10.984375 60.40625 
L 10.984375 69.390625 
L 28.421875 72.90625 
L 38.28125 72.90625 
L 38.28125 8.296875 
L 54.390625 8.296875 
L 54.390625 0 
L 12.40625 0 
z
" id="DejaVuSans-49"/>
       </defs>
       <use xlink:href="#DejaVuSans-49"/>
       <use x="63.623047" xlink:href="#DejaVuSans-48"/>
      </g>
     </g>
    </g>
    <g id="text_7">
     <!-- None [None] -->
     <g transform="translate(186.195312 344.79125)scale(0.18 -0.18)">
      <defs>
       <path d="M 9.1875 72.90625 
L 30.171875 72.90625 
L 56.6875 22.90625 
L 56.6875 72.90625 
L 74.515625 72.90625 
L 74.515625 0 
L 53.515625 0 
L 27 50 
L 27 0 
L 9.1875 0 
z
" id="DejaVuSans-Bold-78"/>
       <path d="M 34.421875 43.5 
Q 28.609375 43.5 25.5625 39.328125 
Q 22.515625 35.15625 22.515625 27.296875 
Q 22.515625 19.4375 25.5625 15.25 
Q 28.609375 11.078125 34.421875 11.078125 
Q 40.140625 11.078125 43.15625 15.25 
Q 46.1875 19.4375 46.1875 27.296875 
Q 46.1875 35.15625 43.15625 39.328125 
Q 40.140625 43.5 34.421875 43.5 
z
M 34.421875 56 
Q 48.53125 56 56.46875 48.375 
Q 64.40625 40.765625 64.40625 27.296875 
Q 64.40625 13.8125 56.46875 6.1875 
Q 48.53125 -1.421875 34.421875 -1.421875 
Q 20.265625 -1.421875 12.28125 6.1875 
Q 4.296875 13.8125 4.296875 27.296875 
Q 4.296875 40.765625 12.28125 48.375 
Q 20.265625 56 34.421875 56 
z
" id="DejaVuSans-Bold-111"/>
       <path d="M 63.375 33.296875 
L 63.375 0 
L 45.796875 0 
L 45.796875 5.421875 
L 45.796875 25.484375 
Q 45.796875 32.5625 45.484375 35.25 
Q 45.171875 37.9375 44.390625 39.203125 
Q 43.359375 40.921875 41.59375 41.875 
Q 39.84375 42.828125 37.59375 42.828125 
Q 32.125 42.828125 29 38.59375 
Q 25.875 34.375 25.875 26.90625 
L 25.875 0 
L 8.40625 0 
L 8.40625 54.6875 
L 25.875 54.6875 
L 25.875 46.6875 
Q 29.828125 51.46875 34.265625 53.734375 
Q 38.71875 56 44.09375 56 
Q 53.5625 56 58.46875 50.1875 
Q 63.375 44.390625 63.375 33.296875 
z
" id="DejaVuSans-Bold-110"/>
       <path d="M 62.984375 27.484375 
L 62.984375 22.515625 
L 22.125 22.515625 
Q 22.75 16.359375 26.5625 13.28125 
Q 30.375 10.203125 37.203125 10.203125 
Q 42.71875 10.203125 48.5 11.84375 
Q 54.296875 13.484375 60.40625 16.796875 
L 60.40625 3.328125 
Q 54.203125 0.984375 48 -0.21875 
Q 41.796875 -1.421875 35.59375 -1.421875 
Q 20.75 -1.421875 12.515625 6.125 
Q 4.296875 13.671875 4.296875 27.296875 
Q 4.296875 40.671875 12.375 48.328125 
Q 20.453125 56 34.625 56 
Q 47.515625 56 55.25 48.234375 
Q 62.984375 40.484375 62.984375 27.484375 
z
M 45.015625 33.296875 
Q 45.015625 38.28125 42.109375 41.328125 
Q 39.203125 44.390625 34.515625 44.390625 
Q 29.4375 44.390625 26.265625 41.53125 
Q 23.09375 38.671875 22.3125 33.296875 
z
" id="DejaVuSans-Bold-101"/>
       <path id="DejaVuSans-Bold-32"/>
       <path d="M 8.59375 75.984375 
L 38.921875 75.984375 
L 38.921875 64.984375 
L 25.203125 64.984375 
L 25.203125 -2.203125 
L 38.921875 -2.203125 
L 38.921875 -13.1875 
L 8.59375 -13.1875 
z
" id="DejaVuSans-Bold-91"/>
       <path d="M 37.109375 -13.1875 
L 6.78125 -13.1875 
L 6.78125 -2.203125 
L 20.515625 -2.203125 
L 20.515625 64.984375 
L 6.78125 64.984375 
L 6.78125 75.984375 
L 37.109375 75.984375 
z
" id="DejaVuSans-Bold-93"/>
      </defs>
      <use xlink:href="#DejaVuSans-Bold-78"/>
      <use x="83.691406" xlink:href="#DejaVuSans-Bold-111"/>
      <use x="152.392578" xlink:href="#DejaVuSans-Bold-110"/>
      <use x="223.583984" xlink:href="#DejaVuSans-Bold-101"/>
      <use x="291.40625" xlink:href="#DejaVuSans-Bold-32"/>
      <use x="326.220703" xlink:href="#DejaVuSans-Bold-91"/>
      <use x="371.923828" xlink:href="#DejaVuSans-Bold-78"/>
      <use x="455.615234" xlink:href="#DejaVuSans-Bold-111"/>
      <use x="524.316406" xlink:href="#DejaVuSans-Bold-110"/>
      <use x="595.507812" xlink:href="#DejaVuSans-Bold-101"/>
      <use x="663.330078" xlink:href="#DejaVuSans-Bold-93"/>
     </g>
    </g>
   </g>
   <g id="matplotlib.axis_2">
    <g id="ytick_1">
     <g id="line2d_7">
      <defs>
       <path d="M 0 0 
L -3.5 0 
" id="mc958def784" style="stroke:#000000;stroke-width:0.8;"/>
      </defs>
      <g>
       <use style="stroke:#000000;stroke-width:0.8;" x="54.708125" xlink:href="#mc958def784" y="301.955822"/>
      </g>
     </g>
     <g id="text_8">
      <!-- 0 -->
      <g transform="translate(38.164375 307.65465)scale(0.15 -0.15)">
       <use xlink:href="#DejaVuSans-48"/>
      </g>
     </g>
    </g>
    <g id="ytick_2">
     <g id="line2d_8">
      <g>
       <use style="stroke:#000000;stroke-width:0.8;" x="54.708125" xlink:href="#mc958def784" y="265.96677"/>
      </g>
     </g>
     <g id="text_9">
      <!-- 2 -->
      <g transform="translate(38.164375 271.665598)scale(0.15 -0.15)">
       <use xlink:href="#DejaVuSans-50"/>
      </g>
     </g>
    </g>
    <g id="ytick_3">
     <g id="line2d_9">
      <g>
       <use style="stroke:#000000;stroke-width:0.8;" x="54.708125" xlink:href="#mc958def784" y="229.977717"/>
      </g>
     </g>
     <g id="text_10">
      <!-- 4 -->
      <g transform="translate(38.164375 235.676545)scale(0.15 -0.15)">
       <use xlink:href="#DejaVuSans-52"/>
      </g>
     </g>
    </g>
    <g id="ytick_4">
     <g id="line2d_10">
      <g>
       <use style="stroke:#000000;stroke-width:0.8;" x="54.708125" xlink:href="#mc958def784" y="193.988664"/>
      </g>
     </g>
     <g id="text_11">
      <!-- 6 -->
      <g transform="translate(38.164375 199.687493)scale(0.15 -0.15)">
       <use xlink:href="#DejaVuSans-54"/>
      </g>
     </g>
    </g>
    <g id="ytick_5">
     <g id="line2d_11">
      <g>
       <use style="stroke:#000000;stroke-width:0.8;" x="54.708125" xlink:href="#mc958def784" y="157.999612"/>
      </g>
     </g>
     <g id="text_12">
      <!-- 8 -->
      <g transform="translate(38.164375 163.69844)scale(0.15 -0.15)">
       <use xlink:href="#DejaVuSans-56"/>
      </g>
     </g>
    </g>
    <g id="ytick_6">
     <g id="line2d_12">
      <g>
       <use style="stroke:#000000;stroke-width:0.8;" x="54.708125" xlink:href="#mc958def784" y="122.010559"/>
      </g>
     </g>
     <g id="text_13">
      <!-- 10 -->
      <g transform="translate(28.620625 127.709387)scale(0.15 -0.15)">
       <use xlink:href="#DejaVuSans-49"/>
       <use x="63.623047" xlink:href="#DejaVuSans-48"/>
      </g>
     </g>
    </g>
    <g id="ytick_7">
     <g id="line2d_13">
      <g>
       <use style="stroke:#000000;stroke-width:0.8;" x="54.708125" xlink:href="#mc958def784" y="86.021507"/>
      </g>
     </g>
     <g id="text_14">
      <!-- 12 -->
      <g transform="translate(28.620625 91.720335)scale(0.15 -0.15)">
       <use xlink:href="#DejaVuSans-49"/>
       <use x="63.623047" xlink:href="#DejaVuSans-50"/>
      </g>
     </g>
    </g>
    <g id="ytick_8">
     <g id="line2d_14">
      <g>
       <use style="stroke:#000000;stroke-width:0.8;" x="54.708125" xlink:href="#mc958def784" y="50.032454"/>
      </g>
     </g>
     <g id="text_15">
      <!-- 14 -->
      <g transform="translate(28.620625 55.731282)scale(0.15 -0.15)">
       <use xlink:href="#DejaVuSans-49"/>
       <use x="63.623047" xlink:href="#DejaVuSans-52"/>
      </g>
     </g>
    </g>
    <g id="text_16">
     <!-- None [None] -->
     <g transform="translate(20.877188 230.809687)rotate(-90)scale(0.18 -0.18)">
      <use xlink:href="#DejaVuSans-Bold-78"/>
      <use x="83.691406" xlink:href="#DejaVuSans-Bold-111"/>
      <use x="152.392578" xlink:href="#DejaVuSans-Bold-110"/>
      <use x="223.583984" xlink:href="#DejaVuSans-Bold-101"/>
      <use x="291.40625" xlink:href="#DejaVuSans-Bold-32"/>
      <use x="326.220703" xlink:href="#DejaVuSans-Bold-91"/>
      <use x="371.923828" xlink:href="#DejaVuSans-Bold-78"/>
      <use x="455.615234" xlink:href="#DejaVuSans-Bold-111"/>
      <use x="524.316406" xlink:href="#DejaVuSans-Bold-110"/>
      <use x="595.507812" xlink:href="#DejaVuSans-Bold-101"/>
      <use x="663.330078" xlink:href="#DejaVuSans-Bold-93"/>
     </g>
    </g>
   </g>
   <g id="line2d_15">
    <path clip-path="url(#p1229411de8)" d="M 72.46267 122.010559 
L 84.707185 139.695101 
L 96.951699 155.641652 
L 109.196213 170.021019 
L 121.440727 182.987221 
L 133.685241 194.679138 
L 145.929755 205.222005 
L 158.174269 214.728747 
L 170.418783 223.301192 
L 182.663297 231.031159 
L 194.907812 238.001446 
L 207.152326 244.286712 
L 219.39684 249.954279 
L 231.641354 255.064852 
L 243.885868 259.673172 
L 256.130382 263.828598 
L 268.374896 267.57564 
L 280.61941 270.954433 
L 292.863924 274.001167 
L 305.108438 276.748476 
L 317.352953 279.225787 
L 329.597467 281.459634 
L 341.841981 283.473945 
L 354.086495 285.290295 
L 366.331009 286.928138 
L 378.575523 288.405019 
L 390.820037 289.736756 
L 403.064551 290.937613 
L 415.309065 292.020453 
L 427.55358 292.996875 
" style="fill:none;stroke:#0000ff;stroke-dasharray:64,16,10,16;stroke-dashoffset:0;stroke-width:10;"/>
   </g>
   <g id="line2d_16">
    <path clip-path="url(#p1229411de8)" d="M 72.46267 211.983191 
L 84.707185 194.298649 
L 96.951699 178.352098 
L 109.196213 163.972731 
L 121.440727 151.006529 
L 133.685241 139.314612 
L 145.929755 128.771745 
L 158.174269 119.265003 
L 170.418783 110.692558 
L 182.663297 102.962591 
L 194.907812 95.992304 
L 207.152326 89.707038 
L 219.39684 84.039471 
L 231.641354 78.928898 
L 243.885868 74.320578 
L 256.130382 70.165152 
L 268.374896 66.41811 
L 280.61941 63.039317 
L 292.863924 59.992583 
L 305.108438 57.245274 
L 317.352953 54.767963 
L 329.597467 52.534116 
L 341.841981 50.519805 
L 354.086495 48.703455 
L 366.331009 47.065612 
L 378.575523 45.588731 
L 390.820037 44.256994 
L 403.064551 43.056137 
L 415.309065 41.973297 
L 427.55358 40.996875 
" style="fill:none;stroke:#ff0000;stroke-linecap:square;stroke-width:nan;"/>
    <defs>
     <path d="M -0 1.414214 
L 1.414214 0 
L 0 -1.414214 
L -1.414214 -0 
z
" id="m541052062a" style="stroke:#ff0000;stroke-linejoin:miter;"/>
    </defs>
    <g clip-path="url(#p1229411de8)">
     <use style="fill:#ffff00;stroke:#ff0000;stroke-linejoin:miter;" x="72.46267" xlink:href="#m541052062a" y="211.983191"/>
     <use style="fill:#ffff00;stroke:#ff0000;stroke-linejoin:miter;" x="84.707185" xlink:href="#m541052062a" y="194.298649"/>
     <use style="fill:#ffff00;stroke:#ff0000;stroke-linejoin:miter;" x="96.951699" xlink:href="#m541052062a" y="178.352098"/>
     <use style="fill:#ffff00;stroke:#ff0000;stroke-linejoin:miter;" x="109.196213" xlink:href="#m541052062a" y="163.972731"/>
     <use style="fill:#ffff00;stroke:#ff0000;stroke-linejoin:miter;" x="121.440727" xlink:href="#m541052062a" y="151.006529"/>
     <use style="fill:#ffff00;stroke:#ff0000;stroke-linejoin:miter;" x="133.685241" xlink:href="#m541052062a" y="139.314612"/>
     <use style="fill:#ffff00;stroke:#ff0000;stroke-linejoin:miter;" x="145.929755" xlink:href="#m541052062a" y="128.771745"/>
     <use style="fill:#ffff00;stroke:#ff0000;stroke-linejoin:miter;" x="158.174269" xlink:href="#m541052062a" y="119.265003"/>
     <use style="fill:#ffff00;stroke:#ff0000;stroke-linejoin:miter;" x="170.418783" xlink:href="#m541052062a" y="110.692558"/>
     <use style="fill:#ffff00;stroke:#ff0000;stroke-linejoin:miter;" x="182.663297" xlink:href="#m541052062a" y="102.962591"/>
     <use style="fill:#ffff00;stroke:#ff0000;stroke-linejoin:miter;" x="194.907812" xlink:href="#m541052062a" y="95.992304"/>
     <use style="fill:#ffff00;stroke:#ff0000;stroke-linejoin:miter;" x="207.152326" xlink:href="#m541052062a" y="89.707038"/>
     <use style="fill:#ffff00;stroke:#ff0000;stroke-linejoin:miter;" x="219.39684" xlink:href="#m541052062a" y="84.039471"/>
     <use style="fill:#ffff00;stroke:#ff0000;stroke-linejoin:miter;" x="231.641354" xlink:href="#m541052062a" y="78.928898"/>
     <use style="fill:#ffff00;stroke:#ff0000;stroke-linejoin:miter;" x="243.885868" xlink:href="#m541052062a" y="74.320578"/>
     <use style="fill:#ffff00;stroke:#ff0000;stroke-linejoin:miter;" x="256.130382" xlink:href="#m541052062a" y="70.165152"/>
     <use style="fill:#ffff00;stroke:#ff0000;stroke-linejoin:miter;" x="268.374896" xlink:href="#m541052062a" y="66.41811"/>
     <use style="fill:#ffff00;stroke:#ff0000;stroke-linejoin:miter;" x="280.61941" xlink:href="#m541052062a" y="63.039317"/>
     <use style="fill:#ffff00;stroke:#ff0000;stroke-linejoin:miter;" x="292.863924" xlink:href="#m541052062a" y="59.992583"/>
     <use style="fill:#ffff00;stroke:#ff0000;stroke-linejoin:miter;" x="305.108438" xlink:href="#m541052062a" y="57.245274"/>
     <use style="fill:#ffff00;stroke:#ff0000;stroke-linejoin:miter;" x="317.352953" xlink:href="#m541052062a" y="54.767963"/>
     <use style="fill:#ffff00;stroke:#ff0000;stroke-linejoin:miter;" x="329.597467" xlink:href="#m541052062a" y="52.534116"/>
     <use style="fill:#ffff00;stroke:#ff0000;stroke-linejoin:miter;" x="341.841981" xlink:href="#m541052062a" y="50.519805"/>
     <use style="fill:#ffff00;stroke:#ff0000;stroke-linejoin:miter;" x="354.086495" xlink:href="#m541052062a" y="48.703455"/>
     <use style="fill:#ffff00;stroke:#ff0000;stroke-linejoin:miter;" x="366.331009" xlink:href="#m541052062a" y="47.065612"/>
     <use style="fill:#ffff00;stroke:#ff0000;stroke-linejoin:miter;" x="378.575523" xlink:href="#m541052062a" y="45.588731"/>
     <use style="fill:#ffff00;stroke:#ff0000;stroke-linejoin:miter;" x="390.820037" xlink:href="#m541052062a" y="44.256994"/>
     <use style="fill:#ffff00;stroke:#ff0000;stroke-linejoin:miter;" x="403.064551" xlink:href="#m541052062a" y="43.056137"/>
     <use style="fill:#ffff00;stroke:#ff0000;stroke-linejoin:miter;" x="415.309065" xlink:href="#m541052062a" y="41.973297"/>
     <use style="fill:#ffff00;stroke:#ff0000;stroke-linejoin:miter;" x="427.55358" xlink:href="#m541052062a" y="40.996875"/>
    </g>
   </g>
   <g id="patch_3">
    <path d="M 54.708125 305.596875 
L 54.708125 28.396875 
" style="fill:none;stroke:#000000;stroke-linecap:square;stroke-linejoin:miter;stroke-width:0.8;"/>
   </g>
   <g id="patch_4">
    <path d="M 445.308125 305.596875 
L 445.308125 28.396875 
" style="fill:none;stroke:#000000;stroke-linecap:square;stroke-linejoin:miter;stroke-width:0.8;"/>
   </g>
   <g id="patch_5">
    <path d="M 54.708125 305.596875 
L 445.308125 305.596875 
" style="fill:none;stroke:#000000;stroke-linecap:square;stroke-linejoin:miter;stroke-width:0.8;"/>
   </g>
   <g id="patch_6">
    <path d="M 54.708125 28.396875 
L 445.308125 28.396875 
" style="fill:none;stroke:#000000;stroke-linecap:square;stroke-linejoin:miter;stroke-width:0.8;"/>
   </g>
   <g id="text_17">
    <!-- UniformTimecourse -->
    <g transform="translate(139.733125 22.396875)scale(0.2 -0.2)">
     <defs>
      <path d="M 9.1875 72.90625 
L 27.984375 72.90625 
L 27.984375 29.203125 
Q 27.984375 20.171875 30.9375 16.28125 
Q 33.890625 12.40625 40.578125 12.40625 
Q 47.3125 12.40625 50.265625 16.28125 
Q 53.21875 20.171875 53.21875 29.203125 
L 53.21875 72.90625 
L 72.015625 72.90625 
L 72.015625 29.203125 
Q 72.015625 13.71875 64.25 6.140625 
Q 56.5 -1.421875 40.578125 -1.421875 
Q 24.703125 -1.421875 16.9375 6.140625 
Q 9.1875 13.71875 9.1875 29.203125 
z
" id="DejaVuSans-Bold-85"/>
      <path d="M 8.40625 54.6875 
L 25.875 54.6875 
L 25.875 0 
L 8.40625 0 
z
M 8.40625 75.984375 
L 25.875 75.984375 
L 25.875 61.71875 
L 8.40625 61.71875 
z
" id="DejaVuSans-Bold-105"/>
      <path d="M 44.390625 75.984375 
L 44.390625 64.5 
L 34.71875 64.5 
Q 31 64.5 29.53125 63.15625 
Q 28.078125 61.8125 28.078125 58.5 
L 28.078125 54.6875 
L 43.015625 54.6875 
L 43.015625 42.1875 
L 28.078125 42.1875 
L 28.078125 0 
L 10.59375 0 
L 10.59375 42.1875 
L 1.90625 42.1875 
L 1.90625 54.6875 
L 10.59375 54.6875 
L 10.59375 58.5 
Q 10.59375 67.4375 15.578125 71.703125 
Q 20.5625 75.984375 31 75.984375 
z
" id="DejaVuSans-Bold-102"/>
      <path d="M 49.03125 39.796875 
Q 46.734375 40.875 44.453125 41.375 
Q 42.1875 41.890625 39.890625 41.890625 
Q 33.15625 41.890625 29.515625 37.5625 
Q 25.875 33.25 25.875 25.203125 
L 25.875 0 
L 8.40625 0 
L 8.40625 54.6875 
L 25.875 54.6875 
L 25.875 45.703125 
Q 29.25 51.078125 33.609375 53.53125 
Q 37.984375 56 44.09375 56 
Q 44.96875 56 45.984375 55.921875 
Q 47.015625 55.859375 48.96875 55.609375 
z
" id="DejaVuSans-Bold-114"/>
      <path d="M 59.078125 45.609375 
Q 62.40625 50.6875 66.96875 53.34375 
Q 71.53125 56 77 56 
Q 86.421875 56 91.359375 50.1875 
Q 96.296875 44.390625 96.296875 33.296875 
L 96.296875 0 
L 78.71875 0 
L 78.71875 28.515625 
Q 78.765625 29.15625 78.78125 29.828125 
Q 78.8125 30.515625 78.8125 31.78125 
Q 78.8125 37.59375 77.09375 40.203125 
Q 75.390625 42.828125 71.578125 42.828125 
Q 66.609375 42.828125 63.890625 38.71875 
Q 61.1875 34.625 61.078125 26.859375 
L 61.078125 0 
L 43.5 0 
L 43.5 28.515625 
Q 43.5 37.59375 41.9375 40.203125 
Q 40.375 42.828125 36.375 42.828125 
Q 31.34375 42.828125 28.609375 38.703125 
Q 25.875 34.578125 25.875 26.90625 
L 25.875 0 
L 8.296875 0 
L 8.296875 54.6875 
L 25.875 54.6875 
L 25.875 46.6875 
Q 29.109375 51.3125 33.28125 53.65625 
Q 37.453125 56 42.484375 56 
Q 48.140625 56 52.484375 53.265625 
Q 56.84375 50.53125 59.078125 45.609375 
z
" id="DejaVuSans-Bold-109"/>
      <path d="M 0.484375 72.90625 
L 67.671875 72.90625 
L 67.671875 58.6875 
L 43.5 58.6875 
L 43.5 0 
L 24.703125 0 
L 24.703125 58.6875 
L 0.484375 58.6875 
z
" id="DejaVuSans-Bold-84"/>
      <path d="M 52.59375 52.984375 
L 52.59375 38.71875 
Q 49.03125 41.15625 45.4375 42.328125 
Q 41.84375 43.5 37.984375 43.5 
Q 30.671875 43.5 26.59375 39.234375 
Q 22.515625 34.96875 22.515625 27.296875 
Q 22.515625 19.625 26.59375 15.34375 
Q 30.671875 11.078125 37.984375 11.078125 
Q 42.09375 11.078125 45.78125 12.296875 
Q 49.46875 13.53125 52.59375 15.921875 
L 52.59375 1.609375 
Q 48.484375 0.09375 44.265625 -0.65625 
Q 40.046875 -1.421875 35.796875 -1.421875 
Q 21 -1.421875 12.640625 6.171875 
Q 4.296875 13.765625 4.296875 27.296875 
Q 4.296875 40.828125 12.640625 48.40625 
Q 21 56 35.796875 56 
Q 40.09375 56 44.265625 55.25 
Q 48.4375 54.5 52.59375 52.984375 
z
" id="DejaVuSans-Bold-99"/>
      <path d="M 7.8125 21.296875 
L 7.8125 54.6875 
L 25.390625 54.6875 
L 25.390625 49.21875 
Q 25.390625 44.78125 25.34375 38.0625 
Q 25.296875 31.34375 25.296875 29.109375 
Q 25.296875 22.515625 25.640625 19.609375 
Q 25.984375 16.703125 26.8125 15.375 
Q 27.875 13.671875 29.609375 12.734375 
Q 31.34375 11.8125 33.59375 11.8125 
Q 39.0625 11.8125 42.1875 16.015625 
Q 45.3125 20.21875 45.3125 27.6875 
L 45.3125 54.6875 
L 62.796875 54.6875 
L 62.796875 0 
L 45.3125 0 
L 45.3125 7.90625 
Q 41.359375 3.125 36.9375 0.84375 
Q 32.515625 -1.421875 27.203125 -1.421875 
Q 17.71875 -1.421875 12.765625 4.390625 
Q 7.8125 10.203125 7.8125 21.296875 
z
" id="DejaVuSans-Bold-117"/>
      <path d="M 51.125 52.984375 
L 51.125 39.703125 
Q 45.515625 42.046875 40.28125 43.21875 
Q 35.0625 44.390625 30.421875 44.390625 
Q 25.4375 44.390625 23.015625 43.140625 
Q 20.609375 41.890625 20.609375 39.3125 
Q 20.609375 37.203125 22.4375 36.078125 
Q 24.265625 34.96875 29 34.421875 
L 32.078125 33.984375 
Q 45.515625 32.28125 50.140625 28.375 
Q 54.78125 24.46875 54.78125 16.109375 
Q 54.78125 7.375 48.328125 2.96875 
Q 41.890625 -1.421875 29.109375 -1.421875 
Q 23.6875 -1.421875 17.890625 -0.5625 
Q 12.109375 0.296875 6 2 
L 6 15.28125 
Q 11.234375 12.75 16.71875 11.46875 
Q 22.21875 10.203125 27.875 10.203125 
Q 33.015625 10.203125 35.59375 11.609375 
Q 38.1875 13.03125 38.1875 15.828125 
Q 38.1875 18.171875 36.40625 19.3125 
Q 34.625 20.453125 29.296875 21.09375 
L 26.21875 21.484375 
Q 14.546875 22.953125 9.859375 26.90625 
Q 5.171875 30.859375 5.171875 38.921875 
Q 5.171875 47.609375 11.125 51.796875 
Q 17.09375 56 29.390625 56 
Q 34.234375 56 39.546875 55.265625 
Q 44.875 54.546875 51.125 52.984375 
z
" id="DejaVuSans-Bold-115"/>
     </defs>
     <use xlink:href="#DejaVuSans-Bold-85"/>
     <use x="81.201172" xlink:href="#DejaVuSans-Bold-110"/>
     <use x="152.392578" xlink:href="#DejaVuSans-Bold-105"/>
     <use x="186.669922" xlink:href="#DejaVuSans-Bold-102"/>
     <use x="230.175781" xlink:href="#DejaVuSans-Bold-111"/>
     <use x="298.876953" xlink:href="#DejaVuSans-Bold-114"/>
     <use x="348.193359" xlink:href="#DejaVuSans-Bold-109"/>
     <use x="452.392578" xlink:href="#DejaVuSans-Bold-84"/>
     <use x="520.605469" xlink:href="#DejaVuSans-Bold-105"/>
     <use x="554.882812" xlink:href="#DejaVuSans-Bold-109"/>
     <use x="659.082031" xlink:href="#DejaVuSans-Bold-101"/>
     <use x="726.904297" xlink:href="#DejaVuSans-Bold-99"/>
     <use x="786.181641" xlink:href="#DejaVuSans-Bold-111"/>
     <use x="854.882812" xlink:href="#DejaVuSans-Bold-117"/>
     <use x="926.074219" xlink:href="#DejaVuSans-Bold-114"/>
     <use x="975.390625" xlink:href="#DejaVuSans-Bold-115"/>
     <use x="1034.912109" xlink:href="#DejaVuSans-Bold-101"/>
    </g>
   </g>
  </g>
 </g>
 <defs>
  <clipPath id="p1229411de8">
   <rect height="277.2" width="390.6" x="54.708125" y="28.396875"/>
  </clipPath>
 </defs>
</svg>
