<?xml version="1.0" encoding="utf-8" standalone="no"?>
<!DOCTYPE svg PUBLIC "-//W3C//DTD SVG 1.1//EN"
  "http://www.w3.org/Graphics/SVG/1.1/DTD/svg11.dtd">
<!-- Created with matplotlib (https://matplotlib.org/) -->
<svg height="334.314062pt" version="1.1" viewBox="0 0 431.0875 334.314062" width="431.0875pt" xmlns="http://www.w3.org/2000/svg" xmlns:xlink="http://www.w3.org/1999/xlink">
 <metadata>
  <rdf:RDF xmlns:cc="http://creativecommons.org/ns#" xmlns:dc="http://purl.org/dc/elements/1.1/" xmlns:rdf="http://www.w3.org/1999/02/22-rdf-syntax-ns#">
   <cc:Work>
    <dc:type rdf:resource="http://purl.org/dc/dcmitype/StillImage"/>
    <dc:date>2021-04-12T20:57:02.132464</dc:date>
    <dc:format>image/svg+xml</dc:format>
    <dc:creator>
     <cc:Agent>
      <dc:title>Matplotlib v3.3.4, https://matplotlib.org/</dc:title>
     </cc:Agent>
    </dc:creator>
   </cc:Work>
  </rdf:RDF>
 </metadata>
 <defs>
  <style type="text/css">*{stroke-linecap:butt;stroke-linejoin:round;}</style>
 </defs>
 <g id="figure_1">
  <g id="patch_1">
   <path d="M 0 334.314062 
L 431.0875 334.314062 
L 431.0875 0 
L 0 0 
z
" style="fill:#ffffff;"/>
  </g>
  <g id="axes_1">
   <g id="patch_2">
    <path d="M 33.2875 305.596875 
L 423.8875 305.596875 
L 423.8875 28.396875 
L 33.2875 28.396875 
z
" style="fill:#ffffff;"/>
   </g>
   <g id="matplotlib.axis_1">
    <g id="xtick_1">
     <g id="line2d_1">
      <defs>
       <path d="M 0 0 
L 0 3.5 
" id="m4a4cbc87b2" style="stroke:#000000;stroke-width:0.8;"/>
      </defs>
      <g>
       <use style="stroke:#000000;stroke-width:0.8;" x="51.042045" xlink:href="#m4a4cbc87b2" y="305.596875"/>
      </g>
     </g>
     <g id="text_1">
      <!-- 0 -->
      <g transform="translate(46.27017 323.994531)scale(0.15 -0.15)">
       <defs>
        <path d="M 31.78125 66.40625 
Q 24.171875 66.40625 20.328125 58.90625 
Q 16.5 51.421875 16.5 36.375 
Q 16.5 21.390625 20.328125 13.890625 
Q 24.171875 6.390625 31.78125 6.390625 
Q 39.453125 6.390625 43.28125 13.890625 
Q 47.125 21.390625 47.125 36.375 
Q 47.125 51.421875 43.28125 58.90625 
Q 39.453125 66.40625 31.78125 66.40625 
z
M 31.78125 74.21875 
Q 44.046875 74.21875 50.515625 64.515625 
Q 56.984375 54.828125 56.984375 36.375 
Q 56.984375 17.96875 50.515625 8.265625 
Q 44.046875 -1.421875 31.78125 -1.421875 
Q 19.53125 -1.421875 13.0625 8.265625 
Q 6.59375 17.96875 6.59375 36.375 
Q 6.59375 54.828125 13.0625 64.515625 
Q 19.53125 74.21875 31.78125 74.21875 
z
" id="DejaVuSans-48"/>
       </defs>
       <use xlink:href="#DejaVuSans-48"/>
      </g>
     </g>
    </g>
    <g id="xtick_2">
     <g id="line2d_2">
      <g>
       <use style="stroke:#000000;stroke-width:0.8;" x="122.060227" xlink:href="#m4a4cbc87b2" y="305.596875"/>
      </g>
     </g>
     <g id="text_2">
      <!-- 2 -->
      <g transform="translate(117.288352 323.994531)scale(0.15 -0.15)">
       <defs>
        <path d="M 19.1875 8.296875 
L 53.609375 8.296875 
L 53.609375 0 
L 7.328125 0 
L 7.328125 8.296875 
Q 12.9375 14.109375 22.625 23.890625 
Q 32.328125 33.6875 34.8125 36.53125 
Q 39.546875 41.84375 41.421875 45.53125 
Q 43.3125 49.21875 43.3125 52.78125 
Q 43.3125 58.59375 39.234375 62.25 
Q 35.15625 65.921875 28.609375 65.921875 
Q 23.96875 65.921875 18.8125 64.3125 
Q 13.671875 62.703125 7.8125 59.421875 
L 7.8125 69.390625 
Q 13.765625 71.78125 18.9375 73 
Q 24.125 74.21875 28.421875 74.21875 
Q 39.75 74.21875 46.484375 68.546875 
Q 53.21875 62.890625 53.21875 53.421875 
Q 53.21875 48.921875 51.53125 44.890625 
Q 49.859375 40.875 45.40625 35.40625 
Q 44.1875 33.984375 37.640625 27.21875 
Q 31.109375 20.453125 19.1875 8.296875 
z
" id="DejaVuSans-50"/>
       </defs>
       <use xlink:href="#DejaVuSans-50"/>
      </g>
     </g>
    </g>
    <g id="xtick_3">
     <g id="line2d_3">
      <g>
       <use style="stroke:#000000;stroke-width:0.8;" x="193.078409" xlink:href="#m4a4cbc87b2" y="305.596875"/>
      </g>
     </g>
     <g id="text_3">
      <!-- 4 -->
      <g transform="translate(188.306534 323.994531)scale(0.15 -0.15)">
       <defs>
        <path d="M 37.796875 64.3125 
L 12.890625 25.390625 
L 37.796875 25.390625 
z
M 35.203125 72.90625 
L 47.609375 72.90625 
L 47.609375 25.390625 
L 58.015625 25.390625 
L 58.015625 17.1875 
L 47.609375 17.1875 
L 47.609375 0 
L 37.796875 0 
L 37.796875 17.1875 
L 4.890625 17.1875 
L 4.890625 26.703125 
z
" id="DejaVuSans-52"/>
       </defs>
       <use xlink:href="#DejaVuSans-52"/>
      </g>
     </g>
    </g>
    <g id="xtick_4">
     <g id="line2d_4">
      <g>
       <use style="stroke:#000000;stroke-width:0.8;" x="264.096591" xlink:href="#m4a4cbc87b2" y="305.596875"/>
      </g>
     </g>
     <g id="text_4">
      <!-- 6 -->
      <g transform="translate(259.324716 323.994531)scale(0.15 -0.15)">
       <defs>
        <path d="M 33.015625 40.375 
Q 26.375 40.375 22.484375 35.828125 
Q 18.609375 31.296875 18.609375 23.390625 
Q 18.609375 15.53125 22.484375 10.953125 
Q 26.375 6.390625 33.015625 6.390625 
Q 39.65625 6.390625 43.53125 10.953125 
Q 47.40625 15.53125 47.40625 23.390625 
Q 47.40625 31.296875 43.53125 35.828125 
Q 39.65625 40.375 33.015625 40.375 
z
M 52.59375 71.296875 
L 52.59375 62.3125 
Q 48.875 64.0625 45.09375 64.984375 
Q 41.3125 65.921875 37.59375 65.921875 
Q 27.828125 65.921875 22.671875 59.328125 
Q 17.53125 52.734375 16.796875 39.40625 
Q 19.671875 43.65625 24.015625 45.921875 
Q 28.375 48.1875 33.59375 48.1875 
Q 44.578125 48.1875 50.953125 41.515625 
Q 57.328125 34.859375 57.328125 23.390625 
Q 57.328125 12.15625 50.6875 5.359375 
Q 44.046875 -1.421875 33.015625 -1.421875 
Q 20.359375 -1.421875 13.671875 8.265625 
Q 6.984375 17.96875 6.984375 36.375 
Q 6.984375 53.65625 15.1875 63.9375 
Q 23.390625 74.21875 37.203125 74.21875 
Q 40.921875 74.21875 44.703125 73.484375 
Q 48.484375 72.75 52.59375 71.296875 
z
" id="DejaVuSans-54"/>
       </defs>
       <use xlink:href="#DejaVuSans-54"/>
      </g>
     </g>
    </g>
    <g id="xtick_5">
     <g id="line2d_5">
      <g>
       <use style="stroke:#000000;stroke-width:0.8;" x="335.114773" xlink:href="#m4a4cbc87b2" y="305.596875"/>
      </g>
     </g>
     <g id="text_5">
      <!-- 8 -->
      <g transform="translate(330.342898 323.994531)scale(0.15 -0.15)">
       <defs>
        <path d="M 31.78125 34.625 
Q 24.75 34.625 20.71875 30.859375 
Q 16.703125 27.09375 16.703125 20.515625 
Q 16.703125 13.921875 20.71875 10.15625 
Q 24.75 6.390625 31.78125 6.390625 
Q 38.8125 6.390625 42.859375 10.171875 
Q 46.921875 13.96875 46.921875 20.515625 
Q 46.921875 27.09375 42.890625 30.859375 
Q 38.875 34.625 31.78125 34.625 
z
M 21.921875 38.8125 
Q 15.578125 40.375 12.03125 44.71875 
Q 8.5 49.078125 8.5 55.328125 
Q 8.5 64.0625 14.71875 69.140625 
Q 20.953125 74.21875 31.78125 74.21875 
Q 42.671875 74.21875 48.875 69.140625 
Q 55.078125 64.0625 55.078125 55.328125 
Q 55.078125 49.078125 51.53125 44.71875 
Q 48 40.375 41.703125 38.8125 
Q 48.828125 37.15625 52.796875 32.3125 
Q 56.78125 27.484375 56.78125 20.515625 
Q 56.78125 9.90625 50.3125 4.234375 
Q 43.84375 -1.421875 31.78125 -1.421875 
Q 19.734375 -1.421875 13.25 4.234375 
Q 6.78125 9.90625 6.78125 20.515625 
Q 6.78125 27.484375 10.78125 32.3125 
Q 14.796875 37.15625 21.921875 38.8125 
z
M 18.3125 54.390625 
Q 18.3125 48.734375 21.84375 45.5625 
Q 25.390625 42.390625 31.78125 42.390625 
Q 38.140625 42.390625 41.71875 45.5625 
Q 45.3125 48.734375 45.3125 54.390625 
Q 45.3125 60.0625 41.71875 63.234375 
Q 38.140625 66.40625 31.78125 66.40625 
Q 25.390625 66.40625 21.84375 63.234375 
Q 18.3125 60.0625 18.3125 54.390625 
z
" id="DejaVuSans-56"/>
       </defs>
       <use xlink:href="#DejaVuSans-56"/>
      </g>
     </g>
    </g>
    <g id="xtick_6">
     <g id="line2d_6">
      <g>
       <use style="stroke:#000000;stroke-width:0.8;" x="406.132955" xlink:href="#m4a4cbc87b2" y="305.596875"/>
      </g>
     </g>
     <g id="text_6">
      <!-- 10 -->
      <g transform="translate(396.589205 323.994531)scale(0.15 -0.15)">
       <defs>
        <path d="M 12.40625 8.296875 
L 28.515625 8.296875 
L 28.515625 63.921875 
L 10.984375 60.40625 
L 10.984375 69.390625 
L 28.421875 72.90625 
L 38.28125 72.90625 
L 38.28125 8.296875 
L 54.390625 8.296875 
L 54.390625 0 
L 12.40625 0 
z
" id="DejaVuSans-49"/>
       </defs>
       <use xlink:href="#DejaVuSans-49"/>
       <use x="63.623047" xlink:href="#DejaVuSans-48"/>
      </g>
     </g>
    </g>
   </g>
   <g id="matplotlib.axis_2">
    <g id="ytick_1">
     <g id="line2d_7">
      <defs>
       <path d="M 0 0 
L -3.5 0 
" id="ma3525b4b30" style="stroke:#000000;stroke-width:0.8;"/>
      </defs>
      <g>
       <use style="stroke:#000000;stroke-width:0.8;" x="33.2875" xlink:href="#ma3525b4b30" y="298.831805"/>
      </g>
     </g>
     <g id="text_7">
      <!-- 0 -->
      <g transform="translate(16.74375 304.530633)scale(0.15 -0.15)">
       <use xlink:href="#DejaVuSans-48"/>
      </g>
     </g>
    </g>
    <g id="ytick_2">
     <g id="line2d_8">
      <g>
       <use style="stroke:#000000;stroke-width:0.8;" x="33.2875" xlink:href="#ma3525b4b30" y="240.232957"/>
      </g>
     </g>
     <g id="text_8">
      <!-- 5 -->
      <g transform="translate(16.74375 245.931785)scale(0.15 -0.15)">
       <defs>
        <path d="M 10.796875 72.90625 
L 49.515625 72.90625 
L 49.515625 64.59375 
L 19.828125 64.59375 
L 19.828125 46.734375 
Q 21.96875 47.46875 24.109375 47.828125 
Q 26.265625 48.1875 28.421875 48.1875 
Q 40.625 48.1875 47.75 41.5 
Q 54.890625 34.8125 54.890625 23.390625 
Q 54.890625 11.625 47.5625 5.09375 
Q 40.234375 -1.421875 26.90625 -1.421875 
Q 22.3125 -1.421875 17.546875 -0.640625 
Q 12.796875 0.140625 7.71875 1.703125 
L 7.71875 11.625 
Q 12.109375 9.234375 16.796875 8.0625 
Q 21.484375 6.890625 26.703125 6.890625 
Q 35.15625 6.890625 40.078125 11.328125 
Q 45.015625 15.765625 45.015625 23.390625 
Q 45.015625 31 40.078125 35.4375 
Q 35.15625 39.890625 26.703125 39.890625 
Q 22.75 39.890625 18.8125 39.015625 
Q 14.890625 38.140625 10.796875 36.28125 
z
" id="DejaVuSans-53"/>
       </defs>
       <use xlink:href="#DejaVuSans-53"/>
      </g>
     </g>
    </g>
    <g id="ytick_3">
     <g id="line2d_9">
      <g>
       <use style="stroke:#000000;stroke-width:0.8;" x="33.2875" xlink:href="#ma3525b4b30" y="181.634109"/>
      </g>
     </g>
     <g id="text_9">
      <!-- 10 -->
      <g transform="translate(7.2 187.332938)scale(0.15 -0.15)">
       <use xlink:href="#DejaVuSans-49"/>
       <use x="63.623047" xlink:href="#DejaVuSans-48"/>
      </g>
     </g>
    </g>
    <g id="ytick_4">
     <g id="line2d_10">
      <g>
       <use style="stroke:#000000;stroke-width:0.8;" x="33.2875" xlink:href="#ma3525b4b30" y="123.035262"/>
      </g>
     </g>
     <g id="text_10">
      <!-- 15 -->
      <g transform="translate(7.2 128.73409)scale(0.15 -0.15)">
       <use xlink:href="#DejaVuSans-49"/>
       <use x="63.623047" xlink:href="#DejaVuSans-53"/>
      </g>
     </g>
    </g>
    <g id="ytick_5">
     <g id="line2d_11">
      <g>
       <use style="stroke:#000000;stroke-width:0.8;" x="33.2875" xlink:href="#ma3525b4b30" y="64.436414"/>
      </g>
     </g>
     <g id="text_11">
      <!-- 20 -->
      <g transform="translate(7.2 70.135242)scale(0.15 -0.15)">
       <use xlink:href="#DejaVuSans-50"/>
       <use x="63.623047" xlink:href="#DejaVuSans-48"/>
      </g>
     </g>
    </g>
   </g>
   <g id="line2d_12"/>
   <g id="line2d_13">
    <defs>
     <path d="M -3 3 
L 3 3 
L 3 -3 
L -3 -3 
z
" id="m6aadc36209" style="stroke:#ff7f0e;stroke-linejoin:miter;"/>
    </defs>
    <g clip-path="url(#pd3938640e4)">
     <use style="stroke:#ff7f0e;stroke-linejoin:miter;" x="51.042045" xlink:href="#m6aadc36209" y="52.716645"/>
     <use style="stroke:#ff7f0e;stroke-linejoin:miter;" x="63.28656" xlink:href="#m6aadc36209" y="64.234522"/>
     <use style="stroke:#ff7f0e;stroke-linejoin:miter;" x="75.531074" xlink:href="#m6aadc36209" y="74.620453"/>
     <use style="stroke:#ff7f0e;stroke-linejoin:miter;" x="87.775588" xlink:href="#m6aadc36209" y="83.985683"/>
     <use style="stroke:#ff7f0e;stroke-linejoin:miter;" x="100.020102" xlink:href="#m6aadc36209" y="92.430522"/>
     <use style="stroke:#ff7f0e;stroke-linejoin:miter;" x="112.264616" xlink:href="#m6aadc36209" y="100.045426"/>
     <use style="stroke:#ff7f0e;stroke-linejoin:miter;" x="124.50913" xlink:href="#m6aadc36209" y="106.911956"/>
     <use style="stroke:#ff7f0e;stroke-linejoin:miter;" x="136.753644" xlink:href="#m6aadc36209" y="113.103663"/>
     <use style="stroke:#ff7f0e;stroke-linejoin:miter;" x="148.998158" xlink:href="#m6aadc36209" y="118.686865"/>
     <use style="stroke:#ff7f0e;stroke-linejoin:miter;" x="161.242672" xlink:href="#m6aadc36209" y="123.721365"/>
     <use style="stroke:#ff7f0e;stroke-linejoin:miter;" x="173.487187" xlink:href="#m6aadc36209" y="128.261087"/>
     <use style="stroke:#ff7f0e;stroke-linejoin:miter;" x="185.731701" xlink:href="#m6aadc36209" y="132.354658"/>
     <use style="stroke:#ff7f0e;stroke-linejoin:miter;" x="197.976215" xlink:href="#m6aadc36209" y="136.045924"/>
     <use style="stroke:#ff7f0e;stroke-linejoin:miter;" x="210.220729" xlink:href="#m6aadc36209" y="139.374421"/>
     <use style="stroke:#ff7f0e;stroke-linejoin:miter;" x="222.465243" xlink:href="#m6aadc36209" y="142.375803"/>
     <use style="stroke:#ff7f0e;stroke-linejoin:miter;" x="234.709757" xlink:href="#m6aadc36209" y="145.082217"/>
     <use style="stroke:#ff7f0e;stroke-linejoin:miter;" x="246.954271" xlink:href="#m6aadc36209" y="147.522652"/>
     <use style="stroke:#ff7f0e;stroke-linejoin:miter;" x="259.198785" xlink:href="#m6aadc36209" y="149.723248"/>
     <use style="stroke:#ff7f0e;stroke-linejoin:miter;" x="271.443299" xlink:href="#m6aadc36209" y="151.707574"/>
     <use style="stroke:#ff7f0e;stroke-linejoin:miter;" x="283.687813" xlink:href="#m6aadc36209" y="153.496887"/>
     <use style="stroke:#ff7f0e;stroke-linejoin:miter;" x="295.932328" xlink:href="#m6aadc36209" y="155.11035"/>
     <use style="stroke:#ff7f0e;stroke-linejoin:miter;" x="308.176842" xlink:href="#m6aadc36209" y="156.565247"/>
     <use style="stroke:#ff7f0e;stroke-linejoin:miter;" x="320.421356" xlink:href="#m6aadc36209" y="157.87716"/>
     <use style="stroke:#ff7f0e;stroke-linejoin:miter;" x="332.66587" xlink:href="#m6aadc36209" y="159.060142"/>
     <use style="stroke:#ff7f0e;stroke-linejoin:miter;" x="344.910384" xlink:href="#m6aadc36209" y="160.126864"/>
     <use style="stroke:#ff7f0e;stroke-linejoin:miter;" x="357.154898" xlink:href="#m6aadc36209" y="161.088751"/>
     <use style="stroke:#ff7f0e;stroke-linejoin:miter;" x="369.399412" xlink:href="#m6aadc36209" y="161.956106"/>
     <use style="stroke:#ff7f0e;stroke-linejoin:miter;" x="381.643926" xlink:href="#m6aadc36209" y="162.73822"/>
     <use style="stroke:#ff7f0e;stroke-linejoin:miter;" x="393.88844" xlink:href="#m6aadc36209" y="163.44347"/>
     <use style="stroke:#ff7f0e;stroke-linejoin:miter;" x="406.132955" xlink:href="#m6aadc36209" y="164.07941"/>
    </g>
   </g>
   <g id="line2d_14">
    <defs>
     <path d="M 0 3 
C 0.795609 3 1.55874 2.683901 2.12132 2.12132 
C 2.683901 1.55874 3 0.795609 3 0 
C 3 -0.795609 2.683901 -1.55874 2.12132 -2.12132 
C 1.55874 -2.683901 0.795609 -3 0 -3 
C -0.795609 -3 -1.55874 -2.683901 -2.12132 -2.12132 
C -2.683901 -1.55874 -3 -0.795609 -3 0 
C -3 0.795609 -2.683901 1.55874 -2.12132 2.12132 
C -1.55874 2.683901 -0.795609 3 0 3 
z
" id="mde7bd3a533" style="stroke:#2ca02c;"/>
    </defs>
    <g clip-path="url(#pd3938640e4)">
     <use style="stroke:#2ca02c;" x="51.042045" xlink:href="#mde7bd3a533" y="64.436414"/>
     <use style="stroke:#2ca02c;" x="63.28656" xlink:href="#mde7bd3a533" y="75.954292"/>
     <use style="stroke:#2ca02c;" x="75.531074" xlink:href="#mde7bd3a533" y="86.340223"/>
     <use style="stroke:#2ca02c;" x="87.775588" xlink:href="#mde7bd3a533" y="95.705452"/>
     <use style="stroke:#2ca02c;" x="100.020102" xlink:href="#mde7bd3a533" y="104.150292"/>
     <use style="stroke:#2ca02c;" x="112.264616" xlink:href="#mde7bd3a533" y="111.765195"/>
     <use style="stroke:#2ca02c;" x="124.50913" xlink:href="#mde7bd3a533" y="118.631726"/>
     <use style="stroke:#2ca02c;" x="136.753644" xlink:href="#mde7bd3a533" y="124.823432"/>
     <use style="stroke:#2ca02c;" x="148.998158" xlink:href="#mde7bd3a533" y="130.406634"/>
     <use style="stroke:#2ca02c;" x="161.242672" xlink:href="#mde7bd3a533" y="135.441134"/>
     <use style="stroke:#2ca02c;" x="173.487187" xlink:href="#mde7bd3a533" y="139.980857"/>
     <use style="stroke:#2ca02c;" x="185.731701" xlink:href="#mde7bd3a533" y="144.074428"/>
     <use style="stroke:#2ca02c;" x="197.976215" xlink:href="#mde7bd3a533" y="147.765693"/>
     <use style="stroke:#2ca02c;" x="210.220729" xlink:href="#mde7bd3a533" y="151.094191"/>
     <use style="stroke:#2ca02c;" x="222.465243" xlink:href="#mde7bd3a533" y="154.095573"/>
     <use style="stroke:#2ca02c;" x="234.709757" xlink:href="#mde7bd3a533" y="156.801987"/>
     <use style="stroke:#2ca02c;" x="246.954271" xlink:href="#mde7bd3a533" y="159.242422"/>
     <use style="stroke:#2ca02c;" x="259.198785" xlink:href="#mde7bd3a533" y="161.443017"/>
     <use style="stroke:#2ca02c;" x="271.443299" xlink:href="#mde7bd3a533" y="163.427344"/>
     <use style="stroke:#2ca02c;" x="283.687813" xlink:href="#mde7bd3a533" y="165.216656"/>
     <use style="stroke:#2ca02c;" x="295.932328" xlink:href="#mde7bd3a533" y="166.83012"/>
     <use style="stroke:#2ca02c;" x="308.176842" xlink:href="#mde7bd3a533" y="168.285017"/>
     <use style="stroke:#2ca02c;" x="320.421356" xlink:href="#mde7bd3a533" y="169.59693"/>
     <use style="stroke:#2ca02c;" x="332.66587" xlink:href="#mde7bd3a533" y="170.779912"/>
     <use style="stroke:#2ca02c;" x="344.910384" xlink:href="#mde7bd3a533" y="171.846633"/>
     <use style="stroke:#2ca02c;" x="357.154898" xlink:href="#mde7bd3a533" y="172.808521"/>
     <use style="stroke:#2ca02c;" x="369.399412" xlink:href="#mde7bd3a533" y="173.675876"/>
     <use style="stroke:#2ca02c;" x="381.643926" xlink:href="#mde7bd3a533" y="174.45799"/>
     <use style="stroke:#2ca02c;" x="393.88844" xlink:href="#mde7bd3a533" y="175.16324"/>
     <use style="stroke:#2ca02c;" x="406.132955" xlink:href="#mde7bd3a533" y="175.79918"/>
    </g>
   </g>
   <g id="line2d_15">
    <defs>
     <path d="M -0 4.242641 
L 4.242641 0 
L 0 -4.242641 
L -4.242641 -0 
z
" id="m2a018291fd" style="stroke:#d62728;stroke-linejoin:miter;"/>
    </defs>
    <g clip-path="url(#pd3938640e4)">
     <use style="stroke:#d62728;stroke-linejoin:miter;" x="51.042045" xlink:href="#m2a018291fd" y="76.156184"/>
     <use style="stroke:#d62728;stroke-linejoin:miter;" x="63.28656" xlink:href="#m2a018291fd" y="87.674061"/>
     <use style="stroke:#d62728;stroke-linejoin:miter;" x="75.531074" xlink:href="#m2a018291fd" y="98.059992"/>
     <use style="stroke:#d62728;stroke-linejoin:miter;" x="87.775588" xlink:href="#m2a018291fd" y="107.425222"/>
     <use style="stroke:#d62728;stroke-linejoin:miter;" x="100.020102" xlink:href="#m2a018291fd" y="115.870061"/>
     <use style="stroke:#d62728;stroke-linejoin:miter;" x="112.264616" xlink:href="#m2a018291fd" y="123.484965"/>
     <use style="stroke:#d62728;stroke-linejoin:miter;" x="124.50913" xlink:href="#m2a018291fd" y="130.351495"/>
     <use style="stroke:#d62728;stroke-linejoin:miter;" x="136.753644" xlink:href="#m2a018291fd" y="136.543202"/>
     <use style="stroke:#d62728;stroke-linejoin:miter;" x="148.998158" xlink:href="#m2a018291fd" y="142.126404"/>
     <use style="stroke:#d62728;stroke-linejoin:miter;" x="161.242672" xlink:href="#m2a018291fd" y="147.160904"/>
     <use style="stroke:#d62728;stroke-linejoin:miter;" x="173.487187" xlink:href="#m2a018291fd" y="151.700626"/>
     <use style="stroke:#d62728;stroke-linejoin:miter;" x="185.731701" xlink:href="#m2a018291fd" y="155.794197"/>
     <use style="stroke:#d62728;stroke-linejoin:miter;" x="197.976215" xlink:href="#m2a018291fd" y="159.485463"/>
     <use style="stroke:#d62728;stroke-linejoin:miter;" x="210.220729" xlink:href="#m2a018291fd" y="162.81396"/>
     <use style="stroke:#d62728;stroke-linejoin:miter;" x="222.465243" xlink:href="#m2a018291fd" y="165.815342"/>
     <use style="stroke:#d62728;stroke-linejoin:miter;" x="234.709757" xlink:href="#m2a018291fd" y="168.521756"/>
     <use style="stroke:#d62728;stroke-linejoin:miter;" x="246.954271" xlink:href="#m2a018291fd" y="170.962191"/>
     <use style="stroke:#d62728;stroke-linejoin:miter;" x="259.198785" xlink:href="#m2a018291fd" y="173.162787"/>
     <use style="stroke:#d62728;stroke-linejoin:miter;" x="271.443299" xlink:href="#m2a018291fd" y="175.147113"/>
     <use style="stroke:#d62728;stroke-linejoin:miter;" x="283.687813" xlink:href="#m2a018291fd" y="176.936426"/>
     <use style="stroke:#d62728;stroke-linejoin:miter;" x="295.932328" xlink:href="#m2a018291fd" y="178.549889"/>
     <use style="stroke:#d62728;stroke-linejoin:miter;" x="308.176842" xlink:href="#m2a018291fd" y="180.004786"/>
     <use style="stroke:#d62728;stroke-linejoin:miter;" x="320.421356" xlink:href="#m2a018291fd" y="181.316699"/>
     <use style="stroke:#d62728;stroke-linejoin:miter;" x="332.66587" xlink:href="#m2a018291fd" y="182.499681"/>
     <use style="stroke:#d62728;stroke-linejoin:miter;" x="344.910384" xlink:href="#m2a018291fd" y="183.566403"/>
     <use style="stroke:#d62728;stroke-linejoin:miter;" x="357.154898" xlink:href="#m2a018291fd" y="184.52829"/>
     <use style="stroke:#d62728;stroke-linejoin:miter;" x="369.399412" xlink:href="#m2a018291fd" y="185.395645"/>
     <use style="stroke:#d62728;stroke-linejoin:miter;" x="381.643926" xlink:href="#m2a018291fd" y="186.177759"/>
     <use style="stroke:#d62728;stroke-linejoin:miter;" x="393.88844" xlink:href="#m2a018291fd" y="186.883009"/>
     <use style="stroke:#d62728;stroke-linejoin:miter;" x="406.132955" xlink:href="#m2a018291fd" y="187.518949"/>
    </g>
   </g>
   <g id="line2d_16">
    <defs>
     <path d="M -3 3 
L 3 -3 
M -3 -3 
L 3 3 
" id="mc71155a7e9" style="stroke:#9467bd;"/>
    </defs>
    <g clip-path="url(#pd3938640e4)">
     <use style="stroke:#9467bd;" x="51.042045" xlink:href="#mc71155a7e9" y="87.875953"/>
     <use style="stroke:#9467bd;" x="63.28656" xlink:href="#mc71155a7e9" y="99.393831"/>
     <use style="stroke:#9467bd;" x="75.531074" xlink:href="#mc71155a7e9" y="109.779762"/>
     <use style="stroke:#9467bd;" x="87.775588" xlink:href="#mc71155a7e9" y="119.144991"/>
     <use style="stroke:#9467bd;" x="100.020102" xlink:href="#mc71155a7e9" y="127.589831"/>
     <use style="stroke:#9467bd;" x="112.264616" xlink:href="#mc71155a7e9" y="135.204734"/>
     <use style="stroke:#9467bd;" x="124.50913" xlink:href="#mc71155a7e9" y="142.071265"/>
     <use style="stroke:#9467bd;" x="136.753644" xlink:href="#mc71155a7e9" y="148.262971"/>
     <use style="stroke:#9467bd;" x="148.998158" xlink:href="#mc71155a7e9" y="153.846174"/>
     <use style="stroke:#9467bd;" x="161.242672" xlink:href="#mc71155a7e9" y="158.880673"/>
     <use style="stroke:#9467bd;" x="173.487187" xlink:href="#mc71155a7e9" y="163.420396"/>
     <use style="stroke:#9467bd;" x="185.731701" xlink:href="#mc71155a7e9" y="167.513967"/>
     <use style="stroke:#9467bd;" x="197.976215" xlink:href="#mc71155a7e9" y="171.205232"/>
     <use style="stroke:#9467bd;" x="210.220729" xlink:href="#mc71155a7e9" y="174.53373"/>
     <use style="stroke:#9467bd;" x="222.465243" xlink:href="#mc71155a7e9" y="177.535112"/>
     <use style="stroke:#9467bd;" x="234.709757" xlink:href="#mc71155a7e9" y="180.241526"/>
     <use style="stroke:#9467bd;" x="246.954271" xlink:href="#mc71155a7e9" y="182.681961"/>
     <use style="stroke:#9467bd;" x="259.198785" xlink:href="#mc71155a7e9" y="184.882556"/>
     <use style="stroke:#9467bd;" x="271.443299" xlink:href="#mc71155a7e9" y="186.866883"/>
     <use style="stroke:#9467bd;" x="283.687813" xlink:href="#mc71155a7e9" y="188.656195"/>
     <use style="stroke:#9467bd;" x="295.932328" xlink:href="#mc71155a7e9" y="190.269659"/>
     <use style="stroke:#9467bd;" x="308.176842" xlink:href="#mc71155a7e9" y="191.724556"/>
     <use style="stroke:#9467bd;" x="320.421356" xlink:href="#mc71155a7e9" y="193.036469"/>
     <use style="stroke:#9467bd;" x="332.66587" xlink:href="#mc71155a7e9" y="194.219451"/>
     <use style="stroke:#9467bd;" x="344.910384" xlink:href="#mc71155a7e9" y="195.286173"/>
     <use style="stroke:#9467bd;" x="357.154898" xlink:href="#mc71155a7e9" y="196.24806"/>
     <use style="stroke:#9467bd;" x="369.399412" xlink:href="#mc71155a7e9" y="197.115415"/>
     <use style="stroke:#9467bd;" x="381.643926" xlink:href="#mc71155a7e9" y="197.897529"/>
     <use style="stroke:#9467bd;" x="393.88844" xlink:href="#mc71155a7e9" y="198.602779"/>
     <use style="stroke:#9467bd;" x="406.132955" xlink:href="#mc71155a7e9" y="199.238719"/>
    </g>
   </g>
   <g id="line2d_17">
    <defs>
     <path d="M -3 0 
L 3 0 
M 0 3 
L 0 -3 
" id="m4a58e5701f" style="stroke:#8c564b;"/>
    </defs>
    <g clip-path="url(#pd3938640e4)">
     <use style="stroke:#8c564b;" x="51.042045" xlink:href="#m4a58e5701f" y="99.595723"/>
     <use style="stroke:#8c564b;" x="63.28656" xlink:href="#m4a58e5701f" y="111.1136"/>
     <use style="stroke:#8c564b;" x="75.531074" xlink:href="#m4a58e5701f" y="121.499531"/>
     <use style="stroke:#8c564b;" x="87.775588" xlink:href="#m4a58e5701f" y="130.864761"/>
     <use style="stroke:#8c564b;" x="100.020102" xlink:href="#m4a58e5701f" y="139.3096"/>
     <use style="stroke:#8c564b;" x="112.264616" xlink:href="#m4a58e5701f" y="146.924504"/>
     <use style="stroke:#8c564b;" x="124.50913" xlink:href="#m4a58e5701f" y="153.791035"/>
     <use style="stroke:#8c564b;" x="136.753644" xlink:href="#m4a58e5701f" y="159.982741"/>
     <use style="stroke:#8c564b;" x="148.998158" xlink:href="#m4a58e5701f" y="165.565943"/>
     <use style="stroke:#8c564b;" x="161.242672" xlink:href="#m4a58e5701f" y="170.600443"/>
     <use style="stroke:#8c564b;" x="173.487187" xlink:href="#m4a58e5701f" y="175.140166"/>
     <use style="stroke:#8c564b;" x="185.731701" xlink:href="#m4a58e5701f" y="179.233736"/>
     <use style="stroke:#8c564b;" x="197.976215" xlink:href="#m4a58e5701f" y="182.925002"/>
     <use style="stroke:#8c564b;" x="210.220729" xlink:href="#m4a58e5701f" y="186.2535"/>
     <use style="stroke:#8c564b;" x="222.465243" xlink:href="#m4a58e5701f" y="189.254881"/>
     <use style="stroke:#8c564b;" x="234.709757" xlink:href="#m4a58e5701f" y="191.961295"/>
     <use style="stroke:#8c564b;" x="246.954271" xlink:href="#m4a58e5701f" y="194.40173"/>
     <use style="stroke:#8c564b;" x="259.198785" xlink:href="#m4a58e5701f" y="196.602326"/>
     <use style="stroke:#8c564b;" x="271.443299" xlink:href="#m4a58e5701f" y="198.586653"/>
     <use style="stroke:#8c564b;" x="283.687813" xlink:href="#m4a58e5701f" y="200.375965"/>
     <use style="stroke:#8c564b;" x="295.932328" xlink:href="#m4a58e5701f" y="201.989429"/>
     <use style="stroke:#8c564b;" x="308.176842" xlink:href="#m4a58e5701f" y="203.444325"/>
     <use style="stroke:#8c564b;" x="320.421356" xlink:href="#m4a58e5701f" y="204.756239"/>
     <use style="stroke:#8c564b;" x="332.66587" xlink:href="#m4a58e5701f" y="205.93922"/>
     <use style="stroke:#8c564b;" x="344.910384" xlink:href="#m4a58e5701f" y="207.005942"/>
     <use style="stroke:#8c564b;" x="357.154898" xlink:href="#m4a58e5701f" y="207.967829"/>
     <use style="stroke:#8c564b;" x="369.399412" xlink:href="#m4a58e5701f" y="208.835185"/>
     <use style="stroke:#8c564b;" x="381.643926" xlink:href="#m4a58e5701f" y="209.617299"/>
     <use style="stroke:#8c564b;" x="393.88844" xlink:href="#m4a58e5701f" y="210.322548"/>
     <use style="stroke:#8c564b;" x="406.132955" xlink:href="#m4a58e5701f" y="210.958488"/>
    </g>
   </g>
   <g id="line2d_18">
    <defs>
     <path d="M 0 -3 
L -0.673542 -0.927051 
L -2.85317 -0.927051 
L -1.089814 0.354102 
L -1.763356 2.427051 
L -0 1.145898 
L 1.763356 2.427051 
L 1.089814 0.354102 
L 2.85317 -0.927051 
L 0.673542 -0.927051 
z
" id="md3596ad90a" style="stroke:#e377c2;stroke-linejoin:bevel;"/>
    </defs>
    <g clip-path="url(#pd3938640e4)">
     <use style="stroke:#e377c2;stroke-linejoin:bevel;" x="51.042045" xlink:href="#md3596ad90a" y="111.315492"/>
     <use style="stroke:#e377c2;stroke-linejoin:bevel;" x="63.28656" xlink:href="#md3596ad90a" y="122.83337"/>
     <use style="stroke:#e377c2;stroke-linejoin:bevel;" x="75.531074" xlink:href="#md3596ad90a" y="133.219301"/>
     <use style="stroke:#e377c2;stroke-linejoin:bevel;" x="87.775588" xlink:href="#md3596ad90a" y="142.58453"/>
     <use style="stroke:#e377c2;stroke-linejoin:bevel;" x="100.020102" xlink:href="#md3596ad90a" y="151.02937"/>
     <use style="stroke:#e377c2;stroke-linejoin:bevel;" x="112.264616" xlink:href="#md3596ad90a" y="158.644273"/>
     <use style="stroke:#e377c2;stroke-linejoin:bevel;" x="124.50913" xlink:href="#md3596ad90a" y="165.510804"/>
     <use style="stroke:#e377c2;stroke-linejoin:bevel;" x="136.753644" xlink:href="#md3596ad90a" y="171.702511"/>
     <use style="stroke:#e377c2;stroke-linejoin:bevel;" x="148.998158" xlink:href="#md3596ad90a" y="177.285713"/>
     <use style="stroke:#e377c2;stroke-linejoin:bevel;" x="161.242672" xlink:href="#md3596ad90a" y="182.320212"/>
     <use style="stroke:#e377c2;stroke-linejoin:bevel;" x="173.487187" xlink:href="#md3596ad90a" y="186.859935"/>
     <use style="stroke:#e377c2;stroke-linejoin:bevel;" x="185.731701" xlink:href="#md3596ad90a" y="190.953506"/>
     <use style="stroke:#e377c2;stroke-linejoin:bevel;" x="197.976215" xlink:href="#md3596ad90a" y="194.644771"/>
     <use style="stroke:#e377c2;stroke-linejoin:bevel;" x="210.220729" xlink:href="#md3596ad90a" y="197.973269"/>
     <use style="stroke:#e377c2;stroke-linejoin:bevel;" x="222.465243" xlink:href="#md3596ad90a" y="200.974651"/>
     <use style="stroke:#e377c2;stroke-linejoin:bevel;" x="234.709757" xlink:href="#md3596ad90a" y="203.681065"/>
     <use style="stroke:#e377c2;stroke-linejoin:bevel;" x="246.954271" xlink:href="#md3596ad90a" y="206.1215"/>
     <use style="stroke:#e377c2;stroke-linejoin:bevel;" x="259.198785" xlink:href="#md3596ad90a" y="208.322095"/>
     <use style="stroke:#e377c2;stroke-linejoin:bevel;" x="271.443299" xlink:href="#md3596ad90a" y="210.306422"/>
     <use style="stroke:#e377c2;stroke-linejoin:bevel;" x="283.687813" xlink:href="#md3596ad90a" y="212.095735"/>
     <use style="stroke:#e377c2;stroke-linejoin:bevel;" x="295.932328" xlink:href="#md3596ad90a" y="213.709198"/>
     <use style="stroke:#e377c2;stroke-linejoin:bevel;" x="308.176842" xlink:href="#md3596ad90a" y="215.164095"/>
     <use style="stroke:#e377c2;stroke-linejoin:bevel;" x="320.421356" xlink:href="#md3596ad90a" y="216.476008"/>
     <use style="stroke:#e377c2;stroke-linejoin:bevel;" x="332.66587" xlink:href="#md3596ad90a" y="217.65899"/>
     <use style="stroke:#e377c2;stroke-linejoin:bevel;" x="344.910384" xlink:href="#md3596ad90a" y="218.725712"/>
     <use style="stroke:#e377c2;stroke-linejoin:bevel;" x="357.154898" xlink:href="#md3596ad90a" y="219.687599"/>
     <use style="stroke:#e377c2;stroke-linejoin:bevel;" x="369.399412" xlink:href="#md3596ad90a" y="220.554954"/>
     <use style="stroke:#e377c2;stroke-linejoin:bevel;" x="381.643926" xlink:href="#md3596ad90a" y="221.337068"/>
     <use style="stroke:#e377c2;stroke-linejoin:bevel;" x="393.88844" xlink:href="#md3596ad90a" y="222.042318"/>
     <use style="stroke:#e377c2;stroke-linejoin:bevel;" x="406.132955" xlink:href="#md3596ad90a" y="222.678258"/>
    </g>
   </g>
   <g id="line2d_19">
    <defs>
     <path d="M 0 -3 
L -3 3 
L 3 3 
z
" id="md10e751368" style="stroke:#7f7f7f;stroke-linejoin:miter;"/>
    </defs>
    <g clip-path="url(#pd3938640e4)">
     <use style="stroke:#7f7f7f;stroke-linejoin:miter;" x="51.042045" xlink:href="#md10e751368" y="123.035262"/>
     <use style="stroke:#7f7f7f;stroke-linejoin:miter;" x="63.28656" xlink:href="#md10e751368" y="134.553139"/>
     <use style="stroke:#7f7f7f;stroke-linejoin:miter;" x="75.531074" xlink:href="#md10e751368" y="144.93907"/>
     <use style="stroke:#7f7f7f;stroke-linejoin:miter;" x="87.775588" xlink:href="#md10e751368" y="154.3043"/>
     <use style="stroke:#7f7f7f;stroke-linejoin:miter;" x="100.020102" xlink:href="#md10e751368" y="162.749139"/>
     <use style="stroke:#7f7f7f;stroke-linejoin:miter;" x="112.264616" xlink:href="#md10e751368" y="170.364043"/>
     <use style="stroke:#7f7f7f;stroke-linejoin:miter;" x="124.50913" xlink:href="#md10e751368" y="177.230574"/>
     <use style="stroke:#7f7f7f;stroke-linejoin:miter;" x="136.753644" xlink:href="#md10e751368" y="183.42228"/>
     <use style="stroke:#7f7f7f;stroke-linejoin:miter;" x="148.998158" xlink:href="#md10e751368" y="189.005482"/>
     <use style="stroke:#7f7f7f;stroke-linejoin:miter;" x="161.242672" xlink:href="#md10e751368" y="194.039982"/>
     <use style="stroke:#7f7f7f;stroke-linejoin:miter;" x="173.487187" xlink:href="#md10e751368" y="198.579705"/>
     <use style="stroke:#7f7f7f;stroke-linejoin:miter;" x="185.731701" xlink:href="#md10e751368" y="202.673275"/>
     <use style="stroke:#7f7f7f;stroke-linejoin:miter;" x="197.976215" xlink:href="#md10e751368" y="206.364541"/>
     <use style="stroke:#7f7f7f;stroke-linejoin:miter;" x="210.220729" xlink:href="#md10e751368" y="209.693039"/>
     <use style="stroke:#7f7f7f;stroke-linejoin:miter;" x="222.465243" xlink:href="#md10e751368" y="212.69442"/>
     <use style="stroke:#7f7f7f;stroke-linejoin:miter;" x="234.709757" xlink:href="#md10e751368" y="215.400835"/>
     <use style="stroke:#7f7f7f;stroke-linejoin:miter;" x="246.954271" xlink:href="#md10e751368" y="217.841269"/>
     <use style="stroke:#7f7f7f;stroke-linejoin:miter;" x="259.198785" xlink:href="#md10e751368" y="220.041865"/>
     <use style="stroke:#7f7f7f;stroke-linejoin:miter;" x="271.443299" xlink:href="#md10e751368" y="222.026192"/>
     <use style="stroke:#7f7f7f;stroke-linejoin:miter;" x="283.687813" xlink:href="#md10e751368" y="223.815504"/>
     <use style="stroke:#7f7f7f;stroke-linejoin:miter;" x="295.932328" xlink:href="#md10e751368" y="225.428968"/>
     <use style="stroke:#7f7f7f;stroke-linejoin:miter;" x="308.176842" xlink:href="#md10e751368" y="226.883864"/>
     <use style="stroke:#7f7f7f;stroke-linejoin:miter;" x="320.421356" xlink:href="#md10e751368" y="228.195778"/>
     <use style="stroke:#7f7f7f;stroke-linejoin:miter;" x="332.66587" xlink:href="#md10e751368" y="229.37876"/>
     <use style="stroke:#7f7f7f;stroke-linejoin:miter;" x="344.910384" xlink:href="#md10e751368" y="230.445481"/>
     <use style="stroke:#7f7f7f;stroke-linejoin:miter;" x="357.154898" xlink:href="#md10e751368" y="231.407368"/>
     <use style="stroke:#7f7f7f;stroke-linejoin:miter;" x="369.399412" xlink:href="#md10e751368" y="232.274724"/>
     <use style="stroke:#7f7f7f;stroke-linejoin:miter;" x="381.643926" xlink:href="#md10e751368" y="233.056838"/>
     <use style="stroke:#7f7f7f;stroke-linejoin:miter;" x="393.88844" xlink:href="#md10e751368" y="233.762088"/>
     <use style="stroke:#7f7f7f;stroke-linejoin:miter;" x="406.132955" xlink:href="#md10e751368" y="234.398027"/>
    </g>
   </g>
   <g id="line2d_20">
    <defs>
     <path d="M -0 3 
L 3 -3 
L -3 -3 
z
" id="ma83924dad8" style="stroke:#bcbd22;stroke-linejoin:miter;"/>
    </defs>
    <g clip-path="url(#pd3938640e4)">
     <use style="stroke:#bcbd22;stroke-linejoin:miter;" x="51.042045" xlink:href="#ma83924dad8" y="134.755031"/>
     <use style="stroke:#bcbd22;stroke-linejoin:miter;" x="63.28656" xlink:href="#ma83924dad8" y="146.272909"/>
     <use style="stroke:#bcbd22;stroke-linejoin:miter;" x="75.531074" xlink:href="#ma83924dad8" y="156.65884"/>
     <use style="stroke:#bcbd22;stroke-linejoin:miter;" x="87.775588" xlink:href="#ma83924dad8" y="166.024069"/>
     <use style="stroke:#bcbd22;stroke-linejoin:miter;" x="100.020102" xlink:href="#ma83924dad8" y="174.468909"/>
     <use style="stroke:#bcbd22;stroke-linejoin:miter;" x="112.264616" xlink:href="#ma83924dad8" y="182.083812"/>
     <use style="stroke:#bcbd22;stroke-linejoin:miter;" x="124.50913" xlink:href="#ma83924dad8" y="188.950343"/>
     <use style="stroke:#bcbd22;stroke-linejoin:miter;" x="136.753644" xlink:href="#ma83924dad8" y="195.14205"/>
     <use style="stroke:#bcbd22;stroke-linejoin:miter;" x="148.998158" xlink:href="#ma83924dad8" y="200.725252"/>
     <use style="stroke:#bcbd22;stroke-linejoin:miter;" x="161.242672" xlink:href="#ma83924dad8" y="205.759752"/>
     <use style="stroke:#bcbd22;stroke-linejoin:miter;" x="173.487187" xlink:href="#ma83924dad8" y="210.299474"/>
     <use style="stroke:#bcbd22;stroke-linejoin:miter;" x="185.731701" xlink:href="#ma83924dad8" y="214.393045"/>
     <use style="stroke:#bcbd22;stroke-linejoin:miter;" x="197.976215" xlink:href="#ma83924dad8" y="218.08431"/>
     <use style="stroke:#bcbd22;stroke-linejoin:miter;" x="210.220729" xlink:href="#ma83924dad8" y="221.412808"/>
     <use style="stroke:#bcbd22;stroke-linejoin:miter;" x="222.465243" xlink:href="#ma83924dad8" y="224.41419"/>
     <use style="stroke:#bcbd22;stroke-linejoin:miter;" x="234.709757" xlink:href="#ma83924dad8" y="227.120604"/>
     <use style="stroke:#bcbd22;stroke-linejoin:miter;" x="246.954271" xlink:href="#ma83924dad8" y="229.561039"/>
     <use style="stroke:#bcbd22;stroke-linejoin:miter;" x="259.198785" xlink:href="#ma83924dad8" y="231.761634"/>
     <use style="stroke:#bcbd22;stroke-linejoin:miter;" x="271.443299" xlink:href="#ma83924dad8" y="233.745961"/>
     <use style="stroke:#bcbd22;stroke-linejoin:miter;" x="283.687813" xlink:href="#ma83924dad8" y="235.535274"/>
     <use style="stroke:#bcbd22;stroke-linejoin:miter;" x="295.932328" xlink:href="#ma83924dad8" y="237.148737"/>
     <use style="stroke:#bcbd22;stroke-linejoin:miter;" x="308.176842" xlink:href="#ma83924dad8" y="238.603634"/>
     <use style="stroke:#bcbd22;stroke-linejoin:miter;" x="320.421356" xlink:href="#ma83924dad8" y="239.915547"/>
     <use style="stroke:#bcbd22;stroke-linejoin:miter;" x="332.66587" xlink:href="#ma83924dad8" y="241.098529"/>
     <use style="stroke:#bcbd22;stroke-linejoin:miter;" x="344.910384" xlink:href="#ma83924dad8" y="242.165251"/>
     <use style="stroke:#bcbd22;stroke-linejoin:miter;" x="357.154898" xlink:href="#ma83924dad8" y="243.127138"/>
     <use style="stroke:#bcbd22;stroke-linejoin:miter;" x="369.399412" xlink:href="#ma83924dad8" y="243.994493"/>
     <use style="stroke:#bcbd22;stroke-linejoin:miter;" x="381.643926" xlink:href="#ma83924dad8" y="244.776607"/>
     <use style="stroke:#bcbd22;stroke-linejoin:miter;" x="393.88844" xlink:href="#ma83924dad8" y="245.481857"/>
     <use style="stroke:#bcbd22;stroke-linejoin:miter;" x="406.132955" xlink:href="#ma83924dad8" y="246.117797"/>
    </g>
   </g>
   <g id="line2d_21">
    <defs>
     <path d="M -3 -0 
L 3 3 
L 3 -3 
z
" id="m7ba381f3ec" style="stroke:#17becf;stroke-linejoin:miter;"/>
    </defs>
    <g clip-path="url(#pd3938640e4)">
     <use style="stroke:#17becf;stroke-linejoin:miter;" x="51.042045" xlink:href="#m7ba381f3ec" y="146.474801"/>
     <use style="stroke:#17becf;stroke-linejoin:miter;" x="63.28656" xlink:href="#m7ba381f3ec" y="157.992678"/>
     <use style="stroke:#17becf;stroke-linejoin:miter;" x="75.531074" xlink:href="#m7ba381f3ec" y="168.378609"/>
     <use style="stroke:#17becf;stroke-linejoin:miter;" x="87.775588" xlink:href="#m7ba381f3ec" y="177.743839"/>
     <use style="stroke:#17becf;stroke-linejoin:miter;" x="100.020102" xlink:href="#m7ba381f3ec" y="186.188678"/>
     <use style="stroke:#17becf;stroke-linejoin:miter;" x="112.264616" xlink:href="#m7ba381f3ec" y="193.803582"/>
     <use style="stroke:#17becf;stroke-linejoin:miter;" x="124.50913" xlink:href="#m7ba381f3ec" y="200.670113"/>
     <use style="stroke:#17becf;stroke-linejoin:miter;" x="136.753644" xlink:href="#m7ba381f3ec" y="206.861819"/>
     <use style="stroke:#17becf;stroke-linejoin:miter;" x="148.998158" xlink:href="#m7ba381f3ec" y="212.445021"/>
     <use style="stroke:#17becf;stroke-linejoin:miter;" x="161.242672" xlink:href="#m7ba381f3ec" y="217.479521"/>
     <use style="stroke:#17becf;stroke-linejoin:miter;" x="173.487187" xlink:href="#m7ba381f3ec" y="222.019244"/>
     <use style="stroke:#17becf;stroke-linejoin:miter;" x="185.731701" xlink:href="#m7ba381f3ec" y="226.112814"/>
     <use style="stroke:#17becf;stroke-linejoin:miter;" x="197.976215" xlink:href="#m7ba381f3ec" y="229.80408"/>
     <use style="stroke:#17becf;stroke-linejoin:miter;" x="210.220729" xlink:href="#m7ba381f3ec" y="233.132578"/>
     <use style="stroke:#17becf;stroke-linejoin:miter;" x="222.465243" xlink:href="#m7ba381f3ec" y="236.13396"/>
     <use style="stroke:#17becf;stroke-linejoin:miter;" x="234.709757" xlink:href="#m7ba381f3ec" y="238.840374"/>
     <use style="stroke:#17becf;stroke-linejoin:miter;" x="246.954271" xlink:href="#m7ba381f3ec" y="241.280808"/>
     <use style="stroke:#17becf;stroke-linejoin:miter;" x="259.198785" xlink:href="#m7ba381f3ec" y="243.481404"/>
     <use style="stroke:#17becf;stroke-linejoin:miter;" x="271.443299" xlink:href="#m7ba381f3ec" y="245.465731"/>
     <use style="stroke:#17becf;stroke-linejoin:miter;" x="283.687813" xlink:href="#m7ba381f3ec" y="247.255043"/>
     <use style="stroke:#17becf;stroke-linejoin:miter;" x="295.932328" xlink:href="#m7ba381f3ec" y="248.868507"/>
     <use style="stroke:#17becf;stroke-linejoin:miter;" x="308.176842" xlink:href="#m7ba381f3ec" y="250.323403"/>
     <use style="stroke:#17becf;stroke-linejoin:miter;" x="320.421356" xlink:href="#m7ba381f3ec" y="251.635317"/>
     <use style="stroke:#17becf;stroke-linejoin:miter;" x="332.66587" xlink:href="#m7ba381f3ec" y="252.818299"/>
     <use style="stroke:#17becf;stroke-linejoin:miter;" x="344.910384" xlink:href="#m7ba381f3ec" y="253.88502"/>
     <use style="stroke:#17becf;stroke-linejoin:miter;" x="357.154898" xlink:href="#m7ba381f3ec" y="254.846907"/>
     <use style="stroke:#17becf;stroke-linejoin:miter;" x="369.399412" xlink:href="#m7ba381f3ec" y="255.714263"/>
     <use style="stroke:#17becf;stroke-linejoin:miter;" x="381.643926" xlink:href="#m7ba381f3ec" y="256.496377"/>
     <use style="stroke:#17becf;stroke-linejoin:miter;" x="393.88844" xlink:href="#m7ba381f3ec" y="257.201627"/>
     <use style="stroke:#17becf;stroke-linejoin:miter;" x="406.132955" xlink:href="#m7ba381f3ec" y="257.837566"/>
    </g>
   </g>
   <g id="line2d_22">
    <defs>
     <path d="M 3 0 
L -3 -3 
L -3 3 
z
" id="m5cedac3f8b" style="stroke:#1f77b4;stroke-linejoin:miter;"/>
    </defs>
    <g clip-path="url(#pd3938640e4)">
     <use style="stroke:#1f77b4;stroke-linejoin:miter;" x="51.042045" xlink:href="#m5cedac3f8b" y="158.19457"/>
     <use style="stroke:#1f77b4;stroke-linejoin:miter;" x="63.28656" xlink:href="#m5cedac3f8b" y="169.712448"/>
     <use style="stroke:#1f77b4;stroke-linejoin:miter;" x="75.531074" xlink:href="#m5cedac3f8b" y="180.098379"/>
     <use style="stroke:#1f77b4;stroke-linejoin:miter;" x="87.775588" xlink:href="#m5cedac3f8b" y="189.463608"/>
     <use style="stroke:#1f77b4;stroke-linejoin:miter;" x="100.020102" xlink:href="#m5cedac3f8b" y="197.908448"/>
     <use style="stroke:#1f77b4;stroke-linejoin:miter;" x="112.264616" xlink:href="#m5cedac3f8b" y="205.523351"/>
     <use style="stroke:#1f77b4;stroke-linejoin:miter;" x="124.50913" xlink:href="#m5cedac3f8b" y="212.389882"/>
     <use style="stroke:#1f77b4;stroke-linejoin:miter;" x="136.753644" xlink:href="#m5cedac3f8b" y="218.581589"/>
     <use style="stroke:#1f77b4;stroke-linejoin:miter;" x="148.998158" xlink:href="#m5cedac3f8b" y="224.164791"/>
     <use style="stroke:#1f77b4;stroke-linejoin:miter;" x="161.242672" xlink:href="#m5cedac3f8b" y="229.199291"/>
     <use style="stroke:#1f77b4;stroke-linejoin:miter;" x="173.487187" xlink:href="#m5cedac3f8b" y="233.739013"/>
     <use style="stroke:#1f77b4;stroke-linejoin:miter;" x="185.731701" xlink:href="#m5cedac3f8b" y="237.832584"/>
     <use style="stroke:#1f77b4;stroke-linejoin:miter;" x="197.976215" xlink:href="#m5cedac3f8b" y="241.523849"/>
     <use style="stroke:#1f77b4;stroke-linejoin:miter;" x="210.220729" xlink:href="#m5cedac3f8b" y="244.852347"/>
     <use style="stroke:#1f77b4;stroke-linejoin:miter;" x="222.465243" xlink:href="#m5cedac3f8b" y="247.853729"/>
     <use style="stroke:#1f77b4;stroke-linejoin:miter;" x="234.709757" xlink:href="#m5cedac3f8b" y="250.560143"/>
     <use style="stroke:#1f77b4;stroke-linejoin:miter;" x="246.954271" xlink:href="#m5cedac3f8b" y="253.000578"/>
     <use style="stroke:#1f77b4;stroke-linejoin:miter;" x="259.198785" xlink:href="#m5cedac3f8b" y="255.201173"/>
     <use style="stroke:#1f77b4;stroke-linejoin:miter;" x="271.443299" xlink:href="#m5cedac3f8b" y="257.1855"/>
     <use style="stroke:#1f77b4;stroke-linejoin:miter;" x="283.687813" xlink:href="#m5cedac3f8b" y="258.974813"/>
     <use style="stroke:#1f77b4;stroke-linejoin:miter;" x="295.932328" xlink:href="#m5cedac3f8b" y="260.588276"/>
     <use style="stroke:#1f77b4;stroke-linejoin:miter;" x="308.176842" xlink:href="#m5cedac3f8b" y="262.043173"/>
     <use style="stroke:#1f77b4;stroke-linejoin:miter;" x="320.421356" xlink:href="#m5cedac3f8b" y="263.355086"/>
     <use style="stroke:#1f77b4;stroke-linejoin:miter;" x="332.66587" xlink:href="#m5cedac3f8b" y="264.538068"/>
     <use style="stroke:#1f77b4;stroke-linejoin:miter;" x="344.910384" xlink:href="#m5cedac3f8b" y="265.60479"/>
     <use style="stroke:#1f77b4;stroke-linejoin:miter;" x="357.154898" xlink:href="#m5cedac3f8b" y="266.566677"/>
     <use style="stroke:#1f77b4;stroke-linejoin:miter;" x="369.399412" xlink:href="#m5cedac3f8b" y="267.434032"/>
     <use style="stroke:#1f77b4;stroke-linejoin:miter;" x="381.643926" xlink:href="#m5cedac3f8b" y="268.216146"/>
     <use style="stroke:#1f77b4;stroke-linejoin:miter;" x="393.88844" xlink:href="#m5cedac3f8b" y="268.921396"/>
     <use style="stroke:#1f77b4;stroke-linejoin:miter;" x="406.132955" xlink:href="#m5cedac3f8b" y="269.557336"/>
    </g>
   </g>
   <g id="line2d_23">
    <defs>
     <path d="M 3 0 
L -3 -0 
" id="m34dad37a89" style="stroke:#ff7f0e;"/>
    </defs>
    <g clip-path="url(#pd3938640e4)">
     <use style="stroke:#ff7f0e;" x="51.042045" xlink:href="#m34dad37a89" y="169.91434"/>
     <use style="stroke:#ff7f0e;" x="63.28656" xlink:href="#m34dad37a89" y="181.432217"/>
     <use style="stroke:#ff7f0e;" x="75.531074" xlink:href="#m34dad37a89" y="191.818148"/>
     <use style="stroke:#ff7f0e;" x="87.775588" xlink:href="#m34dad37a89" y="201.183378"/>
     <use style="stroke:#ff7f0e;" x="100.020102" xlink:href="#m34dad37a89" y="209.628218"/>
     <use style="stroke:#ff7f0e;" x="112.264616" xlink:href="#m34dad37a89" y="217.243121"/>
     <use style="stroke:#ff7f0e;" x="124.50913" xlink:href="#m34dad37a89" y="224.109652"/>
     <use style="stroke:#ff7f0e;" x="136.753644" xlink:href="#m34dad37a89" y="230.301358"/>
     <use style="stroke:#ff7f0e;" x="148.998158" xlink:href="#m34dad37a89" y="235.88456"/>
     <use style="stroke:#ff7f0e;" x="161.242672" xlink:href="#m34dad37a89" y="240.91906"/>
     <use style="stroke:#ff7f0e;" x="173.487187" xlink:href="#m34dad37a89" y="245.458783"/>
     <use style="stroke:#ff7f0e;" x="185.731701" xlink:href="#m34dad37a89" y="249.552353"/>
     <use style="stroke:#ff7f0e;" x="197.976215" xlink:href="#m34dad37a89" y="253.243619"/>
     <use style="stroke:#ff7f0e;" x="210.220729" xlink:href="#m34dad37a89" y="256.572117"/>
     <use style="stroke:#ff7f0e;" x="222.465243" xlink:href="#m34dad37a89" y="259.573499"/>
     <use style="stroke:#ff7f0e;" x="234.709757" xlink:href="#m34dad37a89" y="262.279913"/>
     <use style="stroke:#ff7f0e;" x="246.954271" xlink:href="#m34dad37a89" y="264.720348"/>
     <use style="stroke:#ff7f0e;" x="259.198785" xlink:href="#m34dad37a89" y="266.920943"/>
     <use style="stroke:#ff7f0e;" x="271.443299" xlink:href="#m34dad37a89" y="268.90527"/>
     <use style="stroke:#ff7f0e;" x="283.687813" xlink:href="#m34dad37a89" y="270.694582"/>
     <use style="stroke:#ff7f0e;" x="295.932328" xlink:href="#m34dad37a89" y="272.308046"/>
     <use style="stroke:#ff7f0e;" x="308.176842" xlink:href="#m34dad37a89" y="273.762942"/>
     <use style="stroke:#ff7f0e;" x="320.421356" xlink:href="#m34dad37a89" y="275.074856"/>
     <use style="stroke:#ff7f0e;" x="332.66587" xlink:href="#m34dad37a89" y="276.257838"/>
     <use style="stroke:#ff7f0e;" x="344.910384" xlink:href="#m34dad37a89" y="277.324559"/>
     <use style="stroke:#ff7f0e;" x="357.154898" xlink:href="#m34dad37a89" y="278.286446"/>
     <use style="stroke:#ff7f0e;" x="369.399412" xlink:href="#m34dad37a89" y="279.153802"/>
     <use style="stroke:#ff7f0e;" x="381.643926" xlink:href="#m34dad37a89" y="279.935916"/>
     <use style="stroke:#ff7f0e;" x="393.88844" xlink:href="#m34dad37a89" y="280.641166"/>
     <use style="stroke:#ff7f0e;" x="406.132955" xlink:href="#m34dad37a89" y="281.277105"/>
    </g>
   </g>
   <g id="line2d_24">
    <defs>
     <path d="M 0 3 
L 0 -3 
" id="m8ede6f7704" style="stroke:#2ca02c;"/>
    </defs>
    <g clip-path="url(#pd3938640e4)">
     <use style="stroke:#2ca02c;" x="51.042045" xlink:href="#m8ede6f7704" y="181.634109"/>
     <use style="stroke:#2ca02c;" x="63.28656" xlink:href="#m8ede6f7704" y="193.151987"/>
     <use style="stroke:#2ca02c;" x="75.531074" xlink:href="#m8ede6f7704" y="203.537918"/>
     <use style="stroke:#2ca02c;" x="87.775588" xlink:href="#m8ede6f7704" y="212.903147"/>
     <use style="stroke:#2ca02c;" x="100.020102" xlink:href="#m8ede6f7704" y="221.347987"/>
     <use style="stroke:#2ca02c;" x="112.264616" xlink:href="#m8ede6f7704" y="228.96289"/>
     <use style="stroke:#2ca02c;" x="124.50913" xlink:href="#m8ede6f7704" y="235.829421"/>
     <use style="stroke:#2ca02c;" x="136.753644" xlink:href="#m8ede6f7704" y="242.021128"/>
     <use style="stroke:#2ca02c;" x="148.998158" xlink:href="#m8ede6f7704" y="247.60433"/>
     <use style="stroke:#2ca02c;" x="161.242672" xlink:href="#m8ede6f7704" y="252.63883"/>
     <use style="stroke:#2ca02c;" x="173.487187" xlink:href="#m8ede6f7704" y="257.178552"/>
     <use style="stroke:#2ca02c;" x="185.731701" xlink:href="#m8ede6f7704" y="261.272123"/>
     <use style="stroke:#2ca02c;" x="197.976215" xlink:href="#m8ede6f7704" y="264.963388"/>
     <use style="stroke:#2ca02c;" x="210.220729" xlink:href="#m8ede6f7704" y="268.291886"/>
     <use style="stroke:#2ca02c;" x="222.465243" xlink:href="#m8ede6f7704" y="271.293268"/>
     <use style="stroke:#2ca02c;" x="234.709757" xlink:href="#m8ede6f7704" y="273.999682"/>
     <use style="stroke:#2ca02c;" x="246.954271" xlink:href="#m8ede6f7704" y="276.440117"/>
     <use style="stroke:#2ca02c;" x="259.198785" xlink:href="#m8ede6f7704" y="278.640713"/>
     <use style="stroke:#2ca02c;" x="271.443299" xlink:href="#m8ede6f7704" y="280.625039"/>
     <use style="stroke:#2ca02c;" x="283.687813" xlink:href="#m8ede6f7704" y="282.414352"/>
     <use style="stroke:#2ca02c;" x="295.932328" xlink:href="#m8ede6f7704" y="284.027815"/>
     <use style="stroke:#2ca02c;" x="308.176842" xlink:href="#m8ede6f7704" y="285.482712"/>
     <use style="stroke:#2ca02c;" x="320.421356" xlink:href="#m8ede6f7704" y="286.794625"/>
     <use style="stroke:#2ca02c;" x="332.66587" xlink:href="#m8ede6f7704" y="287.977607"/>
     <use style="stroke:#2ca02c;" x="344.910384" xlink:href="#m8ede6f7704" y="289.044329"/>
     <use style="stroke:#2ca02c;" x="357.154898" xlink:href="#m8ede6f7704" y="290.006216"/>
     <use style="stroke:#2ca02c;" x="369.399412" xlink:href="#m8ede6f7704" y="290.873571"/>
     <use style="stroke:#2ca02c;" x="381.643926" xlink:href="#m8ede6f7704" y="291.655685"/>
     <use style="stroke:#2ca02c;" x="393.88844" xlink:href="#m8ede6f7704" y="292.360935"/>
     <use style="stroke:#2ca02c;" x="406.132955" xlink:href="#m8ede6f7704" y="292.996875"/>
    </g>
   </g>
   <g id="patch_3">
    <path d="M 33.2875 305.596875 
L 33.2875 28.396875 
" style="fill:none;stroke:#000000;stroke-linecap:square;stroke-linejoin:miter;stroke-width:0.8;"/>
   </g>
   <g id="patch_4">
    <path d="M 423.8875 305.596875 
L 423.8875 28.396875 
" style="fill:none;stroke:#000000;stroke-linecap:square;stroke-linejoin:miter;stroke-width:0.8;"/>
   </g>
   <g id="patch_5">
    <path d="M 33.2875 305.596875 
L 423.8875 305.596875 
" style="fill:none;stroke:#000000;stroke-linecap:square;stroke-linejoin:miter;stroke-width:0.8;"/>
   </g>
   <g id="patch_6">
    <path d="M 33.2875 28.396875 
L 423.8875 28.396875 
" style="fill:none;stroke:#000000;stroke-linecap:square;stroke-linejoin:miter;stroke-width:0.8;"/>
   </g>
   <g id="text_12">
    <!-- MarkerTypes -->
    <g transform="translate(156.809375 22.396875)scale(0.2 -0.2)">
     <defs>
      <path d="M 9.1875 72.90625 
L 33.109375 72.90625 
L 49.703125 33.890625 
L 66.40625 72.90625 
L 90.28125 72.90625 
L 90.28125 0 
L 72.515625 0 
L 72.515625 53.328125 
L 55.71875 14.015625 
L 43.796875 14.015625 
L 27 53.328125 
L 27 0 
L 9.1875 0 
z
" id="DejaVuSans-Bold-77"/>
      <path d="M 32.90625 24.609375 
Q 27.4375 24.609375 24.671875 22.75 
Q 21.921875 20.90625 21.921875 17.28125 
Q 21.921875 13.96875 24.140625 12.078125 
Q 26.375 10.203125 30.328125 10.203125 
Q 35.25 10.203125 38.625 13.734375 
Q 42 17.28125 42 22.609375 
L 42 24.609375 
z
M 59.625 31.203125 
L 59.625 0 
L 42 0 
L 42 8.109375 
Q 38.484375 3.125 34.078125 0.84375 
Q 29.6875 -1.421875 23.390625 -1.421875 
Q 14.890625 -1.421875 9.59375 3.53125 
Q 4.296875 8.5 4.296875 16.40625 
Q 4.296875 26.03125 10.90625 30.515625 
Q 17.53125 35.015625 31.6875 35.015625 
L 42 35.015625 
L 42 36.375 
Q 42 40.53125 38.71875 42.453125 
Q 35.453125 44.390625 28.515625 44.390625 
Q 22.90625 44.390625 18.0625 43.265625 
Q 13.234375 42.140625 9.078125 39.890625 
L 9.078125 53.21875 
Q 14.703125 54.59375 20.359375 55.296875 
Q 26.03125 56 31.6875 56 
Q 46.484375 56 53.046875 50.171875 
Q 59.625 44.34375 59.625 31.203125 
z
" id="DejaVuSans-Bold-97"/>
      <path d="M 49.03125 39.796875 
Q 46.734375 40.875 44.453125 41.375 
Q 42.1875 41.890625 39.890625 41.890625 
Q 33.15625 41.890625 29.515625 37.5625 
Q 25.875 33.25 25.875 25.203125 
L 25.875 0 
L 8.40625 0 
L 8.40625 54.6875 
L 25.875 54.6875 
L 25.875 45.703125 
Q 29.25 51.078125 33.609375 53.53125 
Q 37.984375 56 44.09375 56 
Q 44.96875 56 45.984375 55.921875 
Q 47.015625 55.859375 48.96875 55.609375 
z
" id="DejaVuSans-Bold-114"/>
      <path d="M 8.40625 75.984375 
L 25.875 75.984375 
L 25.875 34.625 
L 46 54.6875 
L 66.3125 54.6875 
L 39.59375 29.59375 
L 68.40625 0 
L 47.21875 0 
L 25.875 22.796875 
L 25.875 0 
L 8.40625 0 
z
" id="DejaVuSans-Bold-107"/>
      <path d="M 62.984375 27.484375 
L 62.984375 22.515625 
L 22.125 22.515625 
Q 22.75 16.359375 26.5625 13.28125 
Q 30.375 10.203125 37.203125 10.203125 
Q 42.71875 10.203125 48.5 11.84375 
Q 54.296875 13.484375 60.40625 16.796875 
L 60.40625 3.328125 
Q 54.203125 0.984375 48 -0.21875 
Q 41.796875 -1.421875 35.59375 -1.421875 
Q 20.75 -1.421875 12.515625 6.125 
Q 4.296875 13.671875 4.296875 27.296875 
Q 4.296875 40.671875 12.375 48.328125 
Q 20.453125 56 34.625 56 
Q 47.515625 56 55.25 48.234375 
Q 62.984375 40.484375 62.984375 27.484375 
z
M 45.015625 33.296875 
Q 45.015625 38.28125 42.109375 41.328125 
Q 39.203125 44.390625 34.515625 44.390625 
Q 29.4375 44.390625 26.265625 41.53125 
Q 23.09375 38.671875 22.3125 33.296875 
z
" id="DejaVuSans-Bold-101"/>
      <path d="M 0.484375 72.90625 
L 67.671875 72.90625 
L 67.671875 58.6875 
L 43.5 58.6875 
L 43.5 0 
L 24.703125 0 
L 24.703125 58.6875 
L 0.484375 58.6875 
z
" id="DejaVuSans-Bold-84"/>
      <path d="M 1.21875 54.6875 
L 18.703125 54.6875 
L 33.40625 17.578125 
L 45.90625 54.6875 
L 63.375 54.6875 
L 40.375 -5.171875 
Q 36.921875 -14.3125 32.296875 -17.9375 
Q 27.6875 -21.578125 20.125 -21.578125 
L 10.015625 -21.578125 
L 10.015625 -10.109375 
L 15.484375 -10.109375 
Q 19.921875 -10.109375 21.9375 -8.6875 
Q 23.96875 -7.28125 25.09375 -3.609375 
L 25.59375 -2.09375 
z
" id="DejaVuSans-Bold-121"/>
      <path d="M 25.875 7.90625 
L 25.875 -20.796875 
L 8.40625 -20.796875 
L 8.40625 54.6875 
L 25.875 54.6875 
L 25.875 46.6875 
Q 29.5 51.46875 33.890625 53.734375 
Q 38.28125 56 44 56 
Q 54.109375 56 60.59375 47.96875 
Q 67.09375 39.9375 67.09375 27.296875 
Q 67.09375 14.65625 60.59375 6.609375 
Q 54.109375 -1.421875 44 -1.421875 
Q 38.28125 -1.421875 33.890625 0.84375 
Q 29.5 3.125 25.875 7.90625 
z
M 37.5 43.3125 
Q 31.890625 43.3125 28.875 39.1875 
Q 25.875 35.0625 25.875 27.296875 
Q 25.875 19.53125 28.875 15.40625 
Q 31.890625 11.28125 37.5 11.28125 
Q 43.109375 11.28125 46.0625 15.375 
Q 49.03125 19.484375 49.03125 27.296875 
Q 49.03125 35.109375 46.0625 39.203125 
Q 43.109375 43.3125 37.5 43.3125 
z
" id="DejaVuSans-Bold-112"/>
      <path d="M 51.125 52.984375 
L 51.125 39.703125 
Q 45.515625 42.046875 40.28125 43.21875 
Q 35.0625 44.390625 30.421875 44.390625 
Q 25.4375 44.390625 23.015625 43.140625 
Q 20.609375 41.890625 20.609375 39.3125 
Q 20.609375 37.203125 22.4375 36.078125 
Q 24.265625 34.96875 29 34.421875 
L 32.078125 33.984375 
Q 45.515625 32.28125 50.140625 28.375 
Q 54.78125 24.46875 54.78125 16.109375 
Q 54.78125 7.375 48.328125 2.96875 
Q 41.890625 -1.421875 29.109375 -1.421875 
Q 23.6875 -1.421875 17.890625 -0.5625 
Q 12.109375 0.296875 6 2 
L 6 15.28125 
Q 11.234375 12.75 16.71875 11.46875 
Q 22.21875 10.203125 27.875 10.203125 
Q 33.015625 10.203125 35.59375 11.609375 
Q 38.1875 13.03125 38.1875 15.828125 
Q 38.1875 18.171875 36.40625 19.3125 
Q 34.625 20.453125 29.296875 21.09375 
L 26.21875 21.484375 
Q 14.546875 22.953125 9.859375 26.90625 
Q 5.171875 30.859375 5.171875 38.921875 
Q 5.171875 47.609375 11.125 51.796875 
Q 17.09375 56 29.390625 56 
Q 34.234375 56 39.546875 55.265625 
Q 44.875 54.546875 51.125 52.984375 
z
" id="DejaVuSans-Bold-115"/>
     </defs>
     <use xlink:href="#DejaVuSans-Bold-77"/>
     <use x="99.511719" xlink:href="#DejaVuSans-Bold-97"/>
     <use x="166.992188" xlink:href="#DejaVuSans-Bold-114"/>
     <use x="216.308594" xlink:href="#DejaVuSans-Bold-107"/>
     <use x="280.1875" xlink:href="#DejaVuSans-Bold-101"/>
     <use x="348.009766" xlink:href="#DejaVuSans-Bold-114"/>
     <use x="397.326172" xlink:href="#DejaVuSans-Bold-84"/>
     <use x="453.664062" xlink:href="#DejaVuSans-Bold-121"/>
     <use x="518.849609" xlink:href="#DejaVuSans-Bold-112"/>
     <use x="590.431641" xlink:href="#DejaVuSans-Bold-101"/>
     <use x="658.253906" xlink:href="#DejaVuSans-Bold-115"/>
    </g>
   </g>
   <g id="legend_1">
    <g id="patch_7">
     <path d="M 164.309609 299.096875 
L 292.865391 299.096875 
Q 295.465391 299.096875 295.465391 296.496875 
L 295.465391 49.736563 
Q 295.465391 47.136563 292.865391 47.136563 
L 164.309609 47.136563 
Q 161.709609 47.136563 161.709609 49.736563 
L 161.709609 296.496875 
Q 161.709609 299.096875 164.309609 299.096875 
z
" style="fill:#ffffff;opacity:0.8;stroke:#cccccc;stroke-linejoin:miter;"/>
    </g>
    <g id="line2d_25"/>
    <g id="line2d_26"/>
    <g id="text_13">
     <!-- none -->
     <g transform="translate(203.309609 62.214531)scale(0.13 -0.13)">
      <defs>
       <path d="M 54.890625 33.015625 
L 54.890625 0 
L 45.90625 0 
L 45.90625 32.71875 
Q 45.90625 40.484375 42.875 44.328125 
Q 39.84375 48.1875 33.796875 48.1875 
Q 26.515625 48.1875 22.3125 43.546875 
Q 18.109375 38.921875 18.109375 30.90625 
L 18.109375 0 
L 9.078125 0 
L 9.078125 54.6875 
L 18.109375 54.6875 
L 18.109375 46.1875 
Q 21.34375 51.125 25.703125 53.5625 
Q 30.078125 56 35.796875 56 
Q 45.21875 56 50.046875 50.171875 
Q 54.890625 44.34375 54.890625 33.015625 
z
" id="DejaVuSans-110"/>
       <path d="M 30.609375 48.390625 
Q 23.390625 48.390625 19.1875 42.75 
Q 14.984375 37.109375 14.984375 27.296875 
Q 14.984375 17.484375 19.15625 11.84375 
Q 23.34375 6.203125 30.609375 6.203125 
Q 37.796875 6.203125 41.984375 11.859375 
Q 46.1875 17.53125 46.1875 27.296875 
Q 46.1875 37.015625 41.984375 42.703125 
Q 37.796875 48.390625 30.609375 48.390625 
z
M 30.609375 56 
Q 42.328125 56 49.015625 48.375 
Q 55.71875 40.765625 55.71875 27.296875 
Q 55.71875 13.875 49.015625 6.21875 
Q 42.328125 -1.421875 30.609375 -1.421875 
Q 18.84375 -1.421875 12.171875 6.21875 
Q 5.515625 13.875 5.515625 27.296875 
Q 5.515625 40.765625 12.171875 48.375 
Q 18.84375 56 30.609375 56 
z
" id="DejaVuSans-111"/>
       <path d="M 56.203125 29.59375 
L 56.203125 25.203125 
L 14.890625 25.203125 
Q 15.484375 15.921875 20.484375 11.0625 
Q 25.484375 6.203125 34.421875 6.203125 
Q 39.59375 6.203125 44.453125 7.46875 
Q 49.3125 8.734375 54.109375 11.28125 
L 54.109375 2.78125 
Q 49.265625 0.734375 44.1875 -0.34375 
Q 39.109375 -1.421875 33.890625 -1.421875 
Q 20.796875 -1.421875 13.15625 6.1875 
Q 5.515625 13.8125 5.515625 26.8125 
Q 5.515625 40.234375 12.765625 48.109375 
Q 20.015625 56 32.328125 56 
Q 43.359375 56 49.78125 48.890625 
Q 56.203125 41.796875 56.203125 29.59375 
z
M 47.21875 32.234375 
Q 47.125 39.59375 43.09375 43.984375 
Q 39.0625 48.390625 32.421875 48.390625 
Q 24.90625 48.390625 20.390625 44.140625 
Q 15.875 39.890625 15.1875 32.171875 
z
" id="DejaVuSans-101"/>
      </defs>
      <use xlink:href="#DejaVuSans-110"/>
      <use x="63.378906" xlink:href="#DejaVuSans-111"/>
      <use x="124.560547" xlink:href="#DejaVuSans-110"/>
      <use x="187.939453" xlink:href="#DejaVuSans-101"/>
     </g>
    </g>
    <g id="line2d_27"/>
    <g id="line2d_28">
     <g>
      <use style="stroke:#ff7f0e;stroke-linejoin:miter;" x="179.909609" xlink:href="#m6aadc36209" y="76.746094"/>
     </g>
    </g>
    <g id="text_14">
     <!-- square -->
     <g transform="translate(203.309609 81.296094)scale(0.13 -0.13)">
      <defs>
       <path d="M 44.28125 53.078125 
L 44.28125 44.578125 
Q 40.484375 46.53125 36.375 47.5 
Q 32.28125 48.484375 27.875 48.484375 
Q 21.1875 48.484375 17.84375 46.4375 
Q 14.5 44.390625 14.5 40.28125 
Q 14.5 37.15625 16.890625 35.375 
Q 19.28125 33.59375 26.515625 31.984375 
L 29.59375 31.296875 
Q 39.15625 29.25 43.1875 25.515625 
Q 47.21875 21.78125 47.21875 15.09375 
Q 47.21875 7.46875 41.1875 3.015625 
Q 35.15625 -1.421875 24.609375 -1.421875 
Q 20.21875 -1.421875 15.453125 -0.5625 
Q 10.6875 0.296875 5.421875 2 
L 5.421875 11.28125 
Q 10.40625 8.6875 15.234375 7.390625 
Q 20.0625 6.109375 24.8125 6.109375 
Q 31.15625 6.109375 34.5625 8.28125 
Q 37.984375 10.453125 37.984375 14.40625 
Q 37.984375 18.0625 35.515625 20.015625 
Q 33.0625 21.96875 24.703125 23.78125 
L 21.578125 24.515625 
Q 13.234375 26.265625 9.515625 29.90625 
Q 5.8125 33.546875 5.8125 39.890625 
Q 5.8125 47.609375 11.28125 51.796875 
Q 16.75 56 26.8125 56 
Q 31.78125 56 36.171875 55.265625 
Q 40.578125 54.546875 44.28125 53.078125 
z
" id="DejaVuSans-115"/>
       <path d="M 14.796875 27.296875 
Q 14.796875 17.390625 18.875 11.75 
Q 22.953125 6.109375 30.078125 6.109375 
Q 37.203125 6.109375 41.296875 11.75 
Q 45.40625 17.390625 45.40625 27.296875 
Q 45.40625 37.203125 41.296875 42.84375 
Q 37.203125 48.484375 30.078125 48.484375 
Q 22.953125 48.484375 18.875 42.84375 
Q 14.796875 37.203125 14.796875 27.296875 
z
M 45.40625 8.203125 
Q 42.578125 3.328125 38.25 0.953125 
Q 33.9375 -1.421875 27.875 -1.421875 
Q 17.96875 -1.421875 11.734375 6.484375 
Q 5.515625 14.40625 5.515625 27.296875 
Q 5.515625 40.1875 11.734375 48.09375 
Q 17.96875 56 27.875 56 
Q 33.9375 56 38.25 53.625 
Q 42.578125 51.265625 45.40625 46.390625 
L 45.40625 54.6875 
L 54.390625 54.6875 
L 54.390625 -20.796875 
L 45.40625 -20.796875 
z
" id="DejaVuSans-113"/>
       <path d="M 8.5 21.578125 
L 8.5 54.6875 
L 17.484375 54.6875 
L 17.484375 21.921875 
Q 17.484375 14.15625 20.5 10.265625 
Q 23.53125 6.390625 29.59375 6.390625 
Q 36.859375 6.390625 41.078125 11.03125 
Q 45.3125 15.671875 45.3125 23.6875 
L 45.3125 54.6875 
L 54.296875 54.6875 
L 54.296875 0 
L 45.3125 0 
L 45.3125 8.40625 
Q 42.046875 3.421875 37.71875 1 
Q 33.40625 -1.421875 27.6875 -1.421875 
Q 18.265625 -1.421875 13.375 4.4375 
Q 8.5 10.296875 8.5 21.578125 
z
M 31.109375 56 
z
" id="DejaVuSans-117"/>
       <path d="M 34.28125 27.484375 
Q 23.390625 27.484375 19.1875 25 
Q 14.984375 22.515625 14.984375 16.5 
Q 14.984375 11.71875 18.140625 8.90625 
Q 21.296875 6.109375 26.703125 6.109375 
Q 34.1875 6.109375 38.703125 11.40625 
Q 43.21875 16.703125 43.21875 25.484375 
L 43.21875 27.484375 
z
M 52.203125 31.203125 
L 52.203125 0 
L 43.21875 0 
L 43.21875 8.296875 
Q 40.140625 3.328125 35.546875 0.953125 
Q 30.953125 -1.421875 24.3125 -1.421875 
Q 15.921875 -1.421875 10.953125 3.296875 
Q 6 8.015625 6 15.921875 
Q 6 25.140625 12.171875 29.828125 
Q 18.359375 34.515625 30.609375 34.515625 
L 43.21875 34.515625 
L 43.21875 35.40625 
Q 43.21875 41.609375 39.140625 45 
Q 35.0625 48.390625 27.6875 48.390625 
Q 23 48.390625 18.546875 47.265625 
Q 14.109375 46.140625 10.015625 43.890625 
L 10.015625 52.203125 
Q 14.9375 54.109375 19.578125 55.046875 
Q 24.21875 56 28.609375 56 
Q 40.484375 56 46.34375 49.84375 
Q 52.203125 43.703125 52.203125 31.203125 
z
" id="DejaVuSans-97"/>
       <path d="M 41.109375 46.296875 
Q 39.59375 47.171875 37.8125 47.578125 
Q 36.03125 48 33.890625 48 
Q 26.265625 48 22.1875 43.046875 
Q 18.109375 38.09375 18.109375 28.8125 
L 18.109375 0 
L 9.078125 0 
L 9.078125 54.6875 
L 18.109375 54.6875 
L 18.109375 46.1875 
Q 20.953125 51.171875 25.484375 53.578125 
Q 30.03125 56 36.53125 56 
Q 37.453125 56 38.578125 55.875 
Q 39.703125 55.765625 41.0625 55.515625 
z
" id="DejaVuSans-114"/>
      </defs>
      <use xlink:href="#DejaVuSans-115"/>
      <use x="52.099609" xlink:href="#DejaVuSans-113"/>
      <use x="115.576172" xlink:href="#DejaVuSans-117"/>
      <use x="178.955078" xlink:href="#DejaVuSans-97"/>
      <use x="240.234375" xlink:href="#DejaVuSans-114"/>
      <use x="279.097656" xlink:href="#DejaVuSans-101"/>
     </g>
    </g>
    <g id="line2d_29"/>
    <g id="line2d_30">
     <g>
      <use style="stroke:#2ca02c;" x="179.909609" xlink:href="#mde7bd3a533" y="95.827656"/>
     </g>
    </g>
    <g id="text_15">
     <!-- circle -->
     <g transform="translate(203.309609 100.377656)scale(0.13 -0.13)">
      <defs>
       <path d="M 48.78125 52.59375 
L 48.78125 44.1875 
Q 44.96875 46.296875 41.140625 47.34375 
Q 37.3125 48.390625 33.40625 48.390625 
Q 24.65625 48.390625 19.8125 42.84375 
Q 14.984375 37.3125 14.984375 27.296875 
Q 14.984375 17.28125 19.8125 11.734375 
Q 24.65625 6.203125 33.40625 6.203125 
Q 37.3125 6.203125 41.140625 7.25 
Q 44.96875 8.296875 48.78125 10.40625 
L 48.78125 2.09375 
Q 45.015625 0.34375 40.984375 -0.53125 
Q 36.96875 -1.421875 32.421875 -1.421875 
Q 20.0625 -1.421875 12.78125 6.34375 
Q 5.515625 14.109375 5.515625 27.296875 
Q 5.515625 40.671875 12.859375 48.328125 
Q 20.21875 56 33.015625 56 
Q 37.15625 56 41.109375 55.140625 
Q 45.0625 54.296875 48.78125 52.59375 
z
" id="DejaVuSans-99"/>
       <path d="M 9.421875 54.6875 
L 18.40625 54.6875 
L 18.40625 0 
L 9.421875 0 
z
M 9.421875 75.984375 
L 18.40625 75.984375 
L 18.40625 64.59375 
L 9.421875 64.59375 
z
" id="DejaVuSans-105"/>
       <path d="M 9.421875 75.984375 
L 18.40625 75.984375 
L 18.40625 0 
L 9.421875 0 
z
" id="DejaVuSans-108"/>
      </defs>
      <use xlink:href="#DejaVuSans-99"/>
      <use x="54.980469" xlink:href="#DejaVuSans-105"/>
      <use x="82.763672" xlink:href="#DejaVuSans-114"/>
      <use x="121.626953" xlink:href="#DejaVuSans-99"/>
      <use x="176.607422" xlink:href="#DejaVuSans-108"/>
      <use x="204.390625" xlink:href="#DejaVuSans-101"/>
     </g>
    </g>
    <g id="line2d_31"/>
    <g id="line2d_32">
     <g>
      <use style="stroke:#d62728;stroke-linejoin:miter;" x="179.909609" xlink:href="#m2a018291fd" y="114.909219"/>
     </g>
    </g>
    <g id="text_16">
     <!-- diamond -->
     <g transform="translate(203.309609 119.459219)scale(0.13 -0.13)">
      <defs>
       <path d="M 45.40625 46.390625 
L 45.40625 75.984375 
L 54.390625 75.984375 
L 54.390625 0 
L 45.40625 0 
L 45.40625 8.203125 
Q 42.578125 3.328125 38.25 0.953125 
Q 33.9375 -1.421875 27.875 -1.421875 
Q 17.96875 -1.421875 11.734375 6.484375 
Q 5.515625 14.40625 5.515625 27.296875 
Q 5.515625 40.1875 11.734375 48.09375 
Q 17.96875 56 27.875 56 
Q 33.9375 56 38.25 53.625 
Q 42.578125 51.265625 45.40625 46.390625 
z
M 14.796875 27.296875 
Q 14.796875 17.390625 18.875 11.75 
Q 22.953125 6.109375 30.078125 6.109375 
Q 37.203125 6.109375 41.296875 11.75 
Q 45.40625 17.390625 45.40625 27.296875 
Q 45.40625 37.203125 41.296875 42.84375 
Q 37.203125 48.484375 30.078125 48.484375 
Q 22.953125 48.484375 18.875 42.84375 
Q 14.796875 37.203125 14.796875 27.296875 
z
" id="DejaVuSans-100"/>
       <path d="M 52 44.1875 
Q 55.375 50.25 60.0625 53.125 
Q 64.75 56 71.09375 56 
Q 79.640625 56 84.28125 50.015625 
Q 88.921875 44.046875 88.921875 33.015625 
L 88.921875 0 
L 79.890625 0 
L 79.890625 32.71875 
Q 79.890625 40.578125 77.09375 44.375 
Q 74.3125 48.1875 68.609375 48.1875 
Q 61.625 48.1875 57.5625 43.546875 
Q 53.515625 38.921875 53.515625 30.90625 
L 53.515625 0 
L 44.484375 0 
L 44.484375 32.71875 
Q 44.484375 40.625 41.703125 44.40625 
Q 38.921875 48.1875 33.109375 48.1875 
Q 26.21875 48.1875 22.15625 43.53125 
Q 18.109375 38.875 18.109375 30.90625 
L 18.109375 0 
L 9.078125 0 
L 9.078125 54.6875 
L 18.109375 54.6875 
L 18.109375 46.1875 
Q 21.1875 51.21875 25.484375 53.609375 
Q 29.78125 56 35.6875 56 
Q 41.65625 56 45.828125 52.96875 
Q 50 49.953125 52 44.1875 
z
" id="DejaVuSans-109"/>
      </defs>
      <use xlink:href="#DejaVuSans-100"/>
      <use x="63.476562" xlink:href="#DejaVuSans-105"/>
      <use x="91.259766" xlink:href="#DejaVuSans-97"/>
      <use x="152.539062" xlink:href="#DejaVuSans-109"/>
      <use x="249.951172" xlink:href="#DejaVuSans-111"/>
      <use x="311.132812" xlink:href="#DejaVuSans-110"/>
      <use x="374.511719" xlink:href="#DejaVuSans-100"/>
     </g>
    </g>
    <g id="line2d_33"/>
    <g id="line2d_34">
     <g>
      <use style="stroke:#9467bd;" x="179.909609" xlink:href="#mc71155a7e9" y="133.990781"/>
     </g>
    </g>
    <g id="text_17">
     <!-- xCross -->
     <g transform="translate(203.309609 138.540781)scale(0.13 -0.13)">
      <defs>
       <path d="M 54.890625 54.6875 
L 35.109375 28.078125 
L 55.90625 0 
L 45.3125 0 
L 29.390625 21.484375 
L 13.484375 0 
L 2.875 0 
L 24.125 28.609375 
L 4.6875 54.6875 
L 15.28125 54.6875 
L 29.78125 35.203125 
L 44.28125 54.6875 
z
" id="DejaVuSans-120"/>
       <path d="M 64.40625 67.28125 
L 64.40625 56.890625 
Q 59.421875 61.53125 53.78125 63.8125 
Q 48.140625 66.109375 41.796875 66.109375 
Q 29.296875 66.109375 22.65625 58.46875 
Q 16.015625 50.828125 16.015625 36.375 
Q 16.015625 21.96875 22.65625 14.328125 
Q 29.296875 6.6875 41.796875 6.6875 
Q 48.140625 6.6875 53.78125 8.984375 
Q 59.421875 11.28125 64.40625 15.921875 
L 64.40625 5.609375 
Q 59.234375 2.09375 53.4375 0.328125 
Q 47.65625 -1.421875 41.21875 -1.421875 
Q 24.65625 -1.421875 15.125 8.703125 
Q 5.609375 18.84375 5.609375 36.375 
Q 5.609375 53.953125 15.125 64.078125 
Q 24.65625 74.21875 41.21875 74.21875 
Q 47.75 74.21875 53.53125 72.484375 
Q 59.328125 70.75 64.40625 67.28125 
z
" id="DejaVuSans-67"/>
      </defs>
      <use xlink:href="#DejaVuSans-120"/>
      <use x="59.179688" xlink:href="#DejaVuSans-67"/>
      <use x="129.003906" xlink:href="#DejaVuSans-114"/>
      <use x="167.867188" xlink:href="#DejaVuSans-111"/>
      <use x="229.048828" xlink:href="#DejaVuSans-115"/>
      <use x="281.148438" xlink:href="#DejaVuSans-115"/>
     </g>
    </g>
    <g id="line2d_35"/>
    <g id="line2d_36">
     <g>
      <use style="stroke:#8c564b;" x="179.909609" xlink:href="#m4a58e5701f" y="153.072344"/>
     </g>
    </g>
    <g id="text_18">
     <!-- plus -->
     <g transform="translate(203.309609 157.622344)scale(0.13 -0.13)">
      <defs>
       <path d="M 18.109375 8.203125 
L 18.109375 -20.796875 
L 9.078125 -20.796875 
L 9.078125 54.6875 
L 18.109375 54.6875 
L 18.109375 46.390625 
Q 20.953125 51.265625 25.265625 53.625 
Q 29.59375 56 35.59375 56 
Q 45.5625 56 51.78125 48.09375 
Q 58.015625 40.1875 58.015625 27.296875 
Q 58.015625 14.40625 51.78125 6.484375 
Q 45.5625 -1.421875 35.59375 -1.421875 
Q 29.59375 -1.421875 25.265625 0.953125 
Q 20.953125 3.328125 18.109375 8.203125 
z
M 48.6875 27.296875 
Q 48.6875 37.203125 44.609375 42.84375 
Q 40.53125 48.484375 33.40625 48.484375 
Q 26.265625 48.484375 22.1875 42.84375 
Q 18.109375 37.203125 18.109375 27.296875 
Q 18.109375 17.390625 22.1875 11.75 
Q 26.265625 6.109375 33.40625 6.109375 
Q 40.53125 6.109375 44.609375 11.75 
Q 48.6875 17.390625 48.6875 27.296875 
z
" id="DejaVuSans-112"/>
      </defs>
      <use xlink:href="#DejaVuSans-112"/>
      <use x="63.476562" xlink:href="#DejaVuSans-108"/>
      <use x="91.259766" xlink:href="#DejaVuSans-117"/>
      <use x="154.638672" xlink:href="#DejaVuSans-115"/>
     </g>
    </g>
    <g id="line2d_37"/>
    <g id="line2d_38">
     <g>
      <use style="stroke:#e377c2;stroke-linejoin:bevel;" x="179.909609" xlink:href="#md3596ad90a" y="172.153906"/>
     </g>
    </g>
    <g id="text_19">
     <!-- star -->
     <g transform="translate(203.309609 176.703906)scale(0.13 -0.13)">
      <defs>
       <path d="M 18.3125 70.21875 
L 18.3125 54.6875 
L 36.8125 54.6875 
L 36.8125 47.703125 
L 18.3125 47.703125 
L 18.3125 18.015625 
Q 18.3125 11.328125 20.140625 9.421875 
Q 21.96875 7.515625 27.59375 7.515625 
L 36.8125 7.515625 
L 36.8125 0 
L 27.59375 0 
Q 17.1875 0 13.234375 3.875 
Q 9.28125 7.765625 9.28125 18.015625 
L 9.28125 47.703125 
L 2.6875 47.703125 
L 2.6875 54.6875 
L 9.28125 54.6875 
L 9.28125 70.21875 
z
" id="DejaVuSans-116"/>
      </defs>
      <use xlink:href="#DejaVuSans-115"/>
      <use x="52.099609" xlink:href="#DejaVuSans-116"/>
      <use x="91.308594" xlink:href="#DejaVuSans-97"/>
      <use x="152.587891" xlink:href="#DejaVuSans-114"/>
     </g>
    </g>
    <g id="line2d_39"/>
    <g id="line2d_40">
     <g>
      <use style="stroke:#7f7f7f;stroke-linejoin:miter;" x="179.909609" xlink:href="#md10e751368" y="191.235469"/>
     </g>
    </g>
    <g id="text_20">
     <!-- triangleUp -->
     <g transform="translate(203.309609 195.785469)scale(0.13 -0.13)">
      <defs>
       <path d="M 45.40625 27.984375 
Q 45.40625 37.75 41.375 43.109375 
Q 37.359375 48.484375 30.078125 48.484375 
Q 22.859375 48.484375 18.828125 43.109375 
Q 14.796875 37.75 14.796875 27.984375 
Q 14.796875 18.265625 18.828125 12.890625 
Q 22.859375 7.515625 30.078125 7.515625 
Q 37.359375 7.515625 41.375 12.890625 
Q 45.40625 18.265625 45.40625 27.984375 
z
M 54.390625 6.78125 
Q 54.390625 -7.171875 48.1875 -13.984375 
Q 42 -20.796875 29.203125 -20.796875 
Q 24.46875 -20.796875 20.265625 -20.09375 
Q 16.0625 -19.390625 12.109375 -17.921875 
L 12.109375 -9.1875 
Q 16.0625 -11.328125 19.921875 -12.34375 
Q 23.78125 -13.375 27.78125 -13.375 
Q 36.625 -13.375 41.015625 -8.765625 
Q 45.40625 -4.15625 45.40625 5.171875 
L 45.40625 9.625 
Q 42.625 4.78125 38.28125 2.390625 
Q 33.9375 0 27.875 0 
Q 17.828125 0 11.671875 7.65625 
Q 5.515625 15.328125 5.515625 27.984375 
Q 5.515625 40.671875 11.671875 48.328125 
Q 17.828125 56 27.875 56 
Q 33.9375 56 38.28125 53.609375 
Q 42.625 51.21875 45.40625 46.390625 
L 45.40625 54.6875 
L 54.390625 54.6875 
z
" id="DejaVuSans-103"/>
       <path d="M 8.6875 72.90625 
L 18.609375 72.90625 
L 18.609375 28.609375 
Q 18.609375 16.890625 22.84375 11.734375 
Q 27.09375 6.59375 36.625 6.59375 
Q 46.09375 6.59375 50.34375 11.734375 
Q 54.59375 16.890625 54.59375 28.609375 
L 54.59375 72.90625 
L 64.5 72.90625 
L 64.5 27.390625 
Q 64.5 13.140625 57.4375 5.859375 
Q 50.390625 -1.421875 36.625 -1.421875 
Q 22.796875 -1.421875 15.734375 5.859375 
Q 8.6875 13.140625 8.6875 27.390625 
z
" id="DejaVuSans-85"/>
      </defs>
      <use xlink:href="#DejaVuSans-116"/>
      <use x="39.208984" xlink:href="#DejaVuSans-114"/>
      <use x="80.322266" xlink:href="#DejaVuSans-105"/>
      <use x="108.105469" xlink:href="#DejaVuSans-97"/>
      <use x="169.384766" xlink:href="#DejaVuSans-110"/>
      <use x="232.763672" xlink:href="#DejaVuSans-103"/>
      <use x="296.240234" xlink:href="#DejaVuSans-108"/>
      <use x="324.023438" xlink:href="#DejaVuSans-101"/>
      <use x="385.546875" xlink:href="#DejaVuSans-85"/>
      <use x="458.740234" xlink:href="#DejaVuSans-112"/>
     </g>
    </g>
    <g id="line2d_41"/>
    <g id="line2d_42">
     <g>
      <use style="stroke:#bcbd22;stroke-linejoin:miter;" x="179.909609" xlink:href="#ma83924dad8" y="210.317031"/>
     </g>
    </g>
    <g id="text_21">
     <!-- triangleDown -->
     <g transform="translate(203.309609 214.867031)scale(0.13 -0.13)">
      <defs>
       <path d="M 19.671875 64.796875 
L 19.671875 8.109375 
L 31.59375 8.109375 
Q 46.6875 8.109375 53.6875 14.9375 
Q 60.6875 21.78125 60.6875 36.53125 
Q 60.6875 51.171875 53.6875 57.984375 
Q 46.6875 64.796875 31.59375 64.796875 
z
M 9.8125 72.90625 
L 30.078125 72.90625 
Q 51.265625 72.90625 61.171875 64.09375 
Q 71.09375 55.28125 71.09375 36.53125 
Q 71.09375 17.671875 61.125 8.828125 
Q 51.171875 0 30.078125 0 
L 9.8125 0 
z
" id="DejaVuSans-68"/>
       <path d="M 4.203125 54.6875 
L 13.1875 54.6875 
L 24.421875 12.015625 
L 35.59375 54.6875 
L 46.1875 54.6875 
L 57.421875 12.015625 
L 68.609375 54.6875 
L 77.59375 54.6875 
L 63.28125 0 
L 52.6875 0 
L 40.921875 44.828125 
L 29.109375 0 
L 18.5 0 
z
" id="DejaVuSans-119"/>
      </defs>
      <use xlink:href="#DejaVuSans-116"/>
      <use x="39.208984" xlink:href="#DejaVuSans-114"/>
      <use x="80.322266" xlink:href="#DejaVuSans-105"/>
      <use x="108.105469" xlink:href="#DejaVuSans-97"/>
      <use x="169.384766" xlink:href="#DejaVuSans-110"/>
      <use x="232.763672" xlink:href="#DejaVuSans-103"/>
      <use x="296.240234" xlink:href="#DejaVuSans-108"/>
      <use x="324.023438" xlink:href="#DejaVuSans-101"/>
      <use x="385.546875" xlink:href="#DejaVuSans-68"/>
      <use x="462.548828" xlink:href="#DejaVuSans-111"/>
      <use x="523.730469" xlink:href="#DejaVuSans-119"/>
      <use x="605.517578" xlink:href="#DejaVuSans-110"/>
     </g>
    </g>
    <g id="line2d_43"/>
    <g id="line2d_44">
     <g>
      <use style="stroke:#17becf;stroke-linejoin:miter;" x="179.909609" xlink:href="#m7ba381f3ec" y="229.398594"/>
     </g>
    </g>
    <g id="text_22">
     <!-- triangleLeft -->
     <g transform="translate(203.309609 233.948594)scale(0.13 -0.13)">
      <defs>
       <path d="M 9.8125 72.90625 
L 19.671875 72.90625 
L 19.671875 8.296875 
L 55.171875 8.296875 
L 55.171875 0 
L 9.8125 0 
z
" id="DejaVuSans-76"/>
       <path d="M 37.109375 75.984375 
L 37.109375 68.5 
L 28.515625 68.5 
Q 23.6875 68.5 21.796875 66.546875 
Q 19.921875 64.59375 19.921875 59.515625 
L 19.921875 54.6875 
L 34.71875 54.6875 
L 34.71875 47.703125 
L 19.921875 47.703125 
L 19.921875 0 
L 10.890625 0 
L 10.890625 47.703125 
L 2.296875 47.703125 
L 2.296875 54.6875 
L 10.890625 54.6875 
L 10.890625 58.5 
Q 10.890625 67.625 15.140625 71.796875 
Q 19.390625 75.984375 28.609375 75.984375 
z
" id="DejaVuSans-102"/>
      </defs>
      <use xlink:href="#DejaVuSans-116"/>
      <use x="39.208984" xlink:href="#DejaVuSans-114"/>
      <use x="80.322266" xlink:href="#DejaVuSans-105"/>
      <use x="108.105469" xlink:href="#DejaVuSans-97"/>
      <use x="169.384766" xlink:href="#DejaVuSans-110"/>
      <use x="232.763672" xlink:href="#DejaVuSans-103"/>
      <use x="296.240234" xlink:href="#DejaVuSans-108"/>
      <use x="324.023438" xlink:href="#DejaVuSans-101"/>
      <use x="385.546875" xlink:href="#DejaVuSans-76"/>
      <use x="439.509766" xlink:href="#DejaVuSans-101"/>
      <use x="501.033203" xlink:href="#DejaVuSans-102"/>
      <use x="534.488281" xlink:href="#DejaVuSans-116"/>
     </g>
    </g>
    <g id="line2d_45"/>
    <g id="line2d_46">
     <g>
      <use style="stroke:#1f77b4;stroke-linejoin:miter;" x="179.909609" xlink:href="#m5cedac3f8b" y="248.480156"/>
     </g>
    </g>
    <g id="text_23">
     <!-- triangleRight -->
     <g transform="translate(203.309609 253.030156)scale(0.13 -0.13)">
      <defs>
       <path d="M 44.390625 34.1875 
Q 47.5625 33.109375 50.5625 29.59375 
Q 53.5625 26.078125 56.59375 19.921875 
L 66.609375 0 
L 56 0 
L 46.6875 18.703125 
Q 43.0625 26.03125 39.671875 28.421875 
Q 36.28125 30.8125 30.421875 30.8125 
L 19.671875 30.8125 
L 19.671875 0 
L 9.8125 0 
L 9.8125 72.90625 
L 32.078125 72.90625 
Q 44.578125 72.90625 50.734375 67.671875 
Q 56.890625 62.453125 56.890625 51.90625 
Q 56.890625 45.015625 53.6875 40.46875 
Q 50.484375 35.9375 44.390625 34.1875 
z
M 19.671875 64.796875 
L 19.671875 38.921875 
L 32.078125 38.921875 
Q 39.203125 38.921875 42.84375 42.21875 
Q 46.484375 45.515625 46.484375 51.90625 
Q 46.484375 58.296875 42.84375 61.546875 
Q 39.203125 64.796875 32.078125 64.796875 
z
" id="DejaVuSans-82"/>
       <path d="M 54.890625 33.015625 
L 54.890625 0 
L 45.90625 0 
L 45.90625 32.71875 
Q 45.90625 40.484375 42.875 44.328125 
Q 39.84375 48.1875 33.796875 48.1875 
Q 26.515625 48.1875 22.3125 43.546875 
Q 18.109375 38.921875 18.109375 30.90625 
L 18.109375 0 
L 9.078125 0 
L 9.078125 75.984375 
L 18.109375 75.984375 
L 18.109375 46.1875 
Q 21.34375 51.125 25.703125 53.5625 
Q 30.078125 56 35.796875 56 
Q 45.21875 56 50.046875 50.171875 
Q 54.890625 44.34375 54.890625 33.015625 
z
" id="DejaVuSans-104"/>
      </defs>
      <use xlink:href="#DejaVuSans-116"/>
      <use x="39.208984" xlink:href="#DejaVuSans-114"/>
      <use x="80.322266" xlink:href="#DejaVuSans-105"/>
      <use x="108.105469" xlink:href="#DejaVuSans-97"/>
      <use x="169.384766" xlink:href="#DejaVuSans-110"/>
      <use x="232.763672" xlink:href="#DejaVuSans-103"/>
      <use x="296.240234" xlink:href="#DejaVuSans-108"/>
      <use x="324.023438" xlink:href="#DejaVuSans-101"/>
      <use x="385.546875" xlink:href="#DejaVuSans-82"/>
      <use x="455.029297" xlink:href="#DejaVuSans-105"/>
      <use x="482.8125" xlink:href="#DejaVuSans-103"/>
      <use x="546.289062" xlink:href="#DejaVuSans-104"/>
      <use x="609.667969" xlink:href="#DejaVuSans-116"/>
     </g>
    </g>
    <g id="line2d_47"/>
    <g id="line2d_48">
     <g>
      <use style="stroke:#ff7f0e;" x="179.909609" xlink:href="#m34dad37a89" y="267.561719"/>
     </g>
    </g>
    <g id="text_24">
     <!-- hDash -->
     <g transform="translate(203.309609 272.111719)scale(0.13 -0.13)">
      <use xlink:href="#DejaVuSans-104"/>
      <use x="63.378906" xlink:href="#DejaVuSans-68"/>
      <use x="140.380859" xlink:href="#DejaVuSans-97"/>
      <use x="201.660156" xlink:href="#DejaVuSans-115"/>
      <use x="253.759766" xlink:href="#DejaVuSans-104"/>
     </g>
    </g>
    <g id="line2d_49"/>
    <g id="line2d_50">
     <g>
      <use style="stroke:#2ca02c;" x="179.909609" xlink:href="#m8ede6f7704" y="286.643281"/>
     </g>
    </g>
    <g id="text_25">
     <!-- vDash -->
     <g transform="translate(203.309609 291.193281)scale(0.13 -0.13)">
      <defs>
       <path d="M 2.984375 54.6875 
L 12.5 54.6875 
L 29.59375 8.796875 
L 46.6875 54.6875 
L 56.203125 54.6875 
L 35.6875 0 
L 23.484375 0 
z
" id="DejaVuSans-118"/>
      </defs>
      <use xlink:href="#DejaVuSans-118"/>
      <use x="59.179688" xlink:href="#DejaVuSans-68"/>
      <use x="136.181641" xlink:href="#DejaVuSans-97"/>
      <use x="197.460938" xlink:href="#DejaVuSans-115"/>
      <use x="249.560547" xlink:href="#DejaVuSans-104"/>
     </g>
    </g>
   </g>
  </g>
 </g>
 <defs>
  <clipPath id="pd3938640e4">
   <rect height="277.2" width="390.6" x="33.2875" y="28.396875"/>
  </clipPath>
 </defs>
</svg>
