<?xml version="1.0" encoding="utf-8" standalone="no"?>
<!DOCTYPE svg PUBLIC "-//W3C//DTD SVG 1.1//EN"
  "http://www.w3.org/Graphics/SVG/1.1/DTD/svg11.dtd">
<!-- Created with matplotlib (https://matplotlib.org/) -->
<svg height="355.337812pt" version="1.1" viewBox="0 0 496.77125 355.337812" width="496.77125pt" xmlns="http://www.w3.org/2000/svg" xmlns:xlink="http://www.w3.org/1999/xlink">
 <metadata>
  <rdf:RDF xmlns:cc="http://creativecommons.org/ns#" xmlns:dc="http://purl.org/dc/elements/1.1/" xmlns:rdf="http://www.w3.org/1999/02/22-rdf-syntax-ns#">
   <cc:Work>
    <dc:type rdf:resource="http://purl.org/dc/dcmitype/StillImage"/>
    <dc:date>2020-11-23T12:50:49.809408</dc:date>
    <dc:format>image/svg+xml</dc:format>
    <dc:creator>
     <cc:Agent>
      <dc:title>Matplotlib v3.3.2, https://matplotlib.org/</dc:title>
     </cc:Agent>
    </dc:creator>
   </cc:Work>
  </rdf:RDF>
 </metadata>
 <defs>
  <style type="text/css">*{stroke-linecap:butt;stroke-linejoin:round;}</style>
 </defs>
 <g id="figure_1">
  <g id="patch_1">
   <path d="M 0 355.337812 
L 496.77125 355.337812 
L 496.77125 0 
L 0 0 
z
" style="fill:#ffffff;"/>
  </g>
  <g id="axes_1">
   <g id="patch_2">
    <path d="M 74.29625 305.2 
L 489.57125 305.2 
L 489.57125 46.6 
L 74.29625 46.6 
z
" style="fill:#ffffff;"/>
   </g>
   <g id="matplotlib.axis_1">
    <g id="xtick_1">
     <g id="line2d_1">
      <defs>
       <path d="M 0 0 
L 0 3.5 
" id="m5a43fe4255" style="stroke:#000000;stroke-width:0.8;"/>
      </defs>
      <g>
       <use style="stroke:#000000;stroke-width:0.8;" x="93.172386" xlink:href="#m5a43fe4255" y="305.2"/>
      </g>
     </g>
     <g id="text_1">
      <!-- 0 -->
      <g transform="translate(88.400511 323.597656)scale(0.15 -0.15)">
       <defs>
        <path d="M 31.78125 66.40625 
Q 24.171875 66.40625 20.328125 58.90625 
Q 16.5 51.421875 16.5 36.375 
Q 16.5 21.390625 20.328125 13.890625 
Q 24.171875 6.390625 31.78125 6.390625 
Q 39.453125 6.390625 43.28125 13.890625 
Q 47.125 21.390625 47.125 36.375 
Q 47.125 51.421875 43.28125 58.90625 
Q 39.453125 66.40625 31.78125 66.40625 
z
M 31.78125 74.21875 
Q 44.046875 74.21875 50.515625 64.515625 
Q 56.984375 54.828125 56.984375 36.375 
Q 56.984375 17.96875 50.515625 8.265625 
Q 44.046875 -1.421875 31.78125 -1.421875 
Q 19.53125 -1.421875 13.0625 8.265625 
Q 6.59375 17.96875 6.59375 36.375 
Q 6.59375 54.828125 13.0625 64.515625 
Q 19.53125 74.21875 31.78125 74.21875 
z
" id="DejaVuSans-48"/>
       </defs>
       <use xlink:href="#DejaVuSans-48"/>
      </g>
     </g>
    </g>
    <g id="xtick_2">
     <g id="line2d_2">
      <g>
       <use style="stroke:#000000;stroke-width:0.8;" x="143.50875" xlink:href="#m5a43fe4255" y="305.2"/>
      </g>
     </g>
     <g id="text_2">
      <!-- 10 -->
      <g transform="translate(133.965 323.597656)scale(0.15 -0.15)">
       <defs>
        <path d="M 12.40625 8.296875 
L 28.515625 8.296875 
L 28.515625 63.921875 
L 10.984375 60.40625 
L 10.984375 69.390625 
L 28.421875 72.90625 
L 38.28125 72.90625 
L 38.28125 8.296875 
L 54.390625 8.296875 
L 54.390625 0 
L 12.40625 0 
z
" id="DejaVuSans-49"/>
       </defs>
       <use xlink:href="#DejaVuSans-49"/>
       <use x="63.623047" xlink:href="#DejaVuSans-48"/>
      </g>
     </g>
    </g>
    <g id="xtick_3">
     <g id="line2d_3">
      <g>
       <use style="stroke:#000000;stroke-width:0.8;" x="193.845114" xlink:href="#m5a43fe4255" y="305.2"/>
      </g>
     </g>
     <g id="text_3">
      <!-- 20 -->
      <g transform="translate(184.301364 323.597656)scale(0.15 -0.15)">
       <defs>
        <path d="M 19.1875 8.296875 
L 53.609375 8.296875 
L 53.609375 0 
L 7.328125 0 
L 7.328125 8.296875 
Q 12.9375 14.109375 22.625 23.890625 
Q 32.328125 33.6875 34.8125 36.53125 
Q 39.546875 41.84375 41.421875 45.53125 
Q 43.3125 49.21875 43.3125 52.78125 
Q 43.3125 58.59375 39.234375 62.25 
Q 35.15625 65.921875 28.609375 65.921875 
Q 23.96875 65.921875 18.8125 64.3125 
Q 13.671875 62.703125 7.8125 59.421875 
L 7.8125 69.390625 
Q 13.765625 71.78125 18.9375 73 
Q 24.125 74.21875 28.421875 74.21875 
Q 39.75 74.21875 46.484375 68.546875 
Q 53.21875 62.890625 53.21875 53.421875 
Q 53.21875 48.921875 51.53125 44.890625 
Q 49.859375 40.875 45.40625 35.40625 
Q 44.1875 33.984375 37.640625 27.21875 
Q 31.109375 20.453125 19.1875 8.296875 
z
" id="DejaVuSans-50"/>
       </defs>
       <use xlink:href="#DejaVuSans-50"/>
       <use x="63.623047" xlink:href="#DejaVuSans-48"/>
      </g>
     </g>
    </g>
    <g id="xtick_4">
     <g id="line2d_4">
      <g>
       <use style="stroke:#000000;stroke-width:0.8;" x="244.181477" xlink:href="#m5a43fe4255" y="305.2"/>
      </g>
     </g>
     <g id="text_4">
      <!-- 30 -->
      <g transform="translate(234.637727 323.597656)scale(0.15 -0.15)">
       <defs>
        <path d="M 40.578125 39.3125 
Q 47.65625 37.796875 51.625 33 
Q 55.609375 28.21875 55.609375 21.1875 
Q 55.609375 10.40625 48.1875 4.484375 
Q 40.765625 -1.421875 27.09375 -1.421875 
Q 22.515625 -1.421875 17.65625 -0.515625 
Q 12.796875 0.390625 7.625 2.203125 
L 7.625 11.71875 
Q 11.71875 9.328125 16.59375 8.109375 
Q 21.484375 6.890625 26.8125 6.890625 
Q 36.078125 6.890625 40.9375 10.546875 
Q 45.796875 14.203125 45.796875 21.1875 
Q 45.796875 27.640625 41.28125 31.265625 
Q 36.765625 34.90625 28.71875 34.90625 
L 20.21875 34.90625 
L 20.21875 43.015625 
L 29.109375 43.015625 
Q 36.375 43.015625 40.234375 45.921875 
Q 44.09375 48.828125 44.09375 54.296875 
Q 44.09375 59.90625 40.109375 62.90625 
Q 36.140625 65.921875 28.71875 65.921875 
Q 24.65625 65.921875 20.015625 65.03125 
Q 15.375 64.15625 9.8125 62.3125 
L 9.8125 71.09375 
Q 15.4375 72.65625 20.34375 73.4375 
Q 25.25 74.21875 29.59375 74.21875 
Q 40.828125 74.21875 47.359375 69.109375 
Q 53.90625 64.015625 53.90625 55.328125 
Q 53.90625 49.265625 50.4375 45.09375 
Q 46.96875 40.921875 40.578125 39.3125 
z
" id="DejaVuSans-51"/>
       </defs>
       <use xlink:href="#DejaVuSans-51"/>
       <use x="63.623047" xlink:href="#DejaVuSans-48"/>
      </g>
     </g>
    </g>
    <g id="xtick_5">
     <g id="line2d_5">
      <g>
       <use style="stroke:#000000;stroke-width:0.8;" x="294.517841" xlink:href="#m5a43fe4255" y="305.2"/>
      </g>
     </g>
     <g id="text_5">
      <!-- 40 -->
      <g transform="translate(284.974091 323.597656)scale(0.15 -0.15)">
       <defs>
        <path d="M 37.796875 64.3125 
L 12.890625 25.390625 
L 37.796875 25.390625 
z
M 35.203125 72.90625 
L 47.609375 72.90625 
L 47.609375 25.390625 
L 58.015625 25.390625 
L 58.015625 17.1875 
L 47.609375 17.1875 
L 47.609375 0 
L 37.796875 0 
L 37.796875 17.1875 
L 4.890625 17.1875 
L 4.890625 26.703125 
z
" id="DejaVuSans-52"/>
       </defs>
       <use xlink:href="#DejaVuSans-52"/>
       <use x="63.623047" xlink:href="#DejaVuSans-48"/>
      </g>
     </g>
    </g>
    <g id="xtick_6">
     <g id="line2d_6">
      <g>
       <use style="stroke:#000000;stroke-width:0.8;" x="344.854205" xlink:href="#m5a43fe4255" y="305.2"/>
      </g>
     </g>
     <g id="text_6">
      <!-- 50 -->
      <g transform="translate(335.310455 323.597656)scale(0.15 -0.15)">
       <defs>
        <path d="M 10.796875 72.90625 
L 49.515625 72.90625 
L 49.515625 64.59375 
L 19.828125 64.59375 
L 19.828125 46.734375 
Q 21.96875 47.46875 24.109375 47.828125 
Q 26.265625 48.1875 28.421875 48.1875 
Q 40.625 48.1875 47.75 41.5 
Q 54.890625 34.8125 54.890625 23.390625 
Q 54.890625 11.625 47.5625 5.09375 
Q 40.234375 -1.421875 26.90625 -1.421875 
Q 22.3125 -1.421875 17.546875 -0.640625 
Q 12.796875 0.140625 7.71875 1.703125 
L 7.71875 11.625 
Q 12.109375 9.234375 16.796875 8.0625 
Q 21.484375 6.890625 26.703125 6.890625 
Q 35.15625 6.890625 40.078125 11.328125 
Q 45.015625 15.765625 45.015625 23.390625 
Q 45.015625 31 40.078125 35.4375 
Q 35.15625 39.890625 26.703125 39.890625 
Q 22.75 39.890625 18.8125 39.015625 
Q 14.890625 38.140625 10.796875 36.28125 
z
" id="DejaVuSans-53"/>
       </defs>
       <use xlink:href="#DejaVuSans-53"/>
       <use x="63.623047" xlink:href="#DejaVuSans-48"/>
      </g>
     </g>
    </g>
    <g id="xtick_7">
     <g id="line2d_7">
      <g>
       <use style="stroke:#000000;stroke-width:0.8;" x="395.190568" xlink:href="#m5a43fe4255" y="305.2"/>
      </g>
     </g>
     <g id="text_7">
      <!-- 60 -->
      <g transform="translate(385.646818 323.597656)scale(0.15 -0.15)">
       <defs>
        <path d="M 33.015625 40.375 
Q 26.375 40.375 22.484375 35.828125 
Q 18.609375 31.296875 18.609375 23.390625 
Q 18.609375 15.53125 22.484375 10.953125 
Q 26.375 6.390625 33.015625 6.390625 
Q 39.65625 6.390625 43.53125 10.953125 
Q 47.40625 15.53125 47.40625 23.390625 
Q 47.40625 31.296875 43.53125 35.828125 
Q 39.65625 40.375 33.015625 40.375 
z
M 52.59375 71.296875 
L 52.59375 62.3125 
Q 48.875 64.0625 45.09375 64.984375 
Q 41.3125 65.921875 37.59375 65.921875 
Q 27.828125 65.921875 22.671875 59.328125 
Q 17.53125 52.734375 16.796875 39.40625 
Q 19.671875 43.65625 24.015625 45.921875 
Q 28.375 48.1875 33.59375 48.1875 
Q 44.578125 48.1875 50.953125 41.515625 
Q 57.328125 34.859375 57.328125 23.390625 
Q 57.328125 12.15625 50.6875 5.359375 
Q 44.046875 -1.421875 33.015625 -1.421875 
Q 20.359375 -1.421875 13.671875 8.265625 
Q 6.984375 17.96875 6.984375 36.375 
Q 6.984375 53.65625 15.1875 63.9375 
Q 23.390625 74.21875 37.203125 74.21875 
Q 40.921875 74.21875 44.703125 73.484375 
Q 48.484375 72.75 52.59375 71.296875 
z
" id="DejaVuSans-54"/>
       </defs>
       <use xlink:href="#DejaVuSans-54"/>
       <use x="63.623047" xlink:href="#DejaVuSans-48"/>
      </g>
     </g>
    </g>
    <g id="xtick_8">
     <g id="line2d_8">
      <g>
       <use style="stroke:#000000;stroke-width:0.8;" x="445.526932" xlink:href="#m5a43fe4255" y="305.2"/>
      </g>
     </g>
     <g id="text_8">
      <!-- 70 -->
      <g transform="translate(435.983182 323.597656)scale(0.15 -0.15)">
       <defs>
        <path d="M 8.203125 72.90625 
L 55.078125 72.90625 
L 55.078125 68.703125 
L 28.609375 0 
L 18.3125 0 
L 43.21875 64.59375 
L 8.203125 64.59375 
z
" id="DejaVuSans-55"/>
       </defs>
       <use xlink:href="#DejaVuSans-55"/>
       <use x="63.623047" xlink:href="#DejaVuSans-48"/>
      </g>
     </g>
    </g>
    <g id="text_9">
     <!-- time [time] -->
     <g transform="translate(224.834375 344.394375)scale(0.18 -0.18)">
      <defs>
       <path d="M 27.484375 70.21875 
L 27.484375 54.6875 
L 45.515625 54.6875 
L 45.515625 42.1875 
L 27.484375 42.1875 
L 27.484375 19 
Q 27.484375 15.1875 29 13.84375 
Q 30.515625 12.5 35.015625 12.5 
L 44 12.5 
L 44 0 
L 29 0 
Q 18.65625 0 14.328125 4.3125 
Q 10.015625 8.640625 10.015625 19 
L 10.015625 42.1875 
L 1.3125 42.1875 
L 1.3125 54.6875 
L 10.015625 54.6875 
L 10.015625 70.21875 
z
" id="DejaVuSans-Bold-116"/>
       <path d="M 8.40625 54.6875 
L 25.875 54.6875 
L 25.875 0 
L 8.40625 0 
z
M 8.40625 75.984375 
L 25.875 75.984375 
L 25.875 61.71875 
L 8.40625 61.71875 
z
" id="DejaVuSans-Bold-105"/>
       <path d="M 59.078125 45.609375 
Q 62.40625 50.6875 66.96875 53.34375 
Q 71.53125 56 77 56 
Q 86.421875 56 91.359375 50.1875 
Q 96.296875 44.390625 96.296875 33.296875 
L 96.296875 0 
L 78.71875 0 
L 78.71875 28.515625 
Q 78.765625 29.15625 78.78125 29.828125 
Q 78.8125 30.515625 78.8125 31.78125 
Q 78.8125 37.59375 77.09375 40.203125 
Q 75.390625 42.828125 71.578125 42.828125 
Q 66.609375 42.828125 63.890625 38.71875 
Q 61.1875 34.625 61.078125 26.859375 
L 61.078125 0 
L 43.5 0 
L 43.5 28.515625 
Q 43.5 37.59375 41.9375 40.203125 
Q 40.375 42.828125 36.375 42.828125 
Q 31.34375 42.828125 28.609375 38.703125 
Q 25.875 34.578125 25.875 26.90625 
L 25.875 0 
L 8.296875 0 
L 8.296875 54.6875 
L 25.875 54.6875 
L 25.875 46.6875 
Q 29.109375 51.3125 33.28125 53.65625 
Q 37.453125 56 42.484375 56 
Q 48.140625 56 52.484375 53.265625 
Q 56.84375 50.53125 59.078125 45.609375 
z
" id="DejaVuSans-Bold-109"/>
       <path d="M 62.984375 27.484375 
L 62.984375 22.515625 
L 22.125 22.515625 
Q 22.75 16.359375 26.5625 13.28125 
Q 30.375 10.203125 37.203125 10.203125 
Q 42.71875 10.203125 48.5 11.84375 
Q 54.296875 13.484375 60.40625 16.796875 
L 60.40625 3.328125 
Q 54.203125 0.984375 48 -0.21875 
Q 41.796875 -1.421875 35.59375 -1.421875 
Q 20.75 -1.421875 12.515625 6.125 
Q 4.296875 13.671875 4.296875 27.296875 
Q 4.296875 40.671875 12.375 48.328125 
Q 20.453125 56 34.625 56 
Q 47.515625 56 55.25 48.234375 
Q 62.984375 40.484375 62.984375 27.484375 
z
M 45.015625 33.296875 
Q 45.015625 38.28125 42.109375 41.328125 
Q 39.203125 44.390625 34.515625 44.390625 
Q 29.4375 44.390625 26.265625 41.53125 
Q 23.09375 38.671875 22.3125 33.296875 
z
" id="DejaVuSans-Bold-101"/>
       <path id="DejaVuSans-Bold-32"/>
       <path d="M 8.59375 75.984375 
L 38.921875 75.984375 
L 38.921875 64.984375 
L 25.203125 64.984375 
L 25.203125 -2.203125 
L 38.921875 -2.203125 
L 38.921875 -13.1875 
L 8.59375 -13.1875 
z
" id="DejaVuSans-Bold-91"/>
       <path d="M 37.109375 -13.1875 
L 6.78125 -13.1875 
L 6.78125 -2.203125 
L 20.515625 -2.203125 
L 20.515625 64.984375 
L 6.78125 64.984375 
L 6.78125 75.984375 
L 37.109375 75.984375 
z
" id="DejaVuSans-Bold-93"/>
      </defs>
      <use xlink:href="#DejaVuSans-Bold-116"/>
      <use x="47.802734" xlink:href="#DejaVuSans-Bold-105"/>
      <use x="82.080078" xlink:href="#DejaVuSans-Bold-109"/>
      <use x="186.279297" xlink:href="#DejaVuSans-Bold-101"/>
      <use x="254.101562" xlink:href="#DejaVuSans-Bold-32"/>
      <use x="288.916016" xlink:href="#DejaVuSans-Bold-91"/>
      <use x="334.619141" xlink:href="#DejaVuSans-Bold-116"/>
      <use x="382.421875" xlink:href="#DejaVuSans-Bold-105"/>
      <use x="416.699219" xlink:href="#DejaVuSans-Bold-109"/>
      <use x="520.898438" xlink:href="#DejaVuSans-Bold-101"/>
      <use x="588.720703" xlink:href="#DejaVuSans-Bold-93"/>
     </g>
    </g>
   </g>
   <g id="matplotlib.axis_2">
    <g id="ytick_1">
     <g id="line2d_9">
      <defs>
       <path d="M 0 0 
L -3.5 0 
" id="m3059fe8dc2" style="stroke:#000000;stroke-width:0.8;"/>
      </defs>
      <g>
       <use style="stroke:#000000;stroke-width:0.8;" x="74.29625" xlink:href="#m3059fe8dc2" y="293.445455"/>
      </g>
     </g>
     <g id="text_10">
      <!-- 0 -->
      <g transform="translate(57.7525 299.144283)scale(0.15 -0.15)">
       <use xlink:href="#DejaVuSans-48"/>
      </g>
     </g>
    </g>
    <g id="ytick_2">
     <g id="line2d_10">
      <g>
       <use style="stroke:#000000;stroke-width:0.8;" x="74.29625" xlink:href="#m3059fe8dc2" y="256.120032"/>
      </g>
     </g>
     <g id="text_11">
      <!-- 250 -->
      <g transform="translate(38.665 261.81886)scale(0.15 -0.15)">
       <use xlink:href="#DejaVuSans-50"/>
       <use x="63.623047" xlink:href="#DejaVuSans-53"/>
       <use x="127.246094" xlink:href="#DejaVuSans-48"/>
      </g>
     </g>
    </g>
    <g id="ytick_3">
     <g id="line2d_11">
      <g>
       <use style="stroke:#000000;stroke-width:0.8;" x="74.29625" xlink:href="#m3059fe8dc2" y="218.794609"/>
      </g>
     </g>
     <g id="text_12">
      <!-- 500 -->
      <g transform="translate(38.665 224.493438)scale(0.15 -0.15)">
       <use xlink:href="#DejaVuSans-53"/>
       <use x="63.623047" xlink:href="#DejaVuSans-48"/>
       <use x="127.246094" xlink:href="#DejaVuSans-48"/>
      </g>
     </g>
    </g>
    <g id="ytick_4">
     <g id="line2d_12">
      <g>
       <use style="stroke:#000000;stroke-width:0.8;" x="74.29625" xlink:href="#m3059fe8dc2" y="181.469187"/>
      </g>
     </g>
     <g id="text_13">
      <!-- 750 -->
      <g transform="translate(38.665 187.168015)scale(0.15 -0.15)">
       <use xlink:href="#DejaVuSans-55"/>
       <use x="63.623047" xlink:href="#DejaVuSans-53"/>
       <use x="127.246094" xlink:href="#DejaVuSans-48"/>
      </g>
     </g>
    </g>
    <g id="ytick_5">
     <g id="line2d_13">
      <g>
       <use style="stroke:#000000;stroke-width:0.8;" x="74.29625" xlink:href="#m3059fe8dc2" y="144.143764"/>
      </g>
     </g>
     <g id="text_14">
      <!-- 1000 -->
      <g transform="translate(29.12125 149.842593)scale(0.15 -0.15)">
       <use xlink:href="#DejaVuSans-49"/>
       <use x="63.623047" xlink:href="#DejaVuSans-48"/>
       <use x="127.246094" xlink:href="#DejaVuSans-48"/>
       <use x="190.869141" xlink:href="#DejaVuSans-48"/>
      </g>
     </g>
    </g>
    <g id="ytick_6">
     <g id="line2d_14">
      <g>
       <use style="stroke:#000000;stroke-width:0.8;" x="74.29625" xlink:href="#m3059fe8dc2" y="106.818342"/>
      </g>
     </g>
     <g id="text_15">
      <!-- 1250 -->
      <g transform="translate(29.12125 112.51717)scale(0.15 -0.15)">
       <use xlink:href="#DejaVuSans-49"/>
       <use x="63.623047" xlink:href="#DejaVuSans-50"/>
       <use x="127.246094" xlink:href="#DejaVuSans-53"/>
       <use x="190.869141" xlink:href="#DejaVuSans-48"/>
      </g>
     </g>
    </g>
    <g id="ytick_7">
     <g id="line2d_15">
      <g>
       <use style="stroke:#000000;stroke-width:0.8;" x="74.29625" xlink:href="#m3059fe8dc2" y="69.492919"/>
      </g>
     </g>
     <g id="text_16">
      <!-- 1500 -->
      <g transform="translate(29.12125 75.191747)scale(0.15 -0.15)">
       <use xlink:href="#DejaVuSans-49"/>
       <use x="63.623047" xlink:href="#DejaVuSans-53"/>
       <use x="127.246094" xlink:href="#DejaVuSans-48"/>
       <use x="190.869141" xlink:href="#DejaVuSans-48"/>
      </g>
     </g>
    </g>
    <g id="text_17">
     <!-- Total_deaths [substance] -->
     <g transform="translate(20.877187 302.819687)rotate(-90)scale(0.18 -0.18)">
      <defs>
       <path d="M 0.484375 72.90625 
L 67.671875 72.90625 
L 67.671875 58.6875 
L 43.5 58.6875 
L 43.5 0 
L 24.703125 0 
L 24.703125 58.6875 
L 0.484375 58.6875 
z
" id="DejaVuSans-Bold-84"/>
       <path d="M 34.421875 43.5 
Q 28.609375 43.5 25.5625 39.328125 
Q 22.515625 35.15625 22.515625 27.296875 
Q 22.515625 19.4375 25.5625 15.25 
Q 28.609375 11.078125 34.421875 11.078125 
Q 40.140625 11.078125 43.15625 15.25 
Q 46.1875 19.4375 46.1875 27.296875 
Q 46.1875 35.15625 43.15625 39.328125 
Q 40.140625 43.5 34.421875 43.5 
z
M 34.421875 56 
Q 48.53125 56 56.46875 48.375 
Q 64.40625 40.765625 64.40625 27.296875 
Q 64.40625 13.8125 56.46875 6.1875 
Q 48.53125 -1.421875 34.421875 -1.421875 
Q 20.265625 -1.421875 12.28125 6.1875 
Q 4.296875 13.8125 4.296875 27.296875 
Q 4.296875 40.765625 12.28125 48.375 
Q 20.265625 56 34.421875 56 
z
" id="DejaVuSans-Bold-111"/>
       <path d="M 32.90625 24.609375 
Q 27.4375 24.609375 24.671875 22.75 
Q 21.921875 20.90625 21.921875 17.28125 
Q 21.921875 13.96875 24.140625 12.078125 
Q 26.375 10.203125 30.328125 10.203125 
Q 35.25 10.203125 38.625 13.734375 
Q 42 17.28125 42 22.609375 
L 42 24.609375 
z
M 59.625 31.203125 
L 59.625 0 
L 42 0 
L 42 8.109375 
Q 38.484375 3.125 34.078125 0.84375 
Q 29.6875 -1.421875 23.390625 -1.421875 
Q 14.890625 -1.421875 9.59375 3.53125 
Q 4.296875 8.5 4.296875 16.40625 
Q 4.296875 26.03125 10.90625 30.515625 
Q 17.53125 35.015625 31.6875 35.015625 
L 42 35.015625 
L 42 36.375 
Q 42 40.53125 38.71875 42.453125 
Q 35.453125 44.390625 28.515625 44.390625 
Q 22.90625 44.390625 18.0625 43.265625 
Q 13.234375 42.140625 9.078125 39.890625 
L 9.078125 53.21875 
Q 14.703125 54.59375 20.359375 55.296875 
Q 26.03125 56 31.6875 56 
Q 46.484375 56 53.046875 50.171875 
Q 59.625 44.34375 59.625 31.203125 
z
" id="DejaVuSans-Bold-97"/>
       <path d="M 8.40625 75.984375 
L 25.875 75.984375 
L 25.875 0 
L 8.40625 0 
z
" id="DejaVuSans-Bold-108"/>
       <path d="M 50 -14.3125 
L 50 -23.578125 
L 0 -23.578125 
L 0 -14.3125 
z
" id="DejaVuSans-Bold-95"/>
       <path d="M 45.609375 46.6875 
L 45.609375 75.984375 
L 63.1875 75.984375 
L 63.1875 0 
L 45.609375 0 
L 45.609375 7.90625 
Q 42 3.078125 37.640625 0.828125 
Q 33.296875 -1.421875 27.59375 -1.421875 
Q 17.484375 -1.421875 10.984375 6.609375 
Q 4.5 14.65625 4.5 27.296875 
Q 4.5 39.9375 10.984375 47.96875 
Q 17.484375 56 27.59375 56 
Q 33.25 56 37.625 53.734375 
Q 42 51.46875 45.609375 46.6875 
z
M 34.078125 11.28125 
Q 39.703125 11.28125 42.65625 15.375 
Q 45.609375 19.484375 45.609375 27.296875 
Q 45.609375 35.109375 42.65625 39.203125 
Q 39.703125 43.3125 34.078125 43.3125 
Q 28.515625 43.3125 25.5625 39.203125 
Q 22.609375 35.109375 22.609375 27.296875 
Q 22.609375 19.484375 25.5625 15.375 
Q 28.515625 11.28125 34.078125 11.28125 
z
" id="DejaVuSans-Bold-100"/>
       <path d="M 63.375 33.296875 
L 63.375 0 
L 45.796875 0 
L 45.796875 5.421875 
L 45.796875 25.390625 
Q 45.796875 32.5625 45.484375 35.25 
Q 45.171875 37.9375 44.390625 39.203125 
Q 43.359375 40.921875 41.59375 41.875 
Q 39.84375 42.828125 37.59375 42.828125 
Q 32.125 42.828125 29 38.59375 
Q 25.875 34.375 25.875 26.90625 
L 25.875 0 
L 8.40625 0 
L 8.40625 75.984375 
L 25.875 75.984375 
L 25.875 46.6875 
Q 29.828125 51.46875 34.265625 53.734375 
Q 38.71875 56 44.09375 56 
Q 53.5625 56 58.46875 50.1875 
Q 63.375 44.390625 63.375 33.296875 
z
" id="DejaVuSans-Bold-104"/>
       <path d="M 51.125 52.984375 
L 51.125 39.703125 
Q 45.515625 42.046875 40.28125 43.21875 
Q 35.0625 44.390625 30.421875 44.390625 
Q 25.4375 44.390625 23.015625 43.140625 
Q 20.609375 41.890625 20.609375 39.3125 
Q 20.609375 37.203125 22.4375 36.078125 
Q 24.265625 34.96875 29 34.421875 
L 32.078125 33.984375 
Q 45.515625 32.28125 50.140625 28.375 
Q 54.78125 24.46875 54.78125 16.109375 
Q 54.78125 7.375 48.328125 2.96875 
Q 41.890625 -1.421875 29.109375 -1.421875 
Q 23.6875 -1.421875 17.890625 -0.5625 
Q 12.109375 0.296875 6 2 
L 6 15.28125 
Q 11.234375 12.75 16.71875 11.46875 
Q 22.21875 10.203125 27.875 10.203125 
Q 33.015625 10.203125 35.59375 11.609375 
Q 38.1875 13.03125 38.1875 15.828125 
Q 38.1875 18.171875 36.40625 19.3125 
Q 34.625 20.453125 29.296875 21.09375 
L 26.21875 21.484375 
Q 14.546875 22.953125 9.859375 26.90625 
Q 5.171875 30.859375 5.171875 38.921875 
Q 5.171875 47.609375 11.125 51.796875 
Q 17.09375 56 29.390625 56 
Q 34.234375 56 39.546875 55.265625 
Q 44.875 54.546875 51.125 52.984375 
z
" id="DejaVuSans-Bold-115"/>
       <path d="M 7.8125 21.296875 
L 7.8125 54.6875 
L 25.390625 54.6875 
L 25.390625 49.21875 
Q 25.390625 44.78125 25.34375 38.0625 
Q 25.296875 31.34375 25.296875 29.109375 
Q 25.296875 22.515625 25.640625 19.609375 
Q 25.984375 16.703125 26.8125 15.375 
Q 27.875 13.671875 29.609375 12.734375 
Q 31.34375 11.8125 33.59375 11.8125 
Q 39.0625 11.8125 42.1875 16.015625 
Q 45.3125 20.21875 45.3125 27.6875 
L 45.3125 54.6875 
L 62.796875 54.6875 
L 62.796875 0 
L 45.3125 0 
L 45.3125 7.90625 
Q 41.359375 3.125 36.9375 0.84375 
Q 32.515625 -1.421875 27.203125 -1.421875 
Q 17.71875 -1.421875 12.765625 4.390625 
Q 7.8125 10.203125 7.8125 21.296875 
z
" id="DejaVuSans-Bold-117"/>
       <path d="M 37.5 11.28125 
Q 43.109375 11.28125 46.0625 15.375 
Q 49.03125 19.484375 49.03125 27.296875 
Q 49.03125 35.109375 46.0625 39.203125 
Q 43.109375 43.3125 37.5 43.3125 
Q 31.890625 43.3125 28.875 39.1875 
Q 25.875 35.0625 25.875 27.296875 
Q 25.875 19.53125 28.875 15.40625 
Q 31.890625 11.28125 37.5 11.28125 
z
M 25.875 46.6875 
Q 29.5 51.46875 33.890625 53.734375 
Q 38.28125 56 44 56 
Q 54.109375 56 60.59375 47.96875 
Q 67.09375 39.9375 67.09375 27.296875 
Q 67.09375 14.65625 60.59375 6.609375 
Q 54.109375 -1.421875 44 -1.421875 
Q 38.28125 -1.421875 33.890625 0.84375 
Q 29.5 3.125 25.875 7.90625 
L 25.875 0 
L 8.40625 0 
L 8.40625 75.984375 
L 25.875 75.984375 
z
" id="DejaVuSans-Bold-98"/>
       <path d="M 63.375 33.296875 
L 63.375 0 
L 45.796875 0 
L 45.796875 5.421875 
L 45.796875 25.484375 
Q 45.796875 32.5625 45.484375 35.25 
Q 45.171875 37.9375 44.390625 39.203125 
Q 43.359375 40.921875 41.59375 41.875 
Q 39.84375 42.828125 37.59375 42.828125 
Q 32.125 42.828125 29 38.59375 
Q 25.875 34.375 25.875 26.90625 
L 25.875 0 
L 8.40625 0 
L 8.40625 54.6875 
L 25.875 54.6875 
L 25.875 46.6875 
Q 29.828125 51.46875 34.265625 53.734375 
Q 38.71875 56 44.09375 56 
Q 53.5625 56 58.46875 50.1875 
Q 63.375 44.390625 63.375 33.296875 
z
" id="DejaVuSans-Bold-110"/>
       <path d="M 52.59375 52.984375 
L 52.59375 38.71875 
Q 49.03125 41.15625 45.4375 42.328125 
Q 41.84375 43.5 37.984375 43.5 
Q 30.671875 43.5 26.59375 39.234375 
Q 22.515625 34.96875 22.515625 27.296875 
Q 22.515625 19.625 26.59375 15.34375 
Q 30.671875 11.078125 37.984375 11.078125 
Q 42.09375 11.078125 45.78125 12.296875 
Q 49.46875 13.53125 52.59375 15.921875 
L 52.59375 1.609375 
Q 48.484375 0.09375 44.265625 -0.65625 
Q 40.046875 -1.421875 35.796875 -1.421875 
Q 21 -1.421875 12.640625 6.171875 
Q 4.296875 13.765625 4.296875 27.296875 
Q 4.296875 40.828125 12.640625 48.40625 
Q 21 56 35.796875 56 
Q 40.09375 56 44.265625 55.25 
Q 48.4375 54.5 52.59375 52.984375 
z
" id="DejaVuSans-Bold-99"/>
      </defs>
      <use xlink:href="#DejaVuSans-Bold-84"/>
      <use x="54.962891" xlink:href="#DejaVuSans-Bold-111"/>
      <use x="123.664062" xlink:href="#DejaVuSans-Bold-116"/>
      <use x="171.466797" xlink:href="#DejaVuSans-Bold-97"/>
      <use x="238.947266" xlink:href="#DejaVuSans-Bold-108"/>
      <use x="273.224609" xlink:href="#DejaVuSans-Bold-95"/>
      <use x="323.224609" xlink:href="#DejaVuSans-Bold-100"/>
      <use x="394.806641" xlink:href="#DejaVuSans-Bold-101"/>
      <use x="462.628906" xlink:href="#DejaVuSans-Bold-97"/>
      <use x="530.109375" xlink:href="#DejaVuSans-Bold-116"/>
      <use x="577.912109" xlink:href="#DejaVuSans-Bold-104"/>
      <use x="649.103516" xlink:href="#DejaVuSans-Bold-115"/>
      <use x="708.625" xlink:href="#DejaVuSans-Bold-32"/>
      <use x="743.439453" xlink:href="#DejaVuSans-Bold-91"/>
      <use x="789.142578" xlink:href="#DejaVuSans-Bold-115"/>
      <use x="848.664062" xlink:href="#DejaVuSans-Bold-117"/>
      <use x="919.855469" xlink:href="#DejaVuSans-Bold-98"/>
      <use x="991.4375" xlink:href="#DejaVuSans-Bold-115"/>
      <use x="1050.958984" xlink:href="#DejaVuSans-Bold-116"/>
      <use x="1098.761719" xlink:href="#DejaVuSans-Bold-97"/>
      <use x="1166.242188" xlink:href="#DejaVuSans-Bold-110"/>
      <use x="1237.433594" xlink:href="#DejaVuSans-Bold-99"/>
      <use x="1296.710938" xlink:href="#DejaVuSans-Bold-101"/>
      <use x="1364.533203" xlink:href="#DejaVuSans-Bold-93"/>
     </g>
    </g>
   </g>
   <g id="line2d_16">
    <path clip-path="url(#p6b183d65c3)" d="M 93.172386 293.445455 
L 98.274045 293.331581 
L 103.375703 293.203077 
L 108.477362 293.054118 
L 113.57902 292.880109 
L 118.680679 292.67716 
L 123.782337 292.441701 
L 128.883996 292.170208 
L 133.985654 291.858994 
L 139.087313 291.504047 
L 144.188971 291.100896 
L 149.29063 290.644499 
L 154.392288 290.129131 
L 159.493947 289.548275 
L 164.595605 288.894516 
L 169.697264 288.159416 
L 174.798922 287.333388 
L 179.90058 286.405546 
L 185.002239 285.363547 
L 190.103897 284.193404 
L 195.205556 282.879283 
L 200.307214 281.403268 
L 205.408873 279.74943 
L 210.510531 277.971338 
L 215.61219 276.087268 
L 220.713848 274.094159 
L 225.815507 271.990883 
L 230.917165 269.777643 
L 236.018824 267.455521 
L 241.120482 265.026141 
L 246.222141 262.491422 
L 251.323799 259.853435 
L 256.425458 257.114275 
L 261.527116 254.275981 
L 266.628775 251.340474 
L 271.730433 248.30953 
L 276.832092 245.184754 
L 281.93375 241.967574 
L 287.035408 238.659227 
L 292.137067 235.26077 
L 297.238725 231.773078 
L 302.340384 228.196858 
L 307.442042 224.532653 
L 312.543701 220.780851 
L 317.645359 216.941695 
L 322.747018 213.015288 
L 327.848676 209.00161 
L 332.950335 204.900517 
L 338.051993 200.711759 
L 343.153652 196.434979 
L 348.25531 192.069726 
L 353.356969 187.615456 
L 358.458627 183.071541 
L 363.560286 178.437274 
L 368.661944 173.711874 
L 373.763603 168.894493 
L 378.865261 163.984208 
L 383.96692 158.980051 
L 389.068578 153.880982 
L 394.170236 148.68591 
L 399.271895 143.393699 
L 404.373553 138.003148 
L 409.475212 132.51302 
L 414.57687 126.922029 
L 419.678529 121.228839 
L 424.780187 115.43208 
L 429.881846 109.530333 
L 434.983504 103.522146 
L 440.085163 97.406025 
L 445.186821 91.180441 
L 450.28848 84.843828 
L 455.390138 78.394584 
L 460.491797 71.831074 
L 465.593455 65.151629 
L 470.695114 58.354545 
" style="fill:none;stroke:#000000;stroke-linecap:square;stroke-width:2;"/>
   </g>
   <g id="patch_3">
    <path d="M 74.29625 305.2 
L 74.29625 46.6 
" style="fill:none;stroke:#000000;stroke-linecap:square;stroke-linejoin:miter;stroke-width:0.8;"/>
   </g>
   <g id="patch_4">
    <path d="M 489.57125 305.2 
L 489.57125 46.6 
" style="fill:none;stroke:#000000;stroke-linecap:square;stroke-linejoin:miter;stroke-width:0.8;"/>
   </g>
   <g id="patch_5">
    <path d="M 74.29625 305.2 
L 489.57125 305.2 
" style="fill:none;stroke:#000000;stroke-linecap:square;stroke-linejoin:miter;stroke-width:0.8;"/>
   </g>
   <g id="patch_6">
    <path d="M 74.29625 46.6 
L 489.57125 46.6 
" style="fill:none;stroke:#000000;stroke-linecap:square;stroke-linejoin:miter;stroke-width:0.8;"/>
   </g>
   <g id="legend_1">
    <g id="patch_7">
     <path d="M 83.39625 76.443125 
L 206.18125 76.443125 
Q 208.78125 76.443125 208.78125 73.843125 
L 208.78125 55.7 
Q 208.78125 53.1 206.18125 53.1 
L 83.39625 53.1 
Q 80.79625 53.1 80.79625 55.7 
L 80.79625 73.843125 
Q 80.79625 76.443125 83.39625 76.443125 
z
" style="fill:#ffffff;opacity:0.8;stroke:#cccccc;stroke-linejoin:miter;"/>
    </g>
    <g id="line2d_17">
     <path d="M 85.99625 63.627969 
L 111.99625 63.627969 
" style="fill:none;stroke:#000000;stroke-linecap:square;stroke-width:2;"/>
    </g>
    <g id="line2d_18"/>
    <g id="text_18">
     <!-- Total_deaths -->
     <g transform="translate(122.39625 68.177969)scale(0.13 -0.13)">
      <defs>
       <path d="M -0.296875 72.90625 
L 61.375 72.90625 
L 61.375 64.59375 
L 35.5 64.59375 
L 35.5 0 
L 25.59375 0 
L 25.59375 64.59375 
L -0.296875 64.59375 
z
" id="DejaVuSans-84"/>
       <path d="M 30.609375 48.390625 
Q 23.390625 48.390625 19.1875 42.75 
Q 14.984375 37.109375 14.984375 27.296875 
Q 14.984375 17.484375 19.15625 11.84375 
Q 23.34375 6.203125 30.609375 6.203125 
Q 37.796875 6.203125 41.984375 11.859375 
Q 46.1875 17.53125 46.1875 27.296875 
Q 46.1875 37.015625 41.984375 42.703125 
Q 37.796875 48.390625 30.609375 48.390625 
z
M 30.609375 56 
Q 42.328125 56 49.015625 48.375 
Q 55.71875 40.765625 55.71875 27.296875 
Q 55.71875 13.875 49.015625 6.21875 
Q 42.328125 -1.421875 30.609375 -1.421875 
Q 18.84375 -1.421875 12.171875 6.21875 
Q 5.515625 13.875 5.515625 27.296875 
Q 5.515625 40.765625 12.171875 48.375 
Q 18.84375 56 30.609375 56 
z
" id="DejaVuSans-111"/>
       <path d="M 18.3125 70.21875 
L 18.3125 54.6875 
L 36.8125 54.6875 
L 36.8125 47.703125 
L 18.3125 47.703125 
L 18.3125 18.015625 
Q 18.3125 11.328125 20.140625 9.421875 
Q 21.96875 7.515625 27.59375 7.515625 
L 36.8125 7.515625 
L 36.8125 0 
L 27.59375 0 
Q 17.1875 0 13.234375 3.875 
Q 9.28125 7.765625 9.28125 18.015625 
L 9.28125 47.703125 
L 2.6875 47.703125 
L 2.6875 54.6875 
L 9.28125 54.6875 
L 9.28125 70.21875 
z
" id="DejaVuSans-116"/>
       <path d="M 34.28125 27.484375 
Q 23.390625 27.484375 19.1875 25 
Q 14.984375 22.515625 14.984375 16.5 
Q 14.984375 11.71875 18.140625 8.90625 
Q 21.296875 6.109375 26.703125 6.109375 
Q 34.1875 6.109375 38.703125 11.40625 
Q 43.21875 16.703125 43.21875 25.484375 
L 43.21875 27.484375 
z
M 52.203125 31.203125 
L 52.203125 0 
L 43.21875 0 
L 43.21875 8.296875 
Q 40.140625 3.328125 35.546875 0.953125 
Q 30.953125 -1.421875 24.3125 -1.421875 
Q 15.921875 -1.421875 10.953125 3.296875 
Q 6 8.015625 6 15.921875 
Q 6 25.140625 12.171875 29.828125 
Q 18.359375 34.515625 30.609375 34.515625 
L 43.21875 34.515625 
L 43.21875 35.40625 
Q 43.21875 41.609375 39.140625 45 
Q 35.0625 48.390625 27.6875 48.390625 
Q 23 48.390625 18.546875 47.265625 
Q 14.109375 46.140625 10.015625 43.890625 
L 10.015625 52.203125 
Q 14.9375 54.109375 19.578125 55.046875 
Q 24.21875 56 28.609375 56 
Q 40.484375 56 46.34375 49.84375 
Q 52.203125 43.703125 52.203125 31.203125 
z
" id="DejaVuSans-97"/>
       <path d="M 9.421875 75.984375 
L 18.40625 75.984375 
L 18.40625 0 
L 9.421875 0 
z
" id="DejaVuSans-108"/>
       <path d="M 50.984375 -16.609375 
L 50.984375 -23.578125 
L -0.984375 -23.578125 
L -0.984375 -16.609375 
z
" id="DejaVuSans-95"/>
       <path d="M 45.40625 46.390625 
L 45.40625 75.984375 
L 54.390625 75.984375 
L 54.390625 0 
L 45.40625 0 
L 45.40625 8.203125 
Q 42.578125 3.328125 38.25 0.953125 
Q 33.9375 -1.421875 27.875 -1.421875 
Q 17.96875 -1.421875 11.734375 6.484375 
Q 5.515625 14.40625 5.515625 27.296875 
Q 5.515625 40.1875 11.734375 48.09375 
Q 17.96875 56 27.875 56 
Q 33.9375 56 38.25 53.625 
Q 42.578125 51.265625 45.40625 46.390625 
z
M 14.796875 27.296875 
Q 14.796875 17.390625 18.875 11.75 
Q 22.953125 6.109375 30.078125 6.109375 
Q 37.203125 6.109375 41.296875 11.75 
Q 45.40625 17.390625 45.40625 27.296875 
Q 45.40625 37.203125 41.296875 42.84375 
Q 37.203125 48.484375 30.078125 48.484375 
Q 22.953125 48.484375 18.875 42.84375 
Q 14.796875 37.203125 14.796875 27.296875 
z
" id="DejaVuSans-100"/>
       <path d="M 56.203125 29.59375 
L 56.203125 25.203125 
L 14.890625 25.203125 
Q 15.484375 15.921875 20.484375 11.0625 
Q 25.484375 6.203125 34.421875 6.203125 
Q 39.59375 6.203125 44.453125 7.46875 
Q 49.3125 8.734375 54.109375 11.28125 
L 54.109375 2.78125 
Q 49.265625 0.734375 44.1875 -0.34375 
Q 39.109375 -1.421875 33.890625 -1.421875 
Q 20.796875 -1.421875 13.15625 6.1875 
Q 5.515625 13.8125 5.515625 26.8125 
Q 5.515625 40.234375 12.765625 48.109375 
Q 20.015625 56 32.328125 56 
Q 43.359375 56 49.78125 48.890625 
Q 56.203125 41.796875 56.203125 29.59375 
z
M 47.21875 32.234375 
Q 47.125 39.59375 43.09375 43.984375 
Q 39.0625 48.390625 32.421875 48.390625 
Q 24.90625 48.390625 20.390625 44.140625 
Q 15.875 39.890625 15.1875 32.171875 
z
" id="DejaVuSans-101"/>
       <path d="M 54.890625 33.015625 
L 54.890625 0 
L 45.90625 0 
L 45.90625 32.71875 
Q 45.90625 40.484375 42.875 44.328125 
Q 39.84375 48.1875 33.796875 48.1875 
Q 26.515625 48.1875 22.3125 43.546875 
Q 18.109375 38.921875 18.109375 30.90625 
L 18.109375 0 
L 9.078125 0 
L 9.078125 75.984375 
L 18.109375 75.984375 
L 18.109375 46.1875 
Q 21.34375 51.125 25.703125 53.5625 
Q 30.078125 56 35.796875 56 
Q 45.21875 56 50.046875 50.171875 
Q 54.890625 44.34375 54.890625 33.015625 
z
" id="DejaVuSans-104"/>
       <path d="M 44.28125 53.078125 
L 44.28125 44.578125 
Q 40.484375 46.53125 36.375 47.5 
Q 32.28125 48.484375 27.875 48.484375 
Q 21.1875 48.484375 17.84375 46.4375 
Q 14.5 44.390625 14.5 40.28125 
Q 14.5 37.15625 16.890625 35.375 
Q 19.28125 33.59375 26.515625 31.984375 
L 29.59375 31.296875 
Q 39.15625 29.25 43.1875 25.515625 
Q 47.21875 21.78125 47.21875 15.09375 
Q 47.21875 7.46875 41.1875 3.015625 
Q 35.15625 -1.421875 24.609375 -1.421875 
Q 20.21875 -1.421875 15.453125 -0.5625 
Q 10.6875 0.296875 5.421875 2 
L 5.421875 11.28125 
Q 10.40625 8.6875 15.234375 7.390625 
Q 20.0625 6.109375 24.8125 6.109375 
Q 31.15625 6.109375 34.5625 8.28125 
Q 37.984375 10.453125 37.984375 14.40625 
Q 37.984375 18.0625 35.515625 20.015625 
Q 33.0625 21.96875 24.703125 23.78125 
L 21.578125 24.515625 
Q 13.234375 26.265625 9.515625 29.90625 
Q 5.8125 33.546875 5.8125 39.890625 
Q 5.8125 47.609375 11.28125 51.796875 
Q 16.75 56 26.8125 56 
Q 31.78125 56 36.171875 55.265625 
Q 40.578125 54.546875 44.28125 53.078125 
z
" id="DejaVuSans-115"/>
      </defs>
      <use xlink:href="#DejaVuSans-84"/>
      <use x="44.083984" xlink:href="#DejaVuSans-111"/>
      <use x="105.265625" xlink:href="#DejaVuSans-116"/>
      <use x="144.474609" xlink:href="#DejaVuSans-97"/>
      <use x="205.753906" xlink:href="#DejaVuSans-108"/>
      <use x="233.537109" xlink:href="#DejaVuSans-95"/>
      <use x="283.537109" xlink:href="#DejaVuSans-100"/>
      <use x="347.013672" xlink:href="#DejaVuSans-101"/>
      <use x="408.537109" xlink:href="#DejaVuSans-97"/>
      <use x="469.816406" xlink:href="#DejaVuSans-116"/>
      <use x="509.025391" xlink:href="#DejaVuSans-104"/>
      <use x="572.404297" xlink:href="#DejaVuSans-115"/>
     </g>
    </g>
   </g>
  </g>
  <g id="text_19">
   <!-- Cuadros2020 (plot_3) -->
   <g transform="translate(97.416172 26.196094)scale(0.25 -0.25)">
    <defs>
     <path d="M 67 4 
Q 61.8125 1.3125 56.203125 -0.046875 
Q 50.59375 -1.421875 44.484375 -1.421875 
Q 26.265625 -1.421875 15.625 8.765625 
Q 4.984375 18.953125 4.984375 36.375 
Q 4.984375 53.859375 15.625 64.03125 
Q 26.265625 74.21875 44.484375 74.21875 
Q 50.59375 74.21875 56.203125 72.84375 
Q 61.8125 71.484375 67 68.796875 
L 67 53.71875 
Q 61.765625 57.28125 56.6875 58.9375 
Q 51.609375 60.59375 46 60.59375 
Q 35.9375 60.59375 30.171875 54.140625 
Q 24.421875 47.703125 24.421875 36.375 
Q 24.421875 25.09375 30.171875 18.640625 
Q 35.9375 12.203125 46 12.203125 
Q 51.609375 12.203125 56.6875 13.859375 
Q 61.765625 15.53125 67 19.09375 
z
" id="DejaVuSans-Bold-67"/>
     <path d="M 49.03125 39.796875 
Q 46.734375 40.875 44.453125 41.375 
Q 42.1875 41.890625 39.890625 41.890625 
Q 33.15625 41.890625 29.515625 37.5625 
Q 25.875 33.25 25.875 25.203125 
L 25.875 0 
L 8.40625 0 
L 8.40625 54.6875 
L 25.875 54.6875 
L 25.875 45.703125 
Q 29.25 51.078125 33.609375 53.53125 
Q 37.984375 56 44.09375 56 
Q 44.96875 56 45.984375 55.921875 
Q 47.015625 55.859375 48.96875 55.609375 
z
" id="DejaVuSans-Bold-114"/>
     <path d="M 28.8125 13.8125 
L 60.890625 13.8125 
L 60.890625 0 
L 7.90625 0 
L 7.90625 13.8125 
L 34.515625 37.3125 
Q 38.09375 40.53125 39.796875 43.609375 
Q 41.5 46.6875 41.5 50 
Q 41.5 55.125 38.0625 58.25 
Q 34.625 61.375 28.90625 61.375 
Q 24.515625 61.375 19.28125 59.5 
Q 14.0625 57.625 8.109375 53.90625 
L 8.109375 69.921875 
Q 14.453125 72.015625 20.65625 73.109375 
Q 26.859375 74.21875 32.8125 74.21875 
Q 45.90625 74.21875 53.15625 68.453125 
Q 60.40625 62.703125 60.40625 52.390625 
Q 60.40625 46.4375 57.328125 41.28125 
Q 54.25 36.140625 44.390625 27.484375 
z
" id="DejaVuSans-Bold-50"/>
     <path d="M 46 36.53125 
Q 46 50.203125 43.4375 55.78125 
Q 40.875 61.375 34.8125 61.375 
Q 28.765625 61.375 26.171875 55.78125 
Q 23.578125 50.203125 23.578125 36.53125 
Q 23.578125 22.703125 26.171875 17.03125 
Q 28.765625 11.375 34.8125 11.375 
Q 40.828125 11.375 43.40625 17.03125 
Q 46 22.703125 46 36.53125 
z
M 64.796875 36.375 
Q 64.796875 18.265625 56.984375 8.421875 
Q 49.171875 -1.421875 34.8125 -1.421875 
Q 20.40625 -1.421875 12.59375 8.421875 
Q 4.78125 18.265625 4.78125 36.375 
Q 4.78125 54.546875 12.59375 64.375 
Q 20.40625 74.21875 34.8125 74.21875 
Q 49.171875 74.21875 56.984375 64.375 
Q 64.796875 54.546875 64.796875 36.375 
z
" id="DejaVuSans-Bold-48"/>
     <path d="M 37.703125 -13.1875 
L 23.1875 -13.1875 
Q 15.71875 -1.125 12.15625 9.734375 
Q 8.59375 20.609375 8.59375 31.296875 
Q 8.59375 42 12.171875 52.953125 
Q 15.765625 63.921875 23.1875 75.875 
L 37.703125 75.875 
Q 31.453125 64.3125 28.328125 53.25 
Q 25.203125 42.1875 25.203125 31.390625 
Q 25.203125 20.609375 28.296875 9.515625 
Q 31.390625 -1.5625 37.703125 -13.1875 
z
" id="DejaVuSans-Bold-40"/>
     <path d="M 25.875 7.90625 
L 25.875 -20.796875 
L 8.40625 -20.796875 
L 8.40625 54.6875 
L 25.875 54.6875 
L 25.875 46.6875 
Q 29.5 51.46875 33.890625 53.734375 
Q 38.28125 56 44 56 
Q 54.109375 56 60.59375 47.96875 
Q 67.09375 39.9375 67.09375 27.296875 
Q 67.09375 14.65625 60.59375 6.609375 
Q 54.109375 -1.421875 44 -1.421875 
Q 38.28125 -1.421875 33.890625 0.84375 
Q 29.5 3.125 25.875 7.90625 
z
M 37.5 43.3125 
Q 31.890625 43.3125 28.875 39.1875 
Q 25.875 35.0625 25.875 27.296875 
Q 25.875 19.53125 28.875 15.40625 
Q 31.890625 11.28125 37.5 11.28125 
Q 43.109375 11.28125 46.0625 15.375 
Q 49.03125 19.484375 49.03125 27.296875 
Q 49.03125 35.109375 46.0625 39.203125 
Q 43.109375 43.3125 37.5 43.3125 
z
" id="DejaVuSans-Bold-112"/>
     <path d="M 46.578125 39.3125 
Q 53.953125 37.40625 57.78125 32.6875 
Q 61.625 27.984375 61.625 20.703125 
Q 61.625 9.859375 53.3125 4.21875 
Q 45.015625 -1.421875 29.109375 -1.421875 
Q 23.484375 -1.421875 17.84375 -0.515625 
Q 12.203125 0.390625 6.6875 2.203125 
L 6.6875 16.703125 
Q 11.96875 14.0625 17.15625 12.71875 
Q 22.359375 11.375 27.390625 11.375 
Q 34.859375 11.375 38.84375 13.953125 
Q 42.828125 16.546875 42.828125 21.390625 
Q 42.828125 26.375 38.75 28.9375 
Q 34.671875 31.5 26.703125 31.5 
L 19.1875 31.5 
L 19.1875 43.609375 
L 27.09375 43.609375 
Q 34.1875 43.609375 37.640625 45.828125 
Q 41.109375 48.046875 41.109375 52.59375 
Q 41.109375 56.78125 37.734375 59.078125 
Q 34.375 61.375 28.21875 61.375 
Q 23.6875 61.375 19.046875 60.34375 
Q 14.40625 59.328125 9.8125 57.328125 
L 9.8125 71.09375 
Q 15.375 72.65625 20.84375 73.4375 
Q 26.3125 74.21875 31.59375 74.21875 
Q 45.796875 74.21875 52.84375 69.546875 
Q 59.90625 64.890625 59.90625 55.515625 
Q 59.90625 49.125 56.53125 45.046875 
Q 53.171875 40.96875 46.578125 39.3125 
z
" id="DejaVuSans-Bold-51"/>
     <path d="M 8.015625 -13.1875 
Q 14.265625 -1.5625 17.390625 9.515625 
Q 20.515625 20.609375 20.515625 31.390625 
Q 20.515625 42.1875 17.390625 53.25 
Q 14.265625 64.3125 8.015625 75.875 
L 22.515625 75.875 
Q 29.9375 63.921875 33.515625 52.953125 
Q 37.109375 42 37.109375 31.296875 
Q 37.109375 20.609375 33.546875 9.734375 
Q 29.984375 -1.125 22.515625 -13.1875 
z
" id="DejaVuSans-Bold-41"/>
    </defs>
    <use xlink:href="#DejaVuSans-Bold-67"/>
    <use x="73.388672" xlink:href="#DejaVuSans-Bold-117"/>
    <use x="144.580078" xlink:href="#DejaVuSans-Bold-97"/>
    <use x="212.060547" xlink:href="#DejaVuSans-Bold-100"/>
    <use x="283.642578" xlink:href="#DejaVuSans-Bold-114"/>
    <use x="332.958984" xlink:href="#DejaVuSans-Bold-111"/>
    <use x="401.660156" xlink:href="#DejaVuSans-Bold-115"/>
    <use x="461.181641" xlink:href="#DejaVuSans-Bold-50"/>
    <use x="530.761719" xlink:href="#DejaVuSans-Bold-48"/>
    <use x="600.341797" xlink:href="#DejaVuSans-Bold-50"/>
    <use x="669.921875" xlink:href="#DejaVuSans-Bold-48"/>
    <use x="739.501953" xlink:href="#DejaVuSans-Bold-32"/>
    <use x="774.316406" xlink:href="#DejaVuSans-Bold-40"/>
    <use x="820.019531" xlink:href="#DejaVuSans-Bold-112"/>
    <use x="891.601562" xlink:href="#DejaVuSans-Bold-108"/>
    <use x="925.878906" xlink:href="#DejaVuSans-Bold-111"/>
    <use x="994.580078" xlink:href="#DejaVuSans-Bold-116"/>
    <use x="1042.382812" xlink:href="#DejaVuSans-Bold-95"/>
    <use x="1092.382812" xlink:href="#DejaVuSans-Bold-51"/>
    <use x="1161.962891" xlink:href="#DejaVuSans-Bold-41"/>
   </g>
  </g>
 </g>
 <defs>
  <clipPath id="p6b183d65c3">
   <rect height="258.6" width="415.275" x="74.29625" y="46.6"/>
  </clipPath>
 </defs>
</svg>
