<?xml version="1.0" encoding="utf-8" standalone="no"?>
<!DOCTYPE svg PUBLIC "-//W3C//DTD SVG 1.1//EN"
  "http://www.w3.org/Graphics/SVG/1.1/DTD/svg11.dtd">
<!-- Created with matplotlib (https://matplotlib.org/) -->
<svg height="355.734688pt" version="1.1" viewBox="0 0 464.435469 355.734688" width="464.435469pt" xmlns="http://www.w3.org/2000/svg" xmlns:xlink="http://www.w3.org/1999/xlink">
 <metadata>
  <rdf:RDF xmlns:cc="http://creativecommons.org/ns#" xmlns:dc="http://purl.org/dc/elements/1.1/" xmlns:rdf="http://www.w3.org/1999/02/22-rdf-syntax-ns#">
   <cc:Work>
    <dc:type rdf:resource="http://purl.org/dc/dcmitype/StillImage"/>
    <dc:date>2021-03-22T19:15:45.263918</dc:date>
    <dc:format>image/svg+xml</dc:format>
    <dc:creator>
     <cc:Agent>
      <dc:title>Matplotlib v3.3.4, https://matplotlib.org/</dc:title>
     </cc:Agent>
    </dc:creator>
   </cc:Work>
  </rdf:RDF>
 </metadata>
 <defs>
  <style type="text/css">*{stroke-linecap:butt;stroke-linejoin:round;}</style>
 </defs>
 <g id="figure_1">
  <g id="patch_1">
   <path d="M 0 355.734688 
L 464.435469 355.734688 
L 464.435469 0 
L 0 0 
z
" style="fill:#ffffff;"/>
  </g>
  <g id="axes_1">
   <g id="patch_2">
    <path d="M 54.708125 305.596875 
L 445.308125 305.596875 
L 445.308125 28.396875 
L 54.708125 28.396875 
z
" style="fill:#ffffff;"/>
   </g>
   <g id="matplotlib.axis_1">
    <g id="xtick_1">
     <g id="line2d_1">
      <defs>
       <path d="M 0 0 
L 0 3.5 
" id="mddbdf9b7c0" style="stroke:#000000;stroke-width:0.8;"/>
      </defs>
      <g>
       <use style="stroke:#000000;stroke-width:0.8;" x="72.46267" xlink:href="#mddbdf9b7c0" y="305.596875"/>
      </g>
     </g>
     <g id="text_1">
      <!-- 0.0 -->
      <g transform="translate(60.535327 323.994531)scale(0.15 -0.15)">
       <defs>
        <path d="M 31.78125 66.40625 
Q 24.171875 66.40625 20.328125 58.90625 
Q 16.5 51.421875 16.5 36.375 
Q 16.5 21.390625 20.328125 13.890625 
Q 24.171875 6.390625 31.78125 6.390625 
Q 39.453125 6.390625 43.28125 13.890625 
Q 47.125 21.390625 47.125 36.375 
Q 47.125 51.421875 43.28125 58.90625 
Q 39.453125 66.40625 31.78125 66.40625 
z
M 31.78125 74.21875 
Q 44.046875 74.21875 50.515625 64.515625 
Q 56.984375 54.828125 56.984375 36.375 
Q 56.984375 17.96875 50.515625 8.265625 
Q 44.046875 -1.421875 31.78125 -1.421875 
Q 19.53125 -1.421875 13.0625 8.265625 
Q 6.59375 17.96875 6.59375 36.375 
Q 6.59375 54.828125 13.0625 64.515625 
Q 19.53125 74.21875 31.78125 74.21875 
z
" id="DejaVuSans-48"/>
        <path d="M 10.6875 12.40625 
L 21 12.40625 
L 21 0 
L 10.6875 0 
z
" id="DejaVuSans-46"/>
       </defs>
       <use xlink:href="#DejaVuSans-48"/>
       <use x="63.623047" xlink:href="#DejaVuSans-46"/>
       <use x="95.410156" xlink:href="#DejaVuSans-48"/>
      </g>
     </g>
    </g>
    <g id="xtick_2">
     <g id="line2d_2">
      <g>
       <use style="stroke:#000000;stroke-width:0.8;" x="125.726307" xlink:href="#mddbdf9b7c0" y="305.596875"/>
      </g>
     </g>
     <g id="text_2">
      <!-- 0.5 -->
      <g transform="translate(113.798963 323.994531)scale(0.15 -0.15)">
       <defs>
        <path d="M 10.796875 72.90625 
L 49.515625 72.90625 
L 49.515625 64.59375 
L 19.828125 64.59375 
L 19.828125 46.734375 
Q 21.96875 47.46875 24.109375 47.828125 
Q 26.265625 48.1875 28.421875 48.1875 
Q 40.625 48.1875 47.75 41.5 
Q 54.890625 34.8125 54.890625 23.390625 
Q 54.890625 11.625 47.5625 5.09375 
Q 40.234375 -1.421875 26.90625 -1.421875 
Q 22.3125 -1.421875 17.546875 -0.640625 
Q 12.796875 0.140625 7.71875 1.703125 
L 7.71875 11.625 
Q 12.109375 9.234375 16.796875 8.0625 
Q 21.484375 6.890625 26.703125 6.890625 
Q 35.15625 6.890625 40.078125 11.328125 
Q 45.015625 15.765625 45.015625 23.390625 
Q 45.015625 31 40.078125 35.4375 
Q 35.15625 39.890625 26.703125 39.890625 
Q 22.75 39.890625 18.8125 39.015625 
Q 14.890625 38.140625 10.796875 36.28125 
z
" id="DejaVuSans-53"/>
       </defs>
       <use xlink:href="#DejaVuSans-48"/>
       <use x="63.623047" xlink:href="#DejaVuSans-46"/>
       <use x="95.410156" xlink:href="#DejaVuSans-53"/>
      </g>
     </g>
    </g>
    <g id="xtick_3">
     <g id="line2d_3">
      <g>
       <use style="stroke:#000000;stroke-width:0.8;" x="178.989943" xlink:href="#mddbdf9b7c0" y="305.596875"/>
      </g>
     </g>
     <g id="text_3">
      <!-- 1.0 -->
      <g transform="translate(167.062599 323.994531)scale(0.15 -0.15)">
       <defs>
        <path d="M 12.40625 8.296875 
L 28.515625 8.296875 
L 28.515625 63.921875 
L 10.984375 60.40625 
L 10.984375 69.390625 
L 28.421875 72.90625 
L 38.28125 72.90625 
L 38.28125 8.296875 
L 54.390625 8.296875 
L 54.390625 0 
L 12.40625 0 
z
" id="DejaVuSans-49"/>
       </defs>
       <use xlink:href="#DejaVuSans-49"/>
       <use x="63.623047" xlink:href="#DejaVuSans-46"/>
       <use x="95.410156" xlink:href="#DejaVuSans-48"/>
      </g>
     </g>
    </g>
    <g id="xtick_4">
     <g id="line2d_4">
      <g>
       <use style="stroke:#000000;stroke-width:0.8;" x="232.25358" xlink:href="#mddbdf9b7c0" y="305.596875"/>
      </g>
     </g>
     <g id="text_4">
      <!-- 1.5 -->
      <g transform="translate(220.326236 323.994531)scale(0.15 -0.15)">
       <use xlink:href="#DejaVuSans-49"/>
       <use x="63.623047" xlink:href="#DejaVuSans-46"/>
       <use x="95.410156" xlink:href="#DejaVuSans-53"/>
      </g>
     </g>
    </g>
    <g id="xtick_5">
     <g id="line2d_5">
      <g>
       <use style="stroke:#000000;stroke-width:0.8;" x="285.517216" xlink:href="#mddbdf9b7c0" y="305.596875"/>
      </g>
     </g>
     <g id="text_5">
      <!-- 2.0 -->
      <g transform="translate(273.589872 323.994531)scale(0.15 -0.15)">
       <defs>
        <path d="M 19.1875 8.296875 
L 53.609375 8.296875 
L 53.609375 0 
L 7.328125 0 
L 7.328125 8.296875 
Q 12.9375 14.109375 22.625 23.890625 
Q 32.328125 33.6875 34.8125 36.53125 
Q 39.546875 41.84375 41.421875 45.53125 
Q 43.3125 49.21875 43.3125 52.78125 
Q 43.3125 58.59375 39.234375 62.25 
Q 35.15625 65.921875 28.609375 65.921875 
Q 23.96875 65.921875 18.8125 64.3125 
Q 13.671875 62.703125 7.8125 59.421875 
L 7.8125 69.390625 
Q 13.765625 71.78125 18.9375 73 
Q 24.125 74.21875 28.421875 74.21875 
Q 39.75 74.21875 46.484375 68.546875 
Q 53.21875 62.890625 53.21875 53.421875 
Q 53.21875 48.921875 51.53125 44.890625 
Q 49.859375 40.875 45.40625 35.40625 
Q 44.1875 33.984375 37.640625 27.21875 
Q 31.109375 20.453125 19.1875 8.296875 
z
" id="DejaVuSans-50"/>
       </defs>
       <use xlink:href="#DejaVuSans-50"/>
       <use x="63.623047" xlink:href="#DejaVuSans-46"/>
       <use x="95.410156" xlink:href="#DejaVuSans-48"/>
      </g>
     </g>
    </g>
    <g id="xtick_6">
     <g id="line2d_6">
      <g>
       <use style="stroke:#000000;stroke-width:0.8;" x="338.780852" xlink:href="#mddbdf9b7c0" y="305.596875"/>
      </g>
     </g>
     <g id="text_6">
      <!-- 2.5 -->
      <g transform="translate(326.853509 323.994531)scale(0.15 -0.15)">
       <use xlink:href="#DejaVuSans-50"/>
       <use x="63.623047" xlink:href="#DejaVuSans-46"/>
       <use x="95.410156" xlink:href="#DejaVuSans-53"/>
      </g>
     </g>
    </g>
    <g id="xtick_7">
     <g id="line2d_7">
      <g>
       <use style="stroke:#000000;stroke-width:0.8;" x="392.044489" xlink:href="#mddbdf9b7c0" y="305.596875"/>
      </g>
     </g>
     <g id="text_7">
      <!-- 3.0 -->
      <g transform="translate(380.117145 323.994531)scale(0.15 -0.15)">
       <defs>
        <path d="M 40.578125 39.3125 
Q 47.65625 37.796875 51.625 33 
Q 55.609375 28.21875 55.609375 21.1875 
Q 55.609375 10.40625 48.1875 4.484375 
Q 40.765625 -1.421875 27.09375 -1.421875 
Q 22.515625 -1.421875 17.65625 -0.515625 
Q 12.796875 0.390625 7.625 2.203125 
L 7.625 11.71875 
Q 11.71875 9.328125 16.59375 8.109375 
Q 21.484375 6.890625 26.8125 6.890625 
Q 36.078125 6.890625 40.9375 10.546875 
Q 45.796875 14.203125 45.796875 21.1875 
Q 45.796875 27.640625 41.28125 31.265625 
Q 36.765625 34.90625 28.71875 34.90625 
L 20.21875 34.90625 
L 20.21875 43.015625 
L 29.109375 43.015625 
Q 36.375 43.015625 40.234375 45.921875 
Q 44.09375 48.828125 44.09375 54.296875 
Q 44.09375 59.90625 40.109375 62.90625 
Q 36.140625 65.921875 28.71875 65.921875 
Q 24.65625 65.921875 20.015625 65.03125 
Q 15.375 64.15625 9.8125 62.3125 
L 9.8125 71.09375 
Q 15.4375 72.65625 20.34375 73.4375 
Q 25.25 74.21875 29.59375 74.21875 
Q 40.828125 74.21875 47.359375 69.109375 
Q 53.90625 64.015625 53.90625 55.328125 
Q 53.90625 49.265625 50.4375 45.09375 
Q 46.96875 40.921875 40.578125 39.3125 
z
" id="DejaVuSans-51"/>
       </defs>
       <use xlink:href="#DejaVuSans-51"/>
       <use x="63.623047" xlink:href="#DejaVuSans-46"/>
       <use x="95.410156" xlink:href="#DejaVuSans-48"/>
      </g>
     </g>
    </g>
    <g id="xtick_8">
     <g id="line2d_8">
      <g>
       <use style="stroke:#000000;stroke-width:0.8;" x="445.308125" xlink:href="#mddbdf9b7c0" y="305.596875"/>
      </g>
     </g>
     <g id="text_8">
      <!-- 3.5 -->
      <g transform="translate(433.380781 323.994531)scale(0.15 -0.15)">
       <use xlink:href="#DejaVuSans-51"/>
       <use x="63.623047" xlink:href="#DejaVuSans-46"/>
       <use x="95.410156" xlink:href="#DejaVuSans-53"/>
      </g>
     </g>
    </g>
    <g id="text_9">
     <!-- time [min] -->
     <g transform="translate(196.908125 344.79125)scale(0.18 -0.18)">
      <defs>
       <path d="M 27.484375 70.21875 
L 27.484375 54.6875 
L 45.515625 54.6875 
L 45.515625 42.1875 
L 27.484375 42.1875 
L 27.484375 19 
Q 27.484375 15.1875 29 13.84375 
Q 30.515625 12.5 35.015625 12.5 
L 44 12.5 
L 44 0 
L 29 0 
Q 18.65625 0 14.328125 4.3125 
Q 10.015625 8.640625 10.015625 19 
L 10.015625 42.1875 
L 1.3125 42.1875 
L 1.3125 54.6875 
L 10.015625 54.6875 
L 10.015625 70.21875 
z
" id="DejaVuSans-Bold-116"/>
       <path d="M 8.40625 54.6875 
L 25.875 54.6875 
L 25.875 0 
L 8.40625 0 
z
M 8.40625 75.984375 
L 25.875 75.984375 
L 25.875 61.71875 
L 8.40625 61.71875 
z
" id="DejaVuSans-Bold-105"/>
       <path d="M 59.078125 45.609375 
Q 62.40625 50.6875 66.96875 53.34375 
Q 71.53125 56 77 56 
Q 86.421875 56 91.359375 50.1875 
Q 96.296875 44.390625 96.296875 33.296875 
L 96.296875 0 
L 78.71875 0 
L 78.71875 28.515625 
Q 78.765625 29.15625 78.78125 29.828125 
Q 78.8125 30.515625 78.8125 31.78125 
Q 78.8125 37.59375 77.09375 40.203125 
Q 75.390625 42.828125 71.578125 42.828125 
Q 66.609375 42.828125 63.890625 38.71875 
Q 61.1875 34.625 61.078125 26.859375 
L 61.078125 0 
L 43.5 0 
L 43.5 28.515625 
Q 43.5 37.59375 41.9375 40.203125 
Q 40.375 42.828125 36.375 42.828125 
Q 31.34375 42.828125 28.609375 38.703125 
Q 25.875 34.578125 25.875 26.90625 
L 25.875 0 
L 8.296875 0 
L 8.296875 54.6875 
L 25.875 54.6875 
L 25.875 46.6875 
Q 29.109375 51.3125 33.28125 53.65625 
Q 37.453125 56 42.484375 56 
Q 48.140625 56 52.484375 53.265625 
Q 56.84375 50.53125 59.078125 45.609375 
z
" id="DejaVuSans-Bold-109"/>
       <path d="M 62.984375 27.484375 
L 62.984375 22.515625 
L 22.125 22.515625 
Q 22.75 16.359375 26.5625 13.28125 
Q 30.375 10.203125 37.203125 10.203125 
Q 42.71875 10.203125 48.5 11.84375 
Q 54.296875 13.484375 60.40625 16.796875 
L 60.40625 3.328125 
Q 54.203125 0.984375 48 -0.21875 
Q 41.796875 -1.421875 35.59375 -1.421875 
Q 20.75 -1.421875 12.515625 6.125 
Q 4.296875 13.671875 4.296875 27.296875 
Q 4.296875 40.671875 12.375 48.328125 
Q 20.453125 56 34.625 56 
Q 47.515625 56 55.25 48.234375 
Q 62.984375 40.484375 62.984375 27.484375 
z
M 45.015625 33.296875 
Q 45.015625 38.28125 42.109375 41.328125 
Q 39.203125 44.390625 34.515625 44.390625 
Q 29.4375 44.390625 26.265625 41.53125 
Q 23.09375 38.671875 22.3125 33.296875 
z
" id="DejaVuSans-Bold-101"/>
       <path id="DejaVuSans-Bold-32"/>
       <path d="M 8.59375 75.984375 
L 38.921875 75.984375 
L 38.921875 64.984375 
L 25.203125 64.984375 
L 25.203125 -2.203125 
L 38.921875 -2.203125 
L 38.921875 -13.1875 
L 8.59375 -13.1875 
z
" id="DejaVuSans-Bold-91"/>
       <path d="M 63.375 33.296875 
L 63.375 0 
L 45.796875 0 
L 45.796875 5.421875 
L 45.796875 25.484375 
Q 45.796875 32.5625 45.484375 35.25 
Q 45.171875 37.9375 44.390625 39.203125 
Q 43.359375 40.921875 41.59375 41.875 
Q 39.84375 42.828125 37.59375 42.828125 
Q 32.125 42.828125 29 38.59375 
Q 25.875 34.375 25.875 26.90625 
L 25.875 0 
L 8.40625 0 
L 8.40625 54.6875 
L 25.875 54.6875 
L 25.875 46.6875 
Q 29.828125 51.46875 34.265625 53.734375 
Q 38.71875 56 44.09375 56 
Q 53.5625 56 58.46875 50.1875 
Q 63.375 44.390625 63.375 33.296875 
z
" id="DejaVuSans-Bold-110"/>
       <path d="M 37.109375 -13.1875 
L 6.78125 -13.1875 
L 6.78125 -2.203125 
L 20.515625 -2.203125 
L 20.515625 64.984375 
L 6.78125 64.984375 
L 6.78125 75.984375 
L 37.109375 75.984375 
z
" id="DejaVuSans-Bold-93"/>
      </defs>
      <use xlink:href="#DejaVuSans-Bold-116"/>
      <use x="47.802734" xlink:href="#DejaVuSans-Bold-105"/>
      <use x="82.080078" xlink:href="#DejaVuSans-Bold-109"/>
      <use x="186.279297" xlink:href="#DejaVuSans-Bold-101"/>
      <use x="254.101562" xlink:href="#DejaVuSans-Bold-32"/>
      <use x="288.916016" xlink:href="#DejaVuSans-Bold-91"/>
      <use x="334.619141" xlink:href="#DejaVuSans-Bold-109"/>
      <use x="438.818359" xlink:href="#DejaVuSans-Bold-105"/>
      <use x="473.095703" xlink:href="#DejaVuSans-Bold-110"/>
      <use x="544.287109" xlink:href="#DejaVuSans-Bold-93"/>
     </g>
    </g>
   </g>
   <g id="matplotlib.axis_2">
    <g id="ytick_1">
     <g id="line2d_9">
      <defs>
       <path d="M 0 0 
L -3.5 0 
" id="mf3ecd0a2f3" style="stroke:#000000;stroke-width:0.8;"/>
      </defs>
      <g>
       <use style="stroke:#000000;stroke-width:0.8;" x="54.708125" xlink:href="#mf3ecd0a2f3" y="292.996875"/>
      </g>
     </g>
     <g id="text_10">
      <!-- 0 -->
      <g transform="translate(38.164375 298.695703)scale(0.15 -0.15)">
       <use xlink:href="#DejaVuSans-48"/>
      </g>
     </g>
    </g>
    <g id="ytick_2">
     <g id="line2d_10">
      <g>
       <use style="stroke:#000000;stroke-width:0.8;" x="54.708125" xlink:href="#mf3ecd0a2f3" y="252.621998"/>
      </g>
     </g>
     <g id="text_11">
      <!-- 5 -->
      <g transform="translate(38.164375 258.320826)scale(0.15 -0.15)">
       <use xlink:href="#DejaVuSans-53"/>
      </g>
     </g>
    </g>
    <g id="ytick_3">
     <g id="line2d_11">
      <g>
       <use style="stroke:#000000;stroke-width:0.8;" x="54.708125" xlink:href="#mf3ecd0a2f3" y="212.247121"/>
      </g>
     </g>
     <g id="text_12">
      <!-- 10 -->
      <g transform="translate(28.620625 217.945949)scale(0.15 -0.15)">
       <use xlink:href="#DejaVuSans-49"/>
       <use x="63.623047" xlink:href="#DejaVuSans-48"/>
      </g>
     </g>
    </g>
    <g id="ytick_4">
     <g id="line2d_12">
      <g>
       <use style="stroke:#000000;stroke-width:0.8;" x="54.708125" xlink:href="#mf3ecd0a2f3" y="171.872244"/>
      </g>
     </g>
     <g id="text_13">
      <!-- 15 -->
      <g transform="translate(28.620625 177.571072)scale(0.15 -0.15)">
       <use xlink:href="#DejaVuSans-49"/>
       <use x="63.623047" xlink:href="#DejaVuSans-53"/>
      </g>
     </g>
    </g>
    <g id="ytick_5">
     <g id="line2d_13">
      <g>
       <use style="stroke:#000000;stroke-width:0.8;" x="54.708125" xlink:href="#mf3ecd0a2f3" y="131.497366"/>
      </g>
     </g>
     <g id="text_14">
      <!-- 20 -->
      <g transform="translate(28.620625 137.196195)scale(0.15 -0.15)">
       <use xlink:href="#DejaVuSans-50"/>
       <use x="63.623047" xlink:href="#DejaVuSans-48"/>
      </g>
     </g>
    </g>
    <g id="ytick_6">
     <g id="line2d_14">
      <g>
       <use style="stroke:#000000;stroke-width:0.8;" x="54.708125" xlink:href="#mf3ecd0a2f3" y="91.122489"/>
      </g>
     </g>
     <g id="text_15">
      <!-- 25 -->
      <g transform="translate(28.620625 96.821317)scale(0.15 -0.15)">
       <use xlink:href="#DejaVuSans-50"/>
       <use x="63.623047" xlink:href="#DejaVuSans-53"/>
      </g>
     </g>
    </g>
    <g id="ytick_7">
     <g id="line2d_15">
      <g>
       <use style="stroke:#000000;stroke-width:0.8;" x="54.708125" xlink:href="#mf3ecd0a2f3" y="50.747612"/>
      </g>
     </g>
     <g id="text_16">
      <!-- 30 -->
      <g transform="translate(28.620625 56.44644)scale(0.15 -0.15)">
       <use xlink:href="#DejaVuSans-51"/>
       <use x="63.623047" xlink:href="#DejaVuSans-48"/>
      </g>
     </g>
    </g>
    <g id="text_17">
     <!-- data [-] -->
     <g transform="translate(20.877188 204.9825)rotate(-90)scale(0.18 -0.18)">
      <defs>
       <path d="M 45.609375 46.6875 
L 45.609375 75.984375 
L 63.1875 75.984375 
L 63.1875 0 
L 45.609375 0 
L 45.609375 7.90625 
Q 42 3.078125 37.640625 0.828125 
Q 33.296875 -1.421875 27.59375 -1.421875 
Q 17.484375 -1.421875 10.984375 6.609375 
Q 4.5 14.65625 4.5 27.296875 
Q 4.5 39.9375 10.984375 47.96875 
Q 17.484375 56 27.59375 56 
Q 33.25 56 37.625 53.734375 
Q 42 51.46875 45.609375 46.6875 
z
M 34.078125 11.28125 
Q 39.703125 11.28125 42.65625 15.375 
Q 45.609375 19.484375 45.609375 27.296875 
Q 45.609375 35.109375 42.65625 39.203125 
Q 39.703125 43.3125 34.078125 43.3125 
Q 28.515625 43.3125 25.5625 39.203125 
Q 22.609375 35.109375 22.609375 27.296875 
Q 22.609375 19.484375 25.5625 15.375 
Q 28.515625 11.28125 34.078125 11.28125 
z
" id="DejaVuSans-Bold-100"/>
       <path d="M 32.90625 24.609375 
Q 27.4375 24.609375 24.671875 22.75 
Q 21.921875 20.90625 21.921875 17.28125 
Q 21.921875 13.96875 24.140625 12.078125 
Q 26.375 10.203125 30.328125 10.203125 
Q 35.25 10.203125 38.625 13.734375 
Q 42 17.28125 42 22.609375 
L 42 24.609375 
z
M 59.625 31.203125 
L 59.625 0 
L 42 0 
L 42 8.109375 
Q 38.484375 3.125 34.078125 0.84375 
Q 29.6875 -1.421875 23.390625 -1.421875 
Q 14.890625 -1.421875 9.59375 3.53125 
Q 4.296875 8.5 4.296875 16.40625 
Q 4.296875 26.03125 10.90625 30.515625 
Q 17.53125 35.015625 31.6875 35.015625 
L 42 35.015625 
L 42 36.375 
Q 42 40.53125 38.71875 42.453125 
Q 35.453125 44.390625 28.515625 44.390625 
Q 22.90625 44.390625 18.0625 43.265625 
Q 13.234375 42.140625 9.078125 39.890625 
L 9.078125 53.21875 
Q 14.703125 54.59375 20.359375 55.296875 
Q 26.03125 56 31.6875 56 
Q 46.484375 56 53.046875 50.171875 
Q 59.625 44.34375 59.625 31.203125 
z
" id="DejaVuSans-Bold-97"/>
       <path d="M 5.421875 35.890625 
L 36.078125 35.890625 
L 36.078125 21.6875 
L 5.421875 21.6875 
z
" id="DejaVuSans-Bold-45"/>
      </defs>
      <use xlink:href="#DejaVuSans-Bold-100"/>
      <use x="71.582031" xlink:href="#DejaVuSans-Bold-97"/>
      <use x="139.0625" xlink:href="#DejaVuSans-Bold-116"/>
      <use x="186.865234" xlink:href="#DejaVuSans-Bold-97"/>
      <use x="254.345703" xlink:href="#DejaVuSans-Bold-32"/>
      <use x="289.160156" xlink:href="#DejaVuSans-Bold-91"/>
      <use x="334.863281" xlink:href="#DejaVuSans-Bold-45"/>
      <use x="376.367188" xlink:href="#DejaVuSans-Bold-93"/>
     </g>
    </g>
   </g>
   <g id="line2d_16">
    <path clip-path="url(#p1391fe53fc)" d="M 72.46267 292.996875 
L 73.350398 186.513513 
L 73.883034 147.38006 
L 74.326898 129.578806 
L 74.681989 122.123331 
L 75.03708 118.757187 
L 75.303398 118.135855 
L 75.480943 118.402859 
L 75.747261 119.598529 
L 76.191125 123.147384 
L 76.901307 131.265045 
L 78.587989 154.36172 
L 80.27467 176.09321 
L 81.606261 190.565974 
L 82.84908 201.775509 
L 84.003125 210.32163 
L 85.15717 217.255194 
L 86.222443 222.390019 
L 87.287716 226.460245 
L 88.264216 229.371567 
L 89.240716 231.596169 
L 90.128443 233.09416 
L 91.01617 234.152119 
L 91.815125 234.770908 
L 92.61408 235.109473 
L 93.413034 235.199176 
L 94.211989 235.068861 
L 95.099716 234.698405 
L 96.164989 233.986376 
L 97.407807 232.855163 
L 98.916943 231.155975 
L 101.136261 228.272267 
L 105.042261 223.166789 
L 106.728943 221.354563 
L 108.060534 220.228502 
L 109.21458 219.520712 
L 110.279852 219.118675 
L 111.256352 218.98099 
L 112.232852 219.077336 
L 113.209352 219.416615 
L 114.185852 220.003663 
L 115.251125 220.927285 
L 116.40517 222.255542 
L 117.647989 224.05115 
L 119.068352 226.532428 
L 120.666261 229.805112 
L 122.619261 234.361851 
L 125.19367 240.988897 
L 132.206716 259.331671 
L 134.60358 264.828544 
L 136.734125 269.183329 
L 138.775898 272.858003 
L 140.728898 275.919648 
L 142.593125 278.448395 
L 144.457352 280.62123 
L 146.410352 282.552496 
L 148.363352 284.171302 
L 150.405125 285.574088 
L 152.53567 286.769364 
L 154.843761 287.806817 
L 157.329398 288.680926 
L 160.170125 289.43689 
L 163.365943 290.05198 
L 167.18317 290.549681 
L 171.71058 290.908552 
L 177.303261 291.120763 
L 183.872443 291.142912 
L 190.61917 290.946316 
L 196.566943 290.559625 
L 201.626989 290.016339 
L 205.976852 289.330414 
L 209.705307 288.525051 
L 213.07867 287.570677 
L 216.096943 286.486732 
L 218.848898 285.264579 
L 221.423307 283.876998 
L 223.82017 282.332659 
L 226.128261 280.575444 
L 228.34758 278.595773 
L 230.478125 276.387734 
L 232.519898 273.949841 
L 234.56167 271.156246 
L 236.51467 268.111484 
L 238.46767 264.661841 
L 240.42067 260.7659 
L 242.37367 256.381745 
L 244.415443 251.231742 
L 246.457216 245.459423 
L 248.498989 239.026973 
L 250.008125 233.83124 
L 250.008125 212.247121 
L 250.096898 212.300345 
L 250.629534 212.462248 
L 251.16217 212.369057 
L 251.694807 212.040946 
L 252.316216 211.385181 
L 253.026398 210.306596 
L 253.914125 208.512616 
L 254.979398 205.778068 
L 256.222216 201.884781 
L 257.64258 196.632415 
L 259.240489 189.846061 
L 261.104716 180.937637 
L 263.324034 169.195828 
L 266.075989 153.349176 
L 270.514625 126.237928 
L 274.509398 102.329966 
L 276.906261 89.31011 
L 278.770489 80.354026 
L 280.368398 73.739636 
L 281.699989 69.117594 
L 282.854034 65.85124 
L 283.830534 63.672993 
L 284.718261 62.190325 
L 285.517216 61.281925 
L 286.138625 60.865099 
L 286.760034 60.709138 
L 287.29267 60.78757 
L 287.91408 61.131034 
L 288.535489 61.749826 
L 289.24567 62.79822 
L 290.044625 64.416208 
L 290.932352 66.759936 
L 291.908852 69.997956 
L 292.974125 74.304967 
L 294.216943 80.315782 
L 295.637307 88.406031 
L 297.235216 98.906328 
L 299.099443 112.719735 
L 301.496307 132.249765 
L 309.663398 200.256085 
L 311.882716 216.091734 
L 313.835716 228.490134 
L 315.699943 238.916787 
L 317.475398 247.582074 
L 319.16208 254.724413 
L 320.759989 260.579819 
L 322.357898 265.625512 
L 323.955807 269.942505 
L 325.553716 273.612796 
L 327.151625 276.715981 
L 328.749534 279.326963 
L 330.347443 281.514559 
L 331.945352 283.340779 
L 333.632034 284.937244 
L 335.407489 286.311034 
L 337.271716 287.47453 
L 339.313489 288.48428 
L 341.532807 289.33407 
L 344.107216 290.072567 
L 347.036716 290.675428 
L 350.587625 291.170628 
L 355.026261 291.555558 
L 361.062807 291.839337 
L 369.94008 292.012432 
L 383.344761 292.036026 
L 396.394352 291.852402 
L 405.44917 291.514655 
L 412.107125 291.053885 
L 417.433489 290.469302 
L 421.872125 289.762817 
L 425.689352 288.932929 
L 427.55358 288.432283 
L 427.55358 288.432283 
" style="fill:none;stroke:#000000;stroke-linecap:square;stroke-width:2;"/>
   </g>
   <g id="line2d_17">
    <path clip-path="url(#p1391fe53fc)" d="M 72.46267 131.497366 
L 73.261625 58.503814 
L 73.616716 43.26382 
L 73.794261 41.038246 
L 73.883034 40.996875 
L 74.06058 42.566954 
L 74.41567 50.098411 
L 75.125852 72.458303 
L 76.99008 132.35238 
L 78.232898 164.573138 
L 79.386943 188.891285 
L 80.540989 208.623495 
L 81.695034 224.562126 
L 82.84908 237.403353 
L 84.003125 247.732305 
L 85.15717 256.031209 
L 86.311216 262.693692 
L 87.465261 268.039179 
L 88.619307 272.326006 
L 89.773352 275.762672 
L 90.927398 278.517216 
L 92.081443 280.724956 
L 93.324261 282.615427 
L 94.56708 284.106298 
L 95.89867 285.357392 
L 97.319034 286.387589 
L 98.916943 287.264408 
L 100.692398 287.983638 
L 102.822943 288.601436 
L 105.486125 289.131217 
L 109.037034 289.594841 
L 114.008307 290.00164 
L 120.31117 290.289832 
L 126.880352 290.370802 
L 133.00567 290.228255 
L 138.50958 289.880739 
L 143.303307 289.357879 
L 147.475625 288.681974 
L 151.115307 287.87322 
L 154.399898 286.919709 
L 157.41817 285.810143 
L 160.170125 284.560357 
L 162.744534 283.14425 
L 165.141398 281.57228 
L 167.449489 279.789066 
L 169.668807 277.786953 
L 171.799352 275.562188 
L 173.841125 273.115619 
L 175.882898 270.324231 
L 177.92467 267.149597 
L 179.966443 263.552144 
L 182.008216 259.49231 
L 184.049989 254.932154 
L 186.180534 249.603422 
L 188.31108 243.661651 
L 190.530398 236.8001 
L 192.838489 228.935504 
L 195.324125 219.670943 
L 198.164852 208.194941 
L 201.98208 191.740545 
L 207.485989 168.025998 
L 209.79408 159.081728 
L 211.569534 153.007278 
L 213.07867 148.568126 
L 214.410261 145.311704 
L 215.564307 143.057667 
L 216.540807 141.601535 
L 217.428534 140.660905 
L 218.227489 140.14154 
L 218.93767 139.94937 
L 219.55908 139.994484 
L 220.180489 140.242122 
L 220.89067 140.776122 
L 221.689625 141.699148 
L 222.577352 143.124961 
L 223.553852 145.175129 
L 224.619125 147.973683 
L 225.77317 151.639387 
L 227.104761 156.632255 
L 228.613898 163.173584 
L 230.478125 172.325379 
L 232.874989 185.317824 
L 240.864534 229.592729 
L 243.083852 240.166609 
L 245.036852 248.460383 
L 246.90108 255.450811 
L 248.676534 261.275904 
L 250.008125 265.133732 
L 250.008125 131.497366 
L 250.096898 134.035785 
L 251.250943 163.610991 
L 252.404989 187.620011 
L 253.559034 207.085761 
L 254.71308 222.858944 
L 255.867125 235.639373 
L 257.02117 245.99794 
L 258.175216 254.398344 
L 259.329261 261.216533 
L 260.483307 266.756165 
L 261.637352 271.26234 
L 262.791398 274.932821 
L 264.034216 278.133193 
L 265.277034 280.708127 
L 266.519852 282.784026 
L 267.851443 284.567949 
L 269.183034 285.991123 
L 270.603398 287.196922 
L 272.201307 288.254699 
L 273.976761 289.148739 
L 275.929761 289.879766 
L 278.237852 290.500495 
L 280.989807 291.005831 
L 284.540716 291.418551 
L 289.24567 291.726947 
L 296.08117 291.93509 
L 306.82267 292.020397 
L 320.13858 291.909238 
L 330.081125 291.621354 
L 337.360489 291.198159 
L 343.041943 290.652064 
L 347.658125 289.994399 
L 351.652898 289.205639 
L 355.115034 288.30091 
L 358.22208 287.263388 
L 361.062807 286.081006 
L 363.637216 284.773656 
L 366.03408 283.314803 
L 368.34217 281.649846 
L 370.561489 279.767766 
L 372.692034 277.660805 
L 374.733807 275.325219 
L 376.77558 272.637141 
L 378.72858 269.693403 
L 380.68158 266.340834 
L 382.63458 262.532475 
L 384.58758 258.218871 
L 386.54058 253.348894 
L 388.49358 247.870892 
L 390.44658 241.734282 
L 392.488352 234.56308 
L 394.530125 226.5727 
L 396.66067 217.321938 
L 398.879989 206.669354 
L 401.18808 194.492874 
L 403.673716 180.180397 
L 406.514443 162.46429 
L 410.065352 138.781518 
L 418.054898 84.902965 
L 420.362989 71.131945 
L 422.227216 61.266217 
L 423.825125 53.945641 
L 425.156716 48.78629 
L 426.399534 44.83958 
L 427.464807 42.185754 
L 427.55358 41.996579 
L 427.55358 41.996579 
" style="fill:none;stroke:#0000ff;stroke-linecap:square;stroke-width:2;"/>
   </g>
   <g id="line2d_18">
    <path clip-path="url(#p1391fe53fc)" d="M 72.46267 292.996875 
L 73.350398 186.513513 
L 73.883034 147.38006 
L 74.326898 129.578806 
L 74.681989 122.123331 
L 75.03708 118.757187 
L 75.303398 118.135855 
L 75.480943 118.402859 
L 75.747261 119.598529 
L 76.191125 123.147384 
L 76.901307 131.265045 
L 78.587989 154.36172 
L 80.27467 176.09321 
L 81.606261 190.565974 
L 82.84908 201.775509 
L 84.003125 210.32163 
L 85.15717 217.255194 
L 86.222443 222.390019 
L 87.287716 226.460245 
L 88.264216 229.371567 
L 89.240716 231.596169 
L 90.128443 233.09416 
L 91.01617 234.152119 
L 91.815125 234.770908 
L 92.61408 235.109473 
L 93.413034 235.199176 
L 94.211989 235.068861 
L 95.099716 234.698405 
L 96.164989 233.986376 
L 97.407807 232.855163 
L 98.916943 231.155975 
L 101.136261 228.272267 
L 105.042261 223.166789 
L 106.728943 221.354563 
L 108.060534 220.228502 
L 109.21458 219.520712 
L 110.279852 219.118675 
L 111.256352 218.98099 
L 112.232852 219.077336 
L 113.209352 219.416615 
L 114.185852 220.003663 
L 115.251125 220.927285 
L 116.40517 222.255542 
L 117.647989 224.05115 
L 119.068352 226.532428 
L 120.666261 229.805112 
L 122.619261 234.361851 
L 125.19367 240.988897 
L 132.206716 259.331671 
L 134.60358 264.828544 
L 136.734125 269.183329 
L 138.775898 272.858003 
L 140.728898 275.919648 
L 142.593125 278.448395 
L 144.457352 280.62123 
L 146.410352 282.552496 
L 148.363352 284.171302 
L 150.405125 285.574088 
L 152.53567 286.769364 
L 154.843761 287.806817 
L 157.329398 288.680926 
L 160.170125 289.43689 
L 163.365943 290.05198 
L 167.18317 290.549681 
L 171.71058 290.908552 
L 177.303261 291.120763 
L 183.872443 291.142912 
L 190.61917 290.946316 
L 196.566943 290.559625 
L 201.626989 290.016339 
L 205.976852 289.330414 
L 209.705307 288.525051 
L 213.07867 287.570677 
L 216.096943 286.486732 
L 218.848898 285.264579 
L 221.423307 283.876998 
L 223.82017 282.332659 
L 226.128261 280.575444 
L 228.34758 278.595773 
L 230.478125 276.387734 
L 232.519898 273.949841 
L 234.56167 271.156246 
L 236.51467 268.111484 
L 238.46767 264.661841 
L 240.42067 260.7659 
L 242.37367 256.381745 
L 244.415443 251.231742 
L 246.457216 245.459423 
L 248.498989 239.026973 
L 250.008125 233.83124 
L 250.008125 212.247121 
L 250.096898 212.300345 
L 250.629534 212.462248 
L 251.16217 212.369057 
L 251.694807 212.040946 
L 252.316216 211.385181 
L 253.026398 210.306596 
L 253.914125 208.512616 
L 254.979398 205.778068 
L 256.222216 201.884781 
L 257.64258 196.632415 
L 259.240489 189.846061 
L 261.104716 180.937637 
L 263.324034 169.195828 
L 266.075989 153.349176 
L 270.514625 126.237928 
L 274.509398 102.329966 
L 276.906261 89.31011 
L 278.770489 80.354026 
L 280.368398 73.739636 
L 281.699989 69.117594 
L 282.854034 65.85124 
L 283.830534 63.672993 
L 284.718261 62.190325 
L 285.517216 61.281925 
L 286.138625 60.865099 
L 286.760034 60.709138 
L 287.29267 60.78757 
L 287.91408 61.131034 
L 288.535489 61.749826 
L 289.24567 62.79822 
L 290.044625 64.416208 
L 290.932352 66.759936 
L 291.908852 69.997956 
L 292.974125 74.304967 
L 294.216943 80.315782 
L 295.637307 88.406031 
L 297.235216 98.906328 
L 299.099443 112.719735 
L 301.496307 132.249765 
L 309.663398 200.256085 
L 311.882716 216.091734 
L 313.835716 228.490134 
L 315.699943 238.916787 
L 317.475398 247.582074 
L 319.16208 254.724413 
L 320.759989 260.579819 
L 322.357898 265.625512 
L 323.955807 269.942505 
L 325.553716 273.612796 
L 327.151625 276.715981 
L 328.749534 279.326963 
L 330.347443 281.514559 
L 331.945352 283.340779 
L 333.632034 284.937244 
L 335.407489 286.311034 
L 337.271716 287.47453 
L 339.313489 288.48428 
L 341.532807 289.33407 
L 344.107216 290.072567 
L 347.036716 290.675428 
L 350.587625 291.170628 
L 355.026261 291.555558 
L 361.062807 291.839337 
L 369.94008 292.012432 
L 383.344761 292.036026 
L 396.394352 291.852402 
L 405.44917 291.514655 
L 412.107125 291.053885 
L 417.433489 290.469302 
L 421.872125 289.762817 
L 425.689352 288.932929 
L 427.55358 288.432283 
L 427.55358 288.432283 
" style="fill:none;stroke:#000000;stroke-linecap:square;stroke-width:2;"/>
   </g>
   <g id="line2d_19">
    <path clip-path="url(#p1391fe53fc)" d="M 72.46267 131.497366 
L 73.261625 58.503814 
L 73.616716 43.26382 
L 73.794261 41.038246 
L 73.883034 40.996875 
L 74.06058 42.566954 
L 74.41567 50.098411 
L 75.125852 72.458303 
L 76.99008 132.35238 
L 78.232898 164.573138 
L 79.386943 188.891285 
L 80.540989 208.623495 
L 81.695034 224.562126 
L 82.84908 237.403353 
L 84.003125 247.732305 
L 85.15717 256.031209 
L 86.311216 262.693692 
L 87.465261 268.039179 
L 88.619307 272.326006 
L 89.773352 275.762672 
L 90.927398 278.517216 
L 92.081443 280.724956 
L 93.324261 282.615427 
L 94.56708 284.106298 
L 95.89867 285.357392 
L 97.319034 286.387589 
L 98.916943 287.264408 
L 100.692398 287.983638 
L 102.822943 288.601436 
L 105.486125 289.131217 
L 109.037034 289.594841 
L 114.008307 290.00164 
L 120.31117 290.289832 
L 126.880352 290.370802 
L 133.00567 290.228255 
L 138.50958 289.880739 
L 143.303307 289.357879 
L 147.475625 288.681974 
L 151.115307 287.87322 
L 154.399898 286.919709 
L 157.41817 285.810143 
L 160.170125 284.560357 
L 162.744534 283.14425 
L 165.141398 281.57228 
L 167.449489 279.789066 
L 169.668807 277.786953 
L 171.799352 275.562188 
L 173.841125 273.115619 
L 175.882898 270.324231 
L 177.92467 267.149597 
L 179.966443 263.552144 
L 182.008216 259.49231 
L 184.049989 254.932154 
L 186.180534 249.603422 
L 188.31108 243.661651 
L 190.530398 236.8001 
L 192.838489 228.935504 
L 195.324125 219.670943 
L 198.164852 208.194941 
L 201.98208 191.740545 
L 207.485989 168.025998 
L 209.79408 159.081728 
L 211.569534 153.007278 
L 213.07867 148.568126 
L 214.410261 145.311704 
L 215.564307 143.057667 
L 216.540807 141.601535 
L 217.428534 140.660905 
L 218.227489 140.14154 
L 218.93767 139.94937 
L 219.55908 139.994484 
L 220.180489 140.242122 
L 220.89067 140.776122 
L 221.689625 141.699148 
L 222.577352 143.124961 
L 223.553852 145.175129 
L 224.619125 147.973683 
L 225.77317 151.639387 
L 227.104761 156.632255 
L 228.613898 163.173584 
L 230.478125 172.325379 
L 232.874989 185.317824 
L 240.864534 229.592729 
L 243.083852 240.166609 
L 245.036852 248.460383 
L 246.90108 255.450811 
L 248.676534 261.275904 
L 250.008125 265.133732 
L 250.008125 131.497366 
L 250.096898 134.035785 
L 251.250943 163.610991 
L 252.404989 187.620011 
L 253.559034 207.085761 
L 254.71308 222.858944 
L 255.867125 235.639373 
L 257.02117 245.99794 
L 258.175216 254.398344 
L 259.329261 261.216533 
L 260.483307 266.756165 
L 261.637352 271.26234 
L 262.791398 274.932821 
L 264.034216 278.133193 
L 265.277034 280.708127 
L 266.519852 282.784026 
L 267.851443 284.567949 
L 269.183034 285.991123 
L 270.603398 287.196922 
L 272.201307 288.254699 
L 273.976761 289.148739 
L 275.929761 289.879766 
L 278.237852 290.500495 
L 280.989807 291.005831 
L 284.540716 291.418551 
L 289.24567 291.726947 
L 296.08117 291.93509 
L 306.82267 292.020397 
L 320.13858 291.909238 
L 330.081125 291.621354 
L 337.360489 291.198159 
L 343.041943 290.652064 
L 347.658125 289.994399 
L 351.652898 289.205639 
L 355.115034 288.30091 
L 358.22208 287.263388 
L 361.062807 286.081006 
L 363.637216 284.773656 
L 366.03408 283.314803 
L 368.34217 281.649846 
L 370.561489 279.767766 
L 372.692034 277.660805 
L 374.733807 275.325219 
L 376.77558 272.637141 
L 378.72858 269.693403 
L 380.68158 266.340834 
L 382.63458 262.532475 
L 384.58758 258.218871 
L 386.54058 253.348894 
L 388.49358 247.870892 
L 390.44658 241.734282 
L 392.488352 234.56308 
L 394.530125 226.5727 
L 396.66067 217.321938 
L 398.879989 206.669354 
L 401.18808 194.492874 
L 403.673716 180.180397 
L 406.514443 162.46429 
L 410.065352 138.781518 
L 418.054898 84.902965 
L 420.362989 71.131945 
L 422.227216 61.266217 
L 423.825125 53.945641 
L 425.156716 48.78629 
L 426.399534 44.83958 
L 427.464807 42.185754 
L 427.55358 41.996579 
L 427.55358 41.996579 
" style="fill:none;stroke:#0000ff;stroke-linecap:square;stroke-width:2;"/>
   </g>
   <g id="patch_3">
    <path d="M 54.708125 305.596875 
L 54.708125 28.396875 
" style="fill:none;stroke:#000000;stroke-linecap:square;stroke-linejoin:miter;stroke-width:0.8;"/>
   </g>
   <g id="patch_4">
    <path d="M 445.308125 305.596875 
L 445.308125 28.396875 
" style="fill:none;stroke:#000000;stroke-linecap:square;stroke-linejoin:miter;stroke-width:0.8;"/>
   </g>
   <g id="patch_5">
    <path d="M 54.708125 305.596875 
L 445.308125 305.596875 
" style="fill:none;stroke:#000000;stroke-linecap:square;stroke-linejoin:miter;stroke-width:0.8;"/>
   </g>
   <g id="patch_6">
    <path d="M 54.708125 28.396875 
L 445.308125 28.396875 
" style="fill:none;stroke:#000000;stroke-linecap:square;stroke-linejoin:miter;stroke-width:0.8;"/>
   </g>
   <g id="text_18">
    <!-- RepressilatorExperiment_Fig1 -->
    <g transform="translate(80.506563 22.396875)scale(0.2 -0.2)">
     <defs>
      <path d="M 35.890625 40.578125 
Q 41.796875 40.578125 44.359375 42.765625 
Q 46.921875 44.96875 46.921875 50 
Q 46.921875 54.984375 44.359375 57.125 
Q 41.796875 59.28125 35.890625 59.28125 
L 27.984375 59.28125 
L 27.984375 40.578125 
z
M 27.984375 27.59375 
L 27.984375 0 
L 9.1875 0 
L 9.1875 72.90625 
L 37.890625 72.90625 
Q 52.296875 72.90625 59 68.0625 
Q 65.71875 63.234375 65.71875 52.78125 
Q 65.71875 45.5625 62.21875 40.921875 
Q 58.734375 36.28125 51.703125 34.078125 
Q 55.5625 33.203125 58.609375 30.09375 
Q 61.671875 27 64.796875 20.703125 
L 75 0 
L 54.984375 0 
L 46.09375 18.109375 
Q 43.40625 23.578125 40.640625 25.578125 
Q 37.890625 27.59375 33.296875 27.59375 
z
" id="DejaVuSans-Bold-82"/>
      <path d="M 25.875 7.90625 
L 25.875 -20.796875 
L 8.40625 -20.796875 
L 8.40625 54.6875 
L 25.875 54.6875 
L 25.875 46.6875 
Q 29.5 51.46875 33.890625 53.734375 
Q 38.28125 56 44 56 
Q 54.109375 56 60.59375 47.96875 
Q 67.09375 39.9375 67.09375 27.296875 
Q 67.09375 14.65625 60.59375 6.609375 
Q 54.109375 -1.421875 44 -1.421875 
Q 38.28125 -1.421875 33.890625 0.84375 
Q 29.5 3.125 25.875 7.90625 
z
M 37.5 43.3125 
Q 31.890625 43.3125 28.875 39.1875 
Q 25.875 35.0625 25.875 27.296875 
Q 25.875 19.53125 28.875 15.40625 
Q 31.890625 11.28125 37.5 11.28125 
Q 43.109375 11.28125 46.0625 15.375 
Q 49.03125 19.484375 49.03125 27.296875 
Q 49.03125 35.109375 46.0625 39.203125 
Q 43.109375 43.3125 37.5 43.3125 
z
" id="DejaVuSans-Bold-112"/>
      <path d="M 49.03125 39.796875 
Q 46.734375 40.875 44.453125 41.375 
Q 42.1875 41.890625 39.890625 41.890625 
Q 33.15625 41.890625 29.515625 37.5625 
Q 25.875 33.25 25.875 25.203125 
L 25.875 0 
L 8.40625 0 
L 8.40625 54.6875 
L 25.875 54.6875 
L 25.875 45.703125 
Q 29.25 51.078125 33.609375 53.53125 
Q 37.984375 56 44.09375 56 
Q 44.96875 56 45.984375 55.921875 
Q 47.015625 55.859375 48.96875 55.609375 
z
" id="DejaVuSans-Bold-114"/>
      <path d="M 51.125 52.984375 
L 51.125 39.703125 
Q 45.515625 42.046875 40.28125 43.21875 
Q 35.0625 44.390625 30.421875 44.390625 
Q 25.4375 44.390625 23.015625 43.140625 
Q 20.609375 41.890625 20.609375 39.3125 
Q 20.609375 37.203125 22.4375 36.078125 
Q 24.265625 34.96875 29 34.421875 
L 32.078125 33.984375 
Q 45.515625 32.28125 50.140625 28.375 
Q 54.78125 24.46875 54.78125 16.109375 
Q 54.78125 7.375 48.328125 2.96875 
Q 41.890625 -1.421875 29.109375 -1.421875 
Q 23.6875 -1.421875 17.890625 -0.5625 
Q 12.109375 0.296875 6 2 
L 6 15.28125 
Q 11.234375 12.75 16.71875 11.46875 
Q 22.21875 10.203125 27.875 10.203125 
Q 33.015625 10.203125 35.59375 11.609375 
Q 38.1875 13.03125 38.1875 15.828125 
Q 38.1875 18.171875 36.40625 19.3125 
Q 34.625 20.453125 29.296875 21.09375 
L 26.21875 21.484375 
Q 14.546875 22.953125 9.859375 26.90625 
Q 5.171875 30.859375 5.171875 38.921875 
Q 5.171875 47.609375 11.125 51.796875 
Q 17.09375 56 29.390625 56 
Q 34.234375 56 39.546875 55.265625 
Q 44.875 54.546875 51.125 52.984375 
z
" id="DejaVuSans-Bold-115"/>
      <path d="M 8.40625 75.984375 
L 25.875 75.984375 
L 25.875 0 
L 8.40625 0 
z
" id="DejaVuSans-Bold-108"/>
      <path d="M 34.421875 43.5 
Q 28.609375 43.5 25.5625 39.328125 
Q 22.515625 35.15625 22.515625 27.296875 
Q 22.515625 19.4375 25.5625 15.25 
Q 28.609375 11.078125 34.421875 11.078125 
Q 40.140625 11.078125 43.15625 15.25 
Q 46.1875 19.4375 46.1875 27.296875 
Q 46.1875 35.15625 43.15625 39.328125 
Q 40.140625 43.5 34.421875 43.5 
z
M 34.421875 56 
Q 48.53125 56 56.46875 48.375 
Q 64.40625 40.765625 64.40625 27.296875 
Q 64.40625 13.8125 56.46875 6.1875 
Q 48.53125 -1.421875 34.421875 -1.421875 
Q 20.265625 -1.421875 12.28125 6.1875 
Q 4.296875 13.8125 4.296875 27.296875 
Q 4.296875 40.765625 12.28125 48.375 
Q 20.265625 56 34.421875 56 
z
" id="DejaVuSans-Bold-111"/>
      <path d="M 9.1875 72.90625 
L 59.90625 72.90625 
L 59.90625 58.6875 
L 27.984375 58.6875 
L 27.984375 45.125 
L 58.015625 45.125 
L 58.015625 30.90625 
L 27.984375 30.90625 
L 27.984375 14.203125 
L 60.984375 14.203125 
L 60.984375 0 
L 9.1875 0 
z
" id="DejaVuSans-Bold-69"/>
      <path d="M 22.21875 27.984375 
L 2.484375 54.6875 
L 21 54.6875 
L 32.171875 38.484375 
L 43.5 54.6875 
L 62.015625 54.6875 
L 42.28125 28.078125 
L 62.984375 0 
L 44.484375 0 
L 32.171875 17.28125 
L 20.015625 0 
L 1.515625 0 
z
" id="DejaVuSans-Bold-120"/>
      <path d="M 50 -14.3125 
L 50 -23.578125 
L 0 -23.578125 
L 0 -14.3125 
z
" id="DejaVuSans-Bold-95"/>
      <path d="M 9.1875 72.90625 
L 59.90625 72.90625 
L 59.90625 58.6875 
L 27.984375 58.6875 
L 27.984375 45.125 
L 58.015625 45.125 
L 58.015625 30.90625 
L 27.984375 30.90625 
L 27.984375 0 
L 9.1875 0 
z
" id="DejaVuSans-Bold-70"/>
      <path d="M 45.609375 9.28125 
Q 42 4.5 37.640625 2.25 
Q 33.296875 0 27.59375 0 
Q 17.578125 0 11.03125 7.875 
Q 4.5 15.765625 4.5 27.984375 
Q 4.5 40.234375 11.03125 48.0625 
Q 17.578125 55.90625 27.59375 55.90625 
Q 33.296875 55.90625 37.640625 53.65625 
Q 42 51.421875 45.609375 46.578125 
L 45.609375 54.6875 
L 63.1875 54.6875 
L 63.1875 5.515625 
Q 63.1875 -7.671875 54.859375 -14.625 
Q 46.53125 -21.578125 30.71875 -21.578125 
Q 25.59375 -21.578125 20.796875 -20.796875 
Q 16.015625 -20.015625 11.1875 -18.40625 
L 11.1875 -4.78125 
Q 15.765625 -7.421875 20.15625 -8.71875 
Q 24.5625 -10.015625 29 -10.015625 
Q 37.59375 -10.015625 41.59375 -6.25 
Q 45.609375 -2.484375 45.609375 5.515625 
z
M 34.078125 43.3125 
Q 28.65625 43.3125 25.625 39.296875 
Q 22.609375 35.296875 22.609375 27.984375 
Q 22.609375 20.453125 25.53125 16.578125 
Q 28.46875 12.703125 34.078125 12.703125 
Q 39.546875 12.703125 42.578125 16.703125 
Q 45.609375 20.703125 45.609375 27.984375 
Q 45.609375 35.296875 42.578125 39.296875 
Q 39.546875 43.3125 34.078125 43.3125 
z
" id="DejaVuSans-Bold-103"/>
      <path d="M 11.71875 12.984375 
L 28.328125 12.984375 
L 28.328125 60.109375 
L 11.28125 56.59375 
L 11.28125 69.390625 
L 28.21875 72.90625 
L 46.09375 72.90625 
L 46.09375 12.984375 
L 62.703125 12.984375 
L 62.703125 0 
L 11.71875 0 
z
" id="DejaVuSans-Bold-49"/>
     </defs>
     <use xlink:href="#DejaVuSans-Bold-82"/>
     <use x="77.001953" xlink:href="#DejaVuSans-Bold-101"/>
     <use x="144.824219" xlink:href="#DejaVuSans-Bold-112"/>
     <use x="216.40625" xlink:href="#DejaVuSans-Bold-114"/>
     <use x="265.722656" xlink:href="#DejaVuSans-Bold-101"/>
     <use x="333.544922" xlink:href="#DejaVuSans-Bold-115"/>
     <use x="393.066406" xlink:href="#DejaVuSans-Bold-115"/>
     <use x="452.587891" xlink:href="#DejaVuSans-Bold-105"/>
     <use x="486.865234" xlink:href="#DejaVuSans-Bold-108"/>
     <use x="521.142578" xlink:href="#DejaVuSans-Bold-97"/>
     <use x="588.623047" xlink:href="#DejaVuSans-Bold-116"/>
     <use x="636.425781" xlink:href="#DejaVuSans-Bold-111"/>
     <use x="705.126953" xlink:href="#DejaVuSans-Bold-114"/>
     <use x="754.443359" xlink:href="#DejaVuSans-Bold-69"/>
     <use x="822.753906" xlink:href="#DejaVuSans-Bold-120"/>
     <use x="887.255859" xlink:href="#DejaVuSans-Bold-112"/>
     <use x="958.837891" xlink:href="#DejaVuSans-Bold-101"/>
     <use x="1026.660156" xlink:href="#DejaVuSans-Bold-114"/>
     <use x="1075.976562" xlink:href="#DejaVuSans-Bold-105"/>
     <use x="1110.253906" xlink:href="#DejaVuSans-Bold-109"/>
     <use x="1214.453125" xlink:href="#DejaVuSans-Bold-101"/>
     <use x="1282.275391" xlink:href="#DejaVuSans-Bold-110"/>
     <use x="1353.466797" xlink:href="#DejaVuSans-Bold-116"/>
     <use x="1401.269531" xlink:href="#DejaVuSans-Bold-95"/>
     <use x="1451.269531" xlink:href="#DejaVuSans-Bold-70"/>
     <use x="1519.580078" xlink:href="#DejaVuSans-Bold-105"/>
     <use x="1553.857422" xlink:href="#DejaVuSans-Bold-103"/>
     <use x="1625.439453" xlink:href="#DejaVuSans-Bold-49"/>
    </g>
   </g>
   <g id="legend_1">
    <g id="patch_7">
     <path d="M 63.808125 115.123125 
L 141.49125 115.123125 
Q 144.09125 115.123125 144.09125 112.523125 
L 144.09125 37.496875 
Q 144.09125 34.896875 141.49125 34.896875 
L 63.808125 34.896875 
Q 61.208125 34.896875 61.208125 37.496875 
L 61.208125 112.523125 
Q 61.208125 115.123125 63.808125 115.123125 
z
" style="fill:#ffffff;opacity:0.8;stroke:#cccccc;stroke-linejoin:miter;"/>
    </g>
    <g id="line2d_20">
     <path d="M 66.408125 45.424844 
L 92.408125 45.424844 
" style="fill:none;stroke:#000000;stroke-linecap:square;stroke-width:2;"/>
    </g>
    <g id="line2d_21"/>
    <g id="text_19">
     <!-- X sim -->
     <g transform="translate(102.808125 49.974844)scale(0.13 -0.13)">
      <defs>
       <path d="M 6.296875 72.90625 
L 16.890625 72.90625 
L 35.015625 45.796875 
L 53.21875 72.90625 
L 63.8125 72.90625 
L 40.375 37.890625 
L 65.375 0 
L 54.78125 0 
L 34.28125 31 
L 13.625 0 
L 2.984375 0 
L 29 38.921875 
z
" id="DejaVuSans-88"/>
       <path id="DejaVuSans-32"/>
       <path d="M 44.28125 53.078125 
L 44.28125 44.578125 
Q 40.484375 46.53125 36.375 47.5 
Q 32.28125 48.484375 27.875 48.484375 
Q 21.1875 48.484375 17.84375 46.4375 
Q 14.5 44.390625 14.5 40.28125 
Q 14.5 37.15625 16.890625 35.375 
Q 19.28125 33.59375 26.515625 31.984375 
L 29.59375 31.296875 
Q 39.15625 29.25 43.1875 25.515625 
Q 47.21875 21.78125 47.21875 15.09375 
Q 47.21875 7.46875 41.1875 3.015625 
Q 35.15625 -1.421875 24.609375 -1.421875 
Q 20.21875 -1.421875 15.453125 -0.5625 
Q 10.6875 0.296875 5.421875 2 
L 5.421875 11.28125 
Q 10.40625 8.6875 15.234375 7.390625 
Q 20.0625 6.109375 24.8125 6.109375 
Q 31.15625 6.109375 34.5625 8.28125 
Q 37.984375 10.453125 37.984375 14.40625 
Q 37.984375 18.0625 35.515625 20.015625 
Q 33.0625 21.96875 24.703125 23.78125 
L 21.578125 24.515625 
Q 13.234375 26.265625 9.515625 29.90625 
Q 5.8125 33.546875 5.8125 39.890625 
Q 5.8125 47.609375 11.28125 51.796875 
Q 16.75 56 26.8125 56 
Q 31.78125 56 36.171875 55.265625 
Q 40.578125 54.546875 44.28125 53.078125 
z
" id="DejaVuSans-115"/>
       <path d="M 9.421875 54.6875 
L 18.40625 54.6875 
L 18.40625 0 
L 9.421875 0 
z
M 9.421875 75.984375 
L 18.40625 75.984375 
L 18.40625 64.59375 
L 9.421875 64.59375 
z
" id="DejaVuSans-105"/>
       <path d="M 52 44.1875 
Q 55.375 50.25 60.0625 53.125 
Q 64.75 56 71.09375 56 
Q 79.640625 56 84.28125 50.015625 
Q 88.921875 44.046875 88.921875 33.015625 
L 88.921875 0 
L 79.890625 0 
L 79.890625 32.71875 
Q 79.890625 40.578125 77.09375 44.375 
Q 74.3125 48.1875 68.609375 48.1875 
Q 61.625 48.1875 57.5625 43.546875 
Q 53.515625 38.921875 53.515625 30.90625 
L 53.515625 0 
L 44.484375 0 
L 44.484375 32.71875 
Q 44.484375 40.625 41.703125 44.40625 
Q 38.921875 48.1875 33.109375 48.1875 
Q 26.21875 48.1875 22.15625 43.53125 
Q 18.109375 38.875 18.109375 30.90625 
L 18.109375 0 
L 9.078125 0 
L 9.078125 54.6875 
L 18.109375 54.6875 
L 18.109375 46.1875 
Q 21.1875 51.21875 25.484375 53.609375 
Q 29.78125 56 35.6875 56 
Q 41.65625 56 45.828125 52.96875 
Q 50 49.953125 52 44.1875 
z
" id="DejaVuSans-109"/>
      </defs>
      <use xlink:href="#DejaVuSans-88"/>
      <use x="68.505859" xlink:href="#DejaVuSans-32"/>
      <use x="100.292969" xlink:href="#DejaVuSans-115"/>
      <use x="152.392578" xlink:href="#DejaVuSans-105"/>
      <use x="180.175781" xlink:href="#DejaVuSans-109"/>
     </g>
    </g>
    <g id="line2d_22">
     <path d="M 66.408125 64.506406 
L 92.408125 64.506406 
" style="fill:none;stroke:#0000ff;stroke-linecap:square;stroke-width:2;"/>
    </g>
    <g id="line2d_23"/>
    <g id="text_20">
     <!-- Y sim -->
     <g transform="translate(102.808125 69.056406)scale(0.13 -0.13)">
      <defs>
       <path d="M -0.203125 72.90625 
L 10.40625 72.90625 
L 30.609375 42.921875 
L 50.6875 72.90625 
L 61.28125 72.90625 
L 35.5 34.71875 
L 35.5 0 
L 25.59375 0 
L 25.59375 34.71875 
z
" id="DejaVuSans-89"/>
      </defs>
      <use xlink:href="#DejaVuSans-89"/>
      <use x="61.083984" xlink:href="#DejaVuSans-32"/>
      <use x="92.871094" xlink:href="#DejaVuSans-115"/>
      <use x="144.970703" xlink:href="#DejaVuSans-105"/>
      <use x="172.753906" xlink:href="#DejaVuSans-109"/>
     </g>
    </g>
    <g id="line2d_24">
     <path d="M 66.408125 83.587969 
L 92.408125 83.587969 
" style="fill:none;stroke:#000000;stroke-linecap:square;stroke-width:2;"/>
    </g>
    <g id="line2d_25"/>
    <g id="text_21">
     <!-- X sim -->
     <g transform="translate(102.808125 88.137969)scale(0.13 -0.13)">
      <use xlink:href="#DejaVuSans-88"/>
      <use x="68.505859" xlink:href="#DejaVuSans-32"/>
      <use x="100.292969" xlink:href="#DejaVuSans-115"/>
      <use x="152.392578" xlink:href="#DejaVuSans-105"/>
      <use x="180.175781" xlink:href="#DejaVuSans-109"/>
     </g>
    </g>
    <g id="line2d_26">
     <path d="M 66.408125 102.669531 
L 92.408125 102.669531 
" style="fill:none;stroke:#0000ff;stroke-linecap:square;stroke-width:2;"/>
    </g>
    <g id="line2d_27"/>
    <g id="text_22">
     <!-- Y sim -->
     <g transform="translate(102.808125 107.219531)scale(0.13 -0.13)">
      <use xlink:href="#DejaVuSans-89"/>
      <use x="61.083984" xlink:href="#DejaVuSans-32"/>
      <use x="92.871094" xlink:href="#DejaVuSans-115"/>
      <use x="144.970703" xlink:href="#DejaVuSans-105"/>
      <use x="172.753906" xlink:href="#DejaVuSans-109"/>
     </g>
    </g>
   </g>
  </g>
 </g>
 <defs>
  <clipPath id="p1391fe53fc">
   <rect height="277.2" width="390.6" x="54.708125" y="28.396875"/>
  </clipPath>
 </defs>
</svg>
