<?xml version="1.0" encoding="utf-8" standalone="no"?>
<!DOCTYPE svg PUBLIC "-//W3C//DTD SVG 1.1//EN"
  "http://www.w3.org/Graphics/SVG/1.1/DTD/svg11.dtd">
<!-- Created with matplotlib (https://matplotlib.org/) -->
<svg height="351.934687pt" version="1.1" viewBox="0 0 496.235469 351.934687" width="496.235469pt" xmlns="http://www.w3.org/2000/svg" xmlns:xlink="http://www.w3.org/1999/xlink">
 <metadata>
  <rdf:RDF xmlns:cc="http://creativecommons.org/ns#" xmlns:dc="http://purl.org/dc/elements/1.1/" xmlns:rdf="http://www.w3.org/1999/02/22-rdf-syntax-ns#">
   <cc:Work>
    <dc:type rdf:resource="http://purl.org/dc/dcmitype/StillImage"/>
    <dc:date>2020-10-14T21:34:40.441019</dc:date>
    <dc:format>image/svg+xml</dc:format>
    <dc:creator>
     <cc:Agent>
      <dc:title>Matplotlib v3.3.2, https://matplotlib.org/</dc:title>
     </cc:Agent>
    </dc:creator>
   </cc:Work>
  </rdf:RDF>
 </metadata>
 <defs>
  <style type="text/css">*{stroke-linecap:butt;stroke-linejoin:round;}</style>
 </defs>
 <g id="figure_1">
  <g id="patch_1">
   <path d="M 0 351.934687 
L 496.235469 351.934687 
L 496.235469 0 
L 0 0 
z
" style="fill:#ffffff;"/>
  </g>
  <g id="axes_1">
   <g id="patch_2">
    <path d="M 54.708125 301.796875 
L 477.108125 301.796875 
L 477.108125 28.396875 
L 54.708125 28.396875 
z
" style="fill:#ffffff;"/>
   </g>
   <g id="matplotlib.axis_1">
    <g id="xtick_1">
     <g id="line2d_1">
      <defs>
       <path d="M 0 0 
L 0 3.5 
" id="m33d4aeb25d" style="stroke:#000000;stroke-width:0.8;"/>
      </defs>
      <g>
       <use style="stroke:#000000;stroke-width:0.8;" x="73.908125" xlink:href="#m33d4aeb25d" y="301.796875"/>
      </g>
     </g>
     <g id="text_1">
      <!-- 0.0 -->
      <g transform="translate(61.980781 320.194531)scale(0.15 -0.15)">
       <defs>
        <path d="M 31.78125 66.40625 
Q 24.171875 66.40625 20.328125 58.90625 
Q 16.5 51.421875 16.5 36.375 
Q 16.5 21.390625 20.328125 13.890625 
Q 24.171875 6.390625 31.78125 6.390625 
Q 39.453125 6.390625 43.28125 13.890625 
Q 47.125 21.390625 47.125 36.375 
Q 47.125 51.421875 43.28125 58.90625 
Q 39.453125 66.40625 31.78125 66.40625 
z
M 31.78125 74.21875 
Q 44.046875 74.21875 50.515625 64.515625 
Q 56.984375 54.828125 56.984375 36.375 
Q 56.984375 17.96875 50.515625 8.265625 
Q 44.046875 -1.421875 31.78125 -1.421875 
Q 19.53125 -1.421875 13.0625 8.265625 
Q 6.59375 17.96875 6.59375 36.375 
Q 6.59375 54.828125 13.0625 64.515625 
Q 19.53125 74.21875 31.78125 74.21875 
z
" id="DejaVuSans-48"/>
        <path d="M 10.6875 12.40625 
L 21 12.40625 
L 21 0 
L 10.6875 0 
z
" id="DejaVuSans-46"/>
       </defs>
       <use xlink:href="#DejaVuSans-48"/>
       <use x="63.623047" xlink:href="#DejaVuSans-46"/>
       <use x="95.410156" xlink:href="#DejaVuSans-48"/>
      </g>
     </g>
    </g>
    <g id="xtick_2">
     <g id="line2d_2">
      <g>
       <use style="stroke:#000000;stroke-width:0.8;" x="131.508125" xlink:href="#m33d4aeb25d" y="301.796875"/>
      </g>
     </g>
     <g id="text_2">
      <!-- 0.5 -->
      <g transform="translate(119.580781 320.194531)scale(0.15 -0.15)">
       <defs>
        <path d="M 10.796875 72.90625 
L 49.515625 72.90625 
L 49.515625 64.59375 
L 19.828125 64.59375 
L 19.828125 46.734375 
Q 21.96875 47.46875 24.109375 47.828125 
Q 26.265625 48.1875 28.421875 48.1875 
Q 40.625 48.1875 47.75 41.5 
Q 54.890625 34.8125 54.890625 23.390625 
Q 54.890625 11.625 47.5625 5.09375 
Q 40.234375 -1.421875 26.90625 -1.421875 
Q 22.3125 -1.421875 17.546875 -0.640625 
Q 12.796875 0.140625 7.71875 1.703125 
L 7.71875 11.625 
Q 12.109375 9.234375 16.796875 8.0625 
Q 21.484375 6.890625 26.703125 6.890625 
Q 35.15625 6.890625 40.078125 11.328125 
Q 45.015625 15.765625 45.015625 23.390625 
Q 45.015625 31 40.078125 35.4375 
Q 35.15625 39.890625 26.703125 39.890625 
Q 22.75 39.890625 18.8125 39.015625 
Q 14.890625 38.140625 10.796875 36.28125 
z
" id="DejaVuSans-53"/>
       </defs>
       <use xlink:href="#DejaVuSans-48"/>
       <use x="63.623047" xlink:href="#DejaVuSans-46"/>
       <use x="95.410156" xlink:href="#DejaVuSans-53"/>
      </g>
     </g>
    </g>
    <g id="xtick_3">
     <g id="line2d_3">
      <g>
       <use style="stroke:#000000;stroke-width:0.8;" x="189.108125" xlink:href="#m33d4aeb25d" y="301.796875"/>
      </g>
     </g>
     <g id="text_3">
      <!-- 1.0 -->
      <g transform="translate(177.180781 320.194531)scale(0.15 -0.15)">
       <defs>
        <path d="M 12.40625 8.296875 
L 28.515625 8.296875 
L 28.515625 63.921875 
L 10.984375 60.40625 
L 10.984375 69.390625 
L 28.421875 72.90625 
L 38.28125 72.90625 
L 38.28125 8.296875 
L 54.390625 8.296875 
L 54.390625 0 
L 12.40625 0 
z
" id="DejaVuSans-49"/>
       </defs>
       <use xlink:href="#DejaVuSans-49"/>
       <use x="63.623047" xlink:href="#DejaVuSans-46"/>
       <use x="95.410156" xlink:href="#DejaVuSans-48"/>
      </g>
     </g>
    </g>
    <g id="xtick_4">
     <g id="line2d_4">
      <g>
       <use style="stroke:#000000;stroke-width:0.8;" x="246.708125" xlink:href="#m33d4aeb25d" y="301.796875"/>
      </g>
     </g>
     <g id="text_4">
      <!-- 1.5 -->
      <g transform="translate(234.780781 320.194531)scale(0.15 -0.15)">
       <use xlink:href="#DejaVuSans-49"/>
       <use x="63.623047" xlink:href="#DejaVuSans-46"/>
       <use x="95.410156" xlink:href="#DejaVuSans-53"/>
      </g>
     </g>
    </g>
    <g id="xtick_5">
     <g id="line2d_5">
      <g>
       <use style="stroke:#000000;stroke-width:0.8;" x="304.308125" xlink:href="#m33d4aeb25d" y="301.796875"/>
      </g>
     </g>
     <g id="text_5">
      <!-- 2.0 -->
      <g transform="translate(292.380781 320.194531)scale(0.15 -0.15)">
       <defs>
        <path d="M 19.1875 8.296875 
L 53.609375 8.296875 
L 53.609375 0 
L 7.328125 0 
L 7.328125 8.296875 
Q 12.9375 14.109375 22.625 23.890625 
Q 32.328125 33.6875 34.8125 36.53125 
Q 39.546875 41.84375 41.421875 45.53125 
Q 43.3125 49.21875 43.3125 52.78125 
Q 43.3125 58.59375 39.234375 62.25 
Q 35.15625 65.921875 28.609375 65.921875 
Q 23.96875 65.921875 18.8125 64.3125 
Q 13.671875 62.703125 7.8125 59.421875 
L 7.8125 69.390625 
Q 13.765625 71.78125 18.9375 73 
Q 24.125 74.21875 28.421875 74.21875 
Q 39.75 74.21875 46.484375 68.546875 
Q 53.21875 62.890625 53.21875 53.421875 
Q 53.21875 48.921875 51.53125 44.890625 
Q 49.859375 40.875 45.40625 35.40625 
Q 44.1875 33.984375 37.640625 27.21875 
Q 31.109375 20.453125 19.1875 8.296875 
z
" id="DejaVuSans-50"/>
       </defs>
       <use xlink:href="#DejaVuSans-50"/>
       <use x="63.623047" xlink:href="#DejaVuSans-46"/>
       <use x="95.410156" xlink:href="#DejaVuSans-48"/>
      </g>
     </g>
    </g>
    <g id="xtick_6">
     <g id="line2d_6">
      <g>
       <use style="stroke:#000000;stroke-width:0.8;" x="361.908125" xlink:href="#m33d4aeb25d" y="301.796875"/>
      </g>
     </g>
     <g id="text_6">
      <!-- 2.5 -->
      <g transform="translate(349.980781 320.194531)scale(0.15 -0.15)">
       <use xlink:href="#DejaVuSans-50"/>
       <use x="63.623047" xlink:href="#DejaVuSans-46"/>
       <use x="95.410156" xlink:href="#DejaVuSans-53"/>
      </g>
     </g>
    </g>
    <g id="xtick_7">
     <g id="line2d_7">
      <g>
       <use style="stroke:#000000;stroke-width:0.8;" x="419.508125" xlink:href="#m33d4aeb25d" y="301.796875"/>
      </g>
     </g>
     <g id="text_7">
      <!-- 3.0 -->
      <g transform="translate(407.580781 320.194531)scale(0.15 -0.15)">
       <defs>
        <path d="M 40.578125 39.3125 
Q 47.65625 37.796875 51.625 33 
Q 55.609375 28.21875 55.609375 21.1875 
Q 55.609375 10.40625 48.1875 4.484375 
Q 40.765625 -1.421875 27.09375 -1.421875 
Q 22.515625 -1.421875 17.65625 -0.515625 
Q 12.796875 0.390625 7.625 2.203125 
L 7.625 11.71875 
Q 11.71875 9.328125 16.59375 8.109375 
Q 21.484375 6.890625 26.8125 6.890625 
Q 36.078125 6.890625 40.9375 10.546875 
Q 45.796875 14.203125 45.796875 21.1875 
Q 45.796875 27.640625 41.28125 31.265625 
Q 36.765625 34.90625 28.71875 34.90625 
L 20.21875 34.90625 
L 20.21875 43.015625 
L 29.109375 43.015625 
Q 36.375 43.015625 40.234375 45.921875 
Q 44.09375 48.828125 44.09375 54.296875 
Q 44.09375 59.90625 40.109375 62.90625 
Q 36.140625 65.921875 28.71875 65.921875 
Q 24.65625 65.921875 20.015625 65.03125 
Q 15.375 64.15625 9.8125 62.3125 
L 9.8125 71.09375 
Q 15.4375 72.65625 20.34375 73.4375 
Q 25.25 74.21875 29.59375 74.21875 
Q 40.828125 74.21875 47.359375 69.109375 
Q 53.90625 64.015625 53.90625 55.328125 
Q 53.90625 49.265625 50.4375 45.09375 
Q 46.96875 40.921875 40.578125 39.3125 
z
" id="DejaVuSans-51"/>
       </defs>
       <use xlink:href="#DejaVuSans-51"/>
       <use x="63.623047" xlink:href="#DejaVuSans-46"/>
       <use x="95.410156" xlink:href="#DejaVuSans-48"/>
      </g>
     </g>
    </g>
    <g id="xtick_8">
     <g id="line2d_8">
      <g>
       <use style="stroke:#000000;stroke-width:0.8;" x="477.108125" xlink:href="#m33d4aeb25d" y="301.796875"/>
      </g>
     </g>
     <g id="text_8">
      <!-- 3.5 -->
      <g transform="translate(465.180781 320.194531)scale(0.15 -0.15)">
       <use xlink:href="#DejaVuSans-51"/>
       <use x="63.623047" xlink:href="#DejaVuSans-46"/>
       <use x="95.410156" xlink:href="#DejaVuSans-53"/>
      </g>
     </g>
    </g>
    <g id="text_9">
     <!-- time [min] -->
     <g transform="translate(212.808125 340.99125)scale(0.18 -0.18)">
      <defs>
       <path d="M 27.484375 70.21875 
L 27.484375 54.6875 
L 45.515625 54.6875 
L 45.515625 42.1875 
L 27.484375 42.1875 
L 27.484375 19 
Q 27.484375 15.1875 29 13.84375 
Q 30.515625 12.5 35.015625 12.5 
L 44 12.5 
L 44 0 
L 29 0 
Q 18.65625 0 14.328125 4.3125 
Q 10.015625 8.640625 10.015625 19 
L 10.015625 42.1875 
L 1.3125 42.1875 
L 1.3125 54.6875 
L 10.015625 54.6875 
L 10.015625 70.21875 
z
" id="DejaVuSans-Bold-116"/>
       <path d="M 8.40625 54.6875 
L 25.875 54.6875 
L 25.875 0 
L 8.40625 0 
z
M 8.40625 75.984375 
L 25.875 75.984375 
L 25.875 61.71875 
L 8.40625 61.71875 
z
" id="DejaVuSans-Bold-105"/>
       <path d="M 59.078125 45.609375 
Q 62.40625 50.6875 66.96875 53.34375 
Q 71.53125 56 77 56 
Q 86.421875 56 91.359375 50.1875 
Q 96.296875 44.390625 96.296875 33.296875 
L 96.296875 0 
L 78.71875 0 
L 78.71875 28.515625 
Q 78.765625 29.15625 78.78125 29.828125 
Q 78.8125 30.515625 78.8125 31.78125 
Q 78.8125 37.59375 77.09375 40.203125 
Q 75.390625 42.828125 71.578125 42.828125 
Q 66.609375 42.828125 63.890625 38.71875 
Q 61.1875 34.625 61.078125 26.859375 
L 61.078125 0 
L 43.5 0 
L 43.5 28.515625 
Q 43.5 37.59375 41.9375 40.203125 
Q 40.375 42.828125 36.375 42.828125 
Q 31.34375 42.828125 28.609375 38.703125 
Q 25.875 34.578125 25.875 26.90625 
L 25.875 0 
L 8.296875 0 
L 8.296875 54.6875 
L 25.875 54.6875 
L 25.875 46.6875 
Q 29.109375 51.3125 33.28125 53.65625 
Q 37.453125 56 42.484375 56 
Q 48.140625 56 52.484375 53.265625 
Q 56.84375 50.53125 59.078125 45.609375 
z
" id="DejaVuSans-Bold-109"/>
       <path d="M 62.984375 27.484375 
L 62.984375 22.515625 
L 22.125 22.515625 
Q 22.75 16.359375 26.5625 13.28125 
Q 30.375 10.203125 37.203125 10.203125 
Q 42.71875 10.203125 48.5 11.84375 
Q 54.296875 13.484375 60.40625 16.796875 
L 60.40625 3.328125 
Q 54.203125 0.984375 48 -0.21875 
Q 41.796875 -1.421875 35.59375 -1.421875 
Q 20.75 -1.421875 12.515625 6.125 
Q 4.296875 13.671875 4.296875 27.296875 
Q 4.296875 40.671875 12.375 48.328125 
Q 20.453125 56 34.625 56 
Q 47.515625 56 55.25 48.234375 
Q 62.984375 40.484375 62.984375 27.484375 
z
M 45.015625 33.296875 
Q 45.015625 38.28125 42.109375 41.328125 
Q 39.203125 44.390625 34.515625 44.390625 
Q 29.4375 44.390625 26.265625 41.53125 
Q 23.09375 38.671875 22.3125 33.296875 
z
" id="DejaVuSans-Bold-101"/>
       <path id="DejaVuSans-Bold-32"/>
       <path d="M 8.59375 75.984375 
L 38.921875 75.984375 
L 38.921875 64.984375 
L 25.203125 64.984375 
L 25.203125 -2.203125 
L 38.921875 -2.203125 
L 38.921875 -13.1875 
L 8.59375 -13.1875 
z
" id="DejaVuSans-Bold-91"/>
       <path d="M 63.375 33.296875 
L 63.375 0 
L 45.796875 0 
L 45.796875 5.421875 
L 45.796875 25.484375 
Q 45.796875 32.5625 45.484375 35.25 
Q 45.171875 37.9375 44.390625 39.203125 
Q 43.359375 40.921875 41.59375 41.875 
Q 39.84375 42.828125 37.59375 42.828125 
Q 32.125 42.828125 29 38.59375 
Q 25.875 34.375 25.875 26.90625 
L 25.875 0 
L 8.40625 0 
L 8.40625 54.6875 
L 25.875 54.6875 
L 25.875 46.6875 
Q 29.828125 51.46875 34.265625 53.734375 
Q 38.71875 56 44.09375 56 
Q 53.5625 56 58.46875 50.1875 
Q 63.375 44.390625 63.375 33.296875 
z
" id="DejaVuSans-Bold-110"/>
       <path d="M 37.109375 -13.1875 
L 6.78125 -13.1875 
L 6.78125 -2.203125 
L 20.515625 -2.203125 
L 20.515625 64.984375 
L 6.78125 64.984375 
L 6.78125 75.984375 
L 37.109375 75.984375 
z
" id="DejaVuSans-Bold-93"/>
      </defs>
      <use xlink:href="#DejaVuSans-Bold-116"/>
      <use x="47.802734" xlink:href="#DejaVuSans-Bold-105"/>
      <use x="82.080078" xlink:href="#DejaVuSans-Bold-109"/>
      <use x="186.279297" xlink:href="#DejaVuSans-Bold-101"/>
      <use x="254.101562" xlink:href="#DejaVuSans-Bold-32"/>
      <use x="288.916016" xlink:href="#DejaVuSans-Bold-91"/>
      <use x="334.619141" xlink:href="#DejaVuSans-Bold-109"/>
      <use x="438.818359" xlink:href="#DejaVuSans-Bold-105"/>
      <use x="473.095703" xlink:href="#DejaVuSans-Bold-110"/>
      <use x="544.287109" xlink:href="#DejaVuSans-Bold-93"/>
     </g>
    </g>
   </g>
   <g id="matplotlib.axis_2">
    <g id="ytick_1">
     <g id="line2d_9">
      <defs>
       <path d="M 0 0 
L -3.5 0 
" id="m6be4caa77a" style="stroke:#000000;stroke-width:0.8;"/>
      </defs>
      <g>
       <use style="stroke:#000000;stroke-width:0.8;" x="54.708125" xlink:href="#m6be4caa77a" y="289.369602"/>
      </g>
     </g>
     <g id="text_10">
      <!-- 0 -->
      <g transform="translate(38.164375 295.06843)scale(0.15 -0.15)">
       <use xlink:href="#DejaVuSans-48"/>
      </g>
     </g>
    </g>
    <g id="ytick_2">
     <g id="line2d_10">
      <g>
       <use style="stroke:#000000;stroke-width:0.8;" x="54.708125" xlink:href="#m6be4caa77a" y="249.548205"/>
      </g>
     </g>
     <g id="text_11">
      <!-- 5 -->
      <g transform="translate(38.164375 255.247033)scale(0.15 -0.15)">
       <use xlink:href="#DejaVuSans-53"/>
      </g>
     </g>
    </g>
    <g id="ytick_3">
     <g id="line2d_11">
      <g>
       <use style="stroke:#000000;stroke-width:0.8;" x="54.708125" xlink:href="#m6be4caa77a" y="209.726807"/>
      </g>
     </g>
     <g id="text_12">
      <!-- 10 -->
      <g transform="translate(28.620625 215.425635)scale(0.15 -0.15)">
       <use xlink:href="#DejaVuSans-49"/>
       <use x="63.623047" xlink:href="#DejaVuSans-48"/>
      </g>
     </g>
    </g>
    <g id="ytick_4">
     <g id="line2d_12">
      <g>
       <use style="stroke:#000000;stroke-width:0.8;" x="54.708125" xlink:href="#m6be4caa77a" y="169.90541"/>
      </g>
     </g>
     <g id="text_13">
      <!-- 15 -->
      <g transform="translate(28.620625 175.604238)scale(0.15 -0.15)">
       <use xlink:href="#DejaVuSans-49"/>
       <use x="63.623047" xlink:href="#DejaVuSans-53"/>
      </g>
     </g>
    </g>
    <g id="ytick_5">
     <g id="line2d_13">
      <g>
       <use style="stroke:#000000;stroke-width:0.8;" x="54.708125" xlink:href="#m6be4caa77a" y="130.084012"/>
      </g>
     </g>
     <g id="text_14">
      <!-- 20 -->
      <g transform="translate(28.620625 135.78284)scale(0.15 -0.15)">
       <use xlink:href="#DejaVuSans-50"/>
       <use x="63.623047" xlink:href="#DejaVuSans-48"/>
      </g>
     </g>
    </g>
    <g id="ytick_6">
     <g id="line2d_14">
      <g>
       <use style="stroke:#000000;stroke-width:0.8;" x="54.708125" xlink:href="#m6be4caa77a" y="90.262614"/>
      </g>
     </g>
     <g id="text_15">
      <!-- 25 -->
      <g transform="translate(28.620625 95.961443)scale(0.15 -0.15)">
       <use xlink:href="#DejaVuSans-50"/>
       <use x="63.623047" xlink:href="#DejaVuSans-53"/>
      </g>
     </g>
    </g>
    <g id="ytick_7">
     <g id="line2d_15">
      <g>
       <use style="stroke:#000000;stroke-width:0.8;" x="54.708125" xlink:href="#m6be4caa77a" y="50.441217"/>
      </g>
     </g>
     <g id="text_16">
      <!-- 30 -->
      <g transform="translate(28.620625 56.140045)scale(0.15 -0.15)">
       <use xlink:href="#DejaVuSans-51"/>
       <use x="63.623047" xlink:href="#DejaVuSans-48"/>
      </g>
     </g>
    </g>
    <g id="text_17">
     <!-- data [dimensionless] -->
     <g transform="translate(20.877187 271.699062)rotate(-90)scale(0.18 -0.18)">
      <defs>
       <path d="M 45.609375 46.6875 
L 45.609375 75.984375 
L 63.1875 75.984375 
L 63.1875 0 
L 45.609375 0 
L 45.609375 7.90625 
Q 42 3.078125 37.640625 0.828125 
Q 33.296875 -1.421875 27.59375 -1.421875 
Q 17.484375 -1.421875 10.984375 6.609375 
Q 4.5 14.65625 4.5 27.296875 
Q 4.5 39.9375 10.984375 47.96875 
Q 17.484375 56 27.59375 56 
Q 33.25 56 37.625 53.734375 
Q 42 51.46875 45.609375 46.6875 
z
M 34.078125 11.28125 
Q 39.703125 11.28125 42.65625 15.375 
Q 45.609375 19.484375 45.609375 27.296875 
Q 45.609375 35.109375 42.65625 39.203125 
Q 39.703125 43.3125 34.078125 43.3125 
Q 28.515625 43.3125 25.5625 39.203125 
Q 22.609375 35.109375 22.609375 27.296875 
Q 22.609375 19.484375 25.5625 15.375 
Q 28.515625 11.28125 34.078125 11.28125 
z
" id="DejaVuSans-Bold-100"/>
       <path d="M 32.90625 24.609375 
Q 27.4375 24.609375 24.671875 22.75 
Q 21.921875 20.90625 21.921875 17.28125 
Q 21.921875 13.96875 24.140625 12.078125 
Q 26.375 10.203125 30.328125 10.203125 
Q 35.25 10.203125 38.625 13.734375 
Q 42 17.28125 42 22.609375 
L 42 24.609375 
z
M 59.625 31.203125 
L 59.625 0 
L 42 0 
L 42 8.109375 
Q 38.484375 3.125 34.078125 0.84375 
Q 29.6875 -1.421875 23.390625 -1.421875 
Q 14.890625 -1.421875 9.59375 3.53125 
Q 4.296875 8.5 4.296875 16.40625 
Q 4.296875 26.03125 10.90625 30.515625 
Q 17.53125 35.015625 31.6875 35.015625 
L 42 35.015625 
L 42 36.375 
Q 42 40.53125 38.71875 42.453125 
Q 35.453125 44.390625 28.515625 44.390625 
Q 22.90625 44.390625 18.0625 43.265625 
Q 13.234375 42.140625 9.078125 39.890625 
L 9.078125 53.21875 
Q 14.703125 54.59375 20.359375 55.296875 
Q 26.03125 56 31.6875 56 
Q 46.484375 56 53.046875 50.171875 
Q 59.625 44.34375 59.625 31.203125 
z
" id="DejaVuSans-Bold-97"/>
       <path d="M 51.125 52.984375 
L 51.125 39.703125 
Q 45.515625 42.046875 40.28125 43.21875 
Q 35.0625 44.390625 30.421875 44.390625 
Q 25.4375 44.390625 23.015625 43.140625 
Q 20.609375 41.890625 20.609375 39.3125 
Q 20.609375 37.203125 22.4375 36.078125 
Q 24.265625 34.96875 29 34.421875 
L 32.078125 33.984375 
Q 45.515625 32.28125 50.140625 28.375 
Q 54.78125 24.46875 54.78125 16.109375 
Q 54.78125 7.375 48.328125 2.96875 
Q 41.890625 -1.421875 29.109375 -1.421875 
Q 23.6875 -1.421875 17.890625 -0.5625 
Q 12.109375 0.296875 6 2 
L 6 15.28125 
Q 11.234375 12.75 16.71875 11.46875 
Q 22.21875 10.203125 27.875 10.203125 
Q 33.015625 10.203125 35.59375 11.609375 
Q 38.1875 13.03125 38.1875 15.828125 
Q 38.1875 18.171875 36.40625 19.3125 
Q 34.625 20.453125 29.296875 21.09375 
L 26.21875 21.484375 
Q 14.546875 22.953125 9.859375 26.90625 
Q 5.171875 30.859375 5.171875 38.921875 
Q 5.171875 47.609375 11.125 51.796875 
Q 17.09375 56 29.390625 56 
Q 34.234375 56 39.546875 55.265625 
Q 44.875 54.546875 51.125 52.984375 
z
" id="DejaVuSans-Bold-115"/>
       <path d="M 34.421875 43.5 
Q 28.609375 43.5 25.5625 39.328125 
Q 22.515625 35.15625 22.515625 27.296875 
Q 22.515625 19.4375 25.5625 15.25 
Q 28.609375 11.078125 34.421875 11.078125 
Q 40.140625 11.078125 43.15625 15.25 
Q 46.1875 19.4375 46.1875 27.296875 
Q 46.1875 35.15625 43.15625 39.328125 
Q 40.140625 43.5 34.421875 43.5 
z
M 34.421875 56 
Q 48.53125 56 56.46875 48.375 
Q 64.40625 40.765625 64.40625 27.296875 
Q 64.40625 13.8125 56.46875 6.1875 
Q 48.53125 -1.421875 34.421875 -1.421875 
Q 20.265625 -1.421875 12.28125 6.1875 
Q 4.296875 13.8125 4.296875 27.296875 
Q 4.296875 40.765625 12.28125 48.375 
Q 20.265625 56 34.421875 56 
z
" id="DejaVuSans-Bold-111"/>
       <path d="M 8.40625 75.984375 
L 25.875 75.984375 
L 25.875 0 
L 8.40625 0 
z
" id="DejaVuSans-Bold-108"/>
      </defs>
      <use xlink:href="#DejaVuSans-Bold-100"/>
      <use x="71.582031" xlink:href="#DejaVuSans-Bold-97"/>
      <use x="139.0625" xlink:href="#DejaVuSans-Bold-116"/>
      <use x="186.865234" xlink:href="#DejaVuSans-Bold-97"/>
      <use x="254.345703" xlink:href="#DejaVuSans-Bold-32"/>
      <use x="289.160156" xlink:href="#DejaVuSans-Bold-91"/>
      <use x="334.863281" xlink:href="#DejaVuSans-Bold-100"/>
      <use x="406.445312" xlink:href="#DejaVuSans-Bold-105"/>
      <use x="440.722656" xlink:href="#DejaVuSans-Bold-109"/>
      <use x="544.921875" xlink:href="#DejaVuSans-Bold-101"/>
      <use x="612.744141" xlink:href="#DejaVuSans-Bold-110"/>
      <use x="683.935547" xlink:href="#DejaVuSans-Bold-115"/>
      <use x="743.457031" xlink:href="#DejaVuSans-Bold-105"/>
      <use x="777.734375" xlink:href="#DejaVuSans-Bold-111"/>
      <use x="846.435547" xlink:href="#DejaVuSans-Bold-110"/>
      <use x="917.626953" xlink:href="#DejaVuSans-Bold-108"/>
      <use x="951.904297" xlink:href="#DejaVuSans-Bold-101"/>
      <use x="1019.726562" xlink:href="#DejaVuSans-Bold-115"/>
      <use x="1079.248047" xlink:href="#DejaVuSans-Bold-115"/>
      <use x="1138.769531" xlink:href="#DejaVuSans-Bold-93"/>
     </g>
    </g>
   </g>
   <g id="line2d_16">
    <path clip-path="url(#pef8b971e60)" d="M 73.908125 289.369602 
L 74.868125 184.345969 
L 75.444125 145.748977 
L 75.924125 128.191752 
L 76.308125 120.838481 
L 76.692125 117.518481 
L 76.884125 116.962778 
L 76.980125 116.905667 
L 77.172125 117.169011 
L 77.460125 118.34829 
L 77.844125 121.026754 
L 78.516125 127.668267 
L 79.764125 142.899875 
L 82.068125 170.913671 
L 83.508125 185.691122 
L 84.852125 197.208555 
L 86.100125 206.030544 
L 87.252125 212.720106 
L 88.404125 218.166101 
L 89.460125 222.191198 
L 90.516125 225.400648 
L 91.572125 227.891697 
L 92.532125 229.606984 
L 93.492125 230.860732 
L 94.356125 231.63898 
L 95.220125 232.122458 
L 96.084125 232.34363 
L 96.948125 232.332281 
L 97.908125 232.080287 
L 98.964125 231.552103 
L 100.116125 230.724723 
L 101.556125 229.398197 
L 103.380125 227.388637 
L 107.028125 222.930299 
L 109.428125 220.191038 
L 111.156125 218.544311 
L 112.596125 217.474393 
L 113.844125 216.817403 
L 114.996125 216.462822 
L 116.052125 216.368165 
L 117.108125 216.506216 
L 118.164125 216.885041 
L 119.220125 217.508661 
L 120.372125 218.46789 
L 121.620125 219.82865 
L 122.964125 221.651107 
L 124.404125 223.983135 
L 126.132125 227.236443 
L 128.148125 231.538377 
L 130.836125 237.841999 
L 138.516125 256.165899 
L 141.012125 261.39736 
L 143.316125 265.713939 
L 145.428125 269.210823 
L 147.444125 272.139802 
L 149.460125 274.686479 
L 151.476125 276.877728 
L 153.492125 278.746198 
L 155.604125 280.395801 
L 157.812125 281.82702 
L 160.116125 283.047833 
L 162.612125 284.108462 
L 165.300125 285.002879 
L 168.276125 285.756264 
L 171.732125 286.392993 
L 175.764125 286.899749 
L 180.564125 287.272777 
L 186.516125 287.50356 
L 193.620125 287.548736 
L 201.012125 287.374662 
L 207.636125 287.002465 
L 213.204125 286.475406 
L 218.004125 285.801847 
L 222.132125 285.002278 
L 225.780125 284.073508 
L 229.044125 283.018423 
L 232.020125 281.828603 
L 234.804125 280.477512 
L 237.396125 278.973547 
L 239.892125 277.26199 
L 242.196125 275.416406 
L 244.500125 273.27802 
L 246.708125 270.91632 
L 248.820125 268.334586 
L 250.932125 265.399881 
L 253.044125 262.07314 
L 255.156125 258.313715 
L 257.268125 254.080268 
L 259.380125 249.332015 
L 261.492125 244.030392 
L 263.700125 237.859103 
L 265.908125 231.01504 
L 265.908125 209.726807 
L 266.004125 209.779302 
L 266.580125 209.938985 
L 267.156125 209.847072 
L 267.732125 209.523459 
L 268.404125 208.876683 
L 269.172125 207.812885 
L 270.036125 206.24097 
L 271.092125 203.836236 
L 272.340125 200.38728 
L 273.780125 195.693872 
L 275.412125 189.575942 
L 277.332125 181.453709 
L 279.540125 171.087622 
L 282.228125 157.31167 
L 285.876125 137.30203 
L 292.404125 101.316453 
L 294.900125 88.92391 
L 296.820125 80.430324 
L 298.452125 74.129694 
L 299.892125 69.401794 
L 301.140125 66.017524 
L 302.196125 63.720565 
L 303.156125 62.115137 
L 304.020125 61.084466 
L 304.788125 60.511489 
L 305.460125 60.283527 
L 306.036125 60.296073 
L 306.612125 60.504086 
L 307.284125 60.997568 
L 307.956125 61.764538 
L 308.724125 62.9792 
L 309.588125 64.779113 
L 310.548125 67.316878 
L 311.604125 70.756077 
L 312.756125 75.264694 
L 314.100125 81.482465 
L 315.540125 89.213177 
L 317.268125 99.792864 
L 319.284125 113.62201 
L 321.972125 133.789699 
L 329.748125 193.227827 
L 332.148125 209.323215 
L 334.260125 222.01665 
L 336.180125 232.273565 
L 338.004125 240.879121 
L 339.828125 248.411132 
L 341.556125 254.614027 
L 343.284125 259.980094 
L 344.916125 264.349723 
L 346.548125 268.110442 
L 348.180125 271.329862 
L 349.812125 274.072908 
L 351.444125 276.400381 
L 353.172125 278.47374 
L 354.900125 280.203328 
L 356.724125 281.71449 
L 358.644125 283.014003 
L 360.660125 284.114114 
L 362.868125 285.068486 
L 365.364125 285.899324 
L 368.148125 286.589565 
L 371.412125 287.167217 
L 375.444125 287.643438 
L 380.532125 288.007885 
L 387.540125 288.269381 
L 398.004125 288.417109 
L 413.268125 288.401298 
L 426.516125 288.18324 
L 435.636125 287.824452 
L 442.548125 287.339067 
L 448.116125 286.730282 
L 452.724125 286.010029 
L 456.756125 285.158174 
L 457.908125 284.867585 
L 457.908125 284.867585 
" style="fill:none;stroke:#000000;stroke-linecap:square;stroke-width:2;"/>
   </g>
   <g id="line2d_17">
    <path clip-path="url(#pef8b971e60)" d="M 73.908125 130.084012 
L 74.772125 58.091092 
L 75.156125 43.060016 
L 75.348125 40.864952 
L 75.444125 40.824148 
L 75.636125 42.372703 
L 75.924125 47.559395 
L 76.500125 63.073104 
L 79.092125 138.293688 
L 80.340125 166.723393 
L 81.588125 189.959291 
L 82.740125 207.485514 
L 83.892125 221.872992 
L 85.044125 233.658611 
L 86.196125 243.299403 
L 87.348125 251.177915 
L 88.500125 257.61162 
L 89.652125 262.86256 
L 90.804125 267.146302 
L 91.956125 270.639836 
L 93.108125 273.488258 
L 94.356125 275.983369 
L 95.604125 277.983264 
L 96.852125 279.58673 
L 98.196125 280.960966 
L 99.636125 282.114749 
L 101.172125 283.065614 
L 102.900125 283.87605 
L 104.916125 284.570591 
L 107.316125 285.156433 
L 110.388125 285.665603 
L 114.516125 286.109887 
L 120.276125 286.493295 
L 127.380125 286.739412 
L 134.484125 286.764281 
L 141.012125 286.567594 
L 146.772125 286.17582 
L 151.764125 285.618935 
L 156.084125 284.921876 
L 159.924125 284.084764 
L 163.380125 283.109497 
L 166.548125 281.986524 
L 169.428125 280.734763 
L 172.116125 279.329738 
L 174.708125 277.720321 
L 177.108125 275.971405 
L 179.412125 274.023813 
L 181.716125 271.777089 
L 183.924125 269.30756 
L 186.132125 266.491466 
L 188.244125 263.438341 
L 190.356125 259.998983 
L 192.468125 256.139307 
L 194.580125 251.826692 
L 196.788125 246.801888 
L 198.996125 241.2227 
L 201.300125 234.791278 
L 203.700125 227.42669 
L 206.292125 218.737028 
L 209.172125 208.275852 
L 212.724125 194.485976 
L 220.500125 163.992835 
L 222.804125 156.028471 
L 224.628125 150.474552 
L 226.164125 146.455176 
L 227.508125 143.518743 
L 228.660125 141.485838 
L 229.716125 140.049667 
L 230.676125 139.121932 
L 231.540125 138.609687 
L 232.308125 138.420151 
L 232.980125 138.464646 
L 233.652125 138.70889 
L 234.420125 139.23557 
L 235.188125 140.028144 
L 236.052125 141.237834 
L 237.012125 142.973946 
L 238.068125 145.351363 
L 239.220125 148.484746 
L 240.564125 152.812412 
L 242.100125 158.565894 
L 243.828125 165.926076 
L 246.036125 176.391687 
L 249.300125 193.126942 
L 254.292125 218.666498 
L 256.884125 230.720404 
L 259.092125 239.97127 
L 261.108125 247.504918 
L 263.028125 253.848567 
L 264.852125 259.139314 
L 265.908125 261.888422 
L 265.908125 130.084012 
L 266.004125 132.587632 
L 267.156125 159.722541 
L 268.308125 182.109088 
L 269.460125 200.556937 
L 270.612125 215.750144 
L 271.764125 228.26109 
L 272.916125 238.565079 
L 274.068125 247.054624 
L 275.220125 254.053528 
L 276.468125 260.261227 
L 277.716125 265.307039 
L 278.964125 269.413592 
L 280.212125 272.760415 
L 281.460125 275.492237 
L 282.708125 277.725765 
L 284.052125 279.681374 
L 285.396125 281.262109 
L 286.836125 282.624399 
L 288.372125 283.779058 
L 290.100125 284.792419 
L 292.020125 285.649356 
L 294.228125 286.377501 
L 296.820125 286.98388 
L 299.988125 287.480979 
L 304.020125 287.872411 
L 309.492125 288.16278 
L 317.556125 288.349335 
L 330.228125 288.402335 
L 344.244125 288.251223 
L 354.324125 287.93659 
L 361.812125 287.489727 
L 367.668125 286.926909 
L 372.564125 286.239283 
L 376.788125 285.423181 
L 380.436125 284.497075 
L 383.700125 283.445719 
L 386.676125 282.259209 
L 389.460125 280.90979 
L 392.052125 279.404619 
L 394.452125 277.758989 
L 396.756125 275.914219 
L 398.964125 273.866246 
L 401.172125 271.505322 
L 403.284125 268.915179 
L 405.396125 265.959432 
L 407.412125 262.756801 
L 409.428125 259.140626 
L 411.444125 255.068353 
L 413.460125 250.49609 
L 415.476125 245.379511 
L 417.588125 239.388074 
L 419.700125 232.704305 
L 421.812125 225.286375 
L 424.020125 216.710148 
L 426.324125 206.840804 
L 428.724125 195.55627 
L 431.316125 182.252447 
L 434.100125 166.778294 
L 437.460125 146.765401 
L 443.220125 110.763018 
L 447.156125 86.893429 
L 449.652125 73.040392 
L 451.668125 63.014377 
L 453.396125 55.485783 
L 454.932125 49.774772 
L 456.276125 45.637106 
L 457.428125 42.79227 
L 457.908125 41.810148 
L 457.908125 41.810148 
" style="fill:none;stroke:#0000ff;stroke-linecap:square;stroke-width:2;"/>
   </g>
   <g id="line2d_18">
    <path clip-path="url(#pef8b971e60)" d="M 73.908125 289.369602 
L 74.868125 184.345969 
L 75.444125 145.748977 
L 75.924125 128.191752 
L 76.308125 120.838481 
L 76.692125 117.518481 
L 76.884125 116.962778 
L 76.980125 116.905667 
L 77.172125 117.169011 
L 77.460125 118.34829 
L 77.844125 121.026754 
L 78.516125 127.668267 
L 79.764125 142.899875 
L 82.068125 170.913671 
L 83.508125 185.691122 
L 84.852125 197.208555 
L 86.100125 206.030544 
L 87.252125 212.720106 
L 88.404125 218.166101 
L 89.460125 222.191198 
L 90.516125 225.400648 
L 91.572125 227.891697 
L 92.532125 229.606984 
L 93.492125 230.860732 
L 94.356125 231.63898 
L 95.220125 232.122458 
L 96.084125 232.34363 
L 96.948125 232.332281 
L 97.908125 232.080287 
L 98.964125 231.552103 
L 100.116125 230.724723 
L 101.556125 229.398197 
L 103.380125 227.388637 
L 107.028125 222.930299 
L 109.428125 220.191038 
L 111.156125 218.544311 
L 112.596125 217.474393 
L 113.844125 216.817403 
L 114.996125 216.462822 
L 116.052125 216.368165 
L 117.108125 216.506216 
L 118.164125 216.885041 
L 119.220125 217.508661 
L 120.372125 218.46789 
L 121.620125 219.82865 
L 122.964125 221.651107 
L 124.404125 223.983135 
L 126.132125 227.236443 
L 128.148125 231.538377 
L 130.836125 237.841999 
L 138.516125 256.165899 
L 141.012125 261.39736 
L 143.316125 265.713939 
L 145.428125 269.210823 
L 147.444125 272.139802 
L 149.460125 274.686479 
L 151.476125 276.877728 
L 153.492125 278.746198 
L 155.604125 280.395801 
L 157.812125 281.82702 
L 160.116125 283.047833 
L 162.612125 284.108462 
L 165.300125 285.002879 
L 168.276125 285.756264 
L 171.732125 286.392993 
L 175.764125 286.899749 
L 180.564125 287.272777 
L 186.516125 287.50356 
L 193.620125 287.548736 
L 201.012125 287.374662 
L 207.636125 287.002465 
L 213.204125 286.475406 
L 218.004125 285.801847 
L 222.132125 285.002278 
L 225.780125 284.073508 
L 229.044125 283.018423 
L 232.020125 281.828603 
L 234.804125 280.477512 
L 237.396125 278.973547 
L 239.892125 277.26199 
L 242.196125 275.416406 
L 244.500125 273.27802 
L 246.708125 270.91632 
L 248.820125 268.334586 
L 250.932125 265.399881 
L 253.044125 262.07314 
L 255.156125 258.313715 
L 257.268125 254.080268 
L 259.380125 249.332015 
L 261.492125 244.030392 
L 263.700125 237.859103 
L 265.908125 231.01504 
L 265.908125 209.726807 
L 266.004125 209.779302 
L 266.580125 209.938985 
L 267.156125 209.847072 
L 267.732125 209.523459 
L 268.404125 208.876683 
L 269.172125 207.812885 
L 270.036125 206.24097 
L 271.092125 203.836236 
L 272.340125 200.38728 
L 273.780125 195.693872 
L 275.412125 189.575942 
L 277.332125 181.453709 
L 279.540125 171.087622 
L 282.228125 157.31167 
L 285.876125 137.30203 
L 292.404125 101.316453 
L 294.900125 88.92391 
L 296.820125 80.430324 
L 298.452125 74.129694 
L 299.892125 69.401794 
L 301.140125 66.017524 
L 302.196125 63.720565 
L 303.156125 62.115137 
L 304.020125 61.084466 
L 304.788125 60.511489 
L 305.460125 60.283527 
L 306.036125 60.296073 
L 306.612125 60.504086 
L 307.284125 60.997568 
L 307.956125 61.764538 
L 308.724125 62.9792 
L 309.588125 64.779113 
L 310.548125 67.316878 
L 311.604125 70.756077 
L 312.756125 75.264694 
L 314.100125 81.482465 
L 315.540125 89.213177 
L 317.268125 99.792864 
L 319.284125 113.62201 
L 321.972125 133.789699 
L 329.748125 193.227827 
L 332.148125 209.323215 
L 334.260125 222.01665 
L 336.180125 232.273565 
L 338.004125 240.879121 
L 339.828125 248.411132 
L 341.556125 254.614027 
L 343.284125 259.980094 
L 344.916125 264.349723 
L 346.548125 268.110442 
L 348.180125 271.329862 
L 349.812125 274.072908 
L 351.444125 276.400381 
L 353.172125 278.47374 
L 354.900125 280.203328 
L 356.724125 281.71449 
L 358.644125 283.014003 
L 360.660125 284.114114 
L 362.868125 285.068486 
L 365.364125 285.899324 
L 368.148125 286.589565 
L 371.412125 287.167217 
L 375.444125 287.643438 
L 380.532125 288.007885 
L 387.540125 288.269381 
L 398.004125 288.417109 
L 413.268125 288.401298 
L 426.516125 288.18324 
L 435.636125 287.824452 
L 442.548125 287.339067 
L 448.116125 286.730282 
L 452.724125 286.010029 
L 456.756125 285.158174 
L 457.908125 284.867585 
L 457.908125 284.867585 
" style="fill:none;stroke:#000000;stroke-linecap:square;stroke-width:2;"/>
   </g>
   <g id="line2d_19">
    <path clip-path="url(#pef8b971e60)" d="M 73.908125 130.084012 
L 74.772125 58.091092 
L 75.156125 43.060016 
L 75.348125 40.864952 
L 75.444125 40.824148 
L 75.636125 42.372703 
L 75.924125 47.559395 
L 76.500125 63.073104 
L 79.092125 138.293688 
L 80.340125 166.723393 
L 81.588125 189.959291 
L 82.740125 207.485514 
L 83.892125 221.872992 
L 85.044125 233.658611 
L 86.196125 243.299403 
L 87.348125 251.177915 
L 88.500125 257.61162 
L 89.652125 262.86256 
L 90.804125 267.146302 
L 91.956125 270.639836 
L 93.108125 273.488258 
L 94.356125 275.983369 
L 95.604125 277.983264 
L 96.852125 279.58673 
L 98.196125 280.960966 
L 99.636125 282.114749 
L 101.172125 283.065614 
L 102.900125 283.87605 
L 104.916125 284.570591 
L 107.316125 285.156433 
L 110.388125 285.665603 
L 114.516125 286.109887 
L 120.276125 286.493295 
L 127.380125 286.739412 
L 134.484125 286.764281 
L 141.012125 286.567594 
L 146.772125 286.17582 
L 151.764125 285.618935 
L 156.084125 284.921876 
L 159.924125 284.084764 
L 163.380125 283.109497 
L 166.548125 281.986524 
L 169.428125 280.734763 
L 172.116125 279.329738 
L 174.708125 277.720321 
L 177.108125 275.971405 
L 179.412125 274.023813 
L 181.716125 271.777089 
L 183.924125 269.30756 
L 186.132125 266.491466 
L 188.244125 263.438341 
L 190.356125 259.998983 
L 192.468125 256.139307 
L 194.580125 251.826692 
L 196.788125 246.801888 
L 198.996125 241.2227 
L 201.300125 234.791278 
L 203.700125 227.42669 
L 206.292125 218.737028 
L 209.172125 208.275852 
L 212.724125 194.485976 
L 220.500125 163.992835 
L 222.804125 156.028471 
L 224.628125 150.474552 
L 226.164125 146.455176 
L 227.508125 143.518743 
L 228.660125 141.485838 
L 229.716125 140.049667 
L 230.676125 139.121932 
L 231.540125 138.609687 
L 232.308125 138.420151 
L 232.980125 138.464646 
L 233.652125 138.70889 
L 234.420125 139.23557 
L 235.188125 140.028144 
L 236.052125 141.237834 
L 237.012125 142.973946 
L 238.068125 145.351363 
L 239.220125 148.484746 
L 240.564125 152.812412 
L 242.100125 158.565894 
L 243.828125 165.926076 
L 246.036125 176.391687 
L 249.300125 193.126942 
L 254.292125 218.666498 
L 256.884125 230.720404 
L 259.092125 239.97127 
L 261.108125 247.504918 
L 263.028125 253.848567 
L 264.852125 259.139314 
L 265.908125 261.888422 
L 265.908125 130.084012 
L 266.004125 132.587632 
L 267.156125 159.722541 
L 268.308125 182.109088 
L 269.460125 200.556937 
L 270.612125 215.750144 
L 271.764125 228.26109 
L 272.916125 238.565079 
L 274.068125 247.054624 
L 275.220125 254.053528 
L 276.468125 260.261227 
L 277.716125 265.307039 
L 278.964125 269.413592 
L 280.212125 272.760415 
L 281.460125 275.492237 
L 282.708125 277.725765 
L 284.052125 279.681374 
L 285.396125 281.262109 
L 286.836125 282.624399 
L 288.372125 283.779058 
L 290.100125 284.792419 
L 292.020125 285.649356 
L 294.228125 286.377501 
L 296.820125 286.98388 
L 299.988125 287.480979 
L 304.020125 287.872411 
L 309.492125 288.16278 
L 317.556125 288.349335 
L 330.228125 288.402335 
L 344.244125 288.251223 
L 354.324125 287.93659 
L 361.812125 287.489727 
L 367.668125 286.926909 
L 372.564125 286.239283 
L 376.788125 285.423181 
L 380.436125 284.497075 
L 383.700125 283.445719 
L 386.676125 282.259209 
L 389.460125 280.90979 
L 392.052125 279.404619 
L 394.452125 277.758989 
L 396.756125 275.914219 
L 398.964125 273.866246 
L 401.172125 271.505322 
L 403.284125 268.915179 
L 405.396125 265.959432 
L 407.412125 262.756801 
L 409.428125 259.140626 
L 411.444125 255.068353 
L 413.460125 250.49609 
L 415.476125 245.379511 
L 417.588125 239.388074 
L 419.700125 232.704305 
L 421.812125 225.286375 
L 424.020125 216.710148 
L 426.324125 206.840804 
L 428.724125 195.55627 
L 431.316125 182.252447 
L 434.100125 166.778294 
L 437.460125 146.765401 
L 443.220125 110.763018 
L 447.156125 86.893429 
L 449.652125 73.040392 
L 451.668125 63.014377 
L 453.396125 55.485783 
L 454.932125 49.774772 
L 456.276125 45.637106 
L 457.428125 42.79227 
L 457.908125 41.810148 
L 457.908125 41.810148 
" style="fill:none;stroke:#0000ff;stroke-linecap:square;stroke-width:2;"/>
   </g>
   <g id="patch_3">
    <path d="M 54.708125 301.796875 
L 54.708125 28.396875 
" style="fill:none;stroke:#000000;stroke-linecap:square;stroke-linejoin:miter;stroke-width:0.8;"/>
   </g>
   <g id="patch_4">
    <path d="M 477.108125 301.796875 
L 477.108125 28.396875 
" style="fill:none;stroke:#000000;stroke-linecap:square;stroke-linejoin:miter;stroke-width:0.8;"/>
   </g>
   <g id="patch_5">
    <path d="M 54.708125 301.796875 
L 477.108125 301.796875 
" style="fill:none;stroke:#000000;stroke-linecap:square;stroke-linejoin:miter;stroke-width:0.8;"/>
   </g>
   <g id="patch_6">
    <path d="M 54.708125 28.396875 
L 477.108125 28.396875 
" style="fill:none;stroke:#000000;stroke-linecap:square;stroke-linejoin:miter;stroke-width:0.8;"/>
   </g>
   <g id="text_18">
    <!-- RepressilatorExperiment_Fig1 -->
    <g transform="translate(96.406562 22.396875)scale(0.2 -0.2)">
     <defs>
      <path d="M 35.890625 40.578125 
Q 41.796875 40.578125 44.359375 42.765625 
Q 46.921875 44.96875 46.921875 50 
Q 46.921875 54.984375 44.359375 57.125 
Q 41.796875 59.28125 35.890625 59.28125 
L 27.984375 59.28125 
L 27.984375 40.578125 
z
M 27.984375 27.59375 
L 27.984375 0 
L 9.1875 0 
L 9.1875 72.90625 
L 37.890625 72.90625 
Q 52.296875 72.90625 59 68.0625 
Q 65.71875 63.234375 65.71875 52.78125 
Q 65.71875 45.5625 62.21875 40.921875 
Q 58.734375 36.28125 51.703125 34.078125 
Q 55.5625 33.203125 58.609375 30.09375 
Q 61.671875 27 64.796875 20.703125 
L 75 0 
L 54.984375 0 
L 46.09375 18.109375 
Q 43.40625 23.578125 40.640625 25.578125 
Q 37.890625 27.59375 33.296875 27.59375 
z
" id="DejaVuSans-Bold-82"/>
      <path d="M 25.875 7.90625 
L 25.875 -20.796875 
L 8.40625 -20.796875 
L 8.40625 54.6875 
L 25.875 54.6875 
L 25.875 46.6875 
Q 29.5 51.46875 33.890625 53.734375 
Q 38.28125 56 44 56 
Q 54.109375 56 60.59375 47.96875 
Q 67.09375 39.9375 67.09375 27.296875 
Q 67.09375 14.65625 60.59375 6.609375 
Q 54.109375 -1.421875 44 -1.421875 
Q 38.28125 -1.421875 33.890625 0.84375 
Q 29.5 3.125 25.875 7.90625 
z
M 37.5 43.3125 
Q 31.890625 43.3125 28.875 39.1875 
Q 25.875 35.0625 25.875 27.296875 
Q 25.875 19.53125 28.875 15.40625 
Q 31.890625 11.28125 37.5 11.28125 
Q 43.109375 11.28125 46.0625 15.375 
Q 49.03125 19.484375 49.03125 27.296875 
Q 49.03125 35.109375 46.0625 39.203125 
Q 43.109375 43.3125 37.5 43.3125 
z
" id="DejaVuSans-Bold-112"/>
      <path d="M 49.03125 39.796875 
Q 46.734375 40.875 44.453125 41.375 
Q 42.1875 41.890625 39.890625 41.890625 
Q 33.15625 41.890625 29.515625 37.5625 
Q 25.875 33.25 25.875 25.203125 
L 25.875 0 
L 8.40625 0 
L 8.40625 54.6875 
L 25.875 54.6875 
L 25.875 45.703125 
Q 29.25 51.078125 33.609375 53.53125 
Q 37.984375 56 44.09375 56 
Q 44.96875 56 45.984375 55.921875 
Q 47.015625 55.859375 48.96875 55.609375 
z
" id="DejaVuSans-Bold-114"/>
      <path d="M 9.1875 72.90625 
L 59.90625 72.90625 
L 59.90625 58.6875 
L 27.984375 58.6875 
L 27.984375 45.125 
L 58.015625 45.125 
L 58.015625 30.90625 
L 27.984375 30.90625 
L 27.984375 14.203125 
L 60.984375 14.203125 
L 60.984375 0 
L 9.1875 0 
z
" id="DejaVuSans-Bold-69"/>
      <path d="M 22.21875 27.984375 
L 2.484375 54.6875 
L 21 54.6875 
L 32.171875 38.484375 
L 43.5 54.6875 
L 62.015625 54.6875 
L 42.28125 28.078125 
L 62.984375 0 
L 44.484375 0 
L 32.171875 17.28125 
L 20.015625 0 
L 1.515625 0 
z
" id="DejaVuSans-Bold-120"/>
      <path d="M 50 -14.3125 
L 50 -23.578125 
L 0 -23.578125 
L 0 -14.3125 
z
" id="DejaVuSans-Bold-95"/>
      <path d="M 9.1875 72.90625 
L 59.90625 72.90625 
L 59.90625 58.6875 
L 27.984375 58.6875 
L 27.984375 45.125 
L 58.015625 45.125 
L 58.015625 30.90625 
L 27.984375 30.90625 
L 27.984375 0 
L 9.1875 0 
z
" id="DejaVuSans-Bold-70"/>
      <path d="M 45.609375 9.28125 
Q 42 4.5 37.640625 2.25 
Q 33.296875 0 27.59375 0 
Q 17.578125 0 11.03125 7.875 
Q 4.5 15.765625 4.5 27.984375 
Q 4.5 40.234375 11.03125 48.0625 
Q 17.578125 55.90625 27.59375 55.90625 
Q 33.296875 55.90625 37.640625 53.65625 
Q 42 51.421875 45.609375 46.578125 
L 45.609375 54.6875 
L 63.1875 54.6875 
L 63.1875 5.515625 
Q 63.1875 -7.671875 54.859375 -14.625 
Q 46.53125 -21.578125 30.71875 -21.578125 
Q 25.59375 -21.578125 20.796875 -20.796875 
Q 16.015625 -20.015625 11.1875 -18.40625 
L 11.1875 -4.78125 
Q 15.765625 -7.421875 20.15625 -8.71875 
Q 24.5625 -10.015625 29 -10.015625 
Q 37.59375 -10.015625 41.59375 -6.25 
Q 45.609375 -2.484375 45.609375 5.515625 
z
M 34.078125 43.3125 
Q 28.65625 43.3125 25.625 39.296875 
Q 22.609375 35.296875 22.609375 27.984375 
Q 22.609375 20.453125 25.53125 16.578125 
Q 28.46875 12.703125 34.078125 12.703125 
Q 39.546875 12.703125 42.578125 16.703125 
Q 45.609375 20.703125 45.609375 27.984375 
Q 45.609375 35.296875 42.578125 39.296875 
Q 39.546875 43.3125 34.078125 43.3125 
z
" id="DejaVuSans-Bold-103"/>
      <path d="M 11.71875 12.984375 
L 28.328125 12.984375 
L 28.328125 60.109375 
L 11.28125 56.59375 
L 11.28125 69.390625 
L 28.21875 72.90625 
L 46.09375 72.90625 
L 46.09375 12.984375 
L 62.703125 12.984375 
L 62.703125 0 
L 11.71875 0 
z
" id="DejaVuSans-Bold-49"/>
     </defs>
     <use xlink:href="#DejaVuSans-Bold-82"/>
     <use x="77.001953" xlink:href="#DejaVuSans-Bold-101"/>
     <use x="144.824219" xlink:href="#DejaVuSans-Bold-112"/>
     <use x="216.40625" xlink:href="#DejaVuSans-Bold-114"/>
     <use x="265.722656" xlink:href="#DejaVuSans-Bold-101"/>
     <use x="333.544922" xlink:href="#DejaVuSans-Bold-115"/>
     <use x="393.066406" xlink:href="#DejaVuSans-Bold-115"/>
     <use x="452.587891" xlink:href="#DejaVuSans-Bold-105"/>
     <use x="486.865234" xlink:href="#DejaVuSans-Bold-108"/>
     <use x="521.142578" xlink:href="#DejaVuSans-Bold-97"/>
     <use x="588.623047" xlink:href="#DejaVuSans-Bold-116"/>
     <use x="636.425781" xlink:href="#DejaVuSans-Bold-111"/>
     <use x="705.126953" xlink:href="#DejaVuSans-Bold-114"/>
     <use x="754.443359" xlink:href="#DejaVuSans-Bold-69"/>
     <use x="822.753906" xlink:href="#DejaVuSans-Bold-120"/>
     <use x="887.255859" xlink:href="#DejaVuSans-Bold-112"/>
     <use x="958.837891" xlink:href="#DejaVuSans-Bold-101"/>
     <use x="1026.660156" xlink:href="#DejaVuSans-Bold-114"/>
     <use x="1075.976562" xlink:href="#DejaVuSans-Bold-105"/>
     <use x="1110.253906" xlink:href="#DejaVuSans-Bold-109"/>
     <use x="1214.453125" xlink:href="#DejaVuSans-Bold-101"/>
     <use x="1282.275391" xlink:href="#DejaVuSans-Bold-110"/>
     <use x="1353.466797" xlink:href="#DejaVuSans-Bold-116"/>
     <use x="1401.269531" xlink:href="#DejaVuSans-Bold-95"/>
     <use x="1451.269531" xlink:href="#DejaVuSans-Bold-70"/>
     <use x="1519.580078" xlink:href="#DejaVuSans-Bold-105"/>
     <use x="1553.857422" xlink:href="#DejaVuSans-Bold-103"/>
     <use x="1625.439453" xlink:href="#DejaVuSans-Bold-49"/>
    </g>
   </g>
   <g id="legend_1">
    <g id="patch_7">
     <path d="M 63.808125 115.123125 
L 141.49125 115.123125 
Q 144.09125 115.123125 144.09125 112.523125 
L 144.09125 37.496875 
Q 144.09125 34.896875 141.49125 34.896875 
L 63.808125 34.896875 
Q 61.208125 34.896875 61.208125 37.496875 
L 61.208125 112.523125 
Q 61.208125 115.123125 63.808125 115.123125 
z
" style="fill:#ffffff;opacity:0.8;stroke:#cccccc;stroke-linejoin:miter;"/>
    </g>
    <g id="line2d_20">
     <path d="M 66.408125 45.424844 
L 92.408125 45.424844 
" style="fill:none;stroke:#000000;stroke-linecap:square;stroke-width:2;"/>
    </g>
    <g id="line2d_21"/>
    <g id="text_19">
     <!-- X sim -->
     <g transform="translate(102.808125 49.974844)scale(0.13 -0.13)">
      <defs>
       <path d="M 6.296875 72.90625 
L 16.890625 72.90625 
L 35.015625 45.796875 
L 53.21875 72.90625 
L 63.8125 72.90625 
L 40.375 37.890625 
L 65.375 0 
L 54.78125 0 
L 34.28125 31 
L 13.625 0 
L 2.984375 0 
L 29 38.921875 
z
" id="DejaVuSans-88"/>
       <path id="DejaVuSans-32"/>
       <path d="M 44.28125 53.078125 
L 44.28125 44.578125 
Q 40.484375 46.53125 36.375 47.5 
Q 32.28125 48.484375 27.875 48.484375 
Q 21.1875 48.484375 17.84375 46.4375 
Q 14.5 44.390625 14.5 40.28125 
Q 14.5 37.15625 16.890625 35.375 
Q 19.28125 33.59375 26.515625 31.984375 
L 29.59375 31.296875 
Q 39.15625 29.25 43.1875 25.515625 
Q 47.21875 21.78125 47.21875 15.09375 
Q 47.21875 7.46875 41.1875 3.015625 
Q 35.15625 -1.421875 24.609375 -1.421875 
Q 20.21875 -1.421875 15.453125 -0.5625 
Q 10.6875 0.296875 5.421875 2 
L 5.421875 11.28125 
Q 10.40625 8.6875 15.234375 7.390625 
Q 20.0625 6.109375 24.8125 6.109375 
Q 31.15625 6.109375 34.5625 8.28125 
Q 37.984375 10.453125 37.984375 14.40625 
Q 37.984375 18.0625 35.515625 20.015625 
Q 33.0625 21.96875 24.703125 23.78125 
L 21.578125 24.515625 
Q 13.234375 26.265625 9.515625 29.90625 
Q 5.8125 33.546875 5.8125 39.890625 
Q 5.8125 47.609375 11.28125 51.796875 
Q 16.75 56 26.8125 56 
Q 31.78125 56 36.171875 55.265625 
Q 40.578125 54.546875 44.28125 53.078125 
z
" id="DejaVuSans-115"/>
       <path d="M 9.421875 54.6875 
L 18.40625 54.6875 
L 18.40625 0 
L 9.421875 0 
z
M 9.421875 75.984375 
L 18.40625 75.984375 
L 18.40625 64.59375 
L 9.421875 64.59375 
z
" id="DejaVuSans-105"/>
       <path d="M 52 44.1875 
Q 55.375 50.25 60.0625 53.125 
Q 64.75 56 71.09375 56 
Q 79.640625 56 84.28125 50.015625 
Q 88.921875 44.046875 88.921875 33.015625 
L 88.921875 0 
L 79.890625 0 
L 79.890625 32.71875 
Q 79.890625 40.578125 77.09375 44.375 
Q 74.3125 48.1875 68.609375 48.1875 
Q 61.625 48.1875 57.5625 43.546875 
Q 53.515625 38.921875 53.515625 30.90625 
L 53.515625 0 
L 44.484375 0 
L 44.484375 32.71875 
Q 44.484375 40.625 41.703125 44.40625 
Q 38.921875 48.1875 33.109375 48.1875 
Q 26.21875 48.1875 22.15625 43.53125 
Q 18.109375 38.875 18.109375 30.90625 
L 18.109375 0 
L 9.078125 0 
L 9.078125 54.6875 
L 18.109375 54.6875 
L 18.109375 46.1875 
Q 21.1875 51.21875 25.484375 53.609375 
Q 29.78125 56 35.6875 56 
Q 41.65625 56 45.828125 52.96875 
Q 50 49.953125 52 44.1875 
z
" id="DejaVuSans-109"/>
      </defs>
      <use xlink:href="#DejaVuSans-88"/>
      <use x="68.505859" xlink:href="#DejaVuSans-32"/>
      <use x="100.292969" xlink:href="#DejaVuSans-115"/>
      <use x="152.392578" xlink:href="#DejaVuSans-105"/>
      <use x="180.175781" xlink:href="#DejaVuSans-109"/>
     </g>
    </g>
    <g id="line2d_22">
     <path d="M 66.408125 64.506406 
L 92.408125 64.506406 
" style="fill:none;stroke:#0000ff;stroke-linecap:square;stroke-width:2;"/>
    </g>
    <g id="line2d_23"/>
    <g id="text_20">
     <!-- Y sim -->
     <g transform="translate(102.808125 69.056406)scale(0.13 -0.13)">
      <defs>
       <path d="M -0.203125 72.90625 
L 10.40625 72.90625 
L 30.609375 42.921875 
L 50.6875 72.90625 
L 61.28125 72.90625 
L 35.5 34.71875 
L 35.5 0 
L 25.59375 0 
L 25.59375 34.71875 
z
" id="DejaVuSans-89"/>
      </defs>
      <use xlink:href="#DejaVuSans-89"/>
      <use x="61.083984" xlink:href="#DejaVuSans-32"/>
      <use x="92.871094" xlink:href="#DejaVuSans-115"/>
      <use x="144.970703" xlink:href="#DejaVuSans-105"/>
      <use x="172.753906" xlink:href="#DejaVuSans-109"/>
     </g>
    </g>
    <g id="line2d_24">
     <path d="M 66.408125 83.587969 
L 92.408125 83.587969 
" style="fill:none;stroke:#000000;stroke-linecap:square;stroke-width:2;"/>
    </g>
    <g id="line2d_25"/>
    <g id="text_21">
     <!-- X sim -->
     <g transform="translate(102.808125 88.137969)scale(0.13 -0.13)">
      <use xlink:href="#DejaVuSans-88"/>
      <use x="68.505859" xlink:href="#DejaVuSans-32"/>
      <use x="100.292969" xlink:href="#DejaVuSans-115"/>
      <use x="152.392578" xlink:href="#DejaVuSans-105"/>
      <use x="180.175781" xlink:href="#DejaVuSans-109"/>
     </g>
    </g>
    <g id="line2d_26">
     <path d="M 66.408125 102.669531 
L 92.408125 102.669531 
" style="fill:none;stroke:#0000ff;stroke-linecap:square;stroke-width:2;"/>
    </g>
    <g id="line2d_27"/>
    <g id="text_22">
     <!-- Y sim -->
     <g transform="translate(102.808125 107.219531)scale(0.13 -0.13)">
      <use xlink:href="#DejaVuSans-89"/>
      <use x="61.083984" xlink:href="#DejaVuSans-32"/>
      <use x="92.871094" xlink:href="#DejaVuSans-115"/>
      <use x="144.970703" xlink:href="#DejaVuSans-105"/>
      <use x="172.753906" xlink:href="#DejaVuSans-109"/>
     </g>
    </g>
   </g>
  </g>
 </g>
 <defs>
  <clipPath id="pef8b971e60">
   <rect height="273.4" width="422.4" x="54.708125" y="28.396875"/>
  </clipPath>
 </defs>
</svg>
