<?xml version="1.0" encoding="utf-8" standalone="no"?>
<!DOCTYPE svg PUBLIC "-//W3C//DTD SVG 1.1//EN"
  "http://www.w3.org/Graphics/SVG/1.1/DTD/svg11.dtd">
<!-- Created with matplotlib (https://matplotlib.org/) -->
<svg height="632.934687pt" version="1.1" viewBox="0 0 833.771875 632.934687" width="833.771875pt" xmlns="http://www.w3.org/2000/svg" xmlns:xlink="http://www.w3.org/1999/xlink">
 <metadata>
  <rdf:RDF xmlns:cc="http://creativecommons.org/ns#" xmlns:dc="http://purl.org/dc/elements/1.1/" xmlns:rdf="http://www.w3.org/1999/02/22-rdf-syntax-ns#">
   <cc:Work>
    <dc:type rdf:resource="http://purl.org/dc/dcmitype/StillImage"/>
    <dc:date>2021-06-14T17:22:39.133420</dc:date>
    <dc:format>image/svg+xml</dc:format>
    <dc:creator>
     <cc:Agent>
      <dc:title>Matplotlib v3.3.4, https://matplotlib.org/</dc:title>
     </cc:Agent>
    </dc:creator>
   </cc:Work>
  </rdf:RDF>
 </metadata>
 <defs>
  <style type="text/css">*{stroke-linecap:butt;stroke-linejoin:round;}</style>
 </defs>
 <g id="figure_1">
  <g id="patch_1">
   <path d="M 0 632.934687 
L 833.771875 632.934687 
L 833.771875 0 
L 0 0 
z
" style="fill:#ffffff;"/>
  </g>
  <g id="axes_1">
   <g id="patch_2">
    <path d="M 40.6 269.440353 
L 380.252174 269.440353 
L 380.252174 28.396875 
L 40.6 28.396875 
z
" style="fill:#ffffff;"/>
   </g>
   <g id="matplotlib.axis_1">
    <g id="xtick_1">
     <g id="line2d_1">
      <defs>
       <path d="M 0 0 
L 0 3.5 
" id="m10c8a73a7b" style="stroke:#000000;stroke-width:0.8;"/>
      </defs>
      <g>
       <use style="stroke:#000000;stroke-width:0.8;" x="56.038735" xlink:href="#m10c8a73a7b" y="269.440353"/>
      </g>
     </g>
     <g id="text_1">
      <!-- 0 -->
      <g transform="translate(51.26686 287.83801)scale(0.15 -0.15)">
       <defs>
        <path d="M 31.78125 66.40625 
Q 24.171875 66.40625 20.328125 58.90625 
Q 16.5 51.421875 16.5 36.375 
Q 16.5 21.390625 20.328125 13.890625 
Q 24.171875 6.390625 31.78125 6.390625 
Q 39.453125 6.390625 43.28125 13.890625 
Q 47.125 21.390625 47.125 36.375 
Q 47.125 51.421875 43.28125 58.90625 
Q 39.453125 66.40625 31.78125 66.40625 
z
M 31.78125 74.21875 
Q 44.046875 74.21875 50.515625 64.515625 
Q 56.984375 54.828125 56.984375 36.375 
Q 56.984375 17.96875 50.515625 8.265625 
Q 44.046875 -1.421875 31.78125 -1.421875 
Q 19.53125 -1.421875 13.0625 8.265625 
Q 6.59375 17.96875 6.59375 36.375 
Q 6.59375 54.828125 13.0625 64.515625 
Q 19.53125 74.21875 31.78125 74.21875 
z
" id="DejaVuSans-48"/>
       </defs>
       <use xlink:href="#DejaVuSans-48"/>
      </g>
     </g>
    </g>
    <g id="xtick_2">
     <g id="line2d_2">
      <g>
       <use style="stroke:#000000;stroke-width:0.8;" x="117.793676" xlink:href="#m10c8a73a7b" y="269.440353"/>
      </g>
     </g>
     <g id="text_2">
      <!-- 2 -->
      <g transform="translate(113.021801 287.83801)scale(0.15 -0.15)">
       <defs>
        <path d="M 19.1875 8.296875 
L 53.609375 8.296875 
L 53.609375 0 
L 7.328125 0 
L 7.328125 8.296875 
Q 12.9375 14.109375 22.625 23.890625 
Q 32.328125 33.6875 34.8125 36.53125 
Q 39.546875 41.84375 41.421875 45.53125 
Q 43.3125 49.21875 43.3125 52.78125 
Q 43.3125 58.59375 39.234375 62.25 
Q 35.15625 65.921875 28.609375 65.921875 
Q 23.96875 65.921875 18.8125 64.3125 
Q 13.671875 62.703125 7.8125 59.421875 
L 7.8125 69.390625 
Q 13.765625 71.78125 18.9375 73 
Q 24.125 74.21875 28.421875 74.21875 
Q 39.75 74.21875 46.484375 68.546875 
Q 53.21875 62.890625 53.21875 53.421875 
Q 53.21875 48.921875 51.53125 44.890625 
Q 49.859375 40.875 45.40625 35.40625 
Q 44.1875 33.984375 37.640625 27.21875 
Q 31.109375 20.453125 19.1875 8.296875 
z
" id="DejaVuSans-50"/>
       </defs>
       <use xlink:href="#DejaVuSans-50"/>
      </g>
     </g>
    </g>
    <g id="xtick_3">
     <g id="line2d_3">
      <g>
       <use style="stroke:#000000;stroke-width:0.8;" x="179.548617" xlink:href="#m10c8a73a7b" y="269.440353"/>
      </g>
     </g>
     <g id="text_3">
      <!-- 4 -->
      <g transform="translate(174.776742 287.83801)scale(0.15 -0.15)">
       <defs>
        <path d="M 37.796875 64.3125 
L 12.890625 25.390625 
L 37.796875 25.390625 
z
M 35.203125 72.90625 
L 47.609375 72.90625 
L 47.609375 25.390625 
L 58.015625 25.390625 
L 58.015625 17.1875 
L 47.609375 17.1875 
L 47.609375 0 
L 37.796875 0 
L 37.796875 17.1875 
L 4.890625 17.1875 
L 4.890625 26.703125 
z
" id="DejaVuSans-52"/>
       </defs>
       <use xlink:href="#DejaVuSans-52"/>
      </g>
     </g>
    </g>
    <g id="xtick_4">
     <g id="line2d_4">
      <g>
       <use style="stroke:#000000;stroke-width:0.8;" x="241.303557" xlink:href="#m10c8a73a7b" y="269.440353"/>
      </g>
     </g>
     <g id="text_4">
      <!-- 6 -->
      <g transform="translate(236.531682 287.83801)scale(0.15 -0.15)">
       <defs>
        <path d="M 33.015625 40.375 
Q 26.375 40.375 22.484375 35.828125 
Q 18.609375 31.296875 18.609375 23.390625 
Q 18.609375 15.53125 22.484375 10.953125 
Q 26.375 6.390625 33.015625 6.390625 
Q 39.65625 6.390625 43.53125 10.953125 
Q 47.40625 15.53125 47.40625 23.390625 
Q 47.40625 31.296875 43.53125 35.828125 
Q 39.65625 40.375 33.015625 40.375 
z
M 52.59375 71.296875 
L 52.59375 62.3125 
Q 48.875 64.0625 45.09375 64.984375 
Q 41.3125 65.921875 37.59375 65.921875 
Q 27.828125 65.921875 22.671875 59.328125 
Q 17.53125 52.734375 16.796875 39.40625 
Q 19.671875 43.65625 24.015625 45.921875 
Q 28.375 48.1875 33.59375 48.1875 
Q 44.578125 48.1875 50.953125 41.515625 
Q 57.328125 34.859375 57.328125 23.390625 
Q 57.328125 12.15625 50.6875 5.359375 
Q 44.046875 -1.421875 33.015625 -1.421875 
Q 20.359375 -1.421875 13.671875 8.265625 
Q 6.984375 17.96875 6.984375 36.375 
Q 6.984375 53.65625 15.1875 63.9375 
Q 23.390625 74.21875 37.203125 74.21875 
Q 40.921875 74.21875 44.703125 73.484375 
Q 48.484375 72.75 52.59375 71.296875 
z
" id="DejaVuSans-54"/>
       </defs>
       <use xlink:href="#DejaVuSans-54"/>
      </g>
     </g>
    </g>
    <g id="xtick_5">
     <g id="line2d_5">
      <g>
       <use style="stroke:#000000;stroke-width:0.8;" x="303.058498" xlink:href="#m10c8a73a7b" y="269.440353"/>
      </g>
     </g>
     <g id="text_5">
      <!-- 8 -->
      <g transform="translate(298.286623 287.83801)scale(0.15 -0.15)">
       <defs>
        <path d="M 31.78125 34.625 
Q 24.75 34.625 20.71875 30.859375 
Q 16.703125 27.09375 16.703125 20.515625 
Q 16.703125 13.921875 20.71875 10.15625 
Q 24.75 6.390625 31.78125 6.390625 
Q 38.8125 6.390625 42.859375 10.171875 
Q 46.921875 13.96875 46.921875 20.515625 
Q 46.921875 27.09375 42.890625 30.859375 
Q 38.875 34.625 31.78125 34.625 
z
M 21.921875 38.8125 
Q 15.578125 40.375 12.03125 44.71875 
Q 8.5 49.078125 8.5 55.328125 
Q 8.5 64.0625 14.71875 69.140625 
Q 20.953125 74.21875 31.78125 74.21875 
Q 42.671875 74.21875 48.875 69.140625 
Q 55.078125 64.0625 55.078125 55.328125 
Q 55.078125 49.078125 51.53125 44.71875 
Q 48 40.375 41.703125 38.8125 
Q 48.828125 37.15625 52.796875 32.3125 
Q 56.78125 27.484375 56.78125 20.515625 
Q 56.78125 9.90625 50.3125 4.234375 
Q 43.84375 -1.421875 31.78125 -1.421875 
Q 19.734375 -1.421875 13.25 4.234375 
Q 6.78125 9.90625 6.78125 20.515625 
Q 6.78125 27.484375 10.78125 32.3125 
Q 14.796875 37.15625 21.921875 38.8125 
z
M 18.3125 54.390625 
Q 18.3125 48.734375 21.84375 45.5625 
Q 25.390625 42.390625 31.78125 42.390625 
Q 38.140625 42.390625 41.71875 45.5625 
Q 45.3125 48.734375 45.3125 54.390625 
Q 45.3125 60.0625 41.71875 63.234375 
Q 38.140625 66.40625 31.78125 66.40625 
Q 25.390625 66.40625 21.84375 63.234375 
Q 18.3125 60.0625 18.3125 54.390625 
z
" id="DejaVuSans-56"/>
       </defs>
       <use xlink:href="#DejaVuSans-56"/>
      </g>
     </g>
    </g>
    <g id="xtick_6">
     <g id="line2d_6">
      <g>
       <use style="stroke:#000000;stroke-width:0.8;" x="364.813439" xlink:href="#m10c8a73a7b" y="269.440353"/>
      </g>
     </g>
     <g id="text_6">
      <!-- 10 -->
      <g transform="translate(355.269689 287.83801)scale(0.15 -0.15)">
       <defs>
        <path d="M 12.40625 8.296875 
L 28.515625 8.296875 
L 28.515625 63.921875 
L 10.984375 60.40625 
L 10.984375 69.390625 
L 28.421875 72.90625 
L 38.28125 72.90625 
L 38.28125 8.296875 
L 54.390625 8.296875 
L 54.390625 0 
L 12.40625 0 
z
" id="DejaVuSans-49"/>
       </defs>
       <use xlink:href="#DejaVuSans-49"/>
       <use x="63.623047" xlink:href="#DejaVuSans-48"/>
      </g>
     </g>
    </g>
   </g>
   <g id="matplotlib.axis_2">
    <g id="ytick_1">
     <g id="line2d_7">
      <defs>
       <path d="M 0 0 
L -3.5 0 
" id="md1d0c1375a" style="stroke:#000000;stroke-width:0.8;"/>
      </defs>
      <g>
       <use style="stroke:#000000;stroke-width:0.8;" x="40.6" xlink:href="#md1d0c1375a" y="223.842938"/>
      </g>
     </g>
     <g id="text_7">
      <!-- 2 -->
      <g transform="translate(24.05625 229.541766)scale(0.15 -0.15)">
       <use xlink:href="#DejaVuSans-50"/>
      </g>
     </g>
    </g>
    <g id="ytick_2">
     <g id="line2d_8">
      <g>
       <use style="stroke:#000000;stroke-width:0.8;" x="40.6" xlink:href="#md1d0c1375a" y="177.720553"/>
      </g>
     </g>
     <g id="text_8">
      <!-- 4 -->
      <g transform="translate(24.05625 183.419381)scale(0.15 -0.15)">
       <use xlink:href="#DejaVuSans-52"/>
      </g>
     </g>
    </g>
    <g id="ytick_3">
     <g id="line2d_9">
      <g>
       <use style="stroke:#000000;stroke-width:0.8;" x="40.6" xlink:href="#md1d0c1375a" y="131.598167"/>
      </g>
     </g>
     <g id="text_9">
      <!-- 6 -->
      <g transform="translate(24.05625 137.296996)scale(0.15 -0.15)">
       <use xlink:href="#DejaVuSans-54"/>
      </g>
     </g>
    </g>
    <g id="ytick_4">
     <g id="line2d_10">
      <g>
       <use style="stroke:#000000;stroke-width:0.8;" x="40.6" xlink:href="#md1d0c1375a" y="85.475782"/>
      </g>
     </g>
     <g id="text_10">
      <!-- 8 -->
      <g transform="translate(24.05625 91.17461)scale(0.15 -0.15)">
       <use xlink:href="#DejaVuSans-56"/>
      </g>
     </g>
    </g>
    <g id="ytick_5">
     <g id="line2d_11">
      <g>
       <use style="stroke:#000000;stroke-width:0.8;" x="40.6" xlink:href="#md1d0c1375a" y="39.353397"/>
      </g>
     </g>
     <g id="text_11">
      <!-- 10 -->
      <g transform="translate(14.5125 45.052225)scale(0.15 -0.15)">
       <use xlink:href="#DejaVuSans-49"/>
       <use x="63.623047" xlink:href="#DejaVuSans-48"/>
      </g>
     </g>
    </g>
   </g>
   <g id="line2d_12">
    <path clip-path="url(#p043b2e6986)" d="M 56.038735 39.353397 
L 66.686139 62.017323 
L 77.333542 82.453899 
L 87.980946 100.882022 
L 98.628349 117.499079 
L 109.275753 132.483055 
L 119.923157 145.994447 
L 130.57056 158.177974 
L 141.217964 169.164137 
L 151.865367 179.07061 
L 162.512771 188.0035 
L 173.160174 196.05849 
L 183.807578 203.321857 
L 194.454982 209.871399 
L 205.102385 215.77727 
L 215.749789 221.102728 
L 226.397192 225.904813 
L 237.044596 230.234963 
L 247.691999 234.139557 
L 258.339403 237.660418 
L 268.986807 240.835258 
L 279.63421 243.698083 
L 290.281614 246.279558 
L 300.929017 248.607332 
L 311.576421 250.706338 
L 322.223824 252.59906 
L 332.871228 254.30577 
L 343.518632 255.844749 
L 354.166035 257.232482 
L 364.813439 258.483832 
" style="fill:none;stroke:#000000;stroke-linecap:square;stroke-width:2;"/>
    <defs>
     <path d="M -3 3 
L 3 3 
L 3 -3 
L -3 -3 
z
" id="m95bcd7a8d8" style="stroke:#000000;stroke-linejoin:miter;"/>
    </defs>
    <g clip-path="url(#p043b2e6986)">
     <use style="stroke:#000000;stroke-linejoin:miter;" x="56.038735" xlink:href="#m95bcd7a8d8" y="39.353397"/>
     <use style="stroke:#000000;stroke-linejoin:miter;" x="66.686139" xlink:href="#m95bcd7a8d8" y="62.017323"/>
     <use style="stroke:#000000;stroke-linejoin:miter;" x="77.333542" xlink:href="#m95bcd7a8d8" y="82.453899"/>
     <use style="stroke:#000000;stroke-linejoin:miter;" x="87.980946" xlink:href="#m95bcd7a8d8" y="100.882022"/>
     <use style="stroke:#000000;stroke-linejoin:miter;" x="98.628349" xlink:href="#m95bcd7a8d8" y="117.499079"/>
     <use style="stroke:#000000;stroke-linejoin:miter;" x="109.275753" xlink:href="#m95bcd7a8d8" y="132.483055"/>
     <use style="stroke:#000000;stroke-linejoin:miter;" x="119.923157" xlink:href="#m95bcd7a8d8" y="145.994447"/>
     <use style="stroke:#000000;stroke-linejoin:miter;" x="130.57056" xlink:href="#m95bcd7a8d8" y="158.177974"/>
     <use style="stroke:#000000;stroke-linejoin:miter;" x="141.217964" xlink:href="#m95bcd7a8d8" y="169.164137"/>
     <use style="stroke:#000000;stroke-linejoin:miter;" x="151.865367" xlink:href="#m95bcd7a8d8" y="179.07061"/>
     <use style="stroke:#000000;stroke-linejoin:miter;" x="162.512771" xlink:href="#m95bcd7a8d8" y="188.0035"/>
     <use style="stroke:#000000;stroke-linejoin:miter;" x="173.160174" xlink:href="#m95bcd7a8d8" y="196.05849"/>
     <use style="stroke:#000000;stroke-linejoin:miter;" x="183.807578" xlink:href="#m95bcd7a8d8" y="203.321857"/>
     <use style="stroke:#000000;stroke-linejoin:miter;" x="194.454982" xlink:href="#m95bcd7a8d8" y="209.871399"/>
     <use style="stroke:#000000;stroke-linejoin:miter;" x="205.102385" xlink:href="#m95bcd7a8d8" y="215.77727"/>
     <use style="stroke:#000000;stroke-linejoin:miter;" x="215.749789" xlink:href="#m95bcd7a8d8" y="221.102728"/>
     <use style="stroke:#000000;stroke-linejoin:miter;" x="226.397192" xlink:href="#m95bcd7a8d8" y="225.904813"/>
     <use style="stroke:#000000;stroke-linejoin:miter;" x="237.044596" xlink:href="#m95bcd7a8d8" y="230.234963"/>
     <use style="stroke:#000000;stroke-linejoin:miter;" x="247.691999" xlink:href="#m95bcd7a8d8" y="234.139557"/>
     <use style="stroke:#000000;stroke-linejoin:miter;" x="258.339403" xlink:href="#m95bcd7a8d8" y="237.660418"/>
     <use style="stroke:#000000;stroke-linejoin:miter;" x="268.986807" xlink:href="#m95bcd7a8d8" y="240.835258"/>
     <use style="stroke:#000000;stroke-linejoin:miter;" x="279.63421" xlink:href="#m95bcd7a8d8" y="243.698083"/>
     <use style="stroke:#000000;stroke-linejoin:miter;" x="290.281614" xlink:href="#m95bcd7a8d8" y="246.279558"/>
     <use style="stroke:#000000;stroke-linejoin:miter;" x="300.929017" xlink:href="#m95bcd7a8d8" y="248.607332"/>
     <use style="stroke:#000000;stroke-linejoin:miter;" x="311.576421" xlink:href="#m95bcd7a8d8" y="250.706338"/>
     <use style="stroke:#000000;stroke-linejoin:miter;" x="322.223824" xlink:href="#m95bcd7a8d8" y="252.59906"/>
     <use style="stroke:#000000;stroke-linejoin:miter;" x="332.871228" xlink:href="#m95bcd7a8d8" y="254.30577"/>
     <use style="stroke:#000000;stroke-linejoin:miter;" x="343.518632" xlink:href="#m95bcd7a8d8" y="255.844749"/>
     <use style="stroke:#000000;stroke-linejoin:miter;" x="354.166035" xlink:href="#m95bcd7a8d8" y="257.232482"/>
     <use style="stroke:#000000;stroke-linejoin:miter;" x="364.813439" xlink:href="#m95bcd7a8d8" y="258.483832"/>
    </g>
   </g>
   <g id="patch_3">
    <path d="M 40.6 269.440353 
L 40.6 28.396875 
" style="fill:none;stroke:#000000;stroke-linecap:square;stroke-linejoin:miter;stroke-width:0.8;"/>
   </g>
   <g id="patch_4">
    <path d="M 380.252174 269.440353 
L 380.252174 28.396875 
" style="fill:none;stroke:#000000;stroke-linecap:square;stroke-linejoin:miter;stroke-width:0.8;"/>
   </g>
   <g id="patch_5">
    <path d="M 40.6 269.440353 
L 380.252174 269.440353 
" style="fill:none;stroke:#000000;stroke-linecap:square;stroke-linejoin:miter;stroke-width:0.8;"/>
   </g>
   <g id="patch_6">
    <path d="M 40.6 28.396875 
L 380.252174 28.396875 
" style="fill:none;stroke:#000000;stroke-linecap:square;stroke-linejoin:miter;stroke-width:0.8;"/>
   </g>
   <g id="text_12">
    <!-- No axes -->
    <g transform="translate(165.772962 22.396875)scale(0.2 -0.2)">
     <defs>
      <path d="M 9.1875 72.90625 
L 30.171875 72.90625 
L 56.6875 22.90625 
L 56.6875 72.90625 
L 74.515625 72.90625 
L 74.515625 0 
L 53.515625 0 
L 27 50 
L 27 0 
L 9.1875 0 
z
" id="DejaVuSans-Bold-78"/>
      <path d="M 34.421875 43.5 
Q 28.609375 43.5 25.5625 39.328125 
Q 22.515625 35.15625 22.515625 27.296875 
Q 22.515625 19.4375 25.5625 15.25 
Q 28.609375 11.078125 34.421875 11.078125 
Q 40.140625 11.078125 43.15625 15.25 
Q 46.1875 19.4375 46.1875 27.296875 
Q 46.1875 35.15625 43.15625 39.328125 
Q 40.140625 43.5 34.421875 43.5 
z
M 34.421875 56 
Q 48.53125 56 56.46875 48.375 
Q 64.40625 40.765625 64.40625 27.296875 
Q 64.40625 13.8125 56.46875 6.1875 
Q 48.53125 -1.421875 34.421875 -1.421875 
Q 20.265625 -1.421875 12.28125 6.1875 
Q 4.296875 13.8125 4.296875 27.296875 
Q 4.296875 40.765625 12.28125 48.375 
Q 20.265625 56 34.421875 56 
z
" id="DejaVuSans-Bold-111"/>
      <path id="DejaVuSans-Bold-32"/>
      <path d="M 32.90625 24.609375 
Q 27.4375 24.609375 24.671875 22.75 
Q 21.921875 20.90625 21.921875 17.28125 
Q 21.921875 13.96875 24.140625 12.078125 
Q 26.375 10.203125 30.328125 10.203125 
Q 35.25 10.203125 38.625 13.734375 
Q 42 17.28125 42 22.609375 
L 42 24.609375 
z
M 59.625 31.203125 
L 59.625 0 
L 42 0 
L 42 8.109375 
Q 38.484375 3.125 34.078125 0.84375 
Q 29.6875 -1.421875 23.390625 -1.421875 
Q 14.890625 -1.421875 9.59375 3.53125 
Q 4.296875 8.5 4.296875 16.40625 
Q 4.296875 26.03125 10.90625 30.515625 
Q 17.53125 35.015625 31.6875 35.015625 
L 42 35.015625 
L 42 36.375 
Q 42 40.53125 38.71875 42.453125 
Q 35.453125 44.390625 28.515625 44.390625 
Q 22.90625 44.390625 18.0625 43.265625 
Q 13.234375 42.140625 9.078125 39.890625 
L 9.078125 53.21875 
Q 14.703125 54.59375 20.359375 55.296875 
Q 26.03125 56 31.6875 56 
Q 46.484375 56 53.046875 50.171875 
Q 59.625 44.34375 59.625 31.203125 
z
" id="DejaVuSans-Bold-97"/>
      <path d="M 22.21875 27.984375 
L 2.484375 54.6875 
L 21 54.6875 
L 32.171875 38.484375 
L 43.5 54.6875 
L 62.015625 54.6875 
L 42.28125 28.078125 
L 62.984375 0 
L 44.484375 0 
L 32.171875 17.28125 
L 20.015625 0 
L 1.515625 0 
z
" id="DejaVuSans-Bold-120"/>
      <path d="M 62.984375 27.484375 
L 62.984375 22.515625 
L 22.125 22.515625 
Q 22.75 16.359375 26.5625 13.28125 
Q 30.375 10.203125 37.203125 10.203125 
Q 42.71875 10.203125 48.5 11.84375 
Q 54.296875 13.484375 60.40625 16.796875 
L 60.40625 3.328125 
Q 54.203125 0.984375 48 -0.21875 
Q 41.796875 -1.421875 35.59375 -1.421875 
Q 20.75 -1.421875 12.515625 6.125 
Q 4.296875 13.671875 4.296875 27.296875 
Q 4.296875 40.671875 12.375 48.328125 
Q 20.453125 56 34.625 56 
Q 47.515625 56 55.25 48.234375 
Q 62.984375 40.484375 62.984375 27.484375 
z
M 45.015625 33.296875 
Q 45.015625 38.28125 42.109375 41.328125 
Q 39.203125 44.390625 34.515625 44.390625 
Q 29.4375 44.390625 26.265625 41.53125 
Q 23.09375 38.671875 22.3125 33.296875 
z
" id="DejaVuSans-Bold-101"/>
      <path d="M 51.125 52.984375 
L 51.125 39.703125 
Q 45.515625 42.046875 40.28125 43.21875 
Q 35.0625 44.390625 30.421875 44.390625 
Q 25.4375 44.390625 23.015625 43.140625 
Q 20.609375 41.890625 20.609375 39.3125 
Q 20.609375 37.203125 22.4375 36.078125 
Q 24.265625 34.96875 29 34.421875 
L 32.078125 33.984375 
Q 45.515625 32.28125 50.140625 28.375 
Q 54.78125 24.46875 54.78125 16.109375 
Q 54.78125 7.375 48.328125 2.96875 
Q 41.890625 -1.421875 29.109375 -1.421875 
Q 23.6875 -1.421875 17.890625 -0.5625 
Q 12.109375 0.296875 6 2 
L 6 15.28125 
Q 11.234375 12.75 16.71875 11.46875 
Q 22.21875 10.203125 27.875 10.203125 
Q 33.015625 10.203125 35.59375 11.609375 
Q 38.1875 13.03125 38.1875 15.828125 
Q 38.1875 18.171875 36.40625 19.3125 
Q 34.625 20.453125 29.296875 21.09375 
L 26.21875 21.484375 
Q 14.546875 22.953125 9.859375 26.90625 
Q 5.171875 30.859375 5.171875 38.921875 
Q 5.171875 47.609375 11.125 51.796875 
Q 17.09375 56 29.390625 56 
Q 34.234375 56 39.546875 55.265625 
Q 44.875 54.546875 51.125 52.984375 
z
" id="DejaVuSans-Bold-115"/>
     </defs>
     <use xlink:href="#DejaVuSans-Bold-78"/>
     <use x="83.691406" xlink:href="#DejaVuSans-Bold-111"/>
     <use x="152.392578" xlink:href="#DejaVuSans-Bold-32"/>
     <use x="187.207031" xlink:href="#DejaVuSans-Bold-97"/>
     <use x="254.6875" xlink:href="#DejaVuSans-Bold-120"/>
     <use x="319.189453" xlink:href="#DejaVuSans-Bold-101"/>
     <use x="387.011719" xlink:href="#DejaVuSans-Bold-115"/>
    </g>
   </g>
   <g id="legend_1">
    <g id="patch_7">
     <path d="M 313.027955 57.878437 
L 371.152174 57.878437 
Q 373.752174 57.878437 373.752174 55.278437 
L 373.752174 37.496875 
Q 373.752174 34.896875 371.152174 34.896875 
L 313.027955 34.896875 
Q 310.427955 34.896875 310.427955 37.496875 
L 310.427955 55.278437 
Q 310.427955 57.878437 313.027955 57.878437 
z
" style="fill:#ffffff;opacity:0.8;stroke:#cccccc;stroke-linejoin:miter;"/>
    </g>
    <g id="line2d_13">
     <path d="M 315.627955 45.424844 
L 341.627955 45.424844 
" style="fill:none;stroke:#000000;stroke-linecap:square;stroke-width:2;"/>
    </g>
    <g id="line2d_14">
     <g>
      <use style="stroke:#000000;stroke-linejoin:miter;" x="328.627955" xlink:href="#m95bcd7a8d8" y="45.424844"/>
     </g>
    </g>
    <g id="text_13">
     <!-- S1 -->
     <g transform="translate(352.027955 49.974844)scale(0.13 -0.13)">
      <defs>
       <path d="M 53.515625 70.515625 
L 53.515625 60.890625 
Q 47.90625 63.578125 42.921875 64.890625 
Q 37.9375 66.21875 33.296875 66.21875 
Q 25.25 66.21875 20.875 63.09375 
Q 16.5 59.96875 16.5 54.203125 
Q 16.5 49.359375 19.40625 46.890625 
Q 22.3125 44.4375 30.421875 42.921875 
L 36.375 41.703125 
Q 47.40625 39.59375 52.65625 34.296875 
Q 57.90625 29 57.90625 20.125 
Q 57.90625 9.515625 50.796875 4.046875 
Q 43.703125 -1.421875 29.984375 -1.421875 
Q 24.8125 -1.421875 18.96875 -0.25 
Q 13.140625 0.921875 6.890625 3.21875 
L 6.890625 13.375 
Q 12.890625 10.015625 18.65625 8.296875 
Q 24.421875 6.59375 29.984375 6.59375 
Q 38.421875 6.59375 43.015625 9.90625 
Q 47.609375 13.234375 47.609375 19.390625 
Q 47.609375 24.75 44.3125 27.78125 
Q 41.015625 30.8125 33.5 32.328125 
L 27.484375 33.5 
Q 16.453125 35.6875 11.515625 40.375 
Q 6.59375 45.0625 6.59375 53.421875 
Q 6.59375 63.09375 13.40625 68.65625 
Q 20.21875 74.21875 32.171875 74.21875 
Q 37.3125 74.21875 42.625 73.28125 
Q 47.953125 72.359375 53.515625 70.515625 
z
" id="DejaVuSans-83"/>
      </defs>
      <use xlink:href="#DejaVuSans-83"/>
      <use x="63.476562" xlink:href="#DejaVuSans-49"/>
     </g>
    </g>
   </g>
  </g>
  <g id="axes_2">
   <g id="patch_8">
    <path d="M 482.147826 269.440353 
L 821.8 269.440353 
L 821.8 28.396875 
L 482.147826 28.396875 
z
" style="fill:#ffffff;"/>
   </g>
   <g id="matplotlib.axis_3">
    <g id="xtick_7">
     <g id="line2d_15">
      <path clip-path="url(#p4d691fb839)" d="M 821.8 269.440353 
L 821.8 28.396875 
" style="fill:none;stroke:#b0b0b0;stroke-linecap:square;stroke-width:0.8;"/>
     </g>
     <g id="line2d_16">
      <g>
       <use style="stroke:#000000;stroke-width:0.8;" x="821.8" xlink:href="#m10c8a73a7b" y="269.440353"/>
      </g>
     </g>
     <g id="text_14">
      <!-- 0 -->
      <g transform="translate(817.028125 287.83801)scale(0.15 -0.15)">
       <use xlink:href="#DejaVuSans-48"/>
      </g>
     </g>
    </g>
    <g id="xtick_8">
     <g id="line2d_17">
      <path clip-path="url(#p4d691fb839)" d="M 753.869565 269.440353 
L 753.869565 28.396875 
" style="fill:none;stroke:#b0b0b0;stroke-linecap:square;stroke-width:0.8;"/>
     </g>
     <g id="line2d_18">
      <g>
       <use style="stroke:#000000;stroke-width:0.8;" x="753.869565" xlink:href="#m10c8a73a7b" y="269.440353"/>
      </g>
     </g>
     <g id="text_15">
      <!-- 2 -->
      <g transform="translate(749.09769 287.83801)scale(0.15 -0.15)">
       <use xlink:href="#DejaVuSans-50"/>
      </g>
     </g>
    </g>
    <g id="xtick_9">
     <g id="line2d_19">
      <path clip-path="url(#p4d691fb839)" d="M 685.93913 269.440353 
L 685.93913 28.396875 
" style="fill:none;stroke:#b0b0b0;stroke-linecap:square;stroke-width:0.8;"/>
     </g>
     <g id="line2d_20">
      <g>
       <use style="stroke:#000000;stroke-width:0.8;" x="685.93913" xlink:href="#m10c8a73a7b" y="269.440353"/>
      </g>
     </g>
     <g id="text_16">
      <!-- 4 -->
      <g transform="translate(681.167255 287.83801)scale(0.15 -0.15)">
       <use xlink:href="#DejaVuSans-52"/>
      </g>
     </g>
    </g>
    <g id="xtick_10">
     <g id="line2d_21">
      <path clip-path="url(#p4d691fb839)" d="M 618.008696 269.440353 
L 618.008696 28.396875 
" style="fill:none;stroke:#b0b0b0;stroke-linecap:square;stroke-width:0.8;"/>
     </g>
     <g id="line2d_22">
      <g>
       <use style="stroke:#000000;stroke-width:0.8;" x="618.008696" xlink:href="#m10c8a73a7b" y="269.440353"/>
      </g>
     </g>
     <g id="text_17">
      <!-- 6 -->
      <g transform="translate(613.236821 287.83801)scale(0.15 -0.15)">
       <use xlink:href="#DejaVuSans-54"/>
      </g>
     </g>
    </g>
    <g id="xtick_11">
     <g id="line2d_23">
      <path clip-path="url(#p4d691fb839)" d="M 550.078261 269.440353 
L 550.078261 28.396875 
" style="fill:none;stroke:#b0b0b0;stroke-linecap:square;stroke-width:0.8;"/>
     </g>
     <g id="line2d_24">
      <g>
       <use style="stroke:#000000;stroke-width:0.8;" x="550.078261" xlink:href="#m10c8a73a7b" y="269.440353"/>
      </g>
     </g>
     <g id="text_18">
      <!-- 8 -->
      <g transform="translate(545.306386 287.83801)scale(0.15 -0.15)">
       <use xlink:href="#DejaVuSans-56"/>
      </g>
     </g>
    </g>
    <g id="xtick_12">
     <g id="line2d_25">
      <path clip-path="url(#p4d691fb839)" d="M 482.147826 269.440353 
L 482.147826 28.396875 
" style="fill:none;stroke:#b0b0b0;stroke-linecap:square;stroke-width:0.8;"/>
     </g>
     <g id="line2d_26">
      <g>
       <use style="stroke:#000000;stroke-width:0.8;" x="482.147826" xlink:href="#m10c8a73a7b" y="269.440353"/>
      </g>
     </g>
     <g id="text_19">
      <!-- 10 -->
      <g transform="translate(472.604076 287.83801)scale(0.15 -0.15)">
       <use xlink:href="#DejaVuSans-49"/>
       <use x="63.623047" xlink:href="#DejaVuSans-48"/>
      </g>
     </g>
    </g>
    <g id="text_20">
     <!-- time -->
     <g transform="translate(629.104069 308.634728)scale(0.18 -0.18)">
      <defs>
       <path d="M 27.484375 70.21875 
L 27.484375 54.6875 
L 45.515625 54.6875 
L 45.515625 42.1875 
L 27.484375 42.1875 
L 27.484375 19 
Q 27.484375 15.1875 29 13.84375 
Q 30.515625 12.5 35.015625 12.5 
L 44 12.5 
L 44 0 
L 29 0 
Q 18.65625 0 14.328125 4.3125 
Q 10.015625 8.640625 10.015625 19 
L 10.015625 42.1875 
L 1.3125 42.1875 
L 1.3125 54.6875 
L 10.015625 54.6875 
L 10.015625 70.21875 
z
" id="DejaVuSans-Bold-116"/>
       <path d="M 8.40625 54.6875 
L 25.875 54.6875 
L 25.875 0 
L 8.40625 0 
z
M 8.40625 75.984375 
L 25.875 75.984375 
L 25.875 61.71875 
L 8.40625 61.71875 
z
" id="DejaVuSans-Bold-105"/>
       <path d="M 59.078125 45.609375 
Q 62.40625 50.6875 66.96875 53.34375 
Q 71.53125 56 77 56 
Q 86.421875 56 91.359375 50.1875 
Q 96.296875 44.390625 96.296875 33.296875 
L 96.296875 0 
L 78.71875 0 
L 78.71875 28.515625 
Q 78.765625 29.15625 78.78125 29.828125 
Q 78.8125 30.515625 78.8125 31.78125 
Q 78.8125 37.59375 77.09375 40.203125 
Q 75.390625 42.828125 71.578125 42.828125 
Q 66.609375 42.828125 63.890625 38.71875 
Q 61.1875 34.625 61.078125 26.859375 
L 61.078125 0 
L 43.5 0 
L 43.5 28.515625 
Q 43.5 37.59375 41.9375 40.203125 
Q 40.375 42.828125 36.375 42.828125 
Q 31.34375 42.828125 28.609375 38.703125 
Q 25.875 34.578125 25.875 26.90625 
L 25.875 0 
L 8.296875 0 
L 8.296875 54.6875 
L 25.875 54.6875 
L 25.875 46.6875 
Q 29.109375 51.3125 33.28125 53.65625 
Q 37.453125 56 42.484375 56 
Q 48.140625 56 52.484375 53.265625 
Q 56.84375 50.53125 59.078125 45.609375 
z
" id="DejaVuSans-Bold-109"/>
      </defs>
      <use xlink:href="#DejaVuSans-Bold-116"/>
      <use x="47.802734" xlink:href="#DejaVuSans-Bold-105"/>
      <use x="82.080078" xlink:href="#DejaVuSans-Bold-109"/>
      <use x="186.279297" xlink:href="#DejaVuSans-Bold-101"/>
     </g>
    </g>
   </g>
   <g id="matplotlib.axis_4">
    <g id="ytick_6">
     <g id="line2d_27">
      <path clip-path="url(#p4d691fb839)" d="M 482.147826 28.396875 
L 821.8 28.396875 
" style="fill:none;stroke:#b0b0b0;stroke-linecap:square;stroke-width:0.8;"/>
     </g>
     <g id="line2d_28">
      <g>
       <use style="stroke:#000000;stroke-width:0.8;" x="482.147826" xlink:href="#md1d0c1375a" y="28.396875"/>
      </g>
     </g>
     <g id="text_21">
      <!-- 0 -->
      <g transform="translate(465.604076 34.095703)scale(0.15 -0.15)">
       <use xlink:href="#DejaVuSans-48"/>
      </g>
     </g>
    </g>
    <g id="ytick_7">
     <g id="line2d_29">
      <path clip-path="url(#p4d691fb839)" d="M 482.147826 76.605571 
L 821.8 76.605571 
" style="fill:none;stroke:#b0b0b0;stroke-linecap:square;stroke-width:0.8;"/>
     </g>
     <g id="line2d_30">
      <g>
       <use style="stroke:#000000;stroke-width:0.8;" x="482.147826" xlink:href="#md1d0c1375a" y="76.605571"/>
      </g>
     </g>
     <g id="text_22">
      <!-- 2 -->
      <g transform="translate(465.604076 82.304399)scale(0.15 -0.15)">
       <use xlink:href="#DejaVuSans-50"/>
      </g>
     </g>
    </g>
    <g id="ytick_8">
     <g id="line2d_31">
      <path clip-path="url(#p4d691fb839)" d="M 482.147826 124.814266 
L 821.8 124.814266 
" style="fill:none;stroke:#b0b0b0;stroke-linecap:square;stroke-width:0.8;"/>
     </g>
     <g id="line2d_32">
      <g>
       <use style="stroke:#000000;stroke-width:0.8;" x="482.147826" xlink:href="#md1d0c1375a" y="124.814266"/>
      </g>
     </g>
     <g id="text_23">
      <!-- 4 -->
      <g transform="translate(465.604076 130.513094)scale(0.15 -0.15)">
       <use xlink:href="#DejaVuSans-52"/>
      </g>
     </g>
    </g>
    <g id="ytick_9">
     <g id="line2d_33">
      <path clip-path="url(#p4d691fb839)" d="M 482.147826 173.022962 
L 821.8 173.022962 
" style="fill:none;stroke:#b0b0b0;stroke-linecap:square;stroke-width:0.8;"/>
     </g>
     <g id="line2d_34">
      <g>
       <use style="stroke:#000000;stroke-width:0.8;" x="482.147826" xlink:href="#md1d0c1375a" y="173.022962"/>
      </g>
     </g>
     <g id="text_24">
      <!-- 6 -->
      <g transform="translate(465.604076 178.72179)scale(0.15 -0.15)">
       <use xlink:href="#DejaVuSans-54"/>
      </g>
     </g>
    </g>
    <g id="ytick_10">
     <g id="line2d_35">
      <path clip-path="url(#p4d691fb839)" d="M 482.147826 221.231658 
L 821.8 221.231658 
" style="fill:none;stroke:#b0b0b0;stroke-linecap:square;stroke-width:0.8;"/>
     </g>
     <g id="line2d_36">
      <g>
       <use style="stroke:#000000;stroke-width:0.8;" x="482.147826" xlink:href="#md1d0c1375a" y="221.231658"/>
      </g>
     </g>
     <g id="text_25">
      <!-- 8 -->
      <g transform="translate(465.604076 226.930486)scale(0.15 -0.15)">
       <use xlink:href="#DejaVuSans-56"/>
      </g>
     </g>
    </g>
    <g id="ytick_11">
     <g id="line2d_37">
      <path clip-path="url(#p4d691fb839)" d="M 482.147826 269.440353 
L 821.8 269.440353 
" style="fill:none;stroke:#b0b0b0;stroke-linecap:square;stroke-width:0.8;"/>
     </g>
     <g id="line2d_38">
      <g>
       <use style="stroke:#000000;stroke-width:0.8;" x="482.147826" xlink:href="#md1d0c1375a" y="269.440353"/>
      </g>
     </g>
     <g id="text_26">
      <!-- 10 -->
      <g transform="translate(456.060326 275.139181)scale(0.15 -0.15)">
       <use xlink:href="#DejaVuSans-49"/>
       <use x="63.623047" xlink:href="#DejaVuSans-48"/>
      </g>
     </g>
    </g>
    <g id="text_27">
     <!-- S1 -->
     <g transform="translate(448.316889 161.662052)rotate(-90)scale(0.18 -0.18)">
      <defs>
       <path d="M 59.90625 70.609375 
L 59.90625 55.171875 
Q 53.90625 57.859375 48.1875 59.21875 
Q 42.484375 60.59375 37.40625 60.59375 
Q 30.671875 60.59375 27.4375 58.734375 
Q 24.21875 56.890625 24.21875 52.984375 
Q 24.21875 50.046875 26.390625 48.40625 
Q 28.5625 46.78125 34.28125 45.609375 
L 42.28125 44 
Q 54.4375 41.546875 59.5625 36.5625 
Q 64.703125 31.59375 64.703125 22.40625 
Q 64.703125 10.359375 57.546875 4.46875 
Q 50.390625 -1.421875 35.6875 -1.421875 
Q 28.765625 -1.421875 21.78125 -0.09375 
Q 14.796875 1.21875 7.8125 3.8125 
L 7.8125 19.671875 
Q 14.796875 15.96875 21.3125 14.078125 
Q 27.828125 12.203125 33.890625 12.203125 
Q 40.046875 12.203125 43.3125 14.25 
Q 46.578125 16.3125 46.578125 20.125 
Q 46.578125 23.53125 44.359375 25.390625 
Q 42.140625 27.25 35.5 28.71875 
L 28.21875 30.328125 
Q 17.28125 32.671875 12.21875 37.796875 
Q 7.171875 42.921875 7.171875 51.609375 
Q 7.171875 62.5 14.203125 68.359375 
Q 21.234375 74.21875 34.421875 74.21875 
Q 40.4375 74.21875 46.78125 73.3125 
Q 53.125 72.40625 59.90625 70.609375 
z
" id="DejaVuSans-Bold-83"/>
       <path d="M 11.71875 12.984375 
L 28.328125 12.984375 
L 28.328125 60.109375 
L 11.28125 56.59375 
L 11.28125 69.390625 
L 28.21875 72.90625 
L 46.09375 72.90625 
L 46.09375 12.984375 
L 62.703125 12.984375 
L 62.703125 0 
L 11.71875 0 
z
" id="DejaVuSans-Bold-49"/>
      </defs>
      <use xlink:href="#DejaVuSans-Bold-83"/>
      <use x="72.021484" xlink:href="#DejaVuSans-Bold-49"/>
     </g>
    </g>
   </g>
   <g id="line2d_39">
    <path clip-path="url(#p4d691fb839)" d="M 821.8 269.440353 
L 810.087856 245.751242 
L 798.375712 224.390234 
L 786.663568 205.128528 
L 774.951424 187.759812 
L 763.23928 172.098047 
L 751.527136 157.975478 
L 739.814993 145.240838 
L 728.102849 133.757724 
L 716.390705 123.403141 
L 704.678561 114.066178 
L 692.966417 105.646827 
L 681.254273 98.054907 
L 669.542129 91.209101 
L 657.829985 85.036083 
L 646.117841 79.469732 
L 634.405697 74.450428 
L 622.693553 69.924407 
L 610.981409 65.843192 
L 599.269265 62.163068 
L 587.557121 58.844616 
L 575.844978 55.852293 
L 564.132834 53.154048 
L 552.42069 50.720979 
L 540.708546 48.527025 
L 528.996402 46.548688 
L 517.284258 44.764776 
L 505.572114 43.156182 
L 493.85997 41.705677 
L 482.147826 40.397723 
" style="fill:none;stroke:#000000;stroke-linecap:square;stroke-width:2;"/>
    <g clip-path="url(#p4d691fb839)">
     <use style="stroke:#000000;stroke-linejoin:miter;" x="821.8" xlink:href="#m95bcd7a8d8" y="269.440353"/>
     <use style="stroke:#000000;stroke-linejoin:miter;" x="810.087856" xlink:href="#m95bcd7a8d8" y="245.751242"/>
     <use style="stroke:#000000;stroke-linejoin:miter;" x="798.375712" xlink:href="#m95bcd7a8d8" y="224.390234"/>
     <use style="stroke:#000000;stroke-linejoin:miter;" x="786.663568" xlink:href="#m95bcd7a8d8" y="205.128528"/>
     <use style="stroke:#000000;stroke-linejoin:miter;" x="774.951424" xlink:href="#m95bcd7a8d8" y="187.759812"/>
     <use style="stroke:#000000;stroke-linejoin:miter;" x="763.23928" xlink:href="#m95bcd7a8d8" y="172.098047"/>
     <use style="stroke:#000000;stroke-linejoin:miter;" x="751.527136" xlink:href="#m95bcd7a8d8" y="157.975478"/>
     <use style="stroke:#000000;stroke-linejoin:miter;" x="739.814993" xlink:href="#m95bcd7a8d8" y="145.240838"/>
     <use style="stroke:#000000;stroke-linejoin:miter;" x="728.102849" xlink:href="#m95bcd7a8d8" y="133.757724"/>
     <use style="stroke:#000000;stroke-linejoin:miter;" x="716.390705" xlink:href="#m95bcd7a8d8" y="123.403141"/>
     <use style="stroke:#000000;stroke-linejoin:miter;" x="704.678561" xlink:href="#m95bcd7a8d8" y="114.066178"/>
     <use style="stroke:#000000;stroke-linejoin:miter;" x="692.966417" xlink:href="#m95bcd7a8d8" y="105.646827"/>
     <use style="stroke:#000000;stroke-linejoin:miter;" x="681.254273" xlink:href="#m95bcd7a8d8" y="98.054907"/>
     <use style="stroke:#000000;stroke-linejoin:miter;" x="669.542129" xlink:href="#m95bcd7a8d8" y="91.209101"/>
     <use style="stroke:#000000;stroke-linejoin:miter;" x="657.829985" xlink:href="#m95bcd7a8d8" y="85.036083"/>
     <use style="stroke:#000000;stroke-linejoin:miter;" x="646.117841" xlink:href="#m95bcd7a8d8" y="79.469732"/>
     <use style="stroke:#000000;stroke-linejoin:miter;" x="634.405697" xlink:href="#m95bcd7a8d8" y="74.450428"/>
     <use style="stroke:#000000;stroke-linejoin:miter;" x="622.693553" xlink:href="#m95bcd7a8d8" y="69.924407"/>
     <use style="stroke:#000000;stroke-linejoin:miter;" x="610.981409" xlink:href="#m95bcd7a8d8" y="65.843192"/>
     <use style="stroke:#000000;stroke-linejoin:miter;" x="599.269265" xlink:href="#m95bcd7a8d8" y="62.163068"/>
     <use style="stroke:#000000;stroke-linejoin:miter;" x="587.557121" xlink:href="#m95bcd7a8d8" y="58.844616"/>
     <use style="stroke:#000000;stroke-linejoin:miter;" x="575.844978" xlink:href="#m95bcd7a8d8" y="55.852293"/>
     <use style="stroke:#000000;stroke-linejoin:miter;" x="564.132834" xlink:href="#m95bcd7a8d8" y="53.154048"/>
     <use style="stroke:#000000;stroke-linejoin:miter;" x="552.42069" xlink:href="#m95bcd7a8d8" y="50.720979"/>
     <use style="stroke:#000000;stroke-linejoin:miter;" x="540.708546" xlink:href="#m95bcd7a8d8" y="48.527025"/>
     <use style="stroke:#000000;stroke-linejoin:miter;" x="528.996402" xlink:href="#m95bcd7a8d8" y="46.548688"/>
     <use style="stroke:#000000;stroke-linejoin:miter;" x="517.284258" xlink:href="#m95bcd7a8d8" y="44.764776"/>
     <use style="stroke:#000000;stroke-linejoin:miter;" x="505.572114" xlink:href="#m95bcd7a8d8" y="43.156182"/>
     <use style="stroke:#000000;stroke-linejoin:miter;" x="493.85997" xlink:href="#m95bcd7a8d8" y="41.705677"/>
     <use style="stroke:#000000;stroke-linejoin:miter;" x="482.147826" xlink:href="#m95bcd7a8d8" y="40.397723"/>
    </g>
   </g>
   <g id="patch_9">
    <path d="M 482.147826 269.440353 
L 482.147826 28.396875 
" style="fill:none;stroke:#000000;stroke-linecap:square;stroke-linejoin:miter;stroke-width:0.8;"/>
   </g>
   <g id="patch_10">
    <path d="M 821.8 269.440353 
L 821.8 28.396875 
" style="fill:none;stroke:#000000;stroke-linecap:square;stroke-linejoin:miter;stroke-width:0.8;"/>
   </g>
   <g id="patch_11">
    <path d="M 482.147826 269.440353 
L 821.8 269.440353 
" style="fill:none;stroke:#000000;stroke-linecap:square;stroke-linejoin:miter;stroke-width:0.8;"/>
   </g>
   <g id="patch_12">
    <path d="M 482.147826 28.396875 
L 821.8 28.396875 
" style="fill:none;stroke:#000000;stroke-linecap:square;stroke-linejoin:miter;stroke-width:0.8;"/>
   </g>
   <g id="text_28">
    <!-- Reversed order &amp; grid -->
    <g transform="translate(526.853601 22.396875)scale(0.2 -0.2)">
     <defs>
      <path d="M 35.890625 40.578125 
Q 41.796875 40.578125 44.359375 42.765625 
Q 46.921875 44.96875 46.921875 50 
Q 46.921875 54.984375 44.359375 57.125 
Q 41.796875 59.28125 35.890625 59.28125 
L 27.984375 59.28125 
L 27.984375 40.578125 
z
M 27.984375 27.59375 
L 27.984375 0 
L 9.1875 0 
L 9.1875 72.90625 
L 37.890625 72.90625 
Q 52.296875 72.90625 59 68.0625 
Q 65.71875 63.234375 65.71875 52.78125 
Q 65.71875 45.5625 62.21875 40.921875 
Q 58.734375 36.28125 51.703125 34.078125 
Q 55.5625 33.203125 58.609375 30.09375 
Q 61.671875 27 64.796875 20.703125 
L 75 0 
L 54.984375 0 
L 46.09375 18.109375 
Q 43.40625 23.578125 40.640625 25.578125 
Q 37.890625 27.59375 33.296875 27.59375 
z
" id="DejaVuSans-Bold-82"/>
      <path d="M 1.515625 54.6875 
L 19 54.6875 
L 32.625 16.890625 
L 46.1875 54.6875 
L 63.71875 54.6875 
L 42.1875 0 
L 23 0 
z
" id="DejaVuSans-Bold-118"/>
      <path d="M 49.03125 39.796875 
Q 46.734375 40.875 44.453125 41.375 
Q 42.1875 41.890625 39.890625 41.890625 
Q 33.15625 41.890625 29.515625 37.5625 
Q 25.875 33.25 25.875 25.203125 
L 25.875 0 
L 8.40625 0 
L 8.40625 54.6875 
L 25.875 54.6875 
L 25.875 45.703125 
Q 29.25 51.078125 33.609375 53.53125 
Q 37.984375 56 44.09375 56 
Q 44.96875 56 45.984375 55.921875 
Q 47.015625 55.859375 48.96875 55.609375 
z
" id="DejaVuSans-Bold-114"/>
      <path d="M 45.609375 46.6875 
L 45.609375 75.984375 
L 63.1875 75.984375 
L 63.1875 0 
L 45.609375 0 
L 45.609375 7.90625 
Q 42 3.078125 37.640625 0.828125 
Q 33.296875 -1.421875 27.59375 -1.421875 
Q 17.484375 -1.421875 10.984375 6.609375 
Q 4.5 14.65625 4.5 27.296875 
Q 4.5 39.9375 10.984375 47.96875 
Q 17.484375 56 27.59375 56 
Q 33.25 56 37.625 53.734375 
Q 42 51.46875 45.609375 46.6875 
z
M 34.078125 11.28125 
Q 39.703125 11.28125 42.65625 15.375 
Q 45.609375 19.484375 45.609375 27.296875 
Q 45.609375 35.109375 42.65625 39.203125 
Q 39.703125 43.3125 34.078125 43.3125 
Q 28.515625 43.3125 25.5625 39.203125 
Q 22.609375 35.109375 22.609375 27.296875 
Q 22.609375 19.484375 25.5625 15.375 
Q 28.515625 11.28125 34.078125 11.28125 
z
" id="DejaVuSans-Bold-100"/>
      <path d="M 39.015625 48.390625 
L 58.984375 26.421875 
Q 61.578125 29.828125 62.921875 34.078125 
Q 64.265625 38.328125 64.5 43.703125 
L 79.6875 43.703125 
Q 78.953125 34.8125 76.234375 27.875 
Q 73.53125 20.953125 68.703125 15.71875 
L 83.015625 0 
L 62.3125 0 
L 57.515625 5.328125 
Q 52.390625 1.90625 46.71875 0.234375 
Q 41.0625 -1.421875 34.71875 -1.421875 
Q 21.875 -1.421875 13.9375 5.34375 
Q 6 12.109375 6 22.796875 
Q 6 29.9375 9.484375 35.421875 
Q 12.984375 40.921875 20.90625 46.09375 
Q 18.84375 48.6875 17.859375 51.265625 
Q 16.890625 53.859375 16.890625 56.6875 
Q 16.890625 64.65625 23.09375 69.4375 
Q 29.296875 74.21875 39.59375 74.21875 
Q 44.046875 74.21875 48.84375 73.5 
Q 53.65625 72.796875 58.890625 71.390625 
L 58.890625 57.8125 
Q 54.296875 60.15625 50.1875 61.28125 
Q 46.09375 62.40625 42.1875 62.40625 
Q 38.421875 62.40625 36.34375 60.953125 
Q 34.28125 59.515625 34.28125 56.890625 
Q 34.28125 55.21875 35.46875 53.09375 
Q 36.671875 50.984375 39.015625 48.390625 
z
M 29.296875 36.28125 
Q 26.125 33.984375 24.515625 31.078125 
Q 22.90625 28.171875 22.90625 24.703125 
Q 22.90625 19.09375 27.046875 15.140625 
Q 31.203125 11.1875 37.015625 11.1875 
Q 40.28125 11.1875 43.109375 12.1875 
Q 45.953125 13.1875 48.390625 15.1875 
z
" id="DejaVuSans-Bold-38"/>
      <path d="M 45.609375 9.28125 
Q 42 4.5 37.640625 2.25 
Q 33.296875 0 27.59375 0 
Q 17.578125 0 11.03125 7.875 
Q 4.5 15.765625 4.5 27.984375 
Q 4.5 40.234375 11.03125 48.0625 
Q 17.578125 55.90625 27.59375 55.90625 
Q 33.296875 55.90625 37.640625 53.65625 
Q 42 51.421875 45.609375 46.578125 
L 45.609375 54.6875 
L 63.1875 54.6875 
L 63.1875 5.515625 
Q 63.1875 -7.671875 54.859375 -14.625 
Q 46.53125 -21.578125 30.71875 -21.578125 
Q 25.59375 -21.578125 20.796875 -20.796875 
Q 16.015625 -20.015625 11.1875 -18.40625 
L 11.1875 -4.78125 
Q 15.765625 -7.421875 20.15625 -8.71875 
Q 24.5625 -10.015625 29 -10.015625 
Q 37.59375 -10.015625 41.59375 -6.25 
Q 45.609375 -2.484375 45.609375 5.515625 
z
M 34.078125 43.3125 
Q 28.65625 43.3125 25.625 39.296875 
Q 22.609375 35.296875 22.609375 27.984375 
Q 22.609375 20.453125 25.53125 16.578125 
Q 28.46875 12.703125 34.078125 12.703125 
Q 39.546875 12.703125 42.578125 16.703125 
Q 45.609375 20.703125 45.609375 27.984375 
Q 45.609375 35.296875 42.578125 39.296875 
Q 39.546875 43.3125 34.078125 43.3125 
z
" id="DejaVuSans-Bold-103"/>
     </defs>
     <use xlink:href="#DejaVuSans-Bold-82"/>
     <use x="77.001953" xlink:href="#DejaVuSans-Bold-101"/>
     <use x="144.824219" xlink:href="#DejaVuSans-Bold-118"/>
     <use x="210.009766" xlink:href="#DejaVuSans-Bold-101"/>
     <use x="277.832031" xlink:href="#DejaVuSans-Bold-114"/>
     <use x="327.148438" xlink:href="#DejaVuSans-Bold-115"/>
     <use x="386.669922" xlink:href="#DejaVuSans-Bold-101"/>
     <use x="454.492188" xlink:href="#DejaVuSans-Bold-100"/>
     <use x="526.074219" xlink:href="#DejaVuSans-Bold-32"/>
     <use x="560.888672" xlink:href="#DejaVuSans-Bold-111"/>
     <use x="629.589844" xlink:href="#DejaVuSans-Bold-114"/>
     <use x="678.90625" xlink:href="#DejaVuSans-Bold-100"/>
     <use x="750.488281" xlink:href="#DejaVuSans-Bold-101"/>
     <use x="818.310547" xlink:href="#DejaVuSans-Bold-114"/>
     <use x="867.626953" xlink:href="#DejaVuSans-Bold-32"/>
     <use x="902.441406" xlink:href="#DejaVuSans-Bold-38"/>
     <use x="989.648438" xlink:href="#DejaVuSans-Bold-32"/>
     <use x="1024.462891" xlink:href="#DejaVuSans-Bold-103"/>
     <use x="1096.044922" xlink:href="#DejaVuSans-Bold-114"/>
     <use x="1145.361328" xlink:href="#DejaVuSans-Bold-105"/>
     <use x="1179.638672" xlink:href="#DejaVuSans-Bold-100"/>
    </g>
   </g>
   <g id="legend_2">
    <g id="patch_13">
     <path d="M 754.575781 57.878437 
L 812.7 57.878437 
Q 815.3 57.878437 815.3 55.278437 
L 815.3 37.496875 
Q 815.3 34.896875 812.7 34.896875 
L 754.575781 34.896875 
Q 751.975781 34.896875 751.975781 37.496875 
L 751.975781 55.278437 
Q 751.975781 57.878437 754.575781 57.878437 
z
" style="fill:#ffffff;opacity:0.8;stroke:#cccccc;stroke-linejoin:miter;"/>
    </g>
    <g id="line2d_40">
     <path d="M 757.175781 45.424844 
L 783.175781 45.424844 
" style="fill:none;stroke:#000000;stroke-linecap:square;stroke-width:2;"/>
    </g>
    <g id="line2d_41">
     <g>
      <use style="stroke:#000000;stroke-linejoin:miter;" x="770.175781" xlink:href="#m95bcd7a8d8" y="45.424844"/>
     </g>
    </g>
    <g id="text_29">
     <!-- S1 -->
     <g transform="translate(793.575781 49.974844)scale(0.13 -0.13)">
      <use xlink:href="#DejaVuSans-83"/>
      <use x="63.476562" xlink:href="#DejaVuSans-49"/>
     </g>
    </g>
   </g>
  </g>
  <g id="axes_3">
   <g id="patch_14">
    <path d="M 40.6 582.796875 
L 380.252174 582.796875 
L 380.252174 341.753397 
L 40.6 341.753397 
z
" style="fill:#ffffff;"/>
   </g>
   <g id="matplotlib.axis_5">
    <g id="xtick_13">
     <g id="line2d_42">
      <path clip-path="url(#pedfd49f8cd)" d="M 40.6 582.796875 
L 40.6 341.753397 
" style="fill:none;stroke:#b0b0b0;stroke-linecap:square;stroke-width:0.8;"/>
     </g>
     <g id="line2d_43">
      <defs>
       <path d="M 0 0 
L 0 3.5 
" id="m27f6b9e2a5" style="stroke:#000000;stroke-width:4;"/>
      </defs>
      <g>
       <use style="stroke:#000000;stroke-width:4;" x="40.6" xlink:href="#m27f6b9e2a5" y="582.796875"/>
      </g>
     </g>
     <g id="text_30">
      <!-- $\mathdefault{10^{-1}}$ -->
      <g transform="translate(22.975 601.194531)scale(0.15 -0.15)">
       <defs>
        <path d="M 10.59375 35.5 
L 73.1875 35.5 
L 73.1875 27.203125 
L 10.59375 27.203125 
z
" id="DejaVuSans-8722"/>
       </defs>
       <use transform="translate(0 0.684375)" xlink:href="#DejaVuSans-49"/>
       <use transform="translate(63.623047 0.684375)" xlink:href="#DejaVuSans-48"/>
       <use transform="translate(128.203125 38.965625)scale(0.7)" xlink:href="#DejaVuSans-8722"/>
       <use transform="translate(186.855469 38.965625)scale(0.7)" xlink:href="#DejaVuSans-49"/>
      </g>
     </g>
    </g>
    <g id="xtick_14">
     <g id="line2d_44">
      <path clip-path="url(#pedfd49f8cd)" d="M 210.426087 582.796875 
L 210.426087 341.753397 
" style="fill:none;stroke:#b0b0b0;stroke-linecap:square;stroke-width:0.8;"/>
     </g>
     <g id="line2d_45">
      <g>
       <use style="stroke:#000000;stroke-width:4;" x="210.426087" xlink:href="#m27f6b9e2a5" y="582.796875"/>
      </g>
     </g>
     <g id="text_31">
      <!-- $\mathdefault{10^{0}}$ -->
      <g transform="translate(197.226087 601.194531)scale(0.15 -0.15)">
       <use transform="translate(0 0.765625)" xlink:href="#DejaVuSans-49"/>
       <use transform="translate(63.623047 0.765625)" xlink:href="#DejaVuSans-48"/>
       <use transform="translate(128.203125 39.046875)scale(0.7)" xlink:href="#DejaVuSans-48"/>
      </g>
     </g>
    </g>
    <g id="xtick_15">
     <g id="line2d_46">
      <path clip-path="url(#pedfd49f8cd)" d="M 380.252174 582.796875 
L 380.252174 341.753397 
" style="fill:none;stroke:#b0b0b0;stroke-linecap:square;stroke-width:0.8;"/>
     </g>
     <g id="line2d_47">
      <g>
       <use style="stroke:#000000;stroke-width:4;" x="380.252174" xlink:href="#m27f6b9e2a5" y="582.796875"/>
      </g>
     </g>
     <g id="text_32">
      <!-- $\mathdefault{10^{1}}$ -->
      <g transform="translate(367.052174 601.194531)scale(0.15 -0.15)">
       <use transform="translate(0 0.684375)" xlink:href="#DejaVuSans-49"/>
       <use transform="translate(63.623047 0.684375)" xlink:href="#DejaVuSans-48"/>
       <use transform="translate(128.203125 38.965625)scale(0.7)" xlink:href="#DejaVuSans-49"/>
      </g>
     </g>
    </g>
    <g id="xtick_16">
     <g id="line2d_48">
      <defs>
       <path d="M 0 0 
L 0 2 
" id="m20b9545c50" style="stroke:#000000;stroke-width:0.6;"/>
      </defs>
      <g>
       <use style="stroke:#000000;stroke-width:0.6;" x="91.722746" xlink:href="#m20b9545c50" y="582.796875"/>
      </g>
     </g>
    </g>
    <g id="xtick_17">
     <g id="line2d_49">
      <g>
       <use style="stroke:#000000;stroke-width:0.6;" x="121.627636" xlink:href="#m20b9545c50" y="582.796875"/>
      </g>
     </g>
    </g>
    <g id="xtick_18">
     <g id="line2d_50">
      <g>
       <use style="stroke:#000000;stroke-width:0.6;" x="142.845492" xlink:href="#m20b9545c50" y="582.796875"/>
      </g>
     </g>
    </g>
    <g id="xtick_19">
     <g id="line2d_51">
      <g>
       <use style="stroke:#000000;stroke-width:0.6;" x="159.303341" xlink:href="#m20b9545c50" y="582.796875"/>
      </g>
     </g>
    </g>
    <g id="xtick_20">
     <g id="line2d_52">
      <g>
       <use style="stroke:#000000;stroke-width:0.6;" x="172.750382" xlink:href="#m20b9545c50" y="582.796875"/>
      </g>
     </g>
    </g>
    <g id="xtick_21">
     <g id="line2d_53">
      <g>
       <use style="stroke:#000000;stroke-width:0.6;" x="184.119693" xlink:href="#m20b9545c50" y="582.796875"/>
      </g>
     </g>
    </g>
    <g id="xtick_22">
     <g id="line2d_54">
      <g>
       <use style="stroke:#000000;stroke-width:0.6;" x="193.968239" xlink:href="#m20b9545c50" y="582.796875"/>
      </g>
     </g>
    </g>
    <g id="xtick_23">
     <g id="line2d_55">
      <g>
       <use style="stroke:#000000;stroke-width:0.6;" x="202.655271" xlink:href="#m20b9545c50" y="582.796875"/>
      </g>
     </g>
    </g>
    <g id="xtick_24">
     <g id="line2d_56">
      <g>
       <use style="stroke:#000000;stroke-width:0.6;" x="261.548833" xlink:href="#m20b9545c50" y="582.796875"/>
      </g>
     </g>
    </g>
    <g id="xtick_25">
     <g id="line2d_57">
      <g>
       <use style="stroke:#000000;stroke-width:0.6;" x="291.453723" xlink:href="#m20b9545c50" y="582.796875"/>
      </g>
     </g>
    </g>
    <g id="xtick_26">
     <g id="line2d_58">
      <g>
       <use style="stroke:#000000;stroke-width:0.6;" x="312.671579" xlink:href="#m20b9545c50" y="582.796875"/>
      </g>
     </g>
    </g>
    <g id="xtick_27">
     <g id="line2d_59">
      <g>
       <use style="stroke:#000000;stroke-width:0.6;" x="329.129428" xlink:href="#m20b9545c50" y="582.796875"/>
      </g>
     </g>
    </g>
    <g id="xtick_28">
     <g id="line2d_60">
      <g>
       <use style="stroke:#000000;stroke-width:0.6;" x="342.576469" xlink:href="#m20b9545c50" y="582.796875"/>
      </g>
     </g>
    </g>
    <g id="xtick_29">
     <g id="line2d_61">
      <g>
       <use style="stroke:#000000;stroke-width:0.6;" x="353.94578" xlink:href="#m20b9545c50" y="582.796875"/>
      </g>
     </g>
    </g>
    <g id="xtick_30">
     <g id="line2d_62">
      <g>
       <use style="stroke:#000000;stroke-width:0.6;" x="363.794326" xlink:href="#m20b9545c50" y="582.796875"/>
      </g>
     </g>
    </g>
    <g id="xtick_31">
     <g id="line2d_63">
      <g>
       <use style="stroke:#000000;stroke-width:0.6;" x="372.481358" xlink:href="#m20b9545c50" y="582.796875"/>
      </g>
     </g>
    </g>
   </g>
   <g id="matplotlib.axis_6">
    <g id="ytick_12">
     <g id="line2d_64">
      <path clip-path="url(#pedfd49f8cd)" d="M 40.6 520.898743 
L 380.252174 520.898743 
" style="fill:none;stroke:#b0b0b0;stroke-linecap:square;stroke-width:0.8;"/>
     </g>
     <g id="line2d_65">
      <defs>
       <path d="M 0 0 
L -3.5 0 
" id="m84c0c798a2" style="stroke:#000000;stroke-width:4;"/>
      </defs>
      <g>
       <use style="stroke:#000000;stroke-width:4;" x="40.6" xlink:href="#m84c0c798a2" y="520.898743"/>
      </g>
     </g>
     <g id="text_33">
      <!-- $\mathdefault{10^{0}}$ -->
      <g transform="translate(7.2 526.597571)scale(0.15 -0.15)">
       <use transform="translate(0 0.765625)" xlink:href="#DejaVuSans-49"/>
       <use transform="translate(63.623047 0.765625)" xlink:href="#DejaVuSans-48"/>
       <use transform="translate(128.203125 39.046875)scale(0.7)" xlink:href="#DejaVuSans-48"/>
      </g>
     </g>
    </g>
    <g id="ytick_13">
     <g id="line2d_66">
      <path clip-path="url(#pedfd49f8cd)" d="M 40.6 352.709918 
L 380.252174 352.709918 
" style="fill:none;stroke:#b0b0b0;stroke-linecap:square;stroke-width:0.8;"/>
     </g>
     <g id="line2d_67">
      <g>
       <use style="stroke:#000000;stroke-width:4;" x="40.6" xlink:href="#m84c0c798a2" y="352.709918"/>
      </g>
     </g>
     <g id="text_34">
      <!-- $\mathdefault{10^{1}}$ -->
      <g transform="translate(7.2 358.408747)scale(0.15 -0.15)">
       <use transform="translate(0 0.684375)" xlink:href="#DejaVuSans-49"/>
       <use transform="translate(63.623047 0.684375)" xlink:href="#DejaVuSans-48"/>
       <use transform="translate(128.203125 38.965625)scale(0.7)" xlink:href="#DejaVuSans-49"/>
      </g>
     </g>
    </g>
    <g id="ytick_14">
     <g id="line2d_68">
      <defs>
       <path d="M 0 0 
L -2 0 
" id="mb9a898af00" style="stroke:#000000;stroke-width:0.6;"/>
      </defs>
      <g>
       <use style="stroke:#000000;stroke-width:0.6;" x="40.6" xlink:href="#mb9a898af00" y="571.528624"/>
      </g>
     </g>
    </g>
    <g id="ytick_15">
     <g id="line2d_69">
      <g>
       <use style="stroke:#000000;stroke-width:0.6;" x="40.6" xlink:href="#mb9a898af00" y="558.211224"/>
      </g>
     </g>
    </g>
    <g id="ytick_16">
     <g id="line2d_70">
      <g>
       <use style="stroke:#000000;stroke-width:0.6;" x="40.6" xlink:href="#mb9a898af00" y="546.951522"/>
      </g>
     </g>
    </g>
    <g id="ytick_17">
     <g id="line2d_71">
      <g>
       <use style="stroke:#000000;stroke-width:0.6;" x="40.6" xlink:href="#mb9a898af00" y="537.197924"/>
      </g>
     </g>
    </g>
    <g id="ytick_18">
     <g id="line2d_72">
      <g>
       <use style="stroke:#000000;stroke-width:0.6;" x="40.6" xlink:href="#mb9a898af00" y="528.594642"/>
      </g>
     </g>
    </g>
    <g id="ytick_19">
     <g id="line2d_73">
      <g>
       <use style="stroke:#000000;stroke-width:0.6;" x="40.6" xlink:href="#mb9a898af00" y="470.268862"/>
      </g>
     </g>
    </g>
    <g id="ytick_20">
     <g id="line2d_74">
      <g>
       <use style="stroke:#000000;stroke-width:0.6;" x="40.6" xlink:href="#mb9a898af00" y="440.65228"/>
      </g>
     </g>
    </g>
    <g id="ytick_21">
     <g id="line2d_75">
      <g>
       <use style="stroke:#000000;stroke-width:0.6;" x="40.6" xlink:href="#mb9a898af00" y="419.638981"/>
      </g>
     </g>
    </g>
    <g id="ytick_22">
     <g id="line2d_76">
      <g>
       <use style="stroke:#000000;stroke-width:0.6;" x="40.6" xlink:href="#mb9a898af00" y="403.3398"/>
      </g>
     </g>
    </g>
    <g id="ytick_23">
     <g id="line2d_77">
      <g>
       <use style="stroke:#000000;stroke-width:0.6;" x="40.6" xlink:href="#mb9a898af00" y="390.022399"/>
      </g>
     </g>
    </g>
    <g id="ytick_24">
     <g id="line2d_78">
      <g>
       <use style="stroke:#000000;stroke-width:0.6;" x="40.6" xlink:href="#mb9a898af00" y="378.762697"/>
      </g>
     </g>
    </g>
    <g id="ytick_25">
     <g id="line2d_79">
      <g>
       <use style="stroke:#000000;stroke-width:0.6;" x="40.6" xlink:href="#mb9a898af00" y="369.0091"/>
      </g>
     </g>
    </g>
    <g id="ytick_26">
     <g id="line2d_80">
      <g>
       <use style="stroke:#000000;stroke-width:0.6;" x="40.6" xlink:href="#mb9a898af00" y="360.405817"/>
      </g>
     </g>
    </g>
   </g>
   <g id="line2d_81">
    <path clip-path="url(#pedfd49f8cd)" d="M -1 360.260224 
L 131.898844 360.26614 
L 183.021591 367.822362 
L 212.92648 375.378584 
L 234.144337 382.934806 
L 250.602185 390.491028 
L 264.049226 398.04725 
L 275.418538 405.603472 
L 285.267083 413.159694 
L 293.954116 420.715916 
L 301.724931 428.272137 
L 308.754489 435.828359 
L 315.171972 443.384581 
L 321.075485 450.940803 
L 326.541284 458.497025 
L 331.629821 466.053247 
L 336.389829 473.609469 
L 340.86117 481.165691 
L 345.076862 488.721912 
L 349.064565 496.278134 
L 352.847678 503.834356 
L 356.446173 511.390578 
L 359.877235 518.9468 
L 363.155754 526.503022 
L 366.294719 534.059244 
L 369.305526 541.615466 
L 372.198231 549.171688 
L 374.981751 556.727909 
L 377.66403 564.284131 
L 380.252174 571.840353 
" style="fill:none;stroke:#000000;stroke-linecap:square;stroke-width:2;"/>
    <g clip-path="url(#pedfd49f8cd)">
     <use style="stroke:#000000;stroke-linejoin:miter;" x="-1" xlink:href="#m95bcd7a8d8" y="360.260224"/>
     <use style="stroke:#000000;stroke-linejoin:miter;" x="131.898844" xlink:href="#m95bcd7a8d8" y="360.26614"/>
     <use style="stroke:#000000;stroke-linejoin:miter;" x="183.021591" xlink:href="#m95bcd7a8d8" y="367.822362"/>
     <use style="stroke:#000000;stroke-linejoin:miter;" x="212.92648" xlink:href="#m95bcd7a8d8" y="375.378584"/>
     <use style="stroke:#000000;stroke-linejoin:miter;" x="234.144337" xlink:href="#m95bcd7a8d8" y="382.934806"/>
     <use style="stroke:#000000;stroke-linejoin:miter;" x="250.602185" xlink:href="#m95bcd7a8d8" y="390.491028"/>
     <use style="stroke:#000000;stroke-linejoin:miter;" x="264.049226" xlink:href="#m95bcd7a8d8" y="398.04725"/>
     <use style="stroke:#000000;stroke-linejoin:miter;" x="275.418538" xlink:href="#m95bcd7a8d8" y="405.603472"/>
     <use style="stroke:#000000;stroke-linejoin:miter;" x="285.267083" xlink:href="#m95bcd7a8d8" y="413.159694"/>
     <use style="stroke:#000000;stroke-linejoin:miter;" x="293.954116" xlink:href="#m95bcd7a8d8" y="420.715916"/>
     <use style="stroke:#000000;stroke-linejoin:miter;" x="301.724931" xlink:href="#m95bcd7a8d8" y="428.272137"/>
     <use style="stroke:#000000;stroke-linejoin:miter;" x="308.754489" xlink:href="#m95bcd7a8d8" y="435.828359"/>
     <use style="stroke:#000000;stroke-linejoin:miter;" x="315.171972" xlink:href="#m95bcd7a8d8" y="443.384581"/>
     <use style="stroke:#000000;stroke-linejoin:miter;" x="321.075485" xlink:href="#m95bcd7a8d8" y="450.940803"/>
     <use style="stroke:#000000;stroke-linejoin:miter;" x="326.541284" xlink:href="#m95bcd7a8d8" y="458.497025"/>
     <use style="stroke:#000000;stroke-linejoin:miter;" x="331.629821" xlink:href="#m95bcd7a8d8" y="466.053247"/>
     <use style="stroke:#000000;stroke-linejoin:miter;" x="336.389829" xlink:href="#m95bcd7a8d8" y="473.609469"/>
     <use style="stroke:#000000;stroke-linejoin:miter;" x="340.86117" xlink:href="#m95bcd7a8d8" y="481.165691"/>
     <use style="stroke:#000000;stroke-linejoin:miter;" x="345.076862" xlink:href="#m95bcd7a8d8" y="488.721912"/>
     <use style="stroke:#000000;stroke-linejoin:miter;" x="349.064565" xlink:href="#m95bcd7a8d8" y="496.278134"/>
     <use style="stroke:#000000;stroke-linejoin:miter;" x="352.847678" xlink:href="#m95bcd7a8d8" y="503.834356"/>
     <use style="stroke:#000000;stroke-linejoin:miter;" x="356.446173" xlink:href="#m95bcd7a8d8" y="511.390578"/>
     <use style="stroke:#000000;stroke-linejoin:miter;" x="359.877235" xlink:href="#m95bcd7a8d8" y="518.9468"/>
     <use style="stroke:#000000;stroke-linejoin:miter;" x="363.155754" xlink:href="#m95bcd7a8d8" y="526.503022"/>
     <use style="stroke:#000000;stroke-linejoin:miter;" x="366.294719" xlink:href="#m95bcd7a8d8" y="534.059244"/>
     <use style="stroke:#000000;stroke-linejoin:miter;" x="369.305526" xlink:href="#m95bcd7a8d8" y="541.615466"/>
     <use style="stroke:#000000;stroke-linejoin:miter;" x="372.198231" xlink:href="#m95bcd7a8d8" y="549.171688"/>
     <use style="stroke:#000000;stroke-linejoin:miter;" x="374.981751" xlink:href="#m95bcd7a8d8" y="556.727909"/>
     <use style="stroke:#000000;stroke-linejoin:miter;" x="377.66403" xlink:href="#m95bcd7a8d8" y="564.284131"/>
     <use style="stroke:#000000;stroke-linejoin:miter;" x="380.252174" xlink:href="#m95bcd7a8d8" y="571.840353"/>
    </g>
   </g>
   <g id="patch_15">
    <path d="M 40.6 582.796875 
L 40.6 341.753397 
" style="fill:none;stroke:#ff0000;stroke-linecap:square;stroke-linejoin:miter;stroke-width:4;"/>
   </g>
   <g id="patch_16">
    <path d="M 380.252174 582.796875 
L 380.252174 341.753397 
" style="fill:none;stroke:#ff0000;stroke-linecap:square;stroke-linejoin:miter;stroke-width:4;"/>
   </g>
   <g id="patch_17">
    <path d="M 40.6 582.796875 
L 380.252174 582.796875 
" style="fill:none;stroke:#0000ff;stroke-linecap:square;stroke-linejoin:miter;stroke-width:2;"/>
   </g>
   <g id="patch_18">
    <path d="M 40.6 341.753397 
L 380.252174 341.753397 
" style="fill:none;stroke:#0000ff;stroke-linecap:square;stroke-linejoin:miter;stroke-width:2;"/>
   </g>
   <g id="text_35">
    <!-- Log axis &amp; style -->
    <g transform="translate(120.822962 335.753397)scale(0.2 -0.2)">
     <defs>
      <path d="M 9.1875 72.90625 
L 27.984375 72.90625 
L 27.984375 14.203125 
L 60.984375 14.203125 
L 60.984375 0 
L 9.1875 0 
z
" id="DejaVuSans-Bold-76"/>
      <path d="M 1.21875 54.6875 
L 18.703125 54.6875 
L 33.40625 17.578125 
L 45.90625 54.6875 
L 63.375 54.6875 
L 40.375 -5.171875 
Q 36.921875 -14.3125 32.296875 -17.9375 
Q 27.6875 -21.578125 20.125 -21.578125 
L 10.015625 -21.578125 
L 10.015625 -10.109375 
L 15.484375 -10.109375 
Q 19.921875 -10.109375 21.9375 -8.6875 
Q 23.96875 -7.28125 25.09375 -3.609375 
L 25.59375 -2.09375 
z
" id="DejaVuSans-Bold-121"/>
      <path d="M 8.40625 75.984375 
L 25.875 75.984375 
L 25.875 0 
L 8.40625 0 
z
" id="DejaVuSans-Bold-108"/>
     </defs>
     <use xlink:href="#DejaVuSans-Bold-76"/>
     <use x="63.720703" xlink:href="#DejaVuSans-Bold-111"/>
     <use x="132.421875" xlink:href="#DejaVuSans-Bold-103"/>
     <use x="204.003906" xlink:href="#DejaVuSans-Bold-32"/>
     <use x="238.818359" xlink:href="#DejaVuSans-Bold-97"/>
     <use x="306.298828" xlink:href="#DejaVuSans-Bold-120"/>
     <use x="370.800781" xlink:href="#DejaVuSans-Bold-105"/>
     <use x="405.078125" xlink:href="#DejaVuSans-Bold-115"/>
     <use x="464.599609" xlink:href="#DejaVuSans-Bold-32"/>
     <use x="499.414062" xlink:href="#DejaVuSans-Bold-38"/>
     <use x="586.621094" xlink:href="#DejaVuSans-Bold-32"/>
     <use x="621.435547" xlink:href="#DejaVuSans-Bold-115"/>
     <use x="680.957031" xlink:href="#DejaVuSans-Bold-116"/>
     <use x="728.759766" xlink:href="#DejaVuSans-Bold-121"/>
     <use x="793.945312" xlink:href="#DejaVuSans-Bold-108"/>
     <use x="828.222656" xlink:href="#DejaVuSans-Bold-101"/>
    </g>
   </g>
   <g id="legend_3">
    <g id="patch_19">
     <path d="M 313.027955 371.234959 
L 371.152174 371.234959 
Q 373.752174 371.234959 373.752174 368.634959 
L 373.752174 350.853397 
Q 373.752174 348.253397 371.152174 348.253397 
L 313.027955 348.253397 
Q 310.427955 348.253397 310.427955 350.853397 
L 310.427955 368.634959 
Q 310.427955 371.234959 313.027955 371.234959 
z
" style="fill:#ffffff;opacity:0.8;stroke:#cccccc;stroke-linejoin:miter;"/>
    </g>
    <g id="line2d_82">
     <path d="M 315.627955 358.781365 
L 341.627955 358.781365 
" style="fill:none;stroke:#000000;stroke-linecap:square;stroke-width:2;"/>
    </g>
    <g id="line2d_83">
     <g>
      <use style="stroke:#000000;stroke-linejoin:miter;" x="328.627955" xlink:href="#m95bcd7a8d8" y="358.781365"/>
     </g>
    </g>
    <g id="text_36">
     <!-- S1 -->
     <g transform="translate(352.027955 363.331365)scale(0.13 -0.13)">
      <use xlink:href="#DejaVuSans-83"/>
      <use x="63.476562" xlink:href="#DejaVuSans-49"/>
     </g>
    </g>
   </g>
  </g>
  <g id="axes_4">
   <g id="patch_20">
    <path d="M 482.147826 582.796875 
L 821.8 582.796875 
L 821.8 341.753397 
L 482.147826 341.753397 
z
" style="fill:#ffffff;"/>
   </g>
   <g id="matplotlib.axis_7">
    <g id="xtick_32">
     <g id="line2d_84">
      <g>
       <use style="stroke:#000000;stroke-width:0.8;" x="482.147826" xlink:href="#m10c8a73a7b" y="582.796875"/>
      </g>
     </g>
     <g id="text_37">
      <!-- 2 -->
      <g transform="translate(477.375951 601.194531)scale(0.15 -0.15)">
       <use xlink:href="#DejaVuSans-50"/>
      </g>
     </g>
    </g>
    <g id="xtick_33">
     <g id="line2d_85">
      <g>
       <use style="stroke:#000000;stroke-width:0.8;" x="538.756522" xlink:href="#m10c8a73a7b" y="582.796875"/>
      </g>
     </g>
     <g id="text_38">
      <!-- 3 -->
      <g transform="translate(533.984647 601.194531)scale(0.15 -0.15)">
       <defs>
        <path d="M 40.578125 39.3125 
Q 47.65625 37.796875 51.625 33 
Q 55.609375 28.21875 55.609375 21.1875 
Q 55.609375 10.40625 48.1875 4.484375 
Q 40.765625 -1.421875 27.09375 -1.421875 
Q 22.515625 -1.421875 17.65625 -0.515625 
Q 12.796875 0.390625 7.625 2.203125 
L 7.625 11.71875 
Q 11.71875 9.328125 16.59375 8.109375 
Q 21.484375 6.890625 26.8125 6.890625 
Q 36.078125 6.890625 40.9375 10.546875 
Q 45.796875 14.203125 45.796875 21.1875 
Q 45.796875 27.640625 41.28125 31.265625 
Q 36.765625 34.90625 28.71875 34.90625 
L 20.21875 34.90625 
L 20.21875 43.015625 
L 29.109375 43.015625 
Q 36.375 43.015625 40.234375 45.921875 
Q 44.09375 48.828125 44.09375 54.296875 
Q 44.09375 59.90625 40.109375 62.90625 
Q 36.140625 65.921875 28.71875 65.921875 
Q 24.65625 65.921875 20.015625 65.03125 
Q 15.375 64.15625 9.8125 62.3125 
L 9.8125 71.09375 
Q 15.4375 72.65625 20.34375 73.4375 
Q 25.25 74.21875 29.59375 74.21875 
Q 40.828125 74.21875 47.359375 69.109375 
Q 53.90625 64.015625 53.90625 55.328125 
Q 53.90625 49.265625 50.4375 45.09375 
Q 46.96875 40.921875 40.578125 39.3125 
z
" id="DejaVuSans-51"/>
       </defs>
       <use xlink:href="#DejaVuSans-51"/>
      </g>
     </g>
    </g>
    <g id="xtick_34">
     <g id="line2d_86">
      <g>
       <use style="stroke:#000000;stroke-width:0.8;" x="595.365217" xlink:href="#m10c8a73a7b" y="582.796875"/>
      </g>
     </g>
     <g id="text_39">
      <!-- 4 -->
      <g transform="translate(590.593342 601.194531)scale(0.15 -0.15)">
       <use xlink:href="#DejaVuSans-52"/>
      </g>
     </g>
    </g>
    <g id="xtick_35">
     <g id="line2d_87">
      <g>
       <use style="stroke:#000000;stroke-width:0.8;" x="651.973913" xlink:href="#m10c8a73a7b" y="582.796875"/>
      </g>
     </g>
     <g id="text_40">
      <!-- 5 -->
      <g transform="translate(647.202038 601.194531)scale(0.15 -0.15)">
       <defs>
        <path d="M 10.796875 72.90625 
L 49.515625 72.90625 
L 49.515625 64.59375 
L 19.828125 64.59375 
L 19.828125 46.734375 
Q 21.96875 47.46875 24.109375 47.828125 
Q 26.265625 48.1875 28.421875 48.1875 
Q 40.625 48.1875 47.75 41.5 
Q 54.890625 34.8125 54.890625 23.390625 
Q 54.890625 11.625 47.5625 5.09375 
Q 40.234375 -1.421875 26.90625 -1.421875 
Q 22.3125 -1.421875 17.546875 -0.640625 
Q 12.796875 0.140625 7.71875 1.703125 
L 7.71875 11.625 
Q 12.109375 9.234375 16.796875 8.0625 
Q 21.484375 6.890625 26.703125 6.890625 
Q 35.15625 6.890625 40.078125 11.328125 
Q 45.015625 15.765625 45.015625 23.390625 
Q 45.015625 31 40.078125 35.4375 
Q 35.15625 39.890625 26.703125 39.890625 
Q 22.75 39.890625 18.8125 39.015625 
Q 14.890625 38.140625 10.796875 36.28125 
z
" id="DejaVuSans-53"/>
       </defs>
       <use xlink:href="#DejaVuSans-53"/>
      </g>
     </g>
    </g>
    <g id="xtick_36">
     <g id="line2d_88">
      <g>
       <use style="stroke:#000000;stroke-width:0.8;" x="708.582609" xlink:href="#m10c8a73a7b" y="582.796875"/>
      </g>
     </g>
     <g id="text_41">
      <!-- 6 -->
      <g transform="translate(703.810734 601.194531)scale(0.15 -0.15)">
       <use xlink:href="#DejaVuSans-54"/>
      </g>
     </g>
    </g>
    <g id="xtick_37">
     <g id="line2d_89">
      <g>
       <use style="stroke:#000000;stroke-width:0.8;" x="765.191304" xlink:href="#m10c8a73a7b" y="582.796875"/>
      </g>
     </g>
     <g id="text_42">
      <!-- 7 -->
      <g transform="translate(760.419429 601.194531)scale(0.15 -0.15)">
       <defs>
        <path d="M 8.203125 72.90625 
L 55.078125 72.90625 
L 55.078125 68.703125 
L 28.609375 0 
L 18.3125 0 
L 43.21875 64.59375 
L 8.203125 64.59375 
z
" id="DejaVuSans-55"/>
       </defs>
       <use xlink:href="#DejaVuSans-55"/>
      </g>
     </g>
    </g>
    <g id="xtick_38">
     <g id="line2d_90">
      <g>
       <use style="stroke:#000000;stroke-width:0.8;" x="821.8" xlink:href="#m10c8a73a7b" y="582.796875"/>
      </g>
     </g>
     <g id="text_43">
      <!-- 8 -->
      <g transform="translate(817.028125 601.194531)scale(0.15 -0.15)">
       <use xlink:href="#DejaVuSans-56"/>
      </g>
     </g>
    </g>
    <g id="text_44">
     <!-- time -->
     <g transform="translate(629.104069 621.99125)scale(0.18 -0.18)">
      <use xlink:href="#DejaVuSans-Bold-116"/>
      <use x="47.802734" xlink:href="#DejaVuSans-Bold-105"/>
      <use x="82.080078" xlink:href="#DejaVuSans-Bold-109"/>
      <use x="186.279297" xlink:href="#DejaVuSans-Bold-101"/>
     </g>
    </g>
   </g>
   <g id="matplotlib.axis_8">
    <g id="ytick_27">
     <g id="line2d_91">
      <g>
       <use style="stroke:#000000;stroke-width:0.8;" x="482.147826" xlink:href="#md1d0c1375a" y="582.796875"/>
      </g>
     </g>
     <g id="text_45">
      <!-- 0 -->
      <g transform="translate(465.604076 588.495703)scale(0.15 -0.15)">
       <use xlink:href="#DejaVuSans-48"/>
      </g>
     </g>
    </g>
    <g id="ytick_28">
     <g id="line2d_92">
      <g>
       <use style="stroke:#000000;stroke-width:0.8;" x="482.147826" xlink:href="#md1d0c1375a" y="552.66644"/>
      </g>
     </g>
     <g id="text_46">
      <!-- 1 -->
      <g transform="translate(465.604076 558.365268)scale(0.15 -0.15)">
       <use xlink:href="#DejaVuSans-49"/>
      </g>
     </g>
    </g>
    <g id="ytick_29">
     <g id="line2d_93">
      <g>
       <use style="stroke:#000000;stroke-width:0.8;" x="482.147826" xlink:href="#md1d0c1375a" y="522.536005"/>
      </g>
     </g>
     <g id="text_47">
      <!-- 2 -->
      <g transform="translate(465.604076 528.234834)scale(0.15 -0.15)">
       <use xlink:href="#DejaVuSans-50"/>
      </g>
     </g>
    </g>
    <g id="ytick_30">
     <g id="line2d_94">
      <g>
       <use style="stroke:#000000;stroke-width:0.8;" x="482.147826" xlink:href="#md1d0c1375a" y="492.405571"/>
      </g>
     </g>
     <g id="text_48">
      <!-- 3 -->
      <g transform="translate(465.604076 498.104399)scale(0.15 -0.15)">
       <use xlink:href="#DejaVuSans-51"/>
      </g>
     </g>
    </g>
    <g id="ytick_31">
     <g id="line2d_95">
      <g>
       <use style="stroke:#000000;stroke-width:0.8;" x="482.147826" xlink:href="#md1d0c1375a" y="462.275136"/>
      </g>
     </g>
     <g id="text_49">
      <!-- 4 -->
      <g transform="translate(465.604076 467.973964)scale(0.15 -0.15)">
       <use xlink:href="#DejaVuSans-52"/>
      </g>
     </g>
    </g>
    <g id="ytick_32">
     <g id="line2d_96">
      <g>
       <use style="stroke:#000000;stroke-width:0.8;" x="482.147826" xlink:href="#md1d0c1375a" y="432.144701"/>
      </g>
     </g>
     <g id="text_50">
      <!-- 5 -->
      <g transform="translate(465.604076 437.843529)scale(0.15 -0.15)">
       <use xlink:href="#DejaVuSans-53"/>
      </g>
     </g>
    </g>
    <g id="ytick_33">
     <g id="line2d_97">
      <g>
       <use style="stroke:#000000;stroke-width:0.8;" x="482.147826" xlink:href="#md1d0c1375a" y="402.014266"/>
      </g>
     </g>
     <g id="text_51">
      <!-- 6 -->
      <g transform="translate(465.604076 407.713094)scale(0.15 -0.15)">
       <use xlink:href="#DejaVuSans-54"/>
      </g>
     </g>
    </g>
    <g id="ytick_34">
     <g id="line2d_98">
      <g>
       <use style="stroke:#000000;stroke-width:0.8;" x="482.147826" xlink:href="#md1d0c1375a" y="371.883832"/>
      </g>
     </g>
     <g id="text_52">
      <!-- 7 -->
      <g transform="translate(465.604076 377.58266)scale(0.15 -0.15)">
       <use xlink:href="#DejaVuSans-55"/>
      </g>
     </g>
    </g>
    <g id="ytick_35">
     <g id="line2d_99">
      <g>
       <use style="stroke:#000000;stroke-width:0.8;" x="482.147826" xlink:href="#md1d0c1375a" y="341.753397"/>
      </g>
     </g>
     <g id="text_53">
      <!-- 8 -->
      <g transform="translate(465.604076 347.452225)scale(0.15 -0.15)">
       <use xlink:href="#DejaVuSans-56"/>
      </g>
     </g>
    </g>
    <g id="text_54">
     <!-- S1 -->
     <g transform="translate(457.860639 475.018573)rotate(-90)scale(0.18 -0.18)">
      <use xlink:href="#DejaVuSans-Bold-83"/>
      <use x="72.021484" xlink:href="#DejaVuSans-Bold-49"/>
     </g>
    </g>
   </g>
   <g id="line2d_100">
    <path clip-path="url(#p413439347e)" d="M 368.930435 281.492527 
L 388.450675 311.103916 
L 407.970915 337.805177 
L 427.491154 361.882309 
L 447.011394 383.593204 
L 466.531634 403.17041 
L 486.051874 420.823621 
L 505.572114 436.741921 
L 525.092354 451.095813 
L 544.612594 464.039043 
L 564.132834 475.710246 
L 583.653073 486.234435 
L 603.173313 495.724335 
L 622.693553 504.281592 
L 642.213793 511.997865 
L 661.734033 518.955803 
L 681.254273 525.229934 
L 700.774513 530.887459 
L 720.294753 535.988979 
L 739.814993 540.589134 
L 759.335232 544.737198 
L 778.855472 548.477602 
L 798.375712 551.850409 
L 817.895952 554.891745 
L 834.771875 557.262681 
" style="fill:none;stroke:#000000;stroke-linecap:square;stroke-width:2;"/>
    <g clip-path="url(#p413439347e)">
     <use style="stroke:#000000;stroke-linejoin:miter;" x="368.930435" xlink:href="#m95bcd7a8d8" y="281.492527"/>
     <use style="stroke:#000000;stroke-linejoin:miter;" x="388.450675" xlink:href="#m95bcd7a8d8" y="311.103916"/>
     <use style="stroke:#000000;stroke-linejoin:miter;" x="407.970915" xlink:href="#m95bcd7a8d8" y="337.805177"/>
     <use style="stroke:#000000;stroke-linejoin:miter;" x="427.491154" xlink:href="#m95bcd7a8d8" y="361.882309"/>
     <use style="stroke:#000000;stroke-linejoin:miter;" x="447.011394" xlink:href="#m95bcd7a8d8" y="383.593204"/>
     <use style="stroke:#000000;stroke-linejoin:miter;" x="466.531634" xlink:href="#m95bcd7a8d8" y="403.17041"/>
     <use style="stroke:#000000;stroke-linejoin:miter;" x="486.051874" xlink:href="#m95bcd7a8d8" y="420.823621"/>
     <use style="stroke:#000000;stroke-linejoin:miter;" x="505.572114" xlink:href="#m95bcd7a8d8" y="436.741921"/>
     <use style="stroke:#000000;stroke-linejoin:miter;" x="525.092354" xlink:href="#m95bcd7a8d8" y="451.095813"/>
     <use style="stroke:#000000;stroke-linejoin:miter;" x="544.612594" xlink:href="#m95bcd7a8d8" y="464.039043"/>
     <use style="stroke:#000000;stroke-linejoin:miter;" x="564.132834" xlink:href="#m95bcd7a8d8" y="475.710246"/>
     <use style="stroke:#000000;stroke-linejoin:miter;" x="583.653073" xlink:href="#m95bcd7a8d8" y="486.234435"/>
     <use style="stroke:#000000;stroke-linejoin:miter;" x="603.173313" xlink:href="#m95bcd7a8d8" y="495.724335"/>
     <use style="stroke:#000000;stroke-linejoin:miter;" x="622.693553" xlink:href="#m95bcd7a8d8" y="504.281592"/>
     <use style="stroke:#000000;stroke-linejoin:miter;" x="642.213793" xlink:href="#m95bcd7a8d8" y="511.997865"/>
     <use style="stroke:#000000;stroke-linejoin:miter;" x="661.734033" xlink:href="#m95bcd7a8d8" y="518.955803"/>
     <use style="stroke:#000000;stroke-linejoin:miter;" x="681.254273" xlink:href="#m95bcd7a8d8" y="525.229934"/>
     <use style="stroke:#000000;stroke-linejoin:miter;" x="700.774513" xlink:href="#m95bcd7a8d8" y="530.887459"/>
     <use style="stroke:#000000;stroke-linejoin:miter;" x="720.294753" xlink:href="#m95bcd7a8d8" y="535.988979"/>
     <use style="stroke:#000000;stroke-linejoin:miter;" x="739.814993" xlink:href="#m95bcd7a8d8" y="540.589134"/>
     <use style="stroke:#000000;stroke-linejoin:miter;" x="759.335232" xlink:href="#m95bcd7a8d8" y="544.737198"/>
     <use style="stroke:#000000;stroke-linejoin:miter;" x="778.855472" xlink:href="#m95bcd7a8d8" y="548.477602"/>
     <use style="stroke:#000000;stroke-linejoin:miter;" x="798.375712" xlink:href="#m95bcd7a8d8" y="551.850409"/>
     <use style="stroke:#000000;stroke-linejoin:miter;" x="817.895952" xlink:href="#m95bcd7a8d8" y="554.891745"/>
     <use style="stroke:#000000;stroke-linejoin:miter;" x="837.416192" xlink:href="#m95bcd7a8d8" y="557.634187"/>
     <use style="stroke:#000000;stroke-linejoin:miter;" x="856.936432" xlink:href="#m95bcd7a8d8" y="560.107109"/>
     <use style="stroke:#000000;stroke-linejoin:miter;" x="876.456672" xlink:href="#m95bcd7a8d8" y="562.336999"/>
     <use style="stroke:#000000;stroke-linejoin:miter;" x="895.976912" xlink:href="#m95bcd7a8d8" y="564.347741"/>
     <use style="stroke:#000000;stroke-linejoin:miter;" x="915.497151" xlink:href="#m95bcd7a8d8" y="566.160873"/>
     <use style="stroke:#000000;stroke-linejoin:miter;" x="935.017391" xlink:href="#m95bcd7a8d8" y="567.795815"/>
    </g>
   </g>
   <g id="patch_21">
    <path d="M 482.147826 582.796875 
L 482.147826 341.753397 
" style="fill:none;stroke:#ffffff;stroke-linecap:square;stroke-linejoin:miter;stroke-width:0.8;"/>
   </g>
   <g id="patch_22">
    <path d="M 821.8 582.796875 
L 821.8 341.753397 
" style="fill:none;stroke:#ffffff;stroke-linecap:square;stroke-linejoin:miter;stroke-width:0.8;"/>
   </g>
   <g id="patch_23">
    <path d="M 482.147826 582.796875 
L 821.8 582.796875 
" style="fill:none;stroke:#ffffff;stroke-linecap:square;stroke-linejoin:miter;stroke-width:0.8;"/>
   </g>
   <g id="patch_24">
    <path d="M 482.147826 341.753397 
L 821.8 341.753397 
" style="fill:none;stroke:#ffffff;stroke-linecap:square;stroke-linejoin:miter;stroke-width:0.8;"/>
   </g>
   <g id="text_55">
    <!-- Hidden, no legend, min/max -->
    <g transform="translate(493.262976 335.753397)scale(0.2 -0.2)">
     <defs>
      <path d="M 9.1875 72.90625 
L 27.984375 72.90625 
L 27.984375 45.125 
L 55.71875 45.125 
L 55.71875 72.90625 
L 74.515625 72.90625 
L 74.515625 0 
L 55.71875 0 
L 55.71875 30.90625 
L 27.984375 30.90625 
L 27.984375 0 
L 9.1875 0 
z
" id="DejaVuSans-Bold-72"/>
      <path d="M 63.375 33.296875 
L 63.375 0 
L 45.796875 0 
L 45.796875 5.421875 
L 45.796875 25.484375 
Q 45.796875 32.5625 45.484375 35.25 
Q 45.171875 37.9375 44.390625 39.203125 
Q 43.359375 40.921875 41.59375 41.875 
Q 39.84375 42.828125 37.59375 42.828125 
Q 32.125 42.828125 29 38.59375 
Q 25.875 34.375 25.875 26.90625 
L 25.875 0 
L 8.40625 0 
L 8.40625 54.6875 
L 25.875 54.6875 
L 25.875 46.6875 
Q 29.828125 51.46875 34.265625 53.734375 
Q 38.71875 56 44.09375 56 
Q 53.5625 56 58.46875 50.1875 
Q 63.375 44.390625 63.375 33.296875 
z
" id="DejaVuSans-Bold-110"/>
      <path d="M 10.203125 18.890625 
L 27.78125 18.890625 
L 27.78125 4 
L 15.71875 -14.203125 
L 5.328125 -14.203125 
L 10.203125 4 
z
" id="DejaVuSans-Bold-44"/>
      <path d="M 25.6875 72.90625 
L 36.53125 72.90625 
L 10.796875 -9.28125 
L 0 -9.28125 
z
" id="DejaVuSans-Bold-47"/>
     </defs>
     <use xlink:href="#DejaVuSans-Bold-72"/>
     <use x="83.691406" xlink:href="#DejaVuSans-Bold-105"/>
     <use x="117.96875" xlink:href="#DejaVuSans-Bold-100"/>
     <use x="189.550781" xlink:href="#DejaVuSans-Bold-100"/>
     <use x="261.132812" xlink:href="#DejaVuSans-Bold-101"/>
     <use x="328.955078" xlink:href="#DejaVuSans-Bold-110"/>
     <use x="400.146484" xlink:href="#DejaVuSans-Bold-44"/>
     <use x="438.134766" xlink:href="#DejaVuSans-Bold-32"/>
     <use x="472.949219" xlink:href="#DejaVuSans-Bold-110"/>
     <use x="544.140625" xlink:href="#DejaVuSans-Bold-111"/>
     <use x="612.841797" xlink:href="#DejaVuSans-Bold-32"/>
     <use x="647.65625" xlink:href="#DejaVuSans-Bold-108"/>
     <use x="681.933594" xlink:href="#DejaVuSans-Bold-101"/>
     <use x="749.755859" xlink:href="#DejaVuSans-Bold-103"/>
     <use x="821.337891" xlink:href="#DejaVuSans-Bold-101"/>
     <use x="889.160156" xlink:href="#DejaVuSans-Bold-110"/>
     <use x="960.351562" xlink:href="#DejaVuSans-Bold-100"/>
     <use x="1031.933594" xlink:href="#DejaVuSans-Bold-44"/>
     <use x="1069.921875" xlink:href="#DejaVuSans-Bold-32"/>
     <use x="1104.736328" xlink:href="#DejaVuSans-Bold-109"/>
     <use x="1208.935547" xlink:href="#DejaVuSans-Bold-105"/>
     <use x="1243.212891" xlink:href="#DejaVuSans-Bold-110"/>
     <use x="1314.404297" xlink:href="#DejaVuSans-Bold-47"/>
     <use x="1350.927734" xlink:href="#DejaVuSans-Bold-109"/>
     <use x="1455.126953" xlink:href="#DejaVuSans-Bold-97"/>
     <use x="1522.607422" xlink:href="#DejaVuSans-Bold-120"/>
    </g>
   </g>
  </g>
 </g>
 <defs>
  <clipPath id="p043b2e6986">
   <rect height="241.043478" width="339.652174" x="40.6" y="28.396875"/>
  </clipPath>
  <clipPath id="p4d691fb839">
   <rect height="241.043478" width="339.652174" x="482.147826" y="28.396875"/>
  </clipPath>
  <clipPath id="pedfd49f8cd">
   <rect height="241.043478" width="339.652174" x="40.6" y="341.753397"/>
  </clipPath>
  <clipPath id="p413439347e">
   <rect height="241.043478" width="339.652174" x="482.147826" y="341.753397"/>
  </clipPath>
 </defs>
</svg>
