<?xml version="1.0" encoding="utf-8" standalone="no"?>
<!DOCTYPE svg PUBLIC "-//W3C//DTD SVG 1.1//EN"
  "http://www.w3.org/Graphics/SVG/1.1/DTD/svg11.dtd">
<!-- Created with matplotlib (https://matplotlib.org/) -->
<svg height="339.425938pt" version="1.1" viewBox="0 0 331.28375 339.425938" width="331.28375pt" xmlns="http://www.w3.org/2000/svg" xmlns:xlink="http://www.w3.org/1999/xlink">
 <defs>
  <style type="text/css">
*{stroke-linecap:butt;stroke-linejoin:round;}
  </style>
 </defs>
 <g id="figure_1">
  <g id="patch_1">
   <path d="M 0 339.425938 
L 331.28375 339.425938 
L 331.28375 0 
L 0 0 
z
" style="fill:#ffffff;"/>
  </g>
  <g id="axes_1">
   <g id="patch_2">
    <path d="M 45.08375 297.998438 
L 324.08375 297.998438 
L 324.08375 20.798438 
L 45.08375 20.798438 
z
" style="fill:#ffffff;"/>
   </g>
   <g id="matplotlib.axis_1">
    <g id="xtick_1">
     <g id="line2d_1">
      <defs>
       <path d="M 0 0 
L 0 3.5 
" id="m135fdf8428" style="stroke:#000000;stroke-width:0.8;"/>
      </defs>
      <g>
       <use style="stroke:#000000;stroke-width:0.8;" x="57.765568" xlink:href="#m135fdf8428" y="297.998438"/>
      </g>
     </g>
     <g id="text_1">
      <!-- 0 -->
      <defs>
       <path d="M 31.78125 66.40625 
Q 24.171875 66.40625 20.328125 58.90625 
Q 16.5 51.421875 16.5 36.375 
Q 16.5 21.390625 20.328125 13.890625 
Q 24.171875 6.390625 31.78125 6.390625 
Q 39.453125 6.390625 43.28125 13.890625 
Q 47.125 21.390625 47.125 36.375 
Q 47.125 51.421875 43.28125 58.90625 
Q 39.453125 66.40625 31.78125 66.40625 
z
M 31.78125 74.21875 
Q 44.046875 74.21875 50.515625 64.515625 
Q 56.984375 54.828125 56.984375 36.375 
Q 56.984375 17.96875 50.515625 8.265625 
Q 44.046875 -1.421875 31.78125 -1.421875 
Q 19.53125 -1.421875 13.0625 8.265625 
Q 6.59375 17.96875 6.59375 36.375 
Q 6.59375 54.828125 13.0625 64.515625 
Q 19.53125 74.21875 31.78125 74.21875 
z
" id="DejaVuSans-48"/>
      </defs>
      <g transform="translate(53.948068 314.116563)scale(0.12 -0.12)">
       <use xlink:href="#DejaVuSans-48"/>
      </g>
     </g>
    </g>
    <g id="xtick_2">
     <g id="line2d_2">
      <g>
       <use style="stroke:#000000;stroke-width:0.8;" x="121.174659" xlink:href="#m135fdf8428" y="297.998438"/>
      </g>
     </g>
     <g id="text_2">
      <!-- 5 -->
      <defs>
       <path d="M 10.796875 72.90625 
L 49.515625 72.90625 
L 49.515625 64.59375 
L 19.828125 64.59375 
L 19.828125 46.734375 
Q 21.96875 47.46875 24.109375 47.828125 
Q 26.265625 48.1875 28.421875 48.1875 
Q 40.625 48.1875 47.75 41.5 
Q 54.890625 34.8125 54.890625 23.390625 
Q 54.890625 11.625 47.5625 5.09375 
Q 40.234375 -1.421875 26.90625 -1.421875 
Q 22.3125 -1.421875 17.546875 -0.640625 
Q 12.796875 0.140625 7.71875 1.703125 
L 7.71875 11.625 
Q 12.109375 9.234375 16.796875 8.0625 
Q 21.484375 6.890625 26.703125 6.890625 
Q 35.15625 6.890625 40.078125 11.328125 
Q 45.015625 15.765625 45.015625 23.390625 
Q 45.015625 31 40.078125 35.4375 
Q 35.15625 39.890625 26.703125 39.890625 
Q 22.75 39.890625 18.8125 39.015625 
Q 14.890625 38.140625 10.796875 36.28125 
z
" id="DejaVuSans-53"/>
      </defs>
      <g transform="translate(117.357159 314.116563)scale(0.12 -0.12)">
       <use xlink:href="#DejaVuSans-53"/>
      </g>
     </g>
    </g>
    <g id="xtick_3">
     <g id="line2d_3">
      <g>
       <use style="stroke:#000000;stroke-width:0.8;" x="184.58375" xlink:href="#m135fdf8428" y="297.998438"/>
      </g>
     </g>
     <g id="text_3">
      <!-- 10 -->
      <defs>
       <path d="M 12.40625 8.296875 
L 28.515625 8.296875 
L 28.515625 63.921875 
L 10.984375 60.40625 
L 10.984375 69.390625 
L 28.421875 72.90625 
L 38.28125 72.90625 
L 38.28125 8.296875 
L 54.390625 8.296875 
L 54.390625 0 
L 12.40625 0 
z
" id="DejaVuSans-49"/>
      </defs>
      <g transform="translate(176.94875 314.116563)scale(0.12 -0.12)">
       <use xlink:href="#DejaVuSans-49"/>
       <use x="63.623047" xlink:href="#DejaVuSans-48"/>
      </g>
     </g>
    </g>
    <g id="xtick_4">
     <g id="line2d_4">
      <g>
       <use style="stroke:#000000;stroke-width:0.8;" x="247.992841" xlink:href="#m135fdf8428" y="297.998438"/>
      </g>
     </g>
     <g id="text_4">
      <!-- 15 -->
      <g transform="translate(240.357841 314.116563)scale(0.12 -0.12)">
       <use xlink:href="#DejaVuSans-49"/>
       <use x="63.623047" xlink:href="#DejaVuSans-53"/>
      </g>
     </g>
    </g>
    <g id="xtick_5">
     <g id="line2d_5">
      <g>
       <use style="stroke:#000000;stroke-width:0.8;" x="311.401932" xlink:href="#m135fdf8428" y="297.998438"/>
      </g>
     </g>
     <g id="text_5">
      <!-- 20 -->
      <defs>
       <path d="M 19.1875 8.296875 
L 53.609375 8.296875 
L 53.609375 0 
L 7.328125 0 
L 7.328125 8.296875 
Q 12.9375 14.109375 22.625 23.890625 
Q 32.328125 33.6875 34.8125 36.53125 
Q 39.546875 41.84375 41.421875 45.53125 
Q 43.3125 49.21875 43.3125 52.78125 
Q 43.3125 58.59375 39.234375 62.25 
Q 35.15625 65.921875 28.609375 65.921875 
Q 23.96875 65.921875 18.8125 64.3125 
Q 13.671875 62.703125 7.8125 59.421875 
L 7.8125 69.390625 
Q 13.765625 71.78125 18.9375 73 
Q 24.125 74.21875 28.421875 74.21875 
Q 39.75 74.21875 46.484375 68.546875 
Q 53.21875 62.890625 53.21875 53.421875 
Q 53.21875 48.921875 51.53125 44.890625 
Q 49.859375 40.875 45.40625 35.40625 
Q 44.1875 33.984375 37.640625 27.21875 
Q 31.109375 20.453125 19.1875 8.296875 
z
" id="DejaVuSans-50"/>
      </defs>
      <g transform="translate(303.766932 314.116563)scale(0.12 -0.12)">
       <use xlink:href="#DejaVuSans-50"/>
       <use x="63.623047" xlink:href="#DejaVuSans-48"/>
      </g>
     </g>
    </g>
    <g id="text_6">
     <!-- time [min] -->
     <defs>
      <path d="M 27.484375 70.21875 
L 27.484375 54.6875 
L 45.515625 54.6875 
L 45.515625 42.1875 
L 27.484375 42.1875 
L 27.484375 19 
Q 27.484375 15.1875 29 13.84375 
Q 30.515625 12.5 35.015625 12.5 
L 44 12.5 
L 44 0 
L 29 0 
Q 18.65625 0 14.328125 4.3125 
Q 10.015625 8.640625 10.015625 19 
L 10.015625 42.1875 
L 1.3125 42.1875 
L 1.3125 54.6875 
L 10.015625 54.6875 
L 10.015625 70.21875 
z
" id="DejaVuSans-Bold-116"/>
      <path d="M 8.40625 54.6875 
L 25.875 54.6875 
L 25.875 0 
L 8.40625 0 
z
M 8.40625 75.984375 
L 25.875 75.984375 
L 25.875 61.71875 
L 8.40625 61.71875 
z
" id="DejaVuSans-Bold-105"/>
      <path d="M 59.078125 45.609375 
Q 62.40625 50.6875 66.96875 53.34375 
Q 71.53125 56 77 56 
Q 86.421875 56 91.359375 50.1875 
Q 96.296875 44.390625 96.296875 33.296875 
L 96.296875 0 
L 78.71875 0 
L 78.71875 28.515625 
Q 78.765625 29.15625 78.78125 29.828125 
Q 78.8125 30.515625 78.8125 31.78125 
Q 78.8125 37.59375 77.09375 40.203125 
Q 75.390625 42.828125 71.578125 42.828125 
Q 66.609375 42.828125 63.890625 38.71875 
Q 61.1875 34.625 61.078125 26.859375 
L 61.078125 0 
L 43.5 0 
L 43.5 28.515625 
Q 43.5 37.59375 41.9375 40.203125 
Q 40.375 42.828125 36.375 42.828125 
Q 31.34375 42.828125 28.609375 38.703125 
Q 25.875 34.578125 25.875 26.90625 
L 25.875 0 
L 8.296875 0 
L 8.296875 54.6875 
L 25.875 54.6875 
L 25.875 46.6875 
Q 29.109375 51.3125 33.28125 53.65625 
Q 37.453125 56 42.484375 56 
Q 48.140625 56 52.484375 53.265625 
Q 56.84375 50.53125 59.078125 45.609375 
z
" id="DejaVuSans-Bold-109"/>
      <path d="M 62.984375 27.484375 
L 62.984375 22.515625 
L 22.125 22.515625 
Q 22.75 16.359375 26.5625 13.28125 
Q 30.375 10.203125 37.203125 10.203125 
Q 42.71875 10.203125 48.5 11.84375 
Q 54.296875 13.484375 60.40625 16.796875 
L 60.40625 3.328125 
Q 54.203125 0.984375 48 -0.21875 
Q 41.796875 -1.421875 35.59375 -1.421875 
Q 20.75 -1.421875 12.515625 6.125 
Q 4.296875 13.671875 4.296875 27.296875 
Q 4.296875 40.671875 12.375 48.328125 
Q 20.453125 56 34.625 56 
Q 47.515625 56 55.25 48.234375 
Q 62.984375 40.484375 62.984375 27.484375 
z
M 45.015625 33.296875 
Q 45.015625 38.28125 42.109375 41.328125 
Q 39.203125 44.390625 34.515625 44.390625 
Q 29.4375 44.390625 26.265625 41.53125 
Q 23.09375 38.671875 22.3125 33.296875 
z
" id="DejaVuSans-Bold-101"/>
      <path id="DejaVuSans-Bold-32"/>
      <path d="M 8.59375 75.984375 
L 38.921875 75.984375 
L 38.921875 64.984375 
L 25.203125 64.984375 
L 25.203125 -2.203125 
L 38.921875 -2.203125 
L 38.921875 -13.1875 
L 8.59375 -13.1875 
z
" id="DejaVuSans-Bold-91"/>
      <path d="M 63.375 33.296875 
L 63.375 0 
L 45.796875 0 
L 45.796875 5.421875 
L 45.796875 25.484375 
Q 45.796875 32.5625 45.484375 35.25 
Q 45.171875 37.9375 44.390625 39.203125 
Q 43.359375 40.921875 41.59375 41.875 
Q 39.84375 42.828125 37.59375 42.828125 
Q 32.125 42.828125 29 38.59375 
Q 25.875 34.375 25.875 26.90625 
L 25.875 0 
L 8.40625 0 
L 8.40625 54.6875 
L 25.875 54.6875 
L 25.875 46.6875 
Q 29.828125 51.46875 34.265625 53.734375 
Q 38.71875 56 44.09375 56 
Q 53.5625 56 58.46875 50.1875 
Q 63.375 44.390625 63.375 33.296875 
z
" id="DejaVuSans-Bold-110"/>
      <path d="M 37.109375 -13.1875 
L 6.78125 -13.1875 
L 6.78125 -2.203125 
L 20.515625 -2.203125 
L 20.515625 64.984375 
L 6.78125 64.984375 
L 6.78125 75.984375 
L 37.109375 75.984375 
z
" id="DejaVuSans-Bold-93"/>
     </defs>
     <g transform="translate(149.18375 329.730313)scale(0.12 -0.12)">
      <use xlink:href="#DejaVuSans-Bold-116"/>
      <use x="47.802734" xlink:href="#DejaVuSans-Bold-105"/>
      <use x="82.080078" xlink:href="#DejaVuSans-Bold-109"/>
      <use x="186.279297" xlink:href="#DejaVuSans-Bold-101"/>
      <use x="254.101562" xlink:href="#DejaVuSans-Bold-32"/>
      <use x="288.916016" xlink:href="#DejaVuSans-Bold-91"/>
      <use x="334.619141" xlink:href="#DejaVuSans-Bold-109"/>
      <use x="438.818359" xlink:href="#DejaVuSans-Bold-105"/>
      <use x="473.095703" xlink:href="#DejaVuSans-Bold-110"/>
      <use x="544.287109" xlink:href="#DejaVuSans-Bold-93"/>
     </g>
    </g>
   </g>
   <g id="matplotlib.axis_2">
    <g id="ytick_1">
     <g id="line2d_6">
      <defs>
       <path d="M 0 0 
L -3.5 0 
" id="mbed3d44207" style="stroke:#000000;stroke-width:0.8;"/>
      </defs>
      <g>
       <use style="stroke:#000000;stroke-width:0.8;" x="45.08375" xlink:href="#mbed3d44207" y="285.398438"/>
      </g>
     </g>
     <g id="text_7">
      <!-- 0 -->
      <g transform="translate(30.44875 289.9575)scale(0.12 -0.12)">
       <use xlink:href="#DejaVuSans-48"/>
      </g>
     </g>
    </g>
    <g id="ytick_2">
     <g id="line2d_7">
      <g>
       <use style="stroke:#000000;stroke-width:0.8;" x="45.08375" xlink:href="#mbed3d44207" y="252.917737"/>
      </g>
     </g>
     <g id="text_8">
      <!-- 5 -->
      <g transform="translate(30.44875 257.476799)scale(0.12 -0.12)">
       <use xlink:href="#DejaVuSans-53"/>
      </g>
     </g>
    </g>
    <g id="ytick_3">
     <g id="line2d_8">
      <g>
       <use style="stroke:#000000;stroke-width:0.8;" x="45.08375" xlink:href="#mbed3d44207" y="220.437036"/>
      </g>
     </g>
     <g id="text_9">
      <!-- 10 -->
      <g transform="translate(22.81375 224.996099)scale(0.12 -0.12)">
       <use xlink:href="#DejaVuSans-49"/>
       <use x="63.623047" xlink:href="#DejaVuSans-48"/>
      </g>
     </g>
    </g>
    <g id="ytick_4">
     <g id="line2d_9">
      <g>
       <use style="stroke:#000000;stroke-width:0.8;" x="45.08375" xlink:href="#mbed3d44207" y="187.956335"/>
      </g>
     </g>
     <g id="text_10">
      <!-- 15 -->
      <g transform="translate(22.81375 192.515398)scale(0.12 -0.12)">
       <use xlink:href="#DejaVuSans-49"/>
       <use x="63.623047" xlink:href="#DejaVuSans-53"/>
      </g>
     </g>
    </g>
    <g id="ytick_5">
     <g id="line2d_10">
      <g>
       <use style="stroke:#000000;stroke-width:0.8;" x="45.08375" xlink:href="#mbed3d44207" y="155.475635"/>
      </g>
     </g>
     <g id="text_11">
      <!-- 20 -->
      <g transform="translate(22.81375 160.034697)scale(0.12 -0.12)">
       <use xlink:href="#DejaVuSans-50"/>
       <use x="63.623047" xlink:href="#DejaVuSans-48"/>
      </g>
     </g>
    </g>
    <g id="ytick_6">
     <g id="line2d_11">
      <g>
       <use style="stroke:#000000;stroke-width:0.8;" x="45.08375" xlink:href="#mbed3d44207" y="122.994934"/>
      </g>
     </g>
     <g id="text_12">
      <!-- 25 -->
      <g transform="translate(22.81375 127.553996)scale(0.12 -0.12)">
       <use xlink:href="#DejaVuSans-50"/>
       <use x="63.623047" xlink:href="#DejaVuSans-53"/>
      </g>
     </g>
    </g>
    <g id="ytick_7">
     <g id="line2d_12">
      <g>
       <use style="stroke:#000000;stroke-width:0.8;" x="45.08375" xlink:href="#mbed3d44207" y="90.514233"/>
      </g>
     </g>
     <g id="text_13">
      <!-- 30 -->
      <defs>
       <path d="M 40.578125 39.3125 
Q 47.65625 37.796875 51.625 33 
Q 55.609375 28.21875 55.609375 21.1875 
Q 55.609375 10.40625 48.1875 4.484375 
Q 40.765625 -1.421875 27.09375 -1.421875 
Q 22.515625 -1.421875 17.65625 -0.515625 
Q 12.796875 0.390625 7.625 2.203125 
L 7.625 11.71875 
Q 11.71875 9.328125 16.59375 8.109375 
Q 21.484375 6.890625 26.8125 6.890625 
Q 36.078125 6.890625 40.9375 10.546875 
Q 45.796875 14.203125 45.796875 21.1875 
Q 45.796875 27.640625 41.28125 31.265625 
Q 36.765625 34.90625 28.71875 34.90625 
L 20.21875 34.90625 
L 20.21875 43.015625 
L 29.109375 43.015625 
Q 36.375 43.015625 40.234375 45.921875 
Q 44.09375 48.828125 44.09375 54.296875 
Q 44.09375 59.90625 40.109375 62.90625 
Q 36.140625 65.921875 28.71875 65.921875 
Q 24.65625 65.921875 20.015625 65.03125 
Q 15.375 64.15625 9.8125 62.3125 
L 9.8125 71.09375 
Q 15.4375 72.65625 20.34375 73.4375 
Q 25.25 74.21875 29.59375 74.21875 
Q 40.828125 74.21875 47.359375 69.109375 
Q 53.90625 64.015625 53.90625 55.328125 
Q 53.90625 49.265625 50.4375 45.09375 
Q 46.96875 40.921875 40.578125 39.3125 
z
" id="DejaVuSans-51"/>
      </defs>
      <g transform="translate(22.81375 95.073296)scale(0.12 -0.12)">
       <use xlink:href="#DejaVuSans-51"/>
       <use x="63.623047" xlink:href="#DejaVuSans-48"/>
      </g>
     </g>
    </g>
    <g id="ytick_8">
     <g id="line2d_13">
      <g>
       <use style="stroke:#000000;stroke-width:0.8;" x="45.08375" xlink:href="#mbed3d44207" y="58.033532"/>
      </g>
     </g>
     <g id="text_14">
      <!-- 35 -->
      <g transform="translate(22.81375 62.592595)scale(0.12 -0.12)">
       <use xlink:href="#DejaVuSans-51"/>
       <use x="63.623047" xlink:href="#DejaVuSans-53"/>
      </g>
     </g>
    </g>
    <g id="ytick_9">
     <g id="line2d_14">
      <g>
       <use style="stroke:#000000;stroke-width:0.8;" x="45.08375" xlink:href="#mbed3d44207" y="25.552832"/>
      </g>
     </g>
     <g id="text_15">
      <!-- 40 -->
      <defs>
       <path d="M 37.796875 64.3125 
L 12.890625 25.390625 
L 37.796875 25.390625 
z
M 35.203125 72.90625 
L 47.609375 72.90625 
L 47.609375 25.390625 
L 58.015625 25.390625 
L 58.015625 17.1875 
L 47.609375 17.1875 
L 47.609375 0 
L 37.796875 0 
L 37.796875 17.1875 
L 4.890625 17.1875 
L 4.890625 26.703125 
z
" id="DejaVuSans-52"/>
      </defs>
      <g transform="translate(22.81375 30.111894)scale(0.12 -0.12)">
       <use xlink:href="#DejaVuSans-52"/>
       <use x="63.623047" xlink:href="#DejaVuSans-48"/>
      </g>
     </g>
    </g>
    <g id="text_16">
     <!-- data [dimensionless] -->
     <defs>
      <path d="M 45.609375 46.6875 
L 45.609375 75.984375 
L 63.1875 75.984375 
L 63.1875 0 
L 45.609375 0 
L 45.609375 7.90625 
Q 42 3.078125 37.640625 0.828125 
Q 33.296875 -1.421875 27.59375 -1.421875 
Q 17.484375 -1.421875 10.984375 6.609375 
Q 4.5 14.65625 4.5 27.296875 
Q 4.5 39.9375 10.984375 47.96875 
Q 17.484375 56 27.59375 56 
Q 33.25 56 37.625 53.734375 
Q 42 51.46875 45.609375 46.6875 
z
M 34.078125 11.28125 
Q 39.703125 11.28125 42.65625 15.375 
Q 45.609375 19.484375 45.609375 27.296875 
Q 45.609375 35.109375 42.65625 39.203125 
Q 39.703125 43.3125 34.078125 43.3125 
Q 28.515625 43.3125 25.5625 39.203125 
Q 22.609375 35.109375 22.609375 27.296875 
Q 22.609375 19.484375 25.5625 15.375 
Q 28.515625 11.28125 34.078125 11.28125 
z
" id="DejaVuSans-Bold-100"/>
      <path d="M 32.90625 24.609375 
Q 27.4375 24.609375 24.671875 22.75 
Q 21.921875 20.90625 21.921875 17.28125 
Q 21.921875 13.96875 24.140625 12.078125 
Q 26.375 10.203125 30.328125 10.203125 
Q 35.25 10.203125 38.625 13.734375 
Q 42 17.28125 42 22.609375 
L 42 24.609375 
z
M 59.625 31.203125 
L 59.625 0 
L 42 0 
L 42 8.109375 
Q 38.484375 3.125 34.078125 0.84375 
Q 29.6875 -1.421875 23.390625 -1.421875 
Q 14.890625 -1.421875 9.59375 3.53125 
Q 4.296875 8.5 4.296875 16.40625 
Q 4.296875 26.03125 10.90625 30.515625 
Q 17.53125 35.015625 31.6875 35.015625 
L 42 35.015625 
L 42 36.375 
Q 42 40.53125 38.71875 42.453125 
Q 35.453125 44.390625 28.515625 44.390625 
Q 22.90625 44.390625 18.0625 43.265625 
Q 13.234375 42.140625 9.078125 39.890625 
L 9.078125 53.21875 
Q 14.703125 54.59375 20.359375 55.296875 
Q 26.03125 56 31.6875 56 
Q 46.484375 56 53.046875 50.171875 
Q 59.625 44.34375 59.625 31.203125 
z
" id="DejaVuSans-Bold-97"/>
      <path d="M 51.125 52.984375 
L 51.125 39.703125 
Q 45.515625 42.046875 40.28125 43.21875 
Q 35.0625 44.390625 30.421875 44.390625 
Q 25.4375 44.390625 23.015625 43.140625 
Q 20.609375 41.890625 20.609375 39.3125 
Q 20.609375 37.203125 22.4375 36.078125 
Q 24.265625 34.96875 29 34.421875 
L 32.078125 33.984375 
Q 45.515625 32.28125 50.140625 28.375 
Q 54.78125 24.46875 54.78125 16.109375 
Q 54.78125 7.375 48.328125 2.96875 
Q 41.890625 -1.421875 29.109375 -1.421875 
Q 23.6875 -1.421875 17.890625 -0.5625 
Q 12.109375 0.296875 6 2 
L 6 15.28125 
Q 11.234375 12.75 16.71875 11.46875 
Q 22.21875 10.203125 27.875 10.203125 
Q 33.015625 10.203125 35.59375 11.609375 
Q 38.1875 13.03125 38.1875 15.828125 
Q 38.1875 18.171875 36.40625 19.3125 
Q 34.625 20.453125 29.296875 21.09375 
L 26.21875 21.484375 
Q 14.546875 22.953125 9.859375 26.90625 
Q 5.171875 30.859375 5.171875 38.921875 
Q 5.171875 47.609375 11.125 51.796875 
Q 17.09375 56 29.390625 56 
Q 34.234375 56 39.546875 55.265625 
Q 44.875 54.546875 51.125 52.984375 
z
" id="DejaVuSans-Bold-115"/>
      <path d="M 34.421875 43.5 
Q 28.609375 43.5 25.5625 39.328125 
Q 22.515625 35.15625 22.515625 27.296875 
Q 22.515625 19.4375 25.5625 15.25 
Q 28.609375 11.078125 34.421875 11.078125 
Q 40.140625 11.078125 43.15625 15.25 
Q 46.1875 19.4375 46.1875 27.296875 
Q 46.1875 35.15625 43.15625 39.328125 
Q 40.140625 43.5 34.421875 43.5 
z
M 34.421875 56 
Q 48.53125 56 56.46875 48.375 
Q 64.40625 40.765625 64.40625 27.296875 
Q 64.40625 13.8125 56.46875 6.1875 
Q 48.53125 -1.421875 34.421875 -1.421875 
Q 20.265625 -1.421875 12.28125 6.1875 
Q 4.296875 13.8125 4.296875 27.296875 
Q 4.296875 40.765625 12.28125 48.375 
Q 20.265625 56 34.421875 56 
z
" id="DejaVuSans-Bold-111"/>
      <path d="M 8.40625 75.984375 
L 25.875 75.984375 
L 25.875 0 
L 8.40625 0 
z
" id="DejaVuSans-Bold-108"/>
     </defs>
     <g transform="translate(16.318125 230.466563)rotate(-90)scale(0.12 -0.12)">
      <use xlink:href="#DejaVuSans-Bold-100"/>
      <use x="71.582031" xlink:href="#DejaVuSans-Bold-97"/>
      <use x="139.0625" xlink:href="#DejaVuSans-Bold-116"/>
      <use x="186.865234" xlink:href="#DejaVuSans-Bold-97"/>
      <use x="254.345703" xlink:href="#DejaVuSans-Bold-32"/>
      <use x="289.160156" xlink:href="#DejaVuSans-Bold-91"/>
      <use x="334.863281" xlink:href="#DejaVuSans-Bold-100"/>
      <use x="406.445312" xlink:href="#DejaVuSans-Bold-105"/>
      <use x="440.722656" xlink:href="#DejaVuSans-Bold-109"/>
      <use x="544.921875" xlink:href="#DejaVuSans-Bold-101"/>
      <use x="612.744141" xlink:href="#DejaVuSans-Bold-110"/>
      <use x="683.935547" xlink:href="#DejaVuSans-Bold-115"/>
      <use x="743.457031" xlink:href="#DejaVuSans-Bold-105"/>
      <use x="777.734375" xlink:href="#DejaVuSans-Bold-111"/>
      <use x="846.435547" xlink:href="#DejaVuSans-Bold-110"/>
      <use x="917.626953" xlink:href="#DejaVuSans-Bold-108"/>
      <use x="951.904297" xlink:href="#DejaVuSans-Bold-101"/>
      <use x="1019.726562" xlink:href="#DejaVuSans-Bold-115"/>
      <use x="1079.248047" xlink:href="#DejaVuSans-Bold-115"/>
      <use x="1138.769531" xlink:href="#DejaVuSans-Bold-93"/>
     </g>
    </g>
   </g>
   <g id="line2d_15">
    <path clip-path="url(#p492e758028)" d="M 57.765568 285.398438 
L 58.019205 149.077117 
L 58.082614 144.935914 
L 58.146023 145.507546 
L 58.33625 159.041451 
L 59.03375 213.722145 
L 59.477614 230.603534 
L 59.858068 237.104161 
L 60.111705 238.704344 
L 60.301932 238.875534 
L 60.492159 238.376039 
L 60.809205 236.48238 
L 62.267614 225.96508 
L 62.457841 225.881282 
L 62.648068 226.31361 
L 62.901705 227.719857 
L 63.282159 231.528441 
L 63.852841 240.19966 
L 65.564886 268.087338 
L 66.198977 274.39273 
L 66.769659 278.134391 
L 67.340341 280.529794 
L 67.911023 282.012447 
L 68.481705 282.908364 
L 69.115795 283.479364 
L 69.813295 283.797457 
L 70.637614 283.919651 
L 71.525341 283.830942 
L 72.349659 283.540009 
L 73.110568 283.028621 
L 73.744659 282.339435 
L 74.37875 281.297102 
L 74.949432 279.926245 
L 75.520114 277.977 
L 76.090795 275.227617 
L 76.661477 271.385436 
L 77.232159 266.07831 
L 77.86625 257.917818 
L 78.500341 246.728387 
L 79.197841 230.245721 
L 80.022159 204.986891 
L 81.987841 141.360234 
L 82.368295 135.654583 
L 82.621932 134.322584 
L 82.685341 134.330034 
L 82.812159 134.769849 
L 83.002386 136.511105 
L 83.319432 142.29305 
L 83.763295 155.944931 
L 84.460795 186.292786 
L 85.665568 238.613142 
L 86.299659 257.166044 
L 86.870341 268.146644 
L 87.441023 275.02454 
L 87.948295 278.779152 
L 88.455568 281.096002 
L 88.962841 282.50404 
L 89.533523 283.432067 
L 90.104205 283.95626 
L 90.801705 284.298774 
L 91.752841 284.504674 
L 93.21125 284.566949 
L 94.796477 284.418333 
L 95.937841 284.099012 
L 96.762159 283.655015 
L 97.459659 283.040008 
L 98.09375 282.184641 
L 98.664432 281.059209 
L 99.235114 279.451941 
L 99.805795 277.168534 
L 100.376477 273.9458 
L 100.947159 269.436006 
L 101.517841 263.19604 
L 102.151932 253.580914 
L 102.786023 240.359621 
L 103.483523 220.78938 
L 104.307841 190.444414 
L 106.780795 92.218332 
L 107.16125 87.023773 
L 107.351477 86.485872 
L 107.478295 86.95281 
L 107.668523 88.93541 
L 107.985568 95.706206 
L 108.366023 109.322044 
L 108.936705 138.757784 
L 110.64875 233.909501 
L 111.282841 255.112597 
L 111.853523 267.260594 
L 112.424205 274.6879 
L 112.931477 278.666417 
L 113.43875 281.085068 
L 113.946023 282.536041 
L 114.453295 283.401189 
L 115.023977 283.964649 
L 115.721477 284.330212 
L 116.672614 284.553211 
L 118.194432 284.649973 
L 120.160114 284.553258 
L 121.491705 284.286941 
L 122.442841 283.881122 
L 123.20375 283.316913 
L 123.837841 282.583318 
L 124.471932 281.48625 
L 125.042614 280.047202 
L 125.613295 277.998409 
L 126.183977 275.098618 
L 126.754659 271.02565 
L 127.325341 265.36245 
L 127.959432 256.574904 
L 128.593523 244.370097 
L 129.291023 226.034223 
L 130.051932 199.411849 
L 131.066477 154.585791 
L 132.461477 93.572937 
L 132.96875 79.966609 
L 133.285795 75.783799 
L 133.476023 75.158064 
L 133.602841 75.583829 
L 133.793068 77.534687 
L 134.046705 82.631718 
L 134.427159 95.513448 
L 134.934432 121.109785 
L 137.090341 242.172838 
L 137.661023 259.069571 
L 138.231705 269.781054 
L 138.738977 275.652985 
L 139.24625 279.271254 
L 139.753523 281.457762 
L 140.260795 282.764229 
L 140.831477 283.613116 
L 141.465568 284.124895 
L 142.226477 284.431672 
L 143.304432 284.609753 
L 145.079886 284.658066 
L 146.91875 284.511298 
L 148.123523 284.217335 
L 149.01125 283.78744 
L 149.772159 283.160656 
L 150.40625 282.34686 
L 151.040341 281.131305 
L 151.611023 279.538819 
L 152.181705 277.274868 
L 152.752386 274.076531 
L 153.323068 269.595282 
L 153.89375 263.384785 
L 154.527841 253.793181 
L 155.161932 240.560377 
L 155.859432 220.871718 
L 156.620341 192.700402 
L 157.698295 143.432564 
L 158.839659 93.480821 
L 159.346932 79.024876 
L 159.727386 73.68149 
L 159.917614 73.125961 
L 160.044432 73.603731 
L 160.234659 75.639761 
L 160.551705 82.614633 
L 160.932159 96.710498 
L 161.502841 127.459253 
L 163.341705 234.560385 
L 163.975795 255.75427 
L 164.546477 267.746378 
L 165.05375 274.384562 
L 165.561023 278.499783 
L 166.068295 280.995896 
L 166.575568 282.490086 
L 167.082841 283.379115 
L 167.653523 283.956903 
L 168.351023 284.331041 
L 169.302159 284.559463 
L 170.823977 284.663002 
L 172.853068 284.582441 
L 174.248068 284.331097 
L 175.199205 283.957985 
L 175.960114 283.438857 
L 176.657614 282.67957 
L 177.291705 281.627237 
L 177.862386 280.246145 
L 178.433068 278.278558 
L 179.00375 275.49128 
L 179.574432 271.571874 
L 180.145114 266.113976 
L 180.779205 257.626766 
L 181.413295 245.80286 
L 182.047386 229.814018 
L 182.808295 204.310058 
L 183.696023 166.31524 
L 184.58375 124.114106 
L 184.58375 220.437036 
L 184.647159 207.995078 
L 185.091023 143.567644 
L 185.598295 99.329747 
L 186.168977 67.360923 
L 186.739659 46.230264 
L 187.183523 36.482832 
L 187.500568 33.542905 
L 187.627386 33.409459 
L 187.754205 33.910419 
L 187.944432 35.901825 
L 188.261477 42.674069 
L 188.641932 56.618811 
L 189.149205 84.365973 
L 190.036932 148.187065 
L 190.988068 211.923934 
L 191.622159 241.46908 
L 192.192841 258.957827 
L 192.763523 269.864632 
L 193.270795 275.77241 
L 193.778068 279.380813 
L 194.285341 281.545797 
L 194.792614 282.831781 
L 195.363295 283.663102 
L 195.997386 284.162099 
L 196.758295 284.460538 
L 197.899659 284.641097 
L 199.865341 284.694455 
L 201.957841 284.54867 
L 203.226023 284.257303 
L 204.11375 283.846825 
L 204.874659 283.248851 
L 205.50875 282.472404 
L 206.142841 281.31211 
L 206.713523 279.790957 
L 207.284205 277.626418 
L 207.854886 274.564798 
L 208.425568 270.268257 
L 208.99625 264.301236 
L 209.630341 255.058056 
L 210.264432 242.251222 
L 210.961932 223.074807 
L 211.722841 195.358253 
L 212.737386 148.978954 
L 214.068977 88.414563 
L 214.639659 71.997309 
L 214.956705 67.493217 
L 215.146932 66.68564 
L 215.210341 66.754383 
L 215.337159 67.416072 
L 215.527386 69.749952 
L 215.844432 77.271655 
L 216.288295 95.11836 
L 216.922386 132.120412 
L 218.444205 225.300137 
L 219.078295 249.84483 
L 219.648977 264.085167 
L 220.219659 272.855661 
L 220.726932 277.571646 
L 221.234205 280.442242 
L 221.741477 282.163332 
L 222.24875 283.187328 
L 222.819432 283.851858 
L 223.453523 284.253162 
L 224.277841 284.507738 
L 225.609432 284.652724 
L 227.638523 284.636475 
L 229.287159 284.425795 
L 230.365114 284.078812 
L 231.189432 283.587348 
L 231.886932 282.910291 
L 232.521023 281.970779 
L 233.091705 280.736153 
L 233.662386 278.974514 
L 234.233068 276.474028 
L 234.80375 272.948759 
L 235.374432 268.022801 
L 235.945114 261.220575 
L 236.579205 250.769226 
L 237.213295 236.455649 
L 237.910795 215.383451 
L 238.735114 182.951161 
L 241.208068 78.623311 
L 241.588523 72.626829 
L 241.77875 71.710852 
L 241.842159 71.739276 
L 241.968977 72.314255 
L 242.159205 74.503273 
L 242.47625 81.745187 
L 242.856705 96.162149 
L 243.427386 127.331751 
L 245.202841 232.157537 
L 245.836932 254.231973 
L 246.407614 266.807521 
L 246.914886 273.797716 
L 247.422159 278.142413 
L 247.929432 280.781963 
L 248.436705 282.363282 
L 248.943977 283.304268 
L 249.514659 283.91554 
L 250.212159 284.31096 
L 251.099886 284.542225 
L 252.558295 284.660677 
L 254.587386 284.602843 
L 256.045795 284.369828 
L 257.060341 283.999018 
L 257.884659 283.452536 
L 258.582159 282.700635 
L 259.21625 281.658431 
L 259.786932 280.290475 
L 260.357614 278.341327 
L 260.928295 275.579665 
L 261.498977 271.69535 
L 262.069659 266.284601 
L 262.70375 257.866891 
L 263.337841 246.13223 
L 263.971932 230.250003 
L 264.669432 207.265258 
L 265.557159 169.937788 
L 267.459432 86.586981 
L 267.903295 76.039995 
L 268.220341 72.736203 
L 268.347159 72.541661 
L 268.473977 73.030664 
L 268.664205 75.085418 
L 268.98125 82.096221 
L 269.361705 96.24238 
L 269.932386 127.078432 
L 271.77125 234.444778 
L 272.405341 255.689242 
L 272.976023 267.70946 
L 273.483295 274.362878 
L 273.990568 278.487316 
L 274.497841 280.988859 
L 275.005114 282.486189 
L 275.512386 283.377012 
L 276.083068 283.955914 
L 276.780568 284.330737 
L 277.731705 284.559579 
L 279.253523 284.663498 
L 281.282614 284.583962 
L 282.677614 284.33462 
L 283.692159 283.930455 
L 284.453068 283.393662 
L 285.150568 282.608871 
L 285.784659 281.521596 
L 286.355341 280.095196 
L 286.926023 278.063984 
L 287.496705 275.188261 
L 288.067386 271.147594 
L 288.638068 265.526576 
L 289.272159 256.79847 
L 289.90625 244.664242 
L 290.60375 226.407339 
L 291.364659 199.835661 
L 292.315795 157.895566 
L 293.837614 90.612096 
L 294.344886 77.188655 
L 294.661932 73.184917 
L 294.852159 72.687219 
L 294.978977 73.205867 
L 295.169205 75.30591 
L 295.48625 82.391489 
L 295.866705 96.618161 
L 296.437386 127.531215 
L 298.212841 232.064004 
L 298.846932 254.155596 
L 299.417614 266.753734 
L 299.924886 273.761175 
L 300.432159 278.11862 
L 300.939432 280.766837 
L 301.446705 282.353756 
L 301.953977 283.298246 
L 302.524659 283.911869 
L 303.222159 284.308832 
L 304.109886 284.540982 
L 305.568295 284.659779 
L 307.597386 284.601221 
L 309.055795 284.366263 
L 310.070341 283.992463 
L 310.83125 283.495181 
L 311.401932 282.924979 
L 311.401932 282.924979 
" style="fill:none;stroke:#000000;stroke-linecap:square;stroke-width:2;"/>
   </g>
   <g id="line2d_16">
    <path clip-path="url(#p492e758028)" d="M 57.765568 155.475635 
L 57.955795 83.932768 
L 58.33625 162.171234 
L 58.780114 222.78162 
L 59.223977 253.263936 
L 59.667841 268.286794 
L 60.111705 275.646936 
L 60.555568 279.252625 
L 60.999432 281.040276 
L 61.443295 281.961935 
L 61.950568 282.53164 
L 62.648068 282.960994 
L 63.535795 283.234529 
L 64.423523 283.274389 
L 65.184432 283.101333 
L 65.881932 282.727975 
L 66.516023 282.14608 
L 67.150114 281.239865 
L 67.720795 280.035399 
L 68.291477 278.317885 
L 68.862159 275.896726 
L 69.432841 272.521114 
L 70.066932 267.263074 
L 70.701023 259.913177 
L 71.335114 249.92021 
L 72.032614 235.376034 
L 72.920341 211.720716 
L 74.442159 170.402127 
L 74.886023 163.890149 
L 75.139659 162.372183 
L 75.266477 162.296589 
L 75.393295 162.698452 
L 75.583523 164.213756 
L 75.900568 169.149566 
L 76.344432 180.628561 
L 77.105341 208.123984 
L 78.183295 246.026922 
L 78.817386 261.369454 
L 79.388068 270.525444 
L 79.95875 276.310852 
L 80.466023 279.497855 
L 80.973295 281.4823 
L 81.480568 282.699762 
L 82.05125 283.510127 
L 82.685341 284.008925 
L 83.44625 284.309493 
L 84.524205 284.466967 
L 85.919205 284.435437 
L 87.187386 284.191427 
L 88.138523 283.780222 
L 88.899432 283.201017 
L 89.533523 282.445384 
L 90.167614 281.314621 
L 90.738295 279.832174 
L 91.308977 277.724185 
L 91.879659 274.74599 
L 92.450341 270.57291 
L 93.021023 264.788562 
L 93.655114 255.852355 
L 94.289205 243.519146 
L 94.986705 225.168064 
L 95.747614 198.951999 
L 96.952386 148.040529 
L 97.903523 111.576558 
L 98.410795 99.720858 
L 98.727841 96.578591 
L 98.854659 96.390471 
L 98.981477 96.8504 
L 99.171705 98.789717 
L 99.48875 105.389469 
L 99.869205 118.606743 
L 100.439886 146.988571 
L 102.088523 234.787153 
L 102.722614 255.499482 
L 103.293295 267.431857 
L 103.863977 274.756979 
L 104.37125 278.693121 
L 104.878523 281.091907 
L 105.385795 282.534031 
L 105.893068 283.395506 
L 106.46375 283.957503 
L 107.16125 284.322584 
L 108.112386 284.545019 
L 109.634205 284.638106 
L 111.536477 284.531525 
L 112.804659 284.263343 
L 113.755795 283.842008 
L 114.516705 283.256239 
L 115.150795 282.494802 
L 115.784886 281.356519 
L 116.355568 279.864127 
L 116.92625 277.740675 
L 117.496932 274.737593 
L 118.067614 270.523929 
L 118.638295 264.673147 
L 119.272386 255.612338 
L 119.906477 243.063238 
L 120.603977 224.287725 
L 121.364886 197.201607 
L 122.379432 152.140529 
L 123.647614 96.912223 
L 124.154886 82.737104 
L 124.471932 78.071589 
L 124.662159 77.117291 
L 124.725568 77.129104 
L 124.852386 77.66501 
L 125.042614 79.780308 
L 125.359659 86.855586 
L 125.740114 100.989699 
L 126.310795 131.542073 
L 128.08625 233.761084 
L 128.720341 255.177604 
L 129.291023 267.36331 
L 129.798295 274.133042 
L 130.305568 278.34015 
L 130.812841 280.896563 
L 131.320114 282.428765 
L 131.827386 283.341147 
L 132.398068 283.934378 
L 133.095568 284.318542 
L 134.046705 284.552961 
L 135.568523 284.658963 
L 137.597614 284.575867 
L 138.992614 284.317508 
L 139.94375 283.934168 
L 140.704659 283.400952 
L 141.402159 282.621257 
L 142.03625 281.54094 
L 142.606932 280.123573 
L 143.177614 278.105093 
L 143.748295 275.247165 
L 144.318977 271.231077 
L 144.889659 265.643451 
L 145.52375 256.965402 
L 146.157841 244.897232 
L 146.855341 226.732218 
L 147.61625 200.278803 
L 148.567386 158.490029 
L 150.089205 91.367325 
L 150.596477 77.966108 
L 150.913523 73.969279 
L 151.10375 73.473163 
L 151.230568 73.991711 
L 151.420795 76.089667 
L 151.737841 83.165596 
L 152.118295 97.367514 
L 152.688977 128.208469 
L 154.464432 232.343017 
L 155.098523 254.322824 
L 155.669205 266.853145 
L 156.176477 273.821665 
L 156.68375 278.154569 
L 157.191023 280.787837 
L 157.698295 282.365864 
L 158.205568 283.305146 
L 158.77625 283.915468 
L 159.47375 284.310364 
L 160.361477 284.54132 
L 161.819886 284.659244 
L 163.848977 284.599135 
L 165.307386 284.361148 
L 166.321932 283.982794 
L 167.082841 283.479555 
L 167.780341 282.743219 
L 168.414432 281.722344 
L 168.985114 280.382064 
L 169.555795 278.471826 
L 170.126477 275.764348 
L 170.697159 271.954494 
L 171.267841 266.644231 
L 171.901932 258.375635 
L 172.536023 246.834498 
L 173.170114 231.187689 
L 173.867614 208.488443 
L 174.755341 171.474303 
L 176.721023 85.838654 
L 177.164886 75.788279 
L 177.481932 72.912008 
L 177.545341 72.82199 
L 177.60875 72.901573 
L 177.735568 73.580078 
L 177.925795 75.925336 
L 178.242841 83.419066 
L 178.686705 101.088187 
L 179.320795 137.452954 
L 180.779205 224.931182 
L 181.413295 249.475169 
L 181.983977 263.803173 
L 182.554659 272.665227 
L 183.061932 277.44484 
L 183.569205 280.360299 
L 184.076477 282.111056 
L 184.58375 283.153913 
L 184.58375 155.475635 
L 184.647159 168.178127 
L 185.027614 221.999455 
L 185.408068 250.895618 
L 185.788523 266.439238 
L 186.232386 275.775415 
L 186.67625 280.326989 
L 187.120114 282.554106 
L 187.563977 283.649297 
L 188.007841 284.191452 
L 188.578523 284.510719 
L 189.402841 284.672246 
L 190.988068 284.706314 
L 193.017159 284.543224 
L 194.285341 284.228286 
L 195.173068 283.787232 
L 195.870568 283.21209 
L 196.504659 282.413031 
L 197.13875 281.219322 
L 197.709432 279.654742 
L 198.280114 277.428963 
L 198.850795 274.281721 
L 199.421477 269.866922 
L 199.992159 263.739263 
L 200.62625 254.255287 
L 201.260341 241.130279 
L 201.957841 221.508759 
L 202.71875 193.20795 
L 203.733295 145.97023 
L 205.128295 81.971545 
L 205.635568 67.371783 
L 205.952614 62.576108 
L 206.142841 61.591213 
L 206.20625 61.601066 
L 206.333068 62.146218 
L 206.523295 64.311414 
L 206.840341 71.585466 
L 207.220795 86.207797 
L 207.791477 118.166521 
L 209.69375 233.764581 
L 210.327841 255.416087 
L 210.898523 267.601876 
L 211.405795 274.322162 
L 211.913068 278.476573 
L 212.420341 280.990545 
L 212.927614 282.492412 
L 213.434886 283.384458 
L 214.005568 283.963312 
L 214.703068 284.337659 
L 215.654205 284.566324 
L 217.176023 284.672505 
L 219.268523 284.600798 
L 220.726932 284.352947 
L 221.741477 283.96177 
L 222.502386 283.44225 
L 223.199886 282.682562 
L 223.833977 281.62973 
L 224.404659 280.247964 
L 224.975341 278.279316 
L 225.546023 275.490324 
L 226.116705 271.568118 
L 226.687386 266.105633 
L 227.321477 257.609802 
L 227.955568 245.7709 
L 228.589659 229.755841 
L 229.350568 204.193262 
L 230.238295 166.058059 
L 232.01375 87.157859 
L 232.521023 74.503507 
L 232.838068 71.125182 
L 232.964886 70.901808 
L 233.091705 71.362971 
L 233.281932 73.37875 
L 233.598977 80.336627 
L 233.979432 94.452428 
L 234.550114 125.350126 
L 236.388977 233.672966 
L 237.023068 255.219904 
L 237.59375 267.427625 
L 238.101023 274.190027 
L 238.608295 278.383794 
L 239.115568 280.927877 
L 239.622841 282.450672 
L 240.130114 283.356497 
L 240.700795 283.944965 
L 241.398295 284.325815 
L 242.349432 284.558306 
L 243.87125 284.664684 
L 245.900341 284.589201 
L 247.35875 284.329625 
L 248.309886 283.954334 
L 249.070795 283.432311 
L 249.768295 282.668877 
L 250.402386 281.61087 
L 250.973068 280.222413 
L 251.54375 278.244459 
L 252.114432 275.442717 
L 252.685114 271.503383 
L 253.255795 266.018494 
L 253.889886 257.491017 
L 254.523977 245.61439 
L 255.158068 229.560401 
L 255.918977 203.967092 
L 256.806705 165.873315 
L 258.582159 87.738452 
L 259.089432 75.552517 
L 259.406477 72.519074 
L 259.469886 72.395829 
L 259.533295 72.441733 
L 259.660114 73.051822 
L 259.850341 75.293116 
L 260.167386 82.616961 
L 260.61125 100.081705 
L 261.245341 136.300429 
L 262.767159 227.109866 
L 263.40125 250.926704 
L 263.971932 264.726797 
L 264.542614 273.220794 
L 265.049886 277.78732 
L 265.557159 280.56739 
L 266.064432 282.234923 
L 266.571705 283.227716 
L 267.142386 283.872579 
L 267.776477 284.262428 
L 268.664205 284.521834 
L 269.995795 284.652427 
L 272.024886 284.620806 
L 273.610114 284.39527 
L 274.688068 284.018973 
L 275.512386 283.486783 
L 276.209886 282.754283 
L 276.843977 281.738673 
L 277.414659 280.405225 
L 277.985341 278.50458 
L 278.556023 275.810436 
L 279.126705 272.018857 
L 279.697386 266.733171 
L 280.331477 258.500847 
L 280.965568 247.006367 
L 281.599659 231.415419 
L 282.297159 208.781553 
L 283.184886 171.829994 
L 285.150568 85.975628 
L 285.594432 75.771308 
L 285.911477 72.763825 
L 285.974886 72.645907 
L 286.038295 72.697158 
L 286.165114 73.317944 
L 286.355341 75.575051 
L 286.672386 82.923296 
L 287.11625 100.413 
L 287.750341 136.634055 
L 289.272159 227.295689 
L 289.90625 251.044242 
L 290.476932 264.799216 
L 291.047614 273.263305 
L 291.554886 277.813055 
L 292.062159 280.582692 
L 292.569432 282.243916 
L 293.076705 283.232965 
L 293.647386 283.875427 
L 294.281477 284.263855 
L 295.169205 284.522333 
L 296.500795 284.652371 
L 298.529886 284.620093 
L 300.115114 284.39329 
L 301.129659 284.045508 
L 301.953977 283.532156 
L 302.651477 282.825246 
L 303.285568 281.84473 
L 303.85625 280.556842 
L 304.426932 278.720274 
L 304.997614 276.115393 
L 305.568295 272.446554 
L 306.138977 267.326637 
L 306.709659 260.268775 
L 307.34375 249.451406 
L 307.977841 234.688546 
L 308.675341 213.06591 
L 309.499659 180.061638 
L 311.401932 94.102398 
L 311.401932 94.102398 
" style="fill:none;stroke:#0000ff;stroke-linecap:square;stroke-width:2;"/>
   </g>
   <g id="patch_3">
    <path d="M 45.08375 297.998438 
L 45.08375 20.798438 
" style="fill:none;stroke:#000000;stroke-linecap:square;stroke-linejoin:miter;stroke-width:0.8;"/>
   </g>
   <g id="patch_4">
    <path d="M 324.08375 297.998438 
L 324.08375 20.798438 
" style="fill:none;stroke:#000000;stroke-linecap:square;stroke-linejoin:miter;stroke-width:0.8;"/>
   </g>
   <g id="patch_5">
    <path d="M 45.08375 297.998438 
L 324.08375 297.998438 
" style="fill:none;stroke:#000000;stroke-linecap:square;stroke-linejoin:miter;stroke-width:0.8;"/>
   </g>
   <g id="patch_6">
    <path d="M 45.08375 20.798438 
L 324.08375 20.798438 
" style="fill:none;stroke:#000000;stroke-linecap:square;stroke-linejoin:miter;stroke-width:0.8;"/>
   </g>
   <g id="text_17">
    <!-- RepressilatorExperiment_Fig1 -->
    <defs>
     <path d="M 35.890625 40.578125 
Q 41.796875 40.578125 44.359375 42.765625 
Q 46.921875 44.96875 46.921875 50 
Q 46.921875 54.984375 44.359375 57.125 
Q 41.796875 59.28125 35.890625 59.28125 
L 27.984375 59.28125 
L 27.984375 40.578125 
z
M 27.984375 27.59375 
L 27.984375 0 
L 9.1875 0 
L 9.1875 72.90625 
L 37.890625 72.90625 
Q 52.296875 72.90625 59 68.0625 
Q 65.71875 63.234375 65.71875 52.78125 
Q 65.71875 45.5625 62.21875 40.921875 
Q 58.734375 36.28125 51.703125 34.078125 
Q 55.5625 33.203125 58.609375 30.09375 
Q 61.671875 27 64.796875 20.703125 
L 75 0 
L 54.984375 0 
L 46.09375 18.109375 
Q 43.40625 23.578125 40.640625 25.578125 
Q 37.890625 27.59375 33.296875 27.59375 
z
" id="DejaVuSans-Bold-82"/>
     <path d="M 25.875 7.90625 
L 25.875 -20.796875 
L 8.40625 -20.796875 
L 8.40625 54.6875 
L 25.875 54.6875 
L 25.875 46.6875 
Q 29.5 51.46875 33.890625 53.734375 
Q 38.28125 56 44 56 
Q 54.109375 56 60.59375 47.96875 
Q 67.09375 39.9375 67.09375 27.296875 
Q 67.09375 14.65625 60.59375 6.609375 
Q 54.109375 -1.421875 44 -1.421875 
Q 38.28125 -1.421875 33.890625 0.84375 
Q 29.5 3.125 25.875 7.90625 
z
M 37.5 43.3125 
Q 31.890625 43.3125 28.875 39.1875 
Q 25.875 35.0625 25.875 27.296875 
Q 25.875 19.53125 28.875 15.40625 
Q 31.890625 11.28125 37.5 11.28125 
Q 43.109375 11.28125 46.0625 15.375 
Q 49.03125 19.484375 49.03125 27.296875 
Q 49.03125 35.109375 46.0625 39.203125 
Q 43.109375 43.3125 37.5 43.3125 
z
" id="DejaVuSans-Bold-112"/>
     <path d="M 49.03125 39.796875 
Q 46.734375 40.875 44.453125 41.375 
Q 42.1875 41.890625 39.890625 41.890625 
Q 33.15625 41.890625 29.515625 37.5625 
Q 25.875 33.25 25.875 25.203125 
L 25.875 0 
L 8.40625 0 
L 8.40625 54.6875 
L 25.875 54.6875 
L 25.875 45.703125 
Q 29.25 51.078125 33.609375 53.53125 
Q 37.984375 56 44.09375 56 
Q 44.96875 56 45.984375 55.921875 
Q 47.015625 55.859375 48.96875 55.609375 
z
" id="DejaVuSans-Bold-114"/>
     <path d="M 9.1875 72.90625 
L 59.90625 72.90625 
L 59.90625 58.6875 
L 27.984375 58.6875 
L 27.984375 45.125 
L 58.015625 45.125 
L 58.015625 30.90625 
L 27.984375 30.90625 
L 27.984375 14.203125 
L 60.984375 14.203125 
L 60.984375 0 
L 9.1875 0 
z
" id="DejaVuSans-Bold-69"/>
     <path d="M 22.21875 27.984375 
L 2.484375 54.6875 
L 21 54.6875 
L 32.171875 38.484375 
L 43.5 54.6875 
L 62.015625 54.6875 
L 42.28125 28.078125 
L 62.984375 0 
L 44.484375 0 
L 32.171875 17.28125 
L 20.015625 0 
L 1.515625 0 
z
" id="DejaVuSans-Bold-120"/>
     <path d="M 50 -14.3125 
L 50 -23.578125 
L 0 -23.578125 
L 0 -14.3125 
z
" id="DejaVuSans-Bold-95"/>
     <path d="M 9.1875 72.90625 
L 59.90625 72.90625 
L 59.90625 58.6875 
L 27.984375 58.6875 
L 27.984375 45.125 
L 58.015625 45.125 
L 58.015625 30.90625 
L 27.984375 30.90625 
L 27.984375 0 
L 9.1875 0 
z
" id="DejaVuSans-Bold-70"/>
     <path d="M 45.609375 9.28125 
Q 42 4.5 37.640625 2.25 
Q 33.296875 0 27.59375 0 
Q 17.578125 0 11.03125 7.875 
Q 4.5 15.765625 4.5 27.984375 
Q 4.5 40.234375 11.03125 48.0625 
Q 17.578125 55.90625 27.59375 55.90625 
Q 33.296875 55.90625 37.640625 53.65625 
Q 42 51.421875 45.609375 46.578125 
L 45.609375 54.6875 
L 63.1875 54.6875 
L 63.1875 5.515625 
Q 63.1875 -7.671875 54.859375 -14.625 
Q 46.53125 -21.578125 30.71875 -21.578125 
Q 25.59375 -21.578125 20.796875 -20.796875 
Q 16.015625 -20.015625 11.1875 -18.40625 
L 11.1875 -4.78125 
Q 15.765625 -7.421875 20.15625 -8.71875 
Q 24.5625 -10.015625 29 -10.015625 
Q 37.59375 -10.015625 41.59375 -6.25 
Q 45.609375 -2.484375 45.609375 5.515625 
z
M 34.078125 43.3125 
Q 28.65625 43.3125 25.625 39.296875 
Q 22.609375 35.296875 22.609375 27.984375 
Q 22.609375 20.453125 25.53125 16.578125 
Q 28.46875 12.703125 34.078125 12.703125 
Q 39.546875 12.703125 42.578125 16.703125 
Q 45.609375 20.703125 45.609375 27.984375 
Q 45.609375 35.296875 42.578125 39.296875 
Q 39.546875 43.3125 34.078125 43.3125 
z
" id="DejaVuSans-Bold-103"/>
     <path d="M 11.71875 12.984375 
L 28.328125 12.984375 
L 28.328125 60.109375 
L 11.28125 56.59375 
L 11.28125 69.390625 
L 28.21875 72.90625 
L 46.09375 72.90625 
L 46.09375 12.984375 
L 62.703125 12.984375 
L 62.703125 0 
L 11.71875 0 
z
" id="DejaVuSans-Bold-49"/>
    </defs>
    <g transform="translate(99.832969 14.798438)scale(0.1 -0.1)">
     <use xlink:href="#DejaVuSans-Bold-82"/>
     <use x="77.001953" xlink:href="#DejaVuSans-Bold-101"/>
     <use x="144.824219" xlink:href="#DejaVuSans-Bold-112"/>
     <use x="216.40625" xlink:href="#DejaVuSans-Bold-114"/>
     <use x="265.722656" xlink:href="#DejaVuSans-Bold-101"/>
     <use x="333.544922" xlink:href="#DejaVuSans-Bold-115"/>
     <use x="393.066406" xlink:href="#DejaVuSans-Bold-115"/>
     <use x="452.587891" xlink:href="#DejaVuSans-Bold-105"/>
     <use x="486.865234" xlink:href="#DejaVuSans-Bold-108"/>
     <use x="521.142578" xlink:href="#DejaVuSans-Bold-97"/>
     <use x="588.623047" xlink:href="#DejaVuSans-Bold-116"/>
     <use x="636.425781" xlink:href="#DejaVuSans-Bold-111"/>
     <use x="705.126953" xlink:href="#DejaVuSans-Bold-114"/>
     <use x="754.443359" xlink:href="#DejaVuSans-Bold-69"/>
     <use x="822.753906" xlink:href="#DejaVuSans-Bold-120"/>
     <use x="887.255859" xlink:href="#DejaVuSans-Bold-112"/>
     <use x="958.837891" xlink:href="#DejaVuSans-Bold-101"/>
     <use x="1026.660156" xlink:href="#DejaVuSans-Bold-114"/>
     <use x="1075.976562" xlink:href="#DejaVuSans-Bold-105"/>
     <use x="1110.253906" xlink:href="#DejaVuSans-Bold-109"/>
     <use x="1214.453125" xlink:href="#DejaVuSans-Bold-101"/>
     <use x="1282.275391" xlink:href="#DejaVuSans-Bold-110"/>
     <use x="1353.466797" xlink:href="#DejaVuSans-Bold-116"/>
     <use x="1401.269531" xlink:href="#DejaVuSans-Bold-95"/>
     <use x="1451.269531" xlink:href="#DejaVuSans-Bold-70"/>
     <use x="1519.580078" xlink:href="#DejaVuSans-Bold-105"/>
     <use x="1553.857422" xlink:href="#DejaVuSans-Bold-103"/>
     <use x="1625.439453" xlink:href="#DejaVuSans-Bold-49"/>
    </g>
   </g>
   <g id="legend_1">
    <g id="patch_7">
     <path d="M 268.475794 51.916194 
L 318.25275 51.916194 
Q 319.91875 51.916194 319.91875 50.250194 
L 319.91875 26.629438 
Q 319.91875 24.963438 318.25275 24.963438 
L 268.475794 24.963438 
Q 266.809794 24.963438 266.809794 26.629438 
L 266.809794 50.250194 
Q 266.809794 51.916194 268.475794 51.916194 
z
" style="fill:#ffffff;opacity:0.8;stroke:#cccccc;stroke-linejoin:miter;"/>
    </g>
    <g id="line2d_17">
     <path d="M 270.141794 31.709436 
L 286.801794 31.709436 
" style="fill:none;stroke:#000000;stroke-linecap:square;stroke-width:2;"/>
    </g>
    <g id="line2d_18"/>
    <g id="text_18">
     <!-- X sim -->
     <defs>
      <path d="M 6.296875 72.90625 
L 16.890625 72.90625 
L 35.015625 45.796875 
L 53.21875 72.90625 
L 63.8125 72.90625 
L 40.375 37.890625 
L 65.375 0 
L 54.78125 0 
L 34.28125 31 
L 13.625 0 
L 2.984375 0 
L 29 38.921875 
z
" id="DejaVuSans-88"/>
      <path id="DejaVuSans-32"/>
      <path d="M 44.28125 53.078125 
L 44.28125 44.578125 
Q 40.484375 46.53125 36.375 47.5 
Q 32.28125 48.484375 27.875 48.484375 
Q 21.1875 48.484375 17.84375 46.4375 
Q 14.5 44.390625 14.5 40.28125 
Q 14.5 37.15625 16.890625 35.375 
Q 19.28125 33.59375 26.515625 31.984375 
L 29.59375 31.296875 
Q 39.15625 29.25 43.1875 25.515625 
Q 47.21875 21.78125 47.21875 15.09375 
Q 47.21875 7.46875 41.1875 3.015625 
Q 35.15625 -1.421875 24.609375 -1.421875 
Q 20.21875 -1.421875 15.453125 -0.5625 
Q 10.6875 0.296875 5.421875 2 
L 5.421875 11.28125 
Q 10.40625 8.6875 15.234375 7.390625 
Q 20.0625 6.109375 24.8125 6.109375 
Q 31.15625 6.109375 34.5625 8.28125 
Q 37.984375 10.453125 37.984375 14.40625 
Q 37.984375 18.0625 35.515625 20.015625 
Q 33.0625 21.96875 24.703125 23.78125 
L 21.578125 24.515625 
Q 13.234375 26.265625 9.515625 29.90625 
Q 5.8125 33.546875 5.8125 39.890625 
Q 5.8125 47.609375 11.28125 51.796875 
Q 16.75 56 26.8125 56 
Q 31.78125 56 36.171875 55.265625 
Q 40.578125 54.546875 44.28125 53.078125 
z
" id="DejaVuSans-115"/>
      <path d="M 9.421875 54.6875 
L 18.40625 54.6875 
L 18.40625 0 
L 9.421875 0 
z
M 9.421875 75.984375 
L 18.40625 75.984375 
L 18.40625 64.59375 
L 9.421875 64.59375 
z
" id="DejaVuSans-105"/>
      <path d="M 52 44.1875 
Q 55.375 50.25 60.0625 53.125 
Q 64.75 56 71.09375 56 
Q 79.640625 56 84.28125 50.015625 
Q 88.921875 44.046875 88.921875 33.015625 
L 88.921875 0 
L 79.890625 0 
L 79.890625 32.71875 
Q 79.890625 40.578125 77.09375 44.375 
Q 74.3125 48.1875 68.609375 48.1875 
Q 61.625 48.1875 57.5625 43.546875 
Q 53.515625 38.921875 53.515625 30.90625 
L 53.515625 0 
L 44.484375 0 
L 44.484375 32.71875 
Q 44.484375 40.625 41.703125 44.40625 
Q 38.921875 48.1875 33.109375 48.1875 
Q 26.21875 48.1875 22.15625 43.53125 
Q 18.109375 38.875 18.109375 30.90625 
L 18.109375 0 
L 9.078125 0 
L 9.078125 54.6875 
L 18.109375 54.6875 
L 18.109375 46.1875 
Q 21.1875 51.21875 25.484375 53.609375 
Q 29.78125 56 35.6875 56 
Q 41.65625 56 45.828125 52.96875 
Q 50 49.953125 52 44.1875 
z
" id="DejaVuSans-109"/>
     </defs>
     <g transform="translate(293.465794 34.624936)scale(0.0833 -0.0833)">
      <use xlink:href="#DejaVuSans-88"/>
      <use x="68.505859" xlink:href="#DejaVuSans-32"/>
      <use x="100.292969" xlink:href="#DejaVuSans-115"/>
      <use x="152.392578" xlink:href="#DejaVuSans-105"/>
      <use x="180.175781" xlink:href="#DejaVuSans-109"/>
     </g>
    </g>
    <g id="line2d_19">
     <path d="M 270.141794 43.936314 
L 286.801794 43.936314 
" style="fill:none;stroke:#0000ff;stroke-linecap:square;stroke-width:2;"/>
    </g>
    <g id="line2d_20"/>
    <g id="text_19">
     <!-- Y sim -->
     <defs>
      <path d="M -0.203125 72.90625 
L 10.40625 72.90625 
L 30.609375 42.921875 
L 50.6875 72.90625 
L 61.28125 72.90625 
L 35.5 34.71875 
L 35.5 0 
L 25.59375 0 
L 25.59375 34.71875 
z
" id="DejaVuSans-89"/>
     </defs>
     <g transform="translate(293.465794 46.851814)scale(0.0833 -0.0833)">
      <use xlink:href="#DejaVuSans-89"/>
      <use x="61.083984" xlink:href="#DejaVuSans-32"/>
      <use x="92.871094" xlink:href="#DejaVuSans-115"/>
      <use x="144.970703" xlink:href="#DejaVuSans-105"/>
      <use x="172.753906" xlink:href="#DejaVuSans-109"/>
     </g>
    </g>
   </g>
  </g>
 </g>
 <defs>
  <clipPath id="p492e758028">
   <rect height="277.2" width="279" x="45.08375" y="20.798438"/>
  </clipPath>
 </defs>
</svg>
