<?xml version="1.0" encoding="utf-8" standalone="no"?>
<!DOCTYPE svg PUBLIC "-//W3C//DTD SVG 1.1//EN"
  "http://www.w3.org/Graphics/SVG/1.1/DTD/svg11.dtd">
<!-- Created with matplotlib (https://matplotlib.org/) -->
<svg height="339.425938pt" version="1.1" viewBox="0 0 331.28375 339.425938" width="331.28375pt" xmlns="http://www.w3.org/2000/svg" xmlns:xlink="http://www.w3.org/1999/xlink">
 <defs>
  <style type="text/css">
*{stroke-linecap:butt;stroke-linejoin:round;}
  </style>
 </defs>
 <g id="figure_1">
  <g id="patch_1">
   <path d="M 0 339.425938 
L 331.28375 339.425938 
L 331.28375 0 
L 0 0 
z
" style="fill:#ffffff;"/>
  </g>
  <g id="axes_1">
   <g id="patch_2">
    <path d="M 45.08375 297.998438 
L 324.08375 297.998438 
L 324.08375 20.798438 
L 45.08375 20.798438 
z
" style="fill:#ffffff;"/>
   </g>
   <g id="matplotlib.axis_1">
    <g id="xtick_1">
     <g id="line2d_1">
      <defs>
       <path d="M 0 0 
L 0 3.5 
" id="m3572e821b3" style="stroke:#000000;stroke-width:0.8;"/>
      </defs>
      <g>
       <use style="stroke:#000000;stroke-width:0.8;" x="57.765568" xlink:href="#m3572e821b3" y="297.998438"/>
      </g>
     </g>
     <g id="text_1">
      <!-- 0 -->
      <defs>
       <path d="M 31.78125 66.40625 
Q 24.171875 66.40625 20.328125 58.90625 
Q 16.5 51.421875 16.5 36.375 
Q 16.5 21.390625 20.328125 13.890625 
Q 24.171875 6.390625 31.78125 6.390625 
Q 39.453125 6.390625 43.28125 13.890625 
Q 47.125 21.390625 47.125 36.375 
Q 47.125 51.421875 43.28125 58.90625 
Q 39.453125 66.40625 31.78125 66.40625 
z
M 31.78125 74.21875 
Q 44.046875 74.21875 50.515625 64.515625 
Q 56.984375 54.828125 56.984375 36.375 
Q 56.984375 17.96875 50.515625 8.265625 
Q 44.046875 -1.421875 31.78125 -1.421875 
Q 19.53125 -1.421875 13.0625 8.265625 
Q 6.59375 17.96875 6.59375 36.375 
Q 6.59375 54.828125 13.0625 64.515625 
Q 19.53125 74.21875 31.78125 74.21875 
z
" id="DejaVuSans-48"/>
      </defs>
      <g transform="translate(53.948068 314.116563)scale(0.12 -0.12)">
       <use xlink:href="#DejaVuSans-48"/>
      </g>
     </g>
    </g>
    <g id="xtick_2">
     <g id="line2d_2">
      <g>
       <use style="stroke:#000000;stroke-width:0.8;" x="121.174659" xlink:href="#m3572e821b3" y="297.998438"/>
      </g>
     </g>
     <g id="text_2">
      <!-- 5 -->
      <defs>
       <path d="M 10.796875 72.90625 
L 49.515625 72.90625 
L 49.515625 64.59375 
L 19.828125 64.59375 
L 19.828125 46.734375 
Q 21.96875 47.46875 24.109375 47.828125 
Q 26.265625 48.1875 28.421875 48.1875 
Q 40.625 48.1875 47.75 41.5 
Q 54.890625 34.8125 54.890625 23.390625 
Q 54.890625 11.625 47.5625 5.09375 
Q 40.234375 -1.421875 26.90625 -1.421875 
Q 22.3125 -1.421875 17.546875 -0.640625 
Q 12.796875 0.140625 7.71875 1.703125 
L 7.71875 11.625 
Q 12.109375 9.234375 16.796875 8.0625 
Q 21.484375 6.890625 26.703125 6.890625 
Q 35.15625 6.890625 40.078125 11.328125 
Q 45.015625 15.765625 45.015625 23.390625 
Q 45.015625 31 40.078125 35.4375 
Q 35.15625 39.890625 26.703125 39.890625 
Q 22.75 39.890625 18.8125 39.015625 
Q 14.890625 38.140625 10.796875 36.28125 
z
" id="DejaVuSans-53"/>
      </defs>
      <g transform="translate(117.357159 314.116563)scale(0.12 -0.12)">
       <use xlink:href="#DejaVuSans-53"/>
      </g>
     </g>
    </g>
    <g id="xtick_3">
     <g id="line2d_3">
      <g>
       <use style="stroke:#000000;stroke-width:0.8;" x="184.58375" xlink:href="#m3572e821b3" y="297.998438"/>
      </g>
     </g>
     <g id="text_3">
      <!-- 10 -->
      <defs>
       <path d="M 12.40625 8.296875 
L 28.515625 8.296875 
L 28.515625 63.921875 
L 10.984375 60.40625 
L 10.984375 69.390625 
L 28.421875 72.90625 
L 38.28125 72.90625 
L 38.28125 8.296875 
L 54.390625 8.296875 
L 54.390625 0 
L 12.40625 0 
z
" id="DejaVuSans-49"/>
      </defs>
      <g transform="translate(176.94875 314.116563)scale(0.12 -0.12)">
       <use xlink:href="#DejaVuSans-49"/>
       <use x="63.623047" xlink:href="#DejaVuSans-48"/>
      </g>
     </g>
    </g>
    <g id="xtick_4">
     <g id="line2d_4">
      <g>
       <use style="stroke:#000000;stroke-width:0.8;" x="247.992841" xlink:href="#m3572e821b3" y="297.998438"/>
      </g>
     </g>
     <g id="text_4">
      <!-- 15 -->
      <g transform="translate(240.357841 314.116563)scale(0.12 -0.12)">
       <use xlink:href="#DejaVuSans-49"/>
       <use x="63.623047" xlink:href="#DejaVuSans-53"/>
      </g>
     </g>
    </g>
    <g id="xtick_5">
     <g id="line2d_5">
      <g>
       <use style="stroke:#000000;stroke-width:0.8;" x="311.401932" xlink:href="#m3572e821b3" y="297.998438"/>
      </g>
     </g>
     <g id="text_5">
      <!-- 20 -->
      <defs>
       <path d="M 19.1875 8.296875 
L 53.609375 8.296875 
L 53.609375 0 
L 7.328125 0 
L 7.328125 8.296875 
Q 12.9375 14.109375 22.625 23.890625 
Q 32.328125 33.6875 34.8125 36.53125 
Q 39.546875 41.84375 41.421875 45.53125 
Q 43.3125 49.21875 43.3125 52.78125 
Q 43.3125 58.59375 39.234375 62.25 
Q 35.15625 65.921875 28.609375 65.921875 
Q 23.96875 65.921875 18.8125 64.3125 
Q 13.671875 62.703125 7.8125 59.421875 
L 7.8125 69.390625 
Q 13.765625 71.78125 18.9375 73 
Q 24.125 74.21875 28.421875 74.21875 
Q 39.75 74.21875 46.484375 68.546875 
Q 53.21875 62.890625 53.21875 53.421875 
Q 53.21875 48.921875 51.53125 44.890625 
Q 49.859375 40.875 45.40625 35.40625 
Q 44.1875 33.984375 37.640625 27.21875 
Q 31.109375 20.453125 19.1875 8.296875 
z
" id="DejaVuSans-50"/>
      </defs>
      <g transform="translate(303.766932 314.116563)scale(0.12 -0.12)">
       <use xlink:href="#DejaVuSans-50"/>
       <use x="63.623047" xlink:href="#DejaVuSans-48"/>
      </g>
     </g>
    </g>
    <g id="text_6">
     <!-- time [min] -->
     <defs>
      <path d="M 27.484375 70.21875 
L 27.484375 54.6875 
L 45.515625 54.6875 
L 45.515625 42.1875 
L 27.484375 42.1875 
L 27.484375 19 
Q 27.484375 15.1875 29 13.84375 
Q 30.515625 12.5 35.015625 12.5 
L 44 12.5 
L 44 0 
L 29 0 
Q 18.65625 0 14.328125 4.3125 
Q 10.015625 8.640625 10.015625 19 
L 10.015625 42.1875 
L 1.3125 42.1875 
L 1.3125 54.6875 
L 10.015625 54.6875 
L 10.015625 70.21875 
z
" id="DejaVuSans-Bold-116"/>
      <path d="M 8.40625 54.6875 
L 25.875 54.6875 
L 25.875 0 
L 8.40625 0 
z
M 8.40625 75.984375 
L 25.875 75.984375 
L 25.875 61.71875 
L 8.40625 61.71875 
z
" id="DejaVuSans-Bold-105"/>
      <path d="M 59.078125 45.609375 
Q 62.40625 50.6875 66.96875 53.34375 
Q 71.53125 56 77 56 
Q 86.421875 56 91.359375 50.1875 
Q 96.296875 44.390625 96.296875 33.296875 
L 96.296875 0 
L 78.71875 0 
L 78.71875 28.515625 
Q 78.765625 29.15625 78.78125 29.828125 
Q 78.8125 30.515625 78.8125 31.78125 
Q 78.8125 37.59375 77.09375 40.203125 
Q 75.390625 42.828125 71.578125 42.828125 
Q 66.609375 42.828125 63.890625 38.71875 
Q 61.1875 34.625 61.078125 26.859375 
L 61.078125 0 
L 43.5 0 
L 43.5 28.515625 
Q 43.5 37.59375 41.9375 40.203125 
Q 40.375 42.828125 36.375 42.828125 
Q 31.34375 42.828125 28.609375 38.703125 
Q 25.875 34.578125 25.875 26.90625 
L 25.875 0 
L 8.296875 0 
L 8.296875 54.6875 
L 25.875 54.6875 
L 25.875 46.6875 
Q 29.109375 51.3125 33.28125 53.65625 
Q 37.453125 56 42.484375 56 
Q 48.140625 56 52.484375 53.265625 
Q 56.84375 50.53125 59.078125 45.609375 
z
" id="DejaVuSans-Bold-109"/>
      <path d="M 62.984375 27.484375 
L 62.984375 22.515625 
L 22.125 22.515625 
Q 22.75 16.359375 26.5625 13.28125 
Q 30.375 10.203125 37.203125 10.203125 
Q 42.71875 10.203125 48.5 11.84375 
Q 54.296875 13.484375 60.40625 16.796875 
L 60.40625 3.328125 
Q 54.203125 0.984375 48 -0.21875 
Q 41.796875 -1.421875 35.59375 -1.421875 
Q 20.75 -1.421875 12.515625 6.125 
Q 4.296875 13.671875 4.296875 27.296875 
Q 4.296875 40.671875 12.375 48.328125 
Q 20.453125 56 34.625 56 
Q 47.515625 56 55.25 48.234375 
Q 62.984375 40.484375 62.984375 27.484375 
z
M 45.015625 33.296875 
Q 45.015625 38.28125 42.109375 41.328125 
Q 39.203125 44.390625 34.515625 44.390625 
Q 29.4375 44.390625 26.265625 41.53125 
Q 23.09375 38.671875 22.3125 33.296875 
z
" id="DejaVuSans-Bold-101"/>
      <path id="DejaVuSans-Bold-32"/>
      <path d="M 8.59375 75.984375 
L 38.921875 75.984375 
L 38.921875 64.984375 
L 25.203125 64.984375 
L 25.203125 -2.203125 
L 38.921875 -2.203125 
L 38.921875 -13.1875 
L 8.59375 -13.1875 
z
" id="DejaVuSans-Bold-91"/>
      <path d="M 63.375 33.296875 
L 63.375 0 
L 45.796875 0 
L 45.796875 5.421875 
L 45.796875 25.484375 
Q 45.796875 32.5625 45.484375 35.25 
Q 45.171875 37.9375 44.390625 39.203125 
Q 43.359375 40.921875 41.59375 41.875 
Q 39.84375 42.828125 37.59375 42.828125 
Q 32.125 42.828125 29 38.59375 
Q 25.875 34.375 25.875 26.90625 
L 25.875 0 
L 8.40625 0 
L 8.40625 54.6875 
L 25.875 54.6875 
L 25.875 46.6875 
Q 29.828125 51.46875 34.265625 53.734375 
Q 38.71875 56 44.09375 56 
Q 53.5625 56 58.46875 50.1875 
Q 63.375 44.390625 63.375 33.296875 
z
" id="DejaVuSans-Bold-110"/>
      <path d="M 37.109375 -13.1875 
L 6.78125 -13.1875 
L 6.78125 -2.203125 
L 20.515625 -2.203125 
L 20.515625 64.984375 
L 6.78125 64.984375 
L 6.78125 75.984375 
L 37.109375 75.984375 
z
" id="DejaVuSans-Bold-93"/>
     </defs>
     <g transform="translate(149.18375 329.730313)scale(0.12 -0.12)">
      <use xlink:href="#DejaVuSans-Bold-116"/>
      <use x="47.802734" xlink:href="#DejaVuSans-Bold-105"/>
      <use x="82.080078" xlink:href="#DejaVuSans-Bold-109"/>
      <use x="186.279297" xlink:href="#DejaVuSans-Bold-101"/>
      <use x="254.101562" xlink:href="#DejaVuSans-Bold-32"/>
      <use x="288.916016" xlink:href="#DejaVuSans-Bold-91"/>
      <use x="334.619141" xlink:href="#DejaVuSans-Bold-109"/>
      <use x="438.818359" xlink:href="#DejaVuSans-Bold-105"/>
      <use x="473.095703" xlink:href="#DejaVuSans-Bold-110"/>
      <use x="544.287109" xlink:href="#DejaVuSans-Bold-93"/>
     </g>
    </g>
   </g>
   <g id="matplotlib.axis_2">
    <g id="ytick_1">
     <g id="line2d_6">
      <defs>
       <path d="M 0 0 
L -3.5 0 
" id="m296fe5f1a1" style="stroke:#000000;stroke-width:0.8;"/>
      </defs>
      <g>
       <use style="stroke:#000000;stroke-width:0.8;" x="45.08375" xlink:href="#m296fe5f1a1" y="285.398438"/>
      </g>
     </g>
     <g id="text_7">
      <!-- 0 -->
      <g transform="translate(30.44875 289.9575)scale(0.12 -0.12)">
       <use xlink:href="#DejaVuSans-48"/>
      </g>
     </g>
    </g>
    <g id="ytick_2">
     <g id="line2d_7">
      <g>
       <use style="stroke:#000000;stroke-width:0.8;" x="45.08375" xlink:href="#m296fe5f1a1" y="252.916316"/>
      </g>
     </g>
     <g id="text_8">
      <!-- 5 -->
      <g transform="translate(30.44875 257.475379)scale(0.12 -0.12)">
       <use xlink:href="#DejaVuSans-53"/>
      </g>
     </g>
    </g>
    <g id="ytick_3">
     <g id="line2d_8">
      <g>
       <use style="stroke:#000000;stroke-width:0.8;" x="45.08375" xlink:href="#m296fe5f1a1" y="220.434195"/>
      </g>
     </g>
     <g id="text_9">
      <!-- 10 -->
      <g transform="translate(22.81375 224.993257)scale(0.12 -0.12)">
       <use xlink:href="#DejaVuSans-49"/>
       <use x="63.623047" xlink:href="#DejaVuSans-48"/>
      </g>
     </g>
    </g>
    <g id="ytick_4">
     <g id="line2d_9">
      <g>
       <use style="stroke:#000000;stroke-width:0.8;" x="45.08375" xlink:href="#m296fe5f1a1" y="187.952073"/>
      </g>
     </g>
     <g id="text_10">
      <!-- 15 -->
      <g transform="translate(22.81375 192.511136)scale(0.12 -0.12)">
       <use xlink:href="#DejaVuSans-49"/>
       <use x="63.623047" xlink:href="#DejaVuSans-53"/>
      </g>
     </g>
    </g>
    <g id="ytick_5">
     <g id="line2d_10">
      <g>
       <use style="stroke:#000000;stroke-width:0.8;" x="45.08375" xlink:href="#m296fe5f1a1" y="155.469952"/>
      </g>
     </g>
     <g id="text_11">
      <!-- 20 -->
      <g transform="translate(22.81375 160.029014)scale(0.12 -0.12)">
       <use xlink:href="#DejaVuSans-50"/>
       <use x="63.623047" xlink:href="#DejaVuSans-48"/>
      </g>
     </g>
    </g>
    <g id="ytick_6">
     <g id="line2d_11">
      <g>
       <use style="stroke:#000000;stroke-width:0.8;" x="45.08375" xlink:href="#m296fe5f1a1" y="122.98783"/>
      </g>
     </g>
     <g id="text_12">
      <!-- 25 -->
      <g transform="translate(22.81375 127.546893)scale(0.12 -0.12)">
       <use xlink:href="#DejaVuSans-50"/>
       <use x="63.623047" xlink:href="#DejaVuSans-53"/>
      </g>
     </g>
    </g>
    <g id="ytick_7">
     <g id="line2d_12">
      <g>
       <use style="stroke:#000000;stroke-width:0.8;" x="45.08375" xlink:href="#m296fe5f1a1" y="90.505709"/>
      </g>
     </g>
     <g id="text_13">
      <!-- 30 -->
      <defs>
       <path d="M 40.578125 39.3125 
Q 47.65625 37.796875 51.625 33 
Q 55.609375 28.21875 55.609375 21.1875 
Q 55.609375 10.40625 48.1875 4.484375 
Q 40.765625 -1.421875 27.09375 -1.421875 
Q 22.515625 -1.421875 17.65625 -0.515625 
Q 12.796875 0.390625 7.625 2.203125 
L 7.625 11.71875 
Q 11.71875 9.328125 16.59375 8.109375 
Q 21.484375 6.890625 26.8125 6.890625 
Q 36.078125 6.890625 40.9375 10.546875 
Q 45.796875 14.203125 45.796875 21.1875 
Q 45.796875 27.640625 41.28125 31.265625 
Q 36.765625 34.90625 28.71875 34.90625 
L 20.21875 34.90625 
L 20.21875 43.015625 
L 29.109375 43.015625 
Q 36.375 43.015625 40.234375 45.921875 
Q 44.09375 48.828125 44.09375 54.296875 
Q 44.09375 59.90625 40.109375 62.90625 
Q 36.140625 65.921875 28.71875 65.921875 
Q 24.65625 65.921875 20.015625 65.03125 
Q 15.375 64.15625 9.8125 62.3125 
L 9.8125 71.09375 
Q 15.4375 72.65625 20.34375 73.4375 
Q 25.25 74.21875 29.59375 74.21875 
Q 40.828125 74.21875 47.359375 69.109375 
Q 53.90625 64.015625 53.90625 55.328125 
Q 53.90625 49.265625 50.4375 45.09375 
Q 46.96875 40.921875 40.578125 39.3125 
z
" id="DejaVuSans-51"/>
      </defs>
      <g transform="translate(22.81375 95.064771)scale(0.12 -0.12)">
       <use xlink:href="#DejaVuSans-51"/>
       <use x="63.623047" xlink:href="#DejaVuSans-48"/>
      </g>
     </g>
    </g>
    <g id="ytick_8">
     <g id="line2d_13">
      <g>
       <use style="stroke:#000000;stroke-width:0.8;" x="45.08375" xlink:href="#m296fe5f1a1" y="58.023587"/>
      </g>
     </g>
     <g id="text_14">
      <!-- 35 -->
      <g transform="translate(22.81375 62.58265)scale(0.12 -0.12)">
       <use xlink:href="#DejaVuSans-51"/>
       <use x="63.623047" xlink:href="#DejaVuSans-53"/>
      </g>
     </g>
    </g>
    <g id="ytick_9">
     <g id="line2d_14">
      <g>
       <use style="stroke:#000000;stroke-width:0.8;" x="45.08375" xlink:href="#m296fe5f1a1" y="25.541466"/>
      </g>
     </g>
     <g id="text_15">
      <!-- 40 -->
      <defs>
       <path d="M 37.796875 64.3125 
L 12.890625 25.390625 
L 37.796875 25.390625 
z
M 35.203125 72.90625 
L 47.609375 72.90625 
L 47.609375 25.390625 
L 58.015625 25.390625 
L 58.015625 17.1875 
L 47.609375 17.1875 
L 47.609375 0 
L 37.796875 0 
L 37.796875 17.1875 
L 4.890625 17.1875 
L 4.890625 26.703125 
z
" id="DejaVuSans-52"/>
      </defs>
      <g transform="translate(22.81375 30.100529)scale(0.12 -0.12)">
       <use xlink:href="#DejaVuSans-52"/>
       <use x="63.623047" xlink:href="#DejaVuSans-48"/>
      </g>
     </g>
    </g>
    <g id="text_16">
     <!-- data [dimensionless] -->
     <defs>
      <path d="M 45.609375 46.6875 
L 45.609375 75.984375 
L 63.1875 75.984375 
L 63.1875 0 
L 45.609375 0 
L 45.609375 7.90625 
Q 42 3.078125 37.640625 0.828125 
Q 33.296875 -1.421875 27.59375 -1.421875 
Q 17.484375 -1.421875 10.984375 6.609375 
Q 4.5 14.65625 4.5 27.296875 
Q 4.5 39.9375 10.984375 47.96875 
Q 17.484375 56 27.59375 56 
Q 33.25 56 37.625 53.734375 
Q 42 51.46875 45.609375 46.6875 
z
M 34.078125 11.28125 
Q 39.703125 11.28125 42.65625 15.375 
Q 45.609375 19.484375 45.609375 27.296875 
Q 45.609375 35.109375 42.65625 39.203125 
Q 39.703125 43.3125 34.078125 43.3125 
Q 28.515625 43.3125 25.5625 39.203125 
Q 22.609375 35.109375 22.609375 27.296875 
Q 22.609375 19.484375 25.5625 15.375 
Q 28.515625 11.28125 34.078125 11.28125 
z
" id="DejaVuSans-Bold-100"/>
      <path d="M 32.90625 24.609375 
Q 27.4375 24.609375 24.671875 22.75 
Q 21.921875 20.90625 21.921875 17.28125 
Q 21.921875 13.96875 24.140625 12.078125 
Q 26.375 10.203125 30.328125 10.203125 
Q 35.25 10.203125 38.625 13.734375 
Q 42 17.28125 42 22.609375 
L 42 24.609375 
z
M 59.625 31.203125 
L 59.625 0 
L 42 0 
L 42 8.109375 
Q 38.484375 3.125 34.078125 0.84375 
Q 29.6875 -1.421875 23.390625 -1.421875 
Q 14.890625 -1.421875 9.59375 3.53125 
Q 4.296875 8.5 4.296875 16.40625 
Q 4.296875 26.03125 10.90625 30.515625 
Q 17.53125 35.015625 31.6875 35.015625 
L 42 35.015625 
L 42 36.375 
Q 42 40.53125 38.71875 42.453125 
Q 35.453125 44.390625 28.515625 44.390625 
Q 22.90625 44.390625 18.0625 43.265625 
Q 13.234375 42.140625 9.078125 39.890625 
L 9.078125 53.21875 
Q 14.703125 54.59375 20.359375 55.296875 
Q 26.03125 56 31.6875 56 
Q 46.484375 56 53.046875 50.171875 
Q 59.625 44.34375 59.625 31.203125 
z
" id="DejaVuSans-Bold-97"/>
      <path d="M 51.125 52.984375 
L 51.125 39.703125 
Q 45.515625 42.046875 40.28125 43.21875 
Q 35.0625 44.390625 30.421875 44.390625 
Q 25.4375 44.390625 23.015625 43.140625 
Q 20.609375 41.890625 20.609375 39.3125 
Q 20.609375 37.203125 22.4375 36.078125 
Q 24.265625 34.96875 29 34.421875 
L 32.078125 33.984375 
Q 45.515625 32.28125 50.140625 28.375 
Q 54.78125 24.46875 54.78125 16.109375 
Q 54.78125 7.375 48.328125 2.96875 
Q 41.890625 -1.421875 29.109375 -1.421875 
Q 23.6875 -1.421875 17.890625 -0.5625 
Q 12.109375 0.296875 6 2 
L 6 15.28125 
Q 11.234375 12.75 16.71875 11.46875 
Q 22.21875 10.203125 27.875 10.203125 
Q 33.015625 10.203125 35.59375 11.609375 
Q 38.1875 13.03125 38.1875 15.828125 
Q 38.1875 18.171875 36.40625 19.3125 
Q 34.625 20.453125 29.296875 21.09375 
L 26.21875 21.484375 
Q 14.546875 22.953125 9.859375 26.90625 
Q 5.171875 30.859375 5.171875 38.921875 
Q 5.171875 47.609375 11.125 51.796875 
Q 17.09375 56 29.390625 56 
Q 34.234375 56 39.546875 55.265625 
Q 44.875 54.546875 51.125 52.984375 
z
" id="DejaVuSans-Bold-115"/>
      <path d="M 34.421875 43.5 
Q 28.609375 43.5 25.5625 39.328125 
Q 22.515625 35.15625 22.515625 27.296875 
Q 22.515625 19.4375 25.5625 15.25 
Q 28.609375 11.078125 34.421875 11.078125 
Q 40.140625 11.078125 43.15625 15.25 
Q 46.1875 19.4375 46.1875 27.296875 
Q 46.1875 35.15625 43.15625 39.328125 
Q 40.140625 43.5 34.421875 43.5 
z
M 34.421875 56 
Q 48.53125 56 56.46875 48.375 
Q 64.40625 40.765625 64.40625 27.296875 
Q 64.40625 13.8125 56.46875 6.1875 
Q 48.53125 -1.421875 34.421875 -1.421875 
Q 20.265625 -1.421875 12.28125 6.1875 
Q 4.296875 13.8125 4.296875 27.296875 
Q 4.296875 40.765625 12.28125 48.375 
Q 20.265625 56 34.421875 56 
z
" id="DejaVuSans-Bold-111"/>
      <path d="M 8.40625 75.984375 
L 25.875 75.984375 
L 25.875 0 
L 8.40625 0 
z
" id="DejaVuSans-Bold-108"/>
     </defs>
     <g transform="translate(16.318125 230.466563)rotate(-90)scale(0.12 -0.12)">
      <use xlink:href="#DejaVuSans-Bold-100"/>
      <use x="71.582031" xlink:href="#DejaVuSans-Bold-97"/>
      <use x="139.0625" xlink:href="#DejaVuSans-Bold-116"/>
      <use x="186.865234" xlink:href="#DejaVuSans-Bold-97"/>
      <use x="254.345703" xlink:href="#DejaVuSans-Bold-32"/>
      <use x="289.160156" xlink:href="#DejaVuSans-Bold-91"/>
      <use x="334.863281" xlink:href="#DejaVuSans-Bold-100"/>
      <use x="406.445312" xlink:href="#DejaVuSans-Bold-105"/>
      <use x="440.722656" xlink:href="#DejaVuSans-Bold-109"/>
      <use x="544.921875" xlink:href="#DejaVuSans-Bold-101"/>
      <use x="612.744141" xlink:href="#DejaVuSans-Bold-110"/>
      <use x="683.935547" xlink:href="#DejaVuSans-Bold-115"/>
      <use x="743.457031" xlink:href="#DejaVuSans-Bold-105"/>
      <use x="777.734375" xlink:href="#DejaVuSans-Bold-111"/>
      <use x="846.435547" xlink:href="#DejaVuSans-Bold-110"/>
      <use x="917.626953" xlink:href="#DejaVuSans-Bold-108"/>
      <use x="951.904297" xlink:href="#DejaVuSans-Bold-101"/>
      <use x="1019.726562" xlink:href="#DejaVuSans-Bold-115"/>
      <use x="1079.248047" xlink:href="#DejaVuSans-Bold-115"/>
      <use x="1138.769531" xlink:href="#DejaVuSans-Bold-93"/>
     </g>
    </g>
   </g>
   <g id="line2d_15">
    <path clip-path="url(#p414415d5c3)" d="M 57.765568 285.398438 
L 58.019205 149.071155 
L 58.146023 145.501427 
L 58.399659 164.927746 
L 58.906932 206.413045 
L 59.287386 224.842732 
L 59.667841 234.575346 
L 60.048295 238.464729 
L 60.175114 238.844823 
L 60.301932 238.873499 
L 60.555568 238.08689 
L 60.936023 235.471719 
L 62.077386 226.521905 
L 62.331023 225.87925 
L 62.457841 225.878679 
L 62.584659 226.107982 
L 62.838295 227.277125 
L 63.21875 230.760643 
L 63.726023 238.050129 
L 65.628295 268.833146 
L 66.262386 274.889541 
L 66.896477 278.766081 
L 67.40375 280.732438 
L 67.911023 282.012299 
L 68.545114 282.982006 
L 69.179205 283.519226 
L 69.940114 283.831217 
L 70.827841 283.918626 
L 71.715568 283.783251 
L 72.476477 283.473436 
L 73.237386 282.91309 
L 73.871477 282.163359 
L 74.505568 281.033084 
L 75.139659 279.350125 
L 75.77375 276.869086 
L 76.407841 273.2494 
L 77.041932 268.035617 
L 77.676023 260.652481 
L 78.310114 250.440175 
L 78.944205 236.772254 
L 79.705114 215.376592 
L 80.973295 171.206231 
L 81.861023 144.108372 
L 82.241477 137.087114 
L 82.495114 134.715264 
L 82.621932 134.315976 
L 82.74875 134.471943 
L 83.002386 136.504593 
L 83.256023 140.848151 
L 83.636477 151.445269 
L 84.270568 177.376678 
L 85.665568 238.611095 
L 86.299659 257.164809 
L 86.93375 269.086748 
L 87.441023 275.024086 
L 87.948295 278.778863 
L 88.455568 281.095813 
L 88.962841 282.503913 
L 89.470114 283.353054 
L 90.104205 283.956197 
L 90.865114 284.319595 
L 91.879659 284.519155 
L 93.401477 284.56117 
L 94.923295 284.394296 
L 96.064659 284.045396 
L 96.825568 283.609778 
L 97.586477 282.895306 
L 98.220568 281.968107 
L 98.854659 280.585135 
L 99.48875 278.534135 
L 100.122841 275.513797 
L 100.756932 271.106991 
L 101.391023 264.757434 
L 102.025114 255.764979 
L 102.659205 243.32872 
L 103.293295 226.683345 
L 104.054205 200.56699 
L 105.06875 157.059092 
L 106.336932 104.11532 
L 106.844205 90.990235 
L 107.224659 86.674511 
L 107.351477 86.477172 
L 107.478295 86.94413 
L 107.731932 89.934505 
L 108.112386 99.598858 
L 108.619659 121.299382 
L 109.507386 173.531437 
L 110.395114 222.793064 
L 111.029205 247.715041 
L 111.663295 263.825803 
L 112.170568 271.85473 
L 112.677841 276.918852 
L 113.185114 280.02774 
L 113.692386 281.903373 
L 114.199659 283.024239 
L 114.706932 283.692042 
L 115.341023 284.162442 
L 116.101932 284.445056 
L 117.243295 284.612963 
L 119.145568 284.633062 
L 120.794205 284.456872 
L 121.935568 284.128731 
L 122.823295 283.633447 
L 123.584205 282.912629 
L 124.218295 281.978136 
L 124.852386 280.584523 
L 125.486477 278.517292 
L 126.120568 275.471647 
L 126.754659 271.025022 
L 127.38875 264.612632 
L 128.022841 255.520911 
L 128.656932 242.927414 
L 129.291023 226.031627 
L 130.051932 199.408088 
L 131.066477 154.580069 
L 132.334659 98.038175 
L 132.841932 82.630792 
L 133.222386 76.307637 
L 133.476023 75.148868 
L 133.602841 75.574652 
L 133.856477 78.531709 
L 134.236932 88.302827 
L 134.744205 110.550127 
L 135.631932 165.073093 
L 136.646477 223.705732 
L 137.280568 248.606267 
L 137.914659 264.47694 
L 138.421932 272.311563 
L 138.929205 277.222845 
L 139.436477 280.223903 
L 139.94375 282.028184 
L 140.451023 283.10367 
L 140.958295 283.743314 
L 141.592386 284.193391 
L 142.353295 284.463791 
L 143.621477 284.633638 
L 145.52375 284.64304 
L 147.172386 284.467867 
L 148.31375 284.144985 
L 149.201477 283.65821 
L 149.962386 282.949896 
L 150.596477 282.031529 
L 151.230568 280.661679 
L 151.864659 278.629057 
L 152.49875 275.633094 
L 153.132841 271.256426 
L 153.766932 264.93987 
L 154.401023 255.974228 
L 155.035114 243.536626 
L 155.669205 226.815028 
L 156.430114 200.378354 
L 157.444659 155.570015 
L 158.839659 93.472427 
L 159.346932 79.015849 
L 159.727386 73.67223 
L 159.854205 73.135147 
L 159.981023 73.268927 
L 160.234659 75.630586 
L 160.488295 80.853409 
L 160.86875 93.945136 
L 161.376023 119.84646 
L 163.405114 237.111806 
L 164.039205 257.37933 
L 164.546477 267.745606 
L 165.05375 274.38408 
L 165.561023 278.499481 
L 166.068295 280.995703 
L 166.575568 282.489959 
L 167.082841 283.379026 
L 167.716932 284.002701 
L 168.477841 284.375184 
L 169.492386 284.584362 
L 171.141023 284.664901 
L 173.170114 284.545172 
L 174.438295 284.273967 
L 175.326023 283.888161 
L 176.086932 283.324673 
L 176.721023 282.592184 
L 177.355114 281.496812 
L 177.989205 279.866462 
L 178.623295 277.453834 
L 179.257386 273.910441 
L 179.891477 268.759051 
L 180.525568 261.373575 
L 181.159659 250.98597 
L 181.79375 236.754978 
L 182.554659 213.595151 
L 183.442386 177.909759 
L 184.58375 124.107052 
L 184.58375 220.434195 
L 185.091023 143.56144 
L 185.598295 99.321609 
L 186.232386 64.529636 
L 186.739659 46.219803 
L 187.120114 37.480408 
L 187.37375 34.274315 
L 187.627386 33.398438 
L 187.754205 33.899419 
L 188.007841 36.89535 
L 188.388295 46.609623 
L 188.895568 69.289537 
L 189.529659 110.39427 
L 191.051477 215.394753 
L 191.685568 243.804296 
L 192.319659 261.86979 
L 192.826932 270.765962 
L 193.334205 276.328028 
L 193.841477 279.716077 
L 194.34875 281.745496 
L 194.856023 282.950027 
L 195.363295 283.663026 
L 195.997386 284.162045 
L 196.758295 284.460497 
L 197.899659 284.641064 
L 199.92875 284.693313 
L 201.957841 284.548633 
L 203.226023 284.257253 
L 204.11375 283.846757 
L 204.874659 283.248757 
L 205.50875 282.472276 
L 206.142841 281.311931 
L 206.776932 279.585967 
L 207.411023 277.033682 
L 208.045114 273.288708 
L 208.679205 267.85133 
L 209.313295 260.069914 
L 209.947386 249.152592 
L 210.581477 234.24581 
L 211.342386 210.105359 
L 212.230114 173.187771 
L 214.259205 81.913797 
L 214.766477 69.737239 
L 215.020114 67.048794 
L 215.146932 66.676074 
L 215.27375 66.98749 
L 215.527386 69.74052 
L 215.781023 75.396385 
L 216.161477 89.197151 
L 216.66875 116.100657 
L 218.697841 236.338736 
L 219.331932 256.978224 
L 219.839205 267.516444 
L 220.346477 274.256385 
L 220.85375 278.429953 
L 221.361023 280.958834 
L 221.868295 282.471159 
L 222.375568 283.370132 
L 223.009659 284.000143 
L 223.770568 284.376069 
L 224.785114 284.587326 
L 226.43375 284.671054 
L 228.462841 284.563008 
L 229.857841 284.272994 
L 230.745568 283.884205 
L 231.506477 283.316624 
L 232.140568 282.578951 
L 232.774659 281.475933 
L 233.40875 279.834323 
L 234.042841 277.405209 
L 234.676932 273.837933 
L 235.311023 268.652485 
L 235.945114 261.219517 
L 236.579205 250.767712 
L 237.213295 236.453509 
L 237.974205 213.169317 
L 238.861932 177.316447 
L 241.017841 83.451952 
L 241.398295 74.959757 
L 241.651932 72.148628 
L 241.77875 71.701505 
L 241.905568 71.930247 
L 242.159205 74.494049 
L 242.412841 79.929856 
L 242.793295 93.344338 
L 243.300568 119.635734 
L 245.329659 237.353117 
L 245.96375 257.551536 
L 246.471023 267.86508 
L 246.978295 274.462662 
L 247.485568 278.549433 
L 247.992841 281.02684 
L 248.500114 282.509222 
L 249.007386 283.390987 
L 249.641477 284.009444 
L 250.402386 284.378804 
L 251.416932 284.586278 
L 253.065568 284.66629 
L 255.094659 284.547891 
L 256.362841 284.279417 
L 257.250568 283.897431 
L 258.011477 283.339467 
L 258.645568 282.614094 
L 259.279659 281.529254 
L 259.91375 279.914375 
L 260.547841 277.524242 
L 261.181932 274.013107 
L 261.816023 268.907071 
L 262.450114 261.583584 
L 263.084205 251.277303 
L 263.718295 237.146687 
L 264.479205 214.12231 
L 265.366932 178.572098 
L 267.522841 84.702099 
L 267.903295 76.030838 
L 268.156932 73.073027 
L 268.28375 72.545594 
L 268.410568 72.69009 
L 268.664205 75.076219 
L 268.917841 80.327333 
L 269.298295 93.468109 
L 269.805568 119.445285 
L 271.834659 237.002327 
L 272.46875 257.318141 
L 272.976023 267.708686 
L 273.483295 274.362396 
L 273.990568 278.487014 
L 274.497841 280.988666 
L 275.005114 282.486062 
L 275.512386 283.376924 
L 276.146477 284.001798 
L 276.907386 284.374959 
L 277.921932 284.584532 
L 279.570568 284.665491 
L 281.599659 284.547005 
L 282.867841 284.277931 
L 283.755568 283.895059 
L 284.516477 283.335798 
L 285.150568 282.608749 
L 285.784659 281.521426 
L 286.41875 279.902902 
L 287.052841 277.507476 
L 287.686932 273.988766 
L 288.321023 268.872109 
L 288.955114 261.534165 
L 289.589205 251.209037 
L 290.223295 237.05541 
L 290.984205 214.000749 
L 291.871932 178.423098 
L 294.027841 84.682231 
L 294.408295 76.080122 
L 294.661932 73.175635 
L 294.78875 72.676607 
L 294.915568 72.850398 
L 295.169205 75.29672 
L 295.422841 80.607957 
L 295.803295 93.831662 
L 296.310568 119.886973 
L 298.339659 237.261195 
L 298.97375 257.480152 
L 299.481023 267.813669 
L 299.988295 274.427962 
L 300.495568 278.526926 
L 301.002841 281.01256 
L 301.510114 282.500231 
L 302.017386 283.385296 
L 302.651477 284.006138 
L 303.412386 284.376939 
L 304.426932 284.585191 
L 306.075568 284.665341 
L 308.104659 284.545796 
L 309.372841 284.275118 
L 310.260568 283.890064 
L 311.021477 283.327668 
L 311.401932 282.924871 
L 311.401932 282.924871 
" style="fill:none;stroke:#000000;stroke-linecap:square;stroke-width:2;"/>
   </g>
   <g id="line2d_16">
    <path clip-path="url(#p414415d5c3)" d="M 57.765568 155.469952 
L 57.892386 86.395972 
L 58.019205 94.04956 
L 58.526477 193.112551 
L 58.906932 233.761914 
L 59.287386 256.114253 
L 59.667841 268.286046 
L 60.048295 274.888384 
L 60.42875 278.467952 
L 60.809205 280.420309 
L 61.189659 281.50659 
L 61.696932 282.288474 
L 62.331023 282.797622 
L 63.21875 283.163978 
L 64.106477 283.287579 
L 64.867386 283.199386 
L 65.628295 282.891478 
L 66.262386 282.411647 
L 66.896477 281.648662 
L 67.530568 280.48581 
L 68.164659 278.752486 
L 68.79875 276.207324 
L 69.432841 272.520551 
L 70.066932 267.262281 
L 70.701023 259.912062 
L 71.335114 249.918658 
L 72.096023 233.861498 
L 72.98375 209.866749 
L 74.37875 171.66509 
L 74.886023 163.884835 
L 75.139659 162.366802 
L 75.266477 162.291204 
L 75.393295 162.693086 
L 75.646932 164.957404 
L 76.027386 171.92141 
L 76.534659 186.849988 
L 78.56375 255.934924 
L 79.197841 267.903227 
L 79.705114 274.082736 
L 80.212386 278.088191 
L 80.719659 280.609126 
L 81.226932 282.16566 
L 81.734205 283.116175 
L 82.368295 283.798212 
L 83.002386 284.162547 
L 83.890114 284.400779 
L 85.158295 284.479424 
L 86.553295 284.345236 
L 87.567841 284.058206 
L 88.455568 283.57322 
L 89.216477 282.861337 
L 89.850568 281.936234 
L 90.484659 280.556034 
L 91.11875 278.509652 
L 91.752841 275.497831 
L 92.386932 271.107092 
L 93.021023 264.787661 
L 93.655114 255.851063 
L 94.289205 243.517314 
L 94.923295 227.05824 
L 95.684205 201.368514 
L 96.825568 153.5491 
L 97.840114 113.536622 
L 98.347386 100.7682 
L 98.727841 96.570332 
L 98.854659 96.382203 
L 98.981477 96.842153 
L 99.235114 99.765426 
L 99.615568 109.17492 
L 100.122841 130.185105 
L 101.010568 180.222162 
L 101.898295 226.817156 
L 102.532386 250.192961 
L 103.166477 265.239471 
L 103.67375 272.72114 
L 104.181023 277.435975 
L 104.688295 280.330293 
L 105.195568 282.077614 
L 105.702841 283.123109 
L 106.210114 283.747076 
L 106.844205 284.187517 
L 107.731932 284.480252 
L 109.000114 284.622652 
L 110.902386 284.595149 
L 112.424205 284.369866 
L 113.43875 284.01253 
L 114.199659 283.53551 
L 114.83375 282.913778 
L 115.467841 281.982216 
L 116.101932 280.592919 
L 116.736023 278.532113 
L 117.370114 275.496053 
L 118.004205 271.063665 
L 118.638295 264.672241 
L 119.272386 255.611036 
L 119.906477 243.061386 
L 120.540568 226.227897 
L 121.301477 199.71386 
L 122.316023 155.125023 
L 123.584205 99.147257 
L 124.091477 84.083589 
L 124.471932 78.062521 
L 124.725568 77.119994 
L 124.852386 77.655924 
L 125.106023 80.831321 
L 125.486477 90.901146 
L 125.99375 113.412938 
L 126.881477 167.769193 
L 127.896023 225.437868 
L 128.530114 249.721079 
L 129.164205 265.133745 
L 129.671477 272.722736 
L 130.17875 277.473148 
L 130.686023 280.373381 
L 131.193295 282.116356 
L 131.700568 283.155305 
L 132.207841 283.773424 
L 132.841932 284.208627 
L 133.729659 284.497717 
L 134.997841 284.641054 
L 137.026932 284.624103 
L 138.675568 284.399959 
L 139.690114 284.060804 
L 140.451023 283.608412 
L 141.085114 283.018731 
L 141.719205 282.134855 
L 142.353295 280.815861 
L 142.987386 278.857641 
L 143.621477 275.969316 
L 144.255568 271.74589 
L 144.889659 265.642587 
L 145.52375 256.964158 
L 146.157841 244.89546 
L 146.791932 228.615569 
L 147.552841 202.745698 
L 148.567386 158.484479 
L 150.089205 91.358838 
L 150.596477 77.957035 
L 150.850114 74.452668 
L 151.10375 73.463894 
L 151.230568 73.982464 
L 151.484205 77.137408 
L 151.864659 87.224294 
L 152.371932 109.88848 
L 153.259659 164.961143 
L 154.274205 223.81549 
L 154.908295 248.717645 
L 155.542386 264.559232 
L 156.049659 272.369543 
L 156.556932 277.261537 
L 157.064205 280.248935 
L 157.571477 282.044156 
L 158.07875 283.11387 
L 158.586023 283.749928 
L 159.220114 284.197415 
L 159.981023 284.466259 
L 161.249205 284.635251 
L 163.151477 284.645282 
L 164.926932 284.448543 
L 166.068295 284.102245 
L 166.956023 283.581435 
L 167.590114 282.977473 
L 168.224205 282.072447 
L 168.858295 280.722264 
L 169.492386 278.718384 
L 170.126477 275.763926 
L 170.760568 271.446193 
L 171.394659 265.211349 
L 172.02875 256.355161 
L 172.662841 244.056947 
L 173.296932 227.499802 
L 174.057841 201.267067 
L 175.072386 156.624973 
L 176.467386 94.148732 
L 176.974659 79.300916 
L 177.355114 73.579003 
L 177.481932 72.902714 
L 177.60875 72.892279 
L 177.735568 73.570813 
L 177.989205 77.056677 
L 178.369659 87.641221 
L 178.876932 110.884141 
L 179.764659 166.414122 
L 180.652386 218.807591 
L 181.286477 245.350976 
L 181.920568 262.516376 
L 182.427841 271.068149 
L 182.935114 276.457961 
L 183.442386 279.762996 
L 183.949659 281.753958 
L 184.456932 282.941548 
L 184.58375 283.153815 
L 184.58375 155.469952 
L 184.964205 215.183445 
L 185.344659 247.232853 
L 185.725114 264.467268 
L 186.105568 273.752267 
L 186.486023 278.764538 
L 186.866477 281.476852 
L 187.246932 282.94919 
L 187.627386 283.751708 
L 188.134659 284.288559 
L 188.76875 284.568006 
L 189.783295 284.698522 
L 191.685568 284.677943 
L 193.461023 284.461634 
L 194.602386 284.098949 
L 195.363295 283.65492 
L 196.124205 282.930415 
L 196.758295 281.991691 
L 197.392386 280.591732 
L 198.026477 278.51439 
L 198.660568 275.452174 
L 199.294659 270.978081 
L 199.92875 264.51995 
L 200.562841 255.351736 
L 201.196932 242.629482 
L 201.831023 225.515127 
L 202.591932 198.416385 
L 203.606477 152.247913 
L 205.128295 81.962647 
L 205.635568 67.362246 
L 206.016023 62.072382 
L 206.142841 61.581424 
L 206.269659 61.77541 
L 206.523295 64.301744 
L 206.776932 69.754726 
L 207.157386 83.339829 
L 207.664659 110.23833 
L 209.820568 238.889142 
L 210.454659 258.643895 
L 210.961932 268.621229 
L 211.469205 274.959193 
L 211.976477 278.864759 
L 212.48375 281.223337 
L 212.991023 282.630844 
L 213.498295 283.466604 
L 214.132386 284.052205 
L 214.893295 284.401913 
L 215.907841 284.598699 
L 217.683295 284.675126 
L 219.712386 284.550462 
L 220.980568 284.278186 
L 221.868295 283.89188 
L 222.629205 283.327999 
L 223.263295 282.595133 
L 223.897386 281.499243 
L 224.531477 279.868086 
L 225.165568 277.454111 
L 225.799659 273.908408 
L 226.43375 268.753028 
L 227.067841 261.360636 
L 227.701932 250.961021 
L 228.336023 236.709072 
L 229.096932 213.502383 
L 229.984659 177.703829 
L 232.140568 83.256952 
L 232.521023 74.494283 
L 232.774659 71.476621 
L 232.901477 70.919983 
L 233.028295 71.036097 
L 233.281932 73.369476 
L 233.535568 78.576668 
L 233.916023 91.679845 
L 234.423295 117.690054 
L 236.579205 241.149122 
L 237.213295 259.942836 
L 237.720568 269.420526 
L 238.227841 275.437524 
L 238.735114 279.145125 
L 239.242386 281.385094 
L 239.749659 282.722938 
L 240.256932 283.518282 
L 240.891023 284.076458 
L 241.651932 284.410395 
L 242.793295 284.610652 
L 244.56875 284.663459 
L 246.471023 284.517951 
L 247.739205 284.206955 
L 248.626932 283.767421 
L 249.387841 283.126932 
L 250.021932 282.295591 
L 250.656023 281.054133 
L 251.290114 279.209405 
L 251.924205 276.485328 
L 252.558295 272.49586 
L 253.192386 266.718383 
L 253.826477 258.479244 
L 254.460568 246.975398 
L 255.094659 231.371978 
L 255.855568 206.365959 
L 256.743295 168.816889 
L 258.51875 89.783899 
L 259.026023 76.605751 
L 259.279659 73.250882 
L 259.406477 72.509763 
L 259.533295 72.432419 
L 259.660114 73.042534 
L 259.91375 76.389809 
L 260.294205 86.775137 
L 260.801477 109.811974 
L 261.689205 165.29347 
L 262.70375 224.171586 
L 263.337841 248.978565 
L 263.971932 264.725892 
L 264.479205 272.478882 
L 264.986477 277.330729 
L 265.49375 280.29175 
L 266.001023 282.07035 
L 266.508295 283.129873 
L 267.015568 283.759783 
L 267.649659 284.202936 
L 268.537386 284.49715 
L 269.805568 284.643774 
L 271.834659 284.633205 
L 273.483295 284.424153 
L 274.497841 284.106199 
L 275.385568 283.588128 
L 276.019659 282.987319 
L 276.65375 282.086976 
L 277.287841 280.743699 
L 277.921932 278.749909 
L 278.556023 275.810016 
L 279.190114 271.512954 
L 279.824205 265.306746 
L 280.458295 256.488874 
L 281.092386 244.239358 
L 281.726477 227.73944 
L 282.487386 201.576892 
L 283.501932 156.987906 
L 284.896932 94.355646 
L 285.404205 79.354611 
L 285.784659 73.485096 
L 285.911477 72.754524 
L 286.038295 72.687854 
L 286.165114 73.308667 
L 286.41875 76.676891 
L 286.799205 87.090016 
L 287.306477 110.14878 
L 288.194205 165.600543 
L 289.20875 224.365013 
L 289.842841 249.102139 
L 290.476932 264.798315 
L 290.984205 272.524072 
L 291.491477 277.358164 
L 291.99875 280.308093 
L 292.506023 282.079967 
L 293.013295 283.135489 
L 293.520568 283.763048 
L 294.154659 284.204578 
L 295.042386 284.497737 
L 296.310568 284.643774 
L 298.339659 284.632579 
L 299.988295 284.422327 
L 301.002841 284.102715 
L 301.890568 283.582005 
L 302.524659 282.978171 
L 303.15875 282.073341 
L 303.792841 280.723447 
L 304.426932 278.719982 
L 305.061023 275.766105 
L 305.695114 271.449157 
L 306.329205 265.215328 
L 306.963295 256.36035 
L 307.597386 244.063373 
L 308.231477 227.507039 
L 308.992386 201.27333 
L 310.006932 156.62119 
L 311.401932 94.094031 
L 311.401932 94.094031 
" style="fill:none;stroke:#0000ff;stroke-linecap:square;stroke-width:2;"/>
   </g>
   <g id="patch_3">
    <path d="M 45.08375 297.998438 
L 45.08375 20.798438 
" style="fill:none;stroke:#000000;stroke-linecap:square;stroke-linejoin:miter;stroke-width:0.8;"/>
   </g>
   <g id="patch_4">
    <path d="M 324.08375 297.998438 
L 324.08375 20.798438 
" style="fill:none;stroke:#000000;stroke-linecap:square;stroke-linejoin:miter;stroke-width:0.8;"/>
   </g>
   <g id="patch_5">
    <path d="M 45.08375 297.998438 
L 324.08375 297.998438 
" style="fill:none;stroke:#000000;stroke-linecap:square;stroke-linejoin:miter;stroke-width:0.8;"/>
   </g>
   <g id="patch_6">
    <path d="M 45.08375 20.798438 
L 324.08375 20.798438 
" style="fill:none;stroke:#000000;stroke-linecap:square;stroke-linejoin:miter;stroke-width:0.8;"/>
   </g>
   <g id="text_17">
    <!-- RepressilatorExperiment_Fig1 -->
    <defs>
     <path d="M 35.890625 40.578125 
Q 41.796875 40.578125 44.359375 42.765625 
Q 46.921875 44.96875 46.921875 50 
Q 46.921875 54.984375 44.359375 57.125 
Q 41.796875 59.28125 35.890625 59.28125 
L 27.984375 59.28125 
L 27.984375 40.578125 
z
M 27.984375 27.59375 
L 27.984375 0 
L 9.1875 0 
L 9.1875 72.90625 
L 37.890625 72.90625 
Q 52.296875 72.90625 59 68.0625 
Q 65.71875 63.234375 65.71875 52.78125 
Q 65.71875 45.5625 62.21875 40.921875 
Q 58.734375 36.28125 51.703125 34.078125 
Q 55.5625 33.203125 58.609375 30.09375 
Q 61.671875 27 64.796875 20.703125 
L 75 0 
L 54.984375 0 
L 46.09375 18.109375 
Q 43.40625 23.578125 40.640625 25.578125 
Q 37.890625 27.59375 33.296875 27.59375 
z
" id="DejaVuSans-Bold-82"/>
     <path d="M 25.875 7.90625 
L 25.875 -20.796875 
L 8.40625 -20.796875 
L 8.40625 54.6875 
L 25.875 54.6875 
L 25.875 46.6875 
Q 29.5 51.46875 33.890625 53.734375 
Q 38.28125 56 44 56 
Q 54.109375 56 60.59375 47.96875 
Q 67.09375 39.9375 67.09375 27.296875 
Q 67.09375 14.65625 60.59375 6.609375 
Q 54.109375 -1.421875 44 -1.421875 
Q 38.28125 -1.421875 33.890625 0.84375 
Q 29.5 3.125 25.875 7.90625 
z
M 37.5 43.3125 
Q 31.890625 43.3125 28.875 39.1875 
Q 25.875 35.0625 25.875 27.296875 
Q 25.875 19.53125 28.875 15.40625 
Q 31.890625 11.28125 37.5 11.28125 
Q 43.109375 11.28125 46.0625 15.375 
Q 49.03125 19.484375 49.03125 27.296875 
Q 49.03125 35.109375 46.0625 39.203125 
Q 43.109375 43.3125 37.5 43.3125 
z
" id="DejaVuSans-Bold-112"/>
     <path d="M 49.03125 39.796875 
Q 46.734375 40.875 44.453125 41.375 
Q 42.1875 41.890625 39.890625 41.890625 
Q 33.15625 41.890625 29.515625 37.5625 
Q 25.875 33.25 25.875 25.203125 
L 25.875 0 
L 8.40625 0 
L 8.40625 54.6875 
L 25.875 54.6875 
L 25.875 45.703125 
Q 29.25 51.078125 33.609375 53.53125 
Q 37.984375 56 44.09375 56 
Q 44.96875 56 45.984375 55.921875 
Q 47.015625 55.859375 48.96875 55.609375 
z
" id="DejaVuSans-Bold-114"/>
     <path d="M 9.1875 72.90625 
L 59.90625 72.90625 
L 59.90625 58.6875 
L 27.984375 58.6875 
L 27.984375 45.125 
L 58.015625 45.125 
L 58.015625 30.90625 
L 27.984375 30.90625 
L 27.984375 14.203125 
L 60.984375 14.203125 
L 60.984375 0 
L 9.1875 0 
z
" id="DejaVuSans-Bold-69"/>
     <path d="M 22.21875 27.984375 
L 2.484375 54.6875 
L 21 54.6875 
L 32.171875 38.484375 
L 43.5 54.6875 
L 62.015625 54.6875 
L 42.28125 28.078125 
L 62.984375 0 
L 44.484375 0 
L 32.171875 17.28125 
L 20.015625 0 
L 1.515625 0 
z
" id="DejaVuSans-Bold-120"/>
     <path d="M 50 -14.3125 
L 50 -23.578125 
L 0 -23.578125 
L 0 -14.3125 
z
" id="DejaVuSans-Bold-95"/>
     <path d="M 9.1875 72.90625 
L 59.90625 72.90625 
L 59.90625 58.6875 
L 27.984375 58.6875 
L 27.984375 45.125 
L 58.015625 45.125 
L 58.015625 30.90625 
L 27.984375 30.90625 
L 27.984375 0 
L 9.1875 0 
z
" id="DejaVuSans-Bold-70"/>
     <path d="M 45.609375 9.28125 
Q 42 4.5 37.640625 2.25 
Q 33.296875 0 27.59375 0 
Q 17.578125 0 11.03125 7.875 
Q 4.5 15.765625 4.5 27.984375 
Q 4.5 40.234375 11.03125 48.0625 
Q 17.578125 55.90625 27.59375 55.90625 
Q 33.296875 55.90625 37.640625 53.65625 
Q 42 51.421875 45.609375 46.578125 
L 45.609375 54.6875 
L 63.1875 54.6875 
L 63.1875 5.515625 
Q 63.1875 -7.671875 54.859375 -14.625 
Q 46.53125 -21.578125 30.71875 -21.578125 
Q 25.59375 -21.578125 20.796875 -20.796875 
Q 16.015625 -20.015625 11.1875 -18.40625 
L 11.1875 -4.78125 
Q 15.765625 -7.421875 20.15625 -8.71875 
Q 24.5625 -10.015625 29 -10.015625 
Q 37.59375 -10.015625 41.59375 -6.25 
Q 45.609375 -2.484375 45.609375 5.515625 
z
M 34.078125 43.3125 
Q 28.65625 43.3125 25.625 39.296875 
Q 22.609375 35.296875 22.609375 27.984375 
Q 22.609375 20.453125 25.53125 16.578125 
Q 28.46875 12.703125 34.078125 12.703125 
Q 39.546875 12.703125 42.578125 16.703125 
Q 45.609375 20.703125 45.609375 27.984375 
Q 45.609375 35.296875 42.578125 39.296875 
Q 39.546875 43.3125 34.078125 43.3125 
z
" id="DejaVuSans-Bold-103"/>
     <path d="M 11.71875 12.984375 
L 28.328125 12.984375 
L 28.328125 60.109375 
L 11.28125 56.59375 
L 11.28125 69.390625 
L 28.21875 72.90625 
L 46.09375 72.90625 
L 46.09375 12.984375 
L 62.703125 12.984375 
L 62.703125 0 
L 11.71875 0 
z
" id="DejaVuSans-Bold-49"/>
    </defs>
    <g transform="translate(99.832969 14.798438)scale(0.1 -0.1)">
     <use xlink:href="#DejaVuSans-Bold-82"/>
     <use x="77.001953" xlink:href="#DejaVuSans-Bold-101"/>
     <use x="144.824219" xlink:href="#DejaVuSans-Bold-112"/>
     <use x="216.40625" xlink:href="#DejaVuSans-Bold-114"/>
     <use x="265.722656" xlink:href="#DejaVuSans-Bold-101"/>
     <use x="333.544922" xlink:href="#DejaVuSans-Bold-115"/>
     <use x="393.066406" xlink:href="#DejaVuSans-Bold-115"/>
     <use x="452.587891" xlink:href="#DejaVuSans-Bold-105"/>
     <use x="486.865234" xlink:href="#DejaVuSans-Bold-108"/>
     <use x="521.142578" xlink:href="#DejaVuSans-Bold-97"/>
     <use x="588.623047" xlink:href="#DejaVuSans-Bold-116"/>
     <use x="636.425781" xlink:href="#DejaVuSans-Bold-111"/>
     <use x="705.126953" xlink:href="#DejaVuSans-Bold-114"/>
     <use x="754.443359" xlink:href="#DejaVuSans-Bold-69"/>
     <use x="822.753906" xlink:href="#DejaVuSans-Bold-120"/>
     <use x="887.255859" xlink:href="#DejaVuSans-Bold-112"/>
     <use x="958.837891" xlink:href="#DejaVuSans-Bold-101"/>
     <use x="1026.660156" xlink:href="#DejaVuSans-Bold-114"/>
     <use x="1075.976562" xlink:href="#DejaVuSans-Bold-105"/>
     <use x="1110.253906" xlink:href="#DejaVuSans-Bold-109"/>
     <use x="1214.453125" xlink:href="#DejaVuSans-Bold-101"/>
     <use x="1282.275391" xlink:href="#DejaVuSans-Bold-110"/>
     <use x="1353.466797" xlink:href="#DejaVuSans-Bold-116"/>
     <use x="1401.269531" xlink:href="#DejaVuSans-Bold-95"/>
     <use x="1451.269531" xlink:href="#DejaVuSans-Bold-70"/>
     <use x="1519.580078" xlink:href="#DejaVuSans-Bold-105"/>
     <use x="1553.857422" xlink:href="#DejaVuSans-Bold-103"/>
     <use x="1625.439453" xlink:href="#DejaVuSans-Bold-49"/>
    </g>
   </g>
   <g id="legend_1">
    <g id="patch_7">
     <path d="M 268.475794 51.916194 
L 318.25275 51.916194 
Q 319.91875 51.916194 319.91875 50.250194 
L 319.91875 26.629438 
Q 319.91875 24.963438 318.25275 24.963438 
L 268.475794 24.963438 
Q 266.809794 24.963438 266.809794 26.629438 
L 266.809794 50.250194 
Q 266.809794 51.916194 268.475794 51.916194 
z
" style="fill:#ffffff;opacity:0.8;stroke:#cccccc;stroke-linejoin:miter;"/>
    </g>
    <g id="line2d_17">
     <path d="M 270.141794 31.709436 
L 286.801794 31.709436 
" style="fill:none;stroke:#000000;stroke-linecap:square;stroke-width:2;"/>
    </g>
    <g id="line2d_18"/>
    <g id="text_18">
     <!-- X sim -->
     <defs>
      <path d="M 6.296875 72.90625 
L 16.890625 72.90625 
L 35.015625 45.796875 
L 53.21875 72.90625 
L 63.8125 72.90625 
L 40.375 37.890625 
L 65.375 0 
L 54.78125 0 
L 34.28125 31 
L 13.625 0 
L 2.984375 0 
L 29 38.921875 
z
" id="DejaVuSans-88"/>
      <path id="DejaVuSans-32"/>
      <path d="M 44.28125 53.078125 
L 44.28125 44.578125 
Q 40.484375 46.53125 36.375 47.5 
Q 32.28125 48.484375 27.875 48.484375 
Q 21.1875 48.484375 17.84375 46.4375 
Q 14.5 44.390625 14.5 40.28125 
Q 14.5 37.15625 16.890625 35.375 
Q 19.28125 33.59375 26.515625 31.984375 
L 29.59375 31.296875 
Q 39.15625 29.25 43.1875 25.515625 
Q 47.21875 21.78125 47.21875 15.09375 
Q 47.21875 7.46875 41.1875 3.015625 
Q 35.15625 -1.421875 24.609375 -1.421875 
Q 20.21875 -1.421875 15.453125 -0.5625 
Q 10.6875 0.296875 5.421875 2 
L 5.421875 11.28125 
Q 10.40625 8.6875 15.234375 7.390625 
Q 20.0625 6.109375 24.8125 6.109375 
Q 31.15625 6.109375 34.5625 8.28125 
Q 37.984375 10.453125 37.984375 14.40625 
Q 37.984375 18.0625 35.515625 20.015625 
Q 33.0625 21.96875 24.703125 23.78125 
L 21.578125 24.515625 
Q 13.234375 26.265625 9.515625 29.90625 
Q 5.8125 33.546875 5.8125 39.890625 
Q 5.8125 47.609375 11.28125 51.796875 
Q 16.75 56 26.8125 56 
Q 31.78125 56 36.171875 55.265625 
Q 40.578125 54.546875 44.28125 53.078125 
z
" id="DejaVuSans-115"/>
      <path d="M 9.421875 54.6875 
L 18.40625 54.6875 
L 18.40625 0 
L 9.421875 0 
z
M 9.421875 75.984375 
L 18.40625 75.984375 
L 18.40625 64.59375 
L 9.421875 64.59375 
z
" id="DejaVuSans-105"/>
      <path d="M 52 44.1875 
Q 55.375 50.25 60.0625 53.125 
Q 64.75 56 71.09375 56 
Q 79.640625 56 84.28125 50.015625 
Q 88.921875 44.046875 88.921875 33.015625 
L 88.921875 0 
L 79.890625 0 
L 79.890625 32.71875 
Q 79.890625 40.578125 77.09375 44.375 
Q 74.3125 48.1875 68.609375 48.1875 
Q 61.625 48.1875 57.5625 43.546875 
Q 53.515625 38.921875 53.515625 30.90625 
L 53.515625 0 
L 44.484375 0 
L 44.484375 32.71875 
Q 44.484375 40.625 41.703125 44.40625 
Q 38.921875 48.1875 33.109375 48.1875 
Q 26.21875 48.1875 22.15625 43.53125 
Q 18.109375 38.875 18.109375 30.90625 
L 18.109375 0 
L 9.078125 0 
L 9.078125 54.6875 
L 18.109375 54.6875 
L 18.109375 46.1875 
Q 21.1875 51.21875 25.484375 53.609375 
Q 29.78125 56 35.6875 56 
Q 41.65625 56 45.828125 52.96875 
Q 50 49.953125 52 44.1875 
z
" id="DejaVuSans-109"/>
     </defs>
     <g transform="translate(293.465794 34.624936)scale(0.0833 -0.0833)">
      <use xlink:href="#DejaVuSans-88"/>
      <use x="68.505859" xlink:href="#DejaVuSans-32"/>
      <use x="100.292969" xlink:href="#DejaVuSans-115"/>
      <use x="152.392578" xlink:href="#DejaVuSans-105"/>
      <use x="180.175781" xlink:href="#DejaVuSans-109"/>
     </g>
    </g>
    <g id="line2d_19">
     <path d="M 270.141794 43.936314 
L 286.801794 43.936314 
" style="fill:none;stroke:#0000ff;stroke-linecap:square;stroke-width:2;"/>
    </g>
    <g id="line2d_20"/>
    <g id="text_19">
     <!-- Y sim -->
     <defs>
      <path d="M -0.203125 72.90625 
L 10.40625 72.90625 
L 30.609375 42.921875 
L 50.6875 72.90625 
L 61.28125 72.90625 
L 35.5 34.71875 
L 35.5 0 
L 25.59375 0 
L 25.59375 34.71875 
z
" id="DejaVuSans-89"/>
     </defs>
     <g transform="translate(293.465794 46.851814)scale(0.0833 -0.0833)">
      <use xlink:href="#DejaVuSans-89"/>
      <use x="61.083984" xlink:href="#DejaVuSans-32"/>
      <use x="92.871094" xlink:href="#DejaVuSans-115"/>
      <use x="144.970703" xlink:href="#DejaVuSans-105"/>
      <use x="172.753906" xlink:href="#DejaVuSans-109"/>
     </g>
    </g>
   </g>
  </g>
 </g>
 <defs>
  <clipPath id="p414415d5c3">
   <rect height="277.2" width="279" x="45.08375" y="20.798438"/>
  </clipPath>
 </defs>
</svg>
