<?xml version="1.0" encoding="utf-8" standalone="no"?>
<!DOCTYPE svg PUBLIC "-//W3C//DTD SVG 1.1//EN"
  "http://www.w3.org/Graphics/SVG/1.1/DTD/svg11.dtd">
<!-- Created with matplotlib (https://matplotlib.org/) -->
<svg height="350.086719pt" version="1.1" viewBox="0 0 709.183594 350.086719" width="709.183594pt" xmlns="http://www.w3.org/2000/svg" xmlns:xlink="http://www.w3.org/1999/xlink">
 <defs>
  <style type="text/css">
*{stroke-linecap:butt;stroke-linejoin:round;}
  </style>
 </defs>
 <g id="figure_1">
  <g id="patch_1">
   <path d="M 0 350.086719 
L 709.183594 350.086719 
L 709.183594 0 
L 0 0 
z
" style="fill:#ffffff;"/>
  </g>
  <g id="axes_1">
   <g id="patch_2">
    <path d="M 65.497344 308.369375 
L 353.962687 308.369375 
L 353.962687 21.789375 
L 65.497344 21.789375 
z
" style="fill:#ffffff;"/>
   </g>
   <g id="matplotlib.axis_1">
    <g id="xtick_1">
     <g id="line2d_1">
      <defs>
       <path d="M 0 0 
L 0 6 
" id="m7fb8695f99" style="stroke:#262626;stroke-width:1.25;"/>
      </defs>
      <g>
       <use style="fill:#262626;stroke:#262626;stroke-width:1.25;" x="78.609405" xlink:href="#m7fb8695f99" y="308.369375"/>
      </g>
     </g>
     <g id="text_1">
      <!-- 0 -->
      <defs>
       <path d="M 4.15625 35.296875 
Q 4.15625 48 6.765625 55.734375 
Q 9.375 63.484375 14.515625 67.671875 
Q 19.671875 71.875 27.484375 71.875 
Q 33.25 71.875 37.59375 69.546875 
Q 41.9375 67.234375 44.765625 62.859375 
Q 47.609375 58.5 49.21875 52.21875 
Q 50.828125 45.953125 50.828125 35.296875 
Q 50.828125 22.703125 48.234375 14.96875 
Q 45.65625 7.234375 40.5 3 
Q 35.359375 -1.21875 27.484375 -1.21875 
Q 17.140625 -1.21875 11.234375 6.203125 
Q 4.15625 15.140625 4.15625 35.296875 
z
M 13.1875 35.296875 
Q 13.1875 17.671875 17.3125 11.828125 
Q 21.4375 6 27.484375 6 
Q 33.546875 6 37.671875 11.859375 
Q 41.796875 17.71875 41.796875 35.296875 
Q 41.796875 52.984375 37.671875 58.78125 
Q 33.546875 64.59375 27.390625 64.59375 
Q 21.34375 64.59375 17.71875 59.46875 
Q 13.1875 52.9375 13.1875 35.296875 
z
" id="ArialMT-48"/>
      </defs>
      <g style="fill:#262626;" transform="translate(75.550889 325.742969)scale(0.11 -0.11)">
       <use xlink:href="#ArialMT-48"/>
      </g>
     </g>
    </g>
    <g id="xtick_2">
     <g id="line2d_2">
      <g>
       <use style="fill:#262626;stroke:#262626;stroke-width:1.25;" x="120.234995" xlink:href="#m7fb8695f99" y="308.369375"/>
      </g>
     </g>
     <g id="text_2">
      <!-- 50 -->
      <defs>
       <path d="M 4.15625 18.75 
L 13.375 19.53125 
Q 14.40625 12.796875 18.140625 9.390625 
Q 21.875 6 27.15625 6 
Q 33.5 6 37.890625 10.78125 
Q 42.28125 15.578125 42.28125 23.484375 
Q 42.28125 31 38.0625 35.34375 
Q 33.84375 39.703125 27 39.703125 
Q 22.75 39.703125 19.328125 37.765625 
Q 15.921875 35.84375 13.96875 32.765625 
L 5.71875 33.84375 
L 12.640625 70.609375 
L 48.25 70.609375 
L 48.25 62.203125 
L 19.671875 62.203125 
L 15.828125 42.96875 
Q 22.265625 47.46875 29.34375 47.46875 
Q 38.71875 47.46875 45.15625 40.96875 
Q 51.609375 34.46875 51.609375 24.265625 
Q 51.609375 14.546875 45.953125 7.46875 
Q 39.0625 -1.21875 27.15625 -1.21875 
Q 17.390625 -1.21875 11.203125 4.25 
Q 5.03125 9.71875 4.15625 18.75 
z
" id="ArialMT-53"/>
      </defs>
      <g style="fill:#262626;" transform="translate(114.117964 325.742969)scale(0.11 -0.11)">
       <use xlink:href="#ArialMT-53"/>
       <use x="55.615234" xlink:href="#ArialMT-48"/>
      </g>
     </g>
    </g>
    <g id="xtick_3">
     <g id="line2d_3">
      <g>
       <use style="fill:#262626;stroke:#262626;stroke-width:1.25;" x="161.860586" xlink:href="#m7fb8695f99" y="308.369375"/>
      </g>
     </g>
     <g id="text_3">
      <!-- 100 -->
      <defs>
       <path d="M 37.25 0 
L 28.46875 0 
L 28.46875 56 
Q 25.296875 52.984375 20.140625 49.953125 
Q 14.984375 46.921875 10.890625 45.40625 
L 10.890625 53.90625 
Q 18.265625 57.375 23.78125 62.296875 
Q 29.296875 67.234375 31.59375 71.875 
L 37.25 71.875 
z
" id="ArialMT-49"/>
      </defs>
      <g style="fill:#262626;" transform="translate(152.685039 325.742969)scale(0.11 -0.11)">
       <use xlink:href="#ArialMT-49"/>
       <use x="55.615234" xlink:href="#ArialMT-48"/>
       <use x="111.230469" xlink:href="#ArialMT-48"/>
      </g>
     </g>
    </g>
    <g id="xtick_4">
     <g id="line2d_4">
      <g>
       <use style="fill:#262626;stroke:#262626;stroke-width:1.25;" x="203.486177" xlink:href="#m7fb8695f99" y="308.369375"/>
      </g>
     </g>
     <g id="text_4">
      <!-- 150 -->
      <g style="fill:#262626;" transform="translate(194.31063 325.742969)scale(0.11 -0.11)">
       <use xlink:href="#ArialMT-49"/>
       <use x="55.615234" xlink:href="#ArialMT-53"/>
       <use x="111.230469" xlink:href="#ArialMT-48"/>
      </g>
     </g>
    </g>
    <g id="xtick_5">
     <g id="line2d_5">
      <g>
       <use style="fill:#262626;stroke:#262626;stroke-width:1.25;" x="245.111767" xlink:href="#m7fb8695f99" y="308.369375"/>
      </g>
     </g>
     <g id="text_5">
      <!-- 200 -->
      <defs>
       <path d="M 50.34375 8.453125 
L 50.34375 0 
L 3.03125 0 
Q 2.9375 3.171875 4.046875 6.109375 
Q 5.859375 10.9375 9.828125 15.625 
Q 13.8125 20.3125 21.34375 26.46875 
Q 33.015625 36.03125 37.109375 41.625 
Q 41.21875 47.21875 41.21875 52.203125 
Q 41.21875 57.421875 37.46875 61 
Q 33.734375 64.59375 27.734375 64.59375 
Q 21.390625 64.59375 17.578125 60.78125 
Q 13.765625 56.984375 13.71875 50.25 
L 4.6875 51.171875 
Q 5.609375 61.28125 11.65625 66.578125 
Q 17.71875 71.875 27.9375 71.875 
Q 38.234375 71.875 44.234375 66.15625 
Q 50.25 60.453125 50.25 52 
Q 50.25 47.703125 48.484375 43.546875 
Q 46.734375 39.40625 42.65625 34.8125 
Q 38.578125 30.21875 29.109375 22.21875 
Q 21.1875 15.578125 18.9375 13.203125 
Q 16.703125 10.84375 15.234375 8.453125 
z
" id="ArialMT-50"/>
      </defs>
      <g style="fill:#262626;" transform="translate(235.93622 325.742969)scale(0.11 -0.11)">
       <use xlink:href="#ArialMT-50"/>
       <use x="55.615234" xlink:href="#ArialMT-48"/>
       <use x="111.230469" xlink:href="#ArialMT-48"/>
      </g>
     </g>
    </g>
    <g id="xtick_6">
     <g id="line2d_6">
      <g>
       <use style="fill:#262626;stroke:#262626;stroke-width:1.25;" x="286.737358" xlink:href="#m7fb8695f99" y="308.369375"/>
      </g>
     </g>
     <g id="text_6">
      <!-- 250 -->
      <g style="fill:#262626;" transform="translate(277.561811 325.742969)scale(0.11 -0.11)">
       <use xlink:href="#ArialMT-50"/>
       <use x="55.615234" xlink:href="#ArialMT-53"/>
       <use x="111.230469" xlink:href="#ArialMT-48"/>
      </g>
     </g>
    </g>
    <g id="xtick_7">
     <g id="line2d_7">
      <g>
       <use style="fill:#262626;stroke:#262626;stroke-width:1.25;" x="328.362948" xlink:href="#m7fb8695f99" y="308.369375"/>
      </g>
     </g>
     <g id="text_7">
      <!-- 300 -->
      <defs>
       <path d="M 4.203125 18.890625 
L 12.984375 20.0625 
Q 14.5 12.59375 18.140625 9.296875 
Q 21.78125 6 27 6 
Q 33.203125 6 37.46875 10.296875 
Q 41.75 14.59375 41.75 20.953125 
Q 41.75 27 37.796875 30.921875 
Q 33.84375 34.859375 27.734375 34.859375 
Q 25.25 34.859375 21.53125 33.890625 
L 22.515625 41.609375 
Q 23.390625 41.5 23.921875 41.5 
Q 29.546875 41.5 34.03125 44.421875 
Q 38.53125 47.359375 38.53125 53.46875 
Q 38.53125 58.296875 35.25 61.46875 
Q 31.984375 64.65625 26.8125 64.65625 
Q 21.6875 64.65625 18.265625 61.421875 
Q 14.84375 58.203125 13.875 51.765625 
L 5.078125 53.328125 
Q 6.6875 62.15625 12.390625 67.015625 
Q 18.109375 71.875 26.609375 71.875 
Q 32.46875 71.875 37.390625 69.359375 
Q 42.328125 66.84375 44.9375 62.5 
Q 47.5625 58.15625 47.5625 53.265625 
Q 47.5625 48.640625 45.0625 44.828125 
Q 42.578125 41.015625 37.703125 38.765625 
Q 44.046875 37.3125 47.5625 32.6875 
Q 51.078125 28.078125 51.078125 21.140625 
Q 51.078125 11.765625 44.234375 5.25 
Q 37.40625 -1.265625 26.953125 -1.265625 
Q 17.53125 -1.265625 11.296875 4.34375 
Q 5.078125 9.96875 4.203125 18.890625 
z
" id="ArialMT-51"/>
      </defs>
      <g style="fill:#262626;" transform="translate(319.187402 325.742969)scale(0.11 -0.11)">
       <use xlink:href="#ArialMT-51"/>
       <use x="55.615234" xlink:href="#ArialMT-48"/>
       <use x="111.230469" xlink:href="#ArialMT-48"/>
      </g>
     </g>
    </g>
    <g id="text_8">
     <!-- time -->
     <defs>
      <path d="M 30.953125 51.859375 
L 30.953125 40.921875 
L 21.578125 40.921875 
L 21.578125 20.015625 
Q 21.578125 13.671875 21.84375 12.625 
Q 22.125 11.578125 23.078125 10.890625 
Q 24.03125 10.203125 25.390625 10.203125 
Q 27.296875 10.203125 30.90625 11.53125 
L 32.078125 0.875 
Q 27.296875 -1.171875 21.234375 -1.171875 
Q 17.53125 -1.171875 14.546875 0.0625 
Q 11.578125 1.3125 10.1875 3.296875 
Q 8.796875 5.28125 8.25 8.640625 
Q 7.8125 11.03125 7.8125 18.3125 
L 7.8125 40.921875 
L 1.515625 40.921875 
L 1.515625 51.859375 
L 7.8125 51.859375 
L 7.8125 62.15625 
L 21.578125 70.171875 
L 21.578125 51.859375 
z
" id="Arial-BoldMT-116"/>
      <path d="M 7.171875 58.890625 
L 7.171875 71.578125 
L 20.90625 71.578125 
L 20.90625 58.890625 
z
M 7.171875 0 
L 7.171875 51.859375 
L 20.90625 51.859375 
L 20.90625 0 
z
" id="Arial-BoldMT-105"/>
      <path d="M 6.15625 51.859375 
L 18.796875 51.859375 
L 18.796875 44.78125 
Q 25.59375 53.03125 34.96875 53.03125 
Q 39.9375 53.03125 43.59375 50.96875 
Q 47.265625 48.921875 49.609375 44.78125 
Q 53.03125 48.921875 56.984375 50.96875 
Q 60.9375 53.03125 65.4375 53.03125 
Q 71.140625 53.03125 75.09375 50.703125 
Q 79.046875 48.390625 81 43.890625 
Q 82.421875 40.578125 82.421875 33.15625 
L 82.421875 0 
L 68.703125 0 
L 68.703125 29.640625 
Q 68.703125 37.359375 67.28125 39.59375 
Q 65.375 42.53125 61.421875 42.53125 
Q 58.546875 42.53125 56 40.765625 
Q 53.46875 39.015625 52.34375 35.625 
Q 51.21875 32.234375 51.21875 24.90625 
L 51.21875 0 
L 37.5 0 
L 37.5 28.421875 
Q 37.5 35.984375 36.765625 38.171875 
Q 36.03125 40.375 34.484375 41.453125 
Q 32.953125 42.53125 30.328125 42.53125 
Q 27.15625 42.53125 24.609375 40.8125 
Q 22.078125 39.109375 20.96875 35.890625 
Q 19.875 32.671875 19.875 25.203125 
L 19.875 0 
L 6.15625 0 
z
" id="Arial-BoldMT-109"/>
      <path d="M 37.203125 16.5 
L 50.875 14.203125 
Q 48.25 6.6875 42.546875 2.75 
Q 36.859375 -1.171875 28.328125 -1.171875 
Q 14.796875 -1.171875 8.296875 7.671875 
Q 3.171875 14.75 3.171875 25.53125 
Q 3.171875 38.421875 9.90625 45.71875 
Q 16.65625 53.03125 26.953125 53.03125 
Q 38.53125 53.03125 45.21875 45.390625 
Q 51.90625 37.75 51.609375 21.96875 
L 17.234375 21.96875 
Q 17.390625 15.875 20.5625 12.46875 
Q 23.734375 9.078125 28.46875 9.078125 
Q 31.6875 9.078125 33.875 10.828125 
Q 36.078125 12.59375 37.203125 16.5 
z
M 37.984375 30.375 
Q 37.84375 36.328125 34.90625 39.421875 
Q 31.984375 42.53125 27.78125 42.53125 
Q 23.296875 42.53125 20.359375 39.265625 
Q 17.4375 35.984375 17.484375 30.375 
z
" id="Arial-BoldMT-101"/>
     </defs>
     <g style="fill:#262626;" transform="translate(197.393453 340.518594)scale(0.12 -0.12)">
      <use xlink:href="#Arial-BoldMT-116"/>
      <use x="33.300781" xlink:href="#Arial-BoldMT-105"/>
      <use x="61.083984" xlink:href="#Arial-BoldMT-109"/>
      <use x="150" xlink:href="#Arial-BoldMT-101"/>
     </g>
    </g>
   </g>
   <g id="matplotlib.axis_2">
    <g id="ytick_1">
     <g id="line2d_8">
      <defs>
       <path d="M 0 0 
L -6 0 
" id="me07bb52267" style="stroke:#262626;stroke-width:1.25;"/>
      </defs>
      <g>
       <use style="fill:#262626;stroke:#262626;stroke-width:1.25;" x="65.497344" xlink:href="#me07bb52267" y="291.209747"/>
      </g>
     </g>
     <g id="text_9">
      <!-- 0.0000 -->
      <defs>
       <path d="M 9.078125 0 
L 9.078125 10.015625 
L 19.09375 10.015625 
L 19.09375 0 
z
" id="ArialMT-46"/>
      </defs>
      <g style="fill:#262626;" transform="translate(22.35625 295.146543)scale(0.11 -0.11)">
       <use xlink:href="#ArialMT-48"/>
       <use x="55.615234" xlink:href="#ArialMT-46"/>
       <use x="83.398438" xlink:href="#ArialMT-48"/>
       <use x="139.013672" xlink:href="#ArialMT-48"/>
       <use x="194.628906" xlink:href="#ArialMT-48"/>
       <use x="250.244141" xlink:href="#ArialMT-48"/>
      </g>
     </g>
    </g>
    <g id="ytick_2">
     <g id="line2d_9">
      <g>
       <use style="fill:#262626;stroke:#262626;stroke-width:1.25;" x="65.497344" xlink:href="#me07bb52267" y="240.402209"/>
      </g>
     </g>
     <g id="text_10">
      <!-- 0.0002 -->
      <g style="fill:#262626;" transform="translate(22.35625 244.339006)scale(0.11 -0.11)">
       <use xlink:href="#ArialMT-48"/>
       <use x="55.615234" xlink:href="#ArialMT-46"/>
       <use x="83.398438" xlink:href="#ArialMT-48"/>
       <use x="139.013672" xlink:href="#ArialMT-48"/>
       <use x="194.628906" xlink:href="#ArialMT-48"/>
       <use x="250.244141" xlink:href="#ArialMT-50"/>
      </g>
     </g>
    </g>
    <g id="ytick_3">
     <g id="line2d_10">
      <g>
       <use style="fill:#262626;stroke:#262626;stroke-width:1.25;" x="65.497344" xlink:href="#me07bb52267" y="189.594672"/>
      </g>
     </g>
     <g id="text_11">
      <!-- 0.0004 -->
      <defs>
       <path d="M 32.328125 0 
L 32.328125 17.140625 
L 1.265625 17.140625 
L 1.265625 25.203125 
L 33.9375 71.578125 
L 41.109375 71.578125 
L 41.109375 25.203125 
L 50.78125 25.203125 
L 50.78125 17.140625 
L 41.109375 17.140625 
L 41.109375 0 
z
M 32.328125 25.203125 
L 32.328125 57.46875 
L 9.90625 25.203125 
z
" id="ArialMT-52"/>
      </defs>
      <g style="fill:#262626;" transform="translate(22.35625 193.531469)scale(0.11 -0.11)">
       <use xlink:href="#ArialMT-48"/>
       <use x="55.615234" xlink:href="#ArialMT-46"/>
       <use x="83.398438" xlink:href="#ArialMT-48"/>
       <use x="139.013672" xlink:href="#ArialMT-48"/>
       <use x="194.628906" xlink:href="#ArialMT-48"/>
       <use x="250.244141" xlink:href="#ArialMT-52"/>
      </g>
     </g>
    </g>
    <g id="ytick_4">
     <g id="line2d_11">
      <g>
       <use style="fill:#262626;stroke:#262626;stroke-width:1.25;" x="65.497344" xlink:href="#me07bb52267" y="138.787135"/>
      </g>
     </g>
     <g id="text_12">
      <!-- 0.0006 -->
      <defs>
       <path d="M 49.75 54.046875 
L 41.015625 53.375 
Q 39.84375 58.546875 37.703125 60.890625 
Q 34.125 64.65625 28.90625 64.65625 
Q 24.703125 64.65625 21.53125 62.3125 
Q 17.390625 59.28125 14.984375 53.46875 
Q 12.59375 47.65625 12.5 36.921875 
Q 15.671875 41.75 20.265625 44.09375 
Q 24.859375 46.4375 29.890625 46.4375 
Q 38.671875 46.4375 44.84375 39.96875 
Q 51.03125 33.5 51.03125 23.25 
Q 51.03125 16.5 48.125 10.71875 
Q 45.21875 4.9375 40.140625 1.859375 
Q 35.0625 -1.21875 28.609375 -1.21875 
Q 17.625 -1.21875 10.6875 6.859375 
Q 3.765625 14.9375 3.765625 33.5 
Q 3.765625 54.25 11.421875 63.671875 
Q 18.109375 71.875 29.4375 71.875 
Q 37.890625 71.875 43.28125 67.140625 
Q 48.6875 62.40625 49.75 54.046875 
z
M 13.875 23.1875 
Q 13.875 18.65625 15.796875 14.5 
Q 17.71875 10.359375 21.1875 8.171875 
Q 24.65625 6 28.46875 6 
Q 34.03125 6 38.03125 10.484375 
Q 42.046875 14.984375 42.046875 22.703125 
Q 42.046875 30.125 38.078125 34.390625 
Q 34.125 38.671875 28.125 38.671875 
Q 22.171875 38.671875 18.015625 34.390625 
Q 13.875 30.125 13.875 23.1875 
z
" id="ArialMT-54"/>
      </defs>
      <g style="fill:#262626;" transform="translate(22.35625 142.723932)scale(0.11 -0.11)">
       <use xlink:href="#ArialMT-48"/>
       <use x="55.615234" xlink:href="#ArialMT-46"/>
       <use x="83.398438" xlink:href="#ArialMT-48"/>
       <use x="139.013672" xlink:href="#ArialMT-48"/>
       <use x="194.628906" xlink:href="#ArialMT-48"/>
       <use x="250.244141" xlink:href="#ArialMT-54"/>
      </g>
     </g>
    </g>
    <g id="ytick_5">
     <g id="line2d_12">
      <g>
       <use style="fill:#262626;stroke:#262626;stroke-width:1.25;" x="65.497344" xlink:href="#me07bb52267" y="87.979598"/>
      </g>
     </g>
     <g id="text_13">
      <!-- 0.0008 -->
      <defs>
       <path d="M 17.671875 38.8125 
Q 12.203125 40.828125 9.5625 44.53125 
Q 6.9375 48.25 6.9375 53.421875 
Q 6.9375 61.234375 12.546875 66.546875 
Q 18.171875 71.875 27.484375 71.875 
Q 36.859375 71.875 42.578125 66.421875 
Q 48.296875 60.984375 48.296875 53.171875 
Q 48.296875 48.1875 45.671875 44.5 
Q 43.0625 40.828125 37.75 38.8125 
Q 44.34375 36.671875 47.78125 31.875 
Q 51.21875 27.09375 51.21875 20.453125 
Q 51.21875 11.28125 44.71875 5.03125 
Q 38.234375 -1.21875 27.640625 -1.21875 
Q 17.046875 -1.21875 10.546875 5.046875 
Q 4.046875 11.328125 4.046875 20.703125 
Q 4.046875 27.6875 7.59375 32.390625 
Q 11.140625 37.109375 17.671875 38.8125 
z
M 15.921875 53.71875 
Q 15.921875 48.640625 19.1875 45.40625 
Q 22.46875 42.1875 27.6875 42.1875 
Q 32.765625 42.1875 36.015625 45.375 
Q 39.265625 48.578125 39.265625 53.21875 
Q 39.265625 58.0625 35.90625 61.359375 
Q 32.5625 64.65625 27.59375 64.65625 
Q 22.5625 64.65625 19.234375 61.421875 
Q 15.921875 58.203125 15.921875 53.71875 
z
M 13.09375 20.65625 
Q 13.09375 16.890625 14.875 13.375 
Q 16.65625 9.859375 20.171875 7.921875 
Q 23.6875 6 27.734375 6 
Q 34.03125 6 38.125 10.046875 
Q 42.234375 14.109375 42.234375 20.359375 
Q 42.234375 26.703125 38.015625 30.859375 
Q 33.796875 35.015625 27.4375 35.015625 
Q 21.234375 35.015625 17.15625 30.90625 
Q 13.09375 26.8125 13.09375 20.65625 
z
" id="ArialMT-56"/>
      </defs>
      <g style="fill:#262626;" transform="translate(22.35625 91.916395)scale(0.11 -0.11)">
       <use xlink:href="#ArialMT-48"/>
       <use x="55.615234" xlink:href="#ArialMT-46"/>
       <use x="83.398438" xlink:href="#ArialMT-48"/>
       <use x="139.013672" xlink:href="#ArialMT-48"/>
       <use x="194.628906" xlink:href="#ArialMT-48"/>
       <use x="250.244141" xlink:href="#ArialMT-56"/>
      </g>
     </g>
    </g>
    <g id="ytick_6">
     <g id="line2d_13">
      <g>
       <use style="fill:#262626;stroke:#262626;stroke-width:1.25;" x="65.497344" xlink:href="#me07bb52267" y="37.172061"/>
      </g>
     </g>
     <g id="text_14">
      <!-- 0.0010 -->
      <g style="fill:#262626;" transform="translate(22.35625 41.108857)scale(0.11 -0.11)">
       <use xlink:href="#ArialMT-48"/>
       <use x="55.615234" xlink:href="#ArialMT-46"/>
       <use x="83.398438" xlink:href="#ArialMT-48"/>
       <use x="139.013672" xlink:href="#ArialMT-48"/>
       <use x="194.628906" xlink:href="#ArialMT-49"/>
       <use x="250.244141" xlink:href="#ArialMT-48"/>
      </g>
     </g>
    </g>
    <g id="text_15">
     <!-- [Cve_mid1oh] -->
     <defs>
      <path d="M 7.125 -20.171875 
L 7.125 71.578125 
L 31.453125 71.578125 
L 31.453125 60.796875 
L 20.171875 60.796875 
L 20.171875 -9.375 
L 31.453125 -9.375 
L 31.453125 -20.171875 
z
" id="Arial-BoldMT-91"/>
      <path d="M 53.078125 26.3125 
L 67.09375 21.875 
Q 63.875 10.15625 56.375 4.46875 
Q 48.875 -1.21875 37.359375 -1.21875 
Q 23.09375 -1.21875 13.90625 8.515625 
Q 4.734375 18.265625 4.734375 35.15625 
Q 4.734375 53.03125 13.953125 62.90625 
Q 23.1875 72.796875 38.234375 72.796875 
Q 51.375 72.796875 59.578125 65.046875 
Q 64.453125 60.453125 66.890625 51.859375 
L 52.59375 48.4375 
Q 51.3125 54 47.28125 57.21875 
Q 43.265625 60.453125 37.5 60.453125 
Q 29.546875 60.453125 24.578125 54.734375 
Q 19.625 49.03125 19.625 36.234375 
Q 19.625 22.65625 24.5 16.890625 
Q 29.390625 11.140625 37.203125 11.140625 
Q 42.96875 11.140625 47.109375 14.796875 
Q 51.265625 18.453125 53.078125 26.3125 
z
" id="Arial-BoldMT-67"/>
      <path d="M 21.4375 0 
L 0.53125 51.859375 
L 14.9375 51.859375 
L 24.703125 25.390625 
L 27.546875 16.546875 
Q 28.65625 19.921875 28.953125 21 
Q 29.640625 23.1875 30.421875 25.390625 
L 40.28125 51.859375 
L 54.390625 51.859375 
L 33.796875 0 
z
" id="Arial-BoldMT-118"/>
      <path d="M -0.921875 -19.78125 
L -0.921875 -10.890625 
L 56.109375 -10.890625 
L 56.109375 -19.78125 
z
" id="Arial-BoldMT-95"/>
      <path d="M 54.734375 0 
L 42 0 
L 42 7.625 
Q 38.8125 3.171875 34.484375 1 
Q 30.171875 -1.171875 25.78125 -1.171875 
Q 16.84375 -1.171875 10.46875 6.03125 
Q 4.109375 13.234375 4.109375 26.125 
Q 4.109375 39.3125 10.296875 46.171875 
Q 16.5 53.03125 25.984375 53.03125 
Q 34.671875 53.03125 41.015625 45.796875 
L 41.015625 71.578125 
L 54.734375 71.578125 
z
M 18.109375 27.046875 
Q 18.109375 18.75 20.40625 15.046875 
Q 23.734375 9.671875 29.6875 9.671875 
Q 34.421875 9.671875 37.734375 13.6875 
Q 41.0625 17.71875 41.0625 25.734375 
Q 41.0625 34.671875 37.84375 38.59375 
Q 34.625 42.53125 29.59375 42.53125 
Q 24.703125 42.53125 21.40625 38.640625 
Q 18.109375 34.765625 18.109375 27.046875 
z
" id="Arial-BoldMT-100"/>
      <path d="M 39.359375 0 
L 25.640625 0 
L 25.640625 51.703125 
Q 18.109375 44.671875 7.90625 41.3125 
L 7.90625 53.765625 
Q 13.28125 55.515625 19.578125 60.421875 
Q 25.875 65.328125 28.21875 71.875 
L 39.359375 71.875 
z
" id="Arial-BoldMT-49"/>
      <path d="M 4 26.65625 
Q 4 33.5 7.375 39.890625 
Q 10.75 46.296875 16.921875 49.65625 
Q 23.09375 53.03125 30.71875 53.03125 
Q 42.484375 53.03125 50 45.390625 
Q 57.515625 37.75 57.515625 26.078125 
Q 57.515625 14.3125 49.921875 6.5625 
Q 42.328125 -1.171875 30.8125 -1.171875 
Q 23.6875 -1.171875 17.21875 2.046875 
Q 10.75 5.28125 7.375 11.5 
Q 4 17.71875 4 26.65625 
z
M 18.0625 25.921875 
Q 18.0625 18.21875 21.71875 14.109375 
Q 25.390625 10.015625 30.765625 10.015625 
Q 36.140625 10.015625 39.765625 14.109375 
Q 43.40625 18.21875 43.40625 26.03125 
Q 43.40625 33.640625 39.765625 37.734375 
Q 36.140625 41.84375 30.765625 41.84375 
Q 25.390625 41.84375 21.71875 37.734375 
Q 18.0625 33.640625 18.0625 25.921875 
z
" id="Arial-BoldMT-111"/>
      <path d="M 20.84375 71.578125 
L 20.84375 45.265625 
Q 27.484375 53.03125 36.71875 53.03125 
Q 41.453125 53.03125 45.265625 51.265625 
Q 49.078125 49.515625 51 46.78125 
Q 52.9375 44.046875 53.640625 40.71875 
Q 54.34375 37.40625 54.34375 30.421875 
L 54.34375 0 
L 40.625 0 
L 40.625 27.390625 
Q 40.625 35.546875 39.84375 37.734375 
Q 39.0625 39.9375 37.078125 41.234375 
Q 35.109375 42.53125 32.125 42.53125 
Q 28.71875 42.53125 26.03125 40.859375 
Q 23.34375 39.203125 22.09375 35.859375 
Q 20.84375 32.515625 20.84375 25.984375 
L 20.84375 0 
L 7.125 0 
L 7.125 71.578125 
z
" id="Arial-BoldMT-104"/>
      <path d="M 26.171875 71.578125 
L 26.171875 -20.171875 
L 1.859375 -20.171875 
L 1.859375 -9.375 
L 13.140625 -9.375 
L 13.140625 60.890625 
L 1.859375 60.890625 
L 1.859375 71.578125 
z
" id="Arial-BoldMT-93"/>
     </defs>
     <g style="fill:#262626;" transform="translate(15.935625 204.750625)rotate(-90)scale(0.12 -0.12)">
      <use xlink:href="#Arial-BoldMT-91"/>
      <use x="33.300781" xlink:href="#Arial-BoldMT-67"/>
      <use x="105.517578" xlink:href="#Arial-BoldMT-118"/>
      <use x="161.132812" xlink:href="#Arial-BoldMT-101"/>
      <use x="216.748047" xlink:href="#Arial-BoldMT-95"/>
      <use x="272.363281" xlink:href="#Arial-BoldMT-109"/>
      <use x="361.279297" xlink:href="#Arial-BoldMT-105"/>
      <use x="389.0625" xlink:href="#Arial-BoldMT-100"/>
      <use x="450.146484" xlink:href="#Arial-BoldMT-49"/>
      <use x="505.761719" xlink:href="#Arial-BoldMT-111"/>
      <use x="566.845703" xlink:href="#Arial-BoldMT-104"/>
      <use x="627.929688" xlink:href="#Arial-BoldMT-93"/>
     </g>
    </g>
   </g>
   <g id="LineCollection_1">
    <path clip-path="url(#p196d36707d)" d="M 82.771964 295.343011 
L 82.771964 225.288832 
" style="fill:none;stroke:#000000;stroke-width:1.5;"/>
    <path clip-path="url(#p196d36707d)" d="M 86.934523 269.582964 
L 86.934523 34.815739 
" style="fill:none;stroke:#000000;stroke-width:1.5;"/>
    <path clip-path="url(#p196d36707d)" d="M 91.097082 231.424571 
L 91.097082 86.71864 
" style="fill:none;stroke:#000000;stroke-width:1.5;"/>
    <path clip-path="url(#p196d36707d)" d="M 95.259641 233.392401 
L 95.259641 157.997888 
" style="fill:none;stroke:#000000;stroke-width:1.5;"/>
    <path clip-path="url(#p196d36707d)" d="M 99.4222 250.355118 
L 99.4222 193.983031 
" style="fill:none;stroke:#000000;stroke-width:1.5;"/>
    <path clip-path="url(#p196d36707d)" d="M 107.747318 265.348854 
L 107.747318 212.539973 
" style="fill:none;stroke:#000000;stroke-width:1.5;"/>
    <path clip-path="url(#p196d36707d)" d="M 116.072436 249.590865 
L 116.072436 227.443539 
" style="fill:none;stroke:#000000;stroke-width:1.5;"/>
    <path clip-path="url(#p196d36707d)" d="M 128.560114 257.630112 
L 128.560114 236.90473 
" style="fill:none;stroke:#000000;stroke-width:1.5;"/>
    <path clip-path="url(#p196d36707d)" d="M 153.535468 272.865236 
L 153.535468 248.946908 
" style="fill:none;stroke:#000000;stroke-width:1.5;"/>
    <path clip-path="url(#p196d36707d)" d="M 178.510822 277.132495 
L 178.510822 261.692285 
" style="fill:none;stroke:#000000;stroke-width:1.5;"/>
    <path clip-path="url(#p196d36707d)" d="M 203.486177 283.98171 
L 203.486177 272.821971 
" style="fill:none;stroke:#000000;stroke-width:1.5;"/>
    <path clip-path="url(#p196d36707d)" d="M 228.461531 286.052192 
L 228.461531 277.149091 
" style="fill:none;stroke:#000000;stroke-width:1.5;"/>
    <path clip-path="url(#p196d36707d)" d="M 278.41224 287.20323 
L 278.41224 284.168408 
" style="fill:none;stroke:#000000;stroke-width:1.5;"/>
    <path clip-path="url(#p196d36707d)" d="M 328.362948 289.059441 
L 328.362948 287.088963 
" style="fill:none;stroke:#000000;stroke-width:1.5;"/>
   </g>
   <g id="line2d_14">
    <path clip-path="url(#p196d36707d)" d="M 78.609405 291.209747 
L 78.623055 291.107272 
L 78.686795 288.411225 
L 78.915812 265.955301 
L 79.362387 229.719563 
L 79.757785 214.689192 
L 80.254548 204.66623 
L 80.888478 196.106579 
L 81.66126 188.398635 
L 82.621128 181.056086 
L 83.831892 173.447104 
L 85.589379 163.703668 
L 88.654905 148.092367 
L 91.097082 136.382898 
L 91.101703 134.556599 
L 91.205002 139.10371 
L 92.113862 202.518825 
L 92.49809 210.424723 
L 93.004794 216.291904 
L 93.622036 220.868003 
L 94.210484 223.805699 
L 94.817284 225.917085 
L 95.575783 227.780814 
L 96.56273 229.528433 
L 97.642553 231.026299 
L 99.426021 233.114845 
L 102.426132 236.223831 
L 106.026265 239.643528 
L 110.339793 243.423882 
L 114.677619 246.928739 
L 119.39759 250.443498 
L 123.87701 253.515724 
L 128.434532 256.403887 
L 133.667335 259.447089 
L 138.731731 262.138263 
L 144.447119 264.902634 
L 150.162506 267.403309 
L 155.877894 269.667384 
L 161.593281 271.715283 
L 168.96691 274.073815 
L 176.093652 276.080342 
L 183.220393 277.852374 
L 190.347135 279.417167 
L 198.661666 281.012019 
L 206.976198 282.391748 
L 216.47852 283.740983 
L 227.168632 285.014018 
L 237.858744 286.070324 
L 250.924437 287.119989 
L 265.17792 288.022034 
L 281.806983 288.825884 
L 300.811627 289.499292 
L 322.191852 290.033045 
L 340.850626 290.360519 
L 340.850626 290.360519 
" style="fill:none;stroke:#0000ff;stroke-linecap:round;stroke-width:1.5;"/>
   </g>
   <g id="line2d_15">
    <path clip-path="url(#p196d36707d)" d="M 82.771964 260.315922 
L 86.934523 152.199351 
L 91.097082 159.071606 
L 95.259641 195.695144 
L 99.4222 222.169074 
L 107.747318 238.944414 
L 116.072436 238.517202 
L 128.560114 247.267421 
L 153.535468 260.906072 
L 178.510822 269.41239 
L 203.486177 278.401841 
L 228.461531 281.600642 
L 278.41224 285.685819 
L 328.362948 288.074202 
" style="fill:none;stroke:#000000;stroke-linecap:round;stroke-width:1.5;"/>
    <defs>
     <path d="M -3 3 
L 3 3 
L 3 -3 
L -3 -3 
z
" id="m9e66fc2625" style="stroke:#000000;stroke-linejoin:miter;"/>
    </defs>
    <g clip-path="url(#p196d36707d)">
     <use style="stroke:#000000;stroke-linejoin:miter;" x="82.771964" xlink:href="#m9e66fc2625" y="260.315922"/>
     <use style="stroke:#000000;stroke-linejoin:miter;" x="86.934523" xlink:href="#m9e66fc2625" y="152.199351"/>
     <use style="stroke:#000000;stroke-linejoin:miter;" x="91.097082" xlink:href="#m9e66fc2625" y="159.071606"/>
     <use style="stroke:#000000;stroke-linejoin:miter;" x="95.259641" xlink:href="#m9e66fc2625" y="195.695144"/>
     <use style="stroke:#000000;stroke-linejoin:miter;" x="99.4222" xlink:href="#m9e66fc2625" y="222.169074"/>
     <use style="stroke:#000000;stroke-linejoin:miter;" x="107.747318" xlink:href="#m9e66fc2625" y="238.944414"/>
     <use style="stroke:#000000;stroke-linejoin:miter;" x="116.072436" xlink:href="#m9e66fc2625" y="238.517202"/>
     <use style="stroke:#000000;stroke-linejoin:miter;" x="128.560114" xlink:href="#m9e66fc2625" y="247.267421"/>
     <use style="stroke:#000000;stroke-linejoin:miter;" x="153.535468" xlink:href="#m9e66fc2625" y="260.906072"/>
     <use style="stroke:#000000;stroke-linejoin:miter;" x="178.510822" xlink:href="#m9e66fc2625" y="269.41239"/>
     <use style="stroke:#000000;stroke-linejoin:miter;" x="203.486177" xlink:href="#m9e66fc2625" y="278.401841"/>
     <use style="stroke:#000000;stroke-linejoin:miter;" x="228.461531" xlink:href="#m9e66fc2625" y="281.600642"/>
     <use style="stroke:#000000;stroke-linejoin:miter;" x="278.41224" xlink:href="#m9e66fc2625" y="285.685819"/>
     <use style="stroke:#000000;stroke-linejoin:miter;" x="328.362948" xlink:href="#m9e66fc2625" y="288.074202"/>
    </g>
   </g>
   <g id="patch_3">
    <path d="M 65.497344 308.369375 
L 65.497344 21.789375 
" style="fill:none;stroke:#262626;stroke-linecap:square;stroke-linejoin:miter;stroke-width:1.25;"/>
   </g>
   <g id="patch_4">
    <path d="M 353.962687 308.369375 
L 353.962687 21.789375 
" style="fill:none;stroke:#262626;stroke-linecap:square;stroke-linejoin:miter;stroke-width:1.25;"/>
   </g>
   <g id="patch_5">
    <path d="M 65.497344 308.369375 
L 353.962687 308.369375 
" style="fill:none;stroke:#262626;stroke-linecap:square;stroke-linejoin:miter;stroke-width:1.25;"/>
   </g>
   <g id="patch_6">
    <path d="M 65.497344 21.789375 
L 353.962687 21.789375 
" style="fill:none;stroke:#262626;stroke-linecap:square;stroke-linejoin:miter;stroke-width:1.25;"/>
   </g>
   <g id="text_16">
    <!-- Mandema1992 fm4 -->
    <defs>
     <path d="M 7.078125 0 
L 7.078125 71.578125 
L 28.71875 71.578125 
L 41.703125 22.75 
L 54.546875 71.578125 
L 76.21875 71.578125 
L 76.21875 0 
L 62.796875 0 
L 62.796875 56.34375 
L 48.578125 0 
L 34.671875 0 
L 20.515625 56.34375 
L 20.515625 0 
z
" id="Arial-BoldMT-77"/>
     <path d="M 17.4375 36.03125 
L 4.984375 38.28125 
Q 7.078125 45.796875 12.203125 49.40625 
Q 17.328125 53.03125 27.4375 53.03125 
Q 36.625 53.03125 41.109375 50.859375 
Q 45.609375 48.6875 47.4375 45.34375 
Q 49.265625 42 49.265625 33.0625 
L 49.125 17.046875 
Q 49.125 10.203125 49.78125 6.953125 
Q 50.4375 3.71875 52.25 0 
L 38.671875 0 
Q 38.140625 1.375 37.359375 4.046875 
Q 37.015625 5.28125 36.859375 5.671875 
Q 33.34375 2.25 29.34375 0.53125 
Q 25.34375 -1.171875 20.796875 -1.171875 
Q 12.796875 -1.171875 8.171875 3.171875 
Q 3.5625 7.515625 3.5625 14.15625 
Q 3.5625 18.5625 5.65625 22 
Q 7.765625 25.4375 11.546875 27.265625 
Q 15.328125 29.109375 22.46875 30.46875 
Q 32.078125 32.28125 35.796875 33.84375 
L 35.796875 35.203125 
Q 35.796875 39.15625 33.84375 40.84375 
Q 31.890625 42.53125 26.46875 42.53125 
Q 22.796875 42.53125 20.75 41.09375 
Q 18.703125 39.65625 17.4375 36.03125 
z
M 35.796875 24.90625 
Q 33.15625 24.03125 27.4375 22.796875 
Q 21.734375 21.578125 19.96875 20.40625 
Q 17.28125 18.5 17.28125 15.578125 
Q 17.28125 12.703125 19.421875 10.59375 
Q 21.578125 8.5 24.90625 8.5 
Q 28.609375 8.5 31.984375 10.9375 
Q 34.46875 12.796875 35.25 15.484375 
Q 35.796875 17.234375 35.796875 22.171875 
z
" id="Arial-BoldMT-97"/>
     <path d="M 54.34375 0 
L 40.625 0 
L 40.625 26.46875 
Q 40.625 34.859375 39.75 37.328125 
Q 38.875 39.796875 36.890625 41.15625 
Q 34.90625 42.53125 32.125 42.53125 
Q 28.5625 42.53125 25.734375 40.578125 
Q 22.90625 38.625 21.84375 35.390625 
Q 20.796875 32.171875 20.796875 23.484375 
L 20.796875 0 
L 7.078125 0 
L 7.078125 51.859375 
L 19.828125 51.859375 
L 19.828125 44.234375 
Q 26.609375 53.03125 36.921875 53.03125 
Q 41.453125 53.03125 45.203125 51.390625 
Q 48.96875 49.75 50.890625 47.203125 
Q 52.828125 44.671875 53.578125 41.453125 
Q 54.34375 38.234375 54.34375 32.234375 
z
" id="Arial-BoldMT-110"/>
     <path d="M 4.546875 16.546875 
L 17.828125 18.015625 
Q 18.3125 13.96875 20.359375 12.015625 
Q 22.40625 10.0625 25.78125 10.0625 
Q 30.03125 10.0625 33 13.96875 
Q 35.984375 17.875 36.8125 30.171875 
Q 31.640625 24.171875 23.875 24.171875 
Q 15.4375 24.171875 9.296875 30.6875 
Q 3.171875 37.203125 3.171875 47.65625 
Q 3.171875 58.546875 9.640625 65.203125 
Q 16.109375 71.875 26.125 71.875 
Q 37.015625 71.875 44 63.453125 
Q 50.984375 55.03125 50.984375 35.75 
Q 50.984375 16.109375 43.703125 7.421875 
Q 36.421875 -1.265625 24.75 -1.265625 
Q 16.359375 -1.265625 11.171875 3.203125 
Q 6 7.671875 4.546875 16.546875 
z
M 35.59375 46.53125 
Q 35.59375 53.171875 32.546875 56.828125 
Q 29.5 60.5 25.484375 60.5 
Q 21.6875 60.5 19.171875 57.5 
Q 16.65625 54.5 16.65625 47.65625 
Q 16.65625 40.71875 19.390625 37.46875 
Q 22.125 34.234375 26.21875 34.234375 
Q 30.171875 34.234375 32.875 37.359375 
Q 35.59375 40.484375 35.59375 46.53125 
z
" id="Arial-BoldMT-57"/>
     <path d="M 50.59375 12.75 
L 50.59375 0 
L 2.484375 0 
Q 3.265625 7.234375 7.171875 13.703125 
Q 11.078125 20.171875 22.609375 30.859375 
Q 31.890625 39.5 33.984375 42.578125 
Q 36.8125 46.828125 36.8125 50.984375 
Q 36.8125 55.5625 34.34375 58.03125 
Q 31.890625 60.5 27.546875 60.5 
Q 23.25 60.5 20.703125 57.90625 
Q 18.171875 55.328125 17.78125 49.3125 
L 4.109375 50.6875 
Q 5.328125 62.015625 11.765625 66.9375 
Q 18.21875 71.875 27.875 71.875 
Q 38.484375 71.875 44.53125 66.15625 
Q 50.59375 60.453125 50.59375 51.953125 
Q 50.59375 47.125 48.859375 42.75 
Q 47.125 38.375 43.359375 33.59375 
Q 40.875 30.421875 34.375 24.453125 
Q 27.875 18.5 26.140625 16.546875 
Q 24.421875 14.59375 23.34375 12.75 
z
" id="Arial-BoldMT-50"/>
     <path id="Arial-BoldMT-32"/>
     <path d="M 1.171875 51.859375 
L 8.796875 51.859375 
L 8.796875 55.765625 
Q 8.796875 62.3125 10.1875 65.53125 
Q 11.578125 68.75 15.3125 70.765625 
Q 19.046875 72.796875 24.75 72.796875 
Q 30.609375 72.796875 36.234375 71.046875 
L 34.375 61.46875 
Q 31.109375 62.25 28.078125 62.25 
Q 25.09375 62.25 23.796875 60.859375 
Q 22.515625 59.46875 22.515625 55.515625 
L 22.515625 51.859375 
L 32.765625 51.859375 
L 32.765625 41.0625 
L 22.515625 41.0625 
L 22.515625 0 
L 8.796875 0 
L 8.796875 41.0625 
L 1.171875 41.0625 
z
" id="Arial-BoldMT-102"/>
     <path d="M 31.15625 0 
L 31.15625 14.40625 
L 1.859375 14.40625 
L 1.859375 26.421875 
L 32.90625 71.875 
L 44.4375 71.875 
L 44.4375 26.46875 
L 53.328125 26.46875 
L 53.328125 14.40625 
L 44.4375 14.40625 
L 44.4375 0 
z
M 31.15625 26.46875 
L 31.15625 50.921875 
L 14.703125 26.46875 
z
" id="Arial-BoldMT-52"/>
    </defs>
    <g style="fill:#262626;" transform="translate(156.375015 15.789375)scale(0.12 -0.12)">
     <use xlink:href="#Arial-BoldMT-77"/>
     <use x="83.300781" xlink:href="#Arial-BoldMT-97"/>
     <use x="138.916016" xlink:href="#Arial-BoldMT-110"/>
     <use x="200" xlink:href="#Arial-BoldMT-100"/>
     <use x="261.083984" xlink:href="#Arial-BoldMT-101"/>
     <use x="316.699219" xlink:href="#Arial-BoldMT-109"/>
     <use x="405.615234" xlink:href="#Arial-BoldMT-97"/>
     <use x="461.230469" xlink:href="#Arial-BoldMT-49"/>
     <use x="516.845703" xlink:href="#Arial-BoldMT-57"/>
     <use x="572.460938" xlink:href="#Arial-BoldMT-57"/>
     <use x="628.076172" xlink:href="#Arial-BoldMT-50"/>
     <use x="683.691406" xlink:href="#Arial-BoldMT-32"/>
     <use x="711.474609" xlink:href="#Arial-BoldMT-102"/>
     <use x="744.775391" xlink:href="#Arial-BoldMT-109"/>
     <use x="833.691406" xlink:href="#Arial-BoldMT-52"/>
    </g>
   </g>
  </g>
  <g id="axes_2">
   <g id="patch_7">
    <path d="M 413.518251 308.369375 
L 701.983594 308.369375 
L 701.983594 21.789375 
L 413.518251 21.789375 
z
" style="fill:#ffffff;"/>
   </g>
   <g id="matplotlib.axis_3">
    <g id="xtick_8">
     <g id="line2d_16">
      <g>
       <use style="fill:#262626;stroke:#262626;stroke-width:1.25;" x="426.630312" xlink:href="#m7fb8695f99" y="308.369375"/>
      </g>
     </g>
     <g id="text_17">
      <!-- 0 -->
      <g style="fill:#262626;" transform="translate(423.571796 325.742969)scale(0.11 -0.11)">
       <use xlink:href="#ArialMT-48"/>
      </g>
     </g>
    </g>
    <g id="xtick_9">
     <g id="line2d_17">
      <g>
       <use style="fill:#262626;stroke:#262626;stroke-width:1.25;" x="468.255902" xlink:href="#m7fb8695f99" y="308.369375"/>
      </g>
     </g>
     <g id="text_18">
      <!-- 50 -->
      <g style="fill:#262626;" transform="translate(462.138871 325.742969)scale(0.11 -0.11)">
       <use xlink:href="#ArialMT-53"/>
       <use x="55.615234" xlink:href="#ArialMT-48"/>
      </g>
     </g>
    </g>
    <g id="xtick_10">
     <g id="line2d_18">
      <g>
       <use style="fill:#262626;stroke:#262626;stroke-width:1.25;" x="509.881493" xlink:href="#m7fb8695f99" y="308.369375"/>
      </g>
     </g>
     <g id="text_19">
      <!-- 100 -->
      <g style="fill:#262626;" transform="translate(500.705946 325.742969)scale(0.11 -0.11)">
       <use xlink:href="#ArialMT-49"/>
       <use x="55.615234" xlink:href="#ArialMT-48"/>
       <use x="111.230469" xlink:href="#ArialMT-48"/>
      </g>
     </g>
    </g>
    <g id="xtick_11">
     <g id="line2d_19">
      <g>
       <use style="fill:#262626;stroke:#262626;stroke-width:1.25;" x="551.507084" xlink:href="#m7fb8695f99" y="308.369375"/>
      </g>
     </g>
     <g id="text_20">
      <!-- 150 -->
      <g style="fill:#262626;" transform="translate(542.331537 325.742969)scale(0.11 -0.11)">
       <use xlink:href="#ArialMT-49"/>
       <use x="55.615234" xlink:href="#ArialMT-53"/>
       <use x="111.230469" xlink:href="#ArialMT-48"/>
      </g>
     </g>
    </g>
    <g id="xtick_12">
     <g id="line2d_20">
      <g>
       <use style="fill:#262626;stroke:#262626;stroke-width:1.25;" x="593.132674" xlink:href="#m7fb8695f99" y="308.369375"/>
      </g>
     </g>
     <g id="text_21">
      <!-- 200 -->
      <g style="fill:#262626;" transform="translate(583.957127 325.742969)scale(0.11 -0.11)">
       <use xlink:href="#ArialMT-50"/>
       <use x="55.615234" xlink:href="#ArialMT-48"/>
       <use x="111.230469" xlink:href="#ArialMT-48"/>
      </g>
     </g>
    </g>
    <g id="xtick_13">
     <g id="line2d_21">
      <g>
       <use style="fill:#262626;stroke:#262626;stroke-width:1.25;" x="634.758265" xlink:href="#m7fb8695f99" y="308.369375"/>
      </g>
     </g>
     <g id="text_22">
      <!-- 250 -->
      <g style="fill:#262626;" transform="translate(625.582718 325.742969)scale(0.11 -0.11)">
       <use xlink:href="#ArialMT-50"/>
       <use x="55.615234" xlink:href="#ArialMT-53"/>
       <use x="111.230469" xlink:href="#ArialMT-48"/>
      </g>
     </g>
    </g>
    <g id="xtick_14">
     <g id="line2d_22">
      <g>
       <use style="fill:#262626;stroke:#262626;stroke-width:1.25;" x="676.383856" xlink:href="#m7fb8695f99" y="308.369375"/>
      </g>
     </g>
     <g id="text_23">
      <!-- 300 -->
      <g style="fill:#262626;" transform="translate(667.208309 325.742969)scale(0.11 -0.11)">
       <use xlink:href="#ArialMT-51"/>
       <use x="55.615234" xlink:href="#ArialMT-48"/>
       <use x="111.230469" xlink:href="#ArialMT-48"/>
      </g>
     </g>
    </g>
    <g id="text_24">
     <!-- time -->
     <g style="fill:#262626;" transform="translate(545.41436 340.518594)scale(0.12 -0.12)">
      <use xlink:href="#Arial-BoldMT-116"/>
      <use x="33.300781" xlink:href="#Arial-BoldMT-105"/>
      <use x="61.083984" xlink:href="#Arial-BoldMT-109"/>
      <use x="150" xlink:href="#Arial-BoldMT-101"/>
     </g>
    </g>
   </g>
   <g id="matplotlib.axis_4">
    <g id="ytick_7">
     <g id="line2d_23">
      <g>
       <use style="fill:#262626;stroke:#262626;stroke-width:1.25;" x="413.518251" xlink:href="#me07bb52267" y="271.696231"/>
      </g>
     </g>
     <g id="text_25">
      <!-- $\mathdefault{10^{-5}}$ -->
      <defs>
       <path d="M 52.828125 31.203125 
L 5.5625 31.203125 
L 5.5625 39.40625 
L 52.828125 39.40625 
z
" id="ArialMT-8722"/>
      </defs>
      <g style="fill:#262626;" transform="translate(382.238251 277.313106)scale(0.11 -0.11)">
       <use transform="translate(0 0.879688)" xlink:href="#ArialMT-49"/>
       <use transform="translate(55.615234 0.879688)" xlink:href="#ArialMT-48"/>
       <use transform="translate(112.972813 70.573438)scale(0.7)" xlink:href="#ArialMT-8722"/>
       <use transform="translate(153.851719 70.573438)scale(0.7)" xlink:href="#ArialMT-53"/>
      </g>
     </g>
    </g>
    <g id="ytick_8">
     <g id="line2d_24">
      <g>
       <use style="fill:#262626;stroke:#262626;stroke-width:1.25;" x="413.518251" xlink:href="#me07bb52267" y="186.699219"/>
      </g>
     </g>
     <g id="text_26">
      <!-- $\mathdefault{10^{-4}}$ -->
      <g style="fill:#262626;" transform="translate(382.238251 192.316094)scale(0.11 -0.11)">
       <use transform="translate(0 0.201563)" xlink:href="#ArialMT-49"/>
       <use transform="translate(55.615234 0.201563)" xlink:href="#ArialMT-48"/>
       <use transform="translate(112.972813 69.895313)scale(0.7)" xlink:href="#ArialMT-8722"/>
       <use transform="translate(153.851719 69.895313)scale(0.7)" xlink:href="#ArialMT-52"/>
      </g>
     </g>
    </g>
    <g id="ytick_9">
     <g id="line2d_25">
      <g>
       <use style="fill:#262626;stroke:#262626;stroke-width:1.25;" x="413.518251" xlink:href="#me07bb52267" y="101.702207"/>
      </g>
     </g>
     <g id="text_27">
      <!-- $\mathdefault{10^{-3}}$ -->
      <g style="fill:#262626;" transform="translate(382.238251 107.374082)scale(0.11 -0.11)">
       <use transform="translate(0 0.99375)" xlink:href="#ArialMT-49"/>
       <use transform="translate(55.615234 0.99375)" xlink:href="#ArialMT-48"/>
       <use transform="translate(112.972813 70.6875)scale(0.7)" xlink:href="#ArialMT-8722"/>
       <use transform="translate(153.851719 70.6875)scale(0.7)" xlink:href="#ArialMT-51"/>
      </g>
     </g>
    </g>
    <g id="ytick_10">
     <g id="line2d_26">
      <defs>
       <path d="M 0 0 
L -4 0 
" id="m1e964f36bf" style="stroke:#262626;"/>
      </defs>
      <g>
       <use style="fill:#262626;stroke:#262626;" x="413.518251" xlink:href="#m1e964f36bf" y="305.519942"/>
      </g>
     </g>
    </g>
    <g id="ytick_11">
     <g id="line2d_27">
      <g>
       <use style="fill:#262626;stroke:#262626;" x="413.518251" xlink:href="#m1e964f36bf" y="297.282881"/>
      </g>
     </g>
    </g>
    <g id="ytick_12">
     <g id="line2d_28">
      <g>
       <use style="fill:#262626;stroke:#262626;" x="413.518251" xlink:href="#m1e964f36bf" y="290.552711"/>
      </g>
     </g>
    </g>
    <g id="ytick_13">
     <g id="line2d_29">
      <g>
       <use style="fill:#262626;stroke:#262626;" x="413.518251" xlink:href="#m1e964f36bf" y="284.862434"/>
      </g>
     </g>
    </g>
    <g id="ytick_14">
     <g id="line2d_30">
      <g>
       <use style="fill:#262626;stroke:#262626;" x="413.518251" xlink:href="#m1e964f36bf" y="279.933292"/>
      </g>
     </g>
    </g>
    <g id="ytick_15">
     <g id="line2d_31">
      <g>
       <use style="fill:#262626;stroke:#262626;" x="413.518251" xlink:href="#m1e964f36bf" y="275.585481"/>
      </g>
     </g>
    </g>
    <g id="ytick_16">
     <g id="line2d_32">
      <g>
       <use style="fill:#262626;stroke:#262626;" x="413.518251" xlink:href="#m1e964f36bf" y="246.10958"/>
      </g>
     </g>
    </g>
    <g id="ytick_17">
     <g id="line2d_33">
      <g>
       <use style="fill:#262626;stroke:#262626;" x="413.518251" xlink:href="#m1e964f36bf" y="231.14235"/>
      </g>
     </g>
    </g>
    <g id="ytick_18">
     <g id="line2d_34">
      <g>
       <use style="fill:#262626;stroke:#262626;" x="413.518251" xlink:href="#m1e964f36bf" y="220.52293"/>
      </g>
     </g>
    </g>
    <g id="ytick_19">
     <g id="line2d_35">
      <g>
       <use style="fill:#262626;stroke:#262626;" x="413.518251" xlink:href="#m1e964f36bf" y="212.285869"/>
      </g>
     </g>
    </g>
    <g id="ytick_20">
     <g id="line2d_36">
      <g>
       <use style="fill:#262626;stroke:#262626;" x="413.518251" xlink:href="#m1e964f36bf" y="205.555699"/>
      </g>
     </g>
    </g>
    <g id="ytick_21">
     <g id="line2d_37">
      <g>
       <use style="fill:#262626;stroke:#262626;" x="413.518251" xlink:href="#m1e964f36bf" y="199.865422"/>
      </g>
     </g>
    </g>
    <g id="ytick_22">
     <g id="line2d_38">
      <g>
       <use style="fill:#262626;stroke:#262626;" x="413.518251" xlink:href="#m1e964f36bf" y="194.93628"/>
      </g>
     </g>
    </g>
    <g id="ytick_23">
     <g id="line2d_39">
      <g>
       <use style="fill:#262626;stroke:#262626;" x="413.518251" xlink:href="#m1e964f36bf" y="190.588469"/>
      </g>
     </g>
    </g>
    <g id="ytick_24">
     <g id="line2d_40">
      <g>
       <use style="fill:#262626;stroke:#262626;" x="413.518251" xlink:href="#m1e964f36bf" y="161.112569"/>
      </g>
     </g>
    </g>
    <g id="ytick_25">
     <g id="line2d_41">
      <g>
       <use style="fill:#262626;stroke:#262626;" x="413.518251" xlink:href="#m1e964f36bf" y="146.145338"/>
      </g>
     </g>
    </g>
    <g id="ytick_26">
     <g id="line2d_42">
      <g>
       <use style="fill:#262626;stroke:#262626;" x="413.518251" xlink:href="#m1e964f36bf" y="135.525918"/>
      </g>
     </g>
    </g>
    <g id="ytick_27">
     <g id="line2d_43">
      <g>
       <use style="fill:#262626;stroke:#262626;" x="413.518251" xlink:href="#m1e964f36bf" y="127.288857"/>
      </g>
     </g>
    </g>
    <g id="ytick_28">
     <g id="line2d_44">
      <g>
       <use style="fill:#262626;stroke:#262626;" x="413.518251" xlink:href="#m1e964f36bf" y="120.558688"/>
      </g>
     </g>
    </g>
    <g id="ytick_29">
     <g id="line2d_45">
      <g>
       <use style="fill:#262626;stroke:#262626;" x="413.518251" xlink:href="#m1e964f36bf" y="114.86841"/>
      </g>
     </g>
    </g>
    <g id="ytick_30">
     <g id="line2d_46">
      <g>
       <use style="fill:#262626;stroke:#262626;" x="413.518251" xlink:href="#m1e964f36bf" y="109.939268"/>
      </g>
     </g>
    </g>
    <g id="ytick_31">
     <g id="line2d_47">
      <g>
       <use style="fill:#262626;stroke:#262626;" x="413.518251" xlink:href="#m1e964f36bf" y="105.591457"/>
      </g>
     </g>
    </g>
    <g id="ytick_32">
     <g id="line2d_48">
      <g>
       <use style="fill:#262626;stroke:#262626;" x="413.518251" xlink:href="#m1e964f36bf" y="76.115557"/>
      </g>
     </g>
    </g>
    <g id="ytick_33">
     <g id="line2d_49">
      <g>
       <use style="fill:#262626;stroke:#262626;" x="413.518251" xlink:href="#m1e964f36bf" y="61.148326"/>
      </g>
     </g>
    </g>
    <g id="ytick_34">
     <g id="line2d_50">
      <g>
       <use style="fill:#262626;stroke:#262626;" x="413.518251" xlink:href="#m1e964f36bf" y="50.528906"/>
      </g>
     </g>
    </g>
    <g id="ytick_35">
     <g id="line2d_51">
      <g>
       <use style="fill:#262626;stroke:#262626;" x="413.518251" xlink:href="#m1e964f36bf" y="42.291845"/>
      </g>
     </g>
    </g>
    <g id="ytick_36">
     <g id="line2d_52">
      <g>
       <use style="fill:#262626;stroke:#262626;" x="413.518251" xlink:href="#m1e964f36bf" y="35.561676"/>
      </g>
     </g>
    </g>
    <g id="ytick_37">
     <g id="line2d_53">
      <g>
       <use style="fill:#262626;stroke:#262626;" x="413.518251" xlink:href="#m1e964f36bf" y="29.871399"/>
      </g>
     </g>
    </g>
    <g id="ytick_38">
     <g id="line2d_54">
      <g>
       <use style="fill:#262626;stroke:#262626;" x="413.518251" xlink:href="#m1e964f36bf" y="24.942256"/>
      </g>
     </g>
    </g>
    <g id="text_28">
     <!-- [Cve_mid1oh] -->
     <g style="fill:#262626;" transform="translate(375.817626 204.750625)rotate(-90)scale(0.12 -0.12)">
      <use xlink:href="#Arial-BoldMT-91"/>
      <use x="33.300781" xlink:href="#Arial-BoldMT-67"/>
      <use x="105.517578" xlink:href="#Arial-BoldMT-118"/>
      <use x="161.132812" xlink:href="#Arial-BoldMT-101"/>
      <use x="216.748047" xlink:href="#Arial-BoldMT-95"/>
      <use x="272.363281" xlink:href="#Arial-BoldMT-109"/>
      <use x="361.279297" xlink:href="#Arial-BoldMT-105"/>
      <use x="389.0625" xlink:href="#Arial-BoldMT-100"/>
      <use x="450.146484" xlink:href="#Arial-BoldMT-49"/>
      <use x="505.761719" xlink:href="#Arial-BoldMT-111"/>
      <use x="566.845703" xlink:href="#Arial-BoldMT-104"/>
      <use x="627.929688" xlink:href="#Arial-BoldMT-93"/>
     </g>
    </g>
   </g>
   <g id="LineCollection_2">
    <path clip-path="url(#pf2d7237767)" d="M 430.792871 351.086719 
L 430.792871 151.499825 
" style="fill:none;stroke:#000000;stroke-width:1.5;"/>
    <path clip-path="url(#pf2d7237767)" d="M 434.95543 192.641039 
L 434.95543 101.361392 
" style="fill:none;stroke:#000000;stroke-width:1.5;"/>
    <path clip-path="url(#pf2d7237767)" d="M 439.117989 155.106224 
L 439.117989 109.710942 
" style="fill:none;stroke:#000000;stroke-width:1.5;"/>
    <path clip-path="url(#pf2d7237767)" d="M 443.280548 156.341686 
L 443.280548 125.531566 
" style="fill:none;stroke:#000000;stroke-width:1.5;"/>
    <path clip-path="url(#pf2d7237767)" d="M 447.443107 169.16067 
L 447.443107 137.155526 
" style="fill:none;stroke:#000000;stroke-width:1.5;"/>
    <path clip-path="url(#pf2d7237767)" d="M 455.768225 186.040887 
L 455.768225 144.973357 
" style="fill:none;stroke:#000000;stroke-width:1.5;"/>
    <path clip-path="url(#pf2d7237767)" d="M 464.093343 168.476517 
L 464.093343 152.726556 
" style="fill:none;stroke:#000000;stroke-width:1.5;"/>
    <path clip-path="url(#pf2d7237767)" d="M 476.581021 176.399466 
L 476.581021 158.655151 
" style="fill:none;stroke:#000000;stroke-width:1.5;"/>
    <path clip-path="url(#pf2d7237767)" d="M 501.556375 198.717118 
L 501.556375 167.909735 
" style="fill:none;stroke:#000000;stroke-width:1.5;"/>
    <path clip-path="url(#pf2d7237767)" d="M 526.531729 208.490775 
L 526.531729 181.159041 
" style="fill:none;stroke:#000000;stroke-width:1.5;"/>
    <path clip-path="url(#pf2d7237767)" d="M 551.507084 233.097201 
L 551.507084 198.630161 
" style="fill:none;stroke:#000000;stroke-width:1.5;"/>
    <path clip-path="url(#pf2d7237767)" d="M 576.482438 245.55577 
L 576.482438 208.534321 
" style="fill:none;stroke:#000000;stroke-width:1.5;"/>
    <path clip-path="url(#pf2d7237767)" d="M 626.433147 254.877975 
L 626.433147 234.063204 
" style="fill:none;stroke:#000000;stroke-width:1.5;"/>
    <path clip-path="url(#pf2d7237767)" d="M 676.383856 277.849846 
L 676.383856 253.839917 
" style="fill:none;stroke:#000000;stroke-width:1.5;"/>
   </g>
   <g id="line2d_55">
    <path clip-path="url(#pf2d7237767)" d="M 426.653894 351.086719 
L 426.801968 217.957604 
L 427.031092 174.870855 
L 427.298636 157.149482 
L 427.646893 147.931883 
L 428.053537 143.144754 
L 428.560737 139.702984 
L 429.270795 136.494437 
L 430.093539 133.905891 
L 431.135563 131.475221 
L 432.343229 129.207724 
L 434.121207 126.376531 
L 436.164891 123.540704 
L 438.73273 120.413982 
L 439.117989 119.980974 
L 439.12261 119.548096 
L 439.225909 120.635435 
L 439.516594 128.265714 
L 440.003558 138.815651 
L 440.414706 143.23064 
L 440.938229 146.3718 
L 441.584605 148.917355 
L 442.231391 150.67852 
L 442.989891 152.095823 
L 443.90009 153.270886 
L 445.040531 154.356098 
L 446.846906 155.740964 
L 451.047062 158.592991 
L 464.914213 167.621013 
L 565.687217 232.653744 
L 688.871533 312.144096 
L 688.871533 312.144096 
" style="fill:none;stroke:#0000ff;stroke-linecap:round;stroke-width:1.5;"/>
   </g>
   <g id="line2d_56">
    <path clip-path="url(#pf2d7237767)" d="M 430.792871 179.476722 
L 434.95543 123.958748 
L 439.117989 125.830305 
L 443.280548 137.811349 
L 447.443107 149.792933 
L 455.768225 160.068331 
L 464.093343 159.767829 
L 476.581021 166.471214 
L 501.556375 180.18869 
L 526.531729 192.351037 
L 551.507084 211.979031 
L 576.482438 222.586251 
L 626.433147 243.022505 
L 676.383856 263.926244 
" style="fill:none;stroke:#000000;stroke-linecap:round;stroke-width:1.5;"/>
    <g clip-path="url(#pf2d7237767)">
     <use style="stroke:#000000;stroke-linejoin:miter;" x="430.792871" xlink:href="#m9e66fc2625" y="179.476722"/>
     <use style="stroke:#000000;stroke-linejoin:miter;" x="434.95543" xlink:href="#m9e66fc2625" y="123.958748"/>
     <use style="stroke:#000000;stroke-linejoin:miter;" x="439.117989" xlink:href="#m9e66fc2625" y="125.830305"/>
     <use style="stroke:#000000;stroke-linejoin:miter;" x="443.280548" xlink:href="#m9e66fc2625" y="137.811349"/>
     <use style="stroke:#000000;stroke-linejoin:miter;" x="447.443107" xlink:href="#m9e66fc2625" y="149.792933"/>
     <use style="stroke:#000000;stroke-linejoin:miter;" x="455.768225" xlink:href="#m9e66fc2625" y="160.068331"/>
     <use style="stroke:#000000;stroke-linejoin:miter;" x="464.093343" xlink:href="#m9e66fc2625" y="159.767829"/>
     <use style="stroke:#000000;stroke-linejoin:miter;" x="476.581021" xlink:href="#m9e66fc2625" y="166.471214"/>
     <use style="stroke:#000000;stroke-linejoin:miter;" x="501.556375" xlink:href="#m9e66fc2625" y="180.18869"/>
     <use style="stroke:#000000;stroke-linejoin:miter;" x="526.531729" xlink:href="#m9e66fc2625" y="192.351037"/>
     <use style="stroke:#000000;stroke-linejoin:miter;" x="551.507084" xlink:href="#m9e66fc2625" y="211.979031"/>
     <use style="stroke:#000000;stroke-linejoin:miter;" x="576.482438" xlink:href="#m9e66fc2625" y="222.586251"/>
     <use style="stroke:#000000;stroke-linejoin:miter;" x="626.433147" xlink:href="#m9e66fc2625" y="243.022505"/>
     <use style="stroke:#000000;stroke-linejoin:miter;" x="676.383856" xlink:href="#m9e66fc2625" y="263.926244"/>
    </g>
   </g>
   <g id="patch_8">
    <path d="M 413.518251 308.369375 
L 413.518251 21.789375 
" style="fill:none;stroke:#262626;stroke-linecap:square;stroke-linejoin:miter;stroke-width:1.25;"/>
   </g>
   <g id="patch_9">
    <path d="M 701.983594 308.369375 
L 701.983594 21.789375 
" style="fill:none;stroke:#262626;stroke-linecap:square;stroke-linejoin:miter;stroke-width:1.25;"/>
   </g>
   <g id="patch_10">
    <path d="M 413.518251 308.369375 
L 701.983594 308.369375 
" style="fill:none;stroke:#262626;stroke-linecap:square;stroke-linejoin:miter;stroke-width:1.25;"/>
   </g>
   <g id="patch_11">
    <path d="M 413.518251 21.789375 
L 701.983594 21.789375 
" style="fill:none;stroke:#262626;stroke-linecap:square;stroke-linejoin:miter;stroke-width:1.25;"/>
   </g>
   <g id="text_29">
    <!-- Mandema1992 fm4 -->
    <g style="fill:#262626;" transform="translate(504.395922 15.789375)scale(0.12 -0.12)">
     <use xlink:href="#Arial-BoldMT-77"/>
     <use x="83.300781" xlink:href="#Arial-BoldMT-97"/>
     <use x="138.916016" xlink:href="#Arial-BoldMT-110"/>
     <use x="200" xlink:href="#Arial-BoldMT-100"/>
     <use x="261.083984" xlink:href="#Arial-BoldMT-101"/>
     <use x="316.699219" xlink:href="#Arial-BoldMT-109"/>
     <use x="405.615234" xlink:href="#Arial-BoldMT-97"/>
     <use x="461.230469" xlink:href="#Arial-BoldMT-49"/>
     <use x="516.845703" xlink:href="#Arial-BoldMT-57"/>
     <use x="572.460938" xlink:href="#Arial-BoldMT-57"/>
     <use x="628.076172" xlink:href="#Arial-BoldMT-50"/>
     <use x="683.691406" xlink:href="#Arial-BoldMT-32"/>
     <use x="711.474609" xlink:href="#Arial-BoldMT-102"/>
     <use x="744.775391" xlink:href="#Arial-BoldMT-109"/>
     <use x="833.691406" xlink:href="#Arial-BoldMT-52"/>
    </g>
   </g>
  </g>
 </g>
 <defs>
  <clipPath id="p196d36707d">
   <rect height="286.58" width="288.465343" x="65.497344" y="21.789375"/>
  </clipPath>
  <clipPath id="pf2d7237767">
   <rect height="286.58" width="288.465343" x="413.518251" y="21.789375"/>
  </clipPath>
 </defs>
</svg>
