<?xml version="1.0" encoding="utf-8" standalone="no"?>
<!DOCTYPE svg PUBLIC "-//W3C//DTD SVG 1.1//EN"
  "http://www.w3.org/Graphics/SVG/1.1/DTD/svg11.dtd">
<!-- Created with matplotlib (https://matplotlib.org/) -->
<svg height="611.514062pt" version="1.1" viewBox="0 0 678.147215 611.514062" width="678.147215pt" xmlns="http://www.w3.org/2000/svg" xmlns:xlink="http://www.w3.org/1999/xlink">
 <metadata>
  <rdf:RDF xmlns:cc="http://creativecommons.org/ns#" xmlns:dc="http://purl.org/dc/elements/1.1/" xmlns:rdf="http://www.w3.org/1999/02/22-rdf-syntax-ns#">
   <cc:Work>
    <dc:type rdf:resource="http://purl.org/dc/dcmitype/StillImage"/>
    <dc:date>2021-04-06T22:25:06.010327</dc:date>
    <dc:format>image/svg+xml</dc:format>
    <dc:creator>
     <cc:Agent>
      <dc:title>Matplotlib v3.3.4, https://matplotlib.org/</dc:title>
     </cc:Agent>
    </dc:creator>
   </cc:Work>
  </rdf:RDF>
 </metadata>
 <defs>
  <style type="text/css">*{stroke-linecap:butt;stroke-linejoin:round;}</style>
 </defs>
 <g id="figure_1">
  <g id="patch_1">
   <path d="M 0 611.514062 
L 678.147215 611.514062 
L 678.147215 0 
L 0 0 
z
" style="fill:#ffffff;"/>
  </g>
  <g id="axes_1">
   <g id="patch_2">
    <path d="M 40.6 269.440353 
L 283.208696 269.440353 
L 283.208696 28.396875 
L 40.6 28.396875 
z
" style="fill:#ffffff;"/>
   </g>
   <g id="matplotlib.axis_1">
    <g id="xtick_1">
     <g id="line2d_1">
      <defs>
       <path d="M 0 0 
L 0 3.5 
" id="mc99b5bccbd" style="stroke:#000000;stroke-width:0.8;"/>
      </defs>
      <g>
       <use style="stroke:#000000;stroke-width:0.8;" x="51.627668" xlink:href="#mc99b5bccbd" y="269.440353"/>
      </g>
     </g>
     <g id="text_1">
      <!-- 0.0 -->
      <g transform="translate(39.700324 287.83801)scale(0.15 -0.15)">
       <defs>
        <path d="M 31.78125 66.40625 
Q 24.171875 66.40625 20.328125 58.90625 
Q 16.5 51.421875 16.5 36.375 
Q 16.5 21.390625 20.328125 13.890625 
Q 24.171875 6.390625 31.78125 6.390625 
Q 39.453125 6.390625 43.28125 13.890625 
Q 47.125 21.390625 47.125 36.375 
Q 47.125 51.421875 43.28125 58.90625 
Q 39.453125 66.40625 31.78125 66.40625 
z
M 31.78125 74.21875 
Q 44.046875 74.21875 50.515625 64.515625 
Q 56.984375 54.828125 56.984375 36.375 
Q 56.984375 17.96875 50.515625 8.265625 
Q 44.046875 -1.421875 31.78125 -1.421875 
Q 19.53125 -1.421875 13.0625 8.265625 
Q 6.59375 17.96875 6.59375 36.375 
Q 6.59375 54.828125 13.0625 64.515625 
Q 19.53125 74.21875 31.78125 74.21875 
z
" id="DejaVuSans-48"/>
        <path d="M 10.6875 12.40625 
L 21 12.40625 
L 21 0 
L 10.6875 0 
z
" id="DejaVuSans-46"/>
       </defs>
       <use xlink:href="#DejaVuSans-48"/>
       <use x="63.623047" xlink:href="#DejaVuSans-46"/>
       <use x="95.410156" xlink:href="#DejaVuSans-48"/>
      </g>
     </g>
    </g>
    <g id="xtick_2">
     <g id="line2d_2">
      <g>
       <use style="stroke:#000000;stroke-width:0.8;" x="106.766008" xlink:href="#mc99b5bccbd" y="269.440353"/>
      </g>
     </g>
     <g id="text_2">
      <!-- 2.5 -->
      <g transform="translate(94.838664 287.83801)scale(0.15 -0.15)">
       <defs>
        <path d="M 19.1875 8.296875 
L 53.609375 8.296875 
L 53.609375 0 
L 7.328125 0 
L 7.328125 8.296875 
Q 12.9375 14.109375 22.625 23.890625 
Q 32.328125 33.6875 34.8125 36.53125 
Q 39.546875 41.84375 41.421875 45.53125 
Q 43.3125 49.21875 43.3125 52.78125 
Q 43.3125 58.59375 39.234375 62.25 
Q 35.15625 65.921875 28.609375 65.921875 
Q 23.96875 65.921875 18.8125 64.3125 
Q 13.671875 62.703125 7.8125 59.421875 
L 7.8125 69.390625 
Q 13.765625 71.78125 18.9375 73 
Q 24.125 74.21875 28.421875 74.21875 
Q 39.75 74.21875 46.484375 68.546875 
Q 53.21875 62.890625 53.21875 53.421875 
Q 53.21875 48.921875 51.53125 44.890625 
Q 49.859375 40.875 45.40625 35.40625 
Q 44.1875 33.984375 37.640625 27.21875 
Q 31.109375 20.453125 19.1875 8.296875 
z
" id="DejaVuSans-50"/>
        <path d="M 10.796875 72.90625 
L 49.515625 72.90625 
L 49.515625 64.59375 
L 19.828125 64.59375 
L 19.828125 46.734375 
Q 21.96875 47.46875 24.109375 47.828125 
Q 26.265625 48.1875 28.421875 48.1875 
Q 40.625 48.1875 47.75 41.5 
Q 54.890625 34.8125 54.890625 23.390625 
Q 54.890625 11.625 47.5625 5.09375 
Q 40.234375 -1.421875 26.90625 -1.421875 
Q 22.3125 -1.421875 17.546875 -0.640625 
Q 12.796875 0.140625 7.71875 1.703125 
L 7.71875 11.625 
Q 12.109375 9.234375 16.796875 8.0625 
Q 21.484375 6.890625 26.703125 6.890625 
Q 35.15625 6.890625 40.078125 11.328125 
Q 45.015625 15.765625 45.015625 23.390625 
Q 45.015625 31 40.078125 35.4375 
Q 35.15625 39.890625 26.703125 39.890625 
Q 22.75 39.890625 18.8125 39.015625 
Q 14.890625 38.140625 10.796875 36.28125 
z
" id="DejaVuSans-53"/>
       </defs>
       <use xlink:href="#DejaVuSans-50"/>
       <use x="63.623047" xlink:href="#DejaVuSans-46"/>
       <use x="95.410156" xlink:href="#DejaVuSans-53"/>
      </g>
     </g>
    </g>
    <g id="xtick_3">
     <g id="line2d_3">
      <g>
       <use style="stroke:#000000;stroke-width:0.8;" x="161.904348" xlink:href="#mc99b5bccbd" y="269.440353"/>
      </g>
     </g>
     <g id="text_3">
      <!-- 5.0 -->
      <g transform="translate(149.977004 287.83801)scale(0.15 -0.15)">
       <use xlink:href="#DejaVuSans-53"/>
       <use x="63.623047" xlink:href="#DejaVuSans-46"/>
       <use x="95.410156" xlink:href="#DejaVuSans-48"/>
      </g>
     </g>
    </g>
    <g id="xtick_4">
     <g id="line2d_4">
      <g>
       <use style="stroke:#000000;stroke-width:0.8;" x="217.042688" xlink:href="#mc99b5bccbd" y="269.440353"/>
      </g>
     </g>
     <g id="text_4">
      <!-- 7.5 -->
      <g transform="translate(205.115344 287.83801)scale(0.15 -0.15)">
       <defs>
        <path d="M 8.203125 72.90625 
L 55.078125 72.90625 
L 55.078125 68.703125 
L 28.609375 0 
L 18.3125 0 
L 43.21875 64.59375 
L 8.203125 64.59375 
z
" id="DejaVuSans-55"/>
       </defs>
       <use xlink:href="#DejaVuSans-55"/>
       <use x="63.623047" xlink:href="#DejaVuSans-46"/>
       <use x="95.410156" xlink:href="#DejaVuSans-53"/>
      </g>
     </g>
    </g>
    <g id="xtick_5">
     <g id="line2d_5">
      <g>
       <use style="stroke:#000000;stroke-width:0.8;" x="272.181028" xlink:href="#mc99b5bccbd" y="269.440353"/>
      </g>
     </g>
     <g id="text_5">
      <!-- 10.0 -->
      <g transform="translate(255.481809 287.83801)scale(0.15 -0.15)">
       <defs>
        <path d="M 12.40625 8.296875 
L 28.515625 8.296875 
L 28.515625 63.921875 
L 10.984375 60.40625 
L 10.984375 69.390625 
L 28.421875 72.90625 
L 38.28125 72.90625 
L 38.28125 8.296875 
L 54.390625 8.296875 
L 54.390625 0 
L 12.40625 0 
z
" id="DejaVuSans-49"/>
       </defs>
       <use xlink:href="#DejaVuSans-49"/>
       <use x="63.623047" xlink:href="#DejaVuSans-48"/>
       <use x="127.246094" xlink:href="#DejaVuSans-46"/>
       <use x="159.033203" xlink:href="#DejaVuSans-48"/>
      </g>
     </g>
    </g>
   </g>
   <g id="matplotlib.axis_2">
    <g id="ytick_1">
     <g id="line2d_6">
      <defs>
       <path d="M 0 0 
L -3.5 0 
" id="md898f407de" style="stroke:#000000;stroke-width:0.8;"/>
      </defs>
      <g>
       <use style="stroke:#000000;stroke-width:0.8;" x="40.6" xlink:href="#md898f407de" y="223.842938"/>
      </g>
     </g>
     <g id="text_6">
      <!-- 2 -->
      <g transform="translate(24.05625 229.541766)scale(0.15 -0.15)">
       <use xlink:href="#DejaVuSans-50"/>
      </g>
     </g>
    </g>
    <g id="ytick_2">
     <g id="line2d_7">
      <g>
       <use style="stroke:#000000;stroke-width:0.8;" x="40.6" xlink:href="#md898f407de" y="177.720553"/>
      </g>
     </g>
     <g id="text_7">
      <!-- 4 -->
      <g transform="translate(24.05625 183.419381)scale(0.15 -0.15)">
       <defs>
        <path d="M 37.796875 64.3125 
L 12.890625 25.390625 
L 37.796875 25.390625 
z
M 35.203125 72.90625 
L 47.609375 72.90625 
L 47.609375 25.390625 
L 58.015625 25.390625 
L 58.015625 17.1875 
L 47.609375 17.1875 
L 47.609375 0 
L 37.796875 0 
L 37.796875 17.1875 
L 4.890625 17.1875 
L 4.890625 26.703125 
z
" id="DejaVuSans-52"/>
       </defs>
       <use xlink:href="#DejaVuSans-52"/>
      </g>
     </g>
    </g>
    <g id="ytick_3">
     <g id="line2d_8">
      <g>
       <use style="stroke:#000000;stroke-width:0.8;" x="40.6" xlink:href="#md898f407de" y="131.598167"/>
      </g>
     </g>
     <g id="text_8">
      <!-- 6 -->
      <g transform="translate(24.05625 137.296995)scale(0.15 -0.15)">
       <defs>
        <path d="M 33.015625 40.375 
Q 26.375 40.375 22.484375 35.828125 
Q 18.609375 31.296875 18.609375 23.390625 
Q 18.609375 15.53125 22.484375 10.953125 
Q 26.375 6.390625 33.015625 6.390625 
Q 39.65625 6.390625 43.53125 10.953125 
Q 47.40625 15.53125 47.40625 23.390625 
Q 47.40625 31.296875 43.53125 35.828125 
Q 39.65625 40.375 33.015625 40.375 
z
M 52.59375 71.296875 
L 52.59375 62.3125 
Q 48.875 64.0625 45.09375 64.984375 
Q 41.3125 65.921875 37.59375 65.921875 
Q 27.828125 65.921875 22.671875 59.328125 
Q 17.53125 52.734375 16.796875 39.40625 
Q 19.671875 43.65625 24.015625 45.921875 
Q 28.375 48.1875 33.59375 48.1875 
Q 44.578125 48.1875 50.953125 41.515625 
Q 57.328125 34.859375 57.328125 23.390625 
Q 57.328125 12.15625 50.6875 5.359375 
Q 44.046875 -1.421875 33.015625 -1.421875 
Q 20.359375 -1.421875 13.671875 8.265625 
Q 6.984375 17.96875 6.984375 36.375 
Q 6.984375 53.65625 15.1875 63.9375 
Q 23.390625 74.21875 37.203125 74.21875 
Q 40.921875 74.21875 44.703125 73.484375 
Q 48.484375 72.75 52.59375 71.296875 
z
" id="DejaVuSans-54"/>
       </defs>
       <use xlink:href="#DejaVuSans-54"/>
      </g>
     </g>
    </g>
    <g id="ytick_4">
     <g id="line2d_9">
      <g>
       <use style="stroke:#000000;stroke-width:0.8;" x="40.6" xlink:href="#md898f407de" y="85.475782"/>
      </g>
     </g>
     <g id="text_9">
      <!-- 8 -->
      <g transform="translate(24.05625 91.17461)scale(0.15 -0.15)">
       <defs>
        <path d="M 31.78125 34.625 
Q 24.75 34.625 20.71875 30.859375 
Q 16.703125 27.09375 16.703125 20.515625 
Q 16.703125 13.921875 20.71875 10.15625 
Q 24.75 6.390625 31.78125 6.390625 
Q 38.8125 6.390625 42.859375 10.171875 
Q 46.921875 13.96875 46.921875 20.515625 
Q 46.921875 27.09375 42.890625 30.859375 
Q 38.875 34.625 31.78125 34.625 
z
M 21.921875 38.8125 
Q 15.578125 40.375 12.03125 44.71875 
Q 8.5 49.078125 8.5 55.328125 
Q 8.5 64.0625 14.71875 69.140625 
Q 20.953125 74.21875 31.78125 74.21875 
Q 42.671875 74.21875 48.875 69.140625 
Q 55.078125 64.0625 55.078125 55.328125 
Q 55.078125 49.078125 51.53125 44.71875 
Q 48 40.375 41.703125 38.8125 
Q 48.828125 37.15625 52.796875 32.3125 
Q 56.78125 27.484375 56.78125 20.515625 
Q 56.78125 9.90625 50.3125 4.234375 
Q 43.84375 -1.421875 31.78125 -1.421875 
Q 19.734375 -1.421875 13.25 4.234375 
Q 6.78125 9.90625 6.78125 20.515625 
Q 6.78125 27.484375 10.78125 32.3125 
Q 14.796875 37.15625 21.921875 38.8125 
z
M 18.3125 54.390625 
Q 18.3125 48.734375 21.84375 45.5625 
Q 25.390625 42.390625 31.78125 42.390625 
Q 38.140625 42.390625 41.71875 45.5625 
Q 45.3125 48.734375 45.3125 54.390625 
Q 45.3125 60.0625 41.71875 63.234375 
Q 38.140625 66.40625 31.78125 66.40625 
Q 25.390625 66.40625 21.84375 63.234375 
Q 18.3125 60.0625 18.3125 54.390625 
z
" id="DejaVuSans-56"/>
       </defs>
       <use xlink:href="#DejaVuSans-56"/>
      </g>
     </g>
    </g>
    <g id="ytick_5">
     <g id="line2d_10">
      <g>
       <use style="stroke:#000000;stroke-width:0.8;" x="40.6" xlink:href="#md898f407de" y="39.353397"/>
      </g>
     </g>
     <g id="text_10">
      <!-- 10 -->
      <g transform="translate(14.5125 45.052225)scale(0.15 -0.15)">
       <use xlink:href="#DejaVuSans-49"/>
       <use x="63.623047" xlink:href="#DejaVuSans-48"/>
      </g>
     </g>
    </g>
   </g>
   <g id="line2d_11">
    <path clip-path="url(#pa301e921a7)" d="M 51.627668 39.353397 
L 59.232956 62.017323 
L 66.838245 82.453899 
L 74.443533 100.882022 
L 82.048821 117.499079 
L 89.654109 132.483056 
L 97.259398 145.994447 
L 104.864686 158.177974 
L 112.469974 169.164138 
L 120.075262 179.07061 
L 127.680551 188.0035 
L 135.285839 196.05849 
L 142.891127 203.321857 
L 150.496415 209.871399 
L 158.101704 215.77727 
L 165.706992 221.102728 
L 173.31228 225.904813 
L 180.917568 230.234963 
L 188.522857 234.139557 
L 196.128145 237.660418 
L 203.733433 240.835258 
L 211.338722 243.698083 
L 218.94401 246.279558 
L 226.549298 248.607332 
L 234.154586 250.706338 
L 241.759875 252.59906 
L 249.365163 254.30577 
L 256.970451 255.844749 
L 264.575739 257.232482 
L 272.181028 258.483832 
" style="fill:none;stroke:#000000;stroke-linecap:square;stroke-width:2;"/>
    <defs>
     <path d="M -3 3 
L 3 3 
L 3 -3 
L -3 -3 
z
" id="mb0940aedea" style="stroke:#000000;stroke-linejoin:miter;"/>
    </defs>
    <g clip-path="url(#pa301e921a7)">
     <use style="stroke:#000000;stroke-linejoin:miter;" x="51.627668" xlink:href="#mb0940aedea" y="39.353397"/>
     <use style="stroke:#000000;stroke-linejoin:miter;" x="59.232956" xlink:href="#mb0940aedea" y="62.017323"/>
     <use style="stroke:#000000;stroke-linejoin:miter;" x="66.838245" xlink:href="#mb0940aedea" y="82.453899"/>
     <use style="stroke:#000000;stroke-linejoin:miter;" x="74.443533" xlink:href="#mb0940aedea" y="100.882022"/>
     <use style="stroke:#000000;stroke-linejoin:miter;" x="82.048821" xlink:href="#mb0940aedea" y="117.499079"/>
     <use style="stroke:#000000;stroke-linejoin:miter;" x="89.654109" xlink:href="#mb0940aedea" y="132.483056"/>
     <use style="stroke:#000000;stroke-linejoin:miter;" x="97.259398" xlink:href="#mb0940aedea" y="145.994447"/>
     <use style="stroke:#000000;stroke-linejoin:miter;" x="104.864686" xlink:href="#mb0940aedea" y="158.177974"/>
     <use style="stroke:#000000;stroke-linejoin:miter;" x="112.469974" xlink:href="#mb0940aedea" y="169.164138"/>
     <use style="stroke:#000000;stroke-linejoin:miter;" x="120.075262" xlink:href="#mb0940aedea" y="179.07061"/>
     <use style="stroke:#000000;stroke-linejoin:miter;" x="127.680551" xlink:href="#mb0940aedea" y="188.0035"/>
     <use style="stroke:#000000;stroke-linejoin:miter;" x="135.285839" xlink:href="#mb0940aedea" y="196.05849"/>
     <use style="stroke:#000000;stroke-linejoin:miter;" x="142.891127" xlink:href="#mb0940aedea" y="203.321857"/>
     <use style="stroke:#000000;stroke-linejoin:miter;" x="150.496415" xlink:href="#mb0940aedea" y="209.871399"/>
     <use style="stroke:#000000;stroke-linejoin:miter;" x="158.101704" xlink:href="#mb0940aedea" y="215.77727"/>
     <use style="stroke:#000000;stroke-linejoin:miter;" x="165.706992" xlink:href="#mb0940aedea" y="221.102728"/>
     <use style="stroke:#000000;stroke-linejoin:miter;" x="173.31228" xlink:href="#mb0940aedea" y="225.904813"/>
     <use style="stroke:#000000;stroke-linejoin:miter;" x="180.917568" xlink:href="#mb0940aedea" y="230.234963"/>
     <use style="stroke:#000000;stroke-linejoin:miter;" x="188.522857" xlink:href="#mb0940aedea" y="234.139557"/>
     <use style="stroke:#000000;stroke-linejoin:miter;" x="196.128145" xlink:href="#mb0940aedea" y="237.660418"/>
     <use style="stroke:#000000;stroke-linejoin:miter;" x="203.733433" xlink:href="#mb0940aedea" y="240.835258"/>
     <use style="stroke:#000000;stroke-linejoin:miter;" x="211.338722" xlink:href="#mb0940aedea" y="243.698083"/>
     <use style="stroke:#000000;stroke-linejoin:miter;" x="218.94401" xlink:href="#mb0940aedea" y="246.279558"/>
     <use style="stroke:#000000;stroke-linejoin:miter;" x="226.549298" xlink:href="#mb0940aedea" y="248.607332"/>
     <use style="stroke:#000000;stroke-linejoin:miter;" x="234.154586" xlink:href="#mb0940aedea" y="250.706338"/>
     <use style="stroke:#000000;stroke-linejoin:miter;" x="241.759875" xlink:href="#mb0940aedea" y="252.59906"/>
     <use style="stroke:#000000;stroke-linejoin:miter;" x="249.365163" xlink:href="#mb0940aedea" y="254.30577"/>
     <use style="stroke:#000000;stroke-linejoin:miter;" x="256.970451" xlink:href="#mb0940aedea" y="255.844749"/>
     <use style="stroke:#000000;stroke-linejoin:miter;" x="264.575739" xlink:href="#mb0940aedea" y="257.232482"/>
     <use style="stroke:#000000;stroke-linejoin:miter;" x="272.181028" xlink:href="#mb0940aedea" y="258.483832"/>
    </g>
   </g>
   <g id="patch_3">
    <path d="M 40.6 269.440353 
L 40.6 28.396875 
" style="fill:none;stroke:#000000;stroke-linecap:square;stroke-linejoin:miter;stroke-width:0.8;"/>
   </g>
   <g id="patch_4">
    <path d="M 283.208696 269.440353 
L 283.208696 28.396875 
" style="fill:none;stroke:#000000;stroke-linecap:square;stroke-linejoin:miter;stroke-width:0.8;"/>
   </g>
   <g id="patch_5">
    <path d="M 40.6 269.440353 
L 283.208696 269.440353 
" style="fill:none;stroke:#000000;stroke-linecap:square;stroke-linejoin:miter;stroke-width:0.8;"/>
   </g>
   <g id="patch_6">
    <path d="M 40.6 28.396875 
L 283.208696 28.396875 
" style="fill:none;stroke:#000000;stroke-linecap:square;stroke-linejoin:miter;stroke-width:0.8;"/>
   </g>
   <g id="text_11">
    <!-- No axes -->
    <g transform="translate(117.251223 22.396875)scale(0.2 -0.2)">
     <defs>
      <path d="M 9.1875 72.90625 
L 30.171875 72.90625 
L 56.6875 22.90625 
L 56.6875 72.90625 
L 74.515625 72.90625 
L 74.515625 0 
L 53.515625 0 
L 27 50 
L 27 0 
L 9.1875 0 
z
" id="DejaVuSans-Bold-78"/>
      <path d="M 34.421875 43.5 
Q 28.609375 43.5 25.5625 39.328125 
Q 22.515625 35.15625 22.515625 27.296875 
Q 22.515625 19.4375 25.5625 15.25 
Q 28.609375 11.078125 34.421875 11.078125 
Q 40.140625 11.078125 43.15625 15.25 
Q 46.1875 19.4375 46.1875 27.296875 
Q 46.1875 35.15625 43.15625 39.328125 
Q 40.140625 43.5 34.421875 43.5 
z
M 34.421875 56 
Q 48.53125 56 56.46875 48.375 
Q 64.40625 40.765625 64.40625 27.296875 
Q 64.40625 13.8125 56.46875 6.1875 
Q 48.53125 -1.421875 34.421875 -1.421875 
Q 20.265625 -1.421875 12.28125 6.1875 
Q 4.296875 13.8125 4.296875 27.296875 
Q 4.296875 40.765625 12.28125 48.375 
Q 20.265625 56 34.421875 56 
z
" id="DejaVuSans-Bold-111"/>
      <path id="DejaVuSans-Bold-32"/>
      <path d="M 32.90625 24.609375 
Q 27.4375 24.609375 24.671875 22.75 
Q 21.921875 20.90625 21.921875 17.28125 
Q 21.921875 13.96875 24.140625 12.078125 
Q 26.375 10.203125 30.328125 10.203125 
Q 35.25 10.203125 38.625 13.734375 
Q 42 17.28125 42 22.609375 
L 42 24.609375 
z
M 59.625 31.203125 
L 59.625 0 
L 42 0 
L 42 8.109375 
Q 38.484375 3.125 34.078125 0.84375 
Q 29.6875 -1.421875 23.390625 -1.421875 
Q 14.890625 -1.421875 9.59375 3.53125 
Q 4.296875 8.5 4.296875 16.40625 
Q 4.296875 26.03125 10.90625 30.515625 
Q 17.53125 35.015625 31.6875 35.015625 
L 42 35.015625 
L 42 36.375 
Q 42 40.53125 38.71875 42.453125 
Q 35.453125 44.390625 28.515625 44.390625 
Q 22.90625 44.390625 18.0625 43.265625 
Q 13.234375 42.140625 9.078125 39.890625 
L 9.078125 53.21875 
Q 14.703125 54.59375 20.359375 55.296875 
Q 26.03125 56 31.6875 56 
Q 46.484375 56 53.046875 50.171875 
Q 59.625 44.34375 59.625 31.203125 
z
" id="DejaVuSans-Bold-97"/>
      <path d="M 22.21875 27.984375 
L 2.484375 54.6875 
L 21 54.6875 
L 32.171875 38.484375 
L 43.5 54.6875 
L 62.015625 54.6875 
L 42.28125 28.078125 
L 62.984375 0 
L 44.484375 0 
L 32.171875 17.28125 
L 20.015625 0 
L 1.515625 0 
z
" id="DejaVuSans-Bold-120"/>
      <path d="M 62.984375 27.484375 
L 62.984375 22.515625 
L 22.125 22.515625 
Q 22.75 16.359375 26.5625 13.28125 
Q 30.375 10.203125 37.203125 10.203125 
Q 42.71875 10.203125 48.5 11.84375 
Q 54.296875 13.484375 60.40625 16.796875 
L 60.40625 3.328125 
Q 54.203125 0.984375 48 -0.21875 
Q 41.796875 -1.421875 35.59375 -1.421875 
Q 20.75 -1.421875 12.515625 6.125 
Q 4.296875 13.671875 4.296875 27.296875 
Q 4.296875 40.671875 12.375 48.328125 
Q 20.453125 56 34.625 56 
Q 47.515625 56 55.25 48.234375 
Q 62.984375 40.484375 62.984375 27.484375 
z
M 45.015625 33.296875 
Q 45.015625 38.28125 42.109375 41.328125 
Q 39.203125 44.390625 34.515625 44.390625 
Q 29.4375 44.390625 26.265625 41.53125 
Q 23.09375 38.671875 22.3125 33.296875 
z
" id="DejaVuSans-Bold-101"/>
      <path d="M 51.125 52.984375 
L 51.125 39.703125 
Q 45.515625 42.046875 40.28125 43.21875 
Q 35.0625 44.390625 30.421875 44.390625 
Q 25.4375 44.390625 23.015625 43.140625 
Q 20.609375 41.890625 20.609375 39.3125 
Q 20.609375 37.203125 22.4375 36.078125 
Q 24.265625 34.96875 29 34.421875 
L 32.078125 33.984375 
Q 45.515625 32.28125 50.140625 28.375 
Q 54.78125 24.46875 54.78125 16.109375 
Q 54.78125 7.375 48.328125 2.96875 
Q 41.890625 -1.421875 29.109375 -1.421875 
Q 23.6875 -1.421875 17.890625 -0.5625 
Q 12.109375 0.296875 6 2 
L 6 15.28125 
Q 11.234375 12.75 16.71875 11.46875 
Q 22.21875 10.203125 27.875 10.203125 
Q 33.015625 10.203125 35.59375 11.609375 
Q 38.1875 13.03125 38.1875 15.828125 
Q 38.1875 18.171875 36.40625 19.3125 
Q 34.625 20.453125 29.296875 21.09375 
L 26.21875 21.484375 
Q 14.546875 22.953125 9.859375 26.90625 
Q 5.171875 30.859375 5.171875 38.921875 
Q 5.171875 47.609375 11.125 51.796875 
Q 17.09375 56 29.390625 56 
Q 34.234375 56 39.546875 55.265625 
Q 44.875 54.546875 51.125 52.984375 
z
" id="DejaVuSans-Bold-115"/>
     </defs>
     <use xlink:href="#DejaVuSans-Bold-78"/>
     <use x="83.691406" xlink:href="#DejaVuSans-Bold-111"/>
     <use x="152.392578" xlink:href="#DejaVuSans-Bold-32"/>
     <use x="187.207031" xlink:href="#DejaVuSans-Bold-97"/>
     <use x="254.6875" xlink:href="#DejaVuSans-Bold-120"/>
     <use x="319.189453" xlink:href="#DejaVuSans-Bold-101"/>
     <use x="387.011719" xlink:href="#DejaVuSans-Bold-115"/>
    </g>
   </g>
   <g id="legend_1">
    <g id="patch_7">
     <path d="M 215.984477 57.878437 
L 274.108696 57.878437 
Q 276.708696 57.878437 276.708696 55.278437 
L 276.708696 37.496875 
Q 276.708696 34.896875 274.108696 34.896875 
L 215.984477 34.896875 
Q 213.384477 34.896875 213.384477 37.496875 
L 213.384477 55.278437 
Q 213.384477 57.878437 215.984477 57.878437 
z
" style="fill:#ffffff;opacity:0.8;stroke:#cccccc;stroke-linejoin:miter;"/>
    </g>
    <g id="line2d_12">
     <path d="M 218.584477 45.424844 
L 244.584477 45.424844 
" style="fill:none;stroke:#000000;stroke-linecap:square;stroke-width:2;"/>
    </g>
    <g id="line2d_13">
     <g>
      <use style="stroke:#000000;stroke-linejoin:miter;" x="231.584477" xlink:href="#mb0940aedea" y="45.424844"/>
     </g>
    </g>
    <g id="text_12">
     <!-- S1 -->
     <g transform="translate(254.984477 49.974844)scale(0.13 -0.13)">
      <defs>
       <path d="M 53.515625 70.515625 
L 53.515625 60.890625 
Q 47.90625 63.578125 42.921875 64.890625 
Q 37.9375 66.21875 33.296875 66.21875 
Q 25.25 66.21875 20.875 63.09375 
Q 16.5 59.96875 16.5 54.203125 
Q 16.5 49.359375 19.40625 46.890625 
Q 22.3125 44.4375 30.421875 42.921875 
L 36.375 41.703125 
Q 47.40625 39.59375 52.65625 34.296875 
Q 57.90625 29 57.90625 20.125 
Q 57.90625 9.515625 50.796875 4.046875 
Q 43.703125 -1.421875 29.984375 -1.421875 
Q 24.8125 -1.421875 18.96875 -0.25 
Q 13.140625 0.921875 6.890625 3.21875 
L 6.890625 13.375 
Q 12.890625 10.015625 18.65625 8.296875 
Q 24.421875 6.59375 29.984375 6.59375 
Q 38.421875 6.59375 43.015625 9.90625 
Q 47.609375 13.234375 47.609375 19.390625 
Q 47.609375 24.75 44.3125 27.78125 
Q 41.015625 30.8125 33.5 32.328125 
L 27.484375 33.5 
Q 16.453125 35.6875 11.515625 40.375 
Q 6.59375 45.0625 6.59375 53.421875 
Q 6.59375 63.09375 13.40625 68.65625 
Q 20.21875 74.21875 32.171875 74.21875 
Q 37.3125 74.21875 42.625 73.28125 
Q 47.953125 72.359375 53.515625 70.515625 
z
" id="DejaVuSans-83"/>
      </defs>
      <use xlink:href="#DejaVuSans-83"/>
      <use x="63.476562" xlink:href="#DejaVuSans-49"/>
     </g>
    </g>
   </g>
  </g>
  <g id="axes_2">
   <g id="patch_8">
    <path d="M 355.991304 269.440353 
L 598.6 269.440353 
L 598.6 28.396875 
L 355.991304 28.396875 
z
" style="fill:#ffffff;"/>
   </g>
   <g id="matplotlib.axis_3">
    <g id="xtick_6">
     <g id="line2d_14">
      <path clip-path="url(#pff5a6f031a)" d="M 598.6 269.440353 
L 598.6 28.396875 
" style="fill:none;stroke:#b0b0b0;stroke-linecap:square;stroke-width:0.8;"/>
     </g>
     <g id="line2d_15">
      <g>
       <use style="stroke:#000000;stroke-width:0.8;" x="598.6" xlink:href="#mc99b5bccbd" y="269.440353"/>
      </g>
     </g>
     <g id="text_13">
      <!-- 0 -->
      <g transform="translate(593.828125 287.83801)scale(0.15 -0.15)">
       <use xlink:href="#DejaVuSans-48"/>
      </g>
     </g>
    </g>
    <g id="xtick_7">
     <g id="line2d_16">
      <path clip-path="url(#pff5a6f031a)" d="M 550.078261 269.440353 
L 550.078261 28.396875 
" style="fill:none;stroke:#b0b0b0;stroke-linecap:square;stroke-width:0.8;"/>
     </g>
     <g id="line2d_17">
      <g>
       <use style="stroke:#000000;stroke-width:0.8;" x="550.078261" xlink:href="#mc99b5bccbd" y="269.440353"/>
      </g>
     </g>
     <g id="text_14">
      <!-- 2 -->
      <g transform="translate(545.306386 287.83801)scale(0.15 -0.15)">
       <use xlink:href="#DejaVuSans-50"/>
      </g>
     </g>
    </g>
    <g id="xtick_8">
     <g id="line2d_18">
      <path clip-path="url(#pff5a6f031a)" d="M 501.556522 269.440353 
L 501.556522 28.396875 
" style="fill:none;stroke:#b0b0b0;stroke-linecap:square;stroke-width:0.8;"/>
     </g>
     <g id="line2d_19">
      <g>
       <use style="stroke:#000000;stroke-width:0.8;" x="501.556522" xlink:href="#mc99b5bccbd" y="269.440353"/>
      </g>
     </g>
     <g id="text_15">
      <!-- 4 -->
      <g transform="translate(496.784647 287.83801)scale(0.15 -0.15)">
       <use xlink:href="#DejaVuSans-52"/>
      </g>
     </g>
    </g>
    <g id="xtick_9">
     <g id="line2d_20">
      <path clip-path="url(#pff5a6f031a)" d="M 453.034783 269.440353 
L 453.034783 28.396875 
" style="fill:none;stroke:#b0b0b0;stroke-linecap:square;stroke-width:0.8;"/>
     </g>
     <g id="line2d_21">
      <g>
       <use style="stroke:#000000;stroke-width:0.8;" x="453.034783" xlink:href="#mc99b5bccbd" y="269.440353"/>
      </g>
     </g>
     <g id="text_16">
      <!-- 6 -->
      <g transform="translate(448.262908 287.83801)scale(0.15 -0.15)">
       <use xlink:href="#DejaVuSans-54"/>
      </g>
     </g>
    </g>
    <g id="xtick_10">
     <g id="line2d_22">
      <path clip-path="url(#pff5a6f031a)" d="M 404.513043 269.440353 
L 404.513043 28.396875 
" style="fill:none;stroke:#b0b0b0;stroke-linecap:square;stroke-width:0.8;"/>
     </g>
     <g id="line2d_23">
      <g>
       <use style="stroke:#000000;stroke-width:0.8;" x="404.513043" xlink:href="#mc99b5bccbd" y="269.440353"/>
      </g>
     </g>
     <g id="text_17">
      <!-- 8 -->
      <g transform="translate(399.741168 287.83801)scale(0.15 -0.15)">
       <use xlink:href="#DejaVuSans-56"/>
      </g>
     </g>
    </g>
    <g id="xtick_11">
     <g id="line2d_24">
      <path clip-path="url(#pff5a6f031a)" d="M 355.991304 269.440353 
L 355.991304 28.396875 
" style="fill:none;stroke:#b0b0b0;stroke-linecap:square;stroke-width:0.8;"/>
     </g>
     <g id="line2d_25">
      <g>
       <use style="stroke:#000000;stroke-width:0.8;" x="355.991304" xlink:href="#mc99b5bccbd" y="269.440353"/>
      </g>
     </g>
     <g id="text_18">
      <!-- 10 -->
      <g transform="translate(346.447554 287.83801)scale(0.15 -0.15)">
       <use xlink:href="#DejaVuSans-49"/>
       <use x="63.623047" xlink:href="#DejaVuSans-48"/>
      </g>
     </g>
    </g>
   </g>
   <g id="matplotlib.axis_4">
    <g id="ytick_6">
     <g id="line2d_26">
      <path clip-path="url(#pff5a6f031a)" d="M 355.991304 28.396875 
L 598.6 28.396875 
" style="fill:none;stroke:#b0b0b0;stroke-linecap:square;stroke-width:0.8;"/>
     </g>
     <g id="line2d_27">
      <g>
       <use style="stroke:#000000;stroke-width:0.8;" x="355.991304" xlink:href="#md898f407de" y="28.396875"/>
      </g>
     </g>
     <g id="text_19">
      <!-- 0 -->
      <g transform="translate(339.447554 34.095703)scale(0.15 -0.15)">
       <use xlink:href="#DejaVuSans-48"/>
      </g>
     </g>
    </g>
    <g id="ytick_7">
     <g id="line2d_28">
      <path clip-path="url(#pff5a6f031a)" d="M 355.991304 76.605571 
L 598.6 76.605571 
" style="fill:none;stroke:#b0b0b0;stroke-linecap:square;stroke-width:0.8;"/>
     </g>
     <g id="line2d_29">
      <g>
       <use style="stroke:#000000;stroke-width:0.8;" x="355.991304" xlink:href="#md898f407de" y="76.605571"/>
      </g>
     </g>
     <g id="text_20">
      <!-- 2 -->
      <g transform="translate(339.447554 82.304399)scale(0.15 -0.15)">
       <use xlink:href="#DejaVuSans-50"/>
      </g>
     </g>
    </g>
    <g id="ytick_8">
     <g id="line2d_30">
      <path clip-path="url(#pff5a6f031a)" d="M 355.991304 124.814266 
L 598.6 124.814266 
" style="fill:none;stroke:#b0b0b0;stroke-linecap:square;stroke-width:0.8;"/>
     </g>
     <g id="line2d_31">
      <g>
       <use style="stroke:#000000;stroke-width:0.8;" x="355.991304" xlink:href="#md898f407de" y="124.814266"/>
      </g>
     </g>
     <g id="text_21">
      <!-- 4 -->
      <g transform="translate(339.447554 130.513094)scale(0.15 -0.15)">
       <use xlink:href="#DejaVuSans-52"/>
      </g>
     </g>
    </g>
    <g id="ytick_9">
     <g id="line2d_32">
      <path clip-path="url(#pff5a6f031a)" d="M 355.991304 173.022962 
L 598.6 173.022962 
" style="fill:none;stroke:#b0b0b0;stroke-linecap:square;stroke-width:0.8;"/>
     </g>
     <g id="line2d_33">
      <g>
       <use style="stroke:#000000;stroke-width:0.8;" x="355.991304" xlink:href="#md898f407de" y="173.022962"/>
      </g>
     </g>
     <g id="text_22">
      <!-- 6 -->
      <g transform="translate(339.447554 178.72179)scale(0.15 -0.15)">
       <use xlink:href="#DejaVuSans-54"/>
      </g>
     </g>
    </g>
    <g id="ytick_10">
     <g id="line2d_34">
      <path clip-path="url(#pff5a6f031a)" d="M 355.991304 221.231658 
L 598.6 221.231658 
" style="fill:none;stroke:#b0b0b0;stroke-linecap:square;stroke-width:0.8;"/>
     </g>
     <g id="line2d_35">
      <g>
       <use style="stroke:#000000;stroke-width:0.8;" x="355.991304" xlink:href="#md898f407de" y="221.231658"/>
      </g>
     </g>
     <g id="text_23">
      <!-- 8 -->
      <g transform="translate(339.447554 226.930486)scale(0.15 -0.15)">
       <use xlink:href="#DejaVuSans-56"/>
      </g>
     </g>
    </g>
    <g id="ytick_11">
     <g id="line2d_36">
      <path clip-path="url(#pff5a6f031a)" d="M 355.991304 269.440353 
L 598.6 269.440353 
" style="fill:none;stroke:#b0b0b0;stroke-linecap:square;stroke-width:0.8;"/>
     </g>
     <g id="line2d_37">
      <g>
       <use style="stroke:#000000;stroke-width:0.8;" x="355.991304" xlink:href="#md898f407de" y="269.440353"/>
      </g>
     </g>
     <g id="text_24">
      <!-- 10 -->
      <g transform="translate(329.903804 275.139181)scale(0.15 -0.15)">
       <use xlink:href="#DejaVuSans-49"/>
       <use x="63.623047" xlink:href="#DejaVuSans-48"/>
      </g>
     </g>
    </g>
   </g>
   <g id="line2d_38">
    <path clip-path="url(#pff5a6f031a)" d="M 598.6 269.440353 
L 590.234183 245.751242 
L 581.868366 224.390233 
L 573.502549 205.128528 
L 565.136732 187.759812 
L 556.770915 172.098047 
L 548.405097 157.975478 
L 540.03928 145.240838 
L 531.673463 133.757724 
L 523.307646 123.403141 
L 514.941829 114.066178 
L 506.576012 105.646827 
L 498.210195 98.054907 
L 489.844378 91.209101 
L 481.478561 85.036083 
L 473.112744 79.469732 
L 464.746927 74.450428 
L 456.381109 69.924407 
L 448.015292 65.843192 
L 439.649475 62.163068 
L 431.283658 58.844616 
L 422.917841 55.852293 
L 414.552024 53.154048 
L 406.186207 50.720979 
L 397.82039 48.527025 
L 389.454573 46.548688 
L 381.088756 44.764776 
L 372.722939 43.156182 
L 364.357121 41.705677 
L 355.991304 40.397723 
" style="fill:none;stroke:#000000;stroke-linecap:square;stroke-width:2;"/>
    <g clip-path="url(#pff5a6f031a)">
     <use style="stroke:#000000;stroke-linejoin:miter;" x="598.6" xlink:href="#mb0940aedea" y="269.440353"/>
     <use style="stroke:#000000;stroke-linejoin:miter;" x="590.234183" xlink:href="#mb0940aedea" y="245.751242"/>
     <use style="stroke:#000000;stroke-linejoin:miter;" x="581.868366" xlink:href="#mb0940aedea" y="224.390233"/>
     <use style="stroke:#000000;stroke-linejoin:miter;" x="573.502549" xlink:href="#mb0940aedea" y="205.128528"/>
     <use style="stroke:#000000;stroke-linejoin:miter;" x="565.136732" xlink:href="#mb0940aedea" y="187.759812"/>
     <use style="stroke:#000000;stroke-linejoin:miter;" x="556.770915" xlink:href="#mb0940aedea" y="172.098047"/>
     <use style="stroke:#000000;stroke-linejoin:miter;" x="548.405097" xlink:href="#mb0940aedea" y="157.975478"/>
     <use style="stroke:#000000;stroke-linejoin:miter;" x="540.03928" xlink:href="#mb0940aedea" y="145.240838"/>
     <use style="stroke:#000000;stroke-linejoin:miter;" x="531.673463" xlink:href="#mb0940aedea" y="133.757724"/>
     <use style="stroke:#000000;stroke-linejoin:miter;" x="523.307646" xlink:href="#mb0940aedea" y="123.403141"/>
     <use style="stroke:#000000;stroke-linejoin:miter;" x="514.941829" xlink:href="#mb0940aedea" y="114.066178"/>
     <use style="stroke:#000000;stroke-linejoin:miter;" x="506.576012" xlink:href="#mb0940aedea" y="105.646827"/>
     <use style="stroke:#000000;stroke-linejoin:miter;" x="498.210195" xlink:href="#mb0940aedea" y="98.054907"/>
     <use style="stroke:#000000;stroke-linejoin:miter;" x="489.844378" xlink:href="#mb0940aedea" y="91.209101"/>
     <use style="stroke:#000000;stroke-linejoin:miter;" x="481.478561" xlink:href="#mb0940aedea" y="85.036083"/>
     <use style="stroke:#000000;stroke-linejoin:miter;" x="473.112744" xlink:href="#mb0940aedea" y="79.469732"/>
     <use style="stroke:#000000;stroke-linejoin:miter;" x="464.746927" xlink:href="#mb0940aedea" y="74.450428"/>
     <use style="stroke:#000000;stroke-linejoin:miter;" x="456.381109" xlink:href="#mb0940aedea" y="69.924407"/>
     <use style="stroke:#000000;stroke-linejoin:miter;" x="448.015292" xlink:href="#mb0940aedea" y="65.843192"/>
     <use style="stroke:#000000;stroke-linejoin:miter;" x="439.649475" xlink:href="#mb0940aedea" y="62.163068"/>
     <use style="stroke:#000000;stroke-linejoin:miter;" x="431.283658" xlink:href="#mb0940aedea" y="58.844616"/>
     <use style="stroke:#000000;stroke-linejoin:miter;" x="422.917841" xlink:href="#mb0940aedea" y="55.852293"/>
     <use style="stroke:#000000;stroke-linejoin:miter;" x="414.552024" xlink:href="#mb0940aedea" y="53.154048"/>
     <use style="stroke:#000000;stroke-linejoin:miter;" x="406.186207" xlink:href="#mb0940aedea" y="50.720979"/>
     <use style="stroke:#000000;stroke-linejoin:miter;" x="397.82039" xlink:href="#mb0940aedea" y="48.527025"/>
     <use style="stroke:#000000;stroke-linejoin:miter;" x="389.454573" xlink:href="#mb0940aedea" y="46.548688"/>
     <use style="stroke:#000000;stroke-linejoin:miter;" x="381.088756" xlink:href="#mb0940aedea" y="44.764776"/>
     <use style="stroke:#000000;stroke-linejoin:miter;" x="372.722939" xlink:href="#mb0940aedea" y="43.156182"/>
     <use style="stroke:#000000;stroke-linejoin:miter;" x="364.357121" xlink:href="#mb0940aedea" y="41.705677"/>
     <use style="stroke:#000000;stroke-linejoin:miter;" x="355.991304" xlink:href="#mb0940aedea" y="40.397723"/>
    </g>
   </g>
   <g id="patch_9">
    <path d="M 355.991304 269.440353 
L 355.991304 28.396875 
" style="fill:none;stroke:#000000;stroke-linecap:square;stroke-linejoin:miter;stroke-width:0.8;"/>
   </g>
   <g id="patch_10">
    <path d="M 598.6 269.440353 
L 598.6 28.396875 
" style="fill:none;stroke:#000000;stroke-linecap:square;stroke-linejoin:miter;stroke-width:0.8;"/>
   </g>
   <g id="patch_11">
    <path d="M 355.991304 269.440353 
L 598.6 269.440353 
" style="fill:none;stroke:#000000;stroke-linecap:square;stroke-linejoin:miter;stroke-width:0.8;"/>
   </g>
   <g id="patch_12">
    <path d="M 355.991304 28.396875 
L 598.6 28.396875 
" style="fill:none;stroke:#000000;stroke-linecap:square;stroke-linejoin:miter;stroke-width:0.8;"/>
   </g>
   <g id="text_25">
    <!-- Axis (reversed order and grid) -->
    <g transform="translate(306.448777 22.396875)scale(0.2 -0.2)">
     <defs>
      <path d="M 53.421875 13.28125 
L 24.03125 13.28125 
L 19.390625 0 
L 0.484375 0 
L 27.484375 72.90625 
L 49.90625 72.90625 
L 76.90625 0 
L 58.015625 0 
z
M 28.71875 26.8125 
L 48.6875 26.8125 
L 38.71875 55.8125 
z
" id="DejaVuSans-Bold-65"/>
      <path d="M 8.40625 54.6875 
L 25.875 54.6875 
L 25.875 0 
L 8.40625 0 
z
M 8.40625 75.984375 
L 25.875 75.984375 
L 25.875 61.71875 
L 8.40625 61.71875 
z
" id="DejaVuSans-Bold-105"/>
      <path d="M 37.703125 -13.1875 
L 23.1875 -13.1875 
Q 15.71875 -1.125 12.15625 9.734375 
Q 8.59375 20.609375 8.59375 31.296875 
Q 8.59375 42 12.171875 52.953125 
Q 15.765625 63.921875 23.1875 75.875 
L 37.703125 75.875 
Q 31.453125 64.3125 28.328125 53.25 
Q 25.203125 42.1875 25.203125 31.390625 
Q 25.203125 20.609375 28.296875 9.515625 
Q 31.390625 -1.5625 37.703125 -13.1875 
z
" id="DejaVuSans-Bold-40"/>
      <path d="M 49.03125 39.796875 
Q 46.734375 40.875 44.453125 41.375 
Q 42.1875 41.890625 39.890625 41.890625 
Q 33.15625 41.890625 29.515625 37.5625 
Q 25.875 33.25 25.875 25.203125 
L 25.875 0 
L 8.40625 0 
L 8.40625 54.6875 
L 25.875 54.6875 
L 25.875 45.703125 
Q 29.25 51.078125 33.609375 53.53125 
Q 37.984375 56 44.09375 56 
Q 44.96875 56 45.984375 55.921875 
Q 47.015625 55.859375 48.96875 55.609375 
z
" id="DejaVuSans-Bold-114"/>
      <path d="M 1.515625 54.6875 
L 19 54.6875 
L 32.625 16.890625 
L 46.1875 54.6875 
L 63.71875 54.6875 
L 42.1875 0 
L 23 0 
z
" id="DejaVuSans-Bold-118"/>
      <path d="M 45.609375 46.6875 
L 45.609375 75.984375 
L 63.1875 75.984375 
L 63.1875 0 
L 45.609375 0 
L 45.609375 7.90625 
Q 42 3.078125 37.640625 0.828125 
Q 33.296875 -1.421875 27.59375 -1.421875 
Q 17.484375 -1.421875 10.984375 6.609375 
Q 4.5 14.65625 4.5 27.296875 
Q 4.5 39.9375 10.984375 47.96875 
Q 17.484375 56 27.59375 56 
Q 33.25 56 37.625 53.734375 
Q 42 51.46875 45.609375 46.6875 
z
M 34.078125 11.28125 
Q 39.703125 11.28125 42.65625 15.375 
Q 45.609375 19.484375 45.609375 27.296875 
Q 45.609375 35.109375 42.65625 39.203125 
Q 39.703125 43.3125 34.078125 43.3125 
Q 28.515625 43.3125 25.5625 39.203125 
Q 22.609375 35.109375 22.609375 27.296875 
Q 22.609375 19.484375 25.5625 15.375 
Q 28.515625 11.28125 34.078125 11.28125 
z
" id="DejaVuSans-Bold-100"/>
      <path d="M 63.375 33.296875 
L 63.375 0 
L 45.796875 0 
L 45.796875 5.421875 
L 45.796875 25.484375 
Q 45.796875 32.5625 45.484375 35.25 
Q 45.171875 37.9375 44.390625 39.203125 
Q 43.359375 40.921875 41.59375 41.875 
Q 39.84375 42.828125 37.59375 42.828125 
Q 32.125 42.828125 29 38.59375 
Q 25.875 34.375 25.875 26.90625 
L 25.875 0 
L 8.40625 0 
L 8.40625 54.6875 
L 25.875 54.6875 
L 25.875 46.6875 
Q 29.828125 51.46875 34.265625 53.734375 
Q 38.71875 56 44.09375 56 
Q 53.5625 56 58.46875 50.1875 
Q 63.375 44.390625 63.375 33.296875 
z
" id="DejaVuSans-Bold-110"/>
      <path d="M 45.609375 9.28125 
Q 42 4.5 37.640625 2.25 
Q 33.296875 0 27.59375 0 
Q 17.578125 0 11.03125 7.875 
Q 4.5 15.765625 4.5 27.984375 
Q 4.5 40.234375 11.03125 48.0625 
Q 17.578125 55.90625 27.59375 55.90625 
Q 33.296875 55.90625 37.640625 53.65625 
Q 42 51.421875 45.609375 46.578125 
L 45.609375 54.6875 
L 63.1875 54.6875 
L 63.1875 5.515625 
Q 63.1875 -7.671875 54.859375 -14.625 
Q 46.53125 -21.578125 30.71875 -21.578125 
Q 25.59375 -21.578125 20.796875 -20.796875 
Q 16.015625 -20.015625 11.1875 -18.40625 
L 11.1875 -4.78125 
Q 15.765625 -7.421875 20.15625 -8.71875 
Q 24.5625 -10.015625 29 -10.015625 
Q 37.59375 -10.015625 41.59375 -6.25 
Q 45.609375 -2.484375 45.609375 5.515625 
z
M 34.078125 43.3125 
Q 28.65625 43.3125 25.625 39.296875 
Q 22.609375 35.296875 22.609375 27.984375 
Q 22.609375 20.453125 25.53125 16.578125 
Q 28.46875 12.703125 34.078125 12.703125 
Q 39.546875 12.703125 42.578125 16.703125 
Q 45.609375 20.703125 45.609375 27.984375 
Q 45.609375 35.296875 42.578125 39.296875 
Q 39.546875 43.3125 34.078125 43.3125 
z
" id="DejaVuSans-Bold-103"/>
      <path d="M 8.015625 -13.1875 
Q 14.265625 -1.5625 17.390625 9.515625 
Q 20.515625 20.609375 20.515625 31.390625 
Q 20.515625 42.1875 17.390625 53.25 
Q 14.265625 64.3125 8.015625 75.875 
L 22.515625 75.875 
Q 29.9375 63.921875 33.515625 52.953125 
Q 37.109375 42 37.109375 31.296875 
Q 37.109375 20.609375 33.546875 9.734375 
Q 29.984375 -1.125 22.515625 -13.1875 
z
" id="DejaVuSans-Bold-41"/>
     </defs>
     <use xlink:href="#DejaVuSans-Bold-65"/>
     <use x="77.392578" xlink:href="#DejaVuSans-Bold-120"/>
     <use x="141.894531" xlink:href="#DejaVuSans-Bold-105"/>
     <use x="176.171875" xlink:href="#DejaVuSans-Bold-115"/>
     <use x="235.693359" xlink:href="#DejaVuSans-Bold-32"/>
     <use x="270.507812" xlink:href="#DejaVuSans-Bold-40"/>
     <use x="316.210938" xlink:href="#DejaVuSans-Bold-114"/>
     <use x="365.527344" xlink:href="#DejaVuSans-Bold-101"/>
     <use x="433.349609" xlink:href="#DejaVuSans-Bold-118"/>
     <use x="498.535156" xlink:href="#DejaVuSans-Bold-101"/>
     <use x="566.357422" xlink:href="#DejaVuSans-Bold-114"/>
     <use x="615.673828" xlink:href="#DejaVuSans-Bold-115"/>
     <use x="675.195312" xlink:href="#DejaVuSans-Bold-101"/>
     <use x="743.017578" xlink:href="#DejaVuSans-Bold-100"/>
     <use x="814.599609" xlink:href="#DejaVuSans-Bold-32"/>
     <use x="849.414062" xlink:href="#DejaVuSans-Bold-111"/>
     <use x="918.115234" xlink:href="#DejaVuSans-Bold-114"/>
     <use x="967.431641" xlink:href="#DejaVuSans-Bold-100"/>
     <use x="1039.013672" xlink:href="#DejaVuSans-Bold-101"/>
     <use x="1106.835938" xlink:href="#DejaVuSans-Bold-114"/>
     <use x="1156.152344" xlink:href="#DejaVuSans-Bold-32"/>
     <use x="1190.966797" xlink:href="#DejaVuSans-Bold-97"/>
     <use x="1258.447266" xlink:href="#DejaVuSans-Bold-110"/>
     <use x="1329.638672" xlink:href="#DejaVuSans-Bold-100"/>
     <use x="1401.220703" xlink:href="#DejaVuSans-Bold-32"/>
     <use x="1436.035156" xlink:href="#DejaVuSans-Bold-103"/>
     <use x="1507.617188" xlink:href="#DejaVuSans-Bold-114"/>
     <use x="1556.933594" xlink:href="#DejaVuSans-Bold-105"/>
     <use x="1591.210938" xlink:href="#DejaVuSans-Bold-100"/>
     <use x="1662.792969" xlink:href="#DejaVuSans-Bold-41"/>
    </g>
   </g>
   <g id="legend_2">
    <g id="patch_13">
     <path d="M 531.375781 57.878437 
L 589.5 57.878437 
Q 592.1 57.878437 592.1 55.278437 
L 592.1 37.496875 
Q 592.1 34.896875 589.5 34.896875 
L 531.375781 34.896875 
Q 528.775781 34.896875 528.775781 37.496875 
L 528.775781 55.278437 
Q 528.775781 57.878437 531.375781 57.878437 
z
" style="fill:#ffffff;opacity:0.8;stroke:#cccccc;stroke-linejoin:miter;"/>
    </g>
    <g id="line2d_39">
     <path d="M 533.975781 45.424844 
L 559.975781 45.424844 
" style="fill:none;stroke:#000000;stroke-linecap:square;stroke-width:2;"/>
    </g>
    <g id="line2d_40">
     <g>
      <use style="stroke:#000000;stroke-linejoin:miter;" x="546.975781" xlink:href="#mb0940aedea" y="45.424844"/>
     </g>
    </g>
    <g id="text_26">
     <!-- S1 -->
     <g transform="translate(570.375781 49.974844)scale(0.13 -0.13)">
      <use xlink:href="#DejaVuSans-83"/>
      <use x="63.476562" xlink:href="#DejaVuSans-49"/>
     </g>
    </g>
   </g>
  </g>
  <g id="axes_3">
   <g id="patch_14">
    <path d="M 40.6 582.796875 
L 283.208696 582.796875 
L 283.208696 341.753397 
L 40.6 341.753397 
z
" style="fill:#ffffff;"/>
   </g>
   <g id="matplotlib.axis_5">
    <g id="xtick_12">
     <g id="line2d_41">
      <path clip-path="url(#pd2701a5b59)" d="M 40.6 582.796875 
L 40.6 341.753397 
" style="fill:none;stroke:#b0b0b0;stroke-linecap:square;stroke-width:0.8;"/>
     </g>
     <g id="line2d_42">
      <defs>
       <path d="M 0 0 
L 0 3.5 
" id="m4f869f6ffc" style="stroke:#000000;stroke-width:4;"/>
      </defs>
      <g>
       <use style="stroke:#000000;stroke-width:4;" x="40.6" xlink:href="#m4f869f6ffc" y="582.796875"/>
      </g>
     </g>
     <g id="text_27">
      <!-- $\mathdefault{10^{-1}}$ -->
      <g transform="translate(22.975 601.194531)scale(0.15 -0.15)">
       <defs>
        <path d="M 10.59375 35.5 
L 73.1875 35.5 
L 73.1875 27.203125 
L 10.59375 27.203125 
z
" id="DejaVuSans-8722"/>
       </defs>
       <use transform="translate(0 0.684375)" xlink:href="#DejaVuSans-49"/>
       <use transform="translate(63.623047 0.684375)" xlink:href="#DejaVuSans-48"/>
       <use transform="translate(128.203125 38.965625)scale(0.7)" xlink:href="#DejaVuSans-8722"/>
       <use transform="translate(186.855469 38.965625)scale(0.7)" xlink:href="#DejaVuSans-49"/>
      </g>
     </g>
    </g>
    <g id="xtick_13">
     <g id="line2d_43">
      <path clip-path="url(#pd2701a5b59)" d="M 161.904348 582.796875 
L 161.904348 341.753397 
" style="fill:none;stroke:#b0b0b0;stroke-linecap:square;stroke-width:0.8;"/>
     </g>
     <g id="line2d_44">
      <g>
       <use style="stroke:#000000;stroke-width:4;" x="161.904348" xlink:href="#m4f869f6ffc" y="582.796875"/>
      </g>
     </g>
     <g id="text_28">
      <!-- $\mathdefault{10^{0}}$ -->
      <g transform="translate(148.704348 601.194531)scale(0.15 -0.15)">
       <use transform="translate(0 0.765625)" xlink:href="#DejaVuSans-49"/>
       <use transform="translate(63.623047 0.765625)" xlink:href="#DejaVuSans-48"/>
       <use transform="translate(128.203125 39.046875)scale(0.7)" xlink:href="#DejaVuSans-48"/>
      </g>
     </g>
    </g>
    <g id="xtick_14">
     <g id="line2d_45">
      <path clip-path="url(#pd2701a5b59)" d="M 283.208696 582.796875 
L 283.208696 341.753397 
" style="fill:none;stroke:#b0b0b0;stroke-linecap:square;stroke-width:0.8;"/>
     </g>
     <g id="line2d_46">
      <g>
       <use style="stroke:#000000;stroke-width:4;" x="283.208696" xlink:href="#m4f869f6ffc" y="582.796875"/>
      </g>
     </g>
     <g id="text_29">
      <!-- $\mathdefault{10^{1}}$ -->
      <g transform="translate(270.008696 601.194531)scale(0.15 -0.15)">
       <use transform="translate(0 0.684375)" xlink:href="#DejaVuSans-49"/>
       <use transform="translate(63.623047 0.684375)" xlink:href="#DejaVuSans-48"/>
       <use transform="translate(128.203125 38.965625)scale(0.7)" xlink:href="#DejaVuSans-49"/>
      </g>
     </g>
    </g>
    <g id="xtick_15">
     <g id="line2d_47">
      <defs>
       <path d="M 0 0 
L 0 2 
" id="m169e208d2a" style="stroke:#000000;stroke-width:0.6;"/>
      </defs>
      <g>
       <use style="stroke:#000000;stroke-width:0.6;" x="77.116247" xlink:href="#m169e208d2a" y="582.796875"/>
      </g>
     </g>
    </g>
    <g id="xtick_16">
     <g id="line2d_48">
      <g>
       <use style="stroke:#000000;stroke-width:0.6;" x="98.476883" xlink:href="#m169e208d2a" y="582.796875"/>
      </g>
     </g>
    </g>
    <g id="xtick_17">
     <g id="line2d_49">
      <g>
       <use style="stroke:#000000;stroke-width:0.6;" x="113.632495" xlink:href="#m169e208d2a" y="582.796875"/>
      </g>
     </g>
    </g>
    <g id="xtick_18">
     <g id="line2d_50">
      <g>
       <use style="stroke:#000000;stroke-width:0.6;" x="125.388101" xlink:href="#m169e208d2a" y="582.796875"/>
      </g>
     </g>
    </g>
    <g id="xtick_19">
     <g id="line2d_51">
      <g>
       <use style="stroke:#000000;stroke-width:0.6;" x="134.99313" xlink:href="#m169e208d2a" y="582.796875"/>
      </g>
     </g>
    </g>
    <g id="xtick_20">
     <g id="line2d_52">
      <g>
       <use style="stroke:#000000;stroke-width:0.6;" x="143.114067" xlink:href="#m169e208d2a" y="582.796875"/>
      </g>
     </g>
    </g>
    <g id="xtick_21">
     <g id="line2d_53">
      <g>
       <use style="stroke:#000000;stroke-width:0.6;" x="150.148742" xlink:href="#m169e208d2a" y="582.796875"/>
      </g>
     </g>
    </g>
    <g id="xtick_22">
     <g id="line2d_54">
      <g>
       <use style="stroke:#000000;stroke-width:0.6;" x="156.353765" xlink:href="#m169e208d2a" y="582.796875"/>
      </g>
     </g>
    </g>
    <g id="xtick_23">
     <g id="line2d_55">
      <g>
       <use style="stroke:#000000;stroke-width:0.6;" x="198.420595" xlink:href="#m169e208d2a" y="582.796875"/>
      </g>
     </g>
    </g>
    <g id="xtick_24">
     <g id="line2d_56">
      <g>
       <use style="stroke:#000000;stroke-width:0.6;" x="219.78123" xlink:href="#m169e208d2a" y="582.796875"/>
      </g>
     </g>
    </g>
    <g id="xtick_25">
     <g id="line2d_57">
      <g>
       <use style="stroke:#000000;stroke-width:0.6;" x="234.936842" xlink:href="#m169e208d2a" y="582.796875"/>
      </g>
     </g>
    </g>
    <g id="xtick_26">
     <g id="line2d_58">
      <g>
       <use style="stroke:#000000;stroke-width:0.6;" x="246.692448" xlink:href="#m169e208d2a" y="582.796875"/>
      </g>
     </g>
    </g>
    <g id="xtick_27">
     <g id="line2d_59">
      <g>
       <use style="stroke:#000000;stroke-width:0.6;" x="256.297478" xlink:href="#m169e208d2a" y="582.796875"/>
      </g>
     </g>
    </g>
    <g id="xtick_28">
     <g id="line2d_60">
      <g>
       <use style="stroke:#000000;stroke-width:0.6;" x="264.418414" xlink:href="#m169e208d2a" y="582.796875"/>
      </g>
     </g>
    </g>
    <g id="xtick_29">
     <g id="line2d_61">
      <g>
       <use style="stroke:#000000;stroke-width:0.6;" x="271.45309" xlink:href="#m169e208d2a" y="582.796875"/>
      </g>
     </g>
    </g>
    <g id="xtick_30">
     <g id="line2d_62">
      <g>
       <use style="stroke:#000000;stroke-width:0.6;" x="277.658113" xlink:href="#m169e208d2a" y="582.796875"/>
      </g>
     </g>
    </g>
   </g>
   <g id="matplotlib.axis_6">
    <g id="ytick_12">
     <g id="line2d_63">
      <path clip-path="url(#pd2701a5b59)" d="M 40.6 520.898743 
L 283.208696 520.898743 
" style="fill:none;stroke:#b0b0b0;stroke-linecap:square;stroke-width:0.8;"/>
     </g>
     <g id="line2d_64">
      <defs>
       <path d="M 0 0 
L -3.5 0 
" id="m4eb2bcfcb4" style="stroke:#000000;stroke-width:4;"/>
      </defs>
      <g>
       <use style="stroke:#000000;stroke-width:4;" x="40.6" xlink:href="#m4eb2bcfcb4" y="520.898743"/>
      </g>
     </g>
     <g id="text_30">
      <!-- $\mathdefault{10^{0}}$ -->
      <g transform="translate(7.2 526.597571)scale(0.15 -0.15)">
       <use transform="translate(0 0.765625)" xlink:href="#DejaVuSans-49"/>
       <use transform="translate(63.623047 0.765625)" xlink:href="#DejaVuSans-48"/>
       <use transform="translate(128.203125 39.046875)scale(0.7)" xlink:href="#DejaVuSans-48"/>
      </g>
     </g>
    </g>
    <g id="ytick_13">
     <g id="line2d_65">
      <path clip-path="url(#pd2701a5b59)" d="M 40.6 352.709918 
L 283.208696 352.709918 
" style="fill:none;stroke:#b0b0b0;stroke-linecap:square;stroke-width:0.8;"/>
     </g>
     <g id="line2d_66">
      <g>
       <use style="stroke:#000000;stroke-width:4;" x="40.6" xlink:href="#m4eb2bcfcb4" y="352.709918"/>
      </g>
     </g>
     <g id="text_31">
      <!-- $\mathdefault{10^{1}}$ -->
      <g transform="translate(7.2 358.408747)scale(0.15 -0.15)">
       <use transform="translate(0 0.684375)" xlink:href="#DejaVuSans-49"/>
       <use transform="translate(63.623047 0.684375)" xlink:href="#DejaVuSans-48"/>
       <use transform="translate(128.203125 38.965625)scale(0.7)" xlink:href="#DejaVuSans-49"/>
      </g>
     </g>
    </g>
    <g id="ytick_14">
     <g id="line2d_67">
      <defs>
       <path d="M 0 0 
L -2 0 
" id="mf63028193f" style="stroke:#000000;stroke-width:0.6;"/>
      </defs>
      <g>
       <use style="stroke:#000000;stroke-width:0.6;" x="40.6" xlink:href="#mf63028193f" y="571.528624"/>
      </g>
     </g>
    </g>
    <g id="ytick_15">
     <g id="line2d_68">
      <g>
       <use style="stroke:#000000;stroke-width:0.6;" x="40.6" xlink:href="#mf63028193f" y="558.211223"/>
      </g>
     </g>
    </g>
    <g id="ytick_16">
     <g id="line2d_69">
      <g>
       <use style="stroke:#000000;stroke-width:0.6;" x="40.6" xlink:href="#mf63028193f" y="546.951521"/>
      </g>
     </g>
    </g>
    <g id="ytick_17">
     <g id="line2d_70">
      <g>
       <use style="stroke:#000000;stroke-width:0.6;" x="40.6" xlink:href="#mf63028193f" y="537.197924"/>
      </g>
     </g>
    </g>
    <g id="ytick_18">
     <g id="line2d_71">
      <g>
       <use style="stroke:#000000;stroke-width:0.6;" x="40.6" xlink:href="#mf63028193f" y="528.594641"/>
      </g>
     </g>
    </g>
    <g id="ytick_19">
     <g id="line2d_72">
      <g>
       <use style="stroke:#000000;stroke-width:0.6;" x="40.6" xlink:href="#mf63028193f" y="470.268862"/>
      </g>
     </g>
    </g>
    <g id="ytick_20">
     <g id="line2d_73">
      <g>
       <use style="stroke:#000000;stroke-width:0.6;" x="40.6" xlink:href="#mf63028193f" y="440.65228"/>
      </g>
     </g>
    </g>
    <g id="ytick_21">
     <g id="line2d_74">
      <g>
       <use style="stroke:#000000;stroke-width:0.6;" x="40.6" xlink:href="#mf63028193f" y="419.638981"/>
      </g>
     </g>
    </g>
    <g id="ytick_22">
     <g id="line2d_75">
      <g>
       <use style="stroke:#000000;stroke-width:0.6;" x="40.6" xlink:href="#mf63028193f" y="403.339799"/>
      </g>
     </g>
    </g>
    <g id="ytick_23">
     <g id="line2d_76">
      <g>
       <use style="stroke:#000000;stroke-width:0.6;" x="40.6" xlink:href="#mf63028193f" y="390.022399"/>
      </g>
     </g>
    </g>
    <g id="ytick_24">
     <g id="line2d_77">
      <g>
       <use style="stroke:#000000;stroke-width:0.6;" x="40.6" xlink:href="#mf63028193f" y="378.762697"/>
      </g>
     </g>
    </g>
    <g id="ytick_25">
     <g id="line2d_78">
      <g>
       <use style="stroke:#000000;stroke-width:0.6;" x="40.6" xlink:href="#mf63028193f" y="369.0091"/>
      </g>
     </g>
    </g>
    <g id="ytick_26">
     <g id="line2d_79">
      <g>
       <use style="stroke:#000000;stroke-width:0.6;" x="40.6" xlink:href="#mf63028193f" y="360.405817"/>
      </g>
     </g>
    </g>
   </g>
   <g id="line2d_80">
    <path clip-path="url(#pd2701a5b59)" d="M -1 360.259484 
L 105.81346 360.26614 
L 142.329708 367.822362 
L 163.690343 375.378584 
L 178.845955 382.934806 
L 190.601561 390.491028 
L 200.20659 398.04725 
L 208.327527 405.603472 
L 215.362202 413.159694 
L 221.567226 420.715915 
L 227.117808 428.272137 
L 232.138921 435.828359 
L 236.722837 443.384581 
L 240.939632 450.940803 
L 244.843774 458.497025 
L 248.478443 466.053247 
L 251.878449 473.609469 
L 255.072264 481.165691 
L 258.083473 488.721912 
L 260.931832 496.278134 
L 263.634055 503.834356 
L 266.204409 511.390578 
L 268.655168 518.9468 
L 270.996967 526.503022 
L 273.239085 534.059244 
L 275.389661 541.615466 
L 277.455879 549.171688 
L 279.444108 556.727909 
L 281.360021 564.284131 
L 283.208696 571.840353 
" style="fill:none;stroke:#000000;stroke-linecap:square;stroke-width:2;"/>
    <g clip-path="url(#pd2701a5b59)">
     <use style="stroke:#000000;stroke-linejoin:miter;" x="-1" xlink:href="#mb0940aedea" y="360.259484"/>
     <use style="stroke:#000000;stroke-linejoin:miter;" x="105.81346" xlink:href="#mb0940aedea" y="360.26614"/>
     <use style="stroke:#000000;stroke-linejoin:miter;" x="142.329708" xlink:href="#mb0940aedea" y="367.822362"/>
     <use style="stroke:#000000;stroke-linejoin:miter;" x="163.690343" xlink:href="#mb0940aedea" y="375.378584"/>
     <use style="stroke:#000000;stroke-linejoin:miter;" x="178.845955" xlink:href="#mb0940aedea" y="382.934806"/>
     <use style="stroke:#000000;stroke-linejoin:miter;" x="190.601561" xlink:href="#mb0940aedea" y="390.491028"/>
     <use style="stroke:#000000;stroke-linejoin:miter;" x="200.20659" xlink:href="#mb0940aedea" y="398.04725"/>
     <use style="stroke:#000000;stroke-linejoin:miter;" x="208.327527" xlink:href="#mb0940aedea" y="405.603472"/>
     <use style="stroke:#000000;stroke-linejoin:miter;" x="215.362202" xlink:href="#mb0940aedea" y="413.159694"/>
     <use style="stroke:#000000;stroke-linejoin:miter;" x="221.567226" xlink:href="#mb0940aedea" y="420.715915"/>
     <use style="stroke:#000000;stroke-linejoin:miter;" x="227.117808" xlink:href="#mb0940aedea" y="428.272137"/>
     <use style="stroke:#000000;stroke-linejoin:miter;" x="232.138921" xlink:href="#mb0940aedea" y="435.828359"/>
     <use style="stroke:#000000;stroke-linejoin:miter;" x="236.722837" xlink:href="#mb0940aedea" y="443.384581"/>
     <use style="stroke:#000000;stroke-linejoin:miter;" x="240.939632" xlink:href="#mb0940aedea" y="450.940803"/>
     <use style="stroke:#000000;stroke-linejoin:miter;" x="244.843774" xlink:href="#mb0940aedea" y="458.497025"/>
     <use style="stroke:#000000;stroke-linejoin:miter;" x="248.478443" xlink:href="#mb0940aedea" y="466.053247"/>
     <use style="stroke:#000000;stroke-linejoin:miter;" x="251.878449" xlink:href="#mb0940aedea" y="473.609469"/>
     <use style="stroke:#000000;stroke-linejoin:miter;" x="255.072264" xlink:href="#mb0940aedea" y="481.165691"/>
     <use style="stroke:#000000;stroke-linejoin:miter;" x="258.083473" xlink:href="#mb0940aedea" y="488.721912"/>
     <use style="stroke:#000000;stroke-linejoin:miter;" x="260.931832" xlink:href="#mb0940aedea" y="496.278134"/>
     <use style="stroke:#000000;stroke-linejoin:miter;" x="263.634055" xlink:href="#mb0940aedea" y="503.834356"/>
     <use style="stroke:#000000;stroke-linejoin:miter;" x="266.204409" xlink:href="#mb0940aedea" y="511.390578"/>
     <use style="stroke:#000000;stroke-linejoin:miter;" x="268.655168" xlink:href="#mb0940aedea" y="518.9468"/>
     <use style="stroke:#000000;stroke-linejoin:miter;" x="270.996967" xlink:href="#mb0940aedea" y="526.503022"/>
     <use style="stroke:#000000;stroke-linejoin:miter;" x="273.239085" xlink:href="#mb0940aedea" y="534.059244"/>
     <use style="stroke:#000000;stroke-linejoin:miter;" x="275.389661" xlink:href="#mb0940aedea" y="541.615466"/>
     <use style="stroke:#000000;stroke-linejoin:miter;" x="277.455879" xlink:href="#mb0940aedea" y="549.171688"/>
     <use style="stroke:#000000;stroke-linejoin:miter;" x="279.444108" xlink:href="#mb0940aedea" y="556.727909"/>
     <use style="stroke:#000000;stroke-linejoin:miter;" x="281.360021" xlink:href="#mb0940aedea" y="564.284131"/>
     <use style="stroke:#000000;stroke-linejoin:miter;" x="283.208696" xlink:href="#mb0940aedea" y="571.840353"/>
    </g>
   </g>
   <g id="patch_15">
    <path d="M 40.6 582.796875 
L 40.6 341.753397 
" style="fill:none;stroke:#000000;stroke-linecap:square;stroke-linejoin:miter;stroke-width:0.8;"/>
   </g>
   <g id="patch_16">
    <path d="M 283.208696 582.796875 
L 283.208696 341.753397 
" style="fill:none;stroke:#000000;stroke-linecap:square;stroke-linejoin:miter;stroke-width:0.8;"/>
   </g>
   <g id="patch_17">
    <path d="M 40.6 582.796875 
L 283.208696 582.796875 
" style="fill:none;stroke:#ff0000;stroke-linecap:square;stroke-linejoin:miter;stroke-width:4;"/>
   </g>
   <g id="patch_18">
    <path d="M 40.6 341.753397 
L 283.208696 341.753397 
" style="fill:none;stroke:#ff0000;stroke-linecap:square;stroke-linejoin:miter;stroke-width:4;"/>
   </g>
   <g id="text_32">
    <!-- Axis (log axis and style) -->
    <g transform="translate(26.74966 335.753397)scale(0.2 -0.2)">
     <defs>
      <path d="M 8.40625 75.984375 
L 25.875 75.984375 
L 25.875 0 
L 8.40625 0 
z
" id="DejaVuSans-Bold-108"/>
      <path d="M 27.484375 70.21875 
L 27.484375 54.6875 
L 45.515625 54.6875 
L 45.515625 42.1875 
L 27.484375 42.1875 
L 27.484375 19 
Q 27.484375 15.1875 29 13.84375 
Q 30.515625 12.5 35.015625 12.5 
L 44 12.5 
L 44 0 
L 29 0 
Q 18.65625 0 14.328125 4.3125 
Q 10.015625 8.640625 10.015625 19 
L 10.015625 42.1875 
L 1.3125 42.1875 
L 1.3125 54.6875 
L 10.015625 54.6875 
L 10.015625 70.21875 
z
" id="DejaVuSans-Bold-116"/>
      <path d="M 1.21875 54.6875 
L 18.703125 54.6875 
L 33.40625 17.578125 
L 45.90625 54.6875 
L 63.375 54.6875 
L 40.375 -5.171875 
Q 36.921875 -14.3125 32.296875 -17.9375 
Q 27.6875 -21.578125 20.125 -21.578125 
L 10.015625 -21.578125 
L 10.015625 -10.109375 
L 15.484375 -10.109375 
Q 19.921875 -10.109375 21.9375 -8.6875 
Q 23.96875 -7.28125 25.09375 -3.609375 
L 25.59375 -2.09375 
z
" id="DejaVuSans-Bold-121"/>
     </defs>
     <use xlink:href="#DejaVuSans-Bold-65"/>
     <use x="77.392578" xlink:href="#DejaVuSans-Bold-120"/>
     <use x="141.894531" xlink:href="#DejaVuSans-Bold-105"/>
     <use x="176.171875" xlink:href="#DejaVuSans-Bold-115"/>
     <use x="235.693359" xlink:href="#DejaVuSans-Bold-32"/>
     <use x="270.507812" xlink:href="#DejaVuSans-Bold-40"/>
     <use x="316.210938" xlink:href="#DejaVuSans-Bold-108"/>
     <use x="350.488281" xlink:href="#DejaVuSans-Bold-111"/>
     <use x="419.189453" xlink:href="#DejaVuSans-Bold-103"/>
     <use x="490.771484" xlink:href="#DejaVuSans-Bold-32"/>
     <use x="525.585938" xlink:href="#DejaVuSans-Bold-97"/>
     <use x="593.066406" xlink:href="#DejaVuSans-Bold-120"/>
     <use x="657.568359" xlink:href="#DejaVuSans-Bold-105"/>
     <use x="691.845703" xlink:href="#DejaVuSans-Bold-115"/>
     <use x="751.367188" xlink:href="#DejaVuSans-Bold-32"/>
     <use x="786.181641" xlink:href="#DejaVuSans-Bold-97"/>
     <use x="853.662109" xlink:href="#DejaVuSans-Bold-110"/>
     <use x="924.853516" xlink:href="#DejaVuSans-Bold-100"/>
     <use x="996.435547" xlink:href="#DejaVuSans-Bold-32"/>
     <use x="1031.25" xlink:href="#DejaVuSans-Bold-115"/>
     <use x="1090.771484" xlink:href="#DejaVuSans-Bold-116"/>
     <use x="1138.574219" xlink:href="#DejaVuSans-Bold-121"/>
     <use x="1203.759766" xlink:href="#DejaVuSans-Bold-108"/>
     <use x="1238.037109" xlink:href="#DejaVuSans-Bold-101"/>
     <use x="1305.859375" xlink:href="#DejaVuSans-Bold-41"/>
    </g>
   </g>
   <g id="legend_3">
    <g id="patch_19">
     <path d="M 215.984477 371.234959 
L 274.108696 371.234959 
Q 276.708696 371.234959 276.708696 368.634959 
L 276.708696 350.853397 
Q 276.708696 348.253397 274.108696 348.253397 
L 215.984477 348.253397 
Q 213.384477 348.253397 213.384477 350.853397 
L 213.384477 368.634959 
Q 213.384477 371.234959 215.984477 371.234959 
z
" style="fill:#ffffff;opacity:0.8;stroke:#cccccc;stroke-linejoin:miter;"/>
    </g>
    <g id="line2d_81">
     <path d="M 218.584477 358.781365 
L 244.584477 358.781365 
" style="fill:none;stroke:#000000;stroke-linecap:square;stroke-width:2;"/>
    </g>
    <g id="line2d_82">
     <g>
      <use style="stroke:#000000;stroke-linejoin:miter;" x="231.584477" xlink:href="#mb0940aedea" y="358.781365"/>
     </g>
    </g>
    <g id="text_33">
     <!-- S1 -->
     <g transform="translate(254.984477 363.331365)scale(0.13 -0.13)">
      <use xlink:href="#DejaVuSans-83"/>
      <use x="63.476562" xlink:href="#DejaVuSans-49"/>
     </g>
    </g>
   </g>
  </g>
  <g id="axes_4">
   <g id="patch_20">
    <path d="M 355.991304 582.796875 
L 598.6 582.796875 
L 598.6 341.753397 
L 355.991304 341.753397 
z
" style="fill:#ffffff;"/>
   </g>
   <g id="matplotlib.axis_7">
    <g id="xtick_31">
     <g id="line2d_83">
      <g>
       <use style="stroke:#000000;stroke-width:0.8;" x="355.991304" xlink:href="#mc99b5bccbd" y="582.796875"/>
      </g>
     </g>
     <g id="text_34">
      <!-- 2 -->
      <g transform="translate(351.219429 601.194531)scale(0.15 -0.15)">
       <use xlink:href="#DejaVuSans-50"/>
      </g>
     </g>
    </g>
    <g id="xtick_32">
     <g id="line2d_84">
      <g>
       <use style="stroke:#000000;stroke-width:0.8;" x="436.86087" xlink:href="#mc99b5bccbd" y="582.796875"/>
      </g>
     </g>
     <g id="text_35">
      <!-- 4 -->
      <g transform="translate(432.088995 601.194531)scale(0.15 -0.15)">
       <use xlink:href="#DejaVuSans-52"/>
      </g>
     </g>
    </g>
    <g id="xtick_33">
     <g id="line2d_85">
      <g>
       <use style="stroke:#000000;stroke-width:0.8;" x="517.730435" xlink:href="#mc99b5bccbd" y="582.796875"/>
      </g>
     </g>
     <g id="text_36">
      <!-- 6 -->
      <g transform="translate(512.95856 601.194531)scale(0.15 -0.15)">
       <use xlink:href="#DejaVuSans-54"/>
      </g>
     </g>
    </g>
    <g id="xtick_34">
     <g id="line2d_86">
      <g>
       <use style="stroke:#000000;stroke-width:0.8;" x="598.6" xlink:href="#mc99b5bccbd" y="582.796875"/>
      </g>
     </g>
     <g id="text_37">
      <!-- 8 -->
      <g transform="translate(593.828125 601.194531)scale(0.15 -0.15)">
       <use xlink:href="#DejaVuSans-56"/>
      </g>
     </g>
    </g>
   </g>
   <g id="matplotlib.axis_8">
    <g id="ytick_27">
     <g id="line2d_87">
      <g>
       <use style="stroke:#000000;stroke-width:0.8;" x="355.991304" xlink:href="#md898f407de" y="582.796875"/>
      </g>
     </g>
     <g id="text_38">
      <!-- 0 -->
      <g transform="translate(339.447554 588.495703)scale(0.15 -0.15)">
       <use xlink:href="#DejaVuSans-48"/>
      </g>
     </g>
    </g>
    <g id="ytick_28">
     <g id="line2d_88">
      <g>
       <use style="stroke:#000000;stroke-width:0.8;" x="355.991304" xlink:href="#md898f407de" y="552.66644"/>
      </g>
     </g>
     <g id="text_39">
      <!-- 1 -->
      <g transform="translate(339.447554 558.365268)scale(0.15 -0.15)">
       <use xlink:href="#DejaVuSans-49"/>
      </g>
     </g>
    </g>
    <g id="ytick_29">
     <g id="line2d_89">
      <g>
       <use style="stroke:#000000;stroke-width:0.8;" x="355.991304" xlink:href="#md898f407de" y="522.536005"/>
      </g>
     </g>
     <g id="text_40">
      <!-- 2 -->
      <g transform="translate(339.447554 528.234834)scale(0.15 -0.15)">
       <use xlink:href="#DejaVuSans-50"/>
      </g>
     </g>
    </g>
    <g id="ytick_30">
     <g id="line2d_90">
      <g>
       <use style="stroke:#000000;stroke-width:0.8;" x="355.991304" xlink:href="#md898f407de" y="492.405571"/>
      </g>
     </g>
     <g id="text_41">
      <!-- 3 -->
      <g transform="translate(339.447554 498.104399)scale(0.15 -0.15)">
       <defs>
        <path d="M 40.578125 39.3125 
Q 47.65625 37.796875 51.625 33 
Q 55.609375 28.21875 55.609375 21.1875 
Q 55.609375 10.40625 48.1875 4.484375 
Q 40.765625 -1.421875 27.09375 -1.421875 
Q 22.515625 -1.421875 17.65625 -0.515625 
Q 12.796875 0.390625 7.625 2.203125 
L 7.625 11.71875 
Q 11.71875 9.328125 16.59375 8.109375 
Q 21.484375 6.890625 26.8125 6.890625 
Q 36.078125 6.890625 40.9375 10.546875 
Q 45.796875 14.203125 45.796875 21.1875 
Q 45.796875 27.640625 41.28125 31.265625 
Q 36.765625 34.90625 28.71875 34.90625 
L 20.21875 34.90625 
L 20.21875 43.015625 
L 29.109375 43.015625 
Q 36.375 43.015625 40.234375 45.921875 
Q 44.09375 48.828125 44.09375 54.296875 
Q 44.09375 59.90625 40.109375 62.90625 
Q 36.140625 65.921875 28.71875 65.921875 
Q 24.65625 65.921875 20.015625 65.03125 
Q 15.375 64.15625 9.8125 62.3125 
L 9.8125 71.09375 
Q 15.4375 72.65625 20.34375 73.4375 
Q 25.25 74.21875 29.59375 74.21875 
Q 40.828125 74.21875 47.359375 69.109375 
Q 53.90625 64.015625 53.90625 55.328125 
Q 53.90625 49.265625 50.4375 45.09375 
Q 46.96875 40.921875 40.578125 39.3125 
z
" id="DejaVuSans-51"/>
       </defs>
       <use xlink:href="#DejaVuSans-51"/>
      </g>
     </g>
    </g>
    <g id="ytick_31">
     <g id="line2d_91">
      <g>
       <use style="stroke:#000000;stroke-width:0.8;" x="355.991304" xlink:href="#md898f407de" y="462.275136"/>
      </g>
     </g>
     <g id="text_42">
      <!-- 4 -->
      <g transform="translate(339.447554 467.973964)scale(0.15 -0.15)">
       <use xlink:href="#DejaVuSans-52"/>
      </g>
     </g>
    </g>
    <g id="ytick_32">
     <g id="line2d_92">
      <g>
       <use style="stroke:#000000;stroke-width:0.8;" x="355.991304" xlink:href="#md898f407de" y="432.144701"/>
      </g>
     </g>
     <g id="text_43">
      <!-- 5 -->
      <g transform="translate(339.447554 437.843529)scale(0.15 -0.15)">
       <use xlink:href="#DejaVuSans-53"/>
      </g>
     </g>
    </g>
    <g id="ytick_33">
     <g id="line2d_93">
      <g>
       <use style="stroke:#000000;stroke-width:0.8;" x="355.991304" xlink:href="#md898f407de" y="402.014266"/>
      </g>
     </g>
     <g id="text_44">
      <!-- 6 -->
      <g transform="translate(339.447554 407.713094)scale(0.15 -0.15)">
       <use xlink:href="#DejaVuSans-54"/>
      </g>
     </g>
    </g>
    <g id="ytick_34">
     <g id="line2d_94">
      <g>
       <use style="stroke:#000000;stroke-width:0.8;" x="355.991304" xlink:href="#md898f407de" y="371.883832"/>
      </g>
     </g>
     <g id="text_45">
      <!-- 7 -->
      <g transform="translate(339.447554 377.58266)scale(0.15 -0.15)">
       <use xlink:href="#DejaVuSans-55"/>
      </g>
     </g>
    </g>
    <g id="ytick_35">
     <g id="line2d_95">
      <g>
       <use style="stroke:#000000;stroke-width:0.8;" x="355.991304" xlink:href="#md898f407de" y="341.753397"/>
      </g>
     </g>
     <g id="text_46">
      <!-- 8 -->
      <g transform="translate(339.447554 347.452225)scale(0.15 -0.15)">
       <use xlink:href="#DejaVuSans-56"/>
      </g>
     </g>
    </g>
   </g>
   <g id="line2d_96">
    <path clip-path="url(#pb70ec91ed1)" d="M 275.121739 281.492527 
L 289.064768 311.103916 
L 303.007796 337.805177 
L 316.950825 361.882309 
L 330.893853 383.593204 
L 344.836882 403.170411 
L 358.77991 420.823621 
L 372.722939 436.741921 
L 386.665967 451.095813 
L 400.608996 464.039043 
L 414.552024 475.710247 
L 428.495052 486.234435 
L 442.438081 495.724335 
L 456.381109 504.281592 
L 470.324138 511.997865 
L 484.267166 518.955803 
L 498.210195 525.229934 
L 512.153223 530.88746 
L 526.096252 535.988979 
L 540.03928 540.589134 
L 553.982309 544.737199 
L 567.925337 548.477602 
L 581.868366 551.850409 
L 595.811394 554.891745 
L 609.754423 557.634187 
L 623.697451 560.107109 
L 637.64048 562.336999 
L 651.583508 564.347741 
L 665.526537 566.160873 
L 679.147215 567.758016 
" style="fill:none;stroke:#000000;stroke-linecap:square;stroke-width:2;"/>
    <g clip-path="url(#pb70ec91ed1)">
     <use style="stroke:#000000;stroke-linejoin:miter;" x="275.121739" xlink:href="#mb0940aedea" y="281.492527"/>
     <use style="stroke:#000000;stroke-linejoin:miter;" x="289.064768" xlink:href="#mb0940aedea" y="311.103916"/>
     <use style="stroke:#000000;stroke-linejoin:miter;" x="303.007796" xlink:href="#mb0940aedea" y="337.805177"/>
     <use style="stroke:#000000;stroke-linejoin:miter;" x="316.950825" xlink:href="#mb0940aedea" y="361.882309"/>
     <use style="stroke:#000000;stroke-linejoin:miter;" x="330.893853" xlink:href="#mb0940aedea" y="383.593204"/>
     <use style="stroke:#000000;stroke-linejoin:miter;" x="344.836882" xlink:href="#mb0940aedea" y="403.170411"/>
     <use style="stroke:#000000;stroke-linejoin:miter;" x="358.77991" xlink:href="#mb0940aedea" y="420.823621"/>
     <use style="stroke:#000000;stroke-linejoin:miter;" x="372.722939" xlink:href="#mb0940aedea" y="436.741921"/>
     <use style="stroke:#000000;stroke-linejoin:miter;" x="386.665967" xlink:href="#mb0940aedea" y="451.095813"/>
     <use style="stroke:#000000;stroke-linejoin:miter;" x="400.608996" xlink:href="#mb0940aedea" y="464.039043"/>
     <use style="stroke:#000000;stroke-linejoin:miter;" x="414.552024" xlink:href="#mb0940aedea" y="475.710247"/>
     <use style="stroke:#000000;stroke-linejoin:miter;" x="428.495052" xlink:href="#mb0940aedea" y="486.234435"/>
     <use style="stroke:#000000;stroke-linejoin:miter;" x="442.438081" xlink:href="#mb0940aedea" y="495.724335"/>
     <use style="stroke:#000000;stroke-linejoin:miter;" x="456.381109" xlink:href="#mb0940aedea" y="504.281592"/>
     <use style="stroke:#000000;stroke-linejoin:miter;" x="470.324138" xlink:href="#mb0940aedea" y="511.997865"/>
     <use style="stroke:#000000;stroke-linejoin:miter;" x="484.267166" xlink:href="#mb0940aedea" y="518.955803"/>
     <use style="stroke:#000000;stroke-linejoin:miter;" x="498.210195" xlink:href="#mb0940aedea" y="525.229934"/>
     <use style="stroke:#000000;stroke-linejoin:miter;" x="512.153223" xlink:href="#mb0940aedea" y="530.88746"/>
     <use style="stroke:#000000;stroke-linejoin:miter;" x="526.096252" xlink:href="#mb0940aedea" y="535.988979"/>
     <use style="stroke:#000000;stroke-linejoin:miter;" x="540.03928" xlink:href="#mb0940aedea" y="540.589134"/>
     <use style="stroke:#000000;stroke-linejoin:miter;" x="553.982309" xlink:href="#mb0940aedea" y="544.737199"/>
     <use style="stroke:#000000;stroke-linejoin:miter;" x="567.925337" xlink:href="#mb0940aedea" y="548.477602"/>
     <use style="stroke:#000000;stroke-linejoin:miter;" x="581.868366" xlink:href="#mb0940aedea" y="551.850409"/>
     <use style="stroke:#000000;stroke-linejoin:miter;" x="595.811394" xlink:href="#mb0940aedea" y="554.891745"/>
     <use style="stroke:#000000;stroke-linejoin:miter;" x="609.754423" xlink:href="#mb0940aedea" y="557.634187"/>
     <use style="stroke:#000000;stroke-linejoin:miter;" x="623.697451" xlink:href="#mb0940aedea" y="560.107109"/>
     <use style="stroke:#000000;stroke-linejoin:miter;" x="637.64048" xlink:href="#mb0940aedea" y="562.336999"/>
     <use style="stroke:#000000;stroke-linejoin:miter;" x="651.583508" xlink:href="#mb0940aedea" y="564.347741"/>
     <use style="stroke:#000000;stroke-linejoin:miter;" x="665.526537" xlink:href="#mb0940aedea" y="566.160873"/>
     <use style="stroke:#000000;stroke-linejoin:miter;" x="679.469565" xlink:href="#mb0940aedea" y="567.795815"/>
    </g>
   </g>
   <g id="patch_21">
    <path d="M 355.991304 582.796875 
L 355.991304 341.753397 
" style="fill:none;stroke:#000000;stroke-linecap:square;stroke-linejoin:miter;stroke-width:0.8;"/>
   </g>
   <g id="patch_22">
    <path d="M 598.6 582.796875 
L 598.6 341.753397 
" style="fill:none;stroke:#000000;stroke-linecap:square;stroke-linejoin:miter;stroke-width:0.8;"/>
   </g>
   <g id="patch_23">
    <path d="M 355.991304 582.796875 
L 598.6 582.796875 
" style="fill:none;stroke:#ffffff;stroke-linecap:square;stroke-linejoin:miter;stroke-width:0.8;"/>
   </g>
   <g id="patch_24">
    <path d="M 355.991304 341.753397 
L 598.6 341.753397 
" style="fill:none;stroke:#ffffff;stroke-linecap:square;stroke-linejoin:miter;stroke-width:0.8;"/>
   </g>
   <g id="text_47">
    <!-- Axis (hidden, no legend, min/max) -->
    <g transform="translate(283.64409 335.753397)scale(0.2 -0.2)">
     <defs>
      <path d="M 63.375 33.296875 
L 63.375 0 
L 45.796875 0 
L 45.796875 5.421875 
L 45.796875 25.390625 
Q 45.796875 32.5625 45.484375 35.25 
Q 45.171875 37.9375 44.390625 39.203125 
Q 43.359375 40.921875 41.59375 41.875 
Q 39.84375 42.828125 37.59375 42.828125 
Q 32.125 42.828125 29 38.59375 
Q 25.875 34.375 25.875 26.90625 
L 25.875 0 
L 8.40625 0 
L 8.40625 75.984375 
L 25.875 75.984375 
L 25.875 46.6875 
Q 29.828125 51.46875 34.265625 53.734375 
Q 38.71875 56 44.09375 56 
Q 53.5625 56 58.46875 50.1875 
Q 63.375 44.390625 63.375 33.296875 
z
" id="DejaVuSans-Bold-104"/>
      <path d="M 10.203125 18.890625 
L 27.78125 18.890625 
L 27.78125 4 
L 15.71875 -14.203125 
L 5.328125 -14.203125 
L 10.203125 4 
z
" id="DejaVuSans-Bold-44"/>
      <path d="M 59.078125 45.609375 
Q 62.40625 50.6875 66.96875 53.34375 
Q 71.53125 56 77 56 
Q 86.421875 56 91.359375 50.1875 
Q 96.296875 44.390625 96.296875 33.296875 
L 96.296875 0 
L 78.71875 0 
L 78.71875 28.515625 
Q 78.765625 29.15625 78.78125 29.828125 
Q 78.8125 30.515625 78.8125 31.78125 
Q 78.8125 37.59375 77.09375 40.203125 
Q 75.390625 42.828125 71.578125 42.828125 
Q 66.609375 42.828125 63.890625 38.71875 
Q 61.1875 34.625 61.078125 26.859375 
L 61.078125 0 
L 43.5 0 
L 43.5 28.515625 
Q 43.5 37.59375 41.9375 40.203125 
Q 40.375 42.828125 36.375 42.828125 
Q 31.34375 42.828125 28.609375 38.703125 
Q 25.875 34.578125 25.875 26.90625 
L 25.875 0 
L 8.296875 0 
L 8.296875 54.6875 
L 25.875 54.6875 
L 25.875 46.6875 
Q 29.109375 51.3125 33.28125 53.65625 
Q 37.453125 56 42.484375 56 
Q 48.140625 56 52.484375 53.265625 
Q 56.84375 50.53125 59.078125 45.609375 
z
" id="DejaVuSans-Bold-109"/>
      <path d="M 25.6875 72.90625 
L 36.53125 72.90625 
L 10.796875 -9.28125 
L 0 -9.28125 
z
" id="DejaVuSans-Bold-47"/>
     </defs>
     <use xlink:href="#DejaVuSans-Bold-65"/>
     <use x="77.392578" xlink:href="#DejaVuSans-Bold-120"/>
     <use x="141.894531" xlink:href="#DejaVuSans-Bold-105"/>
     <use x="176.171875" xlink:href="#DejaVuSans-Bold-115"/>
     <use x="235.693359" xlink:href="#DejaVuSans-Bold-32"/>
     <use x="270.507812" xlink:href="#DejaVuSans-Bold-40"/>
     <use x="316.210938" xlink:href="#DejaVuSans-Bold-104"/>
     <use x="387.402344" xlink:href="#DejaVuSans-Bold-105"/>
     <use x="421.679688" xlink:href="#DejaVuSans-Bold-100"/>
     <use x="493.261719" xlink:href="#DejaVuSans-Bold-100"/>
     <use x="564.84375" xlink:href="#DejaVuSans-Bold-101"/>
     <use x="632.666016" xlink:href="#DejaVuSans-Bold-110"/>
     <use x="703.857422" xlink:href="#DejaVuSans-Bold-44"/>
     <use x="741.845703" xlink:href="#DejaVuSans-Bold-32"/>
     <use x="776.660156" xlink:href="#DejaVuSans-Bold-110"/>
     <use x="847.851562" xlink:href="#DejaVuSans-Bold-111"/>
     <use x="916.552734" xlink:href="#DejaVuSans-Bold-32"/>
     <use x="951.367188" xlink:href="#DejaVuSans-Bold-108"/>
     <use x="985.644531" xlink:href="#DejaVuSans-Bold-101"/>
     <use x="1053.466797" xlink:href="#DejaVuSans-Bold-103"/>
     <use x="1125.048828" xlink:href="#DejaVuSans-Bold-101"/>
     <use x="1192.871094" xlink:href="#DejaVuSans-Bold-110"/>
     <use x="1264.0625" xlink:href="#DejaVuSans-Bold-100"/>
     <use x="1335.644531" xlink:href="#DejaVuSans-Bold-44"/>
     <use x="1373.632812" xlink:href="#DejaVuSans-Bold-32"/>
     <use x="1408.447266" xlink:href="#DejaVuSans-Bold-109"/>
     <use x="1512.646484" xlink:href="#DejaVuSans-Bold-105"/>
     <use x="1546.923828" xlink:href="#DejaVuSans-Bold-110"/>
     <use x="1618.115234" xlink:href="#DejaVuSans-Bold-47"/>
     <use x="1654.638672" xlink:href="#DejaVuSans-Bold-109"/>
     <use x="1758.837891" xlink:href="#DejaVuSans-Bold-97"/>
     <use x="1826.318359" xlink:href="#DejaVuSans-Bold-120"/>
     <use x="1890.820312" xlink:href="#DejaVuSans-Bold-41"/>
    </g>
   </g>
  </g>
 </g>
 <defs>
  <clipPath id="pa301e921a7">
   <rect height="241.043478" width="242.608696" x="40.6" y="28.396875"/>
  </clipPath>
  <clipPath id="pff5a6f031a">
   <rect height="241.043478" width="242.608696" x="355.991304" y="28.396875"/>
  </clipPath>
  <clipPath id="pd2701a5b59">
   <rect height="241.043478" width="242.608696" x="40.6" y="341.753397"/>
  </clipPath>
  <clipPath id="pb70ec91ed1">
   <rect height="241.043478" width="242.608696" x="355.991304" y="341.753397"/>
  </clipPath>
 </defs>
</svg>
